<?xml version="1.0" encoding="UTF-8" standalone="no"?>
<!DOCTYPE svg PUBLIC "-//W3C//DTD SVG 1.1//EN" "http://www.w3.org/Graphics/SVG/1.1/DTD/svg11.dtd">
<!-- Generated by Microsoft Visio, SVG Export externalservices-component.svg Page-1 -->
<svg xmlns="http://www.w3.org/2000/svg" xmlns:xlink="http://www.w3.org/1999/xlink" xmlns:ev="http://www.w3.org/2001/xml-events"
		xmlns:v="http://schemas.microsoft.com/visio/2003/SVGExtensions/" width="1.96129in" height="2.19751in"
		viewBox="0 0 141.213 158.22" xml:space="preserve" color-interpolation-filters="sRGB" class="st8">
	<v:documentProperties v:langID="1033" v:metric="true" v:viewMarkup="false">
		<v:userDefs>
			<v:ud v:nameU="msvSubprocessMaster" v:prompt="" v:val="VT4(Rectangle)"/>
			<v:ud v:nameU="msvNoAutoConnect" v:val="VT0(1):26"/>
		</v:userDefs>
	</v:documentProperties>

	<style type="text/css">
	<![CDATA[
		.st1 {visibility:visible}
		.st2 {fill:#5b9bd5;fill-opacity:0.22;filter:url(#filter_2);stroke:none}
		.st3 {fill:#d8d8d8;stroke:none;stroke-width:1}
		.st4 {fill:#000000;font-family:Calibri;font-size:0.833336em}
		.st5 {fill:#a5a5a5;stroke:none;stroke-width:0.25}
		.st6 {fill:#feffff;font-family:Calibri;font-size:0.833336em}
		.st7 {fill:#7f7f7f;stroke:none;stroke-width:0.25}
		.st8 {fill:none;fill-rule:evenodd;font-size:12px;overflow:visible;stroke-linecap:square;stroke-miterlimit:3}
	]]>
	</style>

	<defs id="Filters">
		<filter id="filter_2">
			<feGaussianBlur stdDeviation="2"/>
		</filter>
	</defs>
	<g v:mID="0" v:index="1" v:groupContext="foregroundPage">
		<v:userDefs>
			<v:ud v:nameU="msvThemeOrder" v:val="VT0(0):26"/>
		</v:userDefs>
		<title>Page-1</title>
		<v:pageProperties v:drawingScale="0.0393701" v:pageScale="0.0393701" v:drawingUnits="24" v:shadowOffsetX="8.50394"
				v:shadowOffsetY="-8.50394"/>
		<g id="shape6-1" v:mID="6" v:groupContext="shape" transform="translate(20.6544,-22.9728)">
			<title>Rectangle.72</title>
			<desc>External Services</desc>
			<v:userDefs>
				<v:ud v:nameU="visVersion" v:val="VT0(15):26"/>
			</v:userDefs>
			<v:textBlock v:margins="rect(4,4,4,4)" v:tabSpace="42.5197" v:verticalAlign="0"/>
			<v:textRect cx="49.6063" cy="100.11" width="99.22" height="116.22"/>
			<g id="shadow6-2" v:groupContext="shadow" v:shadowOffsetX="0.345598" v:shadowOffsetY="-1.97279" v:shadowType="1"
					transform="matrix(1,0,0,1,0.345598,1.97279)" class="st1">
				<rect x="0" y="42" width="99.2126" height="116.22" class="st2"/>
			</g>
			<rect x="0" y="42" width="99.2126" height="116.22" class="st3"/>
			<text x="26.6" y="55" class="st4" v:langID="1031"><v:paragraph v:horizAlign="2"/><v:tabList/>External Services</text>		</g>
		<g id="shape1-7" v:mID="1" v:groupContext="shape" transform="translate(28.3465,-86.1267)">
			<title>Rectangle.22</title>
			<desc>External Service 1</desc>
			<v:userDefs>
				<v:ud v:nameU="visVersion" v:val="VT0(15):26"/>
			</v:userDefs>
			<v:textBlock v:margins="rect(4,4,4,4)" v:tabSpace="42.5197"/>
			<v:textRect cx="42.0442" cy="141.78" width="84.09" height="32.8819"/>
			<g id="shadow1-8" v:groupContext="shadow" v:shadowOffsetX="0.345598" v:shadowOffsetY="-1.97279" v:shadowType="1"
					transform="matrix(1,0,0,1,0.345598,1.97279)" class="st1">
				<rect x="0" y="125.339" width="84.0883" height="32.8819" class="st2"/>
			</g>
			<rect x="0" y="125.339" width="84.0883" height="32.8819" class="st5"/>
			<text x="6.03" y="144.78" class="st6" v:langID="1031"><v:paragraph v:horizAlign="1"/><v:tabList/>External Service 1</text>		</g>
		<g id="shape2-13" v:mID="2" v:groupContext="shape" transform="translate(28.3465,-33.6385)">
			<title>Rectangle.77</title>
			<desc>External Service n</desc>
			<v:userDefs>
				<v:ud v:nameU="visVersion" v:val="VT0(15):26"/>
			</v:userDefs>
			<v:textBlock v:margins="rect(4,4,4,4)" v:tabSpace="42.5197"/>
			<v:textRect cx="42.0442" cy="141.78" width="84.09" height="32.8819"/>
			<g id="shadow2-14" v:groupContext="shadow" v:shadowOffsetX="0.345598" v:shadowOffsetY="-1.97279" v:shadowType="1"
					transform="matrix(1,0,0,1,0.345598,1.97279)" class="st1">
				<rect x="0" y="125.339" width="84.0883" height="32.8819" class="st2"/>
			</g>
			<rect x="0" y="125.339" width="84.0883" height="32.8819" class="st5"/>
			<text x="5.94" y="144.78" class="st6" v:langID="1031"><v:paragraph v:horizAlign="1"/><v:tabList/>External Service n</text>		</g>
		<g id="shape3-19" v:mID="3" v:groupContext="shape" transform="translate(46.5293,-71.9062)">
			<title>Circle.78</title>
			<v:userDefs>
				<v:ud v:nameU="visVersion" v:val="VT0(15):26"/>
			</v:userDefs>
			<g id="shadow3-20" v:groupContext="shadow" v:shadowOffsetX="0.345598" v:shadowOffsetY="-1.97279" v:shadowType="1"
					transform="matrix(1,0,0,1,0.345598,1.97279)" class="st1">
				<path d="M0 153.97 A4.25197 4.25197 0 0 1 8.5 153.97 A4.25197 4.25197 0 1 1 0 153.97 Z" class="st2"/>
			</g>
			<path d="M0 153.97 A4.25197 4.25197 0 0 1 8.5 153.97 A4.25197 4.25197 0 1 1 0 153.97 Z" class="st7"/>
		</g>
		<g id="shape4-24" v:mID="4" v:groupContext="shape" transform="translate(63.5372,-71.9062)">
			<title>Circle.79</title>
			<v:userDefs>
				<v:ud v:nameU="visVersion" v:val="VT0(15):26"/>
			</v:userDefs>
			<g id="shadow4-25" v:groupContext="shadow" v:shadowOffsetX="0.345598" v:shadowOffsetY="-1.97279" v:shadowType="1"
					transform="matrix(1,0,0,1,0.345598,1.97279)" class="st1">
				<path d="M0 153.97 A4.25197 4.25197 0 0 1 8.5 153.97 A4.25197 4.25197 0 1 1 0 153.97 Z" class="st2"/>
			</g>
			<path d="M0 153.97 A4.25197 4.25197 0 0 1 8.5 153.97 A4.25197 4.25197 0 1 1 0 153.97 Z" class="st7"/>
		</g>
		<g id="shape5-29" v:mID="5" v:groupContext="shape" transform="translate(80.545,-71.9062)">
			<title>Circle.80</title>
			<v:userDefs>
				<v:ud v:nameU="visVersion" v:val="VT0(15):26"/>
			</v:userDefs>
			<g id="shadow5-30" v:groupContext="shadow" v:shadowOffsetX="0.345598" v:shadowOffsetY="-1.97279" v:shadowType="1"
					transform="matrix(1,0,0,1,0.345598,1.97279)" class="st1">
				<path d="M0 153.97 A4.25197 4.25197 0 0 1 8.5 153.97 A4.25197 4.25197 0 1 1 0 153.97 Z" class="st2"/>
			</g>
			<path d="M0 153.97 A4.25197 4.25197 0 0 1 8.5 153.97 A4.25197 4.25197 0 1 1 0 153.97 Z" class="st7"/>
		</g>
	</g>
</svg>
