<?xml version="1.0" encoding="UTF-8" standalone="no"?>
<!DOCTYPE svg PUBLIC "-//W3C//DTD SVG 1.1//EN" "http://www.w3.org/Graphics/SVG/1.1/DTD/svg11.dtd">
<!-- Generated by Microsoft Visio, SVG Export IPA-Architecture.svg Page-1 -->
<svg xmlns="http://www.w3.org/2000/svg" xmlns:xlink="http://www.w3.org/1999/xlink" xmlns:ev="http://www.w3.org/2001/xml-events"
		width="10.5512in" height="4.72441in" viewBox="0 0 759.685 340.157" xml:space="preserve" color-interpolation-filters="sRGB"
		class="st20">
	<title>IPA Architecture</title>

	<style type="text/css">
	<![CDATA[
		.st1 {visibility:visible}
		.st2 {fill:#5b9bd5;fill-opacity:0.22;filter:url(#filter_2);stroke:none}
		.st3 {fill:#90aadb;stroke:none;stroke-width:1}
		.st4 {fill:#feffff;font-family:Calibri;font-size:0.833336em}
		.st5 {fill:#dae2f3;stroke:none;stroke-width:1}
		.st6 {fill:#000000;font-family:Calibri;font-size:0.833336em}
		.st7 {fill:#e2efd9;stroke:none;stroke-width:1}
		.st8 {fill:#3f3f3f;font-family:Calibri;font-size:0.833336em}
		.st9 {fill:#f4b183;stroke:none;stroke-width:1}
		.st10 {fill:#ffffff;font-family:Calibri;font-size:0.833336em}
		.st11 {fill:#d8d8d8;stroke:none;stroke-width:1}
		.st12 {fill:#70ad47;stroke:none;stroke-width:0.25}
		.st13 {fill:#c55a11;stroke:none;stroke-width:0.25}
		.st14 {font-size:1em}
		.st15 {fill:#5b9bd5;stroke:none;stroke-width:0.25}
		.st16 {fill:#a5a5a5;stroke:none;stroke-width:0.25}
		.st17 {stroke:none;stroke-linecap:round;stroke-linejoin:round;stroke-width:1}
		.st18 {fill:#7f7f7f;stroke:none;stroke-width:0.25}
		.st19 {fill:#ed7d31;stroke:none;stroke-width:0.25}
		.st20 {fill:none;fill-rule:evenodd;font-size:12px;overflow:visible;stroke-linecap:square;stroke-miterlimit:3}
	]]>
	</style>

	<defs id="Filters">
		<filter id="filter_2">
			<feGaussianBlur stdDeviation="2"/>
		</filter>
	</defs>
	<g>
		<title>Page-1</title>
		<g id="shape48-1" transform="translate(364.535,-15.3071)">
			<title>Rectangle.48</title>
			<desc>APIs / Data</desc>
			<g id="shadow48-2" transform="matrix(1,0,0,1,0.345598,1.97279)" class="st1">
				<rect x="0" y="33.3071" width="378.142" height="306.85" class="st2"/>
			</g>
			<rect x="0" y="33.3071" width="378.142" height="306.85" class="st3"/>
			<text x="329.29" y="333.16" class="st4">APIs / Data</text>		</g>
		<g id="group61-7" transform="translate(377.291,-43.6535)">
			<title>Sheet.61</title>
			<g id="shape44-8" transform="translate(45.3543,-191.339)">
				<title>Rectangle.44</title>
				<desc>Core Provider</desc>
				<rect x="0" y="267.874" width="308.693" height="72.2835" class="st5"/>
				<text x="248.91" y="280.87" class="st6">Core Provider</text>			</g>
			<g id="shape46-11">
				<title>Rectangle.46</title>
				<rect x="0" y="76.5354" width="49.6063" height="263.622" class="st5"/>
			</g>
		</g>
		<g id="shape50-13" transform="translate(18,-14.5984)">
			<title>Rectangle.50</title>
			<desc>Client</desc>
			<g id="shadow50-14" transform="matrix(1,0,0,1,0.345598,1.97279)" class="st1">
				<rect x="0" y="33.3071" width="80.0787" height="306.85" class="st2"/>
			</g>
			<rect x="0" y="33.3071" width="80.0787" height="306.85" class="st7"/>
			<text x="52.58" y="333.16" class="st8">Client</text>		</g>
		<g id="shape47-19" transform="translate(105.165,-15.3071)">
			<title>Rectangle.47</title>
			<desc>Dialog</desc>
			<g id="shadow47-20" transform="matrix(1,0,0,1,0.345598,1.97279)" class="st1">
				<rect x="0" y="33.3071" width="253.701" height="306.85" class="st2"/>
			</g>
			<rect x="0" y="33.3071" width="253.701" height="306.85" class="st9"/>
			<text x="224.19" y="333.16" class="st10">Dialog</text>		</g>
		<g id="shape34-25" transform="translate(439.37,-157.323)">
			<title>Rectangle.34</title>
			<desc>IPA Provider 1</desc>
			<g id="shadow34-26" transform="matrix(1,0,0,1,0.345598,1.97279)" class="st1">
				<rect x="0" y="267.874" width="291.969" height="72.2835" class="st2"/>
			</g>
			<rect x="0" y="267.874" width="291.969" height="72.2835" class="st11"/>
			<text x="230.45" y="280.87" class="st6">IPA Provider 1</text>		</g>
		<g id="shape1-31" transform="translate(27.2126,-41.5276)">
			<title>Rectangle</title>
			<desc>IPA Client</desc>
			<g id="shadow1-32" transform="matrix(1,0,0,1,0.345598,1.97279)" class="st1">
				<rect x="0" y="86.8819" width="62.3622" height="253.276" class="st2"/>
			</g>
			<rect x="0" y="86.8819" width="62.3622" height="253.276" class="st12"/>
			<text x="11.56" y="216.52" class="st4">IPA Client</text>		</g>
		<g id="shape2-37" transform="translate(-199.559,297.921) rotate(-90)">
			<title>Rectangle.2</title>
			<desc>IPA Service</desc>
			<g id="shadow2-38" transform="matrix(1,0,0,1,-1.97279,0.345598)" class="st1">
				<rect x="0" y="311.811" width="252.567" height="28.3465" class="st2"/>
			</g>
			<rect x="0" y="311.811" width="252.567" height="28.3465" class="st13"/>
			<text x="103.88" y="328.98" class="st4">IPA Service</text>		</g>
		<g id="shape3-43" transform="translate(143.433,-115.937)">
			<title>Rectangle.3</title>
			<desc>Dialog Management</desc>
			<g id="shadow3-44" transform="matrix(1,0,0,1,0.345598,1.97279)" class="st1">
				<rect x="0" y="161.291" width="70.8661" height="178.866" class="st2"/>
			</g>
			<rect x="0" y="161.291" width="70.8661" height="178.866" class="st13"/>
			<text x="22.68" y="247.72" class="st4">Dialog <tspan x="8.12" dy="1.2em" class="st14">Management</tspan></text>		</g>
		<g id="shape4-50" transform="translate(386.335,-253.701)">
			<title>Rectangle.4</title>
			<desc>Accounts / Authentication</desc>
			<g id="shadow4-51" transform="matrix(1,0,0,1,0.345598,1.97279)" class="st1">
				<rect x="0" y="299.055" width="70.8661" height="41.1024" class="st2"/>
			</g>
			<rect x="0" y="299.055" width="70.8661" height="41.1024" class="st15"/>
			<text x="13.73" y="316.61" class="st4">Accounts / <tspan x="5.08" dy="1.2em" class="st14">Authentication</tspan></text>		</g>
		<g id="shape5-57" transform="translate(218.268,-211.961)">
			<title>Rectangle.5</title>
			<desc>Dialog 1</desc>
			<g id="shadow5-58" transform="matrix(1,0,0,1,0.345598,1.97279)" class="st1">
				<rect x="0" y="319.606" width="62.3622" height="20.5512" class="st2"/>
			</g>
			<rect x="0" y="319.606" width="62.3622" height="20.5512" class="st13"/>
			<text x="14.76" y="332.88" class="st4">Dialog 1</text>		</g>
		<g id="shape6-63" transform="translate(283.465,-211.961)">
			<title>Rectangle.6</title>
			<desc>Intent Set 1</desc>
			<g id="shadow6-64" transform="matrix(1,0,0,1,0.345598,1.97279)" class="st1">
				<rect x="0" y="319.606" width="62.3622" height="20.5512" class="st2"/>
			</g>
			<rect x="0" y="319.606" width="62.3622" height="20.5512" class="st13"/>
			<text x="7.58" y="332.88" class="st4">Intent Set 1</text>		</g>
		<g id="shape7-69" transform="translate(592.441,-255.118)">
			<title>Rectangle.7</title>
			<desc>Core Data Provider</desc>
			<g id="shadow7-70" transform="matrix(1,0,0,1,0.345598,1.97279)" class="st1">
				<rect x="0" y="299.055" width="62.3622" height="41.1024" class="st2"/>
			</g>
			<rect x="0" y="299.055" width="62.3622" height="41.1024" class="st15"/>
			<text x="10.98" y="316.61" class="st4">Core Data <tspan x="13.95" dy="1.2em" class="st14">Provider</tspan></text>		</g>
		<g id="shape15-76" transform="translate(657.638,-165.827)">
			<title>Rectangle.15</title>
			<desc>Knowledge Graph</desc>
			<g id="shadow15-77" transform="matrix(1,0,0,1,0.345598,1.97279)" class="st1">
				<rect x="0" y="299.055" width="62.3622" height="41.1024" class="st2"/>
			</g>
			<rect x="0" y="299.055" width="62.3622" height="41.1024" class="st16"/>
			<text x="8.64" y="316.61" class="st4">Knowledge <tspan x="18.63" dy="1.2em" class="st14">Graph</tspan></text>		</g>
		<g id="shape16-83" transform="translate(218.268,-253.701)">
			<title>Rectangle.16</title>
			<desc>Core Dialog</desc>
			<g id="shadow16-84" transform="matrix(1,0,0,1,0.345598,1.97279)" class="st1">
				<rect x="0" y="299.055" width="62.3622" height="41.1024" class="st2"/>
			</g>
			<rect x="0" y="299.055" width="62.3622" height="41.1024" class="st13"/>
			<text x="7.76" y="322.61" class="st4">Core Dialog</text>		</g>
		<g id="shape19-89" transform="translate(283.465,-253.701)">
			<title>Rectangle.19</title>
			<desc>Core Intent Set</desc>
			<g id="shadow19-90" transform="matrix(1,0,0,1,0.345598,1.97279)" class="st1">
				<rect x="0" y="299.055" width="62.3622" height="41.1024" class="st2"/>
			</g>
			<rect x="0" y="299.055" width="62.3622" height="41.1024" class="st13"/>
			<text x="8.17" y="316.61" class="st4">Core Intent <tspan x="24.72" dy="1.2em" class="st14">Set</tspan></text>		</g>
		<g id="shape20-96" transform="translate(217.134,-117.501)">
			<title>Rectangle.20</title>
			<desc>Dialog Registry</desc>
			<g id="shadow20-97" transform="matrix(1,0,0,1,0.345598,1.97279)" class="st1">
				<rect x="0" y="299.055" width="129.685" height="41.1024" class="st2"/>
			</g>
			<rect x="0" y="299.055" width="129.685" height="41.1024" class="st13"/>
			<text x="34.62" y="322.61" class="st4">Dialog Registry</text>		</g>
		<g id="shape22-102" transform="translate(588.189,-165.827)">
			<title>Rectangle.22</title>
			<desc>Data Provider</desc>
			<g id="shadow22-103" transform="matrix(1,0,0,1,0.345598,1.97279)" class="st1">
				<rect x="0" y="299.055" width="62.3622" height="41.1024" class="st2"/>
			</g>
			<rect x="0" y="299.055" width="62.3622" height="41.1024" class="st16"/>
			<text x="21.64" y="316.61" class="st4">Data <tspan x="13.95" dy="1.2em" class="st14">Provider</tspan></text>		</g>
		<g id="shape30-109" transform="translate(-233.22,288.709) rotate(-90)">
			<title>Sheet.30</title>
			<path d="M0 340.16 L0 340.16" class="st17"/>
		</g>
		<g id="shape35-112" transform="translate(518.74,-165.827)">
			<title>Rectangle.35</title>
			<desc>Provider Intent Set</desc>
			<g id="shadow35-113" transform="matrix(1,0,0,1,0.345598,1.97279)" class="st1">
				<rect x="0" y="299.055" width="62.3622" height="41.1024" class="st2"/>
			</g>
			<rect x="0" y="299.055" width="62.3622" height="41.1024" class="st16"/>
			<text x="13.95" y="316.61" class="st4">Provider <tspan x="11.24" dy="1.2em" class="st14">Intent Set</tspan></text>		</g>
		<g id="shape36-119" transform="translate(439.37,-42.5197)">
			<title>Rectangle.36</title>
			<desc>IPA Provider n</desc>
			<g id="shadow36-120" transform="matrix(1,0,0,1,0.345598,1.97279)" class="st1">
				<rect x="0" y="267.874" width="291.969" height="72.2835" class="st2"/>
			</g>
			<rect x="0" y="267.874" width="291.969" height="72.2835" class="st11"/>
			<text x="230.27" y="280.87" class="st6">IPA Provider n</text>		</g>
		<g id="shape37-125" transform="translate(657.638,-51.0236)">
			<title>Rectangle.37</title>
			<desc>Knowledge Graph</desc>
			<g id="shadow37-126" transform="matrix(1,0,0,1,0.345598,1.97279)" class="st1">
				<rect x="0" y="299.055" width="62.3622" height="41.1024" class="st2"/>
			</g>
			<rect x="0" y="299.055" width="62.3622" height="41.1024" class="st16"/>
			<text x="8.64" y="316.61" class="st4">Knowledge <tspan x="18.63" dy="1.2em" class="st14">Graph</tspan></text>		</g>
		<g id="shape39-132" transform="translate(588.189,-51.0236)">
			<title>Rectangle.39</title>
			<desc>Data Provider</desc>
			<g id="shadow39-133" transform="matrix(1,0,0,1,0.345598,1.97279)" class="st1">
				<rect x="0" y="299.055" width="62.3622" height="41.1024" class="st2"/>
			</g>
			<rect x="0" y="299.055" width="62.3622" height="41.1024" class="st16"/>
			<text x="21.64" y="316.61" class="st4">Data <tspan x="13.95" dy="1.2em" class="st14">Provider</tspan></text>		</g>
		<g id="shape40-139" transform="translate(518.74,-51.0236)">
			<title>Rectangle.40</title>
			<desc>Provider Intent Set</desc>
			<g id="shadow40-140" transform="matrix(1,0,0,1,0.345598,1.97279)" class="st1">
				<rect x="0" y="299.055" width="62.3622" height="41.1024" class="st2"/>
			</g>
			<rect x="0" y="299.055" width="62.3622" height="41.1024" class="st16"/>
			<text x="13.95" y="316.61" class="st4">Provider <tspan x="11.24" dy="1.2em" class="st14">Intent Set</tspan></text>		</g>
		<g id="shape41-146" transform="translate(566.929,-133.228)">
			<title>Circle</title>
			<g id="shadow41-147" transform="matrix(1,0,0,1,0.345598,1.97279)" class="st1">
				<path d="M0 335.91 A4.25197 4.25197 0 0 1 8.5 335.91 A4.25197 4.25197 0 1 1 0 335.91 Z" class="st2"/>
			</g>
			<path d="M0 335.91 A4.25197 4.25197 0 0 1 8.5 335.91 A4.25197 4.25197 0 1 1 0 335.91 Z" class="st18"/>
		</g>
		<g id="shape42-151" transform="translate(583.937,-133.228)">
			<title>Circle.42</title>
			<g id="shadow42-152" transform="matrix(1,0,0,1,0.345598,1.97279)" class="st1">
				<path d="M0 335.91 A4.25197 4.25197 0 0 1 8.5 335.91 A4.25197 4.25197 0 1 1 0 335.91 Z" class="st2"/>
			</g>
			<path d="M0 335.91 A4.25197 4.25197 0 0 1 8.5 335.91 A4.25197 4.25197 0 1 1 0 335.91 Z" class="st18"/>
		</g>
		<g id="shape43-156" transform="translate(600.945,-133.228)">
			<title>Circle.43</title>
			<g id="shadow43-157" transform="matrix(1,0,0,1,0.345598,1.97279)" class="st1">
				<path d="M0 335.91 A4.25197 4.25197 0 0 1 8.5 335.91 A4.25197 4.25197 0 1 1 0 335.91 Z" class="st2"/>
			</g>
			<path d="M0 335.91 A4.25197 4.25197 0 0 1 8.5 335.91 A4.25197 4.25197 0 1 1 0 335.91 Z" class="st18"/>
		</g>
		<g id="shape45-161" transform="translate(76.8189,285.165) rotate(-90)">
			<title>Rectangle.45</title>
			<desc>Provider Selection Service</desc>
			<g id="shadow45-162" transform="matrix(1,0,0,1,-1.97279,0.345598)" class="st1">
				<rect x="0" y="311.811" width="178.866" height="28.3465" class="st2"/>
			</g>
			<rect x="0" y="311.811" width="178.866" height="28.3465" class="st15"/>
			<text x="36.79" y="328.98" class="st4">Provider Selection Service</text>		</g>
		<g id="shape51-167" transform="translate(218.268,-165.543)">
			<title>Rectangle.51</title>
			<desc>Dialog n</desc>
			<g id="shadow51-168" transform="matrix(1,0,0,1,0.345598,1.97279)" class="st1">
				<rect x="0" y="319.606" width="62.3622" height="20.5512" class="st2"/>
			</g>
			<rect x="0" y="319.606" width="62.3622" height="20.5512" class="st13"/>
			<text x="14.67" y="332.88" class="st4">Dialog n</text>		</g>
		<g id="shape52-173" transform="translate(283.465,-165.543)">
			<title>Rectangle.52</title>
			<desc>Intent Set n</desc>
			<g id="shadow52-174" transform="matrix(1,0,0,1,0.345598,1.97279)" class="st1">
				<rect x="0" y="319.606" width="62.3622" height="20.5512" class="st2"/>
			</g>
			<rect x="0" y="319.606" width="62.3622" height="20.5512" class="st13"/>
			<text x="7.48" y="332.88" class="st4">Intent Set n</text>		</g>
		<g id="shape53-179" transform="translate(261.071,-193.89)">
			<title>Circle.53</title>
			<g id="shadow53-180" transform="matrix(1,0,0,1,0.345598,1.97279)" class="st1">
				<path d="M0 335.91 A4.25197 4.25197 0 0 1 8.5 335.91 A4.25197 4.25197 0 1 1 0 335.91 Z" class="st2"/>
			</g>
			<path d="M0 335.91 A4.25197 4.25197 0 0 1 8.5 335.91 A4.25197 4.25197 0 1 1 0 335.91 Z" class="st19"/>
		</g>
		<g id="shape54-184" transform="translate(278.079,-193.89)">
			<title>Circle.54</title>
			<g id="shadow54-185" transform="matrix(1,0,0,1,0.345598,1.97279)" class="st1">
				<path d="M0 335.91 A4.25197 4.25197 0 0 1 8.5 335.91 A4.25197 4.25197 0 1 1 0 335.91 Z" class="st2"/>
			</g>
			<path d="M0 335.91 A4.25197 4.25197 0 0 1 8.5 335.91 A4.25197 4.25197 0 1 1 0 335.91 Z" class="st19"/>
		</g>
		<g id="shape55-189" transform="translate(295.087,-193.89)">
			<title>Circle.55</title>
			<g id="shadow55-190" transform="matrix(1,0,0,1,0.345598,1.97279)" class="st1">
				<path d="M0 335.91 A4.25197 4.25197 0 0 1 8.5 335.91 A4.25197 4.25197 0 1 1 0 335.91 Z" class="st2"/>
			</g>
			<path d="M0 335.91 A4.25197 4.25197 0 0 1 8.5 335.91 A4.25197 4.25197 0 1 1 0 335.91 Z" class="st19"/>
		</g>
		<g id="shape56-194" transform="translate(449.291,-165.827)">
			<title>Rectangle.56</title>
			<desc>Provider NLU</desc>
			<g id="shadow56-195" transform="matrix(1,0,0,1,0.345598,1.97279)" class="st1">
				<rect x="0" y="299.055" width="62.3622" height="41.1024" class="st2"/>
			</g>
			<rect x="0" y="299.055" width="62.3622" height="41.1024" class="st16"/>
			<text x="4.29" y="322.61" class="st4">Provider NLU</text>		</g>
		<g id="shape57-200" transform="translate(449.291,-51.0236)">
			<title>Rectangle.57</title>
			<desc>Provider NLU</desc>
			<g id="shadow57-201" transform="matrix(1,0,0,1,0.345598,1.97279)" class="st1">
				<rect x="0" y="299.055" width="62.3622" height="41.1024" class="st2"/>
			</g>
			<rect x="0" y="299.055" width="62.3622" height="41.1024" class="st16"/>
			<text x="4.29" y="322.61" class="st4">Provider NLU</text>		</g>
		<g id="shape58-206" transform="translate(517.323,-255.118)">
			<title>Rectangle.58</title>
			<desc>Core NLU</desc>
			<g id="shadow58-207" transform="matrix(1,0,0,1,0.345598,1.97279)" class="st1">
				<rect x="0" y="299.055" width="62.3622" height="41.1024" class="st2"/>
			</g>
			<rect x="0" y="299.055" width="62.3622" height="41.1024" class="st15"/>
			<text x="11.98" y="322.61" class="st4">Core NLU</text>		</g>
		<g id="shape59-212" transform="translate(143.15,-42.2362)">
			<title>Rectangle.59</title>
			<desc>ASR</desc>
			<g id="shadow59-213" transform="matrix(1,0,0,1,0.345598,1.97279)" class="st1">
				<rect x="0" y="307.276" width="70.8661" height="32.8819" class="st2"/>
			</g>
			<rect x="0" y="307.276" width="70.8661" height="32.8819" class="st13"/>
			<text x="27.53" y="326.72" class="st4">ASR</text>		</g>
		<g id="shape60-218" transform="translate(143.15,-77.9528)">
			<title>Rectangle.60</title>
			<desc>TTS</desc>
			<g id="shadow60-219" transform="matrix(1,0,0,1,0.345598,1.97279)" class="st1">
				<rect x="0" y="307.276" width="70.8661" height="32.8819" class="st2"/>
			</g>
			<rect x="0" y="307.276" width="70.8661" height="32.8819" class="st13"/>
			<text x="28.26" y="326.72" class="st4">TTS</text>		</g>
	</g>
</svg>
