<?xml version="1.0" encoding="UTF-8" standalone="no"?>
<!DOCTYPE svg PUBLIC "-//W3C//DTD SVG 1.1//EN" "http://www.w3.org/Graphics/SVG/1.1/DTD/svg11.dtd">
<!-- Generated by Microsoft Visio, SVG Export ipaprovider-component.svg Page-1 -->
<svg xmlns="http://www.w3.org/2000/svg" xmlns:xlink="http://www.w3.org/1999/xlink" xmlns:ev="http://www.w3.org/2001/xml-events"
		width="4.23458in" height="0.900262in" viewBox="0 0 304.89 64.8189" xml:space="preserve" color-interpolation-filters="sRGB"
		class="st8">
	<style type="text/css">
	<![CDATA[
		.st1 {visibility:visible}
		.st2 {fill:#5b9bd5;fill-opacity:0.22;filter:url(#filter_2);stroke:none}
		.st3 {fill:#bfbfbf;stroke:none;stroke-width:1}
		.st4 {fill:#000000;font-family:Calibri;font-size:0.833336em}
		.st5 {fill:#a5a5a5;stroke:none;stroke-width:0.25}
		.st6 {fill:#feffff;font-family:Calibri;font-size:0.833336em}
		.st7 {font-size:1em}
		.st8 {fill:none;fill-rule:evenodd;font-size:12px;overflow:visible;stroke-linecap:square;stroke-miterlimit:3}
	]]>
	</style>

	<defs id="Filters">
		<filter id="filter_2">
			<feGaussianBlur stdDeviation="2"/>
		</filter>
	</defs>
	<g>
		<title>Page-1</title>
		<g id="shape1-1" transform="translate(2.6544,-4.9728)">
			<title>Rectangle.103</title>
			<desc>IPA Provider 1</desc>
			<g id="shadow1-2" transform="matrix(1,0,0,1,0.345598,1.97279)" class="st1">
				<rect x="0" y="6" width="298.89" height="58.8189" class="st2"/>
			</g>
			<rect x="0" y="6" width="298.89" height="58.8189" class="st3"/>
			<text x="237.38" y="19" class="st4">IPA Provider 1</text>		</g>
		<g id="shape2-7" transform="translate(219.339,-13.6181)">
			<title>Rectangle.73</title>
			<desc>...</desc>
			<g id="shadow2-8" transform="matrix(1,0,0,1,0.345598,1.97279)" class="st1">
				<rect x="0" y="33.6378" width="62.3622" height="31.1811" class="st2"/>
			</g>
			<rect x="0" y="33.6378" width="62.3622" height="31.1811" class="st5"/>
			<text x="27.39" y="52.23" class="st6">...</text>		</g>
		<g id="shape3-13" transform="translate(149.891,-13.6181)">
			<title>Rectangle.74</title>
			<desc>Provider Intent Set</desc>
			<g id="shadow3-14" transform="matrix(1,0,0,1,0.345598,1.97279)" class="st1">
				<rect x="0" y="33.6378" width="62.3622" height="31.1811" class="st2"/>
			</g>
			<rect x="0" y="33.6378" width="62.3622" height="31.1811" class="st5"/>
			<text x="13.95" y="46.23" class="st6">Provider <tspan x="11.24" dy="1.2em" class="st7">Intent Set</tspan></text>		</g>
		<g id="shape4-20" transform="translate(80.4418,-13.6181)">
			<title>Rectangle.75</title>
			<desc>Provider NLU</desc>
			<g id="shadow4-21" transform="matrix(1,0,0,1,0.345598,1.97279)" class="st1">
				<rect x="0" y="33.6378" width="62.3622" height="31.1811" class="st2"/>
			</g>
			<rect x="0" y="33.6378" width="62.3622" height="31.1811" class="st5"/>
			<text x="4.29" y="52.23" class="st6">Provider NLU</text>		</g>
		<g id="shape5-26" transform="translate(11.1583,-13.6181)">
			<title>Rectangle.112</title>
			<desc>Provider ASR</desc>
			<g id="shadow5-27" transform="matrix(1,0,0,1,0.345598,1.97279)" class="st1">
				<rect x="0" y="33.6378" width="62.3622" height="31.1811" class="st2"/>
			</g>
			<rect x="0" y="33.6378" width="62.3622" height="31.1811" class="st5"/>
			<text x="4.92" y="52.23" class="st6">Provider ASR</text>		</g>
	</g>
</svg>
