<?xml version="1.0" encoding="UTF-8" standalone="no"?>
<!DOCTYPE svg PUBLIC "-//W3C//DTD SVG 1.1//EN" "http://www.w3.org/Graphics/SVG/1.1/DTD/svg11.dtd">
<!-- Generated by Microsoft Visio, SVG Export api-data-layer.svg Page-1 -->
<svg xmlns="http://www.w3.org/2000/svg" xmlns:xlink="http://www.w3.org/1999/xlink" xmlns:ev="http://www.w3.org/2001/xml-events"
		width="2.82814in" height="4.84514in" viewBox="0 0 203.626 348.85" xml:space="preserve" color-interpolation-filters="sRGB"
		class="st8">
	<style type="text/css">
	<![CDATA[
		.st1 {visibility:visible}
		.st2 {fill:#5b9bd5;fill-opacity:0.22;filter:url(#filter_2);stroke:none}
		.st3 {fill:#90aadb;stroke:none;stroke-width:1}
		.st4 {fill:#feffff;font-family:Calibri;font-size:0.833336em}
		.st5 {fill:#a5a5a5;stroke:none;stroke-width:0.25}
		.st6 {font-size:1em}
		.st7 {fill:#5b9bd5;stroke:none;stroke-width:0.25}
		.st8 {fill:none;fill-rule:evenodd;font-size:12px;overflow:visible;stroke-linecap:square;stroke-miterlimit:3}
	]]>
	</style>

	<defs id="Filters">
		<filter id="filter_2">
			<feGaussianBlur stdDeviation="2"/>
		</filter>
	</defs>
	<g>
		<title>Page-1</title>
		<g id="shape48-1" transform="translate(20.6544,-22.9728)">
			<title>Rectangle.48</title>
			<desc>APIs / Data</desc>
			<g id="shadow48-2" transform="matrix(1,0,0,1,0.345598,1.97279)" class="st1">
				<rect x="0" y="42" width="161.626" height="306.85" class="st2"/>
			</g>
			<rect x="0" y="42" width="161.626" height="306.85" class="st3"/>
			<text x="112.78" y="341.85" class="st4">APIs / Data</text>		</g>
		<g id="shape49-7" transform="translate(110.551,-237.827)">
			<title>Rectangle.39</title>
			<desc>Data Providers</desc>
			<g id="shadow49-8" transform="matrix(1,0,0,1,0.345598,1.97279)" class="st1">
				<rect x="0" y="271.984" width="62.3622" height="76.8662" class="st2"/>
			</g>
			<rect x="0" y="271.984" width="62.3622" height="76.8662" class="st5"/>
			<text x="21.64" y="307.42" class="st4">Data <tspan x="12" dy="1.2em" class="st6">Providers</tspan></text>		</g>
		<g id="shape50-14" transform="translate(-246.752,291.827) rotate(-90)">
			<title>Rectangle.45</title>
			<desc>Provider Selection Service</desc>
			<g id="shadow50-15" transform="matrix(1,0,0,1,-1.97279,0.345598)" class="st1">
				<rect x="0" y="277.984" width="257.669" height="70.8661" class="st2"/>
			</g>
			<rect x="0" y="277.984" width="257.669" height="70.8661" class="st7"/>
			<text x="76.19" y="316.42" class="st4">Provider Selection Service</text>		</g>
		<g id="shape51-20" transform="translate(110.551,-146.15)">
			<title>Rectangle.85</title>
			<desc>External Services</desc>
			<g id="shadow51-21" transform="matrix(1,0,0,1,0.345598,1.97279)" class="st1">
				<rect x="0" y="271.984" width="62.3622" height="76.8662" class="st2"/>
			</g>
			<rect x="0" y="271.984" width="62.3622" height="76.8662" class="st5"/>
			<text x="14.5" y="307.42" class="st4">External <tspan x="14.69" dy="1.2em" class="st6">Services</tspan></text>		</g>
		<g id="shape52-27" transform="translate(110.551,-56.6929)">
			<title>Rectangle.86</title>
			<desc>IPA Providers</desc>
			<g id="shadow52-28" transform="matrix(1,0,0,1,0.345598,1.97279)" class="st1">
				<rect x="0" y="271.984" width="62.3622" height="76.8662" class="st2"/>
			</g>
			<rect x="0" y="271.984" width="62.3622" height="76.8662" class="st5"/>
			<text x="24.45" y="307.42" class="st4">IPA<tspan x="12" dy="1.2em" class="st6">Providers</tspan></text>		</g>
	</g>
</svg>
