<?xml version="1.0" encoding="UTF-8" standalone="no"?>
<!DOCTYPE svg PUBLIC "-//W3C//DTD SVG 1.1//EN" "http://www.w3.org/Graphics/SVG/1.1/DTD/svg11.dtd">
<!-- Generated by Microsoft Visio, SVG Export api-data-layer.svg Page-1 -->
<svg xmlns="http://www.w3.org/2000/svg" xmlns:xlink="http://www.w3.org/1999/xlink" xmlns:ev="http://www.w3.org/2001/xml-events"
		width="2.82814in" height="4.84514in" viewBox="0 0 203.626 348.85" xml:space="preserve" color-interpolation-filters="sRGB"
		class="st9">
	<style type="text/css">
	<![CDATA[
		.st1 {visibility:visible}
		.st2 {fill:#5b9bd5;fill-opacity:0.22;filter:url(#filter_2);stroke:none}
		.st3 {fill:#90aadb;stroke:none;stroke-width:1}
		.st4 {fill:#feffff;font-family:Calibri;font-size:0.833336em}
		.st5 {fill:#5b9bd5;stroke:none;stroke-width:0.25}
		.st6 {font-size:1em}
		.st7 {fill:#a5a5a5;stroke:none;stroke-width:0.25}
		.st8 {fill:#7f7f7f;stroke:none;stroke-width:0.25}
		.st9 {fill:none;fill-rule:evenodd;font-size:12px;overflow:visible;stroke-linecap:square;stroke-miterlimit:3}
	]]>
	</style>

	<defs id="Filters">
		<filter id="filter_2">
			<feGaussianBlur stdDeviation="2"/>
		</filter>
	</defs>
	<g>
		<title>Page-1</title>
		<g id="shape48-1" transform="translate(20.6544,-22.9728)">
			<title>Rectangle.48</title>
			<desc>APIs / Data</desc>
			<g id="shadow48-2" transform="matrix(1,0,0,1,0.345598,1.97279)" class="st1">
				<rect x="0" y="42" width="161.626" height="306.85" class="st2"/>
			</g>
			<rect x="0" y="42" width="161.626" height="306.85" class="st3"/>
			<text x="112.78" y="341.85" class="st4">APIs / Data</text>		</g>
		<g id="shape22-7" transform="translate(109.617,-212.327)">
			<title>Rectangle.22</title>
			<desc>Data Provider 1</desc>
			<g id="shadow22-8" transform="matrix(1,0,0,1,0.345598,1.97279)" class="st1">
				<rect x="0" y="315.969" width="62.3622" height="32.8819" class="st2"/>
			</g>
			<rect x="0" y="315.969" width="62.3622" height="32.8819" class="st5"/>
			<text x="21.64" y="329.41" class="st4">Data <tspan x="10.29" dy="1.2em" class="st6">Provider </tspan>1</text>		</g>
		<g id="shape39-14" transform="translate(109.617,-159.839)">
			<title>Rectangle.39</title>
			<desc>Data Provider n</desc>
			<g id="shadow39-15" transform="matrix(1,0,0,1,0.345598,1.97279)" class="st1">
				<rect x="0" y="315.969" width="62.3622" height="32.8819" class="st2"/>
			</g>
			<rect x="0" y="315.969" width="62.3622" height="32.8819" class="st5"/>
			<text x="21.64" y="329.41" class="st4">Data <tspan x="10.2" dy="1.2em" class="st6">Provider n</tspan></text>		</g>
		<g id="shape41-21" transform="translate(119.919,-198.107)">
			<title>Circle</title>
			<g id="shadow41-22" transform="matrix(1,0,0,1,0.345598,1.97279)" class="st1">
				<path d="M0 344.6 A4.25197 4.25197 0 0 1 8.5 344.6 A4.25197 4.25197 0 1 1 0 344.6 Z" class="st2"/>
			</g>
			<path d="M0 344.6 A4.25197 4.25197 0 0 1 8.5 344.6 A4.25197 4.25197 0 1 1 0 344.6 Z" class="st5"/>
		</g>
		<g id="shape42-26" transform="translate(136.926,-198.107)">
			<title>Circle.42</title>
			<g id="shadow42-27" transform="matrix(1,0,0,1,0.345598,1.97279)" class="st1">
				<path d="M0 344.6 A4.25197 4.25197 0 0 1 8.5 344.6 A4.25197 4.25197 0 1 1 0 344.6 Z" class="st2"/>
			</g>
			<path d="M0 344.6 A4.25197 4.25197 0 0 1 8.5 344.6 A4.25197 4.25197 0 1 1 0 344.6 Z" class="st5"/>
		</g>
		<g id="shape43-31" transform="translate(153.934,-198.107)">
			<title>Circle.43</title>
			<g id="shadow43-32" transform="matrix(1,0,0,1,0.345598,1.97279)" class="st1">
				<path d="M0 344.6 A4.25197 4.25197 0 0 1 8.5 344.6 A4.25197 4.25197 0 1 1 0 344.6 Z" class="st2"/>
			</g>
			<path d="M0 344.6 A4.25197 4.25197 0 0 1 8.5 344.6 A4.25197 4.25197 0 1 1 0 344.6 Z" class="st5"/>
		</g>
		<g id="shape45-36" transform="translate(-267.857,299.563) rotate(-90)">
			<title>Rectangle.45</title>
			<desc>Provider Selection Service</desc>
			<g id="shadow45-37" transform="matrix(1,0,0,1,-1.97279,0.345598)" class="st1">
				<rect x="0" y="297.118" width="195.921" height="51.7323" class="st2"/>
			</g>
			<rect x="0" y="297.118" width="195.921" height="51.7323" class="st5"/>
			<text x="45.32" y="325.98" class="st4">Provider Selection Service</text>		</g>
		<g id="shape78-42" transform="translate(109.617,-259.382)">
			<title>Rectangle.4</title>
			<desc>Accounts / Authentication</desc>
			<g id="shadow78-43" transform="matrix(1,0,0,1,0.345598,1.97279)" class="st1">
				<rect x="0" y="300.661" width="62.3622" height="48.189" class="st2"/>
			</g>
			<rect x="0" y="300.661" width="62.3622" height="48.189" class="st5"/>
			<text x="9.48" y="315.76" class="st4">Accounts / <tspan x="6.09" dy="1.2em" class="st6">Authenticati</tspan><tspan
						x="25.92" dy="1.2em" class="st6">on</tspan></text>		</g>
		<g id="shape79-50" transform="translate(28.5529,-259.382)">
			<title>Rectangle.62</title>
			<desc>Provider Registry</desc>
			<g id="shadow79-51" transform="matrix(1,0,0,1,0.345598,1.97279)" class="st1">
				<rect x="0" y="300.661" width="70.8661" height="48.189" class="st2"/>
			</g>
			<rect x="0" y="300.661" width="70.8661" height="48.189" class="st5"/>
			<text x="18.21" y="321.76" class="st4">Provider <tspan x="19.09" dy="1.2em" class="st6">Registry</tspan></text>		</g>
		<g id="shape85-57" transform="translate(108.58,-101.445)">
			<title>Rectangle.85</title>
			<desc>IPA Provider 1</desc>
			<g id="shadow85-58" transform="matrix(1,0,0,1,0.345598,1.97279)" class="st1">
				<rect x="0" y="315.969" width="62.3622" height="32.8819" class="st2"/>
			</g>
			<rect x="0" y="315.969" width="62.3622" height="32.8819" class="st7"/>
			<text x="24.45" y="329.41" class="st4">IPA<tspan x="10.29" dy="1.2em" class="st6">Provider </tspan>1</text>		</g>
		<g id="shape86-64" transform="translate(108.58,-48.957)">
			<title>Rectangle.86</title>
			<desc>IPA Provider n</desc>
			<g id="shadow86-65" transform="matrix(1,0,0,1,0.345598,1.97279)" class="st1">
				<rect x="0" y="315.969" width="62.3622" height="32.8819" class="st2"/>
			</g>
			<rect x="0" y="315.969" width="62.3622" height="32.8819" class="st7"/>
			<text x="24.45" y="329.41" class="st4">IPA<tspan x="10.2" dy="1.2em" class="st6">Provider n</tspan></text>		</g>
		<g id="shape87-71" transform="translate(119.919,-87.5555)">
			<title>Circle.87</title>
			<g id="shadow87-72" transform="matrix(1,0,0,1,0.345598,1.97279)" class="st1">
				<path d="M0 344.6 A4.25197 4.25197 0 0 1 8.5 344.6 A4.25197 4.25197 0 1 1 0 344.6 Z" class="st2"/>
			</g>
			<path d="M0 344.6 A4.25197 4.25197 0 0 1 8.5 344.6 A4.25197 4.25197 0 1 1 0 344.6 Z" class="st8"/>
		</g>
		<g id="shape88-76" transform="translate(136.926,-87.5555)">
			<title>Circle.88</title>
			<g id="shadow88-77" transform="matrix(1,0,0,1,0.345598,1.97279)" class="st1">
				<path d="M0 344.6 A4.25197 4.25197 0 0 1 8.5 344.6 A4.25197 4.25197 0 1 1 0 344.6 Z" class="st2"/>
			</g>
			<path d="M0 344.6 A4.25197 4.25197 0 0 1 8.5 344.6 A4.25197 4.25197 0 1 1 0 344.6 Z" class="st8"/>
		</g>
		<g id="shape89-81" transform="translate(153.934,-87.5555)">
			<title>Circle.89</title>
			<g id="shadow89-82" transform="matrix(1,0,0,1,0.345598,1.97279)" class="st1">
				<path d="M0 344.6 A4.25197 4.25197 0 0 1 8.5 344.6 A4.25197 4.25197 0 1 1 0 344.6 Z" class="st2"/>
			</g>
			<path d="M0 344.6 A4.25197 4.25197 0 0 1 8.5 344.6 A4.25197 4.25197 0 1 1 0 344.6 Z" class="st8"/>
		</g>
	</g>
</svg>
