<?xml version="1.0" encoding="UTF-8" standalone="no"?>
<!DOCTYPE svg PUBLIC "-//W3C//DTD SVG 1.1//EN" "http://www.w3.org/Graphics/SVG/1.1/DTD/svg11.dtd">
<!-- Generated by Microsoft Visio, SVG Export architecture-walkthrough-input.svg Page-1 -->
<svg xmlns="http://www.w3.org/2000/svg" xmlns:xlink="http://www.w3.org/1999/xlink" xmlns:ev="http://www.w3.org/2001/xml-events"
		width="12.1862in" height="5.95455in" viewBox="0 0 877.409 428.728" xml:space="preserve" color-interpolation-filters="sRGB"
		class="st25">
	<style type="text/css">
	<![CDATA[
		.st1 {visibility:visible}
		.st2 {fill:#5b9bd5;fill-opacity:0.22;filter:url(#filter_2);stroke:none}
		.st3 {fill:#f4b183;stroke:none;stroke-width:1}
		.st4 {fill:#ffffff;font-family:Calibri;font-size:0.833336em}
		.st5 {fill:#c55a11;stroke:none;stroke-width:0.25}
		.st6 {fill:#feffff;font-family:Calibri;font-size:0.833336em}
		.st7 {fill:#90aadb;stroke:none;stroke-width:1}
		.st8 {fill:#e2efd9;stroke:none;stroke-width:1}
		.st9 {fill:#3f3f3f;font-family:Calibri;font-size:0.833336em}
		.st10 {fill:#70ad47;stroke:none;stroke-width:0.25}
		.st11 {fill:#833c0b;stroke:none;stroke-width:0.25}
		.st12 {font-size:1em}
		.st13 {stroke:none;stroke-linecap:round;stroke-linejoin:round;stroke-width:1}
		.st14 {fill:#5b9bd5;stroke:none;stroke-width:0.25}
		.st15 {fill:#a5a5a5;stroke:none;stroke-width:0.25}
		.st16 {fill:#d8d8d8;stroke:none;stroke-width:1}
		.st17 {fill:#000000;font-family:Calibri;font-size:0.833336em}
		.st18 {fill:#7f7f7f;stroke:none;stroke-width:0.25}
		.st19 {fill:#41719c;stroke:none;stroke-width:0.25}
		.st20 {marker-end:url(#mrkr13-253);stroke:#000000;stroke-linecap:round;stroke-linejoin:round;stroke-width:1}
		.st21 {fill:#000000;fill-opacity:1;stroke:#000000;stroke-opacity:1;stroke-width:0.28409090909091}
		.st22 {fill:#000000;stroke:none;stroke-linecap:round;stroke-linejoin:round;stroke-width:0.75}
		.st23 {fill:#ffffff;font-family:Calibri;font-size:0.590561em}
		.st24 {fill:#bfbfbf;stroke:none;stroke-width:1}
		.st25 {fill:none;fill-rule:evenodd;font-size:12px;overflow:visible;stroke-linecap:square;stroke-miterlimit:3}
	]]>
	</style>

	<defs id="Markers">
		<g id="lend13">
			<path d="M 3 1 L 0 0 L 3 -1 L 3 1 " style="stroke:none"/>
		</g>
		<marker id="mrkr13-253" class="st21" refX="-10.56" orient="auto" markerUnits="strokeWidth" overflow="visible">
			<use xlink:href="#lend13" transform="scale(-3.52,-3.52) "/>
		</marker>
	</defs>
	<defs id="Filters">
		<filter id="filter_2">
			<feGaussianBlur stdDeviation="2"/>
		</filter>
	</defs>
	<g>
		<title>Page-1</title>
		<g id="shape47-1" transform="translate(107.82,-23.6815)">
			<title>Rectangle.47</title>
			<desc>Dialog</desc>
			<g id="shadow47-2" transform="matrix(1,0,0,1,0.345598,1.97279)" class="st1">
				<rect x="0" y="44.5154" width="311.708" height="384.213" class="st2"/>
			</g>
			<rect x="0" y="44.5154" width="311.708" height="384.213" class="st3"/>
			<text x="282.19" y="421.73" class="st4">Dialog</text>		</g>
		<g id="shape71-7" transform="translate(261.28,-51)">
			<title>Rectangle.71</title>
			<desc>Dialogs</desc>
			<g id="shadow71-8" transform="matrix(1,0,0,1,0.345598,1.97279)" class="st1">
				<rect x="0" y="184.795" width="150.133" height="243.933" class="st2"/>
			</g>
			<rect x="0" y="184.795" width="150.133" height="243.933" class="st5"/>
			<text x="116.71" y="421.73" class="st6">Dialogs</text>		</g>
		<g id="shape48-13" transform="translate(425.197,-25.4882)">
			<title>Rectangle.48</title>
			<desc>APIs / Data</desc>
			<g id="shadow48-14" transform="matrix(1,0,0,1,0.345598,1.97279)" class="st1">
				<rect x="0" y="44.5154" width="430.866" height="384.213" class="st2"/>
			</g>
			<rect x="0" y="44.5154" width="430.866" height="384.213" class="st7"/>
			<text x="382.02" y="421.73" class="st6">APIs / Data</text>		</g>
		<g id="shape50-19" transform="translate(20.6544,-22.9728)">
			<title>Rectangle.50</title>
			<desc>Client</desc>
			<g id="shadow50-20" transform="matrix(1,0,0,1,0.345598,1.97279)" class="st1">
				<rect x="0" y="44.5154" width="80.0787" height="384.213" class="st2"/>
			</g>
			<rect x="0" y="44.5154" width="80.0787" height="384.213" class="st8"/>
			<text x="52.58" y="421.73" class="st9">Client</text>		</g>
		<g id="shape1-25" transform="translate(29.867,-90.9685)">
			<title>Rectangle</title>
			<desc>IPA Client</desc>
			<g id="shadow1-26" transform="matrix(1,0,0,1,0.345598,1.97279)" class="st1">
				<rect x="0" y="224.763" width="62.3622" height="203.965" class="st2"/>
			</g>
			<rect x="0" y="224.763" width="62.3622" height="203.965" class="st10"/>
			<text x="11.56" y="329.75" class="st6">IPA Client</text>		</g>
		<g id="shape2-31" transform="translate(-285.475,377.728) rotate(-90)">
			<title>Rectangle.2</title>
			<desc>IPA Service</desc>
			<g id="shadow2-32" transform="matrix(1,0,0,1,-1.97279,0.345598)" class="st1">
				<rect x="0" y="400.381" width="329.54" height="28.3465" class="st2"/>
			</g>
			<rect x="0" y="400.381" width="329.54" height="28.3465" class="st5"/>
			<text x="142.37" y="417.55" class="st6">IPA Service</text>		</g>
		<g id="shape3-37" transform="translate(146.796,-93.5197)">
			<title>Rectangle.3</title>
			<desc>Dialog Management</desc>
			<g id="shadow3-38" transform="matrix(1,0,0,1,0.345598,1.97279)" class="st1">
				<rect x="0" y="224.763" width="106.299" height="203.965" class="st2"/>
			</g>
			<rect x="0" y="224.763" width="106.299" height="203.965" class="st5"/>
			<text x="11.95" y="329.75" class="st6">Dialog Management</text>		</g>
		<g id="shape5-43" transform="translate(270.425,-216.326)">
			<title>Rectangle.5</title>
			<desc>Dialog 1</desc>
			<g id="shadow5-44" transform="matrix(1,0,0,1,0.345598,1.97279)" class="st1">
				<rect x="0" y="408.177" width="62.3622" height="20.5512" class="st2"/>
			</g>
			<rect x="0" y="408.177" width="62.3622" height="20.5512" class="st11"/>
			<text x="14.76" y="421.45" class="st6">Dialog 1</text>		</g>
		<g id="shape6-49" transform="translate(335.622,-216.326)">
			<title>Rectangle.6</title>
			<desc>Intent Set 1</desc>
			<g id="shadow6-50" transform="matrix(1,0,0,1,0.345598,1.97279)" class="st1">
				<rect x="0" y="408.177" width="62.3622" height="20.5512" class="st2"/>
			</g>
			<rect x="0" y="408.177" width="62.3622" height="20.5512" class="st11"/>
			<text x="7.58" y="421.45" class="st6">Intent Set 1</text>		</g>
		<g id="shape16-55" transform="translate(269.291,-243.27)">
			<title>Rectangle.16</title>
			<desc>Core Dialog</desc>
			<g id="shadow16-56" transform="matrix(1,0,0,1,0.345598,1.97279)" class="st1">
				<rect x="0" y="387.626" width="62.3622" height="41.1024" class="st2"/>
			</g>
			<rect x="0" y="387.626" width="62.3622" height="41.1024" class="st11"/>
			<text x="7.76" y="411.18" class="st6">Core Dialog</text>		</g>
		<g id="shape19-61" transform="translate(334.488,-243.27)">
			<title>Rectangle.19</title>
			<desc>Core Intent Set</desc>
			<g id="shadow19-62" transform="matrix(1,0,0,1,0.345598,1.97279)" class="st1">
				<rect x="0" y="387.626" width="62.3622" height="41.1024" class="st2"/>
			</g>
			<rect x="0" y="387.626" width="62.3622" height="41.1024" class="st11"/>
			<text x="8.17" y="405.18" class="st6">Core Intent <tspan x="24.72" dy="1.2em" class="st12">Set</tspan></text>		</g>
		<g id="shape20-68" transform="translate(269.291,-130.087)">
			<title>Rectangle.20</title>
			<desc>Dialog Registry</desc>
			<g id="shadow20-69" transform="matrix(1,0,0,1,0.345598,1.97279)" class="st1">
				<rect x="0" y="395.846" width="129.685" height="32.8819" class="st2"/>
			</g>
			<rect x="0" y="395.846" width="129.685" height="32.8819" class="st11"/>
			<text x="34.62" y="415.29" class="st6">Dialog Registry</text>		</g>
		<g id="shape30-74" transform="translate(-319.137,291.543) rotate(-90)">
			<title>Sheet.30</title>
			<path d="M0 428.73 L0 428.73" class="st13"/>
		</g>
		<g id="shape45-77" transform="translate(72.098,377.728) rotate(-90)">
			<title>Rectangle.45</title>
			<desc>Provider Selection Service</desc>
			<g id="shadow45-78" transform="matrix(1,0,0,1,-1.97279,0.345598)" class="st1">
				<rect x="0" y="366.366" width="329.54" height="62.3622" class="st2"/>
			</g>
			<rect x="0" y="366.366" width="329.54" height="62.3622" class="st14"/>
			<text x="4" y="400.55" class="st6">Provider Selection Service</text>		</g>
		<g id="shape51-83" transform="translate(270.425,-169.909)">
			<title>Rectangle.51</title>
			<desc>Dialog n</desc>
			<g id="shadow51-84" transform="matrix(1,0,0,1,0.345598,1.97279)" class="st1">
				<rect x="0" y="408.177" width="62.3622" height="20.5512" class="st2"/>
			</g>
			<rect x="0" y="408.177" width="62.3622" height="20.5512" class="st11"/>
			<text x="14.67" y="421.45" class="st6">Dialog n</text>		</g>
		<g id="shape52-89" transform="translate(335.622,-169.909)">
			<title>Rectangle.52</title>
			<desc>Intent Set n</desc>
			<g id="shadow52-90" transform="matrix(1,0,0,1,0.345598,1.97279)" class="st1">
				<rect x="0" y="408.177" width="62.3622" height="20.5512" class="st2"/>
			</g>
			<rect x="0" y="408.177" width="62.3622" height="20.5512" class="st11"/>
			<text x="7.48" y="421.45" class="st6">Intent Set n</text>		</g>
		<g id="shape53-95" transform="translate(313.228,-198.255)">
			<title>Circle.53</title>
			<g id="shadow53-96" transform="matrix(1,0,0,1,0.345598,1.97279)" class="st1">
				<path d="M0 424.48 A4.25197 4.25197 0 0 1 8.5 424.48 A4.25197 4.25197 0 1 1 0 424.48 Z" class="st2"/>
			</g>
			<path d="M0 424.48 A4.25197 4.25197 0 0 1 8.5 424.48 A4.25197 4.25197 0 1 1 0 424.48 Z" class="st11"/>
		</g>
		<g id="shape54-100" transform="translate(330.236,-198.255)">
			<title>Circle.54</title>
			<g id="shadow54-101" transform="matrix(1,0,0,1,0.345598,1.97279)" class="st1">
				<path d="M0 424.48 A4.25197 4.25197 0 0 1 8.5 424.48 A4.25197 4.25197 0 1 1 0 424.48 Z" class="st2"/>
			</g>
			<path d="M0 424.48 A4.25197 4.25197 0 0 1 8.5 424.48 A4.25197 4.25197 0 1 1 0 424.48 Z" class="st11"/>
		</g>
		<g id="shape55-105" transform="translate(347.244,-198.255)">
			<title>Circle.55</title>
			<g id="shadow55-106" transform="matrix(1,0,0,1,0.345598,1.97279)" class="st1">
				<path d="M0 424.48 A4.25197 4.25197 0 0 1 8.5 424.48 A4.25197 4.25197 0 1 1 0 424.48 Z" class="st2"/>
			</g>
			<path d="M0 424.48 A4.25197 4.25197 0 0 1 8.5 424.48 A4.25197 4.25197 0 1 1 0 424.48 Z" class="st11"/>
		</g>
		<g id="shape59-110" transform="translate(146.087,-300.603)">
			<title>Rectangle.59</title>
			<desc>ASR</desc>
			<g id="shadow59-111" transform="matrix(1,0,0,1,0.345598,1.97279)" class="st1">
				<rect x="0" y="395.846" width="106.299" height="32.8819" class="st2"/>
			</g>
			<rect x="0" y="395.846" width="106.299" height="32.8819" class="st5"/>
			<text x="45.24" y="415.29" class="st6">ASR</text>		</g>
		<g id="shape64-116" transform="translate(146.087,-339.437)">
			<title>Rectangle.68</title>
			<desc>Context</desc>
			<g id="shadow64-117" transform="matrix(1,0,0,1,0.345598,1.97279)" class="st1">
				<rect x="0" y="387.626" width="264.936" height="41.1024" class="st2"/>
			</g>
			<rect x="0" y="387.626" width="264.936" height="41.1024" class="st5"/>
			<text x="229.07" y="421.73" class="st6">Context</text>		</g>
		<g id="shape66-122" transform="translate(260.891,-300.603)">
			<title>Rectangle.65</title>
			<desc>NLU</desc>
			<g id="shadow66-123" transform="matrix(1,0,0,1,0.345598,1.97279)" class="st1">
				<rect x="0" y="395.846" width="150.133" height="32.8819" class="st2"/>
			</g>
			<rect x="0" y="395.846" width="150.133" height="32.8819" class="st5"/>
			<text x="66.53" y="415.29" class="st6">NLU</text>		</g>
		<g id="shape69-128" transform="translate(145.491,-51)">
			<title>Rectangle.69</title>
			<desc>TTS</desc>
			<g id="shadow69-129" transform="matrix(1,0,0,1,0.345598,1.97279)" class="st1">
				<rect x="0" y="395.846" width="51.7323" height="32.8819" class="st2"/>
			</g>
			<rect x="0" y="395.846" width="51.7323" height="32.8819" class="st5"/>
			<text x="18.7" y="415.29" class="st6">TTS</text>		</g>
		<g id="shape70-134" transform="translate(203.386,-51)">
			<title>Rectangle.70</title>
			<desc>NLG</desc>
			<g id="shadow70-135" transform="matrix(1,0,0,1,0.345598,1.97279)" class="st1">
				<rect x="0" y="395.846" width="51.7323" height="32.8819" class="st2"/>
			</g>
			<rect x="0" y="395.846" width="51.7323" height="32.8819" class="st5"/>
			<text x="17.38" y="415.29" class="st6">NLG</text>		</g>
		<g id="shape63-140" transform="translate(260.079,-343.843)">
			<title>Rectangle.63</title>
			<desc>Knowledge Graph</desc>
			<g id="shadow63-141" transform="matrix(1,0,0,1,0.345598,1.97279)" class="st1">
				<rect x="0" y="395.846" width="80.0787" height="32.8819" class="st2"/>
			</g>
			<rect x="0" y="395.846" width="80.0787" height="32.8819" class="st11"/>
			<text x="17.5" y="409.29" class="st6">Knowledge <tspan x="27.49" dy="1.2em" class="st12">Graph</tspan></text>		</g>
		<g id="shape81-147" transform="translate(28.3465,-306.118)">
			<title>Rectangle.81</title>
			<desc>Local Data Providers</desc>
			<g id="shadow81-148" transform="matrix(1,0,0,1,0.345598,1.97279)" class="st1">
				<rect x="0" y="395.846" width="62.3622" height="32.8819" class="st2"/>
			</g>
			<rect x="0" y="395.846" width="62.3622" height="32.8819" class="st15"/>
			<text x="10.11" y="409.29" class="st6">Local Data <tspan x="12" dy="1.2em" class="st12">Providers</tspan></text>		</g>
		<g id="shape82-154" transform="translate(28.3465,-345.107)">
			<title>Rectangle.91</title>
			<desc>Local Services</desc>
			<g id="shadow82-155" transform="matrix(1,0,0,1,0.345598,1.97279)" class="st1">
				<rect x="0" y="395.846" width="62.3622" height="32.8819" class="st2"/>
			</g>
			<rect x="0" y="395.846" width="62.3622" height="32.8819" class="st15"/>
			<text x="20.79" y="409.29" class="st6">Local <tspan x="14.69" dy="1.2em" class="st12">Services</tspan></text>		</g>
		<g id="shape83-161" transform="translate(510.236,-261.638)">
			<title>Rectangle.72</title>
			<desc>Data Providers</desc>
			<g id="shadow83-162" transform="matrix(1,0,0,1,0.345598,1.97279)" class="st1">
				<rect x="0" y="312.507" width="99.2126" height="116.22" class="st2"/>
			</g>
			<rect x="0" y="312.507" width="99.2126" height="116.22" class="st16"/>
			<text x="35.51" y="325.51" class="st17">Data Providers</text>		</g>
		<g id="shape84-167" transform="translate(521.938,-324.792)">
			<title>Rectangle.22</title>
			<desc>Data Provider 1</desc>
			<g id="shadow84-168" transform="matrix(1,0,0,1,0.345598,1.97279)" class="st1">
				<rect x="0" y="395.846" width="80.0787" height="32.8819" class="st2"/>
			</g>
			<rect x="0" y="395.846" width="80.0787" height="32.8819" class="st15"/>
			<text x="8.48" y="415.29" class="st6">Data Provider 1</text>		</g>
		<g id="shape85-173" transform="translate(521.938,-272.304)">
			<title>Rectangle.77</title>
			<desc>Data Provider n</desc>
			<g id="shadow85-174" transform="matrix(1,0,0,1,0.345598,1.97279)" class="st1">
				<rect x="0" y="395.846" width="80.0787" height="32.8819" class="st2"/>
			</g>
			<rect x="0" y="395.846" width="80.0787" height="32.8819" class="st15"/>
			<text x="8.38" y="415.29" class="st6">Data Provider n</text>		</g>
		<g id="shape86-179" transform="translate(536.111,-310.571)">
			<title>Circle.78</title>
			<g id="shadow86-180" transform="matrix(1,0,0,1,0.345598,1.97279)" class="st1">
				<path d="M0 424.48 A4.25197 4.25197 0 0 1 8.5 424.48 A4.25197 4.25197 0 1 1 0 424.48 Z" class="st2"/>
			</g>
			<path d="M0 424.48 A4.25197 4.25197 0 0 1 8.5 424.48 A4.25197 4.25197 0 1 1 0 424.48 Z" class="st18"/>
		</g>
		<g id="shape87-184" transform="translate(553.119,-310.571)">
			<title>Circle.79</title>
			<g id="shadow87-185" transform="matrix(1,0,0,1,0.345598,1.97279)" class="st1">
				<path d="M0 424.48 A4.25197 4.25197 0 0 1 8.5 424.48 A4.25197 4.25197 0 1 1 0 424.48 Z" class="st2"/>
			</g>
			<path d="M0 424.48 A4.25197 4.25197 0 0 1 8.5 424.48 A4.25197 4.25197 0 1 1 0 424.48 Z" class="st18"/>
		</g>
		<g id="shape88-189" transform="translate(570.127,-310.571)">
			<title>Circle.80</title>
			<g id="shadow88-190" transform="matrix(1,0,0,1,0.345598,1.97279)" class="st1">
				<path d="M0 424.48 A4.25197 4.25197 0 0 1 8.5 424.48 A4.25197 4.25197 0 1 1 0 424.48 Z" class="st2"/>
			</g>
			<path d="M0 424.48 A4.25197 4.25197 0 0 1 8.5 424.48 A4.25197 4.25197 0 1 1 0 424.48 Z" class="st18"/>
		</g>
		<g id="shape89-194" transform="translate(617.953,-261.638)">
			<title>Rectangle.89</title>
			<desc>External Services</desc>
			<g id="shadow89-195" transform="matrix(1,0,0,1,0.345598,1.97279)" class="st1">
				<rect x="0" y="312.507" width="99.2126" height="116.22" class="st2"/>
			</g>
			<rect x="0" y="312.507" width="99.2126" height="116.22" class="st16"/>
			<text x="26.6" y="325.51" class="st17">External Services</text>		</g>
		<g id="shape90-200" transform="translate(625.645,-324.792)">
			<title>Rectangle.90</title>
			<desc>External Service 1</desc>
			<g id="shadow90-201" transform="matrix(1,0,0,1,0.345598,1.97279)" class="st1">
				<rect x="0" y="395.846" width="84.0883" height="32.8819" class="st2"/>
			</g>
			<rect x="0" y="395.846" width="84.0883" height="32.8819" class="st15"/>
			<text x="6.03" y="415.29" class="st6">External Service 1</text>		</g>
		<g id="shape91-206" transform="translate(625.645,-272.304)">
			<title>Rectangle.91</title>
			<desc>External Service n</desc>
			<g id="shadow91-207" transform="matrix(1,0,0,1,0.345598,1.97279)" class="st1">
				<rect x="0" y="395.846" width="84.0883" height="32.8819" class="st2"/>
			</g>
			<rect x="0" y="395.846" width="84.0883" height="32.8819" class="st15"/>
			<text x="5.94" y="415.29" class="st6">External Service n</text>		</g>
		<g id="shape92-212" transform="translate(643.828,-310.571)">
			<title>Circle.92</title>
			<g id="shadow92-213" transform="matrix(1,0,0,1,0.345598,1.97279)" class="st1">
				<path d="M0 424.48 A4.25197 4.25197 0 0 1 8.5 424.48 A4.25197 4.25197 0 1 1 0 424.48 Z" class="st2"/>
			</g>
			<path d="M0 424.48 A4.25197 4.25197 0 0 1 8.5 424.48 A4.25197 4.25197 0 1 1 0 424.48 Z" class="st18"/>
		</g>
		<g id="shape93-217" transform="translate(660.836,-310.571)">
			<title>Circle.93</title>
			<g id="shadow93-218" transform="matrix(1,0,0,1,0.345598,1.97279)" class="st1">
				<path d="M0 424.48 A4.25197 4.25197 0 0 1 8.5 424.48 A4.25197 4.25197 0 1 1 0 424.48 Z" class="st2"/>
			</g>
			<path d="M0 424.48 A4.25197 4.25197 0 0 1 8.5 424.48 A4.25197 4.25197 0 1 1 0 424.48 Z" class="st18"/>
		</g>
		<g id="shape94-222" transform="translate(677.843,-310.571)">
			<title>Circle.94</title>
			<g id="shadow94-223" transform="matrix(1,0,0,1,0.345598,1.97279)" class="st1">
				<path d="M0 424.48 A4.25197 4.25197 0 0 1 8.5 424.48 A4.25197 4.25197 0 1 1 0 424.48 Z" class="st2"/>
			</g>
			<path d="M0 424.48 A4.25197 4.25197 0 0 1 8.5 424.48 A4.25197 4.25197 0 1 1 0 424.48 Z" class="st18"/>
		</g>
		<g id="shape107-227" transform="translate(158.386,-343.843)">
			<title>Rectangle.107</title>
			<desc>History</desc>
			<g id="shadow107-228" transform="matrix(1,0,0,1,0.345598,1.97279)" class="st1">
				<rect x="0" y="395.846" width="80.0787" height="32.8819" class="st2"/>
			</g>
			<rect x="0" y="395.846" width="80.0787" height="32.8819" class="st11"/>
			<text x="25.5" y="415.29" class="st6">History</text>		</g>
		<g id="shape108-233" transform="translate(444.685,-324.792)">
			<title>Rectangle.4</title>
			<desc>Accounts / Authenti-cation</desc>
			<g id="shadow108-234" transform="matrix(1,0,0,1,0.345598,1.97279)" class="st1">
				<rect x="0" y="395.846" width="51.7323" height="32.8819" class="st2"/>
			</g>
			<rect x="0" y="395.846" width="51.7323" height="32.8819" class="st19"/>
			<text x="4.16" y="403.29" class="st6">Accounts / <tspan x="6.58" dy="1.2em" class="st12">Authenti</tspan>-<tspan
						x="13.27" dy="1.2em" class="st12">cation</tspan></text>		</g>
		<g id="shape109-241" transform="translate(444.685,-271.276)">
			<title>Rectangle.62</title>
			<desc>Provider Registry</desc>
			<g id="shadow109-242" transform="matrix(1,0,0,1,0.345598,1.97279)" class="st1">
				<rect x="0" y="395.846" width="51.7323" height="32.8819" class="st2"/>
			</g>
			<rect x="0" y="395.846" width="51.7323" height="32.8819" class="st19"/>
			<text x="8.64" y="409.29" class="st6">Provider <tspan x="9.53" dy="1.2em" class="st12">Registry</tspan></text>		</g>
		<g id="shape110-248" transform="translate(85.0394,-261.638)">
			<title>Sheet.110</title>
			<path d="M0 428.73 L34.79 428.73" class="st20"/>
		</g>
		<g id="shape111-254" transform="translate(99.3158,-267.307)">
			<title>Junction number</title>
			<desc>4</desc>
			<path d="M0 420.22 A8.50394 8.50394 0 0 1 17.01 420.22 A8.50394 8.50394 0 1 1 0 420.22 Z" class="st22"/>
			<text x="6.71" y="422.35" class="st23">4</text>		</g>
		<g id="shape112-257" transform="translate(-380.539,144.413) rotate(-90)">
			<title>Sheet.112</title>
			<path d="M0 428.73 L23.46 428.73" class="st20"/>
		</g>
		<g id="shape113-262" transform="translate(28.3465,-286.429)">
			<title>Junction number.113</title>
			<desc>2</desc>
			<path d="M0 420.22 A8.50394 8.50394 0 0 1 17.01 420.22 A8.50394 8.50394 0 1 1 0 420.22 Z" class="st22"/>
			<text x="6.71" y="422.35" class="st23">2</text>		</g>
		<g id="shape114-265" transform="translate(500.518,113.232) rotate(90)">
			<title>Sheet.114</title>
			<path d="M0 428.73 L20.62 428.73" class="st20"/>
		</g>
		<g id="shape115-270" transform="translate(76.5354,-286.429)">
			<title>Junction number.115</title>
			<desc>3</desc>
			<path d="M0 420.22 A8.50394 8.50394 0 0 1 17.01 420.22 A8.50394 8.50394 0 1 1 0 420.22 Z" class="st22"/>
			<text x="6.71" y="422.35" class="st23">3</text>		</g>
		<g id="shape116-273" transform="translate(124.724,-315.496)">
			<title>Sheet.116</title>
			<path d="M0 428.73 L34.79 428.73" class="st20"/>
		</g>
		<g id="shape117-278" transform="translate(134.749,-318.331)">
			<title>Junction number.117</title>
			<desc>5</desc>
			<path d="M0 420.22 A8.50394 8.50394 0 0 1 17.01 420.22 A8.50394 8.50394 0 1 1 0 420.22 Z" class="st22"/>
			<text x="6.71" y="422.35" class="st23">5</text>		</g>
		<g id="shape118-281" transform="translate(130.394,-111.402)">
			<title>Sheet.118</title>
			<path d="M0 428.73 L312.59 428.73" class="st20"/>
		</g>
		<g id="shape119-286" transform="translate(240.945,-318.331)">
			<title>Junction number.119</title>
			<desc>6</desc>
			<path d="M0 420.22 A8.50394 8.50394 0 0 1 17.01 420.22 A8.50394 8.50394 0 1 1 0 420.22 Z" class="st22"/>
			<text x="6.71" y="422.35" class="st23">6</text>		</g>
		<g id="shape120-289" transform="translate(-77.2319,101.893) rotate(-90)">
			<title>Sheet.120</title>
			<path d="M0 428.73 L17.79 428.73" class="st20"/>
		</g>
		<g id="shape121-294" transform="translate(327.453,-324.981)">
			<title>Junction number.121</title>
			<desc>7</desc>
			<path d="M0 420.22 A8.50394 8.50394 0 0 1 17.01 420.22 A8.50394 8.50394 0 1 1 0 420.22 Z" class="st22"/>
			<text x="6.71" y="422.35" class="st23">7</text>		</g>
		<g id="shape122-297" transform="translate(797.232,73.5468) rotate(90)">
			<title>Sheet.122</title>
			<path d="M0 428.73 L17.79 428.73" class="st20"/>
		</g>
		<g id="shape123-302" transform="translate(377.008,-324.981)">
			<title>Junction number.123</title>
			<desc>8</desc>
			<path d="M0 420.22 A8.50394 8.50394 0 0 1 17.01 420.22 A8.50394 8.50394 0 1 1 0 420.22 Z" class="st22"/>
			<text x="6.71" y="422.35" class="st23">8</text>		</g>
		<g id="shape128-305" transform="translate(238.11,-315.496)">
			<title>Sheet.128</title>
			<path d="M0 428.73 L29.13 428.73" class="st20"/>
		</g>
		<g id="shape130-310" transform="translate(24.8154,175.594) rotate(-90)">
			<title>Sheet.130</title>
			<path d="M0 428.73 L17.79 428.73" class="st20"/>
		</g>
		<g id="shape131-315" transform="translate(433.701,-255.969)">
			<title>Junction number.131</title>
			<desc>9</desc>
			<path d="M0 420.22 A8.50394 8.50394 0 0 1 17.01 420.22 A8.50394 8.50394 0 1 1 0 420.22 Z" class="st22"/>
			<text x="6.71" y="422.35" class="st23">9</text>		</g>
		<g id="shape132-318" transform="translate(24.8154,124.57) rotate(-90)">
			<title>Sheet.132</title>
			<path d="M0 428.73 L17.79 428.73" class="st20"/>
		</g>
		<g id="shape133-323" transform="translate(433.701,-306.992)">
			<title>Junction number.133</title>
			<desc>10</desc>
			<path d="M0 420.22 A8.50394 8.50394 0 0 1 17.01 420.22 A8.50394 8.50394 0 1 1 0 420.22 Z" class="st22"/>
			<text x="4.91" y="422.35" class="st23">10</text>		</g>
		<g id="shape134-326" transform="translate(916.287,96.224) rotate(90)">
			<title>Sheet.134</title>
			<path d="M0 428.73 L17.79 428.73" class="st20"/>
		</g>
		<g id="shape135-331" transform="translate(492.322,-306.992)">
			<title>Junction number.135</title>
			<desc>11</desc>
			<path d="M0 420.22 A8.50394 8.50394 0 0 1 17.01 420.22 A8.50394 8.50394 0 1 1 0 420.22 Z" class="st22"/>
			<text x="4.91" y="422.35" class="st23">11</text>		</g>
		<g id="shape137-334" transform="translate(492.322,-255.969)">
			<title>Junction number.137</title>
			<desc>12</desc>
			<path d="M0 420.22 A8.50394 8.50394 0 0 1 17.01 420.22 A8.50394 8.50394 0 1 1 0 420.22 Z" class="st22"/>
			<text x="4.91" y="422.35" class="st23">12</text>		</g>
		<g id="shape138-337" transform="translate(916.287,147.248) rotate(90)">
			<title>Sheet.138</title>
			<path d="M0 428.73 L17.79 428.73" class="st20"/>
		</g>
		<g id="shape142-342" transform="translate(127.559,-119.906)">
			<title>Junction number.142</title>
			<desc>5</desc>
			<path d="M0 420.22 A8.50394 8.50394 0 0 1 17.01 420.22 A8.50394 8.50394 0 1 1 0 420.22 Z" class="st22"/>
			<text x="6.71" y="422.35" class="st23">5</text>		</g>
		<g id="shape143-345" transform="translate(29.5127,-69.5625)">
			<title>Rectangle.92</title>
			<desc>Speaker</desc>
			<g id="shadow143-346" transform="matrix(1,0,0,1,0.345598,1.97279)" class="st1">
				<rect x="0" y="412.401" width="62.3622" height="16.3273" class="st2"/>
			</g>
			<rect x="0" y="412.401" width="62.3622" height="16.3273" class="st10"/>
			<text x="14.87" y="423.56" class="st6">Speaker</text>		</g>
		<g id="shape144-351" transform="translate(29.5127,-51)">
			<title>Rectangle.93</title>
			<desc>Microphone</desc>
			<g id="shadow144-352" transform="matrix(1,0,0,1,0.345598,1.97279)" class="st1">
				<rect x="0" y="412.401" width="62.3622" height="16.3273" class="st2"/>
			</g>
			<rect x="0" y="412.401" width="62.3622" height="16.3273" class="st10"/>
			<text x="6.26" y="423.56" class="st6">Microphone</text>		</g>
		<g id="shape145-357" transform="translate(-383.374,361.401) rotate(-90)">
			<title>Sheet.145</title>
			<path d="M0 428.73 L23.46 428.73" class="st20"/>
		</g>
		<g id="shape146-362" transform="translate(25.5118,-68.8819)">
			<title>Junction number.146</title>
			<desc>1</desc>
			<path d="M0 420.22 A8.50394 8.50394 0 0 1 17.01 420.22 A8.50394 8.50394 0 1 1 0 420.22 Z" class="st22"/>
			<text x="6.71" y="422.35" class="st23">1</text>		</g>
		<g id="shape147-365" transform="translate(505.078,-51.874)">
			<title>Rectangle.12</title>
			<desc>IPA Providers</desc>
			<g id="shadow147-366" transform="matrix(1,0,0,1,0.345598,1.97279)" class="st1">
				<rect x="0" y="267.153" width="339.647" height="161.575" class="st2"/>
			</g>
			<rect x="0" y="267.153" width="339.647" height="161.575" class="st16"/>
			<text x="281.55" y="280.15" class="st17">IPA Providers</text>		</g>
		<g id="shape148-371" transform="translate(516.78,-57.9216)">
			<title>Rectangle.36</title>
			<desc>IPA Provider n</desc>
			<g id="shadow148-372" transform="matrix(1,0,0,1,0.345598,1.97279)" class="st1">
				<rect x="0" y="369.909" width="298.89" height="58.8189" class="st2"/>
			</g>
			<rect x="0" y="369.909" width="298.89" height="58.8189" class="st24"/>
			<text x="237.19" y="382.91" class="st17">IPA Provider n</text>		</g>
		<g id="shape149-377" transform="translate(735.591,-66.9213)">
			<title>Rectangle.39</title>
			<desc>...</desc>
			<g id="shadow149-378" transform="matrix(1,0,0,1,0.345598,1.97279)" class="st1">
				<rect x="0" y="397.547" width="62.3622" height="31.1811" class="st2"/>
			</g>
			<rect x="0" y="397.547" width="62.3622" height="31.1811" class="st15"/>
			<text x="27.39" y="416.14" class="st6">...</text>		</g>
		<g id="shape150-383" transform="translate(666.142,-66.9213)">
			<title>Rectangle.40</title>
			<desc>Provider Intent Set</desc>
			<g id="shadow150-384" transform="matrix(1,0,0,1,0.345598,1.97279)" class="st1">
				<rect x="0" y="397.547" width="62.3622" height="31.1811" class="st2"/>
			</g>
			<rect x="0" y="397.547" width="62.3622" height="31.1811" class="st15"/>
			<text x="13.95" y="410.14" class="st6">Provider <tspan x="11.24" dy="1.2em" class="st12">Intent Set</tspan></text>		</g>
		<g id="shape151-390" transform="translate(596.858,-120.284)">
			<title>Circle</title>
			<g id="shadow151-391" transform="matrix(1,0,0,1,0.345598,1.97279)" class="st1">
				<path d="M0 424.48 A4.25197 4.25197 0 0 1 8.5 424.48 A4.25197 4.25197 0 1 1 0 424.48 Z" class="st2"/>
			</g>
			<path d="M0 424.48 A4.25197 4.25197 0 0 1 8.5 424.48 A4.25197 4.25197 0 1 1 0 424.48 Z" class="st18"/>
		</g>
		<g id="shape152-395" transform="translate(613.866,-120.284)">
			<title>Circle.42</title>
			<g id="shadow152-396" transform="matrix(1,0,0,1,0.345598,1.97279)" class="st1">
				<path d="M0 424.48 A4.25197 4.25197 0 0 1 8.5 424.48 A4.25197 4.25197 0 1 1 0 424.48 Z" class="st2"/>
			</g>
			<path d="M0 424.48 A4.25197 4.25197 0 0 1 8.5 424.48 A4.25197 4.25197 0 1 1 0 424.48 Z" class="st18"/>
		</g>
		<g id="shape153-400" transform="translate(630.874,-120.284)">
			<title>Circle.43</title>
			<g id="shadow153-401" transform="matrix(1,0,0,1,0.345598,1.97279)" class="st1">
				<path d="M0 424.48 A4.25197 4.25197 0 0 1 8.5 424.48 A4.25197 4.25197 0 1 1 0 424.48 Z" class="st2"/>
			</g>
			<path d="M0 424.48 A4.25197 4.25197 0 0 1 8.5 424.48 A4.25197 4.25197 0 1 1 0 424.48 Z" class="st18"/>
		</g>
		<g id="shape154-405" transform="translate(596.693,-66.9213)">
			<title>Rectangle.57</title>
			<desc>Provider NLU</desc>
			<g id="shadow154-406" transform="matrix(1,0,0,1,0.345598,1.97279)" class="st1">
				<rect x="0" y="397.547" width="62.3622" height="31.1811" class="st2"/>
			</g>
			<rect x="0" y="397.547" width="62.3622" height="31.1811" class="st15"/>
			<text x="4.29" y="416.14" class="st6">Provider NLU</text>		</g>
		<g id="shape155-411" transform="translate(517.488,-133.394)">
			<title>Rectangle.103</title>
			<desc>IPA Provider 1</desc>
			<g id="shadow155-412" transform="matrix(1,0,0,1,0.345598,1.97279)" class="st1">
				<rect x="0" y="369.909" width="298.89" height="58.8189" class="st2"/>
			</g>
			<rect x="0" y="369.909" width="298.89" height="58.8189" class="st24"/>
			<text x="237.38" y="382.91" class="st17">IPA Provider 1</text>		</g>
		<g id="shape156-417" transform="translate(734.173,-142.039)">
			<title>Rectangle.73</title>
			<desc>...</desc>
			<g id="shadow156-418" transform="matrix(1,0,0,1,0.345598,1.97279)" class="st1">
				<rect x="0" y="397.547" width="62.3622" height="31.1811" class="st2"/>
			</g>
			<rect x="0" y="397.547" width="62.3622" height="31.1811" class="st15"/>
			<text x="27.39" y="416.14" class="st6">...</text>		</g>
		<g id="shape157-423" transform="translate(664.724,-142.039)">
			<title>Rectangle.74</title>
			<desc>Provider Intent Set</desc>
			<g id="shadow157-424" transform="matrix(1,0,0,1,0.345598,1.97279)" class="st1">
				<rect x="0" y="397.547" width="62.3622" height="31.1811" class="st2"/>
			</g>
			<rect x="0" y="397.547" width="62.3622" height="31.1811" class="st15"/>
			<text x="13.95" y="410.14" class="st6">Provider <tspan x="11.24" dy="1.2em" class="st12">Intent Set</tspan></text>		</g>
		<g id="shape158-430" transform="translate(595.276,-142.039)">
			<title>Rectangle.75</title>
			<desc>Provider NLU</desc>
			<g id="shadow158-431" transform="matrix(1,0,0,1,0.345598,1.97279)" class="st1">
				<rect x="0" y="397.547" width="62.3622" height="31.1811" class="st2"/>
			</g>
			<rect x="0" y="397.547" width="62.3622" height="31.1811" class="st15"/>
			<text x="4.29" y="416.14" class="st6">Provider NLU</text>		</g>
		<g id="shape159-436" transform="translate(525.992,-142.039)">
			<title>Rectangle.112</title>
			<desc>Provider ASR</desc>
			<g id="shadow159-437" transform="matrix(1,0,0,1,0.345598,1.97279)" class="st1">
				<rect x="0" y="397.547" width="62.3622" height="31.1811" class="st2"/>
			</g>
			<rect x="0" y="397.547" width="62.3622" height="31.1811" class="st15"/>
			<text x="4.92" y="416.14" class="st6">Provider ASR</text>		</g>
		<g id="shape160-442" transform="translate(527.876,-66.9213)">
			<title>Rectangle.113</title>
			<desc>Provider ASR</desc>
			<g id="shadow160-443" transform="matrix(1,0,0,1,0.345598,1.97279)" class="st1">
				<rect x="0" y="397.547" width="62.3622" height="31.1811" class="st2"/>
			</g>
			<rect x="0" y="397.547" width="62.3622" height="31.1811" class="st15"/>
			<text x="4.92" y="416.14" class="st6">Provider ASR</text>		</g>
		<g id="shape136-448" transform="translate(487.559,-155.906)">
			<title>Sheet.136</title>
			<path d="M0 428.73 L28.58 428.73" class="st20"/>
		</g>
		<g id="shape139-453" transform="translate(492.322,-159.591)">
			<title>Junction number.139</title>
			<desc>13</desc>
			<path d="M0 420.22 A8.50394 8.50394 0 0 1 17.01 420.22 A8.50394 8.50394 0 1 1 0 420.22 Z" class="st22"/>
			<text x="4.91" y="422.35" class="st23">13</text>		</g>
		<g id="shape140-456" transform="translate(486.85,-80.4334)">
			<title>Sheet.140</title>
			<path d="M0 428.73 L28.58 428.73" class="st20"/>
		</g>
		<g id="shape141-461" transform="translate(492.322,-85.8898)">
			<title>Junction number.141</title>
			<desc>13</desc>
			<path d="M0 420.22 A8.50394 8.50394 0 0 1 17.01 420.22 A8.50394 8.50394 0 1 1 0 420.22 Z" class="st22"/>
			<text x="4.91" y="422.35" class="st23">13</text>		</g>
	</g>
</svg>
