<?xml version="1.0" encoding="UTF-8" standalone="no"?>
<!DOCTYPE svg PUBLIC "-//W3C//DTD SVG 1.1//EN" "http://www.w3.org/Graphics/SVG/1.1/DTD/svg11.dtd">
<!-- Generated by Microsoft Visio, SVG Export architecture-walkthrough-output.svg Page-1 -->
<svg xmlns="http://www.w3.org/2000/svg" xmlns:xlink="http://www.w3.org/1999/xlink" xmlns:ev="http://www.w3.org/2001/xml-events"
		xmlns:v="http://schemas.microsoft.com/visio/2003/SVGExtensions/" width="10.5512in" height="4.72441in"
		viewBox="0 0 759.685 340.157" xml:space="preserve" color-interpolation-filters="sRGB" class="st24">
	<v:documentProperties v:langID="1033" v:metric="true" v:viewMarkup="false">
		<v:userDefs>
			<v:ud v:nameU="msvSubprocessMaster" v:prompt="" v:val="VT4(Rectangle)"/>
			<v:ud v:nameU="msvNoAutoConnect" v:val="VT0(1):26"/>
		</v:userDefs>
	</v:documentProperties>

	<style type="text/css">
	<![CDATA[
		.st1 {visibility:visible}
		.st2 {fill:#5b9bd5;fill-opacity:0.22;filter:url(#filter_2);stroke:none}
		.st3 {fill:#90aadb;stroke:none;stroke-width:1}
		.st4 {fill:#feffff;font-family:Calibri;font-size:0.833336em}
		.st5 {fill:#dae2f3;stroke:none;stroke-width:1}
		.st6 {fill:#000000;font-family:Calibri;font-size:0.833336em}
		.st7 {fill:#e2efd9;stroke:none;stroke-width:1}
		.st8 {fill:#3f3f3f;font-family:Calibri;font-size:0.833336em}
		.st9 {fill:#f4b183;stroke:none;stroke-width:1}
		.st10 {fill:#ffffff;font-family:Calibri;font-size:0.833336em}
		.st11 {fill:#d8d8d8;stroke:none;stroke-width:1}
		.st12 {fill:#70ad47;stroke:none;stroke-width:0.25}
		.st13 {fill:#c55a11;stroke:none;stroke-width:0.25}
		.st14 {font-size:1em}
		.st15 {fill:#5b9bd5;stroke:none;stroke-width:0.25}
		.st16 {fill:#a5a5a5;stroke:none;stroke-width:0.25}
		.st17 {stroke:none;stroke-linecap:round;stroke-linejoin:round;stroke-width:1}
		.st18 {fill:#7f7f7f;stroke:none;stroke-width:0.25}
		.st19 {fill:#ed7d31;stroke:none;stroke-width:0.25}
		.st20 {marker-end:url(#mrkr13-245);stroke:#000000;stroke-linecap:round;stroke-linejoin:round;stroke-width:1}
		.st21 {fill:#000000;fill-opacity:1;stroke:#000000;stroke-opacity:1;stroke-width:0.28409090909091}
		.st22 {fill:#000000;stroke:none;stroke-linecap:round;stroke-linejoin:round;stroke-width:0.75}
		.st23 {fill:#ffffff;font-family:Calibri;font-size:0.590561em}
		.st24 {fill:none;fill-rule:evenodd;font-size:12px;overflow:visible;stroke-linecap:square;stroke-miterlimit:3}
	]]>
	</style>

	<defs id="Markers">
		<g id="lend13">
			<path d="M 3 1 L 0 0 L 3 -1 L 3 1 " style="stroke:none"/>
		</g>
		<marker id="mrkr13-245" class="st21" v:arrowType="13" v:arrowSize="2" v:setback="10.56" refX="-10.56" orient="auto"
				markerUnits="strokeWidth" overflow="visible">
			<use xlink:href="#lend13" transform="scale(-3.52,-3.52) "/>
		</marker>
	</defs>
	<defs id="Filters">
		<filter id="filter_2">
			<feGaussianBlur stdDeviation="2"/>
		</filter>
	</defs>
	<g v:mID="0" v:index="1" v:groupContext="foregroundPage">
		<v:userDefs>
			<v:ud v:nameU="msvThemeOrder" v:val="VT0(0):26"/>
		</v:userDefs>
		<title>Page-1</title>
		<v:pageProperties v:drawingScale="0.0393701" v:pageScale="0.0393701" v:drawingUnits="24" v:shadowOffsetX="8.50394"
				v:shadowOffsetY="-8.50394"/>
		<v:layer v:name="Annotations" v:index="0"/>
		<v:layer v:name="Connector" v:index="1"/>
		<v:layer v:name="Electrical" v:index="2"/>
		<v:layer v:name="Transportation" v:index="3"/>
		<g id="shape48-1" v:mID="48" v:groupContext="shape" transform="translate(355.039,-18.7087)">
			<title>Rectangle.48</title>
			<desc>APIs / Data</desc>
			<v:userDefs>
				<v:ud v:nameU="visVersion" v:val="VT0(15):26"/>
			</v:userDefs>
			<v:textBlock v:margins="rect(4,4,4,4)" v:tabSpace="42.5197" v:verticalAlign="2"/>
			<v:textRect cx="198.071" cy="186.732" width="396.15" height="306.85"/>
			<g id="shadow48-2" v:groupContext="shadow" v:shadowOffsetX="0.345598" v:shadowOffsetY="-1.97279" v:shadowType="1"
					transform="matrix(1,0,0,1,0.345598,1.97279)" class="st1">
				<rect x="0" y="33.3071" width="396.142" height="306.85" class="st2"/>
			</g>
			<rect x="0" y="33.3071" width="396.142" height="306.85" class="st3"/>
			<text x="347.29" y="333.16" class="st4" v:langID="1031"><v:paragraph v:horizAlign="2"/><v:tabList/>APIs / Data</text>		</g>
		<g id="group61-7" transform="translate(367.795,-47.0551)" v:mID="61" v:groupContext="group">
			<title>Sheet.61</title>
			<g id="shape44-8" v:mID="44" v:groupContext="shape" transform="translate(47.3515,-194.63)">
				<title>Rectangle.44</title>
				<desc>Core Provider</desc>
				<v:userDefs>
					<v:ud v:nameU="visVersion" v:val="VT0(15):26"/>
				</v:userDefs>
				<v:textBlock v:margins="rect(4,4,4,4)" v:tabSpace="42.5197" v:verticalAlign="0"/>
				<v:textRect cx="161.143" cy="303.394" width="322.29" height="73.5271"/>
				<rect x="0" y="266.63" width="322.286" height="73.5271" class="st5"/>
				<text x="262.51" y="279.63" class="st6" v:langID="1031"><v:paragraph v:horizAlign="2"/><v:tabList/>Core Provider</text>			</g>
			<g id="shape46-11" v:mID="46" v:groupContext="shape">
				<title>Rectangle.46</title>
				<v:userDefs>
					<v:ud v:nameU="visVersion" v:val="VT0(15):26"/>
				</v:userDefs>
				<rect x="0" y="72" width="73.9867" height="268.157" class="st5"/>
			</g>
		</g>
		<g id="shape50-13" v:mID="50" v:groupContext="shape" transform="translate(8.50394,-18)">
			<title>Rectangle.50</title>
			<desc>Client</desc>
			<v:userDefs>
				<v:ud v:nameU="visVersion" v:val="VT0(15):26"/>
			</v:userDefs>
			<v:textBlock v:margins="rect(4,4,4,4)" v:tabSpace="42.5197" v:verticalAlign="2"/>
			<v:textRect cx="40.0394" cy="186.732" width="80.08" height="306.85"/>
			<g id="shadow50-14" v:groupContext="shadow" v:shadowOffsetX="0.345598" v:shadowOffsetY="-1.97279" v:shadowType="1"
					transform="matrix(1,0,0,1,0.345598,1.97279)" class="st1">
				<rect x="0" y="33.3071" width="80.0787" height="306.85" class="st2"/>
			</g>
			<rect x="0" y="33.3071" width="80.0787" height="306.85" class="st7"/>
			<text x="52.58" y="333.16" class="st8" v:langID="1031"><v:paragraph v:horizAlign="2"/><v:tabList/>Client</text>		</g>
		<g id="shape47-19" v:mID="47" v:groupContext="shape" transform="translate(95.6693,-18.7087)">
			<title>Rectangle.47</title>
			<desc>Dialog</desc>
			<v:userDefs>
				<v:ud v:nameU="visVersion" v:val="VT0(15):26"/>
			</v:userDefs>
			<v:textBlock v:margins="rect(4,4,4,4)" v:tabSpace="42.5197" v:verticalAlign="2"/>
			<v:textRect cx="126.85" cy="186.732" width="253.71" height="306.85"/>
			<g id="shadow47-20" v:groupContext="shadow" v:shadowOffsetX="0.345598" v:shadowOffsetY="-1.97279" v:shadowType="1"
					transform="matrix(1,0,0,1,0.345598,1.97279)" class="st1">
				<rect x="0" y="33.3071" width="253.701" height="306.85" class="st2"/>
			</g>
			<rect x="0" y="33.3071" width="253.701" height="306.85" class="st9"/>
			<text x="224.19" y="333.16" class="st10" v:langID="1031"><v:paragraph v:horizAlign="2"/><v:tabList/>Dialog</text>		</g>
		<g id="shape34-25" v:mID="34" v:groupContext="shape" transform="translate(445.465,-160.724)">
			<title>Rectangle.34</title>
			<desc>IPA Provider 1</desc>
			<v:userDefs>
				<v:ud v:nameU="visVersion" v:val="VT0(15):26"/>
			</v:userDefs>
			<v:textBlock v:margins="rect(4,4,4,4)" v:tabSpace="42.5197" v:verticalAlign="0"/>
			<v:textRect cx="145.984" cy="304.016" width="291.97" height="72.2835"/>
			<g id="shadow34-26" v:groupContext="shadow" v:shadowOffsetX="0.345598" v:shadowOffsetY="-1.97279" v:shadowType="1"
					transform="matrix(1,0,0,1,0.345598,1.97279)" class="st1">
				<rect x="0" y="267.874" width="291.969" height="72.2835" class="st2"/>
			</g>
			<rect x="0" y="267.874" width="291.969" height="72.2835" class="st11"/>
			<text x="230.45" y="280.87" class="st6" v:langID="1031"><v:paragraph v:horizAlign="2"/><v:tabList/>IPA Provider 1</text>		</g>
		<g id="shape1-31" v:mID="1" v:groupContext="shape" transform="translate(17.7165,-44.9291)">
			<title>Rectangle</title>
			<desc>IPA Client</desc>
			<v:userDefs>
				<v:ud v:nameU="visVersion" v:val="VT0(15):26"/>
			</v:userDefs>
			<v:textBlock v:margins="rect(4,4,4,4)" v:tabSpace="42.5197"/>
			<v:textRect cx="31.1811" cy="213.52" width="62.37" height="253.276"/>
			<g id="shadow1-32" v:groupContext="shadow" v:shadowOffsetX="0.345598" v:shadowOffsetY="-1.97279" v:shadowType="1"
					transform="matrix(1,0,0,1,0.345598,1.97279)" class="st1">
				<rect x="0" y="86.8819" width="62.3622" height="253.276" class="st2"/>
			</g>
			<rect x="0" y="86.8819" width="62.3622" height="253.276" class="st12"/>
			<text x="11.56" y="216.52" class="st4" v:langID="1031"><v:paragraph v:horizAlign="1"/><v:tabList/>IPA Client</text>		</g>
		<g id="shape2-37" v:mID="2" v:groupContext="shape" transform="translate(-209.055,294.52) rotate(-90)">
			<title>Rectangle.2</title>
			<desc>IPA Service</desc>
			<v:userDefs>
				<v:ud v:nameU="visVersion" v:val="VT0(15):26"/>
			</v:userDefs>
			<v:textBlock v:margins="rect(4,4,4,4)" v:tabSpace="42.5197"/>
			<v:textRect cx="126.283" cy="325.984" width="252.57" height="28.3465"/>
			<g id="shadow2-38" v:groupContext="shadow" v:shadowOffsetX="0.345598" v:shadowOffsetY="-1.97279" v:shadowType="1"
					transform="matrix(1,0,0,1,-1.97279,0.345598)" class="st1">
				<rect x="0" y="311.811" width="252.567" height="28.3465" class="st2"/>
			</g>
			<rect x="0" y="311.811" width="252.567" height="28.3465" class="st13"/>
			<text x="103.88" y="328.98" class="st4" v:langID="1031"><v:paragraph v:horizAlign="1"/><v:tabList/>IPA Service</text>		</g>
		<g id="shape3-43" v:mID="3" v:groupContext="shape" transform="translate(133.937,-119.339)">
			<title>Rectangle.3</title>
			<desc>Dialog Management</desc>
			<v:userDefs>
				<v:ud v:nameU="visVersion" v:val="VT0(15):26"/>
			</v:userDefs>
			<v:textBlock v:margins="rect(4,4,4,4)" v:tabSpace="42.5197"/>
			<v:textRect cx="35.4331" cy="250.724" width="70.87" height="178.866"/>
			<g id="shadow3-44" v:groupContext="shadow" v:shadowOffsetX="0.345598" v:shadowOffsetY="-1.97279" v:shadowType="1"
					transform="matrix(1,0,0,1,0.345598,1.97279)" class="st1">
				<rect x="0" y="161.291" width="70.8661" height="178.866" class="st2"/>
			</g>
			<rect x="0" y="161.291" width="70.8661" height="178.866" class="st13"/>
			<text x="22.68" y="247.72" class="st4" v:langID="1031"><v:paragraph v:horizAlign="1"/><v:tabList/>Dialog <tspan
						x="8.12" dy="1.2em" class="st14">Management</tspan></text>		</g>
		<g id="shape4-50" v:mID="4" v:groupContext="shape" transform="translate(455.386,-257.102)">
			<title>Rectangle.4</title>
			<desc>Accounts / Authentication</desc>
			<v:userDefs>
				<v:ud v:nameU="visVersion" v:val="VT0(15):26"/>
			</v:userDefs>
			<v:textBlock v:margins="rect(4,4,4,4)" v:tabSpace="42.5197"/>
			<v:textRect cx="31.1811" cy="319.606" width="62.37" height="41.1024"/>
			<g id="shadow4-51" v:groupContext="shadow" v:shadowOffsetX="0.345598" v:shadowOffsetY="-1.97279" v:shadowType="1"
					transform="matrix(1,0,0,1,0.345598,1.97279)" class="st1">
				<rect x="0" y="299.055" width="62.3622" height="41.1024" class="st2"/>
			</g>
			<rect x="0" y="299.055" width="62.3622" height="41.1024" class="st15"/>
			<text x="9.48" y="310.61" class="st4" v:langID="1031"><v:paragraph v:horizAlign="1"/><v:tabList/>Accounts /<v:newlineChar/><tspan
						x="6.09" dy="1.2em" class="st14">Authenticati</tspan><tspan x="25.92" dy="1.2em" class="st14">on</tspan></text>		</g>
		<g id="shape5-58" v:mID="5" v:groupContext="shape" transform="translate(208.772,-215.362)">
			<title>Rectangle.5</title>
			<desc>Dialog 1</desc>
			<v:userDefs>
				<v:ud v:nameU="visVersion" v:val="VT0(15):26"/>
			</v:userDefs>
			<v:textBlock v:margins="rect(4,4,4,4)" v:tabSpace="42.5197"/>
			<v:textRect cx="31.1811" cy="329.882" width="62.37" height="20.5512"/>
			<g id="shadow5-59" v:groupContext="shadow" v:shadowOffsetX="0.345598" v:shadowOffsetY="-1.97279" v:shadowType="1"
					transform="matrix(1,0,0,1,0.345598,1.97279)" class="st1">
				<rect x="0" y="319.606" width="62.3622" height="20.5512" class="st2"/>
			</g>
			<rect x="0" y="319.606" width="62.3622" height="20.5512" class="st13"/>
			<text x="14.76" y="332.88" class="st4" v:langID="1031"><v:paragraph v:horizAlign="1"/><v:tabList/>Dialog 1</text>		</g>
		<g id="shape6-64" v:mID="6" v:groupContext="shape" transform="translate(273.969,-215.362)">
			<title>Rectangle.6</title>
			<desc>Intent Set 1</desc>
			<v:userDefs>
				<v:ud v:nameU="visVersion" v:val="VT0(15):26"/>
			</v:userDefs>
			<v:textBlock v:margins="rect(4,4,4,4)" v:tabSpace="42.5197"/>
			<v:textRect cx="31.1811" cy="329.882" width="62.37" height="20.5512"/>
			<g id="shadow6-65" v:groupContext="shadow" v:shadowOffsetX="0.345598" v:shadowOffsetY="-1.97279" v:shadowType="1"
					transform="matrix(1,0,0,1,0.345598,1.97279)" class="st1">
				<rect x="0" y="319.606" width="62.3622" height="20.5512" class="st2"/>
			</g>
			<rect x="0" y="319.606" width="62.3622" height="20.5512" class="st13"/>
			<text x="7.58" y="332.88" class="st4" v:langID="1031"><v:paragraph v:horizAlign="1"/><v:tabList/>Intent Set 1</text>		</g>
		<g id="shape7-70" v:mID="7" v:groupContext="shape" transform="translate(593.15,-257.102)">
			<title>Rectangle.7</title>
			<desc>Core Data Provider</desc>
			<v:userDefs>
				<v:ud v:nameU="visVersion" v:val="VT0(15):26"/>
			</v:userDefs>
			<v:textBlock v:margins="rect(4,4,4,4)" v:tabSpace="42.5197"/>
			<v:textRect cx="31.1811" cy="319.606" width="62.37" height="41.1024"/>
			<g id="shadow7-71" v:groupContext="shadow" v:shadowOffsetX="0.345598" v:shadowOffsetY="-1.97279" v:shadowType="1"
					transform="matrix(1,0,0,1,0.345598,1.97279)" class="st1">
				<rect x="0" y="299.055" width="62.3622" height="41.1024" class="st2"/>
			</g>
			<rect x="0" y="299.055" width="62.3622" height="41.1024" class="st15"/>
			<text x="10.98" y="316.61" class="st4" v:langID="1031"><v:paragraph v:horizAlign="1"/><v:tabList/>Core Data <tspan
						x="13.95" dy="1.2em" class="st14">Provider</tspan></text>		</g>
		<g id="shape15-77" v:mID="15" v:groupContext="shape" transform="translate(663.732,-169.228)">
			<title>Rectangle.15</title>
			<desc>Knowledge Graph</desc>
			<v:userDefs>
				<v:ud v:nameU="visVersion" v:val="VT0(15):26"/>
			</v:userDefs>
			<v:textBlock v:margins="rect(4,4,4,4)" v:tabSpace="42.5197"/>
			<v:textRect cx="31.1811" cy="319.606" width="62.37" height="41.1024"/>
			<g id="shadow15-78" v:groupContext="shadow" v:shadowOffsetX="0.345598" v:shadowOffsetY="-1.97279" v:shadowType="1"
					transform="matrix(1,0,0,1,0.345598,1.97279)" class="st1">
				<rect x="0" y="299.055" width="62.3622" height="41.1024" class="st2"/>
			</g>
			<rect x="0" y="299.055" width="62.3622" height="41.1024" class="st16"/>
			<text x="8.64" y="316.61" class="st4" v:langID="1031"><v:paragraph v:horizAlign="1"/><v:tabList/>Knowledge <tspan
						x="18.63" dy="1.2em" class="st14">Graph</tspan></text>		</g>
		<g id="shape16-84" v:mID="16" v:groupContext="shape" transform="translate(208.772,-257.102)">
			<title>Rectangle.16</title>
			<desc>Core Dialog</desc>
			<v:userDefs>
				<v:ud v:nameU="visVersion" v:val="VT0(15):26"/>
			</v:userDefs>
			<v:textBlock v:margins="rect(4,4,4,4)" v:tabSpace="42.5197"/>
			<v:textRect cx="31.1811" cy="319.606" width="62.37" height="41.1024"/>
			<g id="shadow16-85" v:groupContext="shadow" v:shadowOffsetX="0.345598" v:shadowOffsetY="-1.97279" v:shadowType="1"
					transform="matrix(1,0,0,1,0.345598,1.97279)" class="st1">
				<rect x="0" y="299.055" width="62.3622" height="41.1024" class="st2"/>
			</g>
			<rect x="0" y="299.055" width="62.3622" height="41.1024" class="st13"/>
			<text x="7.76" y="322.61" class="st4" v:langID="1031"><v:paragraph v:horizAlign="1"/><v:tabList/>Core Dialog</text>		</g>
		<g id="shape19-90" v:mID="19" v:groupContext="shape" transform="translate(273.969,-257.102)">
			<title>Rectangle.19</title>
			<desc>Core Intent Set</desc>
			<v:userDefs>
				<v:ud v:nameU="visVersion" v:val="VT0(15):26"/>
			</v:userDefs>
			<v:textBlock v:margins="rect(4,4,4,4)" v:tabSpace="42.5197"/>
			<v:textRect cx="31.1811" cy="319.606" width="62.37" height="41.1024"/>
			<g id="shadow19-91" v:groupContext="shadow" v:shadowOffsetX="0.345598" v:shadowOffsetY="-1.97279" v:shadowType="1"
					transform="matrix(1,0,0,1,0.345598,1.97279)" class="st1">
				<rect x="0" y="299.055" width="62.3622" height="41.1024" class="st2"/>
			</g>
			<rect x="0" y="299.055" width="62.3622" height="41.1024" class="st13"/>
			<text x="8.17" y="316.61" class="st4" v:langID="1031"><v:paragraph v:horizAlign="1"/><v:tabList/>Core Intent <tspan
						x="24.72" dy="1.2em" class="st14">Set</tspan></text>		</g>
		<g id="shape20-97" v:mID="20" v:groupContext="shape" transform="translate(207.638,-120.902)">
			<title>Rectangle.20</title>
			<desc>Dialog Registry</desc>
			<v:userDefs>
				<v:ud v:nameU="visVersion" v:val="VT0(15):26"/>
			</v:userDefs>
			<v:textBlock v:margins="rect(4,4,4,4)" v:tabSpace="42.5197"/>
			<v:textRect cx="64.8425" cy="319.606" width="129.69" height="41.1024"/>
			<g id="shadow20-98" v:groupContext="shadow" v:shadowOffsetX="0.345598" v:shadowOffsetY="-1.97279" v:shadowType="1"
					transform="matrix(1,0,0,1,0.345598,1.97279)" class="st1">
				<rect x="0" y="299.055" width="129.685" height="41.1024" class="st2"/>
			</g>
			<rect x="0" y="299.055" width="129.685" height="41.1024" class="st13"/>
			<text x="34.62" y="322.61" class="st4" v:langID="1031"><v:paragraph v:horizAlign="1"/><v:tabList/>Dialog Registry</text>		</g>
		<g id="shape22-103" v:mID="22" v:groupContext="shape" transform="translate(594.283,-169.228)">
			<title>Rectangle.22</title>
			<desc>Data Provider</desc>
			<v:userDefs>
				<v:ud v:nameU="visVersion" v:val="VT0(15):26"/>
			</v:userDefs>
			<v:textBlock v:margins="rect(4,4,4,4)" v:tabSpace="42.5197"/>
			<v:textRect cx="31.1811" cy="319.606" width="62.37" height="41.1024"/>
			<g id="shadow22-104" v:groupContext="shadow" v:shadowOffsetX="0.345598" v:shadowOffsetY="-1.97279" v:shadowType="1"
					transform="matrix(1,0,0,1,0.345598,1.97279)" class="st1">
				<rect x="0" y="299.055" width="62.3622" height="41.1024" class="st2"/>
			</g>
			<rect x="0" y="299.055" width="62.3622" height="41.1024" class="st16"/>
			<text x="21.64" y="316.61" class="st4" v:langID="1031"><v:paragraph v:horizAlign="1"/><v:tabList/>Data <tspan x="13.95"
						dy="1.2em" class="st14">Provider</tspan></text>		</g>
		<g id="shape30-110" v:mID="30" v:groupContext="shape" transform="translate(-242.717,285.307) rotate(-90)">
			<title>Sheet.30</title>
			<path d="M0 340.16 L0 340.16" class="st17"/>
		</g>
		<g id="shape35-113" v:mID="35" v:groupContext="shape" transform="translate(524.835,-169.228)">
			<title>Rectangle.35</title>
			<desc>Provider Intent Set</desc>
			<v:userDefs>
				<v:ud v:nameU="visVersion" v:val="VT0(15):26"/>
			</v:userDefs>
			<v:textBlock v:margins="rect(4,4,4,4)" v:tabSpace="42.5197"/>
			<v:textRect cx="31.1811" cy="319.606" width="62.37" height="41.1024"/>
			<g id="shadow35-114" v:groupContext="shadow" v:shadowOffsetX="0.345598" v:shadowOffsetY="-1.97279" v:shadowType="1"
					transform="matrix(1,0,0,1,0.345598,1.97279)" class="st1">
				<rect x="0" y="299.055" width="62.3622" height="41.1024" class="st2"/>
			</g>
			<rect x="0" y="299.055" width="62.3622" height="41.1024" class="st16"/>
			<text x="13.95" y="316.61" class="st4" v:langID="1031"><v:paragraph v:horizAlign="1"/><v:tabList/>Provider <tspan
						x="11.24" dy="1.2em" class="st14">Intent Set</tspan></text>		</g>
		<g id="shape36-120" v:mID="36" v:groupContext="shape" transform="translate(445.465,-45.9213)">
			<title>Rectangle.36</title>
			<desc>IPA Provider n</desc>
			<v:userDefs>
				<v:ud v:nameU="visVersion" v:val="VT0(15):26"/>
			</v:userDefs>
			<v:textBlock v:margins="rect(4,4,4,4)" v:tabSpace="42.5197" v:verticalAlign="0"/>
			<v:textRect cx="145.984" cy="304.016" width="291.97" height="72.2835"/>
			<g id="shadow36-121" v:groupContext="shadow" v:shadowOffsetX="0.345598" v:shadowOffsetY="-1.97279" v:shadowType="1"
					transform="matrix(1,0,0,1,0.345598,1.97279)" class="st1">
				<rect x="0" y="267.874" width="291.969" height="72.2835" class="st2"/>
			</g>
			<rect x="0" y="267.874" width="291.969" height="72.2835" class="st11"/>
			<text x="230.27" y="280.87" class="st6" v:langID="1031"><v:paragraph v:horizAlign="2"/><v:tabList/>IPA Provider n</text>		</g>
		<g id="shape37-126" v:mID="37" v:groupContext="shape" transform="translate(663.732,-54.4252)">
			<title>Rectangle.37</title>
			<desc>Knowledge Graph</desc>
			<v:userDefs>
				<v:ud v:nameU="visVersion" v:val="VT0(15):26"/>
			</v:userDefs>
			<v:textBlock v:margins="rect(4,4,4,4)" v:tabSpace="42.5197"/>
			<v:textRect cx="31.1811" cy="319.606" width="62.37" height="41.1024"/>
			<g id="shadow37-127" v:groupContext="shadow" v:shadowOffsetX="0.345598" v:shadowOffsetY="-1.97279" v:shadowType="1"
					transform="matrix(1,0,0,1,0.345598,1.97279)" class="st1">
				<rect x="0" y="299.055" width="62.3622" height="41.1024" class="st2"/>
			</g>
			<rect x="0" y="299.055" width="62.3622" height="41.1024" class="st16"/>
			<text x="8.64" y="316.61" class="st4" v:langID="1031"><v:paragraph v:horizAlign="1"/><v:tabList/>Knowledge <tspan
						x="18.63" dy="1.2em" class="st14">Graph</tspan></text>		</g>
		<g id="shape39-133" v:mID="39" v:groupContext="shape" transform="translate(594.283,-54.4252)">
			<title>Rectangle.39</title>
			<desc>Data Provider</desc>
			<v:userDefs>
				<v:ud v:nameU="visVersion" v:val="VT0(15):26"/>
			</v:userDefs>
			<v:textBlock v:margins="rect(4,4,4,4)" v:tabSpace="42.5197"/>
			<v:textRect cx="31.1811" cy="319.606" width="62.37" height="41.1024"/>
			<g id="shadow39-134" v:groupContext="shadow" v:shadowOffsetX="0.345598" v:shadowOffsetY="-1.97279" v:shadowType="1"
					transform="matrix(1,0,0,1,0.345598,1.97279)" class="st1">
				<rect x="0" y="299.055" width="62.3622" height="41.1024" class="st2"/>
			</g>
			<rect x="0" y="299.055" width="62.3622" height="41.1024" class="st16"/>
			<text x="21.64" y="316.61" class="st4" v:langID="1031"><v:paragraph v:horizAlign="1"/><v:tabList/>Data <tspan x="13.95"
						dy="1.2em" class="st14">Provider</tspan></text>		</g>
		<g id="shape40-140" v:mID="40" v:groupContext="shape" transform="translate(524.835,-54.4252)">
			<title>Rectangle.40</title>
			<desc>Provider Intent Set</desc>
			<v:userDefs>
				<v:ud v:nameU="visVersion" v:val="VT0(15):26"/>
			</v:userDefs>
			<v:textBlock v:margins="rect(4,4,4,4)" v:tabSpace="42.5197"/>
			<v:textRect cx="31.1811" cy="319.606" width="62.37" height="41.1024"/>
			<g id="shadow40-141" v:groupContext="shadow" v:shadowOffsetX="0.345598" v:shadowOffsetY="-1.97279" v:shadowType="1"
					transform="matrix(1,0,0,1,0.345598,1.97279)" class="st1">
				<rect x="0" y="299.055" width="62.3622" height="41.1024" class="st2"/>
			</g>
			<rect x="0" y="299.055" width="62.3622" height="41.1024" class="st16"/>
			<text x="13.95" y="316.61" class="st4" v:langID="1031"><v:paragraph v:horizAlign="1"/><v:tabList/>Provider <tspan
						x="11.24" dy="1.2em" class="st14">Intent Set</tspan></text>		</g>
		<g id="shape41-147" v:mID="41" v:groupContext="shape" transform="translate(557.433,-136.63)">
			<title>Circle</title>
			<v:userDefs>
				<v:ud v:nameU="visVersion" v:val="VT0(15):26"/>
			</v:userDefs>
			<g id="shadow41-148" v:groupContext="shadow" v:shadowOffsetX="0.345598" v:shadowOffsetY="-1.97279" v:shadowType="1"
					transform="matrix(1,0,0,1,0.345598,1.97279)" class="st1">
				<path d="M0 335.91 A4.25197 4.25197 0 0 1 8.5 335.91 A4.25197 4.25197 0 1 1 0 335.91 Z" class="st2"/>
			</g>
			<path d="M0 335.91 A4.25197 4.25197 0 0 1 8.5 335.91 A4.25197 4.25197 0 1 1 0 335.91 Z" class="st18"/>
		</g>
		<g id="shape42-152" v:mID="42" v:groupContext="shape" transform="translate(574.441,-136.63)">
			<title>Circle.42</title>
			<v:userDefs>
				<v:ud v:nameU="visVersion" v:val="VT0(15):26"/>
			</v:userDefs>
			<g id="shadow42-153" v:groupContext="shadow" v:shadowOffsetX="0.345598" v:shadowOffsetY="-1.97279" v:shadowType="1"
					transform="matrix(1,0,0,1,0.345598,1.97279)" class="st1">
				<path d="M0 335.91 A4.25197 4.25197 0 0 1 8.5 335.91 A4.25197 4.25197 0 1 1 0 335.91 Z" class="st2"/>
			</g>
			<path d="M0 335.91 A4.25197 4.25197 0 0 1 8.5 335.91 A4.25197 4.25197 0 1 1 0 335.91 Z" class="st18"/>
		</g>
		<g id="shape43-157" v:mID="43" v:groupContext="shape" transform="translate(591.449,-136.63)">
			<title>Circle.43</title>
			<v:userDefs>
				<v:ud v:nameU="visVersion" v:val="VT0(15):26"/>
			</v:userDefs>
			<g id="shadow43-158" v:groupContext="shadow" v:shadowOffsetX="0.345598" v:shadowOffsetY="-1.97279" v:shadowType="1"
					transform="matrix(1,0,0,1,0.345598,1.97279)" class="st1">
				<path d="M0 335.91 A4.25197 4.25197 0 0 1 8.5 335.91 A4.25197 4.25197 0 1 1 0 335.91 Z" class="st2"/>
			</g>
			<path d="M0 335.91 A4.25197 4.25197 0 0 1 8.5 335.91 A4.25197 4.25197 0 1 1 0 335.91 Z" class="st18"/>
		</g>
		<g id="shape45-162" v:mID="45" v:groupContext="shape" transform="translate(90.7087,281.764) rotate(-90)">
			<title>Rectangle.45</title>
			<desc>Provider Selection Service</desc>
			<v:userDefs>
				<v:ud v:nameU="visVersion" v:val="VT0(15):26"/>
			</v:userDefs>
			<v:textBlock v:margins="rect(4,4,4,4)" v:tabSpace="42.5197"/>
			<v:textRect cx="89.4331" cy="314.291" width="178.87" height="51.7323"/>
			<g id="shadow45-163" v:groupContext="shadow" v:shadowOffsetX="0.345598" v:shadowOffsetY="-1.97279" v:shadowType="1"
					transform="matrix(1,0,0,1,-1.97279,0.345598)" class="st1">
				<rect x="0" y="288.425" width="178.866" height="51.7323" class="st2"/>
			</g>
			<rect x="0" y="288.425" width="178.866" height="51.7323" class="st15"/>
			<text x="36.79" y="317.29" class="st4" v:langID="1031"><v:paragraph v:horizAlign="1"/><v:tabList/>Provider Selection Service</text>		</g>
		<g id="shape51-168" v:mID="51" v:groupContext="shape" transform="translate(208.772,-168.945)">
			<title>Rectangle.51</title>
			<desc>Dialog n</desc>
			<v:userDefs>
				<v:ud v:nameU="visVersion" v:val="VT0(15):26"/>
			</v:userDefs>
			<v:textBlock v:margins="rect(4,4,4,4)" v:tabSpace="42.5197"/>
			<v:textRect cx="31.1811" cy="329.882" width="62.37" height="20.5512"/>
			<g id="shadow51-169" v:groupContext="shadow" v:shadowOffsetX="0.345598" v:shadowOffsetY="-1.97279" v:shadowType="1"
					transform="matrix(1,0,0,1,0.345598,1.97279)" class="st1">
				<rect x="0" y="319.606" width="62.3622" height="20.5512" class="st2"/>
			</g>
			<rect x="0" y="319.606" width="62.3622" height="20.5512" class="st13"/>
			<text x="14.67" y="332.88" class="st4" v:langID="1031"><v:paragraph v:horizAlign="1"/><v:tabList/>Dialog n</text>		</g>
		<g id="shape52-174" v:mID="52" v:groupContext="shape" transform="translate(273.969,-168.945)">
			<title>Rectangle.52</title>
			<desc>Intent Set n</desc>
			<v:userDefs>
				<v:ud v:nameU="visVersion" v:val="VT0(15):26"/>
			</v:userDefs>
			<v:textBlock v:margins="rect(4,4,4,4)" v:tabSpace="42.5197"/>
			<v:textRect cx="31.1811" cy="329.882" width="62.37" height="20.5512"/>
			<g id="shadow52-175" v:groupContext="shadow" v:shadowOffsetX="0.345598" v:shadowOffsetY="-1.97279" v:shadowType="1"
					transform="matrix(1,0,0,1,0.345598,1.97279)" class="st1">
				<rect x="0" y="319.606" width="62.3622" height="20.5512" class="st2"/>
			</g>
			<rect x="0" y="319.606" width="62.3622" height="20.5512" class="st13"/>
			<text x="7.48" y="332.88" class="st4" v:langID="1031"><v:paragraph v:horizAlign="1"/><v:tabList/>Intent Set n</text>		</g>
		<g id="shape53-180" v:mID="53" v:groupContext="shape" transform="translate(251.575,-197.291)">
			<title>Circle.53</title>
			<v:userDefs>
				<v:ud v:nameU="visVersion" v:val="VT0(15):26"/>
			</v:userDefs>
			<g id="shadow53-181" v:groupContext="shadow" v:shadowOffsetX="0.345598" v:shadowOffsetY="-1.97279" v:shadowType="1"
					transform="matrix(1,0,0,1,0.345598,1.97279)" class="st1">
				<path d="M0 335.91 A4.25197 4.25197 0 0 1 8.5 335.91 A4.25197 4.25197 0 1 1 0 335.91 Z" class="st2"/>
			</g>
			<path d="M0 335.91 A4.25197 4.25197 0 0 1 8.5 335.91 A4.25197 4.25197 0 1 1 0 335.91 Z" class="st19"/>
		</g>
		<g id="shape54-185" v:mID="54" v:groupContext="shape" transform="translate(268.583,-197.291)">
			<title>Circle.54</title>
			<v:userDefs>
				<v:ud v:nameU="visVersion" v:val="VT0(15):26"/>
			</v:userDefs>
			<g id="shadow54-186" v:groupContext="shadow" v:shadowOffsetX="0.345598" v:shadowOffsetY="-1.97279" v:shadowType="1"
					transform="matrix(1,0,0,1,0.345598,1.97279)" class="st1">
				<path d="M0 335.91 A4.25197 4.25197 0 0 1 8.5 335.91 A4.25197 4.25197 0 1 1 0 335.91 Z" class="st2"/>
			</g>
			<path d="M0 335.91 A4.25197 4.25197 0 0 1 8.5 335.91 A4.25197 4.25197 0 1 1 0 335.91 Z" class="st19"/>
		</g>
		<g id="shape55-190" v:mID="55" v:groupContext="shape" transform="translate(285.591,-197.291)">
			<title>Circle.55</title>
			<v:userDefs>
				<v:ud v:nameU="visVersion" v:val="VT0(15):26"/>
			</v:userDefs>
			<g id="shadow55-191" v:groupContext="shadow" v:shadowOffsetX="0.345598" v:shadowOffsetY="-1.97279" v:shadowType="1"
					transform="matrix(1,0,0,1,0.345598,1.97279)" class="st1">
				<path d="M0 335.91 A4.25197 4.25197 0 0 1 8.5 335.91 A4.25197 4.25197 0 1 1 0 335.91 Z" class="st2"/>
			</g>
			<path d="M0 335.91 A4.25197 4.25197 0 0 1 8.5 335.91 A4.25197 4.25197 0 1 1 0 335.91 Z" class="st19"/>
		</g>
		<g id="shape56-195" v:mID="56" v:groupContext="shape" transform="translate(455.386,-169.228)">
			<title>Rectangle.56</title>
			<desc>Provider NLU</desc>
			<v:userDefs>
				<v:ud v:nameU="visVersion" v:val="VT0(15):26"/>
			</v:userDefs>
			<v:textBlock v:margins="rect(4,4,4,4)" v:tabSpace="42.5197"/>
			<v:textRect cx="31.1811" cy="319.606" width="62.37" height="41.1024"/>
			<g id="shadow56-196" v:groupContext="shadow" v:shadowOffsetX="0.345598" v:shadowOffsetY="-1.97279" v:shadowType="1"
					transform="matrix(1,0,0,1,0.345598,1.97279)" class="st1">
				<rect x="0" y="299.055" width="62.3622" height="41.1024" class="st2"/>
			</g>
			<rect x="0" y="299.055" width="62.3622" height="41.1024" class="st16"/>
			<text x="4.29" y="322.61" class="st4" v:langID="1031"><v:paragraph v:horizAlign="1"/><v:tabList/>Provider NLU</text>		</g>
		<g id="shape57-201" v:mID="57" v:groupContext="shape" transform="translate(455.386,-54.4252)">
			<title>Rectangle.57</title>
			<desc>Provider NLU</desc>
			<v:userDefs>
				<v:ud v:nameU="visVersion" v:val="VT0(15):26"/>
			</v:userDefs>
			<v:textBlock v:margins="rect(4,4,4,4)" v:tabSpace="42.5197"/>
			<v:textRect cx="31.1811" cy="319.606" width="62.37" height="41.1024"/>
			<g id="shadow57-202" v:groupContext="shadow" v:shadowOffsetX="0.345598" v:shadowOffsetY="-1.97279" v:shadowType="1"
					transform="matrix(1,0,0,1,0.345598,1.97279)" class="st1">
				<rect x="0" y="299.055" width="62.3622" height="41.1024" class="st2"/>
			</g>
			<rect x="0" y="299.055" width="62.3622" height="41.1024" class="st16"/>
			<text x="4.29" y="322.61" class="st4" v:langID="1031"><v:paragraph v:horizAlign="1"/><v:tabList/>Provider NLU</text>		</g>
		<g id="shape58-207" v:mID="58" v:groupContext="shape" transform="translate(524.268,-257.102)">
			<title>Rectangle.58</title>
			<desc>Core NLU</desc>
			<v:userDefs>
				<v:ud v:nameU="visVersion" v:val="VT0(15):26"/>
			</v:userDefs>
			<v:textBlock v:margins="rect(4,4,4,4)" v:tabSpace="42.5197"/>
			<v:textRect cx="31.1811" cy="319.606" width="62.37" height="41.1024"/>
			<g id="shadow58-208" v:groupContext="shadow" v:shadowOffsetX="0.345598" v:shadowOffsetY="-1.97279" v:shadowType="1"
					transform="matrix(1,0,0,1,0.345598,1.97279)" class="st1">
				<rect x="0" y="299.055" width="62.3622" height="41.1024" class="st2"/>
			</g>
			<rect x="0" y="299.055" width="62.3622" height="41.1024" class="st15"/>
			<text x="11.98" y="322.61" class="st4" v:langID="1031"><v:paragraph v:horizAlign="1"/><v:tabList/>Core NLU</text>		</g>
		<g id="shape59-213" v:mID="59" v:groupContext="shape" transform="translate(133.654,-45.6378)">
			<title>Rectangle.59</title>
			<desc>ASR</desc>
			<v:userDefs>
				<v:ud v:nameU="visVersion" v:val="VT0(15):26"/>
			</v:userDefs>
			<v:textBlock v:margins="rect(4,4,4,4)" v:tabSpace="42.5197"/>
			<v:textRect cx="35.4331" cy="323.717" width="70.87" height="32.8819"/>
			<g id="shadow59-214" v:groupContext="shadow" v:shadowOffsetX="0.345598" v:shadowOffsetY="-1.97279" v:shadowType="1"
					transform="matrix(1,0,0,1,0.345598,1.97279)" class="st1">
				<rect x="0" y="307.276" width="70.8661" height="32.8819" class="st2"/>
			</g>
			<rect x="0" y="307.276" width="70.8661" height="32.8819" class="st13"/>
			<text x="27.53" y="326.72" class="st4" v:langID="1031"><v:paragraph v:horizAlign="1"/><v:tabList/>ASR</text>		</g>
		<g id="shape60-219" v:mID="60" v:groupContext="shape" transform="translate(133.654,-81.3543)">
			<title>Rectangle.60</title>
			<desc>TTS</desc>
			<v:userDefs>
				<v:ud v:nameU="visVersion" v:val="VT0(15):26"/>
			</v:userDefs>
			<v:textBlock v:margins="rect(4,4,4,4)" v:tabSpace="42.5197"/>
			<v:textRect cx="35.4331" cy="323.717" width="70.87" height="32.8819"/>
			<g id="shadow60-220" v:groupContext="shadow" v:shadowOffsetX="0.345598" v:shadowOffsetY="-1.97279" v:shadowType="1"
					transform="matrix(1,0,0,1,0.345598,1.97279)" class="st1">
				<rect x="0" y="307.276" width="70.8661" height="32.8819" class="st2"/>
			</g>
			<rect x="0" y="307.276" width="70.8661" height="32.8819" class="st13"/>
			<text x="28.26" y="326.72" class="st4" v:langID="1031"><v:paragraph v:horizAlign="1"/><v:tabList/>TTS</text>		</g>
		<g id="shape62-225" v:mID="62" v:groupContext="shape" transform="translate(380.268,-257.102)">
			<title>Rectangle.62</title>
			<desc>Provider Registry</desc>
			<v:userDefs>
				<v:ud v:nameU="visVersion" v:val="VT0(15):26"/>
			</v:userDefs>
			<v:textBlock v:margins="rect(4,4,4,4)" v:tabSpace="42.5197"/>
			<v:textRect cx="35.4331" cy="319.606" width="70.87" height="41.1024"/>
			<g id="shadow62-226" v:groupContext="shadow" v:shadowOffsetX="0.345598" v:shadowOffsetY="-1.97279" v:shadowType="1"
					transform="matrix(1,0,0,1,0.345598,1.97279)" class="st1">
				<rect x="0" y="299.055" width="70.8661" height="41.1024" class="st2"/>
			</g>
			<rect x="0" y="299.055" width="70.8661" height="41.1024" class="st15"/>
			<text x="18.21" y="316.61" class="st4" v:langID="1031"><v:paragraph v:horizAlign="1"/><v:tabList/>Provider<v:newlineChar/><tspan
						x="19.09" dy="1.2em" class="st14">Registry</tspan></text>		</g>
		<g id="shape63-232" v:mID="63" v:groupContext="shape" transform="translate(662.031,-257.102)">
			<title>Rectangle.63</title>
			<desc>Core Knowledge Graph</desc>
			<v:userDefs>
				<v:ud v:nameU="visVersion" v:val="VT0(15):26"/>
			</v:userDefs>
			<v:textBlock v:margins="rect(4,4,4,4)" v:tabSpace="42.5197"/>
			<v:textRect cx="31.1811" cy="319.606" width="62.37" height="41.1024"/>
			<g id="shadow63-233" v:groupContext="shadow" v:shadowOffsetX="0.345598" v:shadowOffsetY="-1.97279" v:shadowType="1"
					transform="matrix(1,0,0,1,0.345598,1.97279)" class="st1">
				<rect x="0" y="299.055" width="62.3622" height="41.1024" class="st2"/>
			</g>
			<rect x="0" y="299.055" width="62.3622" height="41.1024" class="st15"/>
			<text x="21.65" y="310.61" class="st4" v:langID="1031"><v:paragraph v:horizAlign="1"/><v:tabList/>Core <tspan x="8.64"
						dy="1.2em" class="st14">Knowledge </tspan><tspan x="18.63" dy="1.2em" class="st14">Graph</tspan></text>		</g>
		<g id="shape85-240" v:mID="85" v:groupContext="shape" transform="translate(140.851,582.444) rotate(178.788)">
			<title>Sheet.85</title>
			<path d="M0 340.16 L43.03 340.16" class="st20"/>
		</g>
		<g id="shape86-246" v:mID="86" v:groupContext="shape" transform="translate(488.976,212.598) rotate(90)">
			<title>Sheet.86</title>
			<path d="M0 340.16 L16.65 340.16" class="st20"/>
		</g>
		<g id="shape88-251" v:mID="88" v:groupContext="shape" transform="translate(378.304,471.967) rotate(-179.86)">
			<title>Sheet.88</title>
			<path d="M0 340.16 L163.77 340.16" class="st20"/>
		</g>
		<g id="shape89-256" v:mID="89" v:groupContext="shape" transform="translate(49.6063,102.898) rotate(-90)">
			<title>Sheet.89</title>
			<path d="M0 340.16 L9.28 340.16" class="st20"/>
		</g>
		<g id="shape96-261" v:mID="96" v:groupContext="shape" transform="translate(445.465,510.236) rotate(180)">
			<title>Sheet.96</title>
			<path d="M0 340.16 L9.71 340.16" class="st20"/>
		</g>
		<g id="shape97-266" v:mID="97" v:groupContext="shape" transform="translate(445.465,612.283) rotate(180)">
			<title>Sheet.97</title>
			<path d="M0 340.16 L4.04 340.16" class="st20"/>
		</g>
		<g id="shape98-271" v:mID="98" v:groupContext="shape" v:layerMember="3" transform="translate(94.252,-100.767)">
			<title>Junction number</title>
			<desc>9</desc>
			<v:userDefs>
				<v:ud v:nameU="visVersion" v:val="VT0(15):26"/>
				<v:ud v:nameU="Scale" v:val="VT0(1):26"/>
				<v:ud v:nameU="AntiScale" v:val="VT0(1):26"/>
			</v:userDefs>
			<v:textBlock v:margins="rect(0,0,0,0)" v:tabSpace="42.5197"/>
			<v:textRect cx="8.50394" cy="331.654" width="17.01" height="17.0079"/>
			<path d="M0 331.65 A8.50394 8.50394 0 0 1 17.01 331.65 A8.50394 8.50394 0 1 1 0 331.65 Z" class="st22"/>
			<text x="6.71" y="333.78" class="st23" v:langID="1031"><v:paragraph v:horizAlign="1"/><v:tabList/>9</text>		</g>
		<g id="shape99-274" v:mID="99" v:groupContext="shape" v:layerMember="3" transform="translate(125.433,-110.835)">
			<title>Junction number.99</title>
			<desc>8</desc>
			<v:userDefs>
				<v:ud v:nameU="visVersion" v:val="VT0(15):26"/>
				<v:ud v:nameU="Scale" v:val="VT0(1):26"/>
				<v:ud v:nameU="AntiScale" v:val="VT0(1):26"/>
			</v:userDefs>
			<v:textBlock v:margins="rect(0,0,0,0)" v:tabSpace="42.5197"/>
			<v:textRect cx="8.50394" cy="331.654" width="17.01" height="17.0079"/>
			<path d="M0 331.65 A8.50394 8.50394 0 0 1 17.01 331.65 A8.50394 8.50394 0 1 1 0 331.65 Z" class="st22"/>
			<text x="6.71" y="333.78" class="st23" v:langID="1031"><v:paragraph v:horizAlign="1"/><v:tabList/>8</text>		</g>
		<g id="shape101-277" v:mID="101" v:groupContext="shape" v:layerMember="3" transform="translate(265.465,-211.181)">
			<title>Junction number.101</title>
			<desc>3</desc>
			<v:userDefs>
				<v:ud v:nameU="visVersion" v:val="VT0(15):26"/>
				<v:ud v:nameU="Scale" v:val="VT0(1):26"/>
				<v:ud v:nameU="AntiScale" v:val="VT0(1):26"/>
			</v:userDefs>
			<v:textBlock v:margins="rect(0,0,0,0)" v:tabSpace="42.5197"/>
			<v:textRect cx="8.50394" cy="331.654" width="17.01" height="17.0079"/>
			<path d="M0 331.65 A8.50394 8.50394 0 0 1 17.01 331.65 A8.50394 8.50394 0 1 1 0 331.65 Z" class="st22"/>
			<text x="6.71" y="333.78" class="st23" v:langID="1031"><v:paragraph v:horizAlign="1"/><v:tabList/>3</text>		</g>
		<g id="shape102-280" v:mID="102" v:groupContext="shape" v:layerMember="3" transform="translate(367.087,-239.528)">
			<title>Junction number.102</title>
			<desc>2</desc>
			<v:userDefs>
				<v:ud v:nameU="visVersion" v:val="VT0(15):26"/>
				<v:ud v:nameU="Scale" v:val="VT0(1):26"/>
				<v:ud v:nameU="AntiScale" v:val="VT0(1):26"/>
			</v:userDefs>
			<v:textBlock v:margins="rect(0,0,0,0)" v:tabSpace="42.5197"/>
			<v:textRect cx="8.50394" cy="331.654" width="17.01" height="17.0079"/>
			<path d="M0 331.65 A8.50394 8.50394 0 0 1 17.01 331.65 A8.50394 8.50394 0 1 1 0 331.65 Z" class="st22"/>
			<text x="6.71" y="333.78" class="st23" v:langID="1031"><v:paragraph v:horizAlign="1"/><v:tabList/>2</text>		</g>
		<g id="shape104-283" v:mID="104" v:groupContext="shape" v:layerMember="3" transform="translate(428.123,-194.036)">
			<title>Junction number.104</title>
			<desc>1</desc>
			<v:userDefs>
				<v:ud v:nameU="visVersion" v:val="VT0(15):26"/>
				<v:ud v:nameU="Scale" v:val="VT0(1):26"/>
				<v:ud v:nameU="AntiScale" v:val="VT0(1):26"/>
			</v:userDefs>
			<v:textBlock v:margins="rect(0,0,0,0)" v:tabSpace="42.5197"/>
			<v:textRect cx="8.50394" cy="331.654" width="17.01" height="17.0079"/>
			<path d="M0 331.65 A8.50394 8.50394 0 0 1 17.01 331.65 A8.50394 8.50394 0 1 1 0 331.65 Z" class="st22"/>
			<text x="6.71" y="333.78" class="st23" v:langID="1031"><v:paragraph v:horizAlign="1"/><v:tabList/>1</text>		</g>
		<g id="shape105-286" v:mID="105" v:groupContext="shape" v:layerMember="3" transform="translate(428.123,-83.622)">
			<title>Junction number.105</title>
			<desc>1</desc>
			<v:userDefs>
				<v:ud v:nameU="visVersion" v:val="VT0(15):26"/>
				<v:ud v:nameU="Scale" v:val="VT0(1):26"/>
				<v:ud v:nameU="AntiScale" v:val="VT0(1):26"/>
			</v:userDefs>
			<v:textBlock v:margins="rect(0,0,0,0)" v:tabSpace="42.5197"/>
			<v:textRect cx="8.50394" cy="331.654" width="17.01" height="17.0079"/>
			<path d="M0 331.65 A8.50394 8.50394 0 0 1 17.01 331.65 A8.50394 8.50394 0 1 1 0 331.65 Z" class="st22"/>
			<text x="6.71" y="333.78" class="st23" v:langID="1031"><v:paragraph v:horizAlign="1"/><v:tabList/>1</text>		</g>
		<g id="shape106-289" v:mID="106" v:groupContext="shape" transform="translate(191.339,-134.646)">
			<title>Sheet.106</title>
			<path d="M0 340.16 L24.87 340.16" class="st20"/>
		</g>
		<g id="shape107-294" v:mID="107" v:groupContext="shape" transform="translate(226.772,554.287) rotate(180)">
			<title>Sheet.107</title>
			<path d="M0 340.16 L28.3 340.16" class="st20"/>
		</g>
		<g id="shape108-299" v:mID="108" v:groupContext="shape" transform="translate(184.252,-184.252)">
			<title>Sheet.108</title>
			<path d="M0 340.16 L24.87 340.16" class="st20"/>
		</g>
		<g id="shape109-304" v:mID="109" v:groupContext="shape" transform="translate(216.85,503.15) rotate(180)">
			<title>Sheet.109</title>
			<path d="M0 340.16 L24.78 340.16" class="st20"/>
		</g>
		<g id="shape111-309" v:mID="111" v:groupContext="shape" v:layerMember="3" transform="translate(199.134,-140.315)">
			<title>Junction number.111</title>
			<desc>4</desc>
			<v:userDefs>
				<v:ud v:nameU="visVersion" v:val="VT0(15):26"/>
				<v:ud v:nameU="Scale" v:val="VT0(1):26"/>
				<v:ud v:nameU="AntiScale" v:val="VT0(1):26"/>
			</v:userDefs>
			<v:textBlock v:margins="rect(0,0,0,0)" v:tabSpace="42.5197"/>
			<v:textRect cx="8.50394" cy="331.654" width="17.01" height="17.0079"/>
			<path d="M0 331.65 A8.50394 8.50394 0 0 1 17.01 331.65 A8.50394 8.50394 0 1 1 0 331.65 Z" class="st22"/>
			<text x="6.71" y="333.78" class="st23" v:langID="1031"><v:paragraph v:horizAlign="1"/><v:tabList/>4</text>		</g>
		<g id="shape112-312" v:mID="112" v:groupContext="shape" v:layerMember="3" transform="translate(199.98,-104.882)">
			<title>Junction number.112</title>
			<desc>5</desc>
			<v:userDefs>
				<v:ud v:nameU="visVersion" v:val="VT0(15):26"/>
				<v:ud v:nameU="Scale" v:val="VT0(1):26"/>
				<v:ud v:nameU="AntiScale" v:val="VT0(1):26"/>
			</v:userDefs>
			<v:textBlock v:margins="rect(0,0,0,0)" v:tabSpace="42.5197"/>
			<v:textRect cx="8.50394" cy="331.654" width="17.01" height="17.0079"/>
			<path d="M0 331.65 A8.50394 8.50394 0 0 1 17.01 331.65 A8.50394 8.50394 0 1 1 0 331.65 Z" class="st22"/>
			<text x="6.71" y="333.78" class="st23" v:langID="1031"><v:paragraph v:horizAlign="1"/><v:tabList/>5</text>		</g>
		<g id="shape114-315" v:mID="114" v:groupContext="shape" v:layerMember="3" transform="translate(175.748,-189.921)">
			<title>Junction number.114</title>
			<desc>6</desc>
			<v:userDefs>
				<v:ud v:nameU="visVersion" v:val="VT0(15):26"/>
				<v:ud v:nameU="Scale" v:val="VT0(1):26"/>
				<v:ud v:nameU="AntiScale" v:val="VT0(1):26"/>
			</v:userDefs>
			<v:textBlock v:margins="rect(0,0,0,0)" v:tabSpace="42.5197"/>
			<v:textRect cx="8.50394" cy="331.654" width="17.01" height="17.0079"/>
			<path d="M0 331.65 A8.50394 8.50394 0 0 1 17.01 331.65 A8.50394 8.50394 0 1 1 0 331.65 Z" class="st22"/>
			<text x="6.71" y="333.78" class="st23" v:langID="1031"><v:paragraph v:horizAlign="1"/><v:tabList/>6</text>		</g>
		<g id="shape115-318" v:mID="115" v:groupContext="shape" v:layerMember="3" transform="translate(175.748,-154.488)">
			<title>Junction number.115</title>
			<desc>7</desc>
			<v:userDefs>
				<v:ud v:nameU="visVersion" v:val="VT0(15):26"/>
				<v:ud v:nameU="Scale" v:val="VT0(1):26"/>
				<v:ud v:nameU="AntiScale" v:val="VT0(1):26"/>
			</v:userDefs>
			<v:textBlock v:margins="rect(0,0,0,0)" v:tabSpace="42.5197"/>
			<v:textRect cx="8.50394" cy="331.654" width="17.01" height="17.0079"/>
			<path d="M0 331.65 A8.50394 8.50394 0 0 1 17.01 331.65 A8.50394 8.50394 0 1 1 0 331.65 Z" class="st22"/>
			<text x="6.71" y="333.78" class="st23" v:langID="1031"><v:paragraph v:horizAlign="1"/><v:tabList/>7</text>		</g>
	</g>
</svg>
