<?xml version="1.0" encoding="UTF-8" standalone="no"?>
<!DOCTYPE svg PUBLIC "-//W3C//DTD SVG 1.1//EN" "http://www.w3.org/Graphics/SVG/1.1/DTD/svg11.dtd">
<!-- Generated by Microsoft Visio, SVG Export Basic-IPA-Architecture.svg Page-1 -->
<svg xmlns="http://www.w3.org/2000/svg" xmlns:xlink="http://www.w3.org/1999/xlink" xmlns:ev="http://www.w3.org/2001/xml-events"
		width="6.79253in" height="4.86925in" viewBox="0 0 489.062 350.586" xml:space="preserve" color-interpolation-filters="sRGB"
		class="st16">
	<style type="text/css">
	<![CDATA[
		.st1 {visibility:visible}
		.st2 {fill:#5b9bd5;fill-opacity:0.22;filter:url(#filter_2);stroke:none}
		.st3 {fill:#f4b183;stroke:none;stroke-width:1}
		.st4 {fill:#ffffff;font-family:Calibri;font-size:0.833336em}
		.st5 {fill:#90aadb;stroke:none;stroke-width:1}
		.st6 {fill:#feffff;font-family:Calibri;font-size:0.833336em}
		.st7 {fill:#e2efd9;stroke:none;stroke-width:1}
		.st8 {fill:#3f3f3f;font-family:Calibri;font-size:0.833336em}
		.st9 {fill:#70ad47;stroke:none;stroke-width:0.25}
		.st10 {fill:#c55a11;stroke:none;stroke-width:0.25}
		.st11 {font-size:1em}
		.st12 {fill:#a5a5a5;stroke:none;stroke-width:0.25}
		.st13 {stroke:none;stroke-linecap:round;stroke-linejoin:round;stroke-width:1}
		.st14 {fill:#7f7f7f;stroke:none;stroke-width:0.25}
		.st15 {fill:#5b9bd5;stroke:none;stroke-width:0.25}
		.st16 {fill:none;fill-rule:evenodd;font-size:12px;overflow:visible;stroke-linecap:square;stroke-miterlimit:3}
	]]>
	</style>

	<defs id="Filters">
		<filter id="filter_2">
			<feGaussianBlur stdDeviation="2"/>
		</filter>
	</defs>
	<g>
		<title>Page-1</title>
		<g id="shape47-1" transform="translate(107.82,-23.6815)">
			<title>Rectangle.47</title>
			<desc>Dialog</desc>
			<g id="shadow47-2" transform="matrix(1,0,0,1,0.345598,1.97279)" class="st1">
				<rect x="0" y="43.7359" width="189.818" height="306.85" class="st2"/>
			</g>
			<rect x="0" y="43.7359" width="189.818" height="306.85" class="st3"/>
			<text x="160.31" y="343.59" class="st4">Dialog</text>		</g>
		<g id="shape48-7" transform="translate(306.09,-24.7087)">
			<title>Rectangle.48</title>
			<desc>APIs / Data</desc>
			<g id="shadow48-8" transform="matrix(1,0,0,1,0.345598,1.97279)" class="st1">
				<rect x="0" y="43.7359" width="161.626" height="306.85" class="st2"/>
			</g>
			<rect x="0" y="43.7359" width="161.626" height="306.85" class="st5"/>
			<text x="112.78" y="343.59" class="st6">APIs / Data</text>		</g>
		<g id="shape50-13" transform="translate(20.6544,-22.9728)">
			<title>Rectangle.50</title>
			<desc>Client</desc>
			<g id="shadow50-14" transform="matrix(1,0,0,1,0.345598,1.97279)" class="st1">
				<rect x="0" y="43.7359" width="80.0787" height="306.85" class="st2"/>
			</g>
			<rect x="0" y="43.7359" width="80.0787" height="306.85" class="st7"/>
			<text x="52.58" y="343.59" class="st8">Client</text>		</g>
		<g id="shape1-19" transform="translate(29.867,-49.9019)">
			<title>Rectangle</title>
			<desc>IPA Client</desc>
			<g id="shadow1-20" transform="matrix(1,0,0,1,0.345598,1.97279)" class="st1">
				<rect x="0" y="92.2083" width="62.3622" height="258.378" class="st2"/>
			</g>
			<rect x="0" y="92.2083" width="62.3622" height="258.378" class="st9"/>
			<text x="11.56" y="224.4" class="st6">IPA Client</text>		</g>
		<g id="shape2-25" transform="translate(-207.333,299.976) rotate(-90)">
			<title>Rectangle.2</title>
			<desc>IPA Service</desc>
			<g id="shadow2-26" transform="matrix(1,0,0,1,-1.97279,0.345598)" class="st1">
				<rect x="0" y="322.24" width="257.669" height="28.3465" class="st2"/>
			</g>
			<rect x="0" y="322.24" width="257.669" height="28.3465" class="st10"/>
			<text x="106.43" y="339.41" class="st6">IPA Service</text>		</g>
		<g id="shape3-31" transform="translate(146.796,-90.0122)">
			<title>Rectangle.3</title>
			<desc>Dialog Management</desc>
			<g id="shadow3-32" transform="matrix(1,0,0,1,0.345598,1.97279)" class="st1">
				<rect x="0" y="237.2" width="70.8661" height="113.386" class="st2"/>
			</g>
			<rect x="0" y="237.2" width="70.8661" height="113.386" class="st10"/>
			<text x="22.68" y="290.89" class="st6">Dialog <tspan x="8.12" dy="1.2em" class="st11">Management</tspan></text>		</g>
		<g id="shape22-38" transform="translate(395.053,-214.063)">
			<title>Rectangle.22</title>
			<desc>Data Provider 1</desc>
			<g id="shadow22-39" transform="matrix(1,0,0,1,0.345598,1.97279)" class="st1">
				<rect x="0" y="317.704" width="62.3622" height="32.8819" class="st2"/>
			</g>
			<rect x="0" y="317.704" width="62.3622" height="32.8819" class="st12"/>
			<text x="21.64" y="331.15" class="st6">Data <tspan x="10.29" dy="1.2em" class="st11">Provider </tspan>1</text>		</g>
		<g id="shape30-45" transform="translate(-240.995,290.763) rotate(-90)">
			<title>Sheet.30</title>
			<path d="M0 350.59 L0 350.59" class="st13"/>
		</g>
		<g id="shape39-48" transform="translate(395.053,-161.575)">
			<title>Rectangle.39</title>
			<desc>Data Provider n</desc>
			<g id="shadow39-49" transform="matrix(1,0,0,1,0.345598,1.97279)" class="st1">
				<rect x="0" y="317.704" width="62.3622" height="32.8819" class="st2"/>
			</g>
			<rect x="0" y="317.704" width="62.3622" height="32.8819" class="st12"/>
			<text x="21.64" y="331.15" class="st6">Data <tspan x="10.2" dy="1.2em" class="st11">Provider n</tspan></text>		</g>
		<g id="shape41-55" transform="translate(405.354,-199.843)">
			<title>Circle</title>
			<g id="shadow41-56" transform="matrix(1,0,0,1,0.345598,1.97279)" class="st1">
				<path d="M0 346.33 A4.25197 4.25197 0 0 1 8.5 346.33 A4.25197 4.25197 0 1 1 0 346.33 Z" class="st2"/>
			</g>
			<path d="M0 346.33 A4.25197 4.25197 0 0 1 8.5 346.33 A4.25197 4.25197 0 1 1 0 346.33 Z" class="st14"/>
		</g>
		<g id="shape42-60" transform="translate(422.362,-199.843)">
			<title>Circle.42</title>
			<g id="shadow42-61" transform="matrix(1,0,0,1,0.345598,1.97279)" class="st1">
				<path d="M0 346.33 A4.25197 4.25197 0 0 1 8.5 346.33 A4.25197 4.25197 0 1 1 0 346.33 Z" class="st2"/>
			</g>
			<path d="M0 346.33 A4.25197 4.25197 0 0 1 8.5 346.33 A4.25197 4.25197 0 1 1 0 346.33 Z" class="st14"/>
		</g>
		<g id="shape43-65" transform="translate(439.37,-199.843)">
			<title>Circle.43</title>
			<g id="shadow43-66" transform="matrix(1,0,0,1,0.345598,1.97279)" class="st1">
				<path d="M0 346.33 A4.25197 4.25197 0 0 1 8.5 346.33 A4.25197 4.25197 0 1 1 0 346.33 Z" class="st2"/>
			</g>
			<path d="M0 346.33 A4.25197 4.25197 0 0 1 8.5 346.33 A4.25197 4.25197 0 1 1 0 346.33 Z" class="st14"/>
		</g>
		<g id="shape45-70" transform="translate(34.9771,299.563) rotate(-90)">
			<title>Rectangle.45</title>
			<desc>Provider Selection Service</desc>
			<g id="shadow45-71" transform="matrix(1,0,0,1,-1.97279,0.345598)" class="st1">
				<rect x="0" y="279.72" width="195.921" height="70.8661" class="st2"/>
			</g>
			<rect x="0" y="279.72" width="195.921" height="70.8661" class="st15"/>
			<text x="45.32" y="318.15" class="st6">Provider Selection Service</text>		</g>
		<g id="shape59-76" transform="translate(146.796,-214.737)">
			<title>Rectangle.59</title>
			<desc>ASR</desc>
			<g id="shadow59-77" transform="matrix(1,0,0,1,0.345598,1.97279)" class="st1">
				<rect x="0" y="317.704" width="70.8661" height="32.8819" class="st2"/>
			</g>
			<rect x="0" y="317.704" width="70.8661" height="32.8819" class="st10"/>
			<text x="27.53" y="337.15" class="st6">ASR</text>		</g>
		<g id="shape60-82" transform="translate(146.796,-50.6106)">
			<title>Rectangle.60</title>
			<desc>TTS</desc>
			<g id="shadow60-83" transform="matrix(1,0,0,1,0.345598,1.97279)" class="st1">
				<rect x="0" y="317.704" width="70.8661" height="32.8819" class="st2"/>
			</g>
			<rect x="0" y="317.704" width="70.8661" height="32.8819" class="st10"/>
			<text x="28.26" y="337.15" class="st6">TTS</text>		</g>
		<g id="shape65-88" transform="translate(224.749,-214.737)">
			<title>Rectangle.65</title>
			<desc>NLU</desc>
			<g id="shadow65-89" transform="matrix(1,0,0,1,0.345598,1.97279)" class="st1">
				<rect x="0" y="317.704" width="64.385" height="32.8819" class="st2"/>
			</g>
			<rect x="0" y="317.704" width="64.385" height="32.8819" class="st10"/>
			<text x="23.65" y="337.15" class="st6">NLU</text>		</g>
		<g id="shape68-94" transform="translate(148.213,-261.118)">
			<title>Rectangle.68</title>
			<desc>Context</desc>
			<g id="shadow68-95" transform="matrix(1,0,0,1,0.345598,1.97279)" class="st1">
				<rect x="0" y="303.425" width="140.92" height="47.1618" class="st2"/>
			</g>
			<rect x="0" y="303.425" width="140.92" height="47.1618" class="st10"/>
			<text x="54.53" y="330.01" class="st6">Context</text>		</g>
		<g id="shape69-100" transform="translate(224.749,-89.4807)">
			<title>Rectangle.5</title>
			<desc>Dialogs</desc>
			<g id="shadow69-101" transform="matrix(1,0,0,1,0.345598,1.97279)" class="st1">
				<rect x="0" y="237.2" width="64.385" height="113.386" class="st2"/>
			</g>
			<rect x="0" y="237.2" width="64.385" height="113.386" class="st10"/>
			<text x="17.48" y="296.89" class="st6">Dialogs</text>		</g>
		<g id="shape78-106" transform="translate(395.053,-261.118)">
			<title>Rectangle.4</title>
			<desc>Accounts / Authentication</desc>
			<g id="shadow78-107" transform="matrix(1,0,0,1,0.345598,1.97279)" class="st1">
				<rect x="0" y="302.397" width="62.3622" height="48.189" class="st2"/>
			</g>
			<rect x="0" y="302.397" width="62.3622" height="48.189" class="st15"/>
			<text x="9.48" y="317.49" class="st6">Accounts / <tspan x="6.09" dy="1.2em" class="st11">Authenticati</tspan><tspan
						x="25.92" dy="1.2em" class="st11">on</tspan></text>		</g>
		<g id="shape79-114" transform="translate(313.989,-261.118)">
			<title>Rectangle.62</title>
			<desc>Provider Registry</desc>
			<g id="shadow79-115" transform="matrix(1,0,0,1,0.345598,1.97279)" class="st1">
				<rect x="0" y="302.397" width="70.8661" height="48.189" class="st2"/>
			</g>
			<rect x="0" y="302.397" width="70.8661" height="48.189" class="st15"/>
			<text x="18.21" y="323.49" class="st6">Provider <tspan x="19.09" dy="1.2em" class="st11">Registry</tspan></text>		</g>
		<g id="shape85-121" transform="translate(394.016,-103.181)">
			<title>Rectangle.85</title>
			<desc>IPA Provider 1</desc>
			<g id="shadow85-122" transform="matrix(1,0,0,1,0.345598,1.97279)" class="st1">
				<rect x="0" y="317.704" width="62.3622" height="32.8819" class="st2"/>
			</g>
			<rect x="0" y="317.704" width="62.3622" height="32.8819" class="st12"/>
			<text x="24.45" y="331.15" class="st6">IPA<tspan x="10.29" dy="1.2em" class="st11">Provider </tspan>1</text>		</g>
		<g id="shape86-128" transform="translate(394.016,-50.6929)">
			<title>Rectangle.86</title>
			<desc>IPA Provider n</desc>
			<g id="shadow86-129" transform="matrix(1,0,0,1,0.345598,1.97279)" class="st1">
				<rect x="0" y="317.704" width="62.3622" height="32.8819" class="st2"/>
			</g>
			<rect x="0" y="317.704" width="62.3622" height="32.8819" class="st12"/>
			<text x="24.45" y="331.15" class="st6">IPA<tspan x="10.2" dy="1.2em" class="st11">Provider n</tspan></text>		</g>
		<g id="shape87-135" transform="translate(405.354,-89.2913)">
			<title>Circle.87</title>
			<g id="shadow87-136" transform="matrix(1,0,0,1,0.345598,1.97279)" class="st1">
				<path d="M0 346.33 A4.25197 4.25197 0 0 1 8.5 346.33 A4.25197 4.25197 0 1 1 0 346.33 Z" class="st2"/>
			</g>
			<path d="M0 346.33 A4.25197 4.25197 0 0 1 8.5 346.33 A4.25197 4.25197 0 1 1 0 346.33 Z" class="st14"/>
		</g>
		<g id="shape88-140" transform="translate(422.362,-89.2913)">
			<title>Circle.88</title>
			<g id="shadow88-141" transform="matrix(1,0,0,1,0.345598,1.97279)" class="st1">
				<path d="M0 346.33 A4.25197 4.25197 0 0 1 8.5 346.33 A4.25197 4.25197 0 1 1 0 346.33 Z" class="st2"/>
			</g>
			<path d="M0 346.33 A4.25197 4.25197 0 0 1 8.5 346.33 A4.25197 4.25197 0 1 1 0 346.33 Z" class="st14"/>
		</g>
		<g id="shape89-145" transform="translate(439.37,-89.2913)">
			<title>Circle.89</title>
			<g id="shadow89-146" transform="matrix(1,0,0,1,0.345598,1.97279)" class="st1">
				<path d="M0 346.33 A4.25197 4.25197 0 0 1 8.5 346.33 A4.25197 4.25197 0 1 1 0 346.33 Z" class="st2"/>
			</g>
			<path d="M0 346.33 A4.25197 4.25197 0 0 1 8.5 346.33 A4.25197 4.25197 0 1 1 0 346.33 Z" class="st14"/>
		</g>
		<g id="shape90-150" transform="translate(224.749,-50.6106)">
			<title>Rectangle.90</title>
			<desc>NLG</desc>
			<g id="shadow90-151" transform="matrix(1,0,0,1,0.345598,1.97279)" class="st1">
				<rect x="0" y="317.704" width="64.385" height="32.8819" class="st2"/>
			</g>
			<rect x="0" y="317.704" width="64.385" height="32.8819" class="st10"/>
			<text x="23.71" y="337.15" class="st6">NLG</text>		</g>
	</g>
</svg>
