<?xml version="1.0" encoding="UTF-8" standalone="no"?>
<!DOCTYPE svg PUBLIC "-//W3C//DTD SVG 1.1//EN" "http://www.w3.org/Graphics/SVG/1.1/DTD/svg11.dtd">
<!-- Generated by Microsoft Visio, SVG Export Basic-IPA-Architecture.svg Page-1 -->
<svg xmlns="http://www.w3.org/2000/svg" xmlns:xlink="http://www.w3.org/1999/xlink" xmlns:ev="http://www.w3.org/2001/xml-events"
		xmlns:v="http://schemas.microsoft.com/visio/2003/SVGExtensions/" width="6.79253in" height="4.86925in"
		viewBox="0 0 489.062 350.586" xml:space="preserve" color-interpolation-filters="sRGB" class="st16">
	<v:documentProperties v:langID="1033" v:metric="true" v:viewMarkup="false">
		<v:userDefs>
			<v:ud v:nameU="msvSubprocessMaster" v:prompt="" v:val="VT4(Rectangle)"/>
			<v:ud v:nameU="msvNoAutoConnect" v:val="VT0(1):26"/>
		</v:userDefs>
	</v:documentProperties>

	<style type="text/css">
	<![CDATA[
		.st1 {visibility:visible}
		.st2 {fill:#5b9bd5;fill-opacity:0.22;filter:url(#filter_2);stroke:none}
		.st3 {fill:#f4b183;stroke:none;stroke-width:1}
		.st4 {fill:#ffffff;font-family:Calibri;font-size:0.833336em}
		.st5 {fill:#90aadb;stroke:none;stroke-width:1}
		.st6 {fill:#feffff;font-family:Calibri;font-size:0.833336em}
		.st7 {fill:#e2efd9;stroke:none;stroke-width:1}
		.st8 {fill:#3f3f3f;font-family:Calibri;font-size:0.833336em}
		.st9 {fill:#70ad47;stroke:none;stroke-width:0.25}
		.st10 {fill:#c55a11;stroke:none;stroke-width:0.25}
		.st11 {font-size:1em}
		.st12 {fill:#a5a5a5;stroke:none;stroke-width:0.25}
		.st13 {stroke:none;stroke-linecap:round;stroke-linejoin:round;stroke-width:1}
		.st14 {fill:#7f7f7f;stroke:none;stroke-width:0.25}
		.st15 {fill:#5b9bd5;stroke:none;stroke-width:0.25}
		.st16 {fill:none;fill-rule:evenodd;font-size:12px;overflow:visible;stroke-linecap:square;stroke-miterlimit:3}
	]]>
	</style>

	<defs id="Filters">
		<filter id="filter_2">
			<feGaussianBlur stdDeviation="2"/>
		</filter>
	</defs>
	<g v:mID="0" v:index="1" v:groupContext="foregroundPage">
		<v:userDefs>
			<v:ud v:nameU="msvThemeOrder" v:val="VT0(0):26"/>
		</v:userDefs>
		<title>Page-1</title>
		<v:pageProperties v:drawingScale="0.0393701" v:pageScale="0.0393701" v:drawingUnits="24" v:shadowOffsetX="8.50394"
				v:shadowOffsetY="-8.50394"/>
		<v:layer v:name="Annotations" v:index="0"/>
		<v:layer v:name="Connector" v:index="1"/>
		<g id="shape47-1" v:mID="47" v:groupContext="shape" transform="translate(107.82,-23.6815)">
			<title>Rectangle.47</title>
			<desc>Dialog</desc>
			<v:userDefs>
				<v:ud v:nameU="visVersion" v:val="VT0(15):26"/>
			</v:userDefs>
			<v:textBlock v:margins="rect(4,4,4,4)" v:tabSpace="42.5197" v:verticalAlign="2"/>
			<v:textRect cx="94.909" cy="197.161" width="189.82" height="306.85"/>
			<g id="shadow47-2" v:groupContext="shadow" v:shadowOffsetX="0.345598" v:shadowOffsetY="-1.97279" v:shadowType="1"
					transform="matrix(1,0,0,1,0.345598,1.97279)" class="st1">
				<rect x="0" y="43.7359" width="189.818" height="306.85" class="st2"/>
			</g>
			<rect x="0" y="43.7359" width="189.818" height="306.85" class="st3"/>
			<text x="160.31" y="343.59" class="st4" v:langID="1031"><v:paragraph v:horizAlign="2"/><v:tabList/>Dialog</text>		</g>
		<g id="shape48-7" v:mID="48" v:groupContext="shape" transform="translate(306.09,-24.7087)">
			<title>Rectangle.48</title>
			<desc>APIs / Data</desc>
			<v:userDefs>
				<v:ud v:nameU="visVersion" v:val="VT0(15):26"/>
			</v:userDefs>
			<v:textBlock v:margins="rect(4,4,4,4)" v:tabSpace="42.5197" v:verticalAlign="2"/>
			<v:textRect cx="80.8132" cy="197.161" width="161.63" height="306.85"/>
			<g id="shadow48-8" v:groupContext="shadow" v:shadowOffsetX="0.345598" v:shadowOffsetY="-1.97279" v:shadowType="1"
					transform="matrix(1,0,0,1,0.345598,1.97279)" class="st1">
				<rect x="0" y="43.7359" width="161.626" height="306.85" class="st2"/>
			</g>
			<rect x="0" y="43.7359" width="161.626" height="306.85" class="st5"/>
			<text x="112.78" y="343.59" class="st6" v:langID="1031"><v:paragraph v:horizAlign="2"/><v:tabList/>APIs / Data</text>		</g>
		<g id="shape50-13" v:mID="50" v:groupContext="shape" transform="translate(20.6544,-22.9728)">
			<title>Rectangle.50</title>
			<desc>Client</desc>
			<v:userDefs>
				<v:ud v:nameU="visVersion" v:val="VT0(15):26"/>
			</v:userDefs>
			<v:textBlock v:margins="rect(4,4,4,4)" v:tabSpace="42.5197" v:verticalAlign="2"/>
			<v:textRect cx="40.0394" cy="197.161" width="80.08" height="306.85"/>
			<g id="shadow50-14" v:groupContext="shadow" v:shadowOffsetX="0.345598" v:shadowOffsetY="-1.97279" v:shadowType="1"
					transform="matrix(1,0,0,1,0.345598,1.97279)" class="st1">
				<rect x="0" y="43.7359" width="80.0787" height="306.85" class="st2"/>
			</g>
			<rect x="0" y="43.7359" width="80.0787" height="306.85" class="st7"/>
			<text x="52.58" y="343.59" class="st8" v:langID="1031"><v:paragraph v:horizAlign="2"/><v:tabList/>Client</text>		</g>
		<g id="shape1-19" v:mID="1" v:groupContext="shape" transform="translate(29.867,-49.9019)">
			<title>Rectangle</title>
			<desc>IPA Client</desc>
			<v:userDefs>
				<v:ud v:nameU="visVersion" v:val="VT0(15):26"/>
			</v:userDefs>
			<v:textBlock v:margins="rect(4,4,4,4)" v:tabSpace="42.5197"/>
			<v:textRect cx="31.1811" cy="221.397" width="62.37" height="258.378"/>
			<g id="shadow1-20" v:groupContext="shadow" v:shadowOffsetX="0.345598" v:shadowOffsetY="-1.97279" v:shadowType="1"
					transform="matrix(1,0,0,1,0.345598,1.97279)" class="st1">
				<rect x="0" y="92.2083" width="62.3622" height="258.378" class="st2"/>
			</g>
			<rect x="0" y="92.2083" width="62.3622" height="258.378" class="st9"/>
			<text x="11.56" y="224.4" class="st6" v:langID="1031"><v:paragraph v:horizAlign="1"/><v:tabList/>IPA Client</text>		</g>
		<g id="shape2-25" v:mID="2" v:groupContext="shape" transform="translate(-207.333,299.976) rotate(-90)">
			<title>Rectangle.2</title>
			<desc>IPA Service</desc>
			<v:userDefs>
				<v:ud v:nameU="visVersion" v:val="VT0(15):26"/>
			</v:userDefs>
			<v:textBlock v:margins="rect(4,4,4,4)" v:tabSpace="42.5197"/>
			<v:textRect cx="128.835" cy="336.413" width="257.67" height="28.3465"/>
			<g id="shadow2-26" v:groupContext="shadow" v:shadowOffsetX="0.345598" v:shadowOffsetY="-1.97279" v:shadowType="1"
					transform="matrix(1,0,0,1,-1.97279,0.345598)" class="st1">
				<rect x="0" y="322.24" width="257.669" height="28.3465" class="st2"/>
			</g>
			<rect x="0" y="322.24" width="257.669" height="28.3465" class="st10"/>
			<text x="106.43" y="339.41" class="st6" v:langID="1031"><v:paragraph v:horizAlign="1"/><v:tabList/>IPA Service</text>		</g>
		<g id="shape3-31" v:mID="3" v:groupContext="shape" transform="translate(146.796,-90.0122)">
			<title>Rectangle.3</title>
			<desc>Dialog Management</desc>
			<v:userDefs>
				<v:ud v:nameU="visVersion" v:val="VT0(15):26"/>
			</v:userDefs>
			<v:textBlock v:margins="rect(4,4,4,4)" v:tabSpace="42.5197"/>
			<v:textRect cx="35.4331" cy="293.893" width="70.87" height="113.386"/>
			<g id="shadow3-32" v:groupContext="shadow" v:shadowOffsetX="0.345598" v:shadowOffsetY="-1.97279" v:shadowType="1"
					transform="matrix(1,0,0,1,0.345598,1.97279)" class="st1">
				<rect x="0" y="237.2" width="70.8661" height="113.386" class="st2"/>
			</g>
			<rect x="0" y="237.2" width="70.8661" height="113.386" class="st10"/>
			<text x="22.68" y="290.89" class="st6" v:langID="1031"><v:paragraph v:horizAlign="1"/><v:tabList/>Dialog <tspan
						x="8.12" dy="1.2em" class="st11">Management</tspan></text>		</g>
		<g id="shape22-38" v:mID="22" v:groupContext="shape" transform="translate(391.993,-158.74)">
			<title>Rectangle.22</title>
			<desc>Data Provider 1</desc>
			<v:userDefs>
				<v:ud v:nameU="visVersion" v:val="VT0(15):26"/>
			</v:userDefs>
			<v:textBlock v:margins="rect(4,4,4,4)" v:tabSpace="42.5197"/>
			<v:textRect cx="31.1811" cy="330.035" width="62.37" height="41.1024"/>
			<g id="shadow22-39" v:groupContext="shadow" v:shadowOffsetX="0.345598" v:shadowOffsetY="-1.97279" v:shadowType="1"
					transform="matrix(1,0,0,1,0.345598,1.97279)" class="st1">
				<rect x="0" y="309.484" width="62.3622" height="41.1024" class="st2"/>
			</g>
			<rect x="0" y="309.484" width="62.3622" height="41.1024" class="st12"/>
			<text x="21.64" y="327.04" class="st6" v:langID="1031"><v:paragraph v:horizAlign="1"/><v:tabList/>Data <tspan x="10.29"
						dy="1.2em" class="st11">Provider </tspan>1</text>		</g>
		<g id="shape30-45" v:mID="30" v:groupContext="shape" transform="translate(-240.995,290.763) rotate(-90)">
			<title>Sheet.30</title>
			<path d="M0 350.59 L0 350.59" class="st13"/>
		</g>
		<g id="shape39-48" v:mID="39" v:groupContext="shape" transform="translate(391.993,-86.4567)">
			<title>Rectangle.39</title>
			<desc>Data Provider 2</desc>
			<v:userDefs>
				<v:ud v:nameU="visVersion" v:val="VT0(15):26"/>
			</v:userDefs>
			<v:textBlock v:margins="rect(4,4,4,4)" v:tabSpace="42.5197"/>
			<v:textRect cx="31.1811" cy="330.035" width="62.37" height="41.1024"/>
			<g id="shadow39-49" v:groupContext="shadow" v:shadowOffsetX="0.345598" v:shadowOffsetY="-1.97279" v:shadowType="1"
					transform="matrix(1,0,0,1,0.345598,1.97279)" class="st1">
				<rect x="0" y="309.484" width="62.3622" height="41.1024" class="st2"/>
			</g>
			<rect x="0" y="309.484" width="62.3622" height="41.1024" class="st12"/>
			<text x="21.64" y="327.04" class="st6" v:langID="1031"><v:paragraph v:horizAlign="1"/><v:tabList/>Data <tspan x="10.29"
						dy="1.2em" class="st11">Provider </tspan>2</text>		</g>
		<g id="shape41-55" v:mID="41" v:groupContext="shape" transform="translate(399.685,-140.315)">
			<title>Circle</title>
			<v:userDefs>
				<v:ud v:nameU="visVersion" v:val="VT0(15):26"/>
			</v:userDefs>
			<g id="shadow41-56" v:groupContext="shadow" v:shadowOffsetX="0.345598" v:shadowOffsetY="-1.97279" v:shadowType="1"
					transform="matrix(1,0,0,1,0.345598,1.97279)" class="st1">
				<path d="M0 346.33 A4.25197 4.25197 0 0 1 8.5 346.33 A4.25197 4.25197 0 1 1 0 346.33 Z" class="st2"/>
			</g>
			<path d="M0 346.33 A4.25197 4.25197 0 0 1 8.5 346.33 A4.25197 4.25197 0 1 1 0 346.33 Z" class="st14"/>
		</g>
		<g id="shape42-60" v:mID="42" v:groupContext="shape" transform="translate(416.693,-140.315)">
			<title>Circle.42</title>
			<v:userDefs>
				<v:ud v:nameU="visVersion" v:val="VT0(15):26"/>
			</v:userDefs>
			<g id="shadow42-61" v:groupContext="shadow" v:shadowOffsetX="0.345598" v:shadowOffsetY="-1.97279" v:shadowType="1"
					transform="matrix(1,0,0,1,0.345598,1.97279)" class="st1">
				<path d="M0 346.33 A4.25197 4.25197 0 0 1 8.5 346.33 A4.25197 4.25197 0 1 1 0 346.33 Z" class="st2"/>
			</g>
			<path d="M0 346.33 A4.25197 4.25197 0 0 1 8.5 346.33 A4.25197 4.25197 0 1 1 0 346.33 Z" class="st14"/>
		</g>
		<g id="shape43-65" v:mID="43" v:groupContext="shape" transform="translate(433.701,-140.315)">
			<title>Circle.43</title>
			<v:userDefs>
				<v:ud v:nameU="visVersion" v:val="VT0(15):26"/>
			</v:userDefs>
			<g id="shadow43-66" v:groupContext="shadow" v:shadowOffsetX="0.345598" v:shadowOffsetY="-1.97279" v:shadowType="1"
					transform="matrix(1,0,0,1,0.345598,1.97279)" class="st1">
				<path d="M0 346.33 A4.25197 4.25197 0 0 1 8.5 346.33 A4.25197 4.25197 0 1 1 0 346.33 Z" class="st2"/>
			</g>
			<path d="M0 346.33 A4.25197 4.25197 0 0 1 8.5 346.33 A4.25197 4.25197 0 1 1 0 346.33 Z" class="st14"/>
		</g>
		<g id="shape45-70" v:mID="45" v:groupContext="shape" transform="translate(15.8433,262.712) rotate(-90)">
			<title>Rectangle.45</title>
			<desc>Provider Selection Service</desc>
			<v:userDefs>
				<v:ud v:nameU="visVersion" v:val="VT0(15):26"/>
			</v:userDefs>
			<v:textBlock v:margins="rect(4,4,4,4)" v:tabSpace="42.5197"/>
			<v:textRect cx="79.5354" cy="324.72" width="159.08" height="51.7323"/>
			<g id="shadow45-71" v:groupContext="shadow" v:shadowOffsetX="0.345598" v:shadowOffsetY="-1.97279" v:shadowType="1"
					transform="matrix(1,0,0,1,-1.97279,0.345598)" class="st1">
				<rect x="0" y="298.854" width="159.071" height="51.7323" class="st2"/>
			</g>
			<rect x="0" y="298.854" width="159.071" height="51.7323" class="st15"/>
			<text x="26.89" y="327.72" class="st6" v:langID="1031"><v:paragraph v:horizAlign="1"/><v:tabList/>Provider Selection Service</text>		</g>
		<g id="shape59-76" v:mID="59" v:groupContext="shape" transform="translate(146.796,-214.737)">
			<title>Rectangle.59</title>
			<desc>ASR</desc>
			<v:userDefs>
				<v:ud v:nameU="visVersion" v:val="VT0(15):26"/>
			</v:userDefs>
			<v:textBlock v:margins="rect(4,4,4,4)" v:tabSpace="42.5197"/>
			<v:textRect cx="35.4331" cy="334.145" width="70.87" height="32.8819"/>
			<g id="shadow59-77" v:groupContext="shadow" v:shadowOffsetX="0.345598" v:shadowOffsetY="-1.97279" v:shadowType="1"
					transform="matrix(1,0,0,1,0.345598,1.97279)" class="st1">
				<rect x="0" y="317.704" width="70.8661" height="32.8819" class="st2"/>
			</g>
			<rect x="0" y="317.704" width="70.8661" height="32.8819" class="st10"/>
			<text x="27.53" y="337.15" class="st6" v:langID="1031"><v:paragraph v:horizAlign="1"/><v:tabList/>ASR</text>		</g>
		<g id="shape60-82" v:mID="60" v:groupContext="shape" transform="translate(146.796,-50.6106)">
			<title>Rectangle.60</title>
			<desc>NLG</desc>
			<v:userDefs>
				<v:ud v:nameU="visVersion" v:val="VT0(15):26"/>
			</v:userDefs>
			<v:textBlock v:margins="rect(4,4,4,4)" v:tabSpace="42.5197"/>
			<v:textRect cx="35.4331" cy="334.145" width="70.87" height="32.8819"/>
			<g id="shadow60-83" v:groupContext="shadow" v:shadowOffsetX="0.345598" v:shadowOffsetY="-1.97279" v:shadowType="1"
					transform="matrix(1,0,0,1,0.345598,1.97279)" class="st1">
				<rect x="0" y="317.704" width="70.8661" height="32.8819" class="st2"/>
			</g>
			<rect x="0" y="317.704" width="70.8661" height="32.8819" class="st10"/>
			<text x="26.95" y="337.15" class="st6" v:langID="1031"><v:paragraph v:horizAlign="1"/><v:tabList/>NLG</text>		</g>
		<g id="shape65-88" v:mID="65" v:groupContext="shape" transform="translate(224.749,-214.737)">
			<title>Rectangle.65</title>
			<desc>NLU</desc>
			<v:userDefs>
				<v:ud v:nameU="visVersion" v:val="VT0(15):26"/>
			</v:userDefs>
			<v:textBlock v:margins="rect(4,4,4,4)" v:tabSpace="42.5197"/>
			<v:textRect cx="32.1925" cy="334.145" width="64.39" height="32.8819"/>
			<g id="shadow65-89" v:groupContext="shadow" v:shadowOffsetX="0.345598" v:shadowOffsetY="-1.97279" v:shadowType="1"
					transform="matrix(1,0,0,1,0.345598,1.97279)" class="st1">
				<rect x="0" y="317.704" width="64.385" height="32.8819" class="st2"/>
			</g>
			<rect x="0" y="317.704" width="64.385" height="32.8819" class="st10"/>
			<text x="23.65" y="337.15" class="st6" v:langID="1031"><v:paragraph v:horizAlign="1"/><v:tabList/>NLU</text>		</g>
		<g id="shape68-94" v:mID="68" v:groupContext="shape" transform="translate(148.213,-254.818)">
			<title>Rectangle.68</title>
			<desc>Context</desc>
			<v:userDefs>
				<v:ud v:nameU="visVersion" v:val="VT0(15):26"/>
			</v:userDefs>
			<v:textBlock v:margins="rect(4,4,4,4)" v:tabSpace="42.5197"/>
			<v:textRect cx="70.4602" cy="323.856" width="140.93" height="53.4614"/>
			<g id="shadow68-95" v:groupContext="shadow" v:shadowOffsetX="0.345598" v:shadowOffsetY="-1.97279" v:shadowType="1"
					transform="matrix(1,0,0,1,0.345598,1.97279)" class="st1">
				<rect x="0" y="297.125" width="140.92" height="53.4614" class="st2"/>
			</g>
			<rect x="0" y="297.125" width="140.92" height="53.4614" class="st10"/>
			<text x="54.53" y="326.86" class="st6" v:langID="1031"><v:paragraph v:horizAlign="1"/><v:tabList/>Context</text>		</g>
		<g id="shape69-100" v:mID="69" v:groupContext="shape" transform="translate(224.749,-89.4807)">
			<title>Rectangle.5</title>
			<desc>Dialogs</desc>
			<v:userDefs>
				<v:ud v:nameU="visVersion" v:val="VT0(15):26"/>
			</v:userDefs>
			<v:textBlock v:margins="rect(4,4,4,4)" v:tabSpace="42.5197"/>
			<v:textRect cx="32.1925" cy="293.893" width="64.39" height="113.386"/>
			<g id="shadow69-101" v:groupContext="shadow" v:shadowOffsetX="0.345598" v:shadowOffsetY="-1.97279" v:shadowType="1"
					transform="matrix(1,0,0,1,0.345598,1.97279)" class="st1">
				<rect x="0" y="237.2" width="64.385" height="113.386" class="st2"/>
			</g>
			<rect x="0" y="237.2" width="64.385" height="113.386" class="st10"/>
			<text x="17.48" y="296.89" class="st6" v:langID="1031"><v:paragraph v:horizAlign="1"/><v:tabList/>Dialogs</text>		</g>
		<g id="shape78-106" v:mID="78" v:groupContext="shape" transform="translate(389.107,-261.118)">
			<title>Rectangle.4</title>
			<desc>Accounts / Authentication</desc>
			<v:userDefs>
				<v:ud v:nameU="visVersion" v:val="VT0(15):26"/>
			</v:userDefs>
			<v:textBlock v:margins="rect(4,4,4,4)" v:tabSpace="42.5197"/>
			<v:textRect cx="31.1811" cy="326.492" width="62.37" height="48.189"/>
			<g id="shadow78-107" v:groupContext="shadow" v:shadowOffsetX="0.345598" v:shadowOffsetY="-1.97279" v:shadowType="1"
					transform="matrix(1,0,0,1,0.345598,1.97279)" class="st1">
				<rect x="0" y="302.397" width="62.3622" height="48.189" class="st2"/>
			</g>
			<rect x="0" y="302.397" width="62.3622" height="48.189" class="st15"/>
			<text x="9.48" y="317.49" class="st6" v:langID="1031"><v:paragraph v:horizAlign="1"/><v:tabList/>Accounts /<v:newlineChar/><tspan
						x="6.09" dy="1.2em" class="st11">Authenticati</tspan><tspan x="25.92" dy="1.2em" class="st11">on</tspan></text>		</g>
		<g id="shape79-114" v:mID="79" v:groupContext="shape" transform="translate(313.989,-261.118)">
			<title>Rectangle.62</title>
			<desc>Provider Registry</desc>
			<v:userDefs>
				<v:ud v:nameU="visVersion" v:val="VT0(15):26"/>
			</v:userDefs>
			<v:textBlock v:margins="rect(4,4,4,4)" v:tabSpace="42.5197"/>
			<v:textRect cx="35.4331" cy="326.492" width="70.87" height="48.189"/>
			<g id="shadow79-115" v:groupContext="shadow" v:shadowOffsetX="0.345598" v:shadowOffsetY="-1.97279" v:shadowType="1"
					transform="matrix(1,0,0,1,0.345598,1.97279)" class="st1">
				<rect x="0" y="302.397" width="70.8661" height="48.189" class="st2"/>
			</g>
			<rect x="0" y="302.397" width="70.8661" height="48.189" class="st15"/>
			<text x="18.21" y="323.49" class="st6" v:langID="1031"><v:paragraph v:horizAlign="1"/><v:tabList/>Provider<v:newlineChar/><tspan
						x="19.09" dy="1.2em" class="st11">Registry</tspan></text>		</g>
	</g>
</svg>
