<?xml version="1.0" encoding="UTF-8" standalone="no"?>
<!DOCTYPE svg PUBLIC "-//W3C//DTD SVG 1.1//EN" "http://www.w3.org/Graphics/SVG/1.1/DTD/svg11.dtd">
<!-- Generated by Microsoft Visio, SVG Export client-layer.svg Page-1 -->
<svg xmlns="http://www.w3.org/2000/svg" xmlns:xlink="http://www.w3.org/1999/xlink" xmlns:ev="http://www.w3.org/2001/xml-events"
		width="1.69554in" height="4.84514in" viewBox="0 0 122.079 348.85" xml:space="preserve" color-interpolation-filters="sRGB"
		class="st9">
	<style type="text/css">
	<![CDATA[
		.st1 {visibility:visible}
		.st2 {fill:#5b9bd5;fill-opacity:0.22;filter:url(#filter_2);stroke:none}
		.st3 {fill:#e2efd9;stroke:none;stroke-width:1}
		.st4 {fill:#3f3f3f;font-family:Calibri;font-size:0.833336em}
		.st5 {fill:#70ad47;stroke:none;stroke-width:0.25}
		.st6 {fill:#feffff;font-family:Calibri;font-size:0.833336em}
		.st7 {fill:#a5a5a5;stroke:none;stroke-width:0.25}
		.st8 {font-size:1em}
		.st9 {fill:none;fill-rule:evenodd;font-size:12px;overflow:visible;stroke-linecap:square;stroke-miterlimit:3}
	]]>
	</style>

	<defs id="Filters">
		<filter id="filter_2">
			<feGaussianBlur stdDeviation="2"/>
		</filter>
	</defs>
	<g>
		<title>Page-1</title>
		<g id="shape50-1" transform="translate(20.6544,-22.9728)">
			<title>Rectangle.50</title>
			<desc>Client</desc>
			<g id="shadow50-2" transform="matrix(1,0,0,1,0.345598,1.97279)" class="st1">
				<rect x="0" y="42" width="80.0787" height="306.85" class="st2"/>
			</g>
			<rect x="0" y="42" width="80.0787" height="306.85" class="st3"/>
			<text x="52.58" y="341.85" class="st4">Client</text>		</g>
		<g id="shape1-7" transform="translate(29.867,-92.126)">
			<title>Rectangle</title>
			<desc>IPA Client</desc>
			<g id="shadow1-8" transform="matrix(1,0,0,1,0.345598,1.97279)" class="st1">
				<rect x="0" y="214.205" width="62.3622" height="134.646" class="st2"/>
			</g>
			<rect x="0" y="214.205" width="62.3622" height="134.646" class="st5"/>
			<text x="11.56" y="284.53" class="st6">IPA Client</text>		</g>
		<g id="shape51-13" transform="translate(29.7638,-236.359)">
			<title>Rectangle.22</title>
			<desc>Local Data Providers</desc>
			<g id="shadow51-14" transform="matrix(1,0,0,1,0.345598,1.97279)" class="st1">
				<rect x="0" y="315.969" width="62.3622" height="32.8819" class="st2"/>
			</g>
			<rect x="0" y="315.969" width="62.3622" height="32.8819" class="st7"/>
			<text x="10.11" y="329.41" class="st6">Local Data <tspan x="12" dy="1.2em" class="st8">Providers</tspan></text>		</g>
		<g id="shape52-20" transform="translate(29.7638,-275.348)">
			<title>Rectangle.91</title>
			<desc>Local Services</desc>
			<g id="shadow52-21" transform="matrix(1,0,0,1,0.345598,1.97279)" class="st1">
				<rect x="0" y="315.969" width="62.3622" height="32.8819" class="st2"/>
			</g>
			<rect x="0" y="315.969" width="62.3622" height="32.8819" class="st7"/>
			<text x="20.79" y="329.41" class="st6">Local <tspan x="14.69" dy="1.2em" class="st8">Services</tspan></text>		</g>
		<g id="shape53-27" transform="translate(29.7638,-69.8618)">
			<title>Rectangle.92</title>
			<desc>Speaker</desc>
			<g id="shadow53-28" transform="matrix(1,0,0,1,0.345598,1.97279)" class="st1">
				<rect x="0" y="332.523" width="62.3622" height="16.3273" class="st2"/>
			</g>
			<rect x="0" y="332.523" width="62.3622" height="16.3273" class="st5"/>
			<text x="14.87" y="343.69" class="st6">Speaker</text>		</g>
		<g id="shape54-33" transform="translate(29.7638,-49.6063)">
			<title>Rectangle.93</title>
			<desc>Microphone</desc>
			<g id="shadow54-34" transform="matrix(1,0,0,1,0.345598,1.97279)" class="st1">
				<rect x="0" y="332.523" width="62.3622" height="16.3273" class="st2"/>
			</g>
			<rect x="0" y="332.523" width="62.3622" height="16.3273" class="st5"/>
			<text x="6.26" y="343.69" class="st6">Microphone</text>		</g>
	</g>
</svg>
