<?xml version="1.0" encoding="UTF-8" standalone="no"?>
<!DOCTYPE svg PUBLIC "-//W3C//DTD SVG 1.1//EN" "http://www.w3.org/Graphics/SVG/1.1/DTD/svg11.dtd">
<!-- Generated by Microsoft Visio, SVG Export dialogs-component.svg Page-1 -->
<svg xmlns="http://www.w3.org/2000/svg" xmlns:xlink="http://www.w3.org/1999/xlink" xmlns:ev="http://www.w3.org/2001/xml-events"
		width="2.66851in" height="3.49886in" viewBox="0 0 192.133 251.918" xml:space="preserve" color-interpolation-filters="sRGB"
		class="st7">
	<style type="text/css">
	<![CDATA[
		.st1 {visibility:visible}
		.st2 {fill:#5b9bd5;fill-opacity:0.22;filter:url(#filter_2);stroke:none}
		.st3 {fill:#c55a11;stroke:none;stroke-width:0.25}
		.st4 {fill:#feffff;font-family:Calibri;font-size:0.833336em}
		.st5 {fill:#833c0b;stroke:none;stroke-width:0.25}
		.st6 {font-size:1em}
		.st7 {fill:none;fill-rule:evenodd;font-size:12px;overflow:visible;stroke-linecap:square;stroke-miterlimit:3}
	]]>
	</style>

	<defs id="Filters">
		<filter id="filter_2">
			<feGaussianBlur stdDeviation="2"/>
		</filter>
	</defs>
	<g>
		<title>Page-1</title>
		<g id="shape1-1" transform="translate(20.6544,-22.9728)">
			<title>Rectangle.71</title>
			<desc>Dialogs</desc>
			<g id="shadow1-2" transform="matrix(1,0,0,1,0.345598,1.97279)" class="st1">
				<rect x="0" y="42" width="150.133" height="209.918" class="st2"/>
			</g>
			<rect x="0" y="42" width="150.133" height="209.918" class="st3"/>
			<text x="116.71" y="244.92" class="st4">Dialogs</text>		</g>
		<g id="shape2-7" transform="translate(29.7992,-154.283)">
			<title>Rectangle.2</title>
			<desc>Dialog 1</desc>
			<g id="shadow2-8" transform="matrix(1,0,0,1,0.345598,1.97279)" class="st1">
				<rect x="0" y="231.366" width="62.3622" height="20.5512" class="st2"/>
			</g>
			<rect x="0" y="231.366" width="62.3622" height="20.5512" class="st5"/>
			<text x="14.76" y="244.64" class="st4">Dialog 1</text>		</g>
		<g id="shape3-13" transform="translate(94.9961,-154.283)">
			<title>Rectangle.3</title>
			<desc>Intent Set 1</desc>
			<g id="shadow3-14" transform="matrix(1,0,0,1,0.345598,1.97279)" class="st1">
				<rect x="0" y="231.366" width="62.3622" height="20.5512" class="st2"/>
			</g>
			<rect x="0" y="231.366" width="62.3622" height="20.5512" class="st5"/>
			<text x="7.58" y="244.64" class="st4">Intent Set 1</text>		</g>
		<g id="shape4-19" transform="translate(28.6654,-181.227)">
			<title>Rectangle.16</title>
			<desc>Core Dialog</desc>
			<g id="shadow4-20" transform="matrix(1,0,0,1,0.345598,1.97279)" class="st1">
				<rect x="0" y="210.815" width="62.3622" height="41.1024" class="st2"/>
			</g>
			<rect x="0" y="210.815" width="62.3622" height="41.1024" class="st5"/>
			<text x="7.76" y="234.37" class="st4">Core Dialog</text>		</g>
		<g id="shape5-25" transform="translate(93.8622,-181.227)">
			<title>Rectangle.19</title>
			<desc>Core Intent Set</desc>
			<g id="shadow5-26" transform="matrix(1,0,0,1,0.345598,1.97279)" class="st1">
				<rect x="0" y="210.815" width="62.3622" height="41.1024" class="st2"/>
			</g>
			<rect x="0" y="210.815" width="62.3622" height="41.1024" class="st5"/>
			<text x="8.17" y="228.37" class="st4">Core Intent <tspan x="24.72" dy="1.2em" class="st6">Set</tspan></text>		</g>
		<g id="shape6-32" transform="translate(28.6654,-68.0437)">
			<title>Rectangle.20</title>
			<desc>Dialog Registry</desc>
			<g id="shadow6-33" transform="matrix(1,0,0,1,0.345598,1.97279)" class="st1">
				<rect x="0" y="219.036" width="129.685" height="32.8819" class="st2"/>
			</g>
			<rect x="0" y="219.036" width="129.685" height="32.8819" class="st5"/>
			<text x="34.62" y="238.48" class="st4">Dialog Registry</text>		</g>
		<g id="shape7-38" transform="translate(29.7992,-107.866)">
			<title>Rectangle.51</title>
			<desc>Dialog n</desc>
			<g id="shadow7-39" transform="matrix(1,0,0,1,0.345598,1.97279)" class="st1">
				<rect x="0" y="231.366" width="62.3622" height="20.5512" class="st2"/>
			</g>
			<rect x="0" y="231.366" width="62.3622" height="20.5512" class="st5"/>
			<text x="14.67" y="244.64" class="st4">Dialog n</text>		</g>
		<g id="shape8-44" transform="translate(94.9961,-107.866)">
			<title>Rectangle.52</title>
			<desc>Intent Set n</desc>
			<g id="shadow8-45" transform="matrix(1,0,0,1,0.345598,1.97279)" class="st1">
				<rect x="0" y="231.366" width="62.3622" height="20.5512" class="st2"/>
			</g>
			<rect x="0" y="231.366" width="62.3622" height="20.5512" class="st5"/>
			<text x="7.48" y="244.64" class="st4">Intent Set n</text>		</g>
		<g id="shape9-50" transform="translate(72.6024,-136.212)">
			<title>Circle.53</title>
			<g id="shadow9-51" transform="matrix(1,0,0,1,0.345598,1.97279)" class="st1">
				<path d="M0 247.67 A4.25197 4.25197 0 0 1 8.5 247.67 A4.25197 4.25197 0 1 1 0 247.67 Z" class="st2"/>
			</g>
			<path d="M0 247.67 A4.25197 4.25197 0 0 1 8.5 247.67 A4.25197 4.25197 0 1 1 0 247.67 Z" class="st5"/>
		</g>
		<g id="shape10-55" transform="translate(89.6102,-136.212)">
			<title>Circle.54</title>
			<g id="shadow10-56" transform="matrix(1,0,0,1,0.345598,1.97279)" class="st1">
				<path d="M0 247.67 A4.25197 4.25197 0 0 1 8.5 247.67 A4.25197 4.25197 0 1 1 0 247.67 Z" class="st2"/>
			</g>
			<path d="M0 247.67 A4.25197 4.25197 0 0 1 8.5 247.67 A4.25197 4.25197 0 1 1 0 247.67 Z" class="st5"/>
		</g>
		<g id="shape11-60" transform="translate(106.618,-136.212)">
			<title>Circle.55</title>
			<g id="shadow11-61" transform="matrix(1,0,0,1,0.345598,1.97279)" class="st1">
				<path d="M0 247.67 A4.25197 4.25197 0 0 1 8.5 247.67 A4.25197 4.25197 0 1 1 0 247.67 Z" class="st2"/>
			</g>
			<path d="M0 247.67 A4.25197 4.25197 0 0 1 8.5 247.67 A4.25197 4.25197 0 1 1 0 247.67 Z" class="st5"/>
		</g>
	</g>
</svg>
