<?xml version="1.0" encoding="UTF-8" standalone="no"?>
<!DOCTYPE svg PUBLIC "-//W3C//DTD SVG 1.1//EN" "http://www.w3.org/Graphics/SVG/1.1/DTD/svg11.dtd">
<!-- Generated by Microsoft Visio, SVG Export IPA-Architecture-1-1.svg Page-1 -->
<svg xmlns="http://www.w3.org/2000/svg" xmlns:xlink="http://www.w3.org/1999/xlink" xmlns:ev="http://www.w3.org/2001/xml-events"
		width="10.7295in" height="5.33677in" viewBox="0 0 772.527 384.248" xml:space="preserve" color-interpolation-filters="sRGB"
		class="st19">
	<style type="text/css">
	<![CDATA[
		.st1 {visibility:visible}
		.st2 {fill:#5b9bd5;fill-opacity:0.22;filter:url(#filter_2);stroke:none}
		.st3 {fill:#f4b183;stroke:none;stroke-width:1}
		.st4 {fill:#ffffff;font-family:Calibri;font-size:0.833336em}
		.st5 {fill:#c55a11;stroke:none;stroke-width:0.25}
		.st6 {fill:#feffff;font-family:Calibri;font-size:0.833336em}
		.st7 {fill:#90aadb;stroke:none;stroke-width:1}
		.st8 {fill:#e2efd9;stroke:none;stroke-width:1}
		.st9 {fill:#3f3f3f;font-family:Calibri;font-size:0.833336em}
		.st10 {fill:#70ad47;stroke:none;stroke-width:0.25}
		.st11 {fill:#5b9bd5;stroke:none;stroke-width:0.25}
		.st12 {font-size:1em}
		.st13 {fill:#833c0b;stroke:none;stroke-width:0.25}
		.st14 {stroke:none;stroke-linecap:round;stroke-linejoin:round;stroke-width:1}
		.st15 {fill:#d8d8d8;stroke:none;stroke-width:1}
		.st16 {fill:#000000;font-family:Calibri;font-size:0.833336em}
		.st17 {fill:#a5a5a5;stroke:none;stroke-width:0.25}
		.st18 {fill:#7f7f7f;stroke:none;stroke-width:0.25}
		.st19 {fill:none;fill-rule:evenodd;font-size:12px;overflow:visible;stroke-linecap:square;stroke-miterlimit:3}
	]]>
	</style>

	<defs id="Filters">
		<filter id="filter_2">
			<feGaussianBlur stdDeviation="2"/>
		</filter>
	</defs>
	<g>
		<title>Page-1</title>
		<g id="shape47-1" transform="translate(107.82,-23.6815)">
			<title>Rectangle.47</title>
			<desc>Dialog</desc>
			<g id="shadow47-2" transform="matrix(1,0,0,1,0.345598,1.97279)" class="st1">
				<rect x="0" y="44.5154" width="311.708" height="339.732" class="st2"/>
			</g>
			<rect x="0" y="44.5154" width="311.708" height="339.732" class="st3"/>
			<text x="282.19" y="377.25" class="st4">Dialog</text>		</g>
		<g id="shape71-7" transform="translate(261.28,-40.5354)">
			<title>Rectangle.71</title>
			<desc>Dialogs</desc>
			<g id="shadow71-8" transform="matrix(1,0,0,1,0.345598,1.97279)" class="st1">
				<rect x="0" y="174.33" width="150.133" height="209.918" class="st2"/>
			</g>
			<rect x="0" y="174.33" width="150.133" height="209.918" class="st5"/>
			<text x="116.71" y="377.25" class="st6">Dialogs</text>		</g>
		<g id="shape48-13" transform="translate(425.197,-25.4882)">
			<title>Rectangle.48</title>
			<desc>APIs / Data</desc>
			<g id="shadow48-14" transform="matrix(1,0,0,1,0.345598,1.97279)" class="st1">
				<rect x="0" y="44.5154" width="325.984" height="339.732" class="st2"/>
			</g>
			<rect x="0" y="44.5154" width="325.984" height="339.732" class="st7"/>
			<text x="277.14" y="377.25" class="st6">APIs / Data</text>		</g>
		<g id="shape50-19" transform="translate(20.6544,-22.9728)">
			<title>Rectangle.50</title>
			<desc>Client</desc>
			<g id="shadow50-20" transform="matrix(1,0,0,1,0.345598,1.97279)" class="st1">
				<rect x="0" y="44.5154" width="80.0787" height="339.732" class="st2"/>
			</g>
			<rect x="0" y="44.5154" width="80.0787" height="339.732" class="st8"/>
			<text x="52.58" y="377.25" class="st9">Client</text>		</g>
		<g id="shape1-25" transform="translate(29.867,-40.5354)">
			<title>Rectangle</title>
			<desc>IPA Client</desc>
			<g id="shadow1-26" transform="matrix(1,0,0,1,0.345598,1.97279)" class="st1">
				<rect x="0" y="88.7237" width="62.3622" height="295.524" class="st2"/>
			</g>
			<rect x="0" y="88.7237" width="62.3622" height="295.524" class="st10"/>
			<text x="11.56" y="239.49" class="st6">IPA Client</text>		</g>
		<g id="shape2-31" transform="translate(-240.995,343.712) rotate(-90)">
			<title>Rectangle.2</title>
			<desc>IPA Service</desc>
			<g id="shadow2-32" transform="matrix(1,0,0,1,-1.97279,0.345598)" class="st1">
				<rect x="0" y="355.901" width="295.524" height="28.3465" class="st2"/>
			</g>
			<rect x="0" y="355.901" width="295.524" height="28.3465" class="st5"/>
			<text x="125.36" y="373.07" class="st6">IPA Service</text>		</g>
		<g id="shape3-37" transform="translate(146.796,-83.0551)">
			<title>Rectangle.3</title>
			<desc>Dialog Management</desc>
			<g id="shadow3-38" transform="matrix(1,0,0,1,0.345598,1.97279)" class="st1">
				<rect x="0" y="214.298" width="106.299" height="169.949" class="st2"/>
			</g>
			<rect x="0" y="214.298" width="106.299" height="169.949" class="st5"/>
			<text x="11.95" y="302.27" class="st6">Dialog Management</text>		</g>
		<g id="shape4-43" transform="translate(518.74,-296.764)">
			<title>Rectangle.4</title>
			<desc>Accounts / Authentication</desc>
			<g id="shadow4-44" transform="matrix(1,0,0,1,0.345598,1.97279)" class="st1">
				<rect x="0" y="343.145" width="80.0787" height="41.1024" class="st2"/>
			</g>
			<rect x="0" y="343.145" width="80.0787" height="41.1024" class="st11"/>
			<text x="18.34" y="360.7" class="st6">Accounts / <tspan x="9.68" dy="1.2em" class="st12">Authentication</tspan></text>		</g>
		<g id="shape5-50" transform="translate(270.425,-171.846)">
			<title>Rectangle.5</title>
			<desc>Dialog 1</desc>
			<g id="shadow5-51" transform="matrix(1,0,0,1,0.345598,1.97279)" class="st1">
				<rect x="0" y="363.696" width="62.3622" height="20.5512" class="st2"/>
			</g>
			<rect x="0" y="363.696" width="62.3622" height="20.5512" class="st13"/>
			<text x="14.76" y="376.97" class="st6">Dialog 1</text>		</g>
		<g id="shape6-56" transform="translate(335.622,-171.846)">
			<title>Rectangle.6</title>
			<desc>Intent Set 1</desc>
			<g id="shadow6-57" transform="matrix(1,0,0,1,0.345598,1.97279)" class="st1">
				<rect x="0" y="363.696" width="62.3622" height="20.5512" class="st2"/>
			</g>
			<rect x="0" y="363.696" width="62.3622" height="20.5512" class="st13"/>
			<text x="7.58" y="376.97" class="st6">Intent Set 1</text>		</g>
		<g id="shape16-62" transform="translate(269.291,-198.789)">
			<title>Rectangle.16</title>
			<desc>Core Dialog</desc>
			<g id="shadow16-63" transform="matrix(1,0,0,1,0.345598,1.97279)" class="st1">
				<rect x="0" y="343.145" width="62.3622" height="41.1024" class="st2"/>
			</g>
			<rect x="0" y="343.145" width="62.3622" height="41.1024" class="st13"/>
			<text x="7.76" y="366.7" class="st6">Core Dialog</text>		</g>
		<g id="shape19-68" transform="translate(334.488,-198.789)">
			<title>Rectangle.19</title>
			<desc>Core Intent Set</desc>
			<g id="shadow19-69" transform="matrix(1,0,0,1,0.345598,1.97279)" class="st1">
				<rect x="0" y="343.145" width="62.3622" height="41.1024" class="st2"/>
			</g>
			<rect x="0" y="343.145" width="62.3622" height="41.1024" class="st13"/>
			<text x="8.17" y="360.7" class="st6">Core Intent <tspan x="24.72" dy="1.2em" class="st12">Set</tspan></text>		</g>
		<g id="shape20-75" transform="translate(269.291,-85.6063)">
			<title>Rectangle.20</title>
			<desc>Dialog Registry</desc>
			<g id="shadow20-76" transform="matrix(1,0,0,1,0.345598,1.97279)" class="st1">
				<rect x="0" y="351.366" width="129.685" height="32.8819" class="st2"/>
			</g>
			<rect x="0" y="351.366" width="129.685" height="32.8819" class="st13"/>
			<text x="34.62" y="370.81" class="st6">Dialog Registry</text>		</g>
		<g id="shape30-81" transform="translate(-274.656,291.543) rotate(-90)">
			<title>Sheet.30</title>
			<path d="M0 384.25 L0 384.25" class="st14"/>
		</g>
		<g id="shape36-84" transform="translate(520.866,-42.3071)">
			<title>Rectangle.36</title>
			<desc>IPA Provider n</desc>
			<g id="shadow36-85" transform="matrix(1,0,0,1,0.345598,1.97279)" class="st1">
				<rect x="0" y="325.429" width="221.102" height="58.8189" class="st2"/>
			</g>
			<rect x="0" y="325.429" width="221.102" height="58.8189" class="st15"/>
			<text x="159.4" y="338.43" class="st16">IPA Provider n</text>		</g>
		<g id="shape39-90" transform="translate(668.976,-50.1024)">
			<title>Rectangle.39</title>
			<desc>...</desc>
			<g id="shadow39-91" transform="matrix(1,0,0,1,0.345598,1.97279)" class="st1">
				<rect x="0" y="353.067" width="62.3622" height="31.1811" class="st2"/>
			</g>
			<rect x="0" y="353.067" width="62.3622" height="31.1811" class="st17"/>
			<text x="27.39" y="371.66" class="st6">...</text>		</g>
		<g id="shape40-96" transform="translate(599.528,-50.1024)">
			<title>Rectangle.40</title>
			<desc>Provider Intent Set</desc>
			<g id="shadow40-97" transform="matrix(1,0,0,1,0.345598,1.97279)" class="st1">
				<rect x="0" y="353.067" width="62.3622" height="31.1811" class="st2"/>
			</g>
			<rect x="0" y="353.067" width="62.3622" height="31.1811" class="st17"/>
			<text x="13.95" y="365.66" class="st6">Provider <tspan x="11.24" dy="1.2em" class="st12">Intent Set</tspan></text>		</g>
		<g id="shape41-103" transform="translate(600.945,-104.669)">
			<title>Circle</title>
			<g id="shadow41-104" transform="matrix(1,0,0,1,0.345598,1.97279)" class="st1">
				<path d="M0 380 A4.25197 4.25197 0 0 1 8.5 380 A4.25197 4.25197 0 1 1 0 380 Z" class="st2"/>
			</g>
			<path d="M0 380 A4.25197 4.25197 0 0 1 8.5 380 A4.25197 4.25197 0 1 1 0 380 Z" class="st18"/>
		</g>
		<g id="shape42-108" transform="translate(617.953,-104.669)">
			<title>Circle.42</title>
			<g id="shadow42-109" transform="matrix(1,0,0,1,0.345598,1.97279)" class="st1">
				<path d="M0 380 A4.25197 4.25197 0 0 1 8.5 380 A4.25197 4.25197 0 1 1 0 380 Z" class="st2"/>
			</g>
			<path d="M0 380 A4.25197 4.25197 0 0 1 8.5 380 A4.25197 4.25197 0 1 1 0 380 Z" class="st18"/>
		</g>
		<g id="shape43-113" transform="translate(634.961,-104.669)">
			<title>Circle.43</title>
			<g id="shadow43-114" transform="matrix(1,0,0,1,0.345598,1.97279)" class="st1">
				<path d="M0 380 A4.25197 4.25197 0 0 1 8.5 380 A4.25197 4.25197 0 1 1 0 380 Z" class="st2"/>
			</g>
			<path d="M0 380 A4.25197 4.25197 0 0 1 8.5 380 A4.25197 4.25197 0 1 1 0 380 Z" class="st18"/>
		</g>
		<g id="shape45-118" transform="translate(127.406,340.878) rotate(-90)">
			<title>Rectangle.45</title>
			<desc>Provider Selection Service</desc>
			<g id="shadow45-119" transform="matrix(1,0,0,1,-1.97279,0.345598)" class="st1">
				<rect x="0" y="321.885" width="249.603" height="62.3622" class="st2"/>
			</g>
			<rect x="0" y="321.885" width="249.603" height="62.3622" class="st11"/>
			<text x="72.16" y="356.07" class="st6">Provider Selection Service</text>		</g>
		<g id="shape51-124" transform="translate(270.425,-125.428)">
			<title>Rectangle.51</title>
			<desc>Dialog n</desc>
			<g id="shadow51-125" transform="matrix(1,0,0,1,0.345598,1.97279)" class="st1">
				<rect x="0" y="363.696" width="62.3622" height="20.5512" class="st2"/>
			</g>
			<rect x="0" y="363.696" width="62.3622" height="20.5512" class="st13"/>
			<text x="14.67" y="376.97" class="st6">Dialog n</text>		</g>
		<g id="shape52-130" transform="translate(335.622,-125.428)">
			<title>Rectangle.52</title>
			<desc>Intent Set n</desc>
			<g id="shadow52-131" transform="matrix(1,0,0,1,0.345598,1.97279)" class="st1">
				<rect x="0" y="363.696" width="62.3622" height="20.5512" class="st2"/>
			</g>
			<rect x="0" y="363.696" width="62.3622" height="20.5512" class="st13"/>
			<text x="7.48" y="376.97" class="st6">Intent Set n</text>		</g>
		<g id="shape53-136" transform="translate(313.228,-153.775)">
			<title>Circle.53</title>
			<g id="shadow53-137" transform="matrix(1,0,0,1,0.345598,1.97279)" class="st1">
				<path d="M0 380 A4.25197 4.25197 0 0 1 8.5 380 A4.25197 4.25197 0 1 1 0 380 Z" class="st2"/>
			</g>
			<path d="M0 380 A4.25197 4.25197 0 0 1 8.5 380 A4.25197 4.25197 0 1 1 0 380 Z" class="st13"/>
		</g>
		<g id="shape54-141" transform="translate(330.236,-153.775)">
			<title>Circle.54</title>
			<g id="shadow54-142" transform="matrix(1,0,0,1,0.345598,1.97279)" class="st1">
				<path d="M0 380 A4.25197 4.25197 0 0 1 8.5 380 A4.25197 4.25197 0 1 1 0 380 Z" class="st2"/>
			</g>
			<path d="M0 380 A4.25197 4.25197 0 0 1 8.5 380 A4.25197 4.25197 0 1 1 0 380 Z" class="st13"/>
		</g>
		<g id="shape55-146" transform="translate(347.244,-153.775)">
			<title>Circle.55</title>
			<g id="shadow55-147" transform="matrix(1,0,0,1,0.345598,1.97279)" class="st1">
				<path d="M0 380 A4.25197 4.25197 0 0 1 8.5 380 A4.25197 4.25197 0 1 1 0 380 Z" class="st2"/>
			</g>
			<path d="M0 380 A4.25197 4.25197 0 0 1 8.5 380 A4.25197 4.25197 0 1 1 0 380 Z" class="st13"/>
		</g>
		<g id="shape57-151" transform="translate(530.079,-50.1024)">
			<title>Rectangle.57</title>
			<desc>Provider NLU</desc>
			<g id="shadow57-152" transform="matrix(1,0,0,1,0.345598,1.97279)" class="st1">
				<rect x="0" y="353.067" width="62.3622" height="31.1811" class="st2"/>
			</g>
			<rect x="0" y="353.067" width="62.3622" height="31.1811" class="st17"/>
			<text x="4.29" y="371.66" class="st6">Provider NLU</text>		</g>
		<g id="shape59-157" transform="translate(146.087,-256.122)">
			<title>Rectangle.59</title>
			<desc>ASR</desc>
			<g id="shadow59-158" transform="matrix(1,0,0,1,0.345598,1.97279)" class="st1">
				<rect x="0" y="351.366" width="106.299" height="32.8819" class="st2"/>
			</g>
			<rect x="0" y="351.366" width="106.299" height="32.8819" class="st5"/>
			<text x="45.24" y="370.81" class="st6">ASR</text>		</g>
		<g id="shape62-163" transform="translate(450.425,-296.764)">
			<title>Rectangle.62</title>
			<desc>Provider Registry</desc>
			<g id="shadow62-164" transform="matrix(1,0,0,1,0.345598,1.97279)" class="st1">
				<rect x="0" y="343.145" width="62.3622" height="41.1024" class="st2"/>
			</g>
			<rect x="0" y="343.145" width="62.3622" height="41.1024" class="st11"/>
			<text x="13.95" y="360.7" class="st6">Provider <tspan x="14.84" dy="1.2em" class="st12">Registry</tspan></text>		</g>
		<g id="shape64-170" transform="translate(146.087,-294.957)">
			<title>Rectangle.68</title>
			<desc>Context</desc>
			<g id="shadow64-171" transform="matrix(1,0,0,1,0.345598,1.97279)" class="st1">
				<rect x="0" y="343.145" width="264.936" height="41.1024" class="st2"/>
			</g>
			<rect x="0" y="343.145" width="264.936" height="41.1024" class="st5"/>
			<text x="116.54" y="366.7" class="st6">Context</text>		</g>
		<g id="shape66-176" transform="translate(260.891,-256.122)">
			<title>Rectangle.65</title>
			<desc>NLU</desc>
			<g id="shadow66-177" transform="matrix(1,0,0,1,0.345598,1.97279)" class="st1">
				<rect x="0" y="351.366" width="150.133" height="32.8819" class="st2"/>
			</g>
			<rect x="0" y="351.366" width="150.133" height="32.8819" class="st5"/>
			<text x="66.53" y="370.81" class="st6">NLU</text>		</g>
		<g id="shape69-182" transform="translate(144.213,-40.5354)">
			<title>Rectangle.69</title>
			<desc>TTS</desc>
			<g id="shadow69-183" transform="matrix(1,0,0,1,0.345598,1.97279)" class="st1">
				<rect x="0" y="351.366" width="51.7323" height="32.8819" class="st2"/>
			</g>
			<rect x="0" y="351.366" width="51.7323" height="32.8819" class="st5"/>
			<text x="18.7" y="370.81" class="st6">TTS</text>		</g>
		<g id="shape70-188" transform="translate(203.386,-40.5354)">
			<title>Rectangle.70</title>
			<desc>NLG</desc>
			<g id="shadow70-189" transform="matrix(1,0,0,1,0.345598,1.97279)" class="st1">
				<rect x="0" y="351.366" width="51.7323" height="32.8819" class="st2"/>
			</g>
			<rect x="0" y="351.366" width="51.7323" height="32.8819" class="st5"/>
			<text x="17.38" y="370.81" class="st6">NLG</text>		</g>
		<g id="shape63-194" transform="translate(316.772,-298.488)">
			<title>Rectangle.63</title>
			<desc>Knowledge Graph</desc>
			<g id="shadow63-195" transform="matrix(1,0,0,1,0.345598,1.97279)" class="st1">
				<rect x="0" y="351.366" width="80.0787" height="32.8819" class="st2"/>
			</g>
			<rect x="0" y="351.366" width="80.0787" height="32.8819" class="st13"/>
			<text x="17.5" y="364.81" class="st6">Knowledge <tspan x="27.49" dy="1.2em" class="st12">Graph</tspan></text>		</g>
		<g id="shape72-201" transform="translate(521.575,-117.78)">
			<title>Rectangle.72</title>
			<desc>IPA Provider 1</desc>
			<g id="shadow72-202" transform="matrix(1,0,0,1,0.345598,1.97279)" class="st1">
				<rect x="0" y="325.429" width="221.102" height="58.8189" class="st2"/>
			</g>
			<rect x="0" y="325.429" width="221.102" height="58.8189" class="st15"/>
			<text x="159.59" y="338.43" class="st16">IPA Provider 1</text>		</g>
		<g id="shape73-207" transform="translate(669.685,-125.575)">
			<title>Rectangle.73</title>
			<desc>...</desc>
			<g id="shadow73-208" transform="matrix(1,0,0,1,0.345598,1.97279)" class="st1">
				<rect x="0" y="353.067" width="62.3622" height="31.1811" class="st2"/>
			</g>
			<rect x="0" y="353.067" width="62.3622" height="31.1811" class="st17"/>
			<text x="27.39" y="371.66" class="st6">...</text>		</g>
		<g id="shape74-213" transform="translate(600.236,-125.575)">
			<title>Rectangle.74</title>
			<desc>Provider Intent Set</desc>
			<g id="shadow74-214" transform="matrix(1,0,0,1,0.345598,1.97279)" class="st1">
				<rect x="0" y="353.067" width="62.3622" height="31.1811" class="st2"/>
			</g>
			<rect x="0" y="353.067" width="62.3622" height="31.1811" class="st17"/>
			<text x="13.95" y="365.66" class="st6">Provider <tspan x="11.24" dy="1.2em" class="st12">Intent Set</tspan></text>		</g>
		<g id="shape75-220" transform="translate(530.787,-125.575)">
			<title>Rectangle.75</title>
			<desc>Provider NLU</desc>
			<g id="shadow75-221" transform="matrix(1,0,0,1,0.345598,1.97279)" class="st1">
				<rect x="0" y="353.067" width="62.3622" height="31.1811" class="st2"/>
			</g>
			<rect x="0" y="353.067" width="62.3622" height="31.1811" class="st17"/>
			<text x="4.29" y="371.66" class="st6">Provider NLU</text>		</g>
		<g id="shape76-226" transform="translate(520.866,-257.433)">
			<title>Rectangle.22</title>
			<desc>Data Provider 1</desc>
			<g id="shadow76-227" transform="matrix(1,0,0,1,0.345598,1.97279)" class="st1">
				<rect x="0" y="351.366" width="80.0787" height="32.8819" class="st2"/>
			</g>
			<rect x="0" y="351.366" width="80.0787" height="32.8819" class="st17"/>
			<text x="8.48" y="370.81" class="st6">Data Provider 1</text>		</g>
		<g id="shape77-232" transform="translate(520.866,-204.945)">
			<title>Rectangle.77</title>
			<desc>Data Provider n</desc>
			<g id="shadow77-233" transform="matrix(1,0,0,1,0.345598,1.97279)" class="st1">
				<rect x="0" y="351.366" width="80.0787" height="32.8819" class="st2"/>
			</g>
			<rect x="0" y="351.366" width="80.0787" height="32.8819" class="st17"/>
			<text x="8.38" y="370.81" class="st6">Data Provider n</text>		</g>
		<g id="shape78-238" transform="translate(535.039,-243.213)">
			<title>Circle.78</title>
			<g id="shadow78-239" transform="matrix(1,0,0,1,0.345598,1.97279)" class="st1">
				<path d="M0 380 A4.25197 4.25197 0 0 1 8.5 380 A4.25197 4.25197 0 1 1 0 380 Z" class="st2"/>
			</g>
			<path d="M0 380 A4.25197 4.25197 0 0 1 8.5 380 A4.25197 4.25197 0 1 1 0 380 Z" class="st18"/>
		</g>
		<g id="shape79-243" transform="translate(552.047,-243.213)">
			<title>Circle.79</title>
			<g id="shadow79-244" transform="matrix(1,0,0,1,0.345598,1.97279)" class="st1">
				<path d="M0 380 A4.25197 4.25197 0 0 1 8.5 380 A4.25197 4.25197 0 1 1 0 380 Z" class="st2"/>
			</g>
			<path d="M0 380 A4.25197 4.25197 0 0 1 8.5 380 A4.25197 4.25197 0 1 1 0 380 Z" class="st18"/>
		</g>
		<g id="shape80-248" transform="translate(569.055,-243.213)">
			<title>Circle.80</title>
			<g id="shadow80-249" transform="matrix(1,0,0,1,0.345598,1.97279)" class="st1">
				<path d="M0 380 A4.25197 4.25197 0 0 1 8.5 380 A4.25197 4.25197 0 1 1 0 380 Z" class="st2"/>
			</g>
			<path d="M0 380 A4.25197 4.25197 0 0 1 8.5 380 A4.25197 4.25197 0 1 1 0 380 Z" class="st18"/>
		</g>
	</g>
</svg>
