<?xml version="1.0" encoding="UTF-8" standalone="no"?>
<!DOCTYPE svg PUBLIC "-//W3C//DTD SVG 1.1//EN" "http://www.w3.org/Graphics/SVG/1.1/DTD/svg11.dtd">
<!-- Generated by Microsoft Visio, SVG Export IPA-Architecture-1-1.svg Page-1 -->
<svg xmlns="http://www.w3.org/2000/svg" xmlns:xlink="http://www.w3.org/1999/xlink" xmlns:ev="http://www.w3.org/2001/xml-events"
		xmlns:v="http://schemas.microsoft.com/visio/2003/SVGExtensions/" width="12.1862in" height="5.95455in"
		viewBox="0 0 877.409 428.728" xml:space="preserve" color-interpolation-filters="sRGB" class="st21">
	<v:documentProperties v:langID="1033" v:metric="true" v:viewMarkup="false">
		<v:userDefs>
			<v:ud v:nameU="msvSubprocessMaster" v:prompt="" v:val="VT4(Rectangle)"/>
			<v:ud v:nameU="msvNoAutoConnect" v:val="VT0(1):26"/>
		</v:userDefs>
	</v:documentProperties>

	<style type="text/css">
	<![CDATA[
		.st1 {visibility:visible}
		.st2 {fill:#5b9bd5;fill-opacity:0.22;filter:url(#filter_2);stroke:none}
		.st3 {fill:#f4b183;stroke:none;stroke-width:1}
		.st4 {fill:#ffffff;font-family:Calibri;font-size:0.833336em}
		.st5 {fill:#c55a11;stroke:none;stroke-width:0.25}
		.st6 {fill:#feffff;font-family:Calibri;font-size:0.833336em}
		.st7 {fill:#90aadb;stroke:none;stroke-width:1}
		.st8 {fill:#e2efd9;stroke:none;stroke-width:1}
		.st9 {fill:#3f3f3f;font-family:Calibri;font-size:0.833336em}
		.st10 {fill:#70ad47;stroke:none;stroke-width:0.25}
		.st11 {fill:#833c0b;stroke:none;stroke-width:0.25}
		.st12 {font-size:1em}
		.st13 {stroke:none;stroke-linecap:round;stroke-linejoin:round;stroke-width:1}
		.st14 {fill:#5b9bd5;stroke:none;stroke-width:0.25}
		.st15 {fill:#a5a5a5;stroke:none;stroke-width:0.25}
		.st16 {fill:#d8d8d8;stroke:none;stroke-width:1}
		.st17 {fill:#000000;font-family:Calibri;font-size:0.833336em}
		.st18 {fill:#7f7f7f;stroke:none;stroke-width:0.25}
		.st19 {fill:#bfbfbf;stroke:none;stroke-width:1}
		.st20 {fill:#41719c;stroke:none;stroke-width:0.25}
		.st21 {fill:none;fill-rule:evenodd;font-size:12px;overflow:visible;stroke-linecap:square;stroke-miterlimit:3}
	]]>
	</style>

	<defs id="Filters">
		<filter id="filter_2">
			<feGaussianBlur stdDeviation="2"/>
		</filter>
	</defs>
	<g v:mID="0" v:index="1" v:groupContext="foregroundPage">
		<v:userDefs>
			<v:ud v:nameU="msvThemeOrder" v:val="VT0(0):26"/>
		</v:userDefs>
		<title>Page-1</title>
		<v:pageProperties v:drawingScale="0.0393701" v:pageScale="0.0393701" v:drawingUnits="24" v:shadowOffsetX="8.50394"
				v:shadowOffsetY="-8.50394"/>
		<v:layer v:name="Annotations" v:index="0"/>
		<v:layer v:name="Connector" v:index="1"/>
		<g id="shape47-1" v:mID="47" v:groupContext="shape" transform="translate(107.82,-23.6815)">
			<title>Rectangle.47</title>
			<desc>Dialog</desc>
			<v:userDefs>
				<v:ud v:nameU="visVersion" v:val="VT0(15):26"/>
			</v:userDefs>
			<v:textBlock v:margins="rect(4,4,4,4)" v:tabSpace="42.5197" v:verticalAlign="2"/>
			<v:textRect cx="155.854" cy="236.622" width="311.71" height="384.213"/>
			<g id="shadow47-2" v:groupContext="shadow" v:shadowOffsetX="0.345598" v:shadowOffsetY="-1.97279" v:shadowType="1"
					transform="matrix(1,0,0,1,0.345598,1.97279)" class="st1">
				<rect x="0" y="44.5154" width="311.708" height="384.213" class="st2"/>
			</g>
			<rect x="0" y="44.5154" width="311.708" height="384.213" class="st3"/>
			<text x="282.19" y="421.73" class="st4" v:langID="1031"><v:paragraph v:horizAlign="2"/><v:tabList/>Dialog</text>		</g>
		<g id="shape71-7" v:mID="71" v:groupContext="shape" transform="translate(261.28,-51)">
			<title>Rectangle.71</title>
			<desc>Dialogs</desc>
			<v:userDefs>
				<v:ud v:nameU="visVersion" v:val="VT0(15):26"/>
			</v:userDefs>
			<v:textBlock v:margins="rect(4,4,4,4)" v:tabSpace="42.5197" v:verticalAlign="2"/>
			<v:textRect cx="75.0665" cy="306.761" width="150.14" height="243.933"/>
			<g id="shadow71-8" v:groupContext="shadow" v:shadowOffsetX="0.345598" v:shadowOffsetY="-1.97279" v:shadowType="1"
					transform="matrix(1,0,0,1,0.345598,1.97279)" class="st1">
				<rect x="0" y="184.795" width="150.133" height="243.933" class="st2"/>
			</g>
			<rect x="0" y="184.795" width="150.133" height="243.933" class="st5"/>
			<text x="116.71" y="421.73" class="st6" v:langID="1031"><v:paragraph v:horizAlign="2"/><v:tabList/>Dialogs</text>		</g>
		<g id="shape48-13" v:mID="48" v:groupContext="shape" transform="translate(425.197,-25.4882)">
			<title>Rectangle.48</title>
			<desc>APIs / Data</desc>
			<v:userDefs>
				<v:ud v:nameU="visVersion" v:val="VT0(15):26"/>
			</v:userDefs>
			<v:textBlock v:margins="rect(4,4,4,4)" v:tabSpace="42.5197" v:verticalAlign="2"/>
			<v:textRect cx="215.433" cy="236.622" width="430.87" height="384.213"/>
			<g id="shadow48-14" v:groupContext="shadow" v:shadowOffsetX="0.345598" v:shadowOffsetY="-1.97279" v:shadowType="1"
					transform="matrix(1,0,0,1,0.345598,1.97279)" class="st1">
				<rect x="0" y="44.5154" width="430.866" height="384.213" class="st2"/>
			</g>
			<rect x="0" y="44.5154" width="430.866" height="384.213" class="st7"/>
			<text x="382.02" y="421.73" class="st6" v:langID="1031"><v:paragraph v:horizAlign="2"/><v:tabList/>APIs / Data</text>		</g>
		<g id="shape50-19" v:mID="50" v:groupContext="shape" transform="translate(20.6544,-22.9728)">
			<title>Rectangle.50</title>
			<desc>Client</desc>
			<v:userDefs>
				<v:ud v:nameU="visVersion" v:val="VT0(15):26"/>
			</v:userDefs>
			<v:textBlock v:margins="rect(4,4,4,4)" v:tabSpace="42.5197" v:verticalAlign="2"/>
			<v:textRect cx="40.0394" cy="236.622" width="80.08" height="384.213"/>
			<g id="shadow50-20" v:groupContext="shadow" v:shadowOffsetX="0.345598" v:shadowOffsetY="-1.97279" v:shadowType="1"
					transform="matrix(1,0,0,1,0.345598,1.97279)" class="st1">
				<rect x="0" y="44.5154" width="80.0787" height="384.213" class="st2"/>
			</g>
			<rect x="0" y="44.5154" width="80.0787" height="384.213" class="st8"/>
			<text x="52.58" y="421.73" class="st9" v:langID="1031"><v:paragraph v:horizAlign="2"/><v:tabList/>Client</text>		</g>
		<g id="shape1-25" v:mID="1" v:groupContext="shape" transform="translate(29.867,-90.9685)">
			<title>Rectangle</title>
			<desc>IPA Client</desc>
			<v:userDefs>
				<v:ud v:nameU="visVersion" v:val="VT0(15):26"/>
			</v:userDefs>
			<v:textBlock v:margins="rect(4,4,4,4)" v:tabSpace="42.5197"/>
			<v:textRect cx="31.1811" cy="326.745" width="62.37" height="203.965"/>
			<g id="shadow1-26" v:groupContext="shadow" v:shadowOffsetX="0.345598" v:shadowOffsetY="-1.97279" v:shadowType="1"
					transform="matrix(1,0,0,1,0.345598,1.97279)" class="st1">
				<rect x="0" y="224.763" width="62.3622" height="203.965" class="st2"/>
			</g>
			<rect x="0" y="224.763" width="62.3622" height="203.965" class="st10"/>
			<text x="11.56" y="329.75" class="st6" v:langID="1031"><v:paragraph v:horizAlign="1"/><v:tabList/>IPA Client</text>		</g>
		<g id="shape2-31" v:mID="2" v:groupContext="shape" transform="translate(-285.475,377.728) rotate(-90)">
			<title>Rectangle.2</title>
			<desc>IPA Service</desc>
			<v:userDefs>
				<v:ud v:nameU="visVersion" v:val="VT0(15):26"/>
			</v:userDefs>
			<v:textBlock v:margins="rect(4,4,4,4)" v:tabSpace="42.5197"/>
			<v:textRect cx="164.77" cy="414.555" width="329.54" height="28.3465"/>
			<g id="shadow2-32" v:groupContext="shadow" v:shadowOffsetX="0.345598" v:shadowOffsetY="-1.97279" v:shadowType="1"
					transform="matrix(1,0,0,1,-1.97279,0.345598)" class="st1">
				<rect x="0" y="400.381" width="329.54" height="28.3465" class="st2"/>
			</g>
			<rect x="0" y="400.381" width="329.54" height="28.3465" class="st5"/>
			<text x="142.37" y="417.55" class="st6" v:langID="1031"><v:paragraph v:horizAlign="1"/><v:tabList/>IPA Service</text>		</g>
		<g id="shape3-37" v:mID="3" v:groupContext="shape" transform="translate(146.796,-93.5197)">
			<title>Rectangle.3</title>
			<desc>Dialog Manager</desc>
			<v:userDefs>
				<v:ud v:nameU="visVersion" v:val="VT0(15):26"/>
			</v:userDefs>
			<v:textBlock v:margins="rect(4,4,4,4)" v:tabSpace="42.5197"/>
			<v:textRect cx="53.1496" cy="326.745" width="106.3" height="203.965"/>
			<g id="shadow3-38" v:groupContext="shadow" v:shadowOffsetX="0.345598" v:shadowOffsetY="-1.97279" v:shadowType="1"
					transform="matrix(1,0,0,1,0.345598,1.97279)" class="st1">
				<rect x="0" y="224.763" width="106.299" height="203.965" class="st2"/>
			</g>
			<rect x="0" y="224.763" width="106.299" height="203.965" class="st5"/>
			<text x="20.99" y="329.75" class="st6" v:langID="1031"><v:paragraph v:horizAlign="1"/><v:tabList/>Dialog Manager</text>		</g>
		<g id="shape5-43" v:mID="5" v:groupContext="shape" transform="translate(270.425,-216.326)">
			<title>Rectangle.5</title>
			<desc>Dialog 1</desc>
			<v:userDefs>
				<v:ud v:nameU="visVersion" v:val="VT0(15):26"/>
			</v:userDefs>
			<v:textBlock v:margins="rect(4,4,4,4)" v:tabSpace="42.5197"/>
			<v:textRect cx="31.1811" cy="418.452" width="62.37" height="20.5512"/>
			<g id="shadow5-44" v:groupContext="shadow" v:shadowOffsetX="0.345598" v:shadowOffsetY="-1.97279" v:shadowType="1"
					transform="matrix(1,0,0,1,0.345598,1.97279)" class="st1">
				<rect x="0" y="408.177" width="62.3622" height="20.5512" class="st2"/>
			</g>
			<rect x="0" y="408.177" width="62.3622" height="20.5512" class="st11"/>
			<text x="14.76" y="421.45" class="st6" v:langID="1031"><v:paragraph v:horizAlign="1"/><v:tabList/>Dialog 1</text>		</g>
		<g id="shape6-49" v:mID="6" v:groupContext="shape" transform="translate(335.622,-216.326)">
			<title>Rectangle.6</title>
			<desc>Intent Set 1</desc>
			<v:userDefs>
				<v:ud v:nameU="visVersion" v:val="VT0(15):26"/>
			</v:userDefs>
			<v:textBlock v:margins="rect(4,4,4,4)" v:tabSpace="42.5197"/>
			<v:textRect cx="31.1811" cy="418.452" width="62.37" height="20.5512"/>
			<g id="shadow6-50" v:groupContext="shadow" v:shadowOffsetX="0.345598" v:shadowOffsetY="-1.97279" v:shadowType="1"
					transform="matrix(1,0,0,1,0.345598,1.97279)" class="st1">
				<rect x="0" y="408.177" width="62.3622" height="20.5512" class="st2"/>
			</g>
			<rect x="0" y="408.177" width="62.3622" height="20.5512" class="st11"/>
			<text x="7.58" y="421.45" class="st6" v:langID="1031"><v:paragraph v:horizAlign="1"/><v:tabList/>Intent Set 1</text>		</g>
		<g id="shape16-55" v:mID="16" v:groupContext="shape" transform="translate(269.291,-243.27)">
			<title>Rectangle.16</title>
			<desc>Core Dialog</desc>
			<v:userDefs>
				<v:ud v:nameU="visVersion" v:val="VT0(15):26"/>
			</v:userDefs>
			<v:textBlock v:margins="rect(4,4,4,4)" v:tabSpace="42.5197"/>
			<v:textRect cx="31.1811" cy="408.177" width="62.37" height="41.1024"/>
			<g id="shadow16-56" v:groupContext="shadow" v:shadowOffsetX="0.345598" v:shadowOffsetY="-1.97279" v:shadowType="1"
					transform="matrix(1,0,0,1,0.345598,1.97279)" class="st1">
				<rect x="0" y="387.626" width="62.3622" height="41.1024" class="st2"/>
			</g>
			<rect x="0" y="387.626" width="62.3622" height="41.1024" class="st11"/>
			<text x="7.76" y="411.18" class="st6" v:langID="1031"><v:paragraph v:horizAlign="1"/><v:tabList/>Core Dialog</text>		</g>
		<g id="shape19-61" v:mID="19" v:groupContext="shape" transform="translate(334.488,-243.27)">
			<title>Rectangle.19</title>
			<desc>Core Intent Set</desc>
			<v:userDefs>
				<v:ud v:nameU="visVersion" v:val="VT0(15):26"/>
			</v:userDefs>
			<v:textBlock v:margins="rect(4,4,4,4)" v:tabSpace="42.5197"/>
			<v:textRect cx="31.1811" cy="408.177" width="62.37" height="41.1024"/>
			<g id="shadow19-62" v:groupContext="shadow" v:shadowOffsetX="0.345598" v:shadowOffsetY="-1.97279" v:shadowType="1"
					transform="matrix(1,0,0,1,0.345598,1.97279)" class="st1">
				<rect x="0" y="387.626" width="62.3622" height="41.1024" class="st2"/>
			</g>
			<rect x="0" y="387.626" width="62.3622" height="41.1024" class="st11"/>
			<text x="8.17" y="405.18" class="st6" v:langID="1031"><v:paragraph v:horizAlign="1"/><v:tabList/>Core Intent <tspan
						x="24.72" dy="1.2em" class="st12">Set</tspan></text>		</g>
		<g id="shape20-68" v:mID="20" v:groupContext="shape" transform="translate(269.291,-130.087)">
			<title>Rectangle.20</title>
			<desc>Dialog Registry</desc>
			<v:userDefs>
				<v:ud v:nameU="visVersion" v:val="VT0(15):26"/>
			</v:userDefs>
			<v:textBlock v:margins="rect(4,4,4,4)" v:tabSpace="42.5197"/>
			<v:textRect cx="64.8425" cy="412.287" width="129.69" height="32.8819"/>
			<g id="shadow20-69" v:groupContext="shadow" v:shadowOffsetX="0.345598" v:shadowOffsetY="-1.97279" v:shadowType="1"
					transform="matrix(1,0,0,1,0.345598,1.97279)" class="st1">
				<rect x="0" y="395.846" width="129.685" height="32.8819" class="st2"/>
			</g>
			<rect x="0" y="395.846" width="129.685" height="32.8819" class="st11"/>
			<text x="34.62" y="415.29" class="st6" v:langID="1031"><v:paragraph v:horizAlign="1"/><v:tabList/>Dialog Registry</text>		</g>
		<g id="shape30-74" v:mID="30" v:groupContext="shape" transform="translate(-319.137,291.543) rotate(-90)">
			<title>Sheet.30</title>
			<path d="M0 428.73 L0 428.73" class="st13"/>
		</g>
		<g id="shape45-77" v:mID="45" v:groupContext="shape" transform="translate(72.098,377.728) rotate(-90)">
			<title>Rectangle.45</title>
			<desc>Provider Selection Service</desc>
			<v:userDefs>
				<v:ud v:nameU="visVersion" v:val="VT0(15):26"/>
			</v:userDefs>
			<v:textBlock v:margins="rect(4,4,4,4)" v:tabSpace="42.5197"/>
			<v:textRect cx="164.77" cy="397.547" width="329.54" height="62.3622"/>
			<g id="shadow45-78" v:groupContext="shadow" v:shadowOffsetX="0.345598" v:shadowOffsetY="-1.97279" v:shadowType="1"
					transform="matrix(1,0,0,1,-1.97279,0.345598)" class="st1">
				<rect x="0" y="366.366" width="329.54" height="62.3622" class="st2"/>
			</g>
			<rect x="0" y="366.366" width="329.54" height="62.3622" class="st14"/>
			<text x="4" y="400.55" class="st6" v:langID="1031"><v:paragraph/><v:tabList/>Provider Selection Service</text>		</g>
		<g id="shape51-83" v:mID="51" v:groupContext="shape" transform="translate(270.425,-169.909)">
			<title>Rectangle.51</title>
			<desc>Dialog n</desc>
			<v:userDefs>
				<v:ud v:nameU="visVersion" v:val="VT0(15):26"/>
			</v:userDefs>
			<v:textBlock v:margins="rect(4,4,4,4)" v:tabSpace="42.5197"/>
			<v:textRect cx="31.1811" cy="418.452" width="62.37" height="20.5512"/>
			<g id="shadow51-84" v:groupContext="shadow" v:shadowOffsetX="0.345598" v:shadowOffsetY="-1.97279" v:shadowType="1"
					transform="matrix(1,0,0,1,0.345598,1.97279)" class="st1">
				<rect x="0" y="408.177" width="62.3622" height="20.5512" class="st2"/>
			</g>
			<rect x="0" y="408.177" width="62.3622" height="20.5512" class="st11"/>
			<text x="14.67" y="421.45" class="st6" v:langID="1031"><v:paragraph v:horizAlign="1"/><v:tabList/>Dialog n</text>		</g>
		<g id="shape52-89" v:mID="52" v:groupContext="shape" transform="translate(335.622,-169.909)">
			<title>Rectangle.52</title>
			<desc>Intent Set n</desc>
			<v:userDefs>
				<v:ud v:nameU="visVersion" v:val="VT0(15):26"/>
			</v:userDefs>
			<v:textBlock v:margins="rect(4,4,4,4)" v:tabSpace="42.5197"/>
			<v:textRect cx="31.1811" cy="418.452" width="62.37" height="20.5512"/>
			<g id="shadow52-90" v:groupContext="shadow" v:shadowOffsetX="0.345598" v:shadowOffsetY="-1.97279" v:shadowType="1"
					transform="matrix(1,0,0,1,0.345598,1.97279)" class="st1">
				<rect x="0" y="408.177" width="62.3622" height="20.5512" class="st2"/>
			</g>
			<rect x="0" y="408.177" width="62.3622" height="20.5512" class="st11"/>
			<text x="7.48" y="421.45" class="st6" v:langID="1031"><v:paragraph v:horizAlign="1"/><v:tabList/>Intent Set n</text>		</g>
		<g id="shape53-95" v:mID="53" v:groupContext="shape" transform="translate(313.228,-198.255)">
			<title>Circle.53</title>
			<v:userDefs>
				<v:ud v:nameU="visVersion" v:val="VT0(15):26"/>
			</v:userDefs>
			<g id="shadow53-96" v:groupContext="shadow" v:shadowOffsetX="0.345598" v:shadowOffsetY="-1.97279" v:shadowType="1"
					transform="matrix(1,0,0,1,0.345598,1.97279)" class="st1">
				<path d="M0 424.48 A4.25197 4.25197 0 0 1 8.5 424.48 A4.25197 4.25197 0 1 1 0 424.48 Z" class="st2"/>
			</g>
			<path d="M0 424.48 A4.25197 4.25197 0 0 1 8.5 424.48 A4.25197 4.25197 0 1 1 0 424.48 Z" class="st11"/>
		</g>
		<g id="shape54-100" v:mID="54" v:groupContext="shape" transform="translate(330.236,-198.255)">
			<title>Circle.54</title>
			<v:userDefs>
				<v:ud v:nameU="visVersion" v:val="VT0(15):26"/>
			</v:userDefs>
			<g id="shadow54-101" v:groupContext="shadow" v:shadowOffsetX="0.345598" v:shadowOffsetY="-1.97279" v:shadowType="1"
					transform="matrix(1,0,0,1,0.345598,1.97279)" class="st1">
				<path d="M0 424.48 A4.25197 4.25197 0 0 1 8.5 424.48 A4.25197 4.25197 0 1 1 0 424.48 Z" class="st2"/>
			</g>
			<path d="M0 424.48 A4.25197 4.25197 0 0 1 8.5 424.48 A4.25197 4.25197 0 1 1 0 424.48 Z" class="st11"/>
		</g>
		<g id="shape55-105" v:mID="55" v:groupContext="shape" transform="translate(347.244,-198.255)">
			<title>Circle.55</title>
			<v:userDefs>
				<v:ud v:nameU="visVersion" v:val="VT0(15):26"/>
			</v:userDefs>
			<g id="shadow55-106" v:groupContext="shadow" v:shadowOffsetX="0.345598" v:shadowOffsetY="-1.97279" v:shadowType="1"
					transform="matrix(1,0,0,1,0.345598,1.97279)" class="st1">
				<path d="M0 424.48 A4.25197 4.25197 0 0 1 8.5 424.48 A4.25197 4.25197 0 1 1 0 424.48 Z" class="st2"/>
			</g>
			<path d="M0 424.48 A4.25197 4.25197 0 0 1 8.5 424.48 A4.25197 4.25197 0 1 1 0 424.48 Z" class="st11"/>
		</g>
		<g id="shape59-110" v:mID="59" v:groupContext="shape" transform="translate(146.087,-300.603)">
			<title>Rectangle.59</title>
			<desc>ASR</desc>
			<v:userDefs>
				<v:ud v:nameU="visVersion" v:val="VT0(15):26"/>
			</v:userDefs>
			<v:textBlock v:margins="rect(4,4,4,4)" v:tabSpace="42.5197"/>
			<v:textRect cx="53.1496" cy="412.287" width="106.3" height="32.8819"/>
			<g id="shadow59-111" v:groupContext="shadow" v:shadowOffsetX="0.345598" v:shadowOffsetY="-1.97279" v:shadowType="1"
					transform="matrix(1,0,0,1,0.345598,1.97279)" class="st1">
				<rect x="0" y="395.846" width="106.299" height="32.8819" class="st2"/>
			</g>
			<rect x="0" y="395.846" width="106.299" height="32.8819" class="st5"/>
			<text x="45.24" y="415.29" class="st6" v:langID="1031"><v:paragraph v:horizAlign="1"/><v:tabList/>ASR</text>		</g>
		<g id="shape64-116" v:mID="64" v:groupContext="shape" transform="translate(146.087,-339.437)">
			<title>Rectangle.68</title>
			<desc>Context</desc>
			<v:userDefs>
				<v:ud v:nameU="visVersion" v:val="VT0(15):26"/>
			</v:userDefs>
			<v:textBlock v:margins="rect(4,4,4,4)" v:tabSpace="42.5197" v:verticalAlign="2"/>
			<v:textRect cx="132.468" cy="408.177" width="264.94" height="41.1024"/>
			<g id="shadow64-117" v:groupContext="shadow" v:shadowOffsetX="0.345598" v:shadowOffsetY="-1.97279" v:shadowType="1"
					transform="matrix(1,0,0,1,0.345598,1.97279)" class="st1">
				<rect x="0" y="387.626" width="264.936" height="41.1024" class="st2"/>
			</g>
			<rect x="0" y="387.626" width="264.936" height="41.1024" class="st5"/>
			<text x="229.07" y="421.73" class="st6" v:langID="1031"><v:paragraph v:horizAlign="2"/><v:tabList/>Context</text>		</g>
		<g id="shape66-122" v:mID="66" v:groupContext="shape" transform="translate(260.891,-300.603)">
			<title>Rectangle.65</title>
			<desc>NLU</desc>
			<v:userDefs>
				<v:ud v:nameU="visVersion" v:val="VT0(15):26"/>
			</v:userDefs>
			<v:textBlock v:margins="rect(4,4,4,4)" v:tabSpace="42.5197"/>
			<v:textRect cx="75.0665" cy="412.287" width="150.14" height="32.8819"/>
			<g id="shadow66-123" v:groupContext="shadow" v:shadowOffsetX="0.345598" v:shadowOffsetY="-1.97279" v:shadowType="1"
					transform="matrix(1,0,0,1,0.345598,1.97279)" class="st1">
				<rect x="0" y="395.846" width="150.133" height="32.8819" class="st2"/>
			</g>
			<rect x="0" y="395.846" width="150.133" height="32.8819" class="st5"/>
			<text x="66.53" y="415.29" class="st6" v:langID="1031"><v:paragraph v:horizAlign="1"/><v:tabList/>NLU</text>		</g>
		<g id="shape69-128" v:mID="69" v:groupContext="shape" transform="translate(144.213,-51)">
			<title>Rectangle.69</title>
			<desc>TTS</desc>
			<v:userDefs>
				<v:ud v:nameU="visVersion" v:val="VT0(15):26"/>
			</v:userDefs>
			<v:textBlock v:margins="rect(4,4,4,4)" v:tabSpace="42.5197"/>
			<v:textRect cx="25.8661" cy="412.287" width="51.74" height="32.8819"/>
			<g id="shadow69-129" v:groupContext="shadow" v:shadowOffsetX="0.345598" v:shadowOffsetY="-1.97279" v:shadowType="1"
					transform="matrix(1,0,0,1,0.345598,1.97279)" class="st1">
				<rect x="0" y="395.846" width="51.7323" height="32.8819" class="st2"/>
			</g>
			<rect x="0" y="395.846" width="51.7323" height="32.8819" class="st5"/>
			<text x="18.7" y="415.29" class="st6" v:langID="1031"><v:paragraph v:horizAlign="1"/><v:tabList/>TTS</text>		</g>
		<g id="shape70-134" v:mID="70" v:groupContext="shape" transform="translate(203.386,-51)">
			<title>Rectangle.70</title>
			<desc>NLG</desc>
			<v:userDefs>
				<v:ud v:nameU="visVersion" v:val="VT0(15):26"/>
			</v:userDefs>
			<v:textBlock v:margins="rect(4,4,4,4)" v:tabSpace="42.5197"/>
			<v:textRect cx="25.8661" cy="412.287" width="51.74" height="32.8819"/>
			<g id="shadow70-135" v:groupContext="shadow" v:shadowOffsetX="0.345598" v:shadowOffsetY="-1.97279" v:shadowType="1"
					transform="matrix(1,0,0,1,0.345598,1.97279)" class="st1">
				<rect x="0" y="395.846" width="51.7323" height="32.8819" class="st2"/>
			</g>
			<rect x="0" y="395.846" width="51.7323" height="32.8819" class="st5"/>
			<text x="17.38" y="415.29" class="st6" v:langID="1031"><v:paragraph v:horizAlign="1"/><v:tabList/>NLG</text>		</g>
		<g id="shape63-140" v:mID="63" v:groupContext="shape" transform="translate(260.079,-343.843)">
			<title>Rectangle.63</title>
			<desc>Knowledge Graph</desc>
			<v:userDefs>
				<v:ud v:nameU="visVersion" v:val="VT0(15):26"/>
			</v:userDefs>
			<v:textBlock v:margins="rect(4,4,4,4)" v:tabSpace="42.5197"/>
			<v:textRect cx="40.0394" cy="412.287" width="80.08" height="32.8819"/>
			<g id="shadow63-141" v:groupContext="shadow" v:shadowOffsetX="0.345598" v:shadowOffsetY="-1.97279" v:shadowType="1"
					transform="matrix(1,0,0,1,0.345598,1.97279)" class="st1">
				<rect x="0" y="395.846" width="80.0787" height="32.8819" class="st2"/>
			</g>
			<rect x="0" y="395.846" width="80.0787" height="32.8819" class="st11"/>
			<text x="17.5" y="409.29" class="st6" v:langID="1031"><v:paragraph v:horizAlign="1"/><v:tabList/>Knowledge <tspan
						x="27.49" dy="1.2em" class="st12">Graph</tspan></text>		</g>
		<g id="shape81-147" v:mID="81" v:groupContext="shape" transform="translate(28.3465,-306.118)">
			<title>Rectangle.81</title>
			<desc>Local Data Providers</desc>
			<v:userDefs>
				<v:ud v:nameU="visVersion" v:val="VT0(15):26"/>
			</v:userDefs>
			<v:textBlock v:margins="rect(4,4,4,4)" v:tabSpace="42.5197"/>
			<v:textRect cx="31.1811" cy="412.287" width="62.37" height="32.8819"/>
			<g id="shadow81-148" v:groupContext="shadow" v:shadowOffsetX="0.345598" v:shadowOffsetY="-1.97279" v:shadowType="1"
					transform="matrix(1,0,0,1,0.345598,1.97279)" class="st1">
				<rect x="0" y="395.846" width="62.3622" height="32.8819" class="st2"/>
			</g>
			<rect x="0" y="395.846" width="62.3622" height="32.8819" class="st15"/>
			<text x="10.11" y="409.29" class="st6" v:langID="1031"><v:paragraph v:horizAlign="1"/><v:tabList/>Local Data <tspan
						x="12" dy="1.2em" class="st12">Providers</tspan></text>		</g>
		<g id="shape82-154" v:mID="82" v:groupContext="shape" transform="translate(28.3465,-345.107)">
			<title>Rectangle.91</title>
			<desc>Local Services</desc>
			<v:userDefs>
				<v:ud v:nameU="visVersion" v:val="VT0(15):26"/>
			</v:userDefs>
			<v:textBlock v:margins="rect(4,4,4,4)" v:tabSpace="42.5197"/>
			<v:textRect cx="31.1811" cy="412.287" width="62.37" height="32.8819"/>
			<g id="shadow82-155" v:groupContext="shadow" v:shadowOffsetX="0.345598" v:shadowOffsetY="-1.97279" v:shadowType="1"
					transform="matrix(1,0,0,1,0.345598,1.97279)" class="st1">
				<rect x="0" y="395.846" width="62.3622" height="32.8819" class="st2"/>
			</g>
			<rect x="0" y="395.846" width="62.3622" height="32.8819" class="st15"/>
			<text x="20.79" y="409.29" class="st6" v:langID="1031"><v:paragraph v:horizAlign="1"/><v:tabList/>Local <tspan
						x="14.69" dy="1.2em" class="st12">Services</tspan></text>		</g>
		<g id="shape83-161" v:mID="83" v:groupContext="shape" transform="translate(510.236,-261.638)">
			<title>Rectangle.72</title>
			<desc>Data Providers</desc>
			<v:userDefs>
				<v:ud v:nameU="visVersion" v:val="VT0(15):26"/>
			</v:userDefs>
			<v:textBlock v:margins="rect(4,4,4,4)" v:tabSpace="42.5197" v:verticalAlign="0"/>
			<v:textRect cx="49.6063" cy="370.618" width="99.22" height="116.22"/>
			<g id="shadow83-162" v:groupContext="shadow" v:shadowOffsetX="0.345598" v:shadowOffsetY="-1.97279" v:shadowType="1"
					transform="matrix(1,0,0,1,0.345598,1.97279)" class="st1">
				<rect x="0" y="312.507" width="99.2126" height="116.22" class="st2"/>
			</g>
			<rect x="0" y="312.507" width="99.2126" height="116.22" class="st16"/>
			<text x="35.51" y="325.51" class="st17" v:langID="1031"><v:paragraph v:horizAlign="2"/><v:tabList/>Data Providers</text>		</g>
		<g id="shape84-167" v:mID="84" v:groupContext="shape" transform="translate(521.938,-324.792)">
			<title>Rectangle.22</title>
			<desc>Data Provider 1</desc>
			<v:userDefs>
				<v:ud v:nameU="visVersion" v:val="VT0(15):26"/>
			</v:userDefs>
			<v:textBlock v:margins="rect(4,4,4,4)" v:tabSpace="42.5197"/>
			<v:textRect cx="40.0394" cy="412.287" width="80.08" height="32.8819"/>
			<g id="shadow84-168" v:groupContext="shadow" v:shadowOffsetX="0.345598" v:shadowOffsetY="-1.97279" v:shadowType="1"
					transform="matrix(1,0,0,1,0.345598,1.97279)" class="st1">
				<rect x="0" y="395.846" width="80.0787" height="32.8819" class="st2"/>
			</g>
			<rect x="0" y="395.846" width="80.0787" height="32.8819" class="st15"/>
			<text x="8.48" y="415.29" class="st6" v:langID="1031"><v:paragraph v:horizAlign="1"/><v:tabList/>Data Provider 1</text>		</g>
		<g id="shape85-173" v:mID="85" v:groupContext="shape" transform="translate(521.938,-272.304)">
			<title>Rectangle.77</title>
			<desc>Data Provider n</desc>
			<v:userDefs>
				<v:ud v:nameU="visVersion" v:val="VT0(15):26"/>
			</v:userDefs>
			<v:textBlock v:margins="rect(4,4,4,4)" v:tabSpace="42.5197"/>
			<v:textRect cx="40.0394" cy="412.287" width="80.08" height="32.8819"/>
			<g id="shadow85-174" v:groupContext="shadow" v:shadowOffsetX="0.345598" v:shadowOffsetY="-1.97279" v:shadowType="1"
					transform="matrix(1,0,0,1,0.345598,1.97279)" class="st1">
				<rect x="0" y="395.846" width="80.0787" height="32.8819" class="st2"/>
			</g>
			<rect x="0" y="395.846" width="80.0787" height="32.8819" class="st15"/>
			<text x="8.38" y="415.29" class="st6" v:langID="1031"><v:paragraph v:horizAlign="1"/><v:tabList/>Data Provider n</text>		</g>
		<g id="shape86-179" v:mID="86" v:groupContext="shape" transform="translate(536.111,-310.571)">
			<title>Circle.78</title>
			<v:userDefs>
				<v:ud v:nameU="visVersion" v:val="VT0(15):26"/>
			</v:userDefs>
			<g id="shadow86-180" v:groupContext="shadow" v:shadowOffsetX="0.345598" v:shadowOffsetY="-1.97279" v:shadowType="1"
					transform="matrix(1,0,0,1,0.345598,1.97279)" class="st1">
				<path d="M0 424.48 A4.25197 4.25197 0 0 1 8.5 424.48 A4.25197 4.25197 0 1 1 0 424.48 Z" class="st2"/>
			</g>
			<path d="M0 424.48 A4.25197 4.25197 0 0 1 8.5 424.48 A4.25197 4.25197 0 1 1 0 424.48 Z" class="st18"/>
		</g>
		<g id="shape87-184" v:mID="87" v:groupContext="shape" transform="translate(553.119,-310.571)">
			<title>Circle.79</title>
			<v:userDefs>
				<v:ud v:nameU="visVersion" v:val="VT0(15):26"/>
			</v:userDefs>
			<g id="shadow87-185" v:groupContext="shadow" v:shadowOffsetX="0.345598" v:shadowOffsetY="-1.97279" v:shadowType="1"
					transform="matrix(1,0,0,1,0.345598,1.97279)" class="st1">
				<path d="M0 424.48 A4.25197 4.25197 0 0 1 8.5 424.48 A4.25197 4.25197 0 1 1 0 424.48 Z" class="st2"/>
			</g>
			<path d="M0 424.48 A4.25197 4.25197 0 0 1 8.5 424.48 A4.25197 4.25197 0 1 1 0 424.48 Z" class="st18"/>
		</g>
		<g id="shape88-189" v:mID="88" v:groupContext="shape" transform="translate(570.127,-310.571)">
			<title>Circle.80</title>
			<v:userDefs>
				<v:ud v:nameU="visVersion" v:val="VT0(15):26"/>
			</v:userDefs>
			<g id="shadow88-190" v:groupContext="shadow" v:shadowOffsetX="0.345598" v:shadowOffsetY="-1.97279" v:shadowType="1"
					transform="matrix(1,0,0,1,0.345598,1.97279)" class="st1">
				<path d="M0 424.48 A4.25197 4.25197 0 0 1 8.5 424.48 A4.25197 4.25197 0 1 1 0 424.48 Z" class="st2"/>
			</g>
			<path d="M0 424.48 A4.25197 4.25197 0 0 1 8.5 424.48 A4.25197 4.25197 0 1 1 0 424.48 Z" class="st18"/>
		</g>
		<g id="shape89-194" v:mID="89" v:groupContext="shape" transform="translate(617.953,-261.638)">
			<title>Rectangle.89</title>
			<desc>External Services</desc>
			<v:userDefs>
				<v:ud v:nameU="visVersion" v:val="VT0(15):26"/>
			</v:userDefs>
			<v:textBlock v:margins="rect(4,4,4,4)" v:tabSpace="42.5197" v:verticalAlign="0"/>
			<v:textRect cx="49.6063" cy="370.618" width="99.22" height="116.22"/>
			<g id="shadow89-195" v:groupContext="shadow" v:shadowOffsetX="0.345598" v:shadowOffsetY="-1.97279" v:shadowType="1"
					transform="matrix(1,0,0,1,0.345598,1.97279)" class="st1">
				<rect x="0" y="312.507" width="99.2126" height="116.22" class="st2"/>
			</g>
			<rect x="0" y="312.507" width="99.2126" height="116.22" class="st16"/>
			<text x="26.6" y="325.51" class="st17" v:langID="1031"><v:paragraph v:horizAlign="2"/><v:tabList/>External Services</text>		</g>
		<g id="shape90-200" v:mID="90" v:groupContext="shape" transform="translate(625.645,-324.792)">
			<title>Rectangle.90</title>
			<desc>External Service 1</desc>
			<v:userDefs>
				<v:ud v:nameU="visVersion" v:val="VT0(15):26"/>
			</v:userDefs>
			<v:textBlock v:margins="rect(4,4,4,4)" v:tabSpace="42.5197"/>
			<v:textRect cx="42.0442" cy="412.287" width="84.09" height="32.8819"/>
			<g id="shadow90-201" v:groupContext="shadow" v:shadowOffsetX="0.345598" v:shadowOffsetY="-1.97279" v:shadowType="1"
					transform="matrix(1,0,0,1,0.345598,1.97279)" class="st1">
				<rect x="0" y="395.846" width="84.0883" height="32.8819" class="st2"/>
			</g>
			<rect x="0" y="395.846" width="84.0883" height="32.8819" class="st15"/>
			<text x="6.03" y="415.29" class="st6" v:langID="1031"><v:paragraph v:horizAlign="1"/><v:tabList/>External Service 1</text>		</g>
		<g id="shape91-206" v:mID="91" v:groupContext="shape" transform="translate(625.645,-272.304)">
			<title>Rectangle.91</title>
			<desc>External Service n</desc>
			<v:userDefs>
				<v:ud v:nameU="visVersion" v:val="VT0(15):26"/>
			</v:userDefs>
			<v:textBlock v:margins="rect(4,4,4,4)" v:tabSpace="42.5197"/>
			<v:textRect cx="42.0442" cy="412.287" width="84.09" height="32.8819"/>
			<g id="shadow91-207" v:groupContext="shadow" v:shadowOffsetX="0.345598" v:shadowOffsetY="-1.97279" v:shadowType="1"
					transform="matrix(1,0,0,1,0.345598,1.97279)" class="st1">
				<rect x="0" y="395.846" width="84.0883" height="32.8819" class="st2"/>
			</g>
			<rect x="0" y="395.846" width="84.0883" height="32.8819" class="st15"/>
			<text x="5.94" y="415.29" class="st6" v:langID="1031"><v:paragraph v:horizAlign="1"/><v:tabList/>External Service n</text>		</g>
		<g id="shape92-212" v:mID="92" v:groupContext="shape" transform="translate(643.828,-310.571)">
			<title>Circle.92</title>
			<v:userDefs>
				<v:ud v:nameU="visVersion" v:val="VT0(15):26"/>
			</v:userDefs>
			<g id="shadow92-213" v:groupContext="shadow" v:shadowOffsetX="0.345598" v:shadowOffsetY="-1.97279" v:shadowType="1"
					transform="matrix(1,0,0,1,0.345598,1.97279)" class="st1">
				<path d="M0 424.48 A4.25197 4.25197 0 0 1 8.5 424.48 A4.25197 4.25197 0 1 1 0 424.48 Z" class="st2"/>
			</g>
			<path d="M0 424.48 A4.25197 4.25197 0 0 1 8.5 424.48 A4.25197 4.25197 0 1 1 0 424.48 Z" class="st18"/>
		</g>
		<g id="shape93-217" v:mID="93" v:groupContext="shape" transform="translate(660.836,-310.571)">
			<title>Circle.93</title>
			<v:userDefs>
				<v:ud v:nameU="visVersion" v:val="VT0(15):26"/>
			</v:userDefs>
			<g id="shadow93-218" v:groupContext="shadow" v:shadowOffsetX="0.345598" v:shadowOffsetY="-1.97279" v:shadowType="1"
					transform="matrix(1,0,0,1,0.345598,1.97279)" class="st1">
				<path d="M0 424.48 A4.25197 4.25197 0 0 1 8.5 424.48 A4.25197 4.25197 0 1 1 0 424.48 Z" class="st2"/>
			</g>
			<path d="M0 424.48 A4.25197 4.25197 0 0 1 8.5 424.48 A4.25197 4.25197 0 1 1 0 424.48 Z" class="st18"/>
		</g>
		<g id="shape94-222" v:mID="94" v:groupContext="shape" transform="translate(677.843,-310.571)">
			<title>Circle.94</title>
			<v:userDefs>
				<v:ud v:nameU="visVersion" v:val="VT0(15):26"/>
			</v:userDefs>
			<g id="shadow94-223" v:groupContext="shadow" v:shadowOffsetX="0.345598" v:shadowOffsetY="-1.97279" v:shadowType="1"
					transform="matrix(1,0,0,1,0.345598,1.97279)" class="st1">
				<path d="M0 424.48 A4.25197 4.25197 0 0 1 8.5 424.48 A4.25197 4.25197 0 1 1 0 424.48 Z" class="st2"/>
			</g>
			<path d="M0 424.48 A4.25197 4.25197 0 0 1 8.5 424.48 A4.25197 4.25197 0 1 1 0 424.48 Z" class="st18"/>
		</g>
		<g id="shape95-227" v:mID="95" v:groupContext="shape" transform="translate(505.078,-51)">
			<title>Rectangle.12</title>
			<desc>IPA Providers</desc>
			<v:userDefs>
				<v:ud v:nameU="visVersion" v:val="VT0(15):26"/>
			</v:userDefs>
			<v:textBlock v:margins="rect(4,4,4,4)" v:tabSpace="42.5197" v:verticalAlign="0"/>
			<v:textRect cx="169.823" cy="347.941" width="339.65" height="161.575"/>
			<g id="shadow95-228" v:groupContext="shadow" v:shadowOffsetX="0.345598" v:shadowOffsetY="-1.97279" v:shadowType="1"
					transform="matrix(1,0,0,1,0.345598,1.97279)" class="st1">
				<rect x="0" y="267.153" width="339.647" height="161.575" class="st2"/>
			</g>
			<rect x="0" y="267.153" width="339.647" height="161.575" class="st16"/>
			<text x="281.55" y="280.15" class="st17" v:langID="1031"><v:paragraph v:horizAlign="2"/><v:tabList/>IPA Providers</text>		</g>
		<g id="shape96-233" v:mID="96" v:groupContext="shape" transform="translate(516.78,-57.0476)">
			<title>Rectangle.36</title>
			<desc>IPA Provider n</desc>
			<v:userDefs>
				<v:ud v:nameU="visVersion" v:val="VT0(15):26"/>
			</v:userDefs>
			<v:textBlock v:margins="rect(4,4,4,4)" v:tabSpace="42.5197" v:verticalAlign="0"/>
			<v:textRect cx="149.445" cy="399.318" width="298.89" height="58.8189"/>
			<g id="shadow96-234" v:groupContext="shadow" v:shadowOffsetX="0.345598" v:shadowOffsetY="-1.97279" v:shadowType="1"
					transform="matrix(1,0,0,1,0.345598,1.97279)" class="st1">
				<rect x="0" y="369.909" width="298.89" height="58.8189" class="st2"/>
			</g>
			<rect x="0" y="369.909" width="298.89" height="58.8189" class="st19"/>
			<text x="237.19" y="382.91" class="st17" v:langID="1031"><v:paragraph v:horizAlign="2"/><v:tabList/>IPA Provider n</text>		</g>
		<g id="shape97-239" v:mID="97" v:groupContext="shape" transform="translate(735.591,-66.0472)">
			<title>Rectangle.39</title>
			<desc>...</desc>
			<v:userDefs>
				<v:ud v:nameU="visVersion" v:val="VT0(15):26"/>
			</v:userDefs>
			<v:textBlock v:margins="rect(4,4,4,4)" v:tabSpace="42.5197"/>
			<v:textRect cx="31.1811" cy="413.137" width="62.37" height="31.1811"/>
			<g id="shadow97-240" v:groupContext="shadow" v:shadowOffsetX="0.345598" v:shadowOffsetY="-1.97279" v:shadowType="1"
					transform="matrix(1,0,0,1,0.345598,1.97279)" class="st1">
				<rect x="0" y="397.547" width="62.3622" height="31.1811" class="st2"/>
			</g>
			<rect x="0" y="397.547" width="62.3622" height="31.1811" class="st15"/>
			<text x="27.39" y="416.14" class="st6" v:langID="1031"><v:paragraph v:horizAlign="1"/><v:tabList/>...</text>		</g>
		<g id="shape98-245" v:mID="98" v:groupContext="shape" transform="translate(666.142,-66.0472)">
			<title>Rectangle.40</title>
			<desc>Provider Intent Set</desc>
			<v:userDefs>
				<v:ud v:nameU="visVersion" v:val="VT0(15):26"/>
			</v:userDefs>
			<v:textBlock v:margins="rect(4,4,4,4)" v:tabSpace="42.5197"/>
			<v:textRect cx="31.1811" cy="413.137" width="62.37" height="31.1811"/>
			<g id="shadow98-246" v:groupContext="shadow" v:shadowOffsetX="0.345598" v:shadowOffsetY="-1.97279" v:shadowType="1"
					transform="matrix(1,0,0,1,0.345598,1.97279)" class="st1">
				<rect x="0" y="397.547" width="62.3622" height="31.1811" class="st2"/>
			</g>
			<rect x="0" y="397.547" width="62.3622" height="31.1811" class="st15"/>
			<text x="13.95" y="410.14" class="st6" v:langID="1031"><v:paragraph v:horizAlign="1"/><v:tabList/>Provider <tspan
						x="11.24" dy="1.2em" class="st12">Intent Set</tspan></text>		</g>
		<g id="shape99-252" v:mID="99" v:groupContext="shape" transform="translate(596.858,-119.41)">
			<title>Circle</title>
			<v:userDefs>
				<v:ud v:nameU="visVersion" v:val="VT0(15):26"/>
			</v:userDefs>
			<g id="shadow99-253" v:groupContext="shadow" v:shadowOffsetX="0.345598" v:shadowOffsetY="-1.97279" v:shadowType="1"
					transform="matrix(1,0,0,1,0.345598,1.97279)" class="st1">
				<path d="M0 424.48 A4.25197 4.25197 0 0 1 8.5 424.48 A4.25197 4.25197 0 1 1 0 424.48 Z" class="st2"/>
			</g>
			<path d="M0 424.48 A4.25197 4.25197 0 0 1 8.5 424.48 A4.25197 4.25197 0 1 1 0 424.48 Z" class="st18"/>
		</g>
		<g id="shape100-257" v:mID="100" v:groupContext="shape" transform="translate(613.866,-119.41)">
			<title>Circle.42</title>
			<v:userDefs>
				<v:ud v:nameU="visVersion" v:val="VT0(15):26"/>
			</v:userDefs>
			<g id="shadow100-258" v:groupContext="shadow" v:shadowOffsetX="0.345598" v:shadowOffsetY="-1.97279" v:shadowType="1"
					transform="matrix(1,0,0,1,0.345598,1.97279)" class="st1">
				<path d="M0 424.48 A4.25197 4.25197 0 0 1 8.5 424.48 A4.25197 4.25197 0 1 1 0 424.48 Z" class="st2"/>
			</g>
			<path d="M0 424.48 A4.25197 4.25197 0 0 1 8.5 424.48 A4.25197 4.25197 0 1 1 0 424.48 Z" class="st18"/>
		</g>
		<g id="shape101-262" v:mID="101" v:groupContext="shape" transform="translate(630.874,-119.41)">
			<title>Circle.43</title>
			<v:userDefs>
				<v:ud v:nameU="visVersion" v:val="VT0(15):26"/>
			</v:userDefs>
			<g id="shadow101-263" v:groupContext="shadow" v:shadowOffsetX="0.345598" v:shadowOffsetY="-1.97279" v:shadowType="1"
					transform="matrix(1,0,0,1,0.345598,1.97279)" class="st1">
				<path d="M0 424.48 A4.25197 4.25197 0 0 1 8.5 424.48 A4.25197 4.25197 0 1 1 0 424.48 Z" class="st2"/>
			</g>
			<path d="M0 424.48 A4.25197 4.25197 0 0 1 8.5 424.48 A4.25197 4.25197 0 1 1 0 424.48 Z" class="st18"/>
		</g>
		<g id="shape102-267" v:mID="102" v:groupContext="shape" transform="translate(596.693,-66.0472)">
			<title>Rectangle.57</title>
			<desc>Provider NLU</desc>
			<v:userDefs>
				<v:ud v:nameU="visVersion" v:val="VT0(15):26"/>
			</v:userDefs>
			<v:textBlock v:margins="rect(4,4,4,4)" v:tabSpace="42.5197"/>
			<v:textRect cx="31.1811" cy="413.137" width="62.37" height="31.1811"/>
			<g id="shadow102-268" v:groupContext="shadow" v:shadowOffsetX="0.345598" v:shadowOffsetY="-1.97279" v:shadowType="1"
					transform="matrix(1,0,0,1,0.345598,1.97279)" class="st1">
				<rect x="0" y="397.547" width="62.3622" height="31.1811" class="st2"/>
			</g>
			<rect x="0" y="397.547" width="62.3622" height="31.1811" class="st15"/>
			<text x="4.29" y="416.14" class="st6" v:langID="1031"><v:paragraph v:horizAlign="1"/><v:tabList/>Provider NLU</text>		</g>
		<g id="shape103-273" v:mID="103" v:groupContext="shape" transform="translate(517.488,-132.52)">
			<title>Rectangle.103</title>
			<desc>IPA Provider 1</desc>
			<v:userDefs>
				<v:ud v:nameU="visVersion" v:val="VT0(15):26"/>
			</v:userDefs>
			<v:textBlock v:margins="rect(4,4,4,4)" v:tabSpace="42.5197" v:verticalAlign="0"/>
			<v:textRect cx="149.445" cy="399.318" width="298.89" height="58.8189"/>
			<g id="shadow103-274" v:groupContext="shadow" v:shadowOffsetX="0.345598" v:shadowOffsetY="-1.97279" v:shadowType="1"
					transform="matrix(1,0,0,1,0.345598,1.97279)" class="st1">
				<rect x="0" y="369.909" width="298.89" height="58.8189" class="st2"/>
			</g>
			<rect x="0" y="369.909" width="298.89" height="58.8189" class="st19"/>
			<text x="237.38" y="382.91" class="st17" v:langID="1031"><v:paragraph v:horizAlign="2"/><v:tabList/>IPA Provider 1</text>		</g>
		<g id="shape104-279" v:mID="104" v:groupContext="shape" transform="translate(734.173,-141.165)">
			<title>Rectangle.73</title>
			<desc>...</desc>
			<v:userDefs>
				<v:ud v:nameU="visVersion" v:val="VT0(15):26"/>
			</v:userDefs>
			<v:textBlock v:margins="rect(4,4,4,4)" v:tabSpace="42.5197"/>
			<v:textRect cx="31.1811" cy="413.137" width="62.37" height="31.1811"/>
			<g id="shadow104-280" v:groupContext="shadow" v:shadowOffsetX="0.345598" v:shadowOffsetY="-1.97279" v:shadowType="1"
					transform="matrix(1,0,0,1,0.345598,1.97279)" class="st1">
				<rect x="0" y="397.547" width="62.3622" height="31.1811" class="st2"/>
			</g>
			<rect x="0" y="397.547" width="62.3622" height="31.1811" class="st15"/>
			<text x="27.39" y="416.14" class="st6" v:langID="1031"><v:paragraph v:horizAlign="1"/><v:tabList/>...</text>		</g>
		<g id="shape105-285" v:mID="105" v:groupContext="shape" transform="translate(664.724,-141.165)">
			<title>Rectangle.74</title>
			<desc>Provider Intent Set</desc>
			<v:userDefs>
				<v:ud v:nameU="visVersion" v:val="VT0(15):26"/>
			</v:userDefs>
			<v:textBlock v:margins="rect(4,4,4,4)" v:tabSpace="42.5197"/>
			<v:textRect cx="31.1811" cy="413.137" width="62.37" height="31.1811"/>
			<g id="shadow105-286" v:groupContext="shadow" v:shadowOffsetX="0.345598" v:shadowOffsetY="-1.97279" v:shadowType="1"
					transform="matrix(1,0,0,1,0.345598,1.97279)" class="st1">
				<rect x="0" y="397.547" width="62.3622" height="31.1811" class="st2"/>
			</g>
			<rect x="0" y="397.547" width="62.3622" height="31.1811" class="st15"/>
			<text x="13.95" y="410.14" class="st6" v:langID="1031"><v:paragraph v:horizAlign="1"/><v:tabList/>Provider <tspan
						x="11.24" dy="1.2em" class="st12">Intent Set</tspan></text>		</g>
		<g id="shape106-292" v:mID="106" v:groupContext="shape" transform="translate(595.276,-141.165)">
			<title>Rectangle.75</title>
			<desc>Provider NLU</desc>
			<v:userDefs>
				<v:ud v:nameU="visVersion" v:val="VT0(15):26"/>
			</v:userDefs>
			<v:textBlock v:margins="rect(4,4,4,4)" v:tabSpace="42.5197"/>
			<v:textRect cx="31.1811" cy="413.137" width="62.37" height="31.1811"/>
			<g id="shadow106-293" v:groupContext="shadow" v:shadowOffsetX="0.345598" v:shadowOffsetY="-1.97279" v:shadowType="1"
					transform="matrix(1,0,0,1,0.345598,1.97279)" class="st1">
				<rect x="0" y="397.547" width="62.3622" height="31.1811" class="st2"/>
			</g>
			<rect x="0" y="397.547" width="62.3622" height="31.1811" class="st15"/>
			<text x="4.29" y="416.14" class="st6" v:langID="1031"><v:paragraph v:horizAlign="1"/><v:tabList/>Provider NLU</text>		</g>
		<g id="shape107-298" v:mID="107" v:groupContext="shape" transform="translate(158.386,-343.843)">
			<title>Rectangle.107</title>
			<desc>History</desc>
			<v:userDefs>
				<v:ud v:nameU="visVersion" v:val="VT0(15):26"/>
			</v:userDefs>
			<v:textBlock v:margins="rect(4,4,4,4)" v:tabSpace="42.5197"/>
			<v:textRect cx="40.0394" cy="412.287" width="80.08" height="32.8819"/>
			<g id="shadow107-299" v:groupContext="shadow" v:shadowOffsetX="0.345598" v:shadowOffsetY="-1.97279" v:shadowType="1"
					transform="matrix(1,0,0,1,0.345598,1.97279)" class="st1">
				<rect x="0" y="395.846" width="80.0787" height="32.8819" class="st2"/>
			</g>
			<rect x="0" y="395.846" width="80.0787" height="32.8819" class="st11"/>
			<text x="25.5" y="415.29" class="st6" v:langID="1031"><v:paragraph v:horizAlign="1"/><v:tabList/>History</text>		</g>
		<g id="shape108-304" v:mID="108" v:groupContext="shape" transform="translate(444.331,-324.792)">
			<title>Rectangle.4</title>
			<desc>Accounts / Authenti-cation</desc>
			<v:userDefs>
				<v:ud v:nameU="visVersion" v:val="VT0(15):26"/>
			</v:userDefs>
			<v:textBlock v:margins="rect(4,4,4,4)" v:tabSpace="42.5197"/>
			<v:textRect cx="25.8661" cy="412.287" width="51.74" height="32.8819"/>
			<g id="shadow108-305" v:groupContext="shadow" v:shadowOffsetX="0.345598" v:shadowOffsetY="-1.97279" v:shadowType="1"
					transform="matrix(1,0,0,1,0.345598,1.97279)" class="st1">
				<rect x="0" y="395.846" width="51.7323" height="32.8819" class="st2"/>
			</g>
			<rect x="0" y="395.846" width="51.7323" height="32.8819" class="st20"/>
			<text x="4.16" y="403.29" class="st6" v:langID="1031"><v:paragraph v:horizAlign="1"/><v:tabList/>Accounts /<v:newlineChar/><tspan
						x="6.58" dy="1.2em" class="st12">Authenti</tspan>-<tspan x="13.27" dy="1.2em" class="st12">cation</tspan></text>		</g>
		<g id="shape109-312" v:mID="109" v:groupContext="shape" transform="translate(444.331,-272.304)">
			<title>Rectangle.62</title>
			<desc>Provider Registry</desc>
			<v:userDefs>
				<v:ud v:nameU="visVersion" v:val="VT0(15):26"/>
			</v:userDefs>
			<v:textBlock v:margins="rect(4,4,4,4)" v:tabSpace="42.5197"/>
			<v:textRect cx="25.8661" cy="412.287" width="51.74" height="32.8819"/>
			<g id="shadow109-313" v:groupContext="shadow" v:shadowOffsetX="0.345598" v:shadowOffsetY="-1.97279" v:shadowType="1"
					transform="matrix(1,0,0,1,0.345598,1.97279)" class="st1">
				<rect x="0" y="395.846" width="51.7323" height="32.8819" class="st2"/>
			</g>
			<rect x="0" y="395.846" width="51.7323" height="32.8819" class="st20"/>
			<text x="8.64" y="409.29" class="st6" v:langID="1031"><v:paragraph v:horizAlign="1"/><v:tabList/>Provider<v:newlineChar/><tspan
						x="9.53" dy="1.2em" class="st12">Registry</tspan></text>		</g>
		<g id="shape110-319" v:mID="110" v:groupContext="shape" transform="translate(29.5127,-70.2992)">
			<title>Rectangle.92</title>
			<desc>Speaker</desc>
			<v:userDefs>
				<v:ud v:nameU="visVersion" v:val="VT0(15):26"/>
			</v:userDefs>
			<v:textBlock v:margins="rect(4,4,4,4)" v:tabSpace="42.5197"/>
			<v:textRect cx="31.1811" cy="420.564" width="62.37" height="16.3273"/>
			<g id="shadow110-320" v:groupContext="shadow" v:shadowOffsetX="0.345598" v:shadowOffsetY="-1.97279" v:shadowType="1"
					transform="matrix(1,0,0,1,0.345598,1.97279)" class="st1">
				<rect x="0" y="412.401" width="62.3622" height="16.3273" class="st2"/>
			</g>
			<rect x="0" y="412.401" width="62.3622" height="16.3273" class="st10"/>
			<text x="14.87" y="423.56" class="st6" v:langID="1031"><v:paragraph v:horizAlign="1"/><v:tabList/>Speaker</text>		</g>
		<g id="shape111-325" v:mID="111" v:groupContext="shape" transform="translate(29.5127,-51)">
			<title>Rectangle.93</title>
			<desc>Microphone</desc>
			<v:userDefs>
				<v:ud v:nameU="visVersion" v:val="VT0(15):26"/>
			</v:userDefs>
			<v:textBlock v:margins="rect(4,4,4,4)" v:tabSpace="42.5197"/>
			<v:textRect cx="31.1811" cy="420.564" width="62.37" height="16.3273"/>
			<g id="shadow111-326" v:groupContext="shadow" v:shadowOffsetX="0.345598" v:shadowOffsetY="-1.97279" v:shadowType="1"
					transform="matrix(1,0,0,1,0.345598,1.97279)" class="st1">
				<rect x="0" y="412.401" width="62.3622" height="16.3273" class="st2"/>
			</g>
			<rect x="0" y="412.401" width="62.3622" height="16.3273" class="st10"/>
			<text x="6.26" y="423.56" class="st6" v:langID="1031"><v:paragraph v:horizAlign="1"/><v:tabList/>Microphone</text>		</g>
		<g id="shape112-331" v:mID="112" v:groupContext="shape" transform="translate(525.992,-141.165)">
			<title>Rectangle.112</title>
			<desc>Provider ASR</desc>
			<v:userDefs>
				<v:ud v:nameU="visVersion" v:val="VT0(15):26"/>
			</v:userDefs>
			<v:textBlock v:margins="rect(4,4,4,4)" v:tabSpace="42.5197"/>
			<v:textRect cx="31.1811" cy="413.137" width="62.37" height="31.1811"/>
			<g id="shadow112-332" v:groupContext="shadow" v:shadowOffsetX="0.345598" v:shadowOffsetY="-1.97279" v:shadowType="1"
					transform="matrix(1,0,0,1,0.345598,1.97279)" class="st1">
				<rect x="0" y="397.547" width="62.3622" height="31.1811" class="st2"/>
			</g>
			<rect x="0" y="397.547" width="62.3622" height="31.1811" class="st15"/>
			<text x="4.92" y="416.14" class="st6" v:langID="1031"><v:paragraph v:horizAlign="1"/><v:tabList/>Provider ASR</text>		</g>
		<g id="shape113-337" v:mID="113" v:groupContext="shape" transform="translate(527.876,-66.0472)">
			<title>Rectangle.113</title>
			<desc>Provider ASR</desc>
			<v:userDefs>
				<v:ud v:nameU="visVersion" v:val="VT0(15):26"/>
			</v:userDefs>
			<v:textBlock v:margins="rect(4,4,4,4)" v:tabSpace="42.5197"/>
			<v:textRect cx="31.1811" cy="413.137" width="62.37" height="31.1811"/>
			<g id="shadow113-338" v:groupContext="shadow" v:shadowOffsetX="0.345598" v:shadowOffsetY="-1.97279" v:shadowType="1"
					transform="matrix(1,0,0,1,0.345598,1.97279)" class="st1">
				<rect x="0" y="397.547" width="62.3622" height="31.1811" class="st2"/>
			</g>
			<rect x="0" y="397.547" width="62.3622" height="31.1811" class="st15"/>
			<text x="4.92" y="416.14" class="st6" v:langID="1031"><v:paragraph v:horizAlign="1"/><v:tabList/>Provider ASR</text>		</g>
	</g>
</svg>
