<?xml version="1.0" encoding="UTF-8" standalone="no"?>
<!DOCTYPE svg PUBLIC "-//W3C//DTD SVG 1.1//EN" "http://www.w3.org/Graphics/SVG/1.1/DTD/svg11.dtd">
<!-- Generated by Microsoft Visio, SVG Export IPA-Architecture-1-1.svg Page-1 -->
<svg xmlns="http://www.w3.org/2000/svg" xmlns:xlink="http://www.w3.org/1999/xlink" xmlns:ev="http://www.w3.org/2001/xml-events"
		xmlns:v="http://schemas.microsoft.com/visio/2003/SVGExtensions/" width="11.7039in" height="5.33677in"
		viewBox="0 0 842.684 384.248" xml:space="preserve" color-interpolation-filters="sRGB" class="st20">
	<v:documentProperties v:langID="1033" v:metric="true" v:viewMarkup="false">
		<v:userDefs>
			<v:ud v:nameU="msvSubprocessMaster" v:prompt="" v:val="VT4(Rectangle)"/>
			<v:ud v:nameU="msvNoAutoConnect" v:val="VT0(1):26"/>
		</v:userDefs>
	</v:documentProperties>

	<style type="text/css">
	<![CDATA[
		.st1 {visibility:visible}
		.st2 {fill:#5b9bd5;fill-opacity:0.22;filter:url(#filter_2);stroke:none}
		.st3 {fill:#f4b183;stroke:none;stroke-width:1}
		.st4 {fill:#ffffff;font-family:Calibri;font-size:0.833336em}
		.st5 {fill:#c55a11;stroke:none;stroke-width:0.25}
		.st6 {fill:#feffff;font-family:Calibri;font-size:0.833336em}
		.st7 {fill:#90aadb;stroke:none;stroke-width:1}
		.st8 {fill:#dae2f3;stroke:none;stroke-width:1}
		.st9 {fill:#000000;font-family:Calibri;font-size:0.833336em}
		.st10 {fill:#e2efd9;stroke:none;stroke-width:1}
		.st11 {fill:#3f3f3f;font-family:Calibri;font-size:0.833336em}
		.st12 {fill:#70ad47;stroke:none;stroke-width:0.25}
		.st13 {fill:#5b9bd5;stroke:none;stroke-width:0.25}
		.st14 {font-size:1em}
		.st15 {fill:#833c0b;stroke:none;stroke-width:0.25}
		.st16 {stroke:none;stroke-linecap:round;stroke-linejoin:round;stroke-width:1}
		.st17 {fill:#d8d8d8;stroke:none;stroke-width:1}
		.st18 {fill:#a5a5a5;stroke:none;stroke-width:0.25}
		.st19 {fill:#7f7f7f;stroke:none;stroke-width:0.25}
		.st20 {fill:none;fill-rule:evenodd;font-size:12px;overflow:visible;stroke-linecap:square;stroke-miterlimit:3}
	]]>
	</style>

	<defs id="Filters">
		<filter id="filter_2">
			<feGaussianBlur stdDeviation="2"/>
		</filter>
	</defs>
	<g v:mID="0" v:index="1" v:groupContext="foregroundPage">
		<v:userDefs>
			<v:ud v:nameU="msvThemeOrder" v:val="VT0(0):26"/>
		</v:userDefs>
		<title>Page-1</title>
		<v:pageProperties v:drawingScale="0.0393701" v:pageScale="0.0393701" v:drawingUnits="24" v:shadowOffsetX="8.50394"
				v:shadowOffsetY="-8.50394"/>
		<v:layer v:name="Annotations" v:index="0"/>
		<v:layer v:name="Connector" v:index="1"/>
		<g id="shape47-1" v:mID="47" v:groupContext="shape" transform="translate(107.82,-23.6815)">
			<title>Rectangle.47</title>
			<desc>Dialog</desc>
			<v:userDefs>
				<v:ud v:nameU="visVersion" v:val="VT0(15):26"/>
			</v:userDefs>
			<v:textBlock v:margins="rect(4,4,4,4)" v:tabSpace="42.5197" v:verticalAlign="2"/>
			<v:textRect cx="155.854" cy="214.382" width="311.71" height="339.732"/>
			<g id="shadow47-2" v:groupContext="shadow" v:shadowOffsetX="0.345598" v:shadowOffsetY="-1.97279" v:shadowType="1"
					transform="matrix(1,0,0,1,0.345598,1.97279)" class="st1">
				<rect x="0" y="44.5154" width="311.708" height="339.732" class="st2"/>
			</g>
			<rect x="0" y="44.5154" width="311.708" height="339.732" class="st3"/>
			<text x="282.19" y="377.25" class="st4" v:langID="1031"><v:paragraph v:horizAlign="2"/><v:tabList/>Dialog</text>		</g>
		<g id="shape71-7" v:mID="71" v:groupContext="shape" transform="translate(261.28,-40.5354)">
			<title>Rectangle.71</title>
			<desc>Dialogs</desc>
			<v:userDefs>
				<v:ud v:nameU="visVersion" v:val="VT0(15):26"/>
			</v:userDefs>
			<v:textBlock v:margins="rect(4,4,4,4)" v:tabSpace="42.5197" v:verticalAlign="2"/>
			<v:textRect cx="75.0665" cy="279.289" width="150.14" height="209.918"/>
			<g id="shadow71-8" v:groupContext="shadow" v:shadowOffsetX="0.345598" v:shadowOffsetY="-1.97279" v:shadowType="1"
					transform="matrix(1,0,0,1,0.345598,1.97279)" class="st1">
				<rect x="0" y="174.33" width="150.133" height="209.918" class="st2"/>
			</g>
			<rect x="0" y="174.33" width="150.133" height="209.918" class="st5"/>
			<text x="116.71" y="377.25" class="st6" v:langID="1031"><v:paragraph v:horizAlign="2"/><v:tabList/>Dialogs</text>		</g>
		<g id="shape48-13" v:mID="48" v:groupContext="shape" transform="translate(425.197,-25.4882)">
			<title>Rectangle.48</title>
			<desc>APIs / Data</desc>
			<v:userDefs>
				<v:ud v:nameU="visVersion" v:val="VT0(15):26"/>
			</v:userDefs>
			<v:textBlock v:margins="rect(4,4,4,4)" v:tabSpace="42.5197" v:verticalAlign="2"/>
			<v:textRect cx="198.071" cy="214.382" width="396.15" height="339.732"/>
			<g id="shadow48-14" v:groupContext="shadow" v:shadowOffsetX="0.345598" v:shadowOffsetY="-1.97279" v:shadowType="1"
					transform="matrix(1,0,0,1,0.345598,1.97279)" class="st1">
				<rect x="0" y="44.5154" width="396.142" height="339.732" class="st2"/>
			</g>
			<rect x="0" y="44.5154" width="396.142" height="339.732" class="st7"/>
			<text x="347.29" y="377.25" class="st6" v:langID="1031"><v:paragraph v:horizAlign="2"/><v:tabList/>APIs / Data</text>		</g>
		<g id="shape44-19" v:mID="44" v:groupContext="shape" transform="translate(485.304,-282.591)">
			<title>Rectangle.44</title>
			<desc>Core Provider</desc>
			<v:userDefs>
				<v:ud v:nameU="visVersion" v:val="VT0(15):26"/>
			</v:userDefs>
			<v:textBlock v:margins="rect(4,4,4,4)" v:tabSpace="42.5197" v:verticalAlign="0"/>
			<v:textRect cx="161.143" cy="348.106" width="322.29" height="72.2835"/>
			<rect x="0" y="311.964" width="322.286" height="72.2835" class="st8"/>
			<text x="262.51" y="324.96" class="st9" v:langID="1031"><v:paragraph v:horizAlign="2"/><v:tabList/>Core Provider</text>		</g>
		<g id="shape46-22" v:mID="46" v:groupContext="shape" transform="translate(437.953,-43.3701)">
			<title>Rectangle.46</title>
			<v:userDefs>
				<v:ud v:nameU="visVersion" v:val="VT0(15):26"/>
			</v:userDefs>
			<rect x="0" y="72.7437" width="73.9867" height="311.504" class="st8"/>
		</g>
		<g id="shape50-24" v:mID="50" v:groupContext="shape" transform="translate(20.6544,-22.9728)">
			<title>Rectangle.50</title>
			<desc>Client</desc>
			<v:userDefs>
				<v:ud v:nameU="visVersion" v:val="VT0(15):26"/>
			</v:userDefs>
			<v:textBlock v:margins="rect(4,4,4,4)" v:tabSpace="42.5197" v:verticalAlign="2"/>
			<v:textRect cx="40.0394" cy="214.382" width="80.08" height="339.732"/>
			<g id="shadow50-25" v:groupContext="shadow" v:shadowOffsetX="0.345598" v:shadowOffsetY="-1.97279" v:shadowType="1"
					transform="matrix(1,0,0,1,0.345598,1.97279)" class="st1">
				<rect x="0" y="44.5154" width="80.0787" height="339.732" class="st2"/>
			</g>
			<rect x="0" y="44.5154" width="80.0787" height="339.732" class="st10"/>
			<text x="52.58" y="377.25" class="st11" v:langID="1031"><v:paragraph v:horizAlign="2"/><v:tabList/>Client</text>		</g>
		<g id="shape1-30" v:mID="1" v:groupContext="shape" transform="translate(29.867,-40.5354)">
			<title>Rectangle</title>
			<desc>IPA Client</desc>
			<v:userDefs>
				<v:ud v:nameU="visVersion" v:val="VT0(15):26"/>
			</v:userDefs>
			<v:textBlock v:margins="rect(4,4,4,4)" v:tabSpace="42.5197"/>
			<v:textRect cx="31.1811" cy="236.486" width="62.37" height="295.524"/>
			<g id="shadow1-31" v:groupContext="shadow" v:shadowOffsetX="0.345598" v:shadowOffsetY="-1.97279" v:shadowType="1"
					transform="matrix(1,0,0,1,0.345598,1.97279)" class="st1">
				<rect x="0" y="88.7237" width="62.3622" height="295.524" class="st2"/>
			</g>
			<rect x="0" y="88.7237" width="62.3622" height="295.524" class="st12"/>
			<text x="11.56" y="239.49" class="st6" v:langID="1031"><v:paragraph v:horizAlign="1"/><v:tabList/>IPA Client</text>		</g>
		<g id="shape2-36" v:mID="2" v:groupContext="shape" transform="translate(-240.995,343.712) rotate(-90)">
			<title>Rectangle.2</title>
			<desc>IPA Service</desc>
			<v:userDefs>
				<v:ud v:nameU="visVersion" v:val="VT0(15):26"/>
			</v:userDefs>
			<v:textBlock v:margins="rect(4,4,4,4)" v:tabSpace="42.5197"/>
			<v:textRect cx="147.762" cy="370.074" width="295.53" height="28.3465"/>
			<g id="shadow2-37" v:groupContext="shadow" v:shadowOffsetX="0.345598" v:shadowOffsetY="-1.97279" v:shadowType="1"
					transform="matrix(1,0,0,1,-1.97279,0.345598)" class="st1">
				<rect x="0" y="355.901" width="295.524" height="28.3465" class="st2"/>
			</g>
			<rect x="0" y="355.901" width="295.524" height="28.3465" class="st5"/>
			<text x="125.36" y="373.07" class="st6" v:langID="1031"><v:paragraph v:horizAlign="1"/><v:tabList/>IPA Service</text>		</g>
		<g id="shape3-42" v:mID="3" v:groupContext="shape" transform="translate(146.796,-83.0551)">
			<title>Rectangle.3</title>
			<desc>Dialog Management</desc>
			<v:userDefs>
				<v:ud v:nameU="visVersion" v:val="VT0(15):26"/>
			</v:userDefs>
			<v:textBlock v:margins="rect(4,4,4,4)" v:tabSpace="42.5197"/>
			<v:textRect cx="53.1496" cy="299.273" width="106.3" height="169.949"/>
			<g id="shadow3-43" v:groupContext="shadow" v:shadowOffsetX="0.345598" v:shadowOffsetY="-1.97279" v:shadowType="1"
					transform="matrix(1,0,0,1,0.345598,1.97279)" class="st1">
				<rect x="0" y="214.298" width="106.299" height="169.949" class="st2"/>
			</g>
			<rect x="0" y="214.298" width="106.299" height="169.949" class="st5"/>
			<text x="11.95" y="302.27" class="st6" v:langID="1031"><v:paragraph v:horizAlign="1"/><v:tabList/>Dialog Management</text>		</g>
		<g id="shape4-48" v:mID="4" v:groupContext="shape" transform="translate(538.583,-296.764)">
			<title>Rectangle.4</title>
			<desc>Accounts / Authentication</desc>
			<v:userDefs>
				<v:ud v:nameU="visVersion" v:val="VT0(15):26"/>
			</v:userDefs>
			<v:textBlock v:margins="rect(4,4,4,4)" v:tabSpace="42.5197"/>
			<v:textRect cx="40.0394" cy="363.696" width="80.08" height="41.1024"/>
			<g id="shadow4-49" v:groupContext="shadow" v:shadowOffsetX="0.345598" v:shadowOffsetY="-1.97279" v:shadowType="1"
					transform="matrix(1,0,0,1,0.345598,1.97279)" class="st1">
				<rect x="0" y="343.145" width="80.0787" height="41.1024" class="st2"/>
			</g>
			<rect x="0" y="343.145" width="80.0787" height="41.1024" class="st13"/>
			<text x="18.34" y="360.7" class="st6" v:langID="1031"><v:paragraph v:horizAlign="1"/><v:tabList/>Accounts /<v:newlineChar/><tspan
						x="9.68" dy="1.2em" class="st14">Authentication</tspan></text>		</g>
		<g id="shape5-55" v:mID="5" v:groupContext="shape" transform="translate(270.425,-171.846)">
			<title>Rectangle.5</title>
			<desc>Dialog 1</desc>
			<v:userDefs>
				<v:ud v:nameU="visVersion" v:val="VT0(15):26"/>
			</v:userDefs>
			<v:textBlock v:margins="rect(4,4,4,4)" v:tabSpace="42.5197"/>
			<v:textRect cx="31.1811" cy="373.972" width="62.37" height="20.5512"/>
			<g id="shadow5-56" v:groupContext="shadow" v:shadowOffsetX="0.345598" v:shadowOffsetY="-1.97279" v:shadowType="1"
					transform="matrix(1,0,0,1,0.345598,1.97279)" class="st1">
				<rect x="0" y="363.696" width="62.3622" height="20.5512" class="st2"/>
			</g>
			<rect x="0" y="363.696" width="62.3622" height="20.5512" class="st15"/>
			<text x="14.76" y="376.97" class="st6" v:langID="1031"><v:paragraph v:horizAlign="1"/><v:tabList/>Dialog 1</text>		</g>
		<g id="shape6-61" v:mID="6" v:groupContext="shape" transform="translate(335.622,-171.846)">
			<title>Rectangle.6</title>
			<desc>Intent Set 1</desc>
			<v:userDefs>
				<v:ud v:nameU="visVersion" v:val="VT0(15):26"/>
			</v:userDefs>
			<v:textBlock v:margins="rect(4,4,4,4)" v:tabSpace="42.5197"/>
			<v:textRect cx="31.1811" cy="373.972" width="62.37" height="20.5512"/>
			<g id="shadow6-62" v:groupContext="shadow" v:shadowOffsetX="0.345598" v:shadowOffsetY="-1.97279" v:shadowType="1"
					transform="matrix(1,0,0,1,0.345598,1.97279)" class="st1">
				<rect x="0" y="363.696" width="62.3622" height="20.5512" class="st2"/>
			</g>
			<rect x="0" y="363.696" width="62.3622" height="20.5512" class="st15"/>
			<text x="7.58" y="376.97" class="st6" v:langID="1031"><v:paragraph v:horizAlign="1"/><v:tabList/>Intent Set 1</text>		</g>
		<g id="shape16-67" v:mID="16" v:groupContext="shape" transform="translate(269.291,-198.789)">
			<title>Rectangle.16</title>
			<desc>Core Dialog</desc>
			<v:userDefs>
				<v:ud v:nameU="visVersion" v:val="VT0(15):26"/>
			</v:userDefs>
			<v:textBlock v:margins="rect(4,4,4,4)" v:tabSpace="42.5197"/>
			<v:textRect cx="31.1811" cy="363.696" width="62.37" height="41.1024"/>
			<g id="shadow16-68" v:groupContext="shadow" v:shadowOffsetX="0.345598" v:shadowOffsetY="-1.97279" v:shadowType="1"
					transform="matrix(1,0,0,1,0.345598,1.97279)" class="st1">
				<rect x="0" y="343.145" width="62.3622" height="41.1024" class="st2"/>
			</g>
			<rect x="0" y="343.145" width="62.3622" height="41.1024" class="st15"/>
			<text x="7.76" y="366.7" class="st6" v:langID="1031"><v:paragraph v:horizAlign="1"/><v:tabList/>Core Dialog</text>		</g>
		<g id="shape19-73" v:mID="19" v:groupContext="shape" transform="translate(334.488,-198.789)">
			<title>Rectangle.19</title>
			<desc>Core Intent Set</desc>
			<v:userDefs>
				<v:ud v:nameU="visVersion" v:val="VT0(15):26"/>
			</v:userDefs>
			<v:textBlock v:margins="rect(4,4,4,4)" v:tabSpace="42.5197"/>
			<v:textRect cx="31.1811" cy="363.696" width="62.37" height="41.1024"/>
			<g id="shadow19-74" v:groupContext="shadow" v:shadowOffsetX="0.345598" v:shadowOffsetY="-1.97279" v:shadowType="1"
					transform="matrix(1,0,0,1,0.345598,1.97279)" class="st1">
				<rect x="0" y="343.145" width="62.3622" height="41.1024" class="st2"/>
			</g>
			<rect x="0" y="343.145" width="62.3622" height="41.1024" class="st15"/>
			<text x="8.17" y="360.7" class="st6" v:langID="1031"><v:paragraph v:horizAlign="1"/><v:tabList/>Core Intent <tspan
						x="24.72" dy="1.2em" class="st14">Set</tspan></text>		</g>
		<g id="shape20-80" v:mID="20" v:groupContext="shape" transform="translate(269.291,-85.6063)">
			<title>Rectangle.20</title>
			<desc>Dialog Registry</desc>
			<v:userDefs>
				<v:ud v:nameU="visVersion" v:val="VT0(15):26"/>
			</v:userDefs>
			<v:textBlock v:margins="rect(4,4,4,4)" v:tabSpace="42.5197"/>
			<v:textRect cx="64.8425" cy="367.807" width="129.69" height="32.8819"/>
			<g id="shadow20-81" v:groupContext="shadow" v:shadowOffsetX="0.345598" v:shadowOffsetY="-1.97279" v:shadowType="1"
					transform="matrix(1,0,0,1,0.345598,1.97279)" class="st1">
				<rect x="0" y="351.366" width="129.685" height="32.8819" class="st2"/>
			</g>
			<rect x="0" y="351.366" width="129.685" height="32.8819" class="st15"/>
			<text x="34.62" y="370.81" class="st6" v:langID="1031"><v:paragraph v:horizAlign="1"/><v:tabList/>Dialog Registry</text>		</g>
		<g id="shape30-86" v:mID="30" v:groupContext="shape" transform="translate(-274.656,291.543) rotate(-90)">
			<title>Sheet.30</title>
			<path d="M0 384.25 L0 384.25" class="st16"/>
		</g>
		<g id="shape36-89" v:mID="36" v:groupContext="shape" transform="translate(515.197,-43.3701)">
			<title>Rectangle.36</title>
			<desc>IPA Provider n</desc>
			<v:userDefs>
				<v:ud v:nameU="visVersion" v:val="VT0(15):26"/>
			</v:userDefs>
			<v:textBlock v:margins="rect(4,4,4,4)" v:tabSpace="42.5197" v:verticalAlign="0"/>
			<v:textRect cx="145.984" cy="359.09" width="291.97" height="50.315"/>
			<g id="shadow36-90" v:groupContext="shadow" v:shadowOffsetX="0.345598" v:shadowOffsetY="-1.97279" v:shadowType="1"
					transform="matrix(1,0,0,1,0.345598,1.97279)" class="st1">
				<rect x="0" y="333.933" width="291.969" height="50.315" class="st2"/>
			</g>
			<rect x="0" y="333.933" width="291.969" height="50.315" class="st17"/>
			<text x="230.27" y="346.93" class="st9" v:langID="1031"><v:paragraph v:horizAlign="2"/><v:tabList/>IPA Provider n</text>		</g>
		<g id="shape39-95" v:mID="39" v:groupContext="shape" transform="translate(663.307,-51.1654)">
			<title>Rectangle.39</title>
			<desc>...</desc>
			<v:userDefs>
				<v:ud v:nameU="visVersion" v:val="VT0(15):26"/>
			</v:userDefs>
			<v:textBlock v:margins="rect(4,4,4,4)" v:tabSpace="42.5197"/>
			<v:textRect cx="31.1811" cy="368.657" width="62.37" height="31.1811"/>
			<g id="shadow39-96" v:groupContext="shadow" v:shadowOffsetX="0.345598" v:shadowOffsetY="-1.97279" v:shadowType="1"
					transform="matrix(1,0,0,1,0.345598,1.97279)" class="st1">
				<rect x="0" y="353.067" width="62.3622" height="31.1811" class="st2"/>
			</g>
			<rect x="0" y="353.067" width="62.3622" height="31.1811" class="st18"/>
			<text x="27.39" y="371.66" class="st6" v:langID="1031"><v:paragraph v:horizAlign="1"/><v:tabList/>...</text>		</g>
		<g id="shape40-101" v:mID="40" v:groupContext="shape" transform="translate(593.858,-51.1654)">
			<title>Rectangle.40</title>
			<desc>Provider Intent Set</desc>
			<v:userDefs>
				<v:ud v:nameU="visVersion" v:val="VT0(15):26"/>
			</v:userDefs>
			<v:textBlock v:margins="rect(4,4,4,4)" v:tabSpace="42.5197"/>
			<v:textRect cx="31.1811" cy="368.657" width="62.37" height="31.1811"/>
			<g id="shadow40-102" v:groupContext="shadow" v:shadowOffsetX="0.345598" v:shadowOffsetY="-1.97279" v:shadowType="1"
					transform="matrix(1,0,0,1,0.345598,1.97279)" class="st1">
				<rect x="0" y="353.067" width="62.3622" height="31.1811" class="st2"/>
			</g>
			<rect x="0" y="353.067" width="62.3622" height="31.1811" class="st18"/>
			<text x="13.95" y="365.66" class="st6" v:langID="1031"><v:paragraph v:horizAlign="1"/><v:tabList/>Provider <tspan
						x="11.24" dy="1.2em" class="st14">Intent Set</tspan></text>		</g>
		<g id="shape41-108" v:mID="41" v:groupContext="shape" transform="translate(630.709,-97.2283)">
			<title>Circle</title>
			<v:userDefs>
				<v:ud v:nameU="visVersion" v:val="VT0(15):26"/>
			</v:userDefs>
			<g id="shadow41-109" v:groupContext="shadow" v:shadowOffsetX="0.345598" v:shadowOffsetY="-1.97279" v:shadowType="1"
					transform="matrix(1,0,0,1,0.345598,1.97279)" class="st1">
				<path d="M0 380 A4.25197 4.25197 0 0 1 8.5 380 A4.25197 4.25197 0 1 1 0 380 Z" class="st2"/>
			</g>
			<path d="M0 380 A4.25197 4.25197 0 0 1 8.5 380 A4.25197 4.25197 0 1 1 0 380 Z" class="st19"/>
		</g>
		<g id="shape42-113" v:mID="42" v:groupContext="shape" transform="translate(647.717,-97.2283)">
			<title>Circle.42</title>
			<v:userDefs>
				<v:ud v:nameU="visVersion" v:val="VT0(15):26"/>
			</v:userDefs>
			<g id="shadow42-114" v:groupContext="shadow" v:shadowOffsetX="0.345598" v:shadowOffsetY="-1.97279" v:shadowType="1"
					transform="matrix(1,0,0,1,0.345598,1.97279)" class="st1">
				<path d="M0 380 A4.25197 4.25197 0 0 1 8.5 380 A4.25197 4.25197 0 1 1 0 380 Z" class="st2"/>
			</g>
			<path d="M0 380 A4.25197 4.25197 0 0 1 8.5 380 A4.25197 4.25197 0 1 1 0 380 Z" class="st19"/>
		</g>
		<g id="shape43-118" v:mID="43" v:groupContext="shape" transform="translate(664.724,-97.2283)">
			<title>Circle.43</title>
			<v:userDefs>
				<v:ud v:nameU="visVersion" v:val="VT0(15):26"/>
			</v:userDefs>
			<g id="shadow43-119" v:groupContext="shadow" v:shadowOffsetX="0.345598" v:shadowOffsetY="-1.97279" v:shadowType="1"
					transform="matrix(1,0,0,1,0.345598,1.97279)" class="st1">
				<path d="M0 380 A4.25197 4.25197 0 0 1 8.5 380 A4.25197 4.25197 0 1 1 0 380 Z" class="st2"/>
			</g>
			<path d="M0 380 A4.25197 4.25197 0 0 1 8.5 380 A4.25197 4.25197 0 1 1 0 380 Z" class="st19"/>
		</g>
		<g id="shape45-123" v:mID="45" v:groupContext="shape" transform="translate(116.776,332.374) rotate(-90)">
			<title>Rectangle.45</title>
			<desc>Provider Selection Service</desc>
			<v:userDefs>
				<v:ud v:nameU="visVersion" v:val="VT0(15):26"/>
			</v:userDefs>
			<v:textBlock v:margins="rect(4,4,4,4)" v:tabSpace="42.5197"/>
			<v:textRect cx="120.549" cy="358.382" width="241.1" height="51.7323"/>
			<g id="shadow45-124" v:groupContext="shadow" v:shadowOffsetX="0.345598" v:shadowOffsetY="-1.97279" v:shadowType="1"
					transform="matrix(1,0,0,1,-1.97279,0.345598)" class="st1">
				<rect x="0" y="332.515" width="241.099" height="51.7323" class="st2"/>
			</g>
			<rect x="0" y="332.515" width="241.099" height="51.7323" class="st13"/>
			<text x="67.9" y="361.38" class="st6" v:langID="1031"><v:paragraph v:horizAlign="1"/><v:tabList/>Provider Selection Service</text>		</g>
		<g id="shape51-129" v:mID="51" v:groupContext="shape" transform="translate(270.425,-125.428)">
			<title>Rectangle.51</title>
			<desc>Dialog n</desc>
			<v:userDefs>
				<v:ud v:nameU="visVersion" v:val="VT0(15):26"/>
			</v:userDefs>
			<v:textBlock v:margins="rect(4,4,4,4)" v:tabSpace="42.5197"/>
			<v:textRect cx="31.1811" cy="373.972" width="62.37" height="20.5512"/>
			<g id="shadow51-130" v:groupContext="shadow" v:shadowOffsetX="0.345598" v:shadowOffsetY="-1.97279" v:shadowType="1"
					transform="matrix(1,0,0,1,0.345598,1.97279)" class="st1">
				<rect x="0" y="363.696" width="62.3622" height="20.5512" class="st2"/>
			</g>
			<rect x="0" y="363.696" width="62.3622" height="20.5512" class="st15"/>
			<text x="14.67" y="376.97" class="st6" v:langID="1031"><v:paragraph v:horizAlign="1"/><v:tabList/>Dialog n</text>		</g>
		<g id="shape52-135" v:mID="52" v:groupContext="shape" transform="translate(335.622,-125.428)">
			<title>Rectangle.52</title>
			<desc>Intent Set n</desc>
			<v:userDefs>
				<v:ud v:nameU="visVersion" v:val="VT0(15):26"/>
			</v:userDefs>
			<v:textBlock v:margins="rect(4,4,4,4)" v:tabSpace="42.5197"/>
			<v:textRect cx="31.1811" cy="373.972" width="62.37" height="20.5512"/>
			<g id="shadow52-136" v:groupContext="shadow" v:shadowOffsetX="0.345598" v:shadowOffsetY="-1.97279" v:shadowType="1"
					transform="matrix(1,0,0,1,0.345598,1.97279)" class="st1">
				<rect x="0" y="363.696" width="62.3622" height="20.5512" class="st2"/>
			</g>
			<rect x="0" y="363.696" width="62.3622" height="20.5512" class="st15"/>
			<text x="7.48" y="376.97" class="st6" v:langID="1031"><v:paragraph v:horizAlign="1"/><v:tabList/>Intent Set n</text>		</g>
		<g id="shape53-141" v:mID="53" v:groupContext="shape" transform="translate(313.228,-153.775)">
			<title>Circle.53</title>
			<v:userDefs>
				<v:ud v:nameU="visVersion" v:val="VT0(15):26"/>
			</v:userDefs>
			<g id="shadow53-142" v:groupContext="shadow" v:shadowOffsetX="0.345598" v:shadowOffsetY="-1.97279" v:shadowType="1"
					transform="matrix(1,0,0,1,0.345598,1.97279)" class="st1">
				<path d="M0 380 A4.25197 4.25197 0 0 1 8.5 380 A4.25197 4.25197 0 1 1 0 380 Z" class="st2"/>
			</g>
			<path d="M0 380 A4.25197 4.25197 0 0 1 8.5 380 A4.25197 4.25197 0 1 1 0 380 Z" class="st15"/>
		</g>
		<g id="shape54-146" v:mID="54" v:groupContext="shape" transform="translate(330.236,-153.775)">
			<title>Circle.54</title>
			<v:userDefs>
				<v:ud v:nameU="visVersion" v:val="VT0(15):26"/>
			</v:userDefs>
			<g id="shadow54-147" v:groupContext="shadow" v:shadowOffsetX="0.345598" v:shadowOffsetY="-1.97279" v:shadowType="1"
					transform="matrix(1,0,0,1,0.345598,1.97279)" class="st1">
				<path d="M0 380 A4.25197 4.25197 0 0 1 8.5 380 A4.25197 4.25197 0 1 1 0 380 Z" class="st2"/>
			</g>
			<path d="M0 380 A4.25197 4.25197 0 0 1 8.5 380 A4.25197 4.25197 0 1 1 0 380 Z" class="st15"/>
		</g>
		<g id="shape55-151" v:mID="55" v:groupContext="shape" transform="translate(347.244,-153.775)">
			<title>Circle.55</title>
			<v:userDefs>
				<v:ud v:nameU="visVersion" v:val="VT0(15):26"/>
			</v:userDefs>
			<g id="shadow55-152" v:groupContext="shadow" v:shadowOffsetX="0.345598" v:shadowOffsetY="-1.97279" v:shadowType="1"
					transform="matrix(1,0,0,1,0.345598,1.97279)" class="st1">
				<path d="M0 380 A4.25197 4.25197 0 0 1 8.5 380 A4.25197 4.25197 0 1 1 0 380 Z" class="st2"/>
			</g>
			<path d="M0 380 A4.25197 4.25197 0 0 1 8.5 380 A4.25197 4.25197 0 1 1 0 380 Z" class="st15"/>
		</g>
		<g id="shape57-156" v:mID="57" v:groupContext="shape" transform="translate(524.409,-51.1654)">
			<title>Rectangle.57</title>
			<desc>Provider NLU</desc>
			<v:userDefs>
				<v:ud v:nameU="visVersion" v:val="VT0(15):26"/>
			</v:userDefs>
			<v:textBlock v:margins="rect(4,4,4,4)" v:tabSpace="42.5197"/>
			<v:textRect cx="31.1811" cy="368.657" width="62.37" height="31.1811"/>
			<g id="shadow57-157" v:groupContext="shadow" v:shadowOffsetX="0.345598" v:shadowOffsetY="-1.97279" v:shadowType="1"
					transform="matrix(1,0,0,1,0.345598,1.97279)" class="st1">
				<rect x="0" y="353.067" width="62.3622" height="31.1811" class="st2"/>
			</g>
			<rect x="0" y="353.067" width="62.3622" height="31.1811" class="st18"/>
			<text x="4.29" y="371.66" class="st6" v:langID="1031"><v:paragraph v:horizAlign="1"/><v:tabList/>Provider NLU</text>		</g>
		<g id="shape59-162" v:mID="59" v:groupContext="shape" transform="translate(146.087,-256.122)">
			<title>Rectangle.59</title>
			<desc>ASR</desc>
			<v:userDefs>
				<v:ud v:nameU="visVersion" v:val="VT0(15):26"/>
			</v:userDefs>
			<v:textBlock v:margins="rect(4,4,4,4)" v:tabSpace="42.5197"/>
			<v:textRect cx="53.1496" cy="367.807" width="106.3" height="32.8819"/>
			<g id="shadow59-163" v:groupContext="shadow" v:shadowOffsetX="0.345598" v:shadowOffsetY="-1.97279" v:shadowType="1"
					transform="matrix(1,0,0,1,0.345598,1.97279)" class="st1">
				<rect x="0" y="351.366" width="106.299" height="32.8819" class="st2"/>
			</g>
			<rect x="0" y="351.366" width="106.299" height="32.8819" class="st5"/>
			<text x="45.24" y="370.81" class="st6" v:langID="1031"><v:paragraph v:horizAlign="1"/><v:tabList/>ASR</text>		</g>
		<g id="shape62-168" v:mID="62" v:groupContext="shape" transform="translate(450.425,-296.764)">
			<title>Rectangle.62</title>
			<desc>Provider Registry</desc>
			<v:userDefs>
				<v:ud v:nameU="visVersion" v:val="VT0(15):26"/>
			</v:userDefs>
			<v:textBlock v:margins="rect(4,4,4,4)" v:tabSpace="42.5197"/>
			<v:textRect cx="40.0394" cy="363.696" width="80.08" height="41.1024"/>
			<g id="shadow62-169" v:groupContext="shadow" v:shadowOffsetX="0.345598" v:shadowOffsetY="-1.97279" v:shadowType="1"
					transform="matrix(1,0,0,1,0.345598,1.97279)" class="st1">
				<rect x="0" y="343.145" width="80.0787" height="41.1024" class="st2"/>
			</g>
			<rect x="0" y="343.145" width="80.0787" height="41.1024" class="st13"/>
			<text x="22.81" y="360.7" class="st6" v:langID="1031"><v:paragraph v:horizAlign="1"/><v:tabList/>Provider<v:newlineChar/><tspan
						x="23.7" dy="1.2em" class="st14">Registry</tspan></text>		</g>
		<g id="shape64-175" v:mID="64" v:groupContext="shape" transform="translate(146.087,-294.957)">
			<title>Rectangle.68</title>
			<desc>Context</desc>
			<v:userDefs>
				<v:ud v:nameU="visVersion" v:val="VT0(15):26"/>
			</v:userDefs>
			<v:textBlock v:margins="rect(4,4,4,4)" v:tabSpace="42.5197"/>
			<v:textRect cx="132.468" cy="363.696" width="264.94" height="41.1024"/>
			<g id="shadow64-176" v:groupContext="shadow" v:shadowOffsetX="0.345598" v:shadowOffsetY="-1.97279" v:shadowType="1"
					transform="matrix(1,0,0,1,0.345598,1.97279)" class="st1">
				<rect x="0" y="343.145" width="264.936" height="41.1024" class="st2"/>
			</g>
			<rect x="0" y="343.145" width="264.936" height="41.1024" class="st5"/>
			<text x="116.54" y="366.7" class="st6" v:langID="1031"><v:paragraph v:horizAlign="1"/><v:tabList/>Context</text>		</g>
		<g id="shape66-181" v:mID="66" v:groupContext="shape" transform="translate(260.891,-256.122)">
			<title>Rectangle.65</title>
			<desc>NLU</desc>
			<v:userDefs>
				<v:ud v:nameU="visVersion" v:val="VT0(15):26"/>
			</v:userDefs>
			<v:textBlock v:margins="rect(4,4,4,4)" v:tabSpace="42.5197"/>
			<v:textRect cx="75.0665" cy="367.807" width="150.14" height="32.8819"/>
			<g id="shadow66-182" v:groupContext="shadow" v:shadowOffsetX="0.345598" v:shadowOffsetY="-1.97279" v:shadowType="1"
					transform="matrix(1,0,0,1,0.345598,1.97279)" class="st1">
				<rect x="0" y="351.366" width="150.133" height="32.8819" class="st2"/>
			</g>
			<rect x="0" y="351.366" width="150.133" height="32.8819" class="st5"/>
			<text x="66.53" y="370.81" class="st6" v:langID="1031"><v:paragraph v:horizAlign="1"/><v:tabList/>NLU</text>		</g>
		<g id="shape69-187" v:mID="69" v:groupContext="shape" transform="translate(144.213,-40.5354)">
			<title>Rectangle.69</title>
			<desc>TTS</desc>
			<v:userDefs>
				<v:ud v:nameU="visVersion" v:val="VT0(15):26"/>
			</v:userDefs>
			<v:textBlock v:margins="rect(4,4,4,4)" v:tabSpace="42.5197"/>
			<v:textRect cx="25.8661" cy="367.807" width="51.74" height="32.8819"/>
			<g id="shadow69-188" v:groupContext="shadow" v:shadowOffsetX="0.345598" v:shadowOffsetY="-1.97279" v:shadowType="1"
					transform="matrix(1,0,0,1,0.345598,1.97279)" class="st1">
				<rect x="0" y="351.366" width="51.7323" height="32.8819" class="st2"/>
			</g>
			<rect x="0" y="351.366" width="51.7323" height="32.8819" class="st5"/>
			<text x="18.7" y="370.81" class="st6" v:langID="1031"><v:paragraph v:horizAlign="1"/><v:tabList/>TTS</text>		</g>
		<g id="shape70-193" v:mID="70" v:groupContext="shape" transform="translate(203.386,-40.5354)">
			<title>Rectangle.70</title>
			<desc>NLG</desc>
			<v:userDefs>
				<v:ud v:nameU="visVersion" v:val="VT0(15):26"/>
			</v:userDefs>
			<v:textBlock v:margins="rect(4,4,4,4)" v:tabSpace="42.5197"/>
			<v:textRect cx="25.8661" cy="367.807" width="51.74" height="32.8819"/>
			<g id="shadow70-194" v:groupContext="shadow" v:shadowOffsetX="0.345598" v:shadowOffsetY="-1.97279" v:shadowType="1"
					transform="matrix(1,0,0,1,0.345598,1.97279)" class="st1">
				<rect x="0" y="351.366" width="51.7323" height="32.8819" class="st2"/>
			</g>
			<rect x="0" y="351.366" width="51.7323" height="32.8819" class="st5"/>
			<text x="17.38" y="370.81" class="st6" v:langID="1031"><v:paragraph v:horizAlign="1"/><v:tabList/>NLG</text>		</g>
		<g id="shape63-199" v:mID="63" v:groupContext="shape" transform="translate(316.772,-298.488)">
			<title>Rectangle.63</title>
			<desc>Knowledge Graph</desc>
			<v:userDefs>
				<v:ud v:nameU="visVersion" v:val="VT0(15):26"/>
			</v:userDefs>
			<v:textBlock v:margins="rect(4,4,4,4)" v:tabSpace="42.5197"/>
			<v:textRect cx="40.0394" cy="367.807" width="80.08" height="32.8819"/>
			<g id="shadow63-200" v:groupContext="shadow" v:shadowOffsetX="0.345598" v:shadowOffsetY="-1.97279" v:shadowType="1"
					transform="matrix(1,0,0,1,0.345598,1.97279)" class="st1">
				<rect x="0" y="351.366" width="80.0787" height="32.8819" class="st2"/>
			</g>
			<rect x="0" y="351.366" width="80.0787" height="32.8819" class="st15"/>
			<text x="17.5" y="364.81" class="st6" v:langID="1031"><v:paragraph v:horizAlign="1"/><v:tabList/>Knowledge <tspan
						x="27.49" dy="1.2em" class="st14">Graph</tspan></text>		</g>
		<g id="shape72-206" v:mID="72" v:groupContext="shape" transform="translate(515.906,-112.11)">
			<title>Rectangle.72</title>
			<desc>IPA Provider 1</desc>
			<v:userDefs>
				<v:ud v:nameU="visVersion" v:val="VT0(15):26"/>
			</v:userDefs>
			<v:textBlock v:margins="rect(4,4,4,4)" v:tabSpace="42.5197" v:verticalAlign="0"/>
			<v:textRect cx="145.984" cy="359.09" width="291.97" height="50.315"/>
			<g id="shadow72-207" v:groupContext="shadow" v:shadowOffsetX="0.345598" v:shadowOffsetY="-1.97279" v:shadowType="1"
					transform="matrix(1,0,0,1,0.345598,1.97279)" class="st1">
				<rect x="0" y="333.933" width="291.969" height="50.315" class="st2"/>
			</g>
			<rect x="0" y="333.933" width="291.969" height="50.315" class="st17"/>
			<text x="230.45" y="346.93" class="st9" v:langID="1031"><v:paragraph v:horizAlign="2"/><v:tabList/>IPA Provider 1</text>		</g>
		<g id="shape73-212" v:mID="73" v:groupContext="shape" transform="translate(664.016,-119.906)">
			<title>Rectangle.73</title>
			<desc>...</desc>
			<v:userDefs>
				<v:ud v:nameU="visVersion" v:val="VT0(15):26"/>
			</v:userDefs>
			<v:textBlock v:margins="rect(4,4,4,4)" v:tabSpace="42.5197"/>
			<v:textRect cx="31.1811" cy="368.657" width="62.37" height="31.1811"/>
			<g id="shadow73-213" v:groupContext="shadow" v:shadowOffsetX="0.345598" v:shadowOffsetY="-1.97279" v:shadowType="1"
					transform="matrix(1,0,0,1,0.345598,1.97279)" class="st1">
				<rect x="0" y="353.067" width="62.3622" height="31.1811" class="st2"/>
			</g>
			<rect x="0" y="353.067" width="62.3622" height="31.1811" class="st18"/>
			<text x="27.39" y="371.66" class="st6" v:langID="1031"><v:paragraph v:horizAlign="1"/><v:tabList/>...</text>		</g>
		<g id="shape74-218" v:mID="74" v:groupContext="shape" transform="translate(594.567,-119.906)">
			<title>Rectangle.74</title>
			<desc>Provider Intent Set</desc>
			<v:userDefs>
				<v:ud v:nameU="visVersion" v:val="VT0(15):26"/>
			</v:userDefs>
			<v:textBlock v:margins="rect(4,4,4,4)" v:tabSpace="42.5197"/>
			<v:textRect cx="31.1811" cy="368.657" width="62.37" height="31.1811"/>
			<g id="shadow74-219" v:groupContext="shadow" v:shadowOffsetX="0.345598" v:shadowOffsetY="-1.97279" v:shadowType="1"
					transform="matrix(1,0,0,1,0.345598,1.97279)" class="st1">
				<rect x="0" y="353.067" width="62.3622" height="31.1811" class="st2"/>
			</g>
			<rect x="0" y="353.067" width="62.3622" height="31.1811" class="st18"/>
			<text x="13.95" y="365.66" class="st6" v:langID="1031"><v:paragraph v:horizAlign="1"/><v:tabList/>Provider <tspan
						x="11.24" dy="1.2em" class="st14">Intent Set</tspan></text>		</g>
		<g id="shape75-225" v:mID="75" v:groupContext="shape" transform="translate(525.118,-119.906)">
			<title>Rectangle.75</title>
			<desc>Provider NLU</desc>
			<v:userDefs>
				<v:ud v:nameU="visVersion" v:val="VT0(15):26"/>
			</v:userDefs>
			<v:textBlock v:margins="rect(4,4,4,4)" v:tabSpace="42.5197"/>
			<v:textRect cx="31.1811" cy="368.657" width="62.37" height="31.1811"/>
			<g id="shadow75-226" v:groupContext="shadow" v:shadowOffsetX="0.345598" v:shadowOffsetY="-1.97279" v:shadowType="1"
					transform="matrix(1,0,0,1,0.345598,1.97279)" class="st1">
				<rect x="0" y="353.067" width="62.3622" height="31.1811" class="st2"/>
			</g>
			<rect x="0" y="353.067" width="62.3622" height="31.1811" class="st18"/>
			<text x="4.29" y="371.66" class="st6" v:langID="1031"><v:paragraph v:horizAlign="1"/><v:tabList/>Provider NLU</text>		</g>
		<g id="shape76-231" v:mID="76" v:groupContext="shape" transform="translate(521.575,-242.929)">
			<title>Rectangle.22</title>
			<desc>Data Provider 1</desc>
			<v:userDefs>
				<v:ud v:nameU="visVersion" v:val="VT0(15):26"/>
			</v:userDefs>
			<v:textBlock v:margins="rect(4,4,4,4)" v:tabSpace="42.5197"/>
			<v:textRect cx="31.1811" cy="367.807" width="62.37" height="32.8819"/>
			<g id="shadow76-232" v:groupContext="shadow" v:shadowOffsetX="0.345598" v:shadowOffsetY="-1.97279" v:shadowType="1"
					transform="matrix(1,0,0,1,0.345598,1.97279)" class="st1">
				<rect x="0" y="351.366" width="62.3622" height="32.8819" class="st2"/>
			</g>
			<rect x="0" y="351.366" width="62.3622" height="32.8819" class="st18"/>
			<text x="21.64" y="364.81" class="st6" v:langID="1031"><v:paragraph v:horizAlign="1"/><v:tabList/>Data <tspan x="10.29"
						dy="1.2em" class="st14">Provider </tspan>1</text>		</g>
		<g id="shape77-238" v:mID="77" v:groupContext="shape" transform="translate(521.575,-190.441)">
			<title>Rectangle.77</title>
			<desc>Data Provider n</desc>
			<v:userDefs>
				<v:ud v:nameU="visVersion" v:val="VT0(15):26"/>
			</v:userDefs>
			<v:textBlock v:margins="rect(4,4,4,4)" v:tabSpace="42.5197"/>
			<v:textRect cx="31.1811" cy="367.807" width="62.37" height="32.8819"/>
			<g id="shadow77-239" v:groupContext="shadow" v:shadowOffsetX="0.345598" v:shadowOffsetY="-1.97279" v:shadowType="1"
					transform="matrix(1,0,0,1,0.345598,1.97279)" class="st1">
				<rect x="0" y="351.366" width="62.3622" height="32.8819" class="st2"/>
			</g>
			<rect x="0" y="351.366" width="62.3622" height="32.8819" class="st18"/>
			<text x="21.64" y="364.81" class="st6" v:langID="1031"><v:paragraph v:horizAlign="1"/><v:tabList/>Data <tspan x="10.2"
						dy="1.2em" class="st14">Provider n</tspan></text>		</g>
		<g id="shape78-245" v:mID="78" v:groupContext="shape" transform="translate(531.876,-228.709)">
			<title>Circle.78</title>
			<v:userDefs>
				<v:ud v:nameU="visVersion" v:val="VT0(15):26"/>
			</v:userDefs>
			<g id="shadow78-246" v:groupContext="shadow" v:shadowOffsetX="0.345598" v:shadowOffsetY="-1.97279" v:shadowType="1"
					transform="matrix(1,0,0,1,0.345598,1.97279)" class="st1">
				<path d="M0 380 A4.25197 4.25197 0 0 1 8.5 380 A4.25197 4.25197 0 1 1 0 380 Z" class="st2"/>
			</g>
			<path d="M0 380 A4.25197 4.25197 0 0 1 8.5 380 A4.25197 4.25197 0 1 1 0 380 Z" class="st19"/>
		</g>
		<g id="shape79-250" v:mID="79" v:groupContext="shape" transform="translate(548.884,-228.709)">
			<title>Circle.79</title>
			<v:userDefs>
				<v:ud v:nameU="visVersion" v:val="VT0(15):26"/>
			</v:userDefs>
			<g id="shadow79-251" v:groupContext="shadow" v:shadowOffsetX="0.345598" v:shadowOffsetY="-1.97279" v:shadowType="1"
					transform="matrix(1,0,0,1,0.345598,1.97279)" class="st1">
				<path d="M0 380 A4.25197 4.25197 0 0 1 8.5 380 A4.25197 4.25197 0 1 1 0 380 Z" class="st2"/>
			</g>
			<path d="M0 380 A4.25197 4.25197 0 0 1 8.5 380 A4.25197 4.25197 0 1 1 0 380 Z" class="st19"/>
		</g>
		<g id="shape80-255" v:mID="80" v:groupContext="shape" transform="translate(565.892,-228.709)">
			<title>Circle.80</title>
			<v:userDefs>
				<v:ud v:nameU="visVersion" v:val="VT0(15):26"/>
			</v:userDefs>
			<g id="shadow80-256" v:groupContext="shadow" v:shadowOffsetX="0.345598" v:shadowOffsetY="-1.97279" v:shadowType="1"
					transform="matrix(1,0,0,1,0.345598,1.97279)" class="st1">
				<path d="M0 380 A4.25197 4.25197 0 0 1 8.5 380 A4.25197 4.25197 0 1 1 0 380 Z" class="st2"/>
			</g>
			<path d="M0 380 A4.25197 4.25197 0 0 1 8.5 380 A4.25197 4.25197 0 1 1 0 380 Z" class="st19"/>
		</g>
	</g>
</svg>
