<?xml version="1.0" encoding="utf-8"?><svg version="1.1" preserveAspectRatio="xMidYMid" xml:space="preserve" width="827.2192299999999pt" height="285.22253pt" viewBox="24.362470000000002 39.57967 827.2192299999999 285.22253" xmlns="http://www.w3.org/2000/svg" xmlns:xlink="http://www.w3.org/1999/xlink"><desc xmlns:eadoc="http://www.siemens.com/eauml/doc"><eadoc:guid>EAID_3123F12A_554F_4b31_8047_972CDD631580</eadoc:guid><eadoc:name>IPA-Component-View</eadoc:name><eadoc:type>Diagram</eadoc:type><eadoc:note></eadoc:note></desc><g transform="matrix(1 0 0 -1 0 841)"><g stroke="#000000" fill="none" fill-rule="evenodd" stroke-width="1" stroke-linecap="round" stroke-linejoin="round" stroke-miterlimit="3" letter-spacing="normal" font-weight="normal" font-style="normal" baseline-shift="0"><g transform="matrix(0.75 0 0 0.75 0 841.650024)"><g transform="matrix(0.958888 0 0 -0.959795 0 0)" font-family="CalibriUnicode" font-size="10"><path d="M806 75V432m0 0h367m0 0V75m0 0H806" /><text transform="matrix(1 0 0 1 967 79)" fill="#000000" stroke="none"><tspan dx="0 " x="0" y="9">APIs / Data</tspan></text><path d="M272 72V438m0 0H778m0 0V72m0 0H272" /><text transform="matrix(1 0 0 1 512 76)" fill="#000000" stroke="none"><tspan dx="0 " x="0" y="9">Dialog</tspan></text><path d="M45 67V441m0 0H235m0 0V67m0 0H45" /><text transform="matrix(1 0 0 1 129 71)" fill="#000000" stroke="none"><tspan dx="0 " x="0" y="9">Client</tspan></text><path fill="#DFDFDF" stroke="none" d="M188 143C188 138 188 138 193 138h4C202 138 202 138 202 143v4C202 152 202 152 197 152h-4C188 152 188 152 188 147v-4" /><path fill="#DAEAFC" stroke="none" d="M185 140C185 135 185 135 190 135h4C199 135 199 135 199 140v4C199 149 199 149 194 149h-4C185 149 185 149 185 144v-4" /><path d="M185 140C185 135 185 135 190 135h4C199 135 199 135 199 140v4C199 149 199 149 194 149h-4C185 149 185 149 185 144v-4m0 0C185 135 185 135 190 135h4C199 135 199 135 199 140v4C199 149 199 149 194 149h-4C185 149 185 149 185 144v-4" /><rect x="185" y="135" width="14" height="14" /><path fill="#DFDFDF" stroke="none" d="M188 236C188 231 188 231 193 231h4C202 231 202 231 202 236v4C202 245 202 245 197 245h-4C188 245 188 245 188 240v-4" /><path fill="#DAEAFC" stroke="none" d="M185 233C185 228 185 228 190 228h4C199 228 199 228 199 233v4C199 242 199 242 194 242h-4C185 242 185 242 185 237v-4" /><path d="M185 233C185 228 185 228 190 228h4C199 228 199 228 199 233v4C199 242 199 242 194 242h-4C185 242 185 242 185 237v-4m0 0C185 228 185 228 190 228h4C199 228 199 228 199 233v4C199 242 199 242 194 242h-4C185 242 185 242 185 237v-4" /><rect x="185" y="228" width="14" height="14" /><path fill="#DFDFDF" stroke="none" d="M85 112C85 107 85 107 90 107h99C194 107 194 107 194 112V370C194 375 194 375 189 375H90C85 375 85 375 85 370V112" /><path fill="#FEE6E6" stroke="none" d="M82 109C82 104 82 104 87 104h99C191 104 191 104 191 109V367C191 372 191 372 186 372H87C82 372 82 372 82 367V109" /><path d="M82 109C82 104 82 104 87 104h99C191 104 191 104 191 109V367C191 372 191 372 186 372H87C82 372 82 372 82 367V109m0 0C82 104 82 104 87 104h99C191 104 191 104 191 109V367C191 372 191 372 186 372H87C82 372 82 372 82 367V109" /><rect x="82" y="104" width="109" height="268" /><text transform="matrix(1 0 0 1 107 113)" fill="#000000" font-weight="bold" stroke="none"><desc xmlns:eadoc="http://www.siemens.com/eauml/doc"><eadoc:guid>EAID_0478837B_8764_44fa_AAFF_92BF18D26322</eadoc:guid><eadoc:name>IPA Client</eadoc:name><eadoc:type>Component</eadoc:type><eadoc:note></eadoc:note></desc><tspan dx="0 " x="0" y="9">IPA Client</tspan></text><path fill="#FEE6E6" stroke="none" d="M176 114C176 109 176 109 180 109h2C186 109 186 109 186 114v6C186 125 186 125 182 125h-2C176 125 176 125 176 120v-6" /><path d="M176 114C176 109 176 109 180 109h2C186 109 186 109 186 114v6C186 125 186 125 182 125h-2C176 125 176 125 176 120v-6" /><path fill="#FEE6E6" stroke="none" d="M173 114C173 111 173 111 175 111h2C179 111 179 111 179 114v-2C179 115 179 115 177 115h-2C173 115 173 115 173 112v2" /><path d="M173 114C173 111 173 111 175 111h2C179 111 179 111 179 114v-2C179 115 179 115 177 115h-2C173 115 173 115 173 112v2" /><path fill="#FEE6E6" stroke="none" d="M173 121C173 118 173 118 175 118h2C179 118 179 118 179 121v-2C179 122 179 122 177 122h-2C173 122 173 122 173 119v2" /><path d="M173 121C173 118 173 118 175 118h2C179 118 179 118 179 121v-2C179 122 179 122 177 122h-2C173 122 173 122 173 119v2" /><path fill="#DAEAFC" stroke="none" d="M185 140C185 135 185 135 190 135h4C199 135 199 135 199 140v4C199 149 199 149 194 149h-4C185 149 185 149 185 144v-4" /><path d="M185 140C185 135 185 135 190 135h4C199 135 199 135 199 140v4C199 149 199 149 194 149h-4C185 149 185 149 185 144v-4m0 0C185 135 185 135 190 135h4C199 135 199 135 199 140v4C199 149 199 149 194 149h-4C185 149 185 149 185 144v-4" /><rect x="185" y="135" width="14" height="14" /><path fill="#DAEAFC" stroke="none" d="M185 233C185 228 185 228 190 228h4C199 228 199 228 199 233v4C199 242 199 242 194 242h-4C185 242 185 242 185 237v-4" /><path d="M185 233C185 228 185 228 190 228h4C199 228 199 228 199 233v4C199 242 199 242 194 242h-4C185 242 185 242 185 237v-4m0 0C185 228 185 228 190 228h4C199 228 199 228 199 233v4C199 242 199 242 194 242h-4C185 242 185 242 185 237v-4" /><rect x="185" y="228" width="14" height="14" /><path fill="#DFDFDF" stroke="none" d="M290 142C290 137 290 137 295 137h4C304 137 304 137 304 142v4C304 151 304 151 299 151h-4C290 151 290 151 290 146v-4" /><path fill="#DAEAFC" stroke="none" d="M287 139C287 134 287 134 292 134h4C301 134 301 134 301 139v4C301 148 301 148 296 148h-4C287 148 287 148 287 143v-4" /><path d="M287 139C287 134 287 134 292 134h4C301 134 301 134 301 139v4C301 148 301 148 296 148h-4C287 148 287 148 287 143v-4m0 0C287 134 287 134 292 134h4C301 134 301 134 301 139v4C301 148 301 148 296 148h-4C287 148 287 148 287 143v-4" /><rect x="287" y="134" width="14" height="14" /><path fill="#DFDFDF" stroke="none" d="M400 142C400 137 400 137 405 137h4C414 137 414 137 414 142v4C414 151 414 151 409 151h-4C400 151 400 151 400 146v-4" /><path fill="#DAEAFC" stroke="none" d="M397 139C397 134 397 134 402 134h4C411 134 411 134 411 139v4C411 148 411 148 406 148h-4C397 148 397 148 397 143v-4" /><path d="M397 139C397 134 397 134 402 134h4C411 134 411 134 411 139v4C411 148 411 148 406 148h-4C397 148 397 148 397 143v-4m0 0C397 134 397 134 402 134h4C411 134 411 134 411 139v4C411 148 411 148 406 148h-4C397 148 397 148 397 143v-4" /><rect x="397" y="134" width="14" height="14" /><path fill="#DFDFDF" stroke="none" d="M290 235C290 230 290 230 295 230h4C304 230 304 230 304 235v4C304 244 304 244 299 244h-4C290 244 290 244 290 239v-4" /><path fill="#DAEAFC" stroke="none" d="M287 232C287 227 287 227 292 227h4C301 227 301 227 301 232v4C301 241 301 241 296 241h-4C287 241 287 241 287 236v-4" /><path d="M287 232C287 227 287 227 292 227h4C301 227 301 227 301 232v4C301 241 301 241 296 241h-4C287 241 287 241 287 236v-4m0 0C287 227 287 227 292 227h4C301 227 301 227 301 232v4C301 241 301 241 296 241h-4C287 241 287 241 287 236v-4" /><rect x="287" y="227" width="14" height="14" /><path fill="#DFDFDF" stroke="none" d="M400 240C400 235 400 235 405 235h4C414 235 414 235 414 240v4C414 249 414 249 409 249h-4C400 249 400 249 400 244v-4" /><path fill="#DAEAFC" stroke="none" d="M397 237C397 232 397 232 402 232h4C411 232 411 232 411 237v4C411 246 411 246 406 246h-4C397 246 397 246 397 241v-4" /><path d="M397 237C397 232 397 232 402 232h4C411 232 411 232 411 237v4C411 246 411 246 406 246h-4C397 246 397 246 397 241v-4m0 0C397 232 397 232 402 232h4C411 232 411 232 411 237v4C411 246 411 246 406 246h-4C397 246 397 246 397 241v-4" /><rect x="397" y="232" width="14" height="14" /><path fill="#DFDFDF" stroke="none" d="M400 333C400 328 400 328 405 328h4C414 328 414 328 414 333v4C414 342 414 342 409 342h-4C400 342 400 342 400 337v-4" /><path fill="#DAEAFC" stroke="none" d="M397 330C397 325 397 325 402 325h4C411 325 411 325 411 330v4C411 339 411 339 406 339h-4C397 339 397 339 397 334v-4" /><path d="M397 330C397 325 397 325 402 325h4C411 325 411 325 411 330v4C411 339 411 339 406 339h-4C397 339 397 339 397 334v-4m0 0C397 325 397 325 402 325h4C411 325 411 325 411 330v4C411 339 411 339 406 339h-4C397 339 397 339 397 334v-4" /><rect x="397" y="325" width="14" height="14" /><path fill="#DFDFDF" stroke="none" d="M297 113C297 108 297 108 302 108h99C406 108 406 108 406 113V366C406 371 406 371 401 371H302C297 371 297 371 297 366V113" /><path fill="#FEE6E6" stroke="none" d="M294 110C294 105 294 105 299 105h99C403 105 403 105 403 110V363C403 368 403 368 398 368H299C294 368 294 368 294 363V110" /><path d="M294 110C294 105 294 105 299 105h99C403 105 403 105 403 110V363C403 368 403 368 398 368H299C294 368 294 368 294 363V110m0 0C294 105 294 105 299 105h99C403 105 403 105 403 110V363C403 368 403 368 398 368H299C294 368 294 368 294 363V110" /><rect x="294" y="105" width="109" height="263" /><text transform="matrix(1 0 0 1 315 114)" fill="#000000" font-weight="bold" stroke="none"><desc xmlns:eadoc="http://www.siemens.com/eauml/doc"><eadoc:guid>EAID_8C0FDE00_A52D_4d4b_86E2_C5290D843934</eadoc:guid><eadoc:name>IPA Service</eadoc:name><eadoc:type>Component</eadoc:type><eadoc:note></eadoc:note></desc><tspan dx="0 " x="0" y="9">IPA Service</tspan></text><path fill="#FEE6E6" stroke="none" d="M388 115C388 110 388 110 392 110h2C398 110 398 110 398 115v6C398 126 398 126 394 126h-2C388 126 388 126 388 121v-6" /><path d="M388 115C388 110 388 110 392 110h2C398 110 398 110 398 115v6C398 126 398 126 394 126h-2C388 126 388 126 388 121v-6" /><path fill="#FEE6E6" stroke="none" d="M385 115C385 112 385 112 387 112h2C391 112 391 112 391 115v-2C391 116 391 116 389 116h-2C385 116 385 116 385 113v2" /><path d="M385 115C385 112 385 112 387 112h2C391 112 391 112 391 115v-2C391 116 391 116 389 116h-2C385 116 385 116 385 113v2" /><path fill="#FEE6E6" stroke="none" d="M385 122C385 119 385 119 387 119h2C391 119 391 119 391 122v-2C391 123 391 123 389 123h-2C385 123 385 123 385 120v2" /><path d="M385 122C385 119 385 119 387 119h2C391 119 391 119 391 122v-2C391 123 391 123 389 123h-2C385 123 385 123 385 120v2" /><path fill="#DAEAFC" stroke="none" d="M287 139C287 134 287 134 292 134h4C301 134 301 134 301 139v4C301 148 301 148 296 148h-4C287 148 287 148 287 143v-4" /><path d="M287 139C287 134 287 134 292 134h4C301 134 301 134 301 139v4C301 148 301 148 296 148h-4C287 148 287 148 287 143v-4m0 0C287 134 287 134 292 134h4C301 134 301 134 301 139v4C301 148 301 148 296 148h-4C287 148 287 148 287 143v-4" /><rect x="287" y="134" width="14" height="14" /><path fill="#DAEAFC" stroke="none" d="M397 139C397 134 397 134 402 134h4C411 134 411 134 411 139v4C411 148 411 148 406 148h-4C397 148 397 148 397 143v-4" /><path d="M397 139C397 134 397 134 402 134h4C411 134 411 134 411 139v4C411 148 411 148 406 148h-4C397 148 397 148 397 143v-4m0 0C397 134 397 134 402 134h4C411 134 411 134 411 139v4C411 148 411 148 406 148h-4C397 148 397 148 397 143v-4" /><rect x="397" y="134" width="14" height="14" /><path fill="#DAEAFC" stroke="none" d="M287 232C287 227 287 227 292 227h4C301 227 301 227 301 232v4C301 241 301 241 296 241h-4C287 241 287 241 287 236v-4" /><path d="M287 232C287 227 287 227 292 227h4C301 227 301 227 301 232v4C301 241 301 241 296 241h-4C287 241 287 241 287 236v-4m0 0C287 227 287 227 292 227h4C301 227 301 227 301 232v4C301 241 301 241 296 241h-4C287 241 287 241 287 236v-4" /><rect x="287" y="227" width="14" height="14" /><path fill="#DAEAFC" stroke="none" d="M397 237C397 232 397 232 402 232h4C411 232 411 232 411 237v4C411 246 411 246 406 246h-4C397 246 397 246 397 241v-4" /><path d="M397 237C397 232 397 232 402 232h4C411 232 411 232 411 237v4C411 246 411 246 406 246h-4C397 246 397 246 397 241v-4m0 0C397 232 397 232 402 232h4C411 232 411 232 411 237v4C411 246 411 246 406 246h-4C397 246 397 246 397 241v-4" /><rect x="397" y="232" width="14" height="14" /><path fill="#DAEAFC" stroke="none" d="M397 330C397 325 397 325 402 325h4C411 325 411 325 411 330v4C411 339 411 339 406 339h-4C397 339 397 339 397 334v-4" /><path d="M397 330C397 325 397 325 402 325h4C411 325 411 325 411 330v4C411 339 411 339 406 339h-4C397 339 397 339 397 334v-4m0 0C397 325 397 325 402 325h4C411 325 411 325 411 330v4C411 339 411 339 406 339h-4C397 339 397 339 397 334v-4" /><rect x="397" y="325" width="14" height="14" /><path fill="#DFDFDF" stroke="none" d="M462 142C462 137 462 137 467 137h4C476 137 476 137 476 142v4C476 151 476 151 471 151h-4C462 151 462 151 462 146v-4" /><path fill="#DAEAFC" stroke="none" d="M459 139C459 134 459 134 464 134h4C473 134 473 134 473 139v4C473 148 473 148 468 148h-4C459 148 459 148 459 143v-4" /><path d="M459 139C459 134 459 134 464 134h4C473 134 473 134 473 139v4C473 148 473 148 468 148h-4C459 148 459 148 459 143v-4m0 0C459 134 459 134 464 134h4C473 134 473 134 473 139v4C473 148 473 148 468 148h-4C459 148 459 148 459 143v-4" /><rect x="459" y="134" width="14" height="14" /><path fill="#DFDFDF" stroke="none" d="M572 137C572 132 572 132 577 132h4C586 132 586 132 586 137v4C586 146 586 146 581 146h-4C572 146 572 146 572 141v-4" /><path fill="#DAEAFC" stroke="none" d="M569 134C569 129 569 129 574 129h4C583 129 583 129 583 134v4C583 143 583 143 578 143h-4C569 143 569 143 569 138v-4" /><path d="M569 134C569 129 569 129 574 129h4C583 129 583 129 583 134v4C583 143 583 143 578 143h-4C569 143 569 143 569 138v-4m0 0C569 129 569 129 574 129h4C583 129 583 129 583 134v4C583 143 583 143 578 143h-4C569 143 569 143 569 138v-4" /><rect x="569" y="129" width="14" height="14" /><path fill="#DFDFDF" stroke="none" d="M550 164C550 159 550 159 555 159h4C564 159 564 159 564 164v4C564 173 564 173 559 173h-4C550 173 550 173 550 168v-4" /><path fill="#DAEAFC" stroke="none" d="M547 161C547 156 547 156 552 156h4C561 156 561 156 561 161v4C561 170 561 170 556 170h-4C547 170 547 170 547 165v-4" /><path d="M547 161C547 156 547 156 552 156h4C561 156 561 156 561 161v4C561 170 561 170 556 170h-4C547 170 547 170 547 165v-4m0 0C547 156 547 156 552 156h4C561 156 561 156 561 161v4C561 170 561 170 556 170h-4C547 170 547 170 547 165v-4" /><rect x="547" y="156" width="14" height="14" /><path fill="#DFDFDF" stroke="none" d="M469 111C469 106 469 106 474 106h99C578 106 578 106 578 111v49C578 165 578 165 573 165H474C469 165 469 165 469 160V111" /><path fill="#FEE6E6" stroke="none" d="M466 108C466 103 466 103 471 103h99C575 103 575 103 575 108v49C575 162 575 162 570 162H471C466 162 466 162 466 157V108" /><path d="M466 108C466 103 466 103 471 103h99C575 103 575 103 575 108v49C575 162 575 162 570 162H471C466 162 466 162 466 157V108m0 0C466 103 466 103 471 103h99C575 103 575 103 575 108v49C575 162 575 162 570 162H471C466 162 466 162 466 157V108" /><rect x="466" y="103" width="109" height="59" /><text transform="matrix(1 0 0 1 468 112)" fill="#000000" font-weight="bold" stroke="none"><desc xmlns:eadoc="http://www.siemens.com/eauml/doc"><eadoc:guid>EAID_EA802CCC_2FB8_43a3_B8CA_2DD52C6ADFC8</eadoc:guid><eadoc:name>Dialog Management</eadoc:name><eadoc:type>Component</eadoc:type><eadoc:note></eadoc:note></desc><tspan dx="0 " x="0" y="9">Dialog Management</tspan></text><path fill="#FEE6E6" stroke="none" d="M560 113C560 108 560 108 564 108h2C570 108 570 108 570 113v6C570 124 570 124 566 124h-2C560 124 560 124 560 119v-6" /><path d="M560 113C560 108 560 108 564 108h2C570 108 570 108 570 113v6C570 124 570 124 566 124h-2C560 124 560 124 560 119v-6" /><path fill="#FEE6E6" stroke="none" d="M557 113C557 110 557 110 559 110h2C563 110 563 110 563 113v-2C563 114 563 114 561 114h-2C557 114 557 114 557 111v2" /><path d="M557 113C557 110 557 110 559 110h2C563 110 563 110 563 113v-2C563 114 563 114 561 114h-2C557 114 557 114 557 111v2" /><path fill="#FEE6E6" stroke="none" d="M557 120C557 117 557 117 559 117h2C563 117 563 117 563 120v-2C563 121 563 121 561 121h-2C557 121 557 121 557 118v2" /><path d="M557 120C557 117 557 117 559 117h2C563 117 563 117 563 120v-2C563 121 563 121 561 121h-2C557 121 557 121 557 118v2" /><path fill="#DAEAFC" stroke="none" d="M459 139C459 134 459 134 464 134h4C473 134 473 134 473 139v4C473 148 473 148 468 148h-4C459 148 459 148 459 143v-4" /><path d="M459 139C459 134 459 134 464 134h4C473 134 473 134 473 139v4C473 148 473 148 468 148h-4C459 148 459 148 459 143v-4m0 0C459 134 459 134 464 134h4C473 134 473 134 473 139v4C473 148 473 148 468 148h-4C459 148 459 148 459 143v-4" /><rect x="459" y="134" width="14" height="14" /><path fill="#DAEAFC" stroke="none" d="M569 134C569 129 569 129 574 129h4C583 129 583 129 583 134v4C583 143 583 143 578 143h-4C569 143 569 143 569 138v-4" /><path d="M569 134C569 129 569 129 574 129h4C583 129 583 129 583 134v4C583 143 583 143 578 143h-4C569 143 569 143 569 138v-4m0 0C569 129 569 129 574 129h4C583 129 583 129 583 134v4C583 143 583 143 578 143h-4C569 143 569 143 569 138v-4" /><rect x="569" y="129" width="14" height="14" /><path fill="#DAEAFC" stroke="none" d="M547 161C547 156 547 156 552 156h4C561 156 561 156 561 161v4C561 170 561 170 556 170h-4C547 170 547 170 547 165v-4" /><path d="M547 161C547 156 547 156 552 156h4C561 156 561 156 561 161v4C561 170 561 170 556 170h-4C547 170 547 170 547 165v-4m0 0C547 156 547 156 552 156h4C561 156 561 156 561 161v4C561 170 561 170 556 170h-4C547 170 547 170 547 165v-4" /><rect x="547" y="156" width="14" height="14" /><path fill="#DFDFDF" stroke="none" d="M467 239C467 234 467 234 472 234h4C481 234 481 234 481 239v4C481 248 481 248 476 248h-4C467 248 467 248 467 243v-4" /><path fill="#DAEAFC" stroke="none" d="M464 236C464 231 464 231 469 231h4C478 231 478 231 478 236v4C478 245 478 245 473 245h-4C464 245 464 245 464 240v-4" /><path d="M464 236C464 231 464 231 469 231h4C478 231 478 231 478 236v4C478 245 478 245 473 245h-4C464 245 464 245 464 240v-4m0 0C464 231 464 231 469 231h4C478 231 478 231 478 236v4C478 245 478 245 473 245h-4C464 245 464 245 464 240v-4" /><rect x="464" y="231" width="14" height="14" /><path fill="#DFDFDF" stroke="none" d="M577 242C577 237 577 237 582 237h4C591 237 591 237 591 242v4C591 251 591 251 586 251h-4C577 251 577 251 577 246v-4" /><path fill="#DAEAFC" stroke="none" d="M574 239C574 234 574 234 579 234h4C588 234 588 234 588 239v4C588 248 588 248 583 248h-4C574 248 574 248 574 243v-4" /><path d="M574 239C574 234 574 234 579 234h4C588 234 588 234 588 239v4C588 248 588 248 583 248h-4C574 248 574 248 574 243v-4m0 0C574 234 574 234 579 234h4C588 234 588 234 588 239v4C588 248 588 248 583 248h-4C574 248 574 248 574 243v-4" /><rect x="574" y="234" width="14" height="14" /><path fill="#DFDFDF" stroke="none" d="M474 216C474 211 474 211 479 211h99C583 211 583 211 583 216v49C583 270 583 270 578 270H479C474 270 474 270 474 265V216" /><path fill="#FEE6E6" stroke="none" d="M471 213C471 208 471 208 476 208h99C580 208 580 208 580 213v49C580 267 580 267 575 267H476C471 267 471 267 471 262V213" /><path d="M471 213C471 208 471 208 476 208h99C580 208 580 208 580 213v49C580 267 580 267 575 267H476C471 267 471 267 471 262V213m0 0C471 208 471 208 476 208h99C580 208 580 208 580 213v49C580 267 580 267 575 267H476C471 267 471 267 471 262V213" /><rect x="471" y="208" width="109" height="59" /><text transform="matrix(1 0 0 1 508 217)" fill="#000000" font-weight="bold" stroke="none"><desc xmlns:eadoc="http://www.siemens.com/eauml/doc"><eadoc:guid>EAID_7D54B94F_01EE_4746_8550_5590C60D2398</eadoc:guid><eadoc:name>TTS</eadoc:name><eadoc:type>Component</eadoc:type><eadoc:note></eadoc:note></desc><tspan dx="0 " x="0" y="9">TTS</tspan></text><path fill="#FEE6E6" stroke="none" d="M565 218C565 213 565 213 569 213h2C575 213 575 213 575 218v6C575 229 575 229 571 229h-2C565 229 565 229 565 224v-6" /><path d="M565 218C565 213 565 213 569 213h2C575 213 575 213 575 218v6C575 229 575 229 571 229h-2C565 229 565 229 565 224v-6" /><path fill="#FEE6E6" stroke="none" d="M562 218C562 215 562 215 564 215h2C568 215 568 215 568 218v-2C568 219 568 219 566 219h-2C562 219 562 219 562 216v2" /><path d="M562 218C562 215 562 215 564 215h2C568 215 568 215 568 218v-2C568 219 568 219 566 219h-2C562 219 562 219 562 216v2" /><path fill="#FEE6E6" stroke="none" d="M562 225C562 222 562 222 564 222h2C568 222 568 222 568 225v-2C568 226 568 226 566 226h-2C562 226 562 226 562 223v2" /><path d="M562 225C562 222 562 222 564 222h2C568 222 568 222 568 225v-2C568 226 568 226 566 226h-2C562 226 562 226 562 223v2" /><path fill="#DAEAFC" stroke="none" d="M464 236C464 231 464 231 469 231h4C478 231 478 231 478 236v4C478 245 478 245 473 245h-4C464 245 464 245 464 240v-4" /><path d="M464 236C464 231 464 231 469 231h4C478 231 478 231 478 236v4C478 245 478 245 473 245h-4C464 245 464 245 464 240v-4m0 0C464 231 464 231 469 231h4C478 231 478 231 478 236v4C478 245 478 245 473 245h-4C464 245 464 245 464 240v-4" /><rect x="464" y="231" width="14" height="14" /><path fill="#DAEAFC" stroke="none" d="M574 239C574 234 574 234 579 234h4C588 234 588 234 588 239v4C588 248 588 248 583 248h-4C574 248 574 248 574 243v-4" /><path d="M574 239C574 234 574 234 579 234h4C588 234 588 234 588 239v4C588 248 588 248 583 248h-4C574 248 574 248 574 243v-4m0 0C574 234 574 234 579 234h4C588 234 588 234 588 239v4C588 248 588 248 583 248h-4C574 248 574 248 574 243v-4" /><rect x="574" y="234" width="14" height="14" /><path fill="#DFDFDF" stroke="none" d="M465 335C465 330 465 330 470 330h4C479 330 479 330 479 335v4C479 344 479 344 474 344h-4C465 344 465 344 465 339v-4" /><path fill="#DAEAFC" stroke="none" d="M462 332C462 327 462 327 467 327h4C476 327 476 327 476 332v4C476 341 476 341 471 341h-4C462 341 462 341 462 336v-4" /><path d="M462 332C462 327 462 327 467 327h4C476 327 476 327 476 332v4C476 341 476 341 471 341h-4C462 341 462 341 462 336v-4m0 0C462 327 462 327 467 327h4C476 327 476 327 476 332v4C476 341 476 341 471 341h-4C462 341 462 341 462 336v-4" /><rect x="462" y="327" width="14" height="14" /><path fill="#DFDFDF" stroke="none" d="M575 337C575 332 575 332 580 332h4C589 332 589 332 589 337v4C589 346 589 346 584 346h-4C575 346 575 346 575 341v-4" /><path fill="#DAEAFC" stroke="none" d="M572 334C572 329 572 329 577 329h4C586 329 586 329 586 334v4C586 343 586 343 581 343h-4C572 343 572 343 572 338v-4" /><path d="M572 334C572 329 572 329 577 329h4C586 329 586 329 586 334v4C586 343 586 343 581 343h-4C572 343 572 343 572 338v-4m0 0C572 329 572 329 577 329h4C586 329 586 329 586 334v4C586 343 586 343 581 343h-4C572 343 572 343 572 338v-4" /><rect x="572" y="329" width="14" height="14" /><path fill="#DFDFDF" stroke="none" d="M472 312C472 307 472 307 477 307h99C581 307 581 307 581 312v49C581 366 581 366 576 366H477C472 366 472 366 472 361V312" /><path fill="#FEE6E6" stroke="none" d="M469 309C469 304 469 304 474 304h99C578 304 578 304 578 309v49C578 363 578 363 573 363H474C469 363 469 363 469 358V309" /><path d="M469 309C469 304 469 304 474 304h99C578 304 578 304 578 309v49C578 363 578 363 573 363H474C469 363 469 363 469 358V309m0 0C469 304 469 304 474 304h99C578 304 578 304 578 309v49C578 363 578 363 573 363H474C469 363 469 363 469 358V309" /><rect x="469" y="304" width="109" height="59" /><text transform="matrix(1 0 0 1 505 313)" fill="#000000" font-weight="bold" stroke="none"><desc xmlns:eadoc="http://www.siemens.com/eauml/doc"><eadoc:guid>EAID_5426E0B0_0A5C_479f_9F3E_6EE86C91B879</eadoc:guid><eadoc:name>ASR</eadoc:name><eadoc:type>Component</eadoc:type><eadoc:note></eadoc:note></desc><tspan dx="0 " x="0" y="9">ASR</tspan></text><path fill="#FEE6E6" stroke="none" d="M563 314C563 309 563 309 567 309h2C573 309 573 309 573 314v6C573 325 573 325 569 325h-2C563 325 563 325 563 320v-6" /><path d="M563 314C563 309 563 309 567 309h2C573 309 573 309 573 314v6C573 325 573 325 569 325h-2C563 325 563 325 563 320v-6" /><path fill="#FEE6E6" stroke="none" d="M560 314C560 311 560 311 562 311h2C566 311 566 311 566 314v-2C566 315 566 315 564 315h-2C560 315 560 315 560 312v2" /><path d="M560 314C560 311 560 311 562 311h2C566 311 566 311 566 314v-2C566 315 566 315 564 315h-2C560 315 560 315 560 312v2" /><path fill="#FEE6E6" stroke="none" d="M560 321C560 318 560 318 562 318h2C566 318 566 318 566 321v-2C566 322 566 322 564 322h-2C560 322 560 322 560 319v2" /><path d="M560 321C560 318 560 318 562 318h2C566 318 566 318 566 321v-2C566 322 566 322 564 322h-2C560 322 560 322 560 319v2" /><path fill="#DAEAFC" stroke="none" d="M462 332C462 327 462 327 467 327h4C476 327 476 327 476 332v4C476 341 476 341 471 341h-4C462 341 462 341 462 336v-4" /><path d="M462 332C462 327 462 327 467 327h4C476 327 476 327 476 332v4C476 341 476 341 471 341h-4C462 341 462 341 462 336v-4m0 0C462 327 462 327 467 327h4C476 327 476 327 476 332v4C476 341 476 341 471 341h-4C462 341 462 341 462 336v-4" /><rect x="462" y="327" width="14" height="14" /><path fill="#DAEAFC" stroke="none" d="M572 334C572 329 572 329 577 329h4C586 329 586 329 586 334v4C586 343 586 343 581 343h-4C572 343 572 343 572 338v-4" /><path d="M572 334C572 329 572 329 577 329h4C586 329 586 329 586 334v4C586 343 586 343 581 343h-4C572 343 572 343 572 338v-4m0 0C572 329 572 329 577 329h4C586 329 586 329 586 334v4C586 343 586 343 581 343h-4C572 343 572 343 572 338v-4" /><rect x="572" y="329" width="14" height="14" /><path fill="#DFDFDF" stroke="none" d="M638 138C638 133 638 133 643 133h4C652 133 652 133 652 138v4C652 147 652 147 647 147h-4C638 147 638 147 638 142v-4" /><path fill="#DAEAFC" stroke="none" d="M635 135C635 130 635 130 640 130h4C649 130 649 130 649 135v4C649 144 649 144 644 144h-4C635 144 635 144 635 139v-4" /><path d="M635 135C635 130 635 130 640 130h4C649 130 649 130 649 135v4C649 144 649 144 644 144h-4C635 144 635 144 635 139v-4m0 0C635 130 635 130 640 130h4C649 130 649 130 649 135v4C649 144 649 144 644 144h-4C635 144 635 144 635 139v-4" /><rect x="635" y="130" width="14" height="14" /><path fill="#DFDFDF" stroke="none" d="M646 111C646 106 646 106 651 106h99C755 106 755 106 755 111v49C755 165 755 165 750 165H651C646 165 646 165 646 160V111" /><path fill="#FEE6E6" stroke="none" d="M643 108C643 103 643 103 648 103h99C752 103 752 103 752 108v49C752 162 752 162 747 162H648C643 162 643 162 643 157V108" /><path d="M643 108C643 103 643 103 648 103h99C752 103 752 103 752 108v49C752 162 752 162 747 162H648C643 162 643 162 643 157V108m0 0C643 103 643 103 648 103h99C752 103 752 103 752 108v49C752 162 752 162 747 162H648C643 162 643 162 643 157V108" /><rect x="643" y="103" width="109" height="59" /><text transform="matrix(1 0 0 1 656 112)" fill="#000000" font-weight="bold" stroke="none"><desc xmlns:eadoc="http://www.siemens.com/eauml/doc"><eadoc:guid>EAID_571AAB68_65E1_4b8d_9475_16D81DBBF801</eadoc:guid><eadoc:name>Dialog Registry</eadoc:name><eadoc:type>Component</eadoc:type><eadoc:note></eadoc:note></desc><tspan dx="0 " x="0" y="9">Dialog Registry</tspan></text><path fill="#FEE6E6" stroke="none" d="M737 113C737 108 737 108 741 108h2C747 108 747 108 747 113v6C747 124 747 124 743 124h-2C737 124 737 124 737 119v-6" /><path d="M737 113C737 108 737 108 741 108h2C747 108 747 108 747 113v6C747 124 747 124 743 124h-2C737 124 737 124 737 119v-6" /><path fill="#FEE6E6" stroke="none" d="M734 113C734 110 734 110 736 110h2C740 110 740 110 740 113v-2C740 114 740 114 738 114h-2C734 114 734 114 734 111v2" /><path d="M734 113C734 110 734 110 736 110h2C740 110 740 110 740 113v-2C740 114 740 114 738 114h-2C734 114 734 114 734 111v2" /><path fill="#FEE6E6" stroke="none" d="M734 120C734 117 734 117 736 117h2C740 117 740 117 740 120v-2C740 121 740 121 738 121h-2C734 121 734 121 734 118v2" /><path d="M734 120C734 117 734 117 736 117h2C740 117 740 117 740 120v-2C740 121 740 121 738 121h-2C734 121 734 121 734 118v2" /><path fill="#DAEAFC" stroke="none" d="M635 135C635 130 635 130 640 130h4C649 130 649 130 649 135v4C649 144 649 144 644 144h-4C635 144 635 144 635 139v-4" /><path d="M635 135C635 130 635 130 640 130h4C649 130 649 130 649 135v4C649 144 649 144 644 144h-4C635 144 635 144 635 139v-4m0 0C635 130 635 130 640 130h4C649 130 649 130 649 135v4C649 144 649 144 644 144h-4C635 144 635 144 635 139v-4" /><rect x="635" y="130" width="14" height="14" /><path fill="#DFDFDF" stroke="none" d="M659 209C659 204 659 204 664 204h4C673 204 673 204 673 209v4C673 218 673 218 668 218h-4C659 218 659 218 659 213v-4" /><path fill="#DAEAFC" stroke="none" d="M656 206C656 201 656 201 661 201h4C670 201 670 201 670 206v4C670 215 670 215 665 215h-4C656 215 656 215 656 210v-4" /><path d="M656 206C656 201 656 201 661 201h4C670 201 670 201 670 206v4C670 215 670 215 665 215h-4C656 215 656 215 656 210v-4m0 0C656 201 656 201 661 201h4C670 201 670 201 670 206v4C670 215 670 215 665 215h-4C656 215 656 215 656 210v-4" /><rect x="656" y="201" width="14" height="14" /><path fill="#DFDFDF" stroke="none" d="M639 243C639 238 639 238 644 238h4C653 238 653 238 653 243v4C653 252 653 252 648 252h-4C639 252 639 252 639 247v-4" /><path fill="#DAEAFC" stroke="none" d="M636 240C636 235 636 235 641 235h4C650 235 650 235 650 240v4C650 249 650 249 645 249h-4C636 249 636 249 636 244v-4" /><path d="M636 240C636 235 636 235 641 235h4C650 235 650 235 650 240v4C650 249 650 249 645 249h-4C636 249 636 249 636 244v-4m0 0C636 235 636 235 641 235h4C650 235 650 235 650 240v4C650 249 650 249 645 249h-4C636 249 636 249 636 244v-4" /><rect x="636" y="235" width="14" height="14" /><path fill="#DFDFDF" stroke="none" d="M749 229C749 224 749 224 754 224h4C763 224 763 224 763 229v4C763 238 763 238 758 238h-4C749 238 749 238 749 233v-4" /><path fill="#DAEAFC" stroke="none" d="M746 226C746 221 746 221 751 221h4C760 221 760 221 760 226v4C760 235 760 235 755 235h-4C746 235 746 235 746 230v-4" /><path d="M746 226C746 221 746 221 751 221h4C760 221 760 221 760 226v4C760 235 760 235 755 235h-4C746 235 746 235 746 230v-4m0 0C746 221 746 221 751 221h4C760 221 760 221 760 226v4C760 235 760 235 755 235h-4C746 235 746 235 746 230v-4" /><rect x="746" y="221" width="14" height="14" /><path fill="#DFDFDF" stroke="none" d="M749 253C749 248 749 248 754 248h4C763 248 763 248 763 253v4C763 262 763 262 758 262h-4C749 262 749 262 749 257v-4" /><path fill="#DAEAFC" stroke="none" d="M746 250C746 245 746 245 751 245h4C760 245 760 245 760 250v4C760 259 760 259 755 259h-4C746 259 746 259 746 254v-4" /><path d="M746 250C746 245 746 245 751 245h4C760 245 760 245 760 250v4C760 259 760 259 755 259h-4C746 259 746 259 746 254v-4m0 0C746 245 746 245 751 245h4C760 245 760 245 760 250v4C760 259 760 259 755 259h-4C746 259 746 259 746 254v-4" /><rect x="746" y="245" width="14" height="14" /><path fill="#DFDFDF" stroke="none" d="M646 216C646 211 646 211 651 211h99C755 211 755 211 755 216v49C755 270 755 270 750 270H651C646 270 646 270 646 265V216" /><path fill="#FEE6E6" stroke="none" d="M643 213C643 208 643 208 648 208h99C752 208 752 208 752 213v49C752 267 752 267 747 267H648C643 267 643 267 643 262V213" /><path d="M643 213C643 208 643 208 648 208h99C752 208 752 208 752 213v49C752 267 752 267 747 267H648C643 267 643 267 643 262V213m0 0C643 208 643 208 648 208h99C752 208 752 208 752 213v49C752 267 752 267 747 267H648C643 267 643 267 643 262V213" /><rect x="643" y="208" width="109" height="59" /><text transform="matrix(1 0 0 1 675 217)" fill="#000000" font-weight="bold" stroke="none"><desc xmlns:eadoc="http://www.siemens.com/eauml/doc"><eadoc:guid>EAID_F8B88C5A_FF88_44cf_9A2E_A8E79E261765</eadoc:guid><eadoc:name>Dialog</eadoc:name><eadoc:type>Component</eadoc:type><eadoc:note></eadoc:note></desc><tspan dx="0 " x="0" y="9">Dialog</tspan></text><path fill="#FEE6E6" stroke="none" d="M737 218C737 213 737 213 741 213h2C747 213 747 213 747 218v6C747 229 747 229 743 229h-2C737 229 737 229 737 224v-6" /><path d="M737 218C737 213 737 213 741 213h2C747 213 747 213 747 218v6C747 229 747 229 743 229h-2C737 229 737 229 737 224v-6" /><path fill="#FEE6E6" stroke="none" d="M734 218C734 215 734 215 736 215h2C740 215 740 215 740 218v-2C740 219 740 219 738 219h-2C734 219 734 219 734 216v2" /><path d="M734 218C734 215 734 215 736 215h2C740 215 740 215 740 218v-2C740 219 740 219 738 219h-2C734 219 734 219 734 216v2" /><path fill="#FEE6E6" stroke="none" d="M734 225C734 222 734 222 736 222h2C740 222 740 222 740 225v-2C740 226 740 226 738 226h-2C734 226 734 226 734 223v2" /><path d="M734 225C734 222 734 222 736 222h2C740 222 740 222 740 225v-2C740 226 740 226 738 226h-2C734 226 734 226 734 223v2" /><path fill="#DAEAFC" stroke="none" d="M656 206C656 201 656 201 661 201h4C670 201 670 201 670 206v4C670 215 670 215 665 215h-4C656 215 656 215 656 210v-4" /><path d="M656 206C656 201 656 201 661 201h4C670 201 670 201 670 206v4C670 215 670 215 665 215h-4C656 215 656 215 656 210v-4m0 0C656 201 656 201 661 201h4C670 201 670 201 670 206v4C670 215 670 215 665 215h-4C656 215 656 215 656 210v-4" /><rect x="656" y="201" width="14" height="14" /><path fill="#DAEAFC" stroke="none" d="M636 240C636 235 636 235 641 235h4C650 235 650 235 650 240v4C650 249 650 249 645 249h-4C636 249 636 249 636 244v-4" /><path d="M636 240C636 235 636 235 641 235h4C650 235 650 235 650 240v4C650 249 650 249 645 249h-4C636 249 636 249 636 244v-4m0 0C636 235 636 235 641 235h4C650 235 650 235 650 240v4C650 249 650 249 645 249h-4C636 249 636 249 636 244v-4" /><rect x="636" y="235" width="14" height="14" /><path fill="#DAEAFC" stroke="none" d="M746 226C746 221 746 221 751 221h4C760 221 760 221 760 226v4C760 235 760 235 755 235h-4C746 235 746 235 746 230v-4" /><path d="M746 226C746 221 746 221 751 221h4C760 221 760 221 760 226v4C760 235 760 235 755 235h-4C746 235 746 235 746 230v-4m0 0C746 221 746 221 751 221h4C760 221 760 221 760 226v4C760 235 760 235 755 235h-4C746 235 746 235 746 230v-4" /><rect x="746" y="221" width="14" height="14" /><path fill="#DAEAFC" stroke="none" d="M746 250C746 245 746 245 751 245h4C760 245 760 245 760 250v4C760 259 760 259 755 259h-4C746 259 746 259 746 254v-4" /><path d="M746 250C746 245 746 245 751 245h4C760 245 760 245 760 250v4C760 259 760 259 755 259h-4C746 259 746 259 746 254v-4m0 0C746 245 746 245 751 245h4C760 245 760 245 760 250v4C760 259 760 259 755 259h-4C746 259 746 259 746 254v-4" /><rect x="746" y="245" width="14" height="14" /><path fill="#DFDFDF" stroke="none" d="M824 337C824 332 824 332 829 332h4C838 332 838 332 838 337v4C838 346 838 346 833 346h-4C824 346 824 346 824 341v-4" /><path fill="#DAEAFC" stroke="none" d="M821 334C821 329 821 329 826 329h4C835 329 835 329 835 334v4C835 343 835 343 830 343h-4C821 343 821 343 821 338v-4" /><path d="M821 334C821 329 821 329 826 329h4C835 329 835 329 835 334v4C835 343 835 343 830 343h-4C821 343 821 343 821 338v-4m0 0C821 329 821 329 826 329h4C835 329 835 329 835 334v4C835 343 835 343 830 343h-4C821 343 821 343 821 338v-4" /><rect x="821" y="329" width="14" height="14" /><path fill="#DFDFDF" stroke="none" d="M824 229C824 224 824 224 829 224h4C838 224 838 224 838 229v4C838 238 838 238 833 238h-4C824 238 824 238 824 233v-4" /><path fill="#DAEAFC" stroke="none" d="M821 226C821 221 821 221 826 221h4C835 221 835 221 835 226v4C835 235 835 235 830 235h-4C821 235 821 235 821 230v-4" /><path d="M821 226C821 221 821 221 826 221h4C835 221 835 221 835 226v4C835 235 835 235 830 235h-4C821 235 821 235 821 230v-4m0 0C821 221 821 221 826 221h4C835 221 835 221 835 226v4C835 235 835 235 830 235h-4C821 235 821 235 821 230v-4" /><rect x="821" y="221" width="14" height="14" /><path fill="#DFDFDF" stroke="none" d="M880 209C880 204 880 204 885 204h4C894 204 894 204 894 209v4C894 218 894 218 889 218h-4C880 218 880 218 880 213v-4" /><path fill="#DAEAFC" stroke="none" d="M877 206C877 201 877 201 882 201h4C891 201 891 201 891 206v4C891 215 891 215 886 215h-4C877 215 877 215 877 210v-4" /><path d="M877 206C877 201 877 201 882 201h4C891 201 891 201 891 206v4C891 215 891 215 886 215h-4C877 215 877 215 877 210v-4m0 0C877 201 877 201 882 201h4C891 201 891 201 891 206v4C891 215 891 215 886 215h-4C877 215 877 215 877 210v-4" /><rect x="877" y="201" width="14" height="14" /><path fill="#DFDFDF" stroke="none" d="M934 229C934 224 934 224 939 224h4C948 224 948 224 948 229v4C948 238 948 238 943 238h-4C934 238 934 238 934 233v-4" /><path fill="#DAEAFC" stroke="none" d="M931 226C931 221 931 221 936 221h4C945 221 945 221 945 226v4C945 235 945 235 940 235h-4C931 235 931 235 931 230v-4" /><path d="M931 226C931 221 931 221 936 221h4C945 221 945 221 945 226v4C945 235 945 235 940 235h-4C931 235 931 235 931 230v-4m0 0C931 221 931 221 936 221h4C945 221 945 221 945 226v4C945 235 945 235 940 235h-4C931 235 931 235 931 230v-4" /><rect x="931" y="221" width="14" height="14" /><path fill="#DFDFDF" stroke="none" d="M824 254C824 249 824 249 829 249h4C838 249 838 249 838 254v4C838 263 838 263 833 263h-4C824 263 824 263 824 258v-4" /><path fill="#DAEAFC" stroke="none" d="M821 251C821 246 821 246 826 246h4C835 246 835 246 835 251v4C835 260 835 260 830 260h-4C821 260 821 260 821 255v-4" /><path d="M821 251C821 246 821 246 826 246h4C835 246 835 246 835 251v4C835 260 835 260 830 260h-4C821 260 821 260 821 255v-4m0 0C821 246 821 246 826 246h4C835 246 835 246 835 251v4C835 260 835 260 830 260h-4C821 260 821 260 821 255v-4" /><rect x="821" y="246" width="14" height="14" /><path fill="#DFDFDF" stroke="none" d="M934 256C934 251 934 251 939 251h4C948 251 948 251 948 256v4C948 265 948 265 943 265h-4C934 265 934 265 934 260v-4" /><path fill="#DAEAFC" stroke="none" d="M931 253C931 248 931 248 936 248h4C945 248 945 248 945 253v4C945 262 945 262 940 262h-4C931 262 931 262 931 257v-4" /><path d="M931 253C931 248 931 248 936 248h4C945 248 945 248 945 253v4C945 262 945 262 940 262h-4C931 262 931 262 931 257v-4m0 0C931 248 931 248 936 248h4C945 248 945 248 945 253v4C945 262 945 262 940 262h-4C931 262 931 262 931 257v-4" /><rect x="931" y="248" width="14" height="14" /><path fill="#DFDFDF" stroke="none" d="M831 216C831 211 831 211 836 211h99C940 211 940 211 940 216V361C940 366 940 366 935 366H836C831 366 831 366 831 361V216" /><path fill="#FEE6E6" stroke="none" d="M828 213C828 208 828 208 833 208h99C937 208 937 208 937 213V358C937 363 937 363 932 363H833C828 363 828 363 828 358V213" /><path d="M828 213C828 208 828 208 833 208h99C937 208 937 208 937 213V358C937 363 937 363 932 363H833C828 363 828 363 828 358V213m0 0C828 208 828 208 833 208h99C937 208 937 208 937 213V358C937 363 937 363 932 363H833C828 363 828 363 828 358V213" /><rect x="828" y="208" width="109" height="155" /><text transform="matrix(1 0 0 1 834 217)" fill="#000000" font-weight="bold" stroke="none"><desc xmlns:eadoc="http://www.siemens.com/eauml/doc"><eadoc:guid>EAID_FE4E4BCC_8148_4eb0_A5F7_8630B95A6BEE</eadoc:guid><eadoc:name>Provider Selection Service</eadoc:name><eadoc:type>Component</eadoc:type><eadoc:note></eadoc:note></desc><tspan dx="0 " x="0" y="9">P</tspan><tspan dx="0 " x="5.666667" y="9">r</tspan><tspan dx="0 " x="9" y="9">o</tspan><tspan dx="0 " x="14.33333" y="9">v</tspan><tspan dx="0 " x="19.33333" y="9">i</tspan><tspan dx="0 " x="21.66666" y="9">d</tspan><tspan dx="0 " x="27" y="9">e</tspan><tspan dx="0 " x="32" y="9">r</tspan><tspan dx="0 " x="35.33333" y="9"> </tspan><tspan dx="0 " x="37.66666" y="9">S</tspan><tspan dx="0 " x="42.66666" y="9">e</tspan><tspan dx="0 " x="47.66666" y="9">l</tspan><tspan dx="0 " x="49.99999" y="9">e</tspan><tspan dx="0 " x="54.99999" y="9">c</tspan><tspan dx="0 0 " x="59.33332" y="9">ti</tspan><tspan dx="0 " x="64.99999" y="9">o</tspan><tspan dx="0 " x="70.33333" y="9">n</tspan><tspan dx="0 " x="75.66666" y="9"> </tspan><tspan dx="0 " x="23" y="22">Service</tspan></text><path fill="#FEE6E6" stroke="none" d="M922 218C922 213 922 213 926 213h2C932 213 932 213 932 218v6C932 229 932 229 928 229h-2C922 229 922 229 922 224v-6" /><path d="M922 218C922 213 922 213 926 213h2C932 213 932 213 932 218v6C932 229 932 229 928 229h-2C922 229 922 229 922 224v-6" /><path fill="#FEE6E6" stroke="none" d="M919 218C919 215 919 215 921 215h2C925 215 925 215 925 218v-2C925 219 925 219 923 219h-2C919 219 919 219 919 216v2" /><path d="M919 218C919 215 919 215 921 215h2C925 215 925 215 925 218v-2C925 219 925 219 923 219h-2C919 219 919 219 919 216v2" /><path fill="#FEE6E6" stroke="none" d="M919 225C919 222 919 222 921 222h2C925 222 925 222 925 225v-2C925 226 925 226 923 226h-2C919 226 919 226 919 223v2" /><path d="M919 225C919 222 919 222 921 222h2C925 222 925 222 925 225v-2C925 226 925 226 923 226h-2C919 226 919 226 919 223v2" /><path fill="#DAEAFC" stroke="none" d="M821 334C821 329 821 329 826 329h4C835 329 835 329 835 334v4C835 343 835 343 830 343h-4C821 343 821 343 821 338v-4" /><path d="M821 334C821 329 821 329 826 329h4C835 329 835 329 835 334v4C835 343 835 343 830 343h-4C821 343 821 343 821 338v-4m0 0C821 329 821 329 826 329h4C835 329 835 329 835 334v4C835 343 835 343 830 343h-4C821 343 821 343 821 338v-4" /><rect x="821" y="329" width="14" height="14" /><path fill="#DAEAFC" stroke="none" d="M821 226C821 221 821 221 826 221h4C835 221 835 221 835 226v4C835 235 835 235 830 235h-4C821 235 821 235 821 230v-4" /><path d="M821 226C821 221 821 221 826 221h4C835 221 835 221 835 226v4C835 235 835 235 830 235h-4C821 235 821 235 821 230v-4m0 0C821 221 821 221 826 221h4C835 221 835 221 835 226v4C835 235 835 235 830 235h-4C821 235 821 235 821 230v-4" /><rect x="821" y="221" width="14" height="14" /><path fill="#DAEAFC" stroke="none" d="M877 206C877 201 877 201 882 201h4C891 201 891 201 891 206v4C891 215 891 215 886 215h-4C877 215 877 215 877 210v-4" /><path d="M877 206C877 201 877 201 882 201h4C891 201 891 201 891 206v4C891 215 891 215 886 215h-4C877 215 877 215 877 210v-4m0 0C877 201 877 201 882 201h4C891 201 891 201 891 206v4C891 215 891 215 886 215h-4C877 215 877 215 877 210v-4" /><rect x="877" y="201" width="14" height="14" /><path fill="#DAEAFC" stroke="none" d="M931 226C931 221 931 221 936 221h4C945 221 945 221 945 226v4C945 235 945 235 940 235h-4C931 235 931 235 931 230v-4" /><path d="M931 226C931 221 931 221 936 221h4C945 221 945 221 945 226v4C945 235 945 235 940 235h-4C931 235 931 235 931 230v-4m0 0C931 221 931 221 936 221h4C945 221 945 221 945 226v4C945 235 945 235 940 235h-4C931 235 931 235 931 230v-4" /><rect x="931" y="221" width="14" height="14" /><path fill="#DAEAFC" stroke="none" d="M821 251C821 246 821 246 826 246h4C835 246 835 246 835 251v4C835 260 835 260 830 260h-4C821 260 821 260 821 255v-4" /><path d="M821 251C821 246 821 246 826 246h4C835 246 835 246 835 251v4C835 260 835 260 830 260h-4C821 260 821 260 821 255v-4m0 0C821 246 821 246 826 246h4C835 246 835 246 835 251v4C835 260 835 260 830 260h-4C821 260 821 260 821 255v-4" /><rect x="821" y="246" width="14" height="14" /><path fill="#DAEAFC" stroke="none" d="M931 253C931 248 931 248 936 248h4C945 248 945 248 945 253v4C945 262 945 262 940 262h-4C931 262 931 262 931 257v-4" /><path d="M931 253C931 248 931 248 936 248h4C945 248 945 248 945 253v4C945 262 945 262 940 262h-4C931 262 931 262 931 257v-4m0 0C931 248 931 248 936 248h4C945 248 945 248 945 253v4C945 262 945 262 940 262h-4C931 262 931 262 931 257v-4" /><rect x="931" y="248" width="14" height="14" /><path fill="#DFDFDF" stroke="none" d="M877 161C877 156 877 156 882 156h4C891 156 891 156 891 161v4C891 170 891 170 886 170h-4C877 170 877 170 877 165v-4" /><path fill="#DAEAFC" stroke="none" d="M874 158C874 153 874 153 879 153h4C888 153 888 153 888 158v4C888 167 888 167 883 167h-4C874 167 874 167 874 162v-4" /><path d="M874 158C874 153 874 153 879 153h4C888 153 888 153 888 158v4C888 167 888 167 883 167h-4C874 167 874 167 874 162v-4m0 0C874 153 874 153 879 153h4C888 153 888 153 888 158v4C888 167 888 167 883 167h-4C874 167 874 167 874 162v-4" /><rect x="874" y="153" width="14" height="14" /><path fill="#DFDFDF" stroke="none" d="M832 108C832 103 832 103 837 103h99C941 103 941 103 941 108v49C941 162 941 162 936 162H837C832 162 832 162 832 157V108" /><path fill="#FEE6E6" stroke="none" d="M829 105C829 100 829 100 834 100h99C938 100 938 100 938 105v49C938 159 938 159 933 159H834C829 159 829 159 829 154V105" /><path d="M829 105C829 100 829 100 834 100h99C938 100 938 100 938 105v49C938 159 938 159 933 159H834C829 159 829 159 829 154V105m0 0C829 100 829 100 834 100h99C938 100 938 100 938 105v49C938 159 938 159 933 159H834C829 159 829 159 829 154V105" /><rect x="829" y="100" width="109" height="59" /><text transform="matrix(1 0 0 1 851 109)" fill="#000000" font-weight="bold" stroke="none"><tspan dx="0 " x="0" y="9">Accounts / </tspan></text><text transform="matrix(1 0 0 1 844 122)" fill="#000000" font-weight="bold" stroke="none"><tspan dx="0 " x="0" y="9">A</tspan><tspan dx="0 " x="5.666667" y="9">u</tspan><tspan dx="0 " x="10.66667" y="9">t</tspan><tspan dx="0 " x="14" y="9">h</tspan><tspan dx="0 " x="19" y="9">e</tspan><tspan dx="0 " x="23.66667" y="9">n</tspan><tspan dx="0 0 " x="28.66667" y="9">ti</tspan><tspan dx="0 " x="34.33334" y="9">c</tspan><tspan dx="0 " x="38.66667" y="9">a</tspan><tspan dx="0 0 " x="43.66667" y="9">ti</tspan><tspan dx="0 " x="49.33334" y="9">o</tspan><tspan dx="0 " x="54.66667" y="9">n</tspan></text><path fill="#FEE6E6" stroke="none" d="M923 110C923 105 923 105 927 105h2C933 105 933 105 933 110v6C933 121 933 121 929 121h-2C923 121 923 121 923 116v-6" /><path d="M923 110C923 105 923 105 927 105h2C933 105 933 105 933 110v6C933 121 933 121 929 121h-2C923 121 923 121 923 116v-6" /><path fill="#FEE6E6" stroke="none" d="M920 110C920 107 920 107 922 107h2C926 107 926 107 926 110v-2C926 111 926 111 924 111h-2C920 111 920 111 920 108v2" /><path d="M920 110C920 107 920 107 922 107h2C926 107 926 107 926 110v-2C926 111 926 111 924 111h-2C920 111 920 111 920 108v2" /><path fill="#FEE6E6" stroke="none" d="M920 117C920 114 920 114 922 114h2C926 114 926 114 926 117v-2C926 118 926 118 924 118h-2C920 118 920 118 920 115v2" /><path d="M920 117C920 114 920 114 922 114h2C926 114 926 114 926 117v-2C926 118 926 118 924 118h-2C920 118 920 118 920 115v2" /><path fill="#DAEAFC" stroke="none" d="M874 158C874 153 874 153 879 153h4C888 153 888 153 888 158v4C888 167 888 167 883 167h-4C874 167 874 167 874 162v-4" /><path d="M874 158C874 153 874 153 879 153h4C888 153 888 153 888 158v4C888 167 888 167 883 167h-4C874 167 874 167 874 162v-4m0 0C874 153 874 153 879 153h4C888 153 888 153 888 158v4C888 167 888 167 883 167h-4C874 167 874 167 874 162v-4" /><rect x="874" y="153" width="14" height="14" /><path fill="#DFDFDF" stroke="none" d="M1002 229C1002 224 1002 224 1007 224h4C1016 224 1016 224 1016 229v4C1016 238 1016 238 1011 238h-4C1002 238 1002 238 1002 233v-4" /><path fill="#DAEAFC" stroke="none" d="M999 226C999 221 999 221 1004 221h4C1013 221 1013 221 1013 226v4C1013 235 1013 235 1008 235h-4C999 235 999 235 999 230v-4" /><path d="M999 226C999 221 999 221 1004 221h4C1013 221 1013 221 1013 226v4C1013 235 1013 235 1008 235h-4C999 235 999 235 999 230v-4m0 0C999 221 999 221 1004 221h4C1013 221 1013 221 1013 226v4C1013 235 1013 235 1008 235h-4C999 235 999 235 999 230v-4" /><rect x="999" y="221" width="14" height="14" /><path fill="#DFDFDF" stroke="none" d="M1001 258C1001 253 1001 253 1006 253h4C1015 253 1015 253 1015 258v4C1015 267 1015 267 1010 267h-4C1001 267 1001 267 1001 262v-4" /><path fill="#DAEAFC" stroke="none" d="M998 255C998 250 998 250 1003 250h4C1012 250 1012 250 1012 255v4C1012 264 1012 264 1007 264h-4C998 264 998 264 998 259v-4" /><path d="M998 255C998 250 998 250 1003 250h4C1012 250 1012 250 1012 255v4C1012 264 1012 264 1007 264h-4C998 264 998 264 998 259v-4m0 0C998 250 998 250 1003 250h4C1012 250 1012 250 1012 255v4C1012 264 1012 264 1007 264h-4C998 264 998 264 998 259v-4" /><rect x="998" y="250" width="14" height="14" /><path fill="#DFDFDF" stroke="none" d="M1009 219C1009 214 1009 214 1014 214h99C1118 214 1118 214 1118 219v49C1118 273 1118 273 1113 273h-99C1009 273 1009 273 1009 268V219" /><path fill="#FEE6E6" stroke="none" d="M1006 216C1006 211 1006 211 1011 211h99C1115 211 1115 211 1115 216v49C1115 270 1115 270 1110 270h-99C1006 270 1006 270 1006 265V216" /><path d="M1006 216C1006 211 1006 211 1011 211h99C1115 211 1115 211 1115 216v49C1115 270 1115 270 1110 270h-99C1006 270 1006 270 1006 265V216m0 0C1006 211 1006 211 1011 211h99C1115 211 1115 211 1115 216v49C1115 270 1115 270 1110 270h-99C1006 270 1006 270 1006 265V216" /><rect x="1006" y="211" width="109" height="59" /><text transform="matrix(1 0 0 1 1024 220)" fill="#000000" font-weight="bold" stroke="none"><desc xmlns:eadoc="http://www.siemens.com/eauml/doc"><eadoc:guid>EAID_829F77F3_85E0_400a_A51A_92EE66A78F09</eadoc:guid><eadoc:name>IPA Provider</eadoc:name><eadoc:type>Component</eadoc:type><eadoc:note></eadoc:note></desc><tspan dx="0 " x="0" y="9">IPA Provider</tspan></text><path fill="#FEE6E6" stroke="none" d="M1100 221C1100 216 1100 216 1104 216h2C1110 216 1110 216 1110 221v6C1110 232 1110 232 1106 232h-2C1100 232 1100 232 1100 227v-6" /><path d="M1100 221C1100 216 1100 216 1104 216h2C1110 216 1110 216 1110 221v6C1110 232 1110 232 1106 232h-2C1100 232 1100 232 1100 227v-6" /><path fill="#FEE6E6" stroke="none" d="M1097 221C1097 218 1097 218 1099 218h2C1103 218 1103 218 1103 221v-2C1103 222 1103 222 1101 222h-2C1097 222 1097 222 1097 219v2" /><path d="M1097 221C1097 218 1097 218 1099 218h2C1103 218 1103 218 1103 221v-2C1103 222 1103 222 1101 222h-2C1097 222 1097 222 1097 219v2" /><path fill="#FEE6E6" stroke="none" d="M1097 228C1097 225 1097 225 1099 225h2C1103 225 1103 225 1103 228v-2C1103 229 1103 229 1101 229h-2C1097 229 1097 229 1097 226v2" /><path d="M1097 228C1097 225 1097 225 1099 225h2C1103 225 1103 225 1103 228v-2C1103 229 1103 229 1101 229h-2C1097 229 1097 229 1097 226v2" /><path fill="#DAEAFC" stroke="none" d="M999 226C999 221 999 221 1004 221h4C1013 221 1013 221 1013 226v4C1013 235 1013 235 1008 235h-4C999 235 999 235 999 230v-4" /><path d="M999 226C999 221 999 221 1004 221h4C1013 221 1013 221 1013 226v4C1013 235 1013 235 1008 235h-4C999 235 999 235 999 230v-4m0 0C999 221 999 221 1004 221h4C1013 221 1013 221 1013 226v4C1013 235 1013 235 1008 235h-4C999 235 999 235 999 230v-4" /><rect x="999" y="221" width="14" height="14" /><path fill="#DAEAFC" stroke="none" d="M998 255C998 250 998 250 1003 250h4C1012 250 1012 250 1012 255v4C1012 264 1012 264 1007 264h-4C998 264 998 264 998 259v-4" /><path d="M998 255C998 250 998 250 1003 250h4C1012 250 1012 250 1012 255v4C1012 264 1012 264 1007 264h-4C998 264 998 264 998 259v-4m0 0C998 250 998 250 1003 250h4C1012 250 1012 250 1012 255v4C1012 264 1012 264 1007 264h-4C998 264 998 264 998 259v-4" /><rect x="998" y="250" width="14" height="14" /><path d="M946 257h17M972.18 246.57C971.79 246.52 971.39 246.5 971 246.5C966.25 247 962 251.25 962 256.5C962 261.75 966.25 266 971.5 266C971.32 265.5 971.63 265.48 971.95 265.45M978 257h20" /><path fill="#FCF2E3" stroke="none" d="M965 256.5C965 252.91 967.91 250 971.5 250C975.09 250 978 252.91 978 256.5C978 260.09 975.09 263 971.5 263C967.91 263 965 260.09 965 256.5" /><path d="M965 256.5C965 252.91 967.91 250 971.5 250C975.09 250 978 252.91 978 256.5C978 260.09 975.09 263 971.5 263C967.91 263 965 260.09 965 256.5M761 252h21M791.18 241.57C790.79 241.52 790.39 241.5 790 241.5C785.25 242 781 246.25 781 251.5C781 256.75 785.25 261 790.5 261C790.32 260.5 790.63 260.48 790.95 260.45M797 252h24" /><path fill="#FCF2E3" stroke="none" d="M784 251.5C784 247.91 786.91 245 790.5 245C794.09 245 797 247.91 797 251.5C797 255.09 794.09 258 790.5 258C786.91 258 784 255.09 784 251.5" /><path d="M784 251.5C784 247.91 786.91 245 790.5 245C794.09 245 797 247.91 797 251.5C797 255.09 794.09 258 790.5 258C786.91 258 784 255.09 784 251.5M946 228h17M972.18 217.57C971.79 217.52 971.39 217.5 971 217.5C966.25 218 962 222.25 962 227.5C962 232.75 966.25 237 971.5 237C971.32 236.5 971.63 236.48 971.95 236.45M978 228h21" /><path fill="#FCF2E3" stroke="none" d="M965 227.5C965 223.91 967.91 221 971.5 221C975.09 221 978 223.91 978 227.5C978 231.09 975.09 234 971.5 234C967.91 234 965 231.09 965 227.5" /><path d="M965 227.5C965 223.91 967.91 221 971.5 221C975.09 221 978 223.91 978 227.5C978 231.09 975.09 234 971.5 234C967.91 234 965 231.09 965 227.5M881 168l1 7M890.45 183.95C890.48 183.63 890.5 183.32 890.5 183C891 178.25 886.75 174 881.5 174C876.25 174 872 178.25 872 183.5C871.5 183.35 871.52 183.7 871.56 184.05M882 191l1 10" /><path fill="#FCF2E3" stroke="none" d="M875 183.5C875 179.91 877.91 177 881.5 177C885.09 177 888 179.91 888 183.5C888 187.09 885.09 190 881.5 190C877.91 190 875 187.09 875 183.5" /><path d="M875 183.5C875 179.91 877.91 177 881.5 177C885.09 177 888 179.91 888 183.5C888 187.09 885.09 190 881.5 190C877.91 190 875 187.09 875 183.5M821 228H801M790.86 236.46C795.73 236.02 799.5 231.89 799.5 227C799.5 222.18 795.84 218.09 791.05 217.56M784 228H761" /><path fill="#FCF2E3" stroke="none" d="M784 227.5C784 223.91 786.91 221 790.5 221C794.09 221 797 223.91 797 227.5C797 231.09 794.09 234 790.5 234C786.91 234 784 231.09 784 227.5" /><path d="M784 227.5C784 223.91 786.91 221 790.5 221C794.09 221 797 223.91 797 227.5C797 231.09 794.09 234 790.5 234C786.91 234 784 231.09 784 227.5M821 337H714M703.86 345.46C708.73 345.02 712.5 340.89 712.5 336C712.5 331.18 708.84 327.09 704.05 326.56M697 337H587" /><path fill="#FCF2E3" stroke="none" d="M697 336.5C697 332.91 699.91 330 703.5 330C707.09 330 710 332.91 710 336.5C710 340.09 707.09 343 703.5 343C699.91 343 697 340.09 697 336.5" /><path d="M697 336.5C697 332.91 699.91 330 703.5 330C707.09 330 710 332.91 710 336.5C710 340.09 707.09 343 703.5 343C699.91 343 697 340.09 697 336.5M636 241H622M611.86 249.46C616.73 249.02 620.5 244.89 620.5 240C620.5 235.18 616.84 231.09 612.05 230.56M605 241H589" /><path fill="#FCF2E3" stroke="none" d="M605 240.5C605 236.91 607.91 234 611.5 234C615.09 234 618 236.91 618 240.5C618 244.09 615.09 247 611.5 247C607.91 247 605 244.09 605 240.5" /><path d="M605 240.5C605 236.91 607.91 234 611.5 234C615.09 234 618 236.91 618 240.5C618 244.09 615.09 247 611.5 247C607.91 247 605 244.09 605 240.5M656 205L618 188M605.27 193.1C606.16 193.37 607.08 193.5 608 193.5C613.75 194 618 189.75 618 184.5C617.5 180.41 615.46 177.11 612.25 175.5M603 183L562 166" /><path fill="#FCF2E3" stroke="none" d="M602 184.5C602 180.91 604.91 178 608.5 178C612.09 178 615 180.91 615 184.5C615 188.09 612.09 191 608.5 191C604.91 191 602 188.09 602 184.5" /><path d="M602 184.5C602 180.91 604.91 178 608.5 178C612.09 178 615 180.91 615 184.5C615 188.09 612.09 191 608.5 191C604.91 191 602 188.09 602 184.5M584 136h16M609.18 125.57C608.79 125.52 608.39 125.5 608 125.5C603.25 126 599 130.25 599 135.5C599 140.75 603.25 145 608.5 145C608.32 144.5 608.63 144.48 608.95 144.45M615 136h20" /><path fill="#FCF2E3" stroke="none" d="M602 135.5C602 131.91 604.91 129 608.5 129C612.09 129 615 131.91 615 135.5C615 139.09 612.09 142 608.5 142C604.91 142 602 139.09 602 135.5" /><path d="M602 135.5C602 131.91 604.91 129 608.5 129C612.09 129 615 131.91 615 135.5C615 139.09 612.09 142 608.5 142C604.91 142 602 139.09 602 135.5M412 332h16M437.18 321.57C436.79 321.52 436.39 321.5 436 321.5C431.25 322 427 326.25 427 331.5C427 336.75 431.25 341 436.5 341C436.32 340.5 436.63 340.48 436.95 340.45M443 332l19 1" /><path fill="#FCF2E3" stroke="none" d="M430 331.5C430 327.91 432.91 325 436.5 325C440.09 325 443 327.91 443 331.5C443 335.09 440.09 338 436.5 338C432.91 338 430 335.09 430 331.5" /><path d="M430 331.5C430 327.91 432.91 325 436.5 325C440.09 325 443 327.91 443 331.5C443 335.09 440.09 338 436.5 338C432.91 338 430 335.09 430 331.5M464 238H448M437.86 246.46C442.73 246.02 446.5 241.89 446.5 237C446.5 232.18 442.84 228.09 438.05 227.56M431 238H412" /><path fill="#FCF2E3" stroke="none" d="M431 237.5C431 233.91 433.91 231 437.5 231C441.09 231 444 233.91 444 237.5C444 241.09 441.09 244 437.5 244C433.91 244 431 241.09 431 237.5" /><path d="M431 237.5C431 233.91 433.91 231 437.5 231C441.09 231 444 233.91 444 237.5C444 241.09 441.09 244 437.5 244C433.91 244 431 241.09 431 237.5M200 235h34M243.18 224.57C242.79 224.52 242.39 224.5 242 224.5C237.25 225 233 229.25 233 234.5C233 239.75 237.25 244 242.5 244C242.32 243.5 242.63 243.48 242.95 243.45M249 235h38" /><path fill="#FCF2E3" stroke="none" d="M236 234.5C236 230.91 238.91 228 242.5 228C246.09 228 249 230.91 249 234.5C249 238.09 246.09 241 242.5 241C238.91 241 236 238.09 236 234.5" /><path d="M236 234.5C236 230.91 238.91 228 242.5 228C246.09 228 249 230.91 249 234.5C249 238.09 246.09 241 242.5 241C238.91 241 236 238.09 236 234.5M459 141H445M434.86 149.46C439.73 149.02 443.5 144.89 443.5 140C443.5 135.18 439.84 131.09 435.05 130.56M428 141H412" /><path fill="#FCF2E3" stroke="none" d="M428 140.5C428 136.91 430.91 134 434.5 134C438.09 134 441 136.91 441 140.5C441 144.09 438.09 147 434.5 147C430.91 147 428 144.09 428 140.5" /><path d="M428 140.5C428 136.91 430.91 134 434.5 134C438.09 134 441 136.91 441 140.5C441 144.09 438.09 147 434.5 147C430.91 147 428 144.09 428 140.5M287 142H253M242.86 150.46C247.73 150.02 251.5 145.89 251.5 141C251.5 136.18 247.84 132.09 243.05 131.56M236 142H200" /><path fill="#FCF2E3" stroke="none" d="M236 141.5C236 137.91 238.91 135 242.5 135C246.09 135 249 137.91 249 141.5C249 145.09 246.09 148 242.5 148C238.91 148 236 145.09 236 141.5" /><path d="M236 141.5C236 137.91 238.91 135 242.5 135C246.09 135 249 137.91 249 141.5C249 145.09 246.09 148 242.5 148C238.91 148 236 145.09 236 141.5" /><g transform="matrix(1 0 0 -1 582 109)"><rect fill="#FFFFFF" stroke="none" x="0" width="56" y="-13" height="13" /></g><text transform="matrix(1 0 0 1 582 109)" fill="#000000" stroke="none"><tspan dx="0 " x="0" y="9">Dialog Access</tspan></text><g transform="matrix(1 0 0 -1 411 113)"><rect fill="#FFFFFF" stroke="none" x="0" width="50" y="-13" height="13" /></g><text transform="matrix(1 0 0 1 411 113)" fill="#000000" stroke="none"><tspan dx="0 " x="0" y="9">Dialog Input</tspan></text><g transform="matrix(1 0 0 -1 750 200)"><rect fill="#FFFFFF" stroke="none" x="0" width="87" y="-13" height="13" /></g><text transform="matrix(1 0 0 1 750 200)" fill="#000000" stroke="none"><tspan dx="0 " x="0" y="9">Provider Dialog Input</tspan></text><g transform="matrix(1 0 0 -1 915 194)"><rect fill="#FFFFFF" stroke="none" x="0" width="122" y="-13" height="13" /></g><text transform="matrix(1 0 0 1 915 194)" fill="#000000" stroke="none"><tspan dx="0 " x="0" y="9">S</tspan><tspan dx="0 " x="4.333333" y="9">p</tspan><tspan dx="0 " x="9.333333" y="9">e</tspan><tspan dx="0 " x="14" y="9">c</tspan><tspan dx="0 " x="18" y="9">i</tspan><tspan dx="0 0 " x="20.33333" y="9">fi</tspan><tspan dx="0 " x="25.66666" y="9">c</tspan><tspan dx="0 " x="30" y="9"> </tspan><tspan dx="0 " x="32.33333" y="9">P</tspan><tspan dx="0 " x="37.66666" y="9">r</tspan><tspan dx="0 " x="40.99999" y="9">o</tspan><tspan dx="0 " x="46.33332" y="9">v</tspan><tspan dx="0 " x="50.99999" y="9">i</tspan><tspan dx="0 " x="53.33332" y="9">d</tspan><tspan dx="0 " x="58.66666" y="9">e</tspan><tspan dx="0 " x="63.66666" y="9">r</tspan><tspan dx="0 " x="66.99999" y="9"> </tspan><tspan dx="0 " x="69.33333" y="9">D</tspan><tspan dx="0 " x="75.66666" y="9">i</tspan><tspan dx="0 " x="78" y="9">a</tspan><tspan dx="0 " x="83" y="9">l</tspan><tspan dx="0 " x="85.33334" y="9">o</tspan><tspan dx="0 " x="90.66667" y="9">g</tspan><tspan dx="0 " x="95.66667" y="9"> </tspan><tspan dx="0 " x="98.00001" y="9"> </tspan><tspan dx="0 " x="100.3333" y="9">I</tspan><tspan dx="0 " x="102.6667" y="9">n</tspan><tspan dx="0 " x="108" y="9">p</tspan><tspan dx="0 " x="113.3334" y="9">u</tspan><tspan dx="0 " x="118.6667" y="9">t</tspan></text><g transform="matrix(1 0 0 -1 212 208)"><rect fill="#FFFFFF" stroke="none" x="0" width="65" y="-13" height="13" /></g><text transform="matrix(1 0 0 1 212 208)" fill="#000000" stroke="none"><tspan dx="0 " x="0" y="9">Client Response</tspan></text><g transform="matrix(1 0 0 -1 628 172)"><rect fill="#FFFFFF" stroke="none" x="0" width="83" y="-13" height="13" /></g><text transform="matrix(1 0 0 1 628 172)" fill="#000000" stroke="none"><tspan dx="0 " x="0" y="9">S</tspan><tspan dx="0 " x="4.333333" y="9">p</tspan><tspan dx="0 " x="9.333333" y="9">e</tspan><tspan dx="0 " x="14" y="9">c</tspan><tspan dx="0 " x="18.33333" y="9">i</tspan><tspan dx="0 0 " x="20.66666" y="9">fi</tspan><tspan dx="0 " x="26" y="9">c</tspan><tspan dx="0 " x="30.33333" y="9"> </tspan><tspan dx="0 " x="32.66666" y="9">D</tspan><tspan dx="0 " x="38.99999" y="9">i</tspan><tspan dx="0 " x="41.33332" y="9">a</tspan><tspan dx="0 " x="46.33332" y="9">l</tspan><tspan dx="0 " x="48.66666" y="9">o</tspan><tspan dx="0 " x="53.99999" y="9">g</tspan><tspan dx="0 " x="58.99999" y="9"> </tspan><tspan dx="0 " x="61.33332" y="9">I</tspan><tspan dx="0 " x="63.66665" y="9">n</tspan><tspan dx="0 " x="68.99998" y="9">p</tspan><tspan dx="0 " x="74.33332" y="9">u</tspan><tspan dx="0 " x="79.66666" y="9">t</tspan></text><g transform="matrix(1 0 0 -1 414 212)"><rect fill="#FFFFFF" stroke="none" x="0" width="47" y="-13" height="13" /></g><text transform="matrix(1 0 0 1 414 212)" fill="#000000" stroke="none"><tspan dx="0 " x="0" y="9">TTS Output</tspan></text><g transform="matrix(1 0 0 -1 419 306)"><rect fill="#FFFFFF" stroke="none" x="0" width="41" y="-13" height="13" /></g><text transform="matrix(1 0 0 1 419 306)" fill="#000000" stroke="none"><tspan dx="0 " x="0" y="9">ASR Input</tspan></text><g transform="matrix(1 0 0 -1 902 172)"><rect fill="#FFFFFF" stroke="none" x="0" width="81" y="-13" height="13" /></g><text transform="matrix(1 0 0 1 902 172)" fill="#000000" stroke="none"><tspan dx="0 " x="0" y="9">U</tspan><tspan dx="0 " x="6" y="9">s</tspan><tspan dx="0 " x="9.666667" y="9">e</tspan><tspan dx="0 " x="14.33333" y="9">r</tspan><tspan dx="0 " x="17.66667" y="9"> </tspan><tspan dx="0 " x="19.66667" y="9">A</tspan><tspan dx="0 " x="25.33334" y="9">u</tspan><tspan dx="0 " x="30.66667" y="9">t</tspan><tspan dx="0 " x="34" y="9">h</tspan><tspan dx="0 " x="39.33333" y="9">e</tspan><tspan dx="0 " x="44.33333" y="9">n</tspan><tspan dx="0 0 " x="49.66666" y="9">ti</tspan><tspan dx="0 " x="55.33333" y="9">c</tspan><tspan dx="0 " x="59.66666" y="9">a</tspan><tspan dx="0 0 " x="64.66666" y="9">ti</tspan><tspan dx="0 " x="70.33333" y="9">o</tspan><tspan dx="0 " x="75.66666" y="9">n</tspan></text><g transform="matrix(1 0 0 -1 667 312)"><rect fill="#FFFFFF" stroke="none" x="0" width="77" y="-13" height="13" /></g><text transform="matrix(1 0 0 1 667 312)" fill="#000000" stroke="none"><tspan dx="0 " x="0" y="9">Provider ASR Input</tspan></text><g transform="matrix(1 0 0 -1 737 266)"><rect fill="#FFFFFF" stroke="none" x="0" width="104" y="-13" height="13" /></g><text transform="matrix(1 0 0 1 737 266)" fill="#000000" stroke="none"><tspan dx="0 " x="0" y="9">Provider Dialog Response</tspan></text><g transform="matrix(1 0 0 -1 577 213)"><rect fill="#FFFFFF" stroke="none" x="0" width="68" y="-13" height="13" /></g><text transform="matrix(1 0 0 1 577 213)" fill="#000000" stroke="none"><tspan dx="0 " x="0" y="9">Dialog Response</tspan></text><g transform="matrix(1 0 0 -1 902 272)"><rect fill="#FFFFFF" stroke="none" x="0" width="136" y="-13" height="13" /></g><text transform="matrix(1 0 0 1 902 272)" fill="#000000" stroke="none"><tspan dx="0 " x="0" y="9">Specifc Provider Dialog Response</tspan></text><g transform="matrix(1 0 0 -1 219 120)"><rect fill="#FFFFFF" stroke="none" x="0" width="47" y="-13" height="13" /></g><text transform="matrix(1 0 0 1 219 120)" fill="#000000" stroke="none"><tspan dx="0 " x="0" y="9">Client Input</tspan></text></g></g></g></g></svg>