<?xml version="1.0" encoding="UTF-8" standalone="no"?>
<!DOCTYPE svg PUBLIC "-//W3C//DTD SVG 1.1//EN" "http://www.w3.org/Graphics/SVG/1.1/DTD/svg11.dtd">
<!-- Generated by Microsoft Visio, SVG Export IPA-Architecture-1-1.svg Page-1 -->
<svg xmlns="http://www.w3.org/2000/svg" xmlns:xlink="http://www.w3.org/1999/xlink" xmlns:ev="http://www.w3.org/2001/xml-events"
		width="11.7039in" height="5.33677in" viewBox="0 0 842.684 384.248" xml:space="preserve" color-interpolation-filters="sRGB"
		class="st20">
	<style type="text/css">
	<![CDATA[
		.st1 {visibility:visible}
		.st2 {fill:#5b9bd5;fill-opacity:0.22;filter:url(#filter_2);stroke:none}
		.st3 {fill:#f4b183;stroke:none;stroke-width:1}
		.st4 {fill:#ffffff;font-family:Calibri;font-size:0.833336em}
		.st5 {fill:#c55a11;stroke:none;stroke-width:0.25}
		.st6 {fill:#feffff;font-family:Calibri;font-size:0.833336em}
		.st7 {fill:#90aadb;stroke:none;stroke-width:1}
		.st8 {fill:#dae2f3;stroke:none;stroke-width:1}
		.st9 {fill:#000000;font-family:Calibri;font-size:0.833336em}
		.st10 {fill:#e2efd9;stroke:none;stroke-width:1}
		.st11 {fill:#3f3f3f;font-family:Calibri;font-size:0.833336em}
		.st12 {fill:#d8d8d8;stroke:none;stroke-width:1}
		.st13 {fill:#70ad47;stroke:none;stroke-width:0.25}
		.st14 {fill:#5b9bd5;stroke:none;stroke-width:0.25}
		.st15 {font-size:1em}
		.st16 {fill:#833c0b;stroke:none;stroke-width:0.25}
		.st17 {fill:#a5a5a5;stroke:none;stroke-width:0.25}
		.st18 {stroke:none;stroke-linecap:round;stroke-linejoin:round;stroke-width:1}
		.st19 {fill:#7f7f7f;stroke:none;stroke-width:0.25}
		.st20 {fill:none;fill-rule:evenodd;font-size:12px;overflow:visible;stroke-linecap:square;stroke-miterlimit:3}
	]]>
	</style>

	<defs id="Filters">
		<filter id="filter_2">
			<feGaussianBlur stdDeviation="2"/>
		</filter>
	</defs>
	<g>
		<title>Page-1</title>
		<g id="shape47-1" transform="translate(107.82,-23.6815)">
			<title>Rectangle.47</title>
			<desc>Dialog</desc>
			<g id="shadow47-2" transform="matrix(1,0,0,1,0.345598,1.97279)" class="st1">
				<rect x="0" y="44.5154" width="311.708" height="339.732" class="st2"/>
			</g>
			<rect x="0" y="44.5154" width="311.708" height="339.732" class="st3"/>
			<text x="282.19" y="377.25" class="st4">Dialog</text>		</g>
		<g id="shape71-7" transform="translate(261.28,-40.5354)">
			<title>Rectangle.71</title>
			<desc>Dialogs</desc>
			<g id="shadow71-8" transform="matrix(1,0,0,1,0.345598,1.97279)" class="st1">
				<rect x="0" y="174.33" width="150.133" height="209.918" class="st2"/>
			</g>
			<rect x="0" y="174.33" width="150.133" height="209.918" class="st5"/>
			<text x="116.71" y="377.25" class="st6">Dialogs</text>		</g>
		<g id="shape48-13" transform="translate(425.197,-25.4882)">
			<title>Rectangle.48</title>
			<desc>APIs / Data</desc>
			<g id="shadow48-14" transform="matrix(1,0,0,1,0.345598,1.97279)" class="st1">
				<rect x="0" y="44.5154" width="396.142" height="339.732" class="st2"/>
			</g>
			<rect x="0" y="44.5154" width="396.142" height="339.732" class="st7"/>
			<text x="347.29" y="377.25" class="st6">APIs / Data</text>		</g>
		<g id="group61-19" transform="translate(437.953,-43.3701)">
			<title>Sheet.61</title>
			<g id="shape44-20" transform="translate(47.3515,-226.092)">
				<title>Rectangle.44</title>
				<desc>Core Provider</desc>
				<rect x="0" y="298.835" width="322.286" height="85.4124" class="st8"/>
				<text x="262.51" y="311.84" class="st9">Core Provider</text>			</g>
			<g id="shape46-23">
				<title>Rectangle.46</title>
				<rect x="0" y="72.7437" width="73.9867" height="311.504" class="st8"/>
			</g>
		</g>
		<g id="shape50-25" transform="translate(20.6544,-22.9728)">
			<title>Rectangle.50</title>
			<desc>Client</desc>
			<g id="shadow50-26" transform="matrix(1,0,0,1,0.345598,1.97279)" class="st1">
				<rect x="0" y="44.5154" width="80.0787" height="339.732" class="st2"/>
			</g>
			<rect x="0" y="44.5154" width="80.0787" height="339.732" class="st10"/>
			<text x="52.58" y="377.25" class="st11">Client</text>		</g>
		<g id="shape34-31" transform="translate(515.906,-189.354)">
			<title>Rectangle.34</title>
			<desc>IPA Provider 1</desc>
			<g id="shadow34-32" transform="matrix(1,0,0,1,0.345598,1.97279)" class="st1">
				<rect x="0" y="311.964" width="291.969" height="72.2835" class="st2"/>
			</g>
			<rect x="0" y="311.964" width="291.969" height="72.2835" class="st12"/>
			<text x="230.45" y="324.96" class="st9">IPA Provider 1</text>		</g>
		<g id="shape1-37" transform="translate(29.867,-40.5354)">
			<title>Rectangle</title>
			<desc>IPA Client</desc>
			<g id="shadow1-38" transform="matrix(1,0,0,1,0.345598,1.97279)" class="st1">
				<rect x="0" y="88.7237" width="62.3622" height="295.524" class="st2"/>
			</g>
			<rect x="0" y="88.7237" width="62.3622" height="295.524" class="st13"/>
			<text x="11.56" y="239.49" class="st6">IPA Client</text>		</g>
		<g id="shape2-43" transform="translate(-240.995,343.712) rotate(-90)">
			<title>Rectangle.2</title>
			<desc>IPA Service</desc>
			<g id="shadow2-44" transform="matrix(1,0,0,1,-1.97279,0.345598)" class="st1">
				<rect x="0" y="355.901" width="295.524" height="28.3465" class="st2"/>
			</g>
			<rect x="0" y="355.901" width="295.524" height="28.3465" class="st5"/>
			<text x="125.36" y="373.07" class="st6">IPA Service</text>		</g>
		<g id="shape3-49" transform="translate(146.796,-83.0551)">
			<title>Rectangle.3</title>
			<desc>Dialog Management</desc>
			<g id="shadow3-50" transform="matrix(1,0,0,1,0.345598,1.97279)" class="st1">
				<rect x="0" y="214.298" width="106.299" height="169.949" class="st2"/>
			</g>
			<rect x="0" y="214.298" width="106.299" height="169.949" class="st5"/>
			<text x="11.95" y="302.27" class="st6">Dialog Management</text>		</g>
		<g id="shape4-55" transform="translate(525.543,-296.764)">
			<title>Rectangle.4</title>
			<desc>Accounts / Authentication</desc>
			<g id="shadow4-56" transform="matrix(1,0,0,1,0.345598,1.97279)" class="st1">
				<rect x="0" y="343.145" width="62.3622" height="41.1024" class="st2"/>
			</g>
			<rect x="0" y="343.145" width="62.3622" height="41.1024" class="st14"/>
			<text x="9.48" y="354.7" class="st6">Accounts / <tspan x="6.09" dy="1.2em" class="st15">Authenticati</tspan><tspan
						x="25.92" dy="1.2em" class="st15">on</tspan></text>		</g>
		<g id="shape5-63" transform="translate(270.425,-171.846)">
			<title>Rectangle.5</title>
			<desc>Dialog 1</desc>
			<g id="shadow5-64" transform="matrix(1,0,0,1,0.345598,1.97279)" class="st1">
				<rect x="0" y="363.696" width="62.3622" height="20.5512" class="st2"/>
			</g>
			<rect x="0" y="363.696" width="62.3622" height="20.5512" class="st16"/>
			<text x="14.76" y="376.97" class="st6">Dialog 1</text>		</g>
		<g id="shape6-69" transform="translate(335.622,-171.846)">
			<title>Rectangle.6</title>
			<desc>Intent Set 1</desc>
			<g id="shadow6-70" transform="matrix(1,0,0,1,0.345598,1.97279)" class="st1">
				<rect x="0" y="363.696" width="62.3622" height="20.5512" class="st2"/>
			</g>
			<rect x="0" y="363.696" width="62.3622" height="20.5512" class="st16"/>
			<text x="7.58" y="376.97" class="st6">Intent Set 1</text>		</g>
		<g id="shape7-75" transform="translate(663.307,-296.764)">
			<title>Rectangle.7</title>
			<desc>Core Data Provider</desc>
			<g id="shadow7-76" transform="matrix(1,0,0,1,0.345598,1.97279)" class="st1">
				<rect x="0" y="343.145" width="62.3622" height="41.1024" class="st2"/>
			</g>
			<rect x="0" y="343.145" width="62.3622" height="41.1024" class="st14"/>
			<text x="10.98" y="360.7" class="st6">Core Data <tspan x="13.95" dy="1.2em" class="st15">Provider</tspan></text>		</g>
		<g id="shape15-82" transform="translate(734.173,-197.858)">
			<title>Rectangle.15</title>
			<desc>Knowledge Graph</desc>
			<g id="shadow15-83" transform="matrix(1,0,0,1,0.345598,1.97279)" class="st1">
				<rect x="0" y="343.145" width="62.3622" height="41.1024" class="st2"/>
			</g>
			<rect x="0" y="343.145" width="62.3622" height="41.1024" class="st17"/>
			<text x="8.64" y="360.7" class="st6">Knowledge <tspan x="18.63" dy="1.2em" class="st15">Graph</tspan></text>		</g>
		<g id="shape16-89" transform="translate(269.291,-198.789)">
			<title>Rectangle.16</title>
			<desc>Core Dialog</desc>
			<g id="shadow16-90" transform="matrix(1,0,0,1,0.345598,1.97279)" class="st1">
				<rect x="0" y="343.145" width="62.3622" height="41.1024" class="st2"/>
			</g>
			<rect x="0" y="343.145" width="62.3622" height="41.1024" class="st16"/>
			<text x="7.76" y="366.7" class="st6">Core Dialog</text>		</g>
		<g id="shape19-95" transform="translate(334.488,-198.789)">
			<title>Rectangle.19</title>
			<desc>Core Intent Set</desc>
			<g id="shadow19-96" transform="matrix(1,0,0,1,0.345598,1.97279)" class="st1">
				<rect x="0" y="343.145" width="62.3622" height="41.1024" class="st2"/>
			</g>
			<rect x="0" y="343.145" width="62.3622" height="41.1024" class="st16"/>
			<text x="8.17" y="360.7" class="st6">Core Intent <tspan x="24.72" dy="1.2em" class="st15">Set</tspan></text>		</g>
		<g id="shape20-102" transform="translate(269.291,-85.6063)">
			<title>Rectangle.20</title>
			<desc>Dialog Registry</desc>
			<g id="shadow20-103" transform="matrix(1,0,0,1,0.345598,1.97279)" class="st1">
				<rect x="0" y="351.366" width="129.685" height="32.8819" class="st2"/>
			</g>
			<rect x="0" y="351.366" width="129.685" height="32.8819" class="st16"/>
			<text x="34.62" y="370.81" class="st6">Dialog Registry</text>		</g>
		<g id="shape22-108" transform="translate(664.724,-197.858)">
			<title>Rectangle.22</title>
			<desc>Data Provider</desc>
			<g id="shadow22-109" transform="matrix(1,0,0,1,0.345598,1.97279)" class="st1">
				<rect x="0" y="343.145" width="62.3622" height="41.1024" class="st2"/>
			</g>
			<rect x="0" y="343.145" width="62.3622" height="41.1024" class="st17"/>
			<text x="21.64" y="360.7" class="st6">Data <tspan x="13.95" dy="1.2em" class="st15">Provider</tspan></text>		</g>
		<g id="shape30-115" transform="translate(-274.656,291.543) rotate(-90)">
			<title>Sheet.30</title>
			<path d="M0 384.25 L0 384.25" class="st18"/>
		</g>
		<g id="shape35-118" transform="translate(595.276,-197.858)">
			<title>Rectangle.35</title>
			<desc>Provider Intent Set</desc>
			<g id="shadow35-119" transform="matrix(1,0,0,1,0.345598,1.97279)" class="st1">
				<rect x="0" y="343.145" width="62.3622" height="41.1024" class="st2"/>
			</g>
			<rect x="0" y="343.145" width="62.3622" height="41.1024" class="st17"/>
			<text x="13.95" y="360.7" class="st6">Provider <tspan x="11.24" dy="1.2em" class="st15">Intent Set</tspan></text>		</g>
		<g id="shape36-125" transform="translate(515.906,-74.5512)">
			<title>Rectangle.36</title>
			<desc>IPA Provider n</desc>
			<g id="shadow36-126" transform="matrix(1,0,0,1,0.345598,1.97279)" class="st1">
				<rect x="0" y="311.964" width="291.969" height="72.2835" class="st2"/>
			</g>
			<rect x="0" y="311.964" width="291.969" height="72.2835" class="st12"/>
			<text x="230.27" y="324.96" class="st9">IPA Provider n</text>		</g>
		<g id="shape37-131" transform="translate(734.173,-83.0551)">
			<title>Rectangle.37</title>
			<desc>Knowledge Graph</desc>
			<g id="shadow37-132" transform="matrix(1,0,0,1,0.345598,1.97279)" class="st1">
				<rect x="0" y="343.145" width="62.3622" height="41.1024" class="st2"/>
			</g>
			<rect x="0" y="343.145" width="62.3622" height="41.1024" class="st17"/>
			<text x="8.64" y="360.7" class="st6">Knowledge <tspan x="18.63" dy="1.2em" class="st15">Graph</tspan></text>		</g>
		<g id="shape39-138" transform="translate(664.724,-83.0551)">
			<title>Rectangle.39</title>
			<desc>Data Provider</desc>
			<g id="shadow39-139" transform="matrix(1,0,0,1,0.345598,1.97279)" class="st1">
				<rect x="0" y="343.145" width="62.3622" height="41.1024" class="st2"/>
			</g>
			<rect x="0" y="343.145" width="62.3622" height="41.1024" class="st17"/>
			<text x="21.64" y="360.7" class="st6">Data <tspan x="13.95" dy="1.2em" class="st15">Provider</tspan></text>		</g>
		<g id="shape40-145" transform="translate(595.276,-83.0551)">
			<title>Rectangle.40</title>
			<desc>Provider Intent Set</desc>
			<g id="shadow40-146" transform="matrix(1,0,0,1,0.345598,1.97279)" class="st1">
				<rect x="0" y="343.145" width="62.3622" height="41.1024" class="st2"/>
			</g>
			<rect x="0" y="343.145" width="62.3622" height="41.1024" class="st17"/>
			<text x="13.95" y="360.7" class="st6">Provider <tspan x="11.24" dy="1.2em" class="st15">Intent Set</tspan></text>		</g>
		<g id="shape41-152" transform="translate(627.874,-165.26)">
			<title>Circle</title>
			<g id="shadow41-153" transform="matrix(1,0,0,1,0.345598,1.97279)" class="st1">
				<path d="M0 380 A4.25197 4.25197 0 0 1 8.5 380 A4.25197 4.25197 0 1 1 0 380 Z" class="st2"/>
			</g>
			<path d="M0 380 A4.25197 4.25197 0 0 1 8.5 380 A4.25197 4.25197 0 1 1 0 380 Z" class="st19"/>
		</g>
		<g id="shape42-157" transform="translate(644.882,-165.26)">
			<title>Circle.42</title>
			<g id="shadow42-158" transform="matrix(1,0,0,1,0.345598,1.97279)" class="st1">
				<path d="M0 380 A4.25197 4.25197 0 0 1 8.5 380 A4.25197 4.25197 0 1 1 0 380 Z" class="st2"/>
			</g>
			<path d="M0 380 A4.25197 4.25197 0 0 1 8.5 380 A4.25197 4.25197 0 1 1 0 380 Z" class="st19"/>
		</g>
		<g id="shape43-162" transform="translate(661.89,-165.26)">
			<title>Circle.43</title>
			<g id="shadow43-163" transform="matrix(1,0,0,1,0.345598,1.97279)" class="st1">
				<path d="M0 380 A4.25197 4.25197 0 0 1 8.5 380 A4.25197 4.25197 0 1 1 0 380 Z" class="st2"/>
			</g>
			<path d="M0 380 A4.25197 4.25197 0 0 1 8.5 380 A4.25197 4.25197 0 1 1 0 380 Z" class="st19"/>
		</g>
		<g id="shape45-167" transform="translate(116.776,301.193) rotate(-90)">
			<title>Rectangle.45</title>
			<desc>Provider Selection Service</desc>
			<g id="shadow45-168" transform="matrix(1,0,0,1,-1.97279,0.345598)" class="st1">
				<rect x="0" y="332.515" width="193.866" height="51.7323" class="st2"/>
			</g>
			<rect x="0" y="332.515" width="193.866" height="51.7323" class="st14"/>
			<text x="44.29" y="361.38" class="st6">Provider Selection Service</text>		</g>
		<g id="shape51-173" transform="translate(270.425,-125.428)">
			<title>Rectangle.51</title>
			<desc>Dialog n</desc>
			<g id="shadow51-174" transform="matrix(1,0,0,1,0.345598,1.97279)" class="st1">
				<rect x="0" y="363.696" width="62.3622" height="20.5512" class="st2"/>
			</g>
			<rect x="0" y="363.696" width="62.3622" height="20.5512" class="st16"/>
			<text x="14.67" y="376.97" class="st6">Dialog n</text>		</g>
		<g id="shape52-179" transform="translate(335.622,-125.428)">
			<title>Rectangle.52</title>
			<desc>Intent Set n</desc>
			<g id="shadow52-180" transform="matrix(1,0,0,1,0.345598,1.97279)" class="st1">
				<rect x="0" y="363.696" width="62.3622" height="20.5512" class="st2"/>
			</g>
			<rect x="0" y="363.696" width="62.3622" height="20.5512" class="st16"/>
			<text x="7.48" y="376.97" class="st6">Intent Set n</text>		</g>
		<g id="shape53-185" transform="translate(313.228,-153.775)">
			<title>Circle.53</title>
			<g id="shadow53-186" transform="matrix(1,0,0,1,0.345598,1.97279)" class="st1">
				<path d="M0 380 A4.25197 4.25197 0 0 1 8.5 380 A4.25197 4.25197 0 1 1 0 380 Z" class="st2"/>
			</g>
			<path d="M0 380 A4.25197 4.25197 0 0 1 8.5 380 A4.25197 4.25197 0 1 1 0 380 Z" class="st16"/>
		</g>
		<g id="shape54-190" transform="translate(330.236,-153.775)">
			<title>Circle.54</title>
			<g id="shadow54-191" transform="matrix(1,0,0,1,0.345598,1.97279)" class="st1">
				<path d="M0 380 A4.25197 4.25197 0 0 1 8.5 380 A4.25197 4.25197 0 1 1 0 380 Z" class="st2"/>
			</g>
			<path d="M0 380 A4.25197 4.25197 0 0 1 8.5 380 A4.25197 4.25197 0 1 1 0 380 Z" class="st16"/>
		</g>
		<g id="shape55-195" transform="translate(347.244,-153.775)">
			<title>Circle.55</title>
			<g id="shadow55-196" transform="matrix(1,0,0,1,0.345598,1.97279)" class="st1">
				<path d="M0 380 A4.25197 4.25197 0 0 1 8.5 380 A4.25197 4.25197 0 1 1 0 380 Z" class="st2"/>
			</g>
			<path d="M0 380 A4.25197 4.25197 0 0 1 8.5 380 A4.25197 4.25197 0 1 1 0 380 Z" class="st16"/>
		</g>
		<g id="shape56-200" transform="translate(525.827,-197.858)">
			<title>Rectangle.56</title>
			<desc>Provider NLU</desc>
			<g id="shadow56-201" transform="matrix(1,0,0,1,0.345598,1.97279)" class="st1">
				<rect x="0" y="343.145" width="62.3622" height="41.1024" class="st2"/>
			</g>
			<rect x="0" y="343.145" width="62.3622" height="41.1024" class="st17"/>
			<text x="4.29" y="366.7" class="st6">Provider NLU</text>		</g>
		<g id="shape57-206" transform="translate(525.827,-83.0551)">
			<title>Rectangle.57</title>
			<desc>Provider NLU</desc>
			<g id="shadow57-207" transform="matrix(1,0,0,1,0.345598,1.97279)" class="st1">
				<rect x="0" y="343.145" width="62.3622" height="41.1024" class="st2"/>
			</g>
			<rect x="0" y="343.145" width="62.3622" height="41.1024" class="st17"/>
			<text x="4.29" y="366.7" class="st6">Provider NLU</text>		</g>
		<g id="shape58-212" transform="translate(594.425,-296.764)">
			<title>Rectangle.58</title>
			<desc>Core NLU</desc>
			<g id="shadow58-213" transform="matrix(1,0,0,1,0.345598,1.97279)" class="st1">
				<rect x="0" y="343.145" width="62.3622" height="41.1024" class="st2"/>
			</g>
			<rect x="0" y="343.145" width="62.3622" height="41.1024" class="st14"/>
			<text x="11.98" y="366.7" class="st6">Core NLU</text>		</g>
		<g id="shape59-218" transform="translate(146.087,-256.122)">
			<title>Rectangle.59</title>
			<desc>ASR</desc>
			<g id="shadow59-219" transform="matrix(1,0,0,1,0.345598,1.97279)" class="st1">
				<rect x="0" y="351.366" width="106.299" height="32.8819" class="st2"/>
			</g>
			<rect x="0" y="351.366" width="106.299" height="32.8819" class="st5"/>
			<text x="45.24" y="370.81" class="st6">ASR</text>		</g>
		<g id="shape62-224" transform="translate(450.425,-296.764)">
			<title>Rectangle.62</title>
			<desc>Provider Registry</desc>
			<g id="shadow62-225" transform="matrix(1,0,0,1,0.345598,1.97279)" class="st1">
				<rect x="0" y="343.145" width="70.8661" height="41.1024" class="st2"/>
			</g>
			<rect x="0" y="343.145" width="70.8661" height="41.1024" class="st14"/>
			<text x="18.21" y="360.7" class="st6">Provider <tspan x="19.09" dy="1.2em" class="st15">Registry</tspan></text>		</g>
		<g id="shape63-231" transform="translate(732.189,-296.764)">
			<title>Rectangle.63</title>
			<desc>Core Knowledge Graph</desc>
			<g id="shadow63-232" transform="matrix(1,0,0,1,0.345598,1.97279)" class="st1">
				<rect x="0" y="343.145" width="62.3622" height="41.1024" class="st2"/>
			</g>
			<rect x="0" y="343.145" width="62.3622" height="41.1024" class="st14"/>
			<text x="21.65" y="354.7" class="st6">Core <tspan x="8.64" dy="1.2em" class="st15">Knowledge </tspan><tspan x="18.63"
						dy="1.2em" class="st15">Graph</tspan></text>		</g>
		<g id="shape64-239" transform="translate(146.087,-294.957)">
			<title>Rectangle.68</title>
			<desc>Context</desc>
			<g id="shadow64-240" transform="matrix(1,0,0,1,0.345598,1.97279)" class="st1">
				<rect x="0" y="343.145" width="264.936" height="41.1024" class="st2"/>
			</g>
			<rect x="0" y="343.145" width="264.936" height="41.1024" class="st5"/>
			<text x="116.54" y="366.7" class="st6">Context</text>		</g>
		<g id="shape66-245" transform="translate(260.891,-256.122)">
			<title>Rectangle.65</title>
			<desc>NLU</desc>
			<g id="shadow66-246" transform="matrix(1,0,0,1,0.345598,1.97279)" class="st1">
				<rect x="0" y="351.366" width="150.133" height="32.8819" class="st2"/>
			</g>
			<rect x="0" y="351.366" width="150.133" height="32.8819" class="st5"/>
			<text x="66.53" y="370.81" class="st6">NLU</text>		</g>
		<g id="shape69-251" transform="translate(144.213,-40.5354)">
			<title>Rectangle.69</title>
			<desc>TTS</desc>
			<g id="shadow69-252" transform="matrix(1,0,0,1,0.345598,1.97279)" class="st1">
				<rect x="0" y="351.366" width="51.7323" height="32.8819" class="st2"/>
			</g>
			<rect x="0" y="351.366" width="51.7323" height="32.8819" class="st5"/>
			<text x="18.7" y="370.81" class="st6">TTS</text>		</g>
		<g id="shape70-257" transform="translate(203.386,-40.5354)">
			<title>Rectangle.70</title>
			<desc>NLG</desc>
			<g id="shadow70-258" transform="matrix(1,0,0,1,0.345598,1.97279)" class="st1">
				<rect x="0" y="351.366" width="51.7323" height="32.8819" class="st2"/>
			</g>
			<rect x="0" y="351.366" width="51.7323" height="32.8819" class="st5"/>
			<text x="17.38" y="370.81" class="st6">NLG</text>		</g>
	</g>
</svg>
