<?xml version="1.0" encoding="UTF-8" standalone="no"?>
<!DOCTYPE svg PUBLIC "-//W3C//DTD SVG 1.1//EN" "http://www.w3.org/Graphics/SVG/1.1/DTD/svg11.dtd">
<!-- Generated by Microsoft Visio, SVG Export IPA-Architecture-1-1.svg Page-1 -->
<svg xmlns="http://www.w3.org/2000/svg" xmlns:xlink="http://www.w3.org/1999/xlink" xmlns:ev="http://www.w3.org/2001/xml-events"
		xmlns:v="http://schemas.microsoft.com/visio/2003/SVGExtensions/" width="10.9264in" height="5.95455in"
		viewBox="0 0 786.7 428.728" xml:space="preserve" color-interpolation-filters="sRGB" class="st20">
	<v:documentProperties v:langID="1033" v:metric="true" v:viewMarkup="false">
		<v:userDefs>
			<v:ud v:nameU="msvSubprocessMaster" v:prompt="" v:val="VT4(Rectangle)"/>
			<v:ud v:nameU="msvNoAutoConnect" v:val="VT0(1):26"/>
		</v:userDefs>
	</v:documentProperties>

	<style type="text/css">
	<![CDATA[
		.st1 {visibility:visible}
		.st2 {fill:#5b9bd5;fill-opacity:0.22;filter:url(#filter_2);stroke:none}
		.st3 {fill:#f4b183;stroke:none;stroke-width:1}
		.st4 {fill:#ffffff;font-family:Calibri;font-size:0.833336em}
		.st5 {fill:#c55a11;stroke:none;stroke-width:0.25}
		.st6 {fill:#feffff;font-family:Calibri;font-size:0.833336em}
		.st7 {fill:#90aadb;stroke:none;stroke-width:1}
		.st8 {fill:#e2efd9;stroke:none;stroke-width:1}
		.st9 {fill:#3f3f3f;font-family:Calibri;font-size:0.833336em}
		.st10 {fill:#70ad47;stroke:none;stroke-width:0.25}
		.st11 {fill:#5b9bd5;stroke:none;stroke-width:0.25}
		.st12 {font-size:1em}
		.st13 {fill:#833c0b;stroke:none;stroke-width:0.25}
		.st14 {stroke:none;stroke-linecap:round;stroke-linejoin:round;stroke-width:1}
		.st15 {fill:#a5a5a5;stroke:none;stroke-width:0.25}
		.st16 {fill:#d8d8d8;stroke:none;stroke-width:1}
		.st17 {fill:#000000;font-family:Calibri;font-size:0.833336em}
		.st18 {fill:#7f7f7f;stroke:none;stroke-width:0.25}
		.st19 {fill:#bfbfbf;stroke:none;stroke-width:1}
		.st20 {fill:none;fill-rule:evenodd;font-size:12px;overflow:visible;stroke-linecap:square;stroke-miterlimit:3}
	]]>
	</style>

	<defs id="Filters">
		<filter id="filter_2">
			<feGaussianBlur stdDeviation="2"/>
		</filter>
	</defs>
	<g v:mID="0" v:index="1" v:groupContext="foregroundPage">
		<v:userDefs>
			<v:ud v:nameU="msvThemeOrder" v:val="VT0(0):26"/>
		</v:userDefs>
		<title>Page-1</title>
		<v:pageProperties v:drawingScale="0.0393701" v:pageScale="0.0393701" v:drawingUnits="24" v:shadowOffsetX="8.50394"
				v:shadowOffsetY="-8.50394"/>
		<v:layer v:name="Annotations" v:index="0"/>
		<v:layer v:name="Connector" v:index="1"/>
		<g id="shape47-1" v:mID="47" v:groupContext="shape" transform="translate(107.82,-23.6815)">
			<title>Rectangle.47</title>
			<desc>Dialog</desc>
			<v:userDefs>
				<v:ud v:nameU="visVersion" v:val="VT0(15):26"/>
			</v:userDefs>
			<v:textBlock v:margins="rect(4,4,4,4)" v:tabSpace="42.5197" v:verticalAlign="2"/>
			<v:textRect cx="155.854" cy="236.622" width="311.71" height="384.213"/>
			<g id="shadow47-2" v:groupContext="shadow" v:shadowOffsetX="0.345598" v:shadowOffsetY="-1.97279" v:shadowType="1"
					transform="matrix(1,0,0,1,0.345598,1.97279)" class="st1">
				<rect x="0" y="44.5154" width="311.708" height="384.213" class="st2"/>
			</g>
			<rect x="0" y="44.5154" width="311.708" height="384.213" class="st3"/>
			<text x="282.19" y="421.73" class="st4" v:langID="1031"><v:paragraph v:horizAlign="2"/><v:tabList/>Dialog</text>		</g>
		<g id="shape71-7" v:mID="71" v:groupContext="shape" transform="translate(261.28,-51)">
			<title>Rectangle.71</title>
			<desc>Dialogs</desc>
			<v:userDefs>
				<v:ud v:nameU="visVersion" v:val="VT0(15):26"/>
			</v:userDefs>
			<v:textBlock v:margins="rect(4,4,4,4)" v:tabSpace="42.5197" v:verticalAlign="2"/>
			<v:textRect cx="75.0665" cy="306.761" width="150.14" height="243.933"/>
			<g id="shadow71-8" v:groupContext="shadow" v:shadowOffsetX="0.345598" v:shadowOffsetY="-1.97279" v:shadowType="1"
					transform="matrix(1,0,0,1,0.345598,1.97279)" class="st1">
				<rect x="0" y="184.795" width="150.133" height="243.933" class="st2"/>
			</g>
			<rect x="0" y="184.795" width="150.133" height="243.933" class="st5"/>
			<text x="116.71" y="421.73" class="st6" v:langID="1031"><v:paragraph v:horizAlign="2"/><v:tabList/>Dialogs</text>		</g>
		<g id="shape48-13" v:mID="48" v:groupContext="shape" transform="translate(425.197,-25.4882)">
			<title>Rectangle.48</title>
			<desc>APIs / Data</desc>
			<v:userDefs>
				<v:ud v:nameU="visVersion" v:val="VT0(15):26"/>
			</v:userDefs>
			<v:textBlock v:margins="rect(4,4,4,4)" v:tabSpace="42.5197" v:verticalAlign="2"/>
			<v:textRect cx="170.079" cy="236.622" width="340.16" height="384.213"/>
			<g id="shadow48-14" v:groupContext="shadow" v:shadowOffsetX="0.345598" v:shadowOffsetY="-1.97279" v:shadowType="1"
					transform="matrix(1,0,0,1,0.345598,1.97279)" class="st1">
				<rect x="0" y="44.5154" width="340.157" height="384.213" class="st2"/>
			</g>
			<rect x="0" y="44.5154" width="340.157" height="384.213" class="st7"/>
			<text x="291.31" y="421.73" class="st6" v:langID="1031"><v:paragraph v:horizAlign="2"/><v:tabList/>APIs / Data</text>		</g>
		<g id="shape50-19" v:mID="50" v:groupContext="shape" transform="translate(20.6544,-22.9728)">
			<title>Rectangle.50</title>
			<desc>Client</desc>
			<v:userDefs>
				<v:ud v:nameU="visVersion" v:val="VT0(15):26"/>
			</v:userDefs>
			<v:textBlock v:margins="rect(4,4,4,4)" v:tabSpace="42.5197" v:verticalAlign="2"/>
			<v:textRect cx="40.0394" cy="236.622" width="80.08" height="384.213"/>
			<g id="shadow50-20" v:groupContext="shadow" v:shadowOffsetX="0.345598" v:shadowOffsetY="-1.97279" v:shadowType="1"
					transform="matrix(1,0,0,1,0.345598,1.97279)" class="st1">
				<rect x="0" y="44.5154" width="80.0787" height="384.213" class="st2"/>
			</g>
			<rect x="0" y="44.5154" width="80.0787" height="384.213" class="st8"/>
			<text x="52.58" y="421.73" class="st9" v:langID="1031"><v:paragraph v:horizAlign="2"/><v:tabList/>Client</text>		</g>
		<g id="shape1-25" v:mID="1" v:groupContext="shape" transform="translate(29.867,-51)">
			<title>Rectangle</title>
			<desc>IPA Client</desc>
			<v:userDefs>
				<v:ud v:nameU="visVersion" v:val="VT0(15):26"/>
			</v:userDefs>
			<v:textBlock v:margins="rect(4,4,4,4)" v:tabSpace="42.5197"/>
			<v:textRect cx="31.1811" cy="306.761" width="62.37" height="243.933"/>
			<g id="shadow1-26" v:groupContext="shadow" v:shadowOffsetX="0.345598" v:shadowOffsetY="-1.97279" v:shadowType="1"
					transform="matrix(1,0,0,1,0.345598,1.97279)" class="st1">
				<rect x="0" y="184.795" width="62.3622" height="243.933" class="st2"/>
			</g>
			<rect x="0" y="184.795" width="62.3622" height="243.933" class="st10"/>
			<text x="11.56" y="309.76" class="st6" v:langID="1031"><v:paragraph v:horizAlign="1"/><v:tabList/>IPA Client</text>		</g>
		<g id="shape2-31" v:mID="2" v:groupContext="shape" transform="translate(-285.475,377.728) rotate(-90)">
			<title>Rectangle.2</title>
			<desc>IPA Service</desc>
			<v:userDefs>
				<v:ud v:nameU="visVersion" v:val="VT0(15):26"/>
			</v:userDefs>
			<v:textBlock v:margins="rect(4,4,4,4)" v:tabSpace="42.5197"/>
			<v:textRect cx="164.77" cy="414.555" width="329.54" height="28.3465"/>
			<g id="shadow2-32" v:groupContext="shadow" v:shadowOffsetX="0.345598" v:shadowOffsetY="-1.97279" v:shadowType="1"
					transform="matrix(1,0,0,1,-1.97279,0.345598)" class="st1">
				<rect x="0" y="400.381" width="329.54" height="28.3465" class="st2"/>
			</g>
			<rect x="0" y="400.381" width="329.54" height="28.3465" class="st5"/>
			<text x="142.37" y="417.55" class="st6" v:langID="1031"><v:paragraph v:horizAlign="1"/><v:tabList/>IPA Service</text>		</g>
		<g id="shape3-37" v:mID="3" v:groupContext="shape" transform="translate(146.796,-93.5197)">
			<title>Rectangle.3</title>
			<desc>Dialog Management</desc>
			<v:userDefs>
				<v:ud v:nameU="visVersion" v:val="VT0(15):26"/>
			</v:userDefs>
			<v:textBlock v:margins="rect(4,4,4,4)" v:tabSpace="42.5197"/>
			<v:textRect cx="53.1496" cy="326.745" width="106.3" height="203.965"/>
			<g id="shadow3-38" v:groupContext="shadow" v:shadowOffsetX="0.345598" v:shadowOffsetY="-1.97279" v:shadowType="1"
					transform="matrix(1,0,0,1,0.345598,1.97279)" class="st1">
				<rect x="0" y="224.763" width="106.299" height="203.965" class="st2"/>
			</g>
			<rect x="0" y="224.763" width="106.299" height="203.965" class="st5"/>
			<text x="11.95" y="329.75" class="st6" v:langID="1031"><v:paragraph v:horizAlign="1"/><v:tabList/>Dialog Management</text>		</g>
		<g id="shape4-43" v:mID="4" v:groupContext="shape" transform="translate(507.913,-341.244)">
			<title>Rectangle.4</title>
			<desc>Accounts / Authentication</desc>
			<v:userDefs>
				<v:ud v:nameU="visVersion" v:val="VT0(15):26"/>
			</v:userDefs>
			<v:textBlock v:margins="rect(4,4,4,4)" v:tabSpace="42.5197"/>
			<v:textRect cx="40.0394" cy="408.177" width="80.08" height="41.1024"/>
			<g id="shadow4-44" v:groupContext="shadow" v:shadowOffsetX="0.345598" v:shadowOffsetY="-1.97279" v:shadowType="1"
					transform="matrix(1,0,0,1,0.345598,1.97279)" class="st1">
				<rect x="0" y="387.626" width="80.0787" height="41.1024" class="st2"/>
			</g>
			<rect x="0" y="387.626" width="80.0787" height="41.1024" class="st11"/>
			<text x="18.34" y="405.18" class="st6" v:langID="1031"><v:paragraph v:horizAlign="1"/><v:tabList/>Accounts /<v:newlineChar/><tspan
						x="9.68" dy="1.2em" class="st12">Authentication</tspan></text>		</g>
		<g id="shape5-50" v:mID="5" v:groupContext="shape" transform="translate(270.425,-216.326)">
			<title>Rectangle.5</title>
			<desc>Dialog 1</desc>
			<v:userDefs>
				<v:ud v:nameU="visVersion" v:val="VT0(15):26"/>
			</v:userDefs>
			<v:textBlock v:margins="rect(4,4,4,4)" v:tabSpace="42.5197"/>
			<v:textRect cx="31.1811" cy="418.452" width="62.37" height="20.5512"/>
			<g id="shadow5-51" v:groupContext="shadow" v:shadowOffsetX="0.345598" v:shadowOffsetY="-1.97279" v:shadowType="1"
					transform="matrix(1,0,0,1,0.345598,1.97279)" class="st1">
				<rect x="0" y="408.177" width="62.3622" height="20.5512" class="st2"/>
			</g>
			<rect x="0" y="408.177" width="62.3622" height="20.5512" class="st13"/>
			<text x="14.76" y="421.45" class="st6" v:langID="1031"><v:paragraph v:horizAlign="1"/><v:tabList/>Dialog 1</text>		</g>
		<g id="shape6-56" v:mID="6" v:groupContext="shape" transform="translate(335.622,-216.326)">
			<title>Rectangle.6</title>
			<desc>Intent Set 1</desc>
			<v:userDefs>
				<v:ud v:nameU="visVersion" v:val="VT0(15):26"/>
			</v:userDefs>
			<v:textBlock v:margins="rect(4,4,4,4)" v:tabSpace="42.5197"/>
			<v:textRect cx="31.1811" cy="418.452" width="62.37" height="20.5512"/>
			<g id="shadow6-57" v:groupContext="shadow" v:shadowOffsetX="0.345598" v:shadowOffsetY="-1.97279" v:shadowType="1"
					transform="matrix(1,0,0,1,0.345598,1.97279)" class="st1">
				<rect x="0" y="408.177" width="62.3622" height="20.5512" class="st2"/>
			</g>
			<rect x="0" y="408.177" width="62.3622" height="20.5512" class="st13"/>
			<text x="7.58" y="421.45" class="st6" v:langID="1031"><v:paragraph v:horizAlign="1"/><v:tabList/>Intent Set 1</text>		</g>
		<g id="shape16-62" v:mID="16" v:groupContext="shape" transform="translate(269.291,-243.27)">
			<title>Rectangle.16</title>
			<desc>Core Dialog</desc>
			<v:userDefs>
				<v:ud v:nameU="visVersion" v:val="VT0(15):26"/>
			</v:userDefs>
			<v:textBlock v:margins="rect(4,4,4,4)" v:tabSpace="42.5197"/>
			<v:textRect cx="31.1811" cy="408.177" width="62.37" height="41.1024"/>
			<g id="shadow16-63" v:groupContext="shadow" v:shadowOffsetX="0.345598" v:shadowOffsetY="-1.97279" v:shadowType="1"
					transform="matrix(1,0,0,1,0.345598,1.97279)" class="st1">
				<rect x="0" y="387.626" width="62.3622" height="41.1024" class="st2"/>
			</g>
			<rect x="0" y="387.626" width="62.3622" height="41.1024" class="st13"/>
			<text x="7.76" y="411.18" class="st6" v:langID="1031"><v:paragraph v:horizAlign="1"/><v:tabList/>Core Dialog</text>		</g>
		<g id="shape19-68" v:mID="19" v:groupContext="shape" transform="translate(334.488,-243.27)">
			<title>Rectangle.19</title>
			<desc>Core Intent Set</desc>
			<v:userDefs>
				<v:ud v:nameU="visVersion" v:val="VT0(15):26"/>
			</v:userDefs>
			<v:textBlock v:margins="rect(4,4,4,4)" v:tabSpace="42.5197"/>
			<v:textRect cx="31.1811" cy="408.177" width="62.37" height="41.1024"/>
			<g id="shadow19-69" v:groupContext="shadow" v:shadowOffsetX="0.345598" v:shadowOffsetY="-1.97279" v:shadowType="1"
					transform="matrix(1,0,0,1,0.345598,1.97279)" class="st1">
				<rect x="0" y="387.626" width="62.3622" height="41.1024" class="st2"/>
			</g>
			<rect x="0" y="387.626" width="62.3622" height="41.1024" class="st13"/>
			<text x="8.17" y="405.18" class="st6" v:langID="1031"><v:paragraph v:horizAlign="1"/><v:tabList/>Core Intent <tspan
						x="24.72" dy="1.2em" class="st12">Set</tspan></text>		</g>
		<g id="shape20-75" v:mID="20" v:groupContext="shape" transform="translate(269.291,-130.087)">
			<title>Rectangle.20</title>
			<desc>Dialog Registry</desc>
			<v:userDefs>
				<v:ud v:nameU="visVersion" v:val="VT0(15):26"/>
			</v:userDefs>
			<v:textBlock v:margins="rect(4,4,4,4)" v:tabSpace="42.5197"/>
			<v:textRect cx="64.8425" cy="412.287" width="129.69" height="32.8819"/>
			<g id="shadow20-76" v:groupContext="shadow" v:shadowOffsetX="0.345598" v:shadowOffsetY="-1.97279" v:shadowType="1"
					transform="matrix(1,0,0,1,0.345598,1.97279)" class="st1">
				<rect x="0" y="395.846" width="129.685" height="32.8819" class="st2"/>
			</g>
			<rect x="0" y="395.846" width="129.685" height="32.8819" class="st13"/>
			<text x="34.62" y="415.29" class="st6" v:langID="1031"><v:paragraph v:horizAlign="1"/><v:tabList/>Dialog Registry</text>		</g>
		<g id="shape30-81" v:mID="30" v:groupContext="shape" transform="translate(-319.137,291.543) rotate(-90)">
			<title>Sheet.30</title>
			<path d="M0 428.73 L0 428.73" class="st14"/>
		</g>
		<g id="shape45-84" v:mID="45" v:groupContext="shape" transform="translate(72.098,377.728) rotate(-90)">
			<title>Rectangle.45</title>
			<desc>Provider Selection Service</desc>
			<v:userDefs>
				<v:ud v:nameU="visVersion" v:val="VT0(15):26"/>
			</v:userDefs>
			<v:textBlock v:margins="rect(4,4,4,4)" v:tabSpace="42.5197"/>
			<v:textRect cx="143.227" cy="397.547" width="286.46" height="62.3622"/>
			<g id="shadow45-85" v:groupContext="shadow" v:shadowOffsetX="0.345598" v:shadowOffsetY="-1.97279" v:shadowType="1"
					transform="matrix(1,0,0,1,-1.97279,0.345598)" class="st1">
				<rect x="0" y="366.366" width="286.453" height="62.3622" class="st2"/>
			</g>
			<rect x="0" y="366.366" width="286.453" height="62.3622" class="st11"/>
			<text x="90.58" y="400.55" class="st6" v:langID="1031"><v:paragraph v:horizAlign="1"/><v:tabList/>Provider Selection Service</text>		</g>
		<g id="shape51-90" v:mID="51" v:groupContext="shape" transform="translate(270.425,-169.909)">
			<title>Rectangle.51</title>
			<desc>Dialog n</desc>
			<v:userDefs>
				<v:ud v:nameU="visVersion" v:val="VT0(15):26"/>
			</v:userDefs>
			<v:textBlock v:margins="rect(4,4,4,4)" v:tabSpace="42.5197"/>
			<v:textRect cx="31.1811" cy="418.452" width="62.37" height="20.5512"/>
			<g id="shadow51-91" v:groupContext="shadow" v:shadowOffsetX="0.345598" v:shadowOffsetY="-1.97279" v:shadowType="1"
					transform="matrix(1,0,0,1,0.345598,1.97279)" class="st1">
				<rect x="0" y="408.177" width="62.3622" height="20.5512" class="st2"/>
			</g>
			<rect x="0" y="408.177" width="62.3622" height="20.5512" class="st13"/>
			<text x="14.67" y="421.45" class="st6" v:langID="1031"><v:paragraph v:horizAlign="1"/><v:tabList/>Dialog n</text>		</g>
		<g id="shape52-96" v:mID="52" v:groupContext="shape" transform="translate(335.622,-169.909)">
			<title>Rectangle.52</title>
			<desc>Intent Set n</desc>
			<v:userDefs>
				<v:ud v:nameU="visVersion" v:val="VT0(15):26"/>
			</v:userDefs>
			<v:textBlock v:margins="rect(4,4,4,4)" v:tabSpace="42.5197"/>
			<v:textRect cx="31.1811" cy="418.452" width="62.37" height="20.5512"/>
			<g id="shadow52-97" v:groupContext="shadow" v:shadowOffsetX="0.345598" v:shadowOffsetY="-1.97279" v:shadowType="1"
					transform="matrix(1,0,0,1,0.345598,1.97279)" class="st1">
				<rect x="0" y="408.177" width="62.3622" height="20.5512" class="st2"/>
			</g>
			<rect x="0" y="408.177" width="62.3622" height="20.5512" class="st13"/>
			<text x="7.48" y="421.45" class="st6" v:langID="1031"><v:paragraph v:horizAlign="1"/><v:tabList/>Intent Set n</text>		</g>
		<g id="shape53-102" v:mID="53" v:groupContext="shape" transform="translate(313.228,-198.255)">
			<title>Circle.53</title>
			<v:userDefs>
				<v:ud v:nameU="visVersion" v:val="VT0(15):26"/>
			</v:userDefs>
			<g id="shadow53-103" v:groupContext="shadow" v:shadowOffsetX="0.345598" v:shadowOffsetY="-1.97279" v:shadowType="1"
					transform="matrix(1,0,0,1,0.345598,1.97279)" class="st1">
				<path d="M0 424.48 A4.25197 4.25197 0 0 1 8.5 424.48 A4.25197 4.25197 0 1 1 0 424.48 Z" class="st2"/>
			</g>
			<path d="M0 424.48 A4.25197 4.25197 0 0 1 8.5 424.48 A4.25197 4.25197 0 1 1 0 424.48 Z" class="st13"/>
		</g>
		<g id="shape54-107" v:mID="54" v:groupContext="shape" transform="translate(330.236,-198.255)">
			<title>Circle.54</title>
			<v:userDefs>
				<v:ud v:nameU="visVersion" v:val="VT0(15):26"/>
			</v:userDefs>
			<g id="shadow54-108" v:groupContext="shadow" v:shadowOffsetX="0.345598" v:shadowOffsetY="-1.97279" v:shadowType="1"
					transform="matrix(1,0,0,1,0.345598,1.97279)" class="st1">
				<path d="M0 424.48 A4.25197 4.25197 0 0 1 8.5 424.48 A4.25197 4.25197 0 1 1 0 424.48 Z" class="st2"/>
			</g>
			<path d="M0 424.48 A4.25197 4.25197 0 0 1 8.5 424.48 A4.25197 4.25197 0 1 1 0 424.48 Z" class="st13"/>
		</g>
		<g id="shape55-112" v:mID="55" v:groupContext="shape" transform="translate(347.244,-198.255)">
			<title>Circle.55</title>
			<v:userDefs>
				<v:ud v:nameU="visVersion" v:val="VT0(15):26"/>
			</v:userDefs>
			<g id="shadow55-113" v:groupContext="shadow" v:shadowOffsetX="0.345598" v:shadowOffsetY="-1.97279" v:shadowType="1"
					transform="matrix(1,0,0,1,0.345598,1.97279)" class="st1">
				<path d="M0 424.48 A4.25197 4.25197 0 0 1 8.5 424.48 A4.25197 4.25197 0 1 1 0 424.48 Z" class="st2"/>
			</g>
			<path d="M0 424.48 A4.25197 4.25197 0 0 1 8.5 424.48 A4.25197 4.25197 0 1 1 0 424.48 Z" class="st13"/>
		</g>
		<g id="shape59-117" v:mID="59" v:groupContext="shape" transform="translate(146.087,-300.603)">
			<title>Rectangle.59</title>
			<desc>ASR</desc>
			<v:userDefs>
				<v:ud v:nameU="visVersion" v:val="VT0(15):26"/>
			</v:userDefs>
			<v:textBlock v:margins="rect(4,4,4,4)" v:tabSpace="42.5197"/>
			<v:textRect cx="53.1496" cy="412.287" width="106.3" height="32.8819"/>
			<g id="shadow59-118" v:groupContext="shadow" v:shadowOffsetX="0.345598" v:shadowOffsetY="-1.97279" v:shadowType="1"
					transform="matrix(1,0,0,1,0.345598,1.97279)" class="st1">
				<rect x="0" y="395.846" width="106.299" height="32.8819" class="st2"/>
			</g>
			<rect x="0" y="395.846" width="106.299" height="32.8819" class="st5"/>
			<text x="45.24" y="415.29" class="st6" v:langID="1031"><v:paragraph v:horizAlign="1"/><v:tabList/>ASR</text>		</g>
		<g id="shape62-123" v:mID="62" v:groupContext="shape" transform="translate(439.598,-341.244)">
			<title>Rectangle.62</title>
			<desc>Provider Registry</desc>
			<v:userDefs>
				<v:ud v:nameU="visVersion" v:val="VT0(15):26"/>
			</v:userDefs>
			<v:textBlock v:margins="rect(4,4,4,4)" v:tabSpace="42.5197"/>
			<v:textRect cx="31.1811" cy="408.177" width="62.37" height="41.1024"/>
			<g id="shadow62-124" v:groupContext="shadow" v:shadowOffsetX="0.345598" v:shadowOffsetY="-1.97279" v:shadowType="1"
					transform="matrix(1,0,0,1,0.345598,1.97279)" class="st1">
				<rect x="0" y="387.626" width="62.3622" height="41.1024" class="st2"/>
			</g>
			<rect x="0" y="387.626" width="62.3622" height="41.1024" class="st11"/>
			<text x="13.95" y="405.18" class="st6" v:langID="1031"><v:paragraph v:horizAlign="1"/><v:tabList/>Provider<v:newlineChar/><tspan
						x="14.84" dy="1.2em" class="st12">Registry</tspan></text>		</g>
		<g id="shape64-130" v:mID="64" v:groupContext="shape" transform="translate(146.087,-339.437)">
			<title>Rectangle.68</title>
			<desc>Context</desc>
			<v:userDefs>
				<v:ud v:nameU="visVersion" v:val="VT0(15):26"/>
			</v:userDefs>
			<v:textBlock v:margins="rect(4,4,4,4)" v:tabSpace="42.5197" v:verticalAlign="2"/>
			<v:textRect cx="132.468" cy="408.177" width="264.94" height="41.1024"/>
			<g id="shadow64-131" v:groupContext="shadow" v:shadowOffsetX="0.345598" v:shadowOffsetY="-1.97279" v:shadowType="1"
					transform="matrix(1,0,0,1,0.345598,1.97279)" class="st1">
				<rect x="0" y="387.626" width="264.936" height="41.1024" class="st2"/>
			</g>
			<rect x="0" y="387.626" width="264.936" height="41.1024" class="st5"/>
			<text x="229.07" y="421.73" class="st6" v:langID="1031"><v:paragraph v:horizAlign="2"/><v:tabList/>Context</text>		</g>
		<g id="shape66-136" v:mID="66" v:groupContext="shape" transform="translate(260.891,-300.603)">
			<title>Rectangle.65</title>
			<desc>NLU</desc>
			<v:userDefs>
				<v:ud v:nameU="visVersion" v:val="VT0(15):26"/>
			</v:userDefs>
			<v:textBlock v:margins="rect(4,4,4,4)" v:tabSpace="42.5197"/>
			<v:textRect cx="75.0665" cy="412.287" width="150.14" height="32.8819"/>
			<g id="shadow66-137" v:groupContext="shadow" v:shadowOffsetX="0.345598" v:shadowOffsetY="-1.97279" v:shadowType="1"
					transform="matrix(1,0,0,1,0.345598,1.97279)" class="st1">
				<rect x="0" y="395.846" width="150.133" height="32.8819" class="st2"/>
			</g>
			<rect x="0" y="395.846" width="150.133" height="32.8819" class="st5"/>
			<text x="66.53" y="415.29" class="st6" v:langID="1031"><v:paragraph v:horizAlign="1"/><v:tabList/>NLU</text>		</g>
		<g id="shape69-142" v:mID="69" v:groupContext="shape" transform="translate(144.213,-51)">
			<title>Rectangle.69</title>
			<desc>TTS</desc>
			<v:userDefs>
				<v:ud v:nameU="visVersion" v:val="VT0(15):26"/>
			</v:userDefs>
			<v:textBlock v:margins="rect(4,4,4,4)" v:tabSpace="42.5197"/>
			<v:textRect cx="25.8661" cy="412.287" width="51.74" height="32.8819"/>
			<g id="shadow69-143" v:groupContext="shadow" v:shadowOffsetX="0.345598" v:shadowOffsetY="-1.97279" v:shadowType="1"
					transform="matrix(1,0,0,1,0.345598,1.97279)" class="st1">
				<rect x="0" y="395.846" width="51.7323" height="32.8819" class="st2"/>
			</g>
			<rect x="0" y="395.846" width="51.7323" height="32.8819" class="st5"/>
			<text x="18.7" y="415.29" class="st6" v:langID="1031"><v:paragraph v:horizAlign="1"/><v:tabList/>TTS</text>		</g>
		<g id="shape70-148" v:mID="70" v:groupContext="shape" transform="translate(203.386,-51)">
			<title>Rectangle.70</title>
			<desc>NLG</desc>
			<v:userDefs>
				<v:ud v:nameU="visVersion" v:val="VT0(15):26"/>
			</v:userDefs>
			<v:textBlock v:margins="rect(4,4,4,4)" v:tabSpace="42.5197"/>
			<v:textRect cx="25.8661" cy="412.287" width="51.74" height="32.8819"/>
			<g id="shadow70-149" v:groupContext="shadow" v:shadowOffsetX="0.345598" v:shadowOffsetY="-1.97279" v:shadowType="1"
					transform="matrix(1,0,0,1,0.345598,1.97279)" class="st1">
				<rect x="0" y="395.846" width="51.7323" height="32.8819" class="st2"/>
			</g>
			<rect x="0" y="395.846" width="51.7323" height="32.8819" class="st5"/>
			<text x="17.38" y="415.29" class="st6" v:langID="1031"><v:paragraph v:horizAlign="1"/><v:tabList/>NLG</text>		</g>
		<g id="shape63-154" v:mID="63" v:groupContext="shape" transform="translate(260.079,-343.843)">
			<title>Rectangle.63</title>
			<desc>Knowledge Graph</desc>
			<v:userDefs>
				<v:ud v:nameU="visVersion" v:val="VT0(15):26"/>
			</v:userDefs>
			<v:textBlock v:margins="rect(4,4,4,4)" v:tabSpace="42.5197"/>
			<v:textRect cx="40.0394" cy="412.287" width="80.08" height="32.8819"/>
			<g id="shadow63-155" v:groupContext="shadow" v:shadowOffsetX="0.345598" v:shadowOffsetY="-1.97279" v:shadowType="1"
					transform="matrix(1,0,0,1,0.345598,1.97279)" class="st1">
				<rect x="0" y="395.846" width="80.0787" height="32.8819" class="st2"/>
			</g>
			<rect x="0" y="395.846" width="80.0787" height="32.8819" class="st13"/>
			<text x="17.5" y="409.29" class="st6" v:langID="1031"><v:paragraph v:horizAlign="1"/><v:tabList/>Knowledge <tspan
						x="27.49" dy="1.2em" class="st12">Graph</tspan></text>		</g>
		<g id="shape81-161" v:mID="81" v:groupContext="shape" transform="translate(28.3465,-306.118)">
			<title>Rectangle.81</title>
			<desc>Local Data Providers</desc>
			<v:userDefs>
				<v:ud v:nameU="visVersion" v:val="VT0(15):26"/>
			</v:userDefs>
			<v:textBlock v:margins="rect(4,4,4,4)" v:tabSpace="42.5197"/>
			<v:textRect cx="31.1811" cy="412.287" width="62.37" height="32.8819"/>
			<g id="shadow81-162" v:groupContext="shadow" v:shadowOffsetX="0.345598" v:shadowOffsetY="-1.97279" v:shadowType="1"
					transform="matrix(1,0,0,1,0.345598,1.97279)" class="st1">
				<rect x="0" y="395.846" width="62.3622" height="32.8819" class="st2"/>
			</g>
			<rect x="0" y="395.846" width="62.3622" height="32.8819" class="st15"/>
			<text x="10.11" y="409.29" class="st6" v:langID="1031"><v:paragraph v:horizAlign="1"/><v:tabList/>Local Data <tspan
						x="12" dy="1.2em" class="st12">Providers</tspan></text>		</g>
		<g id="shape82-168" v:mID="82" v:groupContext="shape" transform="translate(28.3465,-345.107)">
			<title>Rectangle.91</title>
			<desc>Local Services</desc>
			<v:userDefs>
				<v:ud v:nameU="visVersion" v:val="VT0(15):26"/>
			</v:userDefs>
			<v:textBlock v:margins="rect(4,4,4,4)" v:tabSpace="42.5197"/>
			<v:textRect cx="31.1811" cy="412.287" width="62.37" height="32.8819"/>
			<g id="shadow82-169" v:groupContext="shadow" v:shadowOffsetX="0.345598" v:shadowOffsetY="-1.97279" v:shadowType="1"
					transform="matrix(1,0,0,1,0.345598,1.97279)" class="st1">
				<rect x="0" y="395.846" width="62.3622" height="32.8819" class="st2"/>
			</g>
			<rect x="0" y="395.846" width="62.3622" height="32.8819" class="st15"/>
			<text x="20.79" y="409.29" class="st6" v:langID="1031"><v:paragraph v:horizAlign="1"/><v:tabList/>Local <tspan
						x="14.69" dy="1.2em" class="st12">Services</tspan></text>		</g>
		<g id="shape83-175" v:mID="83" v:groupContext="shape" transform="translate(506.495,-218.244)">
			<title>Rectangle.72</title>
			<desc>Data Providers</desc>
			<v:userDefs>
				<v:ud v:nameU="visVersion" v:val="VT0(15):26"/>
			</v:userDefs>
			<v:textBlock v:margins="rect(4,4,4,4)" v:tabSpace="42.5197" v:verticalAlign="0"/>
			<v:textRect cx="49.6063" cy="370.618" width="99.22" height="116.22"/>
			<g id="shadow83-176" v:groupContext="shadow" v:shadowOffsetX="0.345598" v:shadowOffsetY="-1.97279" v:shadowType="1"
					transform="matrix(1,0,0,1,0.345598,1.97279)" class="st1">
				<rect x="0" y="312.507" width="99.2126" height="116.22" class="st2"/>
			</g>
			<rect x="0" y="312.507" width="99.2126" height="116.22" class="st16"/>
			<text x="35.51" y="325.51" class="st17" v:langID="1031"><v:paragraph v:horizAlign="2"/><v:tabList/>Data Providers</text>		</g>
		<g id="shape84-181" v:mID="84" v:groupContext="shape" transform="translate(518.197,-281.398)">
			<title>Rectangle.22</title>
			<desc>Data Provider 1</desc>
			<v:userDefs>
				<v:ud v:nameU="visVersion" v:val="VT0(15):26"/>
			</v:userDefs>
			<v:textBlock v:margins="rect(4,4,4,4)" v:tabSpace="42.5197"/>
			<v:textRect cx="40.0394" cy="412.287" width="80.08" height="32.8819"/>
			<g id="shadow84-182" v:groupContext="shadow" v:shadowOffsetX="0.345598" v:shadowOffsetY="-1.97279" v:shadowType="1"
					transform="matrix(1,0,0,1,0.345598,1.97279)" class="st1">
				<rect x="0" y="395.846" width="80.0787" height="32.8819" class="st2"/>
			</g>
			<rect x="0" y="395.846" width="80.0787" height="32.8819" class="st15"/>
			<text x="8.48" y="415.29" class="st6" v:langID="1031"><v:paragraph v:horizAlign="1"/><v:tabList/>Data Provider 1</text>		</g>
		<g id="shape85-187" v:mID="85" v:groupContext="shape" transform="translate(518.197,-228.91)">
			<title>Rectangle.77</title>
			<desc>Data Provider n</desc>
			<v:userDefs>
				<v:ud v:nameU="visVersion" v:val="VT0(15):26"/>
			</v:userDefs>
			<v:textBlock v:margins="rect(4,4,4,4)" v:tabSpace="42.5197"/>
			<v:textRect cx="40.0394" cy="412.287" width="80.08" height="32.8819"/>
			<g id="shadow85-188" v:groupContext="shadow" v:shadowOffsetX="0.345598" v:shadowOffsetY="-1.97279" v:shadowType="1"
					transform="matrix(1,0,0,1,0.345598,1.97279)" class="st1">
				<rect x="0" y="395.846" width="80.0787" height="32.8819" class="st2"/>
			</g>
			<rect x="0" y="395.846" width="80.0787" height="32.8819" class="st15"/>
			<text x="8.38" y="415.29" class="st6" v:langID="1031"><v:paragraph v:horizAlign="1"/><v:tabList/>Data Provider n</text>		</g>
		<g id="shape86-193" v:mID="86" v:groupContext="shape" transform="translate(532.37,-267.178)">
			<title>Circle.78</title>
			<v:userDefs>
				<v:ud v:nameU="visVersion" v:val="VT0(15):26"/>
			</v:userDefs>
			<g id="shadow86-194" v:groupContext="shadow" v:shadowOffsetX="0.345598" v:shadowOffsetY="-1.97279" v:shadowType="1"
					transform="matrix(1,0,0,1,0.345598,1.97279)" class="st1">
				<path d="M0 424.48 A4.25197 4.25197 0 0 1 8.5 424.48 A4.25197 4.25197 0 1 1 0 424.48 Z" class="st2"/>
			</g>
			<path d="M0 424.48 A4.25197 4.25197 0 0 1 8.5 424.48 A4.25197 4.25197 0 1 1 0 424.48 Z" class="st18"/>
		</g>
		<g id="shape87-198" v:mID="87" v:groupContext="shape" transform="translate(549.378,-267.178)">
			<title>Circle.79</title>
			<v:userDefs>
				<v:ud v:nameU="visVersion" v:val="VT0(15):26"/>
			</v:userDefs>
			<g id="shadow87-199" v:groupContext="shadow" v:shadowOffsetX="0.345598" v:shadowOffsetY="-1.97279" v:shadowType="1"
					transform="matrix(1,0,0,1,0.345598,1.97279)" class="st1">
				<path d="M0 424.48 A4.25197 4.25197 0 0 1 8.5 424.48 A4.25197 4.25197 0 1 1 0 424.48 Z" class="st2"/>
			</g>
			<path d="M0 424.48 A4.25197 4.25197 0 0 1 8.5 424.48 A4.25197 4.25197 0 1 1 0 424.48 Z" class="st18"/>
		</g>
		<g id="shape88-203" v:mID="88" v:groupContext="shape" transform="translate(566.386,-267.178)">
			<title>Circle.80</title>
			<v:userDefs>
				<v:ud v:nameU="visVersion" v:val="VT0(15):26"/>
			</v:userDefs>
			<g id="shadow88-204" v:groupContext="shadow" v:shadowOffsetX="0.345598" v:shadowOffsetY="-1.97279" v:shadowType="1"
					transform="matrix(1,0,0,1,0.345598,1.97279)" class="st1">
				<path d="M0 424.48 A4.25197 4.25197 0 0 1 8.5 424.48 A4.25197 4.25197 0 1 1 0 424.48 Z" class="st2"/>
			</g>
			<path d="M0 424.48 A4.25197 4.25197 0 0 1 8.5 424.48 A4.25197 4.25197 0 1 1 0 424.48 Z" class="st18"/>
		</g>
		<g id="shape89-208" v:mID="89" v:groupContext="shape" transform="translate(655.314,-219.661)">
			<title>Rectangle.89</title>
			<desc>External Services</desc>
			<v:userDefs>
				<v:ud v:nameU="visVersion" v:val="VT0(15):26"/>
			</v:userDefs>
			<v:textBlock v:margins="rect(4,4,4,4)" v:tabSpace="42.5197" v:verticalAlign="0"/>
			<v:textRect cx="49.6063" cy="370.618" width="99.22" height="116.22"/>
			<g id="shadow89-209" v:groupContext="shadow" v:shadowOffsetX="0.345598" v:shadowOffsetY="-1.97279" v:shadowType="1"
					transform="matrix(1,0,0,1,0.345598,1.97279)" class="st1">
				<rect x="0" y="312.507" width="99.2126" height="116.22" class="st2"/>
			</g>
			<rect x="0" y="312.507" width="99.2126" height="116.22" class="st16"/>
			<text x="26.6" y="325.51" class="st17" v:langID="1031"><v:paragraph v:horizAlign="2"/><v:tabList/>External Services</text>		</g>
		<g id="shape90-214" v:mID="90" v:groupContext="shape" transform="translate(663.006,-282.815)">
			<title>Rectangle.90</title>
			<desc>External Service 1</desc>
			<v:userDefs>
				<v:ud v:nameU="visVersion" v:val="VT0(15):26"/>
			</v:userDefs>
			<v:textBlock v:margins="rect(4,4,4,4)" v:tabSpace="42.5197"/>
			<v:textRect cx="42.0442" cy="412.287" width="84.09" height="32.8819"/>
			<g id="shadow90-215" v:groupContext="shadow" v:shadowOffsetX="0.345598" v:shadowOffsetY="-1.97279" v:shadowType="1"
					transform="matrix(1,0,0,1,0.345598,1.97279)" class="st1">
				<rect x="0" y="395.846" width="84.0883" height="32.8819" class="st2"/>
			</g>
			<rect x="0" y="395.846" width="84.0883" height="32.8819" class="st15"/>
			<text x="6.03" y="415.29" class="st6" v:langID="1031"><v:paragraph v:horizAlign="1"/><v:tabList/>External Service 1</text>		</g>
		<g id="shape91-220" v:mID="91" v:groupContext="shape" transform="translate(663.006,-230.327)">
			<title>Rectangle.91</title>
			<desc>External Service n</desc>
			<v:userDefs>
				<v:ud v:nameU="visVersion" v:val="VT0(15):26"/>
			</v:userDefs>
			<v:textBlock v:margins="rect(4,4,4,4)" v:tabSpace="42.5197"/>
			<v:textRect cx="42.0442" cy="412.287" width="84.09" height="32.8819"/>
			<g id="shadow91-221" v:groupContext="shadow" v:shadowOffsetX="0.345598" v:shadowOffsetY="-1.97279" v:shadowType="1"
					transform="matrix(1,0,0,1,0.345598,1.97279)" class="st1">
				<rect x="0" y="395.846" width="84.0883" height="32.8819" class="st2"/>
			</g>
			<rect x="0" y="395.846" width="84.0883" height="32.8819" class="st15"/>
			<text x="5.94" y="415.29" class="st6" v:langID="1031"><v:paragraph v:horizAlign="1"/><v:tabList/>External Service n</text>		</g>
		<g id="shape92-226" v:mID="92" v:groupContext="shape" transform="translate(681.189,-268.595)">
			<title>Circle.92</title>
			<v:userDefs>
				<v:ud v:nameU="visVersion" v:val="VT0(15):26"/>
			</v:userDefs>
			<g id="shadow92-227" v:groupContext="shadow" v:shadowOffsetX="0.345598" v:shadowOffsetY="-1.97279" v:shadowType="1"
					transform="matrix(1,0,0,1,0.345598,1.97279)" class="st1">
				<path d="M0 424.48 A4.25197 4.25197 0 0 1 8.5 424.48 A4.25197 4.25197 0 1 1 0 424.48 Z" class="st2"/>
			</g>
			<path d="M0 424.48 A4.25197 4.25197 0 0 1 8.5 424.48 A4.25197 4.25197 0 1 1 0 424.48 Z" class="st18"/>
		</g>
		<g id="shape93-231" v:mID="93" v:groupContext="shape" transform="translate(698.197,-268.595)">
			<title>Circle.93</title>
			<v:userDefs>
				<v:ud v:nameU="visVersion" v:val="VT0(15):26"/>
			</v:userDefs>
			<g id="shadow93-232" v:groupContext="shadow" v:shadowOffsetX="0.345598" v:shadowOffsetY="-1.97279" v:shadowType="1"
					transform="matrix(1,0,0,1,0.345598,1.97279)" class="st1">
				<path d="M0 424.48 A4.25197 4.25197 0 0 1 8.5 424.48 A4.25197 4.25197 0 1 1 0 424.48 Z" class="st2"/>
			</g>
			<path d="M0 424.48 A4.25197 4.25197 0 0 1 8.5 424.48 A4.25197 4.25197 0 1 1 0 424.48 Z" class="st18"/>
		</g>
		<g id="shape94-236" v:mID="94" v:groupContext="shape" transform="translate(715.205,-268.595)">
			<title>Circle.94</title>
			<v:userDefs>
				<v:ud v:nameU="visVersion" v:val="VT0(15):26"/>
			</v:userDefs>
			<g id="shadow94-237" v:groupContext="shadow" v:shadowOffsetX="0.345598" v:shadowOffsetY="-1.97279" v:shadowType="1"
					transform="matrix(1,0,0,1,0.345598,1.97279)" class="st1">
				<path d="M0 424.48 A4.25197 4.25197 0 0 1 8.5 424.48 A4.25197 4.25197 0 1 1 0 424.48 Z" class="st2"/>
			</g>
			<path d="M0 424.48 A4.25197 4.25197 0 0 1 8.5 424.48 A4.25197 4.25197 0 1 1 0 424.48 Z" class="st18"/>
		</g>
		<g id="shape95-241" v:mID="95" v:groupContext="shape" transform="translate(505.078,-51)">
			<title>Rectangle.12</title>
			<desc>IPA Providers</desc>
			<v:userDefs>
				<v:ud v:nameU="visVersion" v:val="VT0(15):26"/>
			</v:userDefs>
			<v:textBlock v:margins="rect(4,4,4,4)" v:tabSpace="42.5197" v:verticalAlign="0"/>
			<v:textRect cx="124.724" cy="347.941" width="249.45" height="161.575"/>
			<g id="shadow95-242" v:groupContext="shadow" v:shadowOffsetX="0.345598" v:shadowOffsetY="-1.97279" v:shadowType="1"
					transform="matrix(1,0,0,1,0.345598,1.97279)" class="st1">
				<rect x="0" y="267.153" width="249.449" height="161.575" class="st2"/>
			</g>
			<rect x="0" y="267.153" width="249.449" height="161.575" class="st16"/>
			<text x="191.35" y="280.15" class="st17" v:langID="1031"><v:paragraph v:horizAlign="2"/><v:tabList/>IPA Providers</text>		</g>
		<g id="shape96-247" v:mID="96" v:groupContext="shape" transform="translate(516.78,-57.0476)">
			<title>Rectangle.36</title>
			<desc>IPA Provider n</desc>
			<v:userDefs>
				<v:ud v:nameU="visVersion" v:val="VT0(15):26"/>
			</v:userDefs>
			<v:textBlock v:margins="rect(4,4,4,4)" v:tabSpace="42.5197" v:verticalAlign="0"/>
			<v:textRect cx="110.551" cy="399.318" width="221.11" height="58.8189"/>
			<g id="shadow96-248" v:groupContext="shadow" v:shadowOffsetX="0.345598" v:shadowOffsetY="-1.97279" v:shadowType="1"
					transform="matrix(1,0,0,1,0.345598,1.97279)" class="st1">
				<rect x="0" y="369.909" width="221.102" height="58.8189" class="st2"/>
			</g>
			<rect x="0" y="369.909" width="221.102" height="58.8189" class="st19"/>
			<text x="159.4" y="382.91" class="st17" v:langID="1031"><v:paragraph v:horizAlign="2"/><v:tabList/>IPA Provider n</text>		</g>
		<g id="shape97-253" v:mID="97" v:groupContext="shape" transform="translate(664.89,-64.8429)">
			<title>Rectangle.39</title>
			<desc>...</desc>
			<v:userDefs>
				<v:ud v:nameU="visVersion" v:val="VT0(15):26"/>
			</v:userDefs>
			<v:textBlock v:margins="rect(4,4,4,4)" v:tabSpace="42.5197"/>
			<v:textRect cx="31.1811" cy="413.137" width="62.37" height="31.1811"/>
			<g id="shadow97-254" v:groupContext="shadow" v:shadowOffsetX="0.345598" v:shadowOffsetY="-1.97279" v:shadowType="1"
					transform="matrix(1,0,0,1,0.345598,1.97279)" class="st1">
				<rect x="0" y="397.547" width="62.3622" height="31.1811" class="st2"/>
			</g>
			<rect x="0" y="397.547" width="62.3622" height="31.1811" class="st15"/>
			<text x="27.39" y="416.14" class="st6" v:langID="1031"><v:paragraph v:horizAlign="1"/><v:tabList/>...</text>		</g>
		<g id="shape98-259" v:mID="98" v:groupContext="shape" transform="translate(595.441,-64.8429)">
			<title>Rectangle.40</title>
			<desc>Provider Intent Set</desc>
			<v:userDefs>
				<v:ud v:nameU="visVersion" v:val="VT0(15):26"/>
			</v:userDefs>
			<v:textBlock v:margins="rect(4,4,4,4)" v:tabSpace="42.5197"/>
			<v:textRect cx="31.1811" cy="413.137" width="62.37" height="31.1811"/>
			<g id="shadow98-260" v:groupContext="shadow" v:shadowOffsetX="0.345598" v:shadowOffsetY="-1.97279" v:shadowType="1"
					transform="matrix(1,0,0,1,0.345598,1.97279)" class="st1">
				<rect x="0" y="397.547" width="62.3622" height="31.1811" class="st2"/>
			</g>
			<rect x="0" y="397.547" width="62.3622" height="31.1811" class="st15"/>
			<text x="13.95" y="410.14" class="st6" v:langID="1031"><v:paragraph v:horizAlign="1"/><v:tabList/>Provider <tspan
						x="11.24" dy="1.2em" class="st12">Intent Set</tspan></text>		</g>
		<g id="shape99-266" v:mID="99" v:groupContext="shape" transform="translate(596.858,-119.41)">
			<title>Circle</title>
			<v:userDefs>
				<v:ud v:nameU="visVersion" v:val="VT0(15):26"/>
			</v:userDefs>
			<g id="shadow99-267" v:groupContext="shadow" v:shadowOffsetX="0.345598" v:shadowOffsetY="-1.97279" v:shadowType="1"
					transform="matrix(1,0,0,1,0.345598,1.97279)" class="st1">
				<path d="M0 424.48 A4.25197 4.25197 0 0 1 8.5 424.48 A4.25197 4.25197 0 1 1 0 424.48 Z" class="st2"/>
			</g>
			<path d="M0 424.48 A4.25197 4.25197 0 0 1 8.5 424.48 A4.25197 4.25197 0 1 1 0 424.48 Z" class="st18"/>
		</g>
		<g id="shape100-271" v:mID="100" v:groupContext="shape" transform="translate(613.866,-119.41)">
			<title>Circle.42</title>
			<v:userDefs>
				<v:ud v:nameU="visVersion" v:val="VT0(15):26"/>
			</v:userDefs>
			<g id="shadow100-272" v:groupContext="shadow" v:shadowOffsetX="0.345598" v:shadowOffsetY="-1.97279" v:shadowType="1"
					transform="matrix(1,0,0,1,0.345598,1.97279)" class="st1">
				<path d="M0 424.48 A4.25197 4.25197 0 0 1 8.5 424.48 A4.25197 4.25197 0 1 1 0 424.48 Z" class="st2"/>
			</g>
			<path d="M0 424.48 A4.25197 4.25197 0 0 1 8.5 424.48 A4.25197 4.25197 0 1 1 0 424.48 Z" class="st18"/>
		</g>
		<g id="shape101-276" v:mID="101" v:groupContext="shape" transform="translate(630.874,-119.41)">
			<title>Circle.43</title>
			<v:userDefs>
				<v:ud v:nameU="visVersion" v:val="VT0(15):26"/>
			</v:userDefs>
			<g id="shadow101-277" v:groupContext="shadow" v:shadowOffsetX="0.345598" v:shadowOffsetY="-1.97279" v:shadowType="1"
					transform="matrix(1,0,0,1,0.345598,1.97279)" class="st1">
				<path d="M0 424.48 A4.25197 4.25197 0 0 1 8.5 424.48 A4.25197 4.25197 0 1 1 0 424.48 Z" class="st2"/>
			</g>
			<path d="M0 424.48 A4.25197 4.25197 0 0 1 8.5 424.48 A4.25197 4.25197 0 1 1 0 424.48 Z" class="st18"/>
		</g>
		<g id="shape102-281" v:mID="102" v:groupContext="shape" transform="translate(525.992,-64.8429)">
			<title>Rectangle.57</title>
			<desc>Provider NLU</desc>
			<v:userDefs>
				<v:ud v:nameU="visVersion" v:val="VT0(15):26"/>
			</v:userDefs>
			<v:textBlock v:margins="rect(4,4,4,4)" v:tabSpace="42.5197"/>
			<v:textRect cx="31.1811" cy="413.137" width="62.37" height="31.1811"/>
			<g id="shadow102-282" v:groupContext="shadow" v:shadowOffsetX="0.345598" v:shadowOffsetY="-1.97279" v:shadowType="1"
					transform="matrix(1,0,0,1,0.345598,1.97279)" class="st1">
				<rect x="0" y="397.547" width="62.3622" height="31.1811" class="st2"/>
			</g>
			<rect x="0" y="397.547" width="62.3622" height="31.1811" class="st15"/>
			<text x="4.29" y="416.14" class="st6" v:langID="1031"><v:paragraph v:horizAlign="1"/><v:tabList/>Provider NLU</text>		</g>
		<g id="shape103-287" v:mID="103" v:groupContext="shape" transform="translate(517.488,-132.52)">
			<title>Rectangle.103</title>
			<desc>IPA Provider 1</desc>
			<v:userDefs>
				<v:ud v:nameU="visVersion" v:val="VT0(15):26"/>
			</v:userDefs>
			<v:textBlock v:margins="rect(4,4,4,4)" v:tabSpace="42.5197" v:verticalAlign="0"/>
			<v:textRect cx="110.551" cy="399.318" width="221.11" height="58.8189"/>
			<g id="shadow103-288" v:groupContext="shadow" v:shadowOffsetX="0.345598" v:shadowOffsetY="-1.97279" v:shadowType="1"
					transform="matrix(1,0,0,1,0.345598,1.97279)" class="st1">
				<rect x="0" y="369.909" width="221.102" height="58.8189" class="st2"/>
			</g>
			<rect x="0" y="369.909" width="221.102" height="58.8189" class="st19"/>
			<text x="159.59" y="382.91" class="st17" v:langID="1031"><v:paragraph v:horizAlign="2"/><v:tabList/>IPA Provider 1</text>		</g>
		<g id="shape104-293" v:mID="104" v:groupContext="shape" transform="translate(665.598,-140.315)">
			<title>Rectangle.73</title>
			<desc>...</desc>
			<v:userDefs>
				<v:ud v:nameU="visVersion" v:val="VT0(15):26"/>
			</v:userDefs>
			<v:textBlock v:margins="rect(4,4,4,4)" v:tabSpace="42.5197"/>
			<v:textRect cx="31.1811" cy="413.137" width="62.37" height="31.1811"/>
			<g id="shadow104-294" v:groupContext="shadow" v:shadowOffsetX="0.345598" v:shadowOffsetY="-1.97279" v:shadowType="1"
					transform="matrix(1,0,0,1,0.345598,1.97279)" class="st1">
				<rect x="0" y="397.547" width="62.3622" height="31.1811" class="st2"/>
			</g>
			<rect x="0" y="397.547" width="62.3622" height="31.1811" class="st15"/>
			<text x="27.39" y="416.14" class="st6" v:langID="1031"><v:paragraph v:horizAlign="1"/><v:tabList/>...</text>		</g>
		<g id="shape105-299" v:mID="105" v:groupContext="shape" transform="translate(596.15,-140.315)">
			<title>Rectangle.74</title>
			<desc>Provider Intent Set</desc>
			<v:userDefs>
				<v:ud v:nameU="visVersion" v:val="VT0(15):26"/>
			</v:userDefs>
			<v:textBlock v:margins="rect(4,4,4,4)" v:tabSpace="42.5197"/>
			<v:textRect cx="31.1811" cy="413.137" width="62.37" height="31.1811"/>
			<g id="shadow105-300" v:groupContext="shadow" v:shadowOffsetX="0.345598" v:shadowOffsetY="-1.97279" v:shadowType="1"
					transform="matrix(1,0,0,1,0.345598,1.97279)" class="st1">
				<rect x="0" y="397.547" width="62.3622" height="31.1811" class="st2"/>
			</g>
			<rect x="0" y="397.547" width="62.3622" height="31.1811" class="st15"/>
			<text x="13.95" y="410.14" class="st6" v:langID="1031"><v:paragraph v:horizAlign="1"/><v:tabList/>Provider <tspan
						x="11.24" dy="1.2em" class="st12">Intent Set</tspan></text>		</g>
		<g id="shape106-306" v:mID="106" v:groupContext="shape" transform="translate(526.701,-140.315)">
			<title>Rectangle.75</title>
			<desc>Provider NLU</desc>
			<v:userDefs>
				<v:ud v:nameU="visVersion" v:val="VT0(15):26"/>
			</v:userDefs>
			<v:textBlock v:margins="rect(4,4,4,4)" v:tabSpace="42.5197"/>
			<v:textRect cx="31.1811" cy="413.137" width="62.37" height="31.1811"/>
			<g id="shadow106-307" v:groupContext="shadow" v:shadowOffsetX="0.345598" v:shadowOffsetY="-1.97279" v:shadowType="1"
					transform="matrix(1,0,0,1,0.345598,1.97279)" class="st1">
				<rect x="0" y="397.547" width="62.3622" height="31.1811" class="st2"/>
			</g>
			<rect x="0" y="397.547" width="62.3622" height="31.1811" class="st15"/>
			<text x="4.29" y="416.14" class="st6" v:langID="1031"><v:paragraph v:horizAlign="1"/><v:tabList/>Provider NLU</text>		</g>
		<g id="shape107-312" v:mID="107" v:groupContext="shape" transform="translate(158.386,-343.843)">
			<title>Rectangle.107</title>
			<desc>History</desc>
			<v:userDefs>
				<v:ud v:nameU="visVersion" v:val="VT0(15):26"/>
			</v:userDefs>
			<v:textBlock v:margins="rect(4,4,4,4)" v:tabSpace="42.5197"/>
			<v:textRect cx="40.0394" cy="412.287" width="80.08" height="32.8819"/>
			<g id="shadow107-313" v:groupContext="shadow" v:shadowOffsetX="0.345598" v:shadowOffsetY="-1.97279" v:shadowType="1"
					transform="matrix(1,0,0,1,0.345598,1.97279)" class="st1">
				<rect x="0" y="395.846" width="80.0787" height="32.8819" class="st2"/>
			</g>
			<rect x="0" y="395.846" width="80.0787" height="32.8819" class="st13"/>
			<text x="25.5" y="415.29" class="st6" v:langID="1031"><v:paragraph v:horizAlign="1"/><v:tabList/>History</text>		</g>
	</g>
</svg>
