<?xml version="1.0" encoding="UTF-8" standalone="no"?>
<!DOCTYPE svg PUBLIC "-//W3C//DTD SVG 1.1//EN" "http://www.w3.org/Graphics/SVG/1.1/DTD/svg11.dtd">
<!-- Generated by Microsoft Visio, SVG Export ipaprovider-component.svg Page-1 -->
<svg xmlns="http://www.w3.org/2000/svg" xmlns:xlink="http://www.w3.org/1999/xlink" xmlns:ev="http://www.w3.org/2001/xml-events"
		width="4.63845in" height="1.28215in" viewBox="0 0 333.969 92.315" xml:space="preserve" color-interpolation-filters="sRGB"
		class="st8">
	<style type="text/css">
	<![CDATA[
		.st1 {visibility:visible}
		.st2 {fill:#5b9bd5;fill-opacity:0.22;filter:url(#filter_2);stroke:none}
		.st3 {fill:#d8d8d8;stroke:none;stroke-width:1}
		.st4 {fill:#000000;font-family:Calibri;font-size:0.833336em}
		.st5 {fill:#a5a5a5;stroke:none;stroke-width:0.25}
		.st6 {fill:#feffff;font-family:Calibri;font-size:0.833336em}
		.st7 {font-size:1em}
		.st8 {fill:none;fill-rule:evenodd;font-size:12px;overflow:visible;stroke-linecap:square;stroke-miterlimit:3}
	]]>
	</style>

	<defs id="Filters">
		<filter id="filter_2">
			<feGaussianBlur stdDeviation="2"/>
		</filter>
	</defs>
	<g>
		<title>Page-1</title>
		<g id="shape1-1" transform="translate(20.6544,-22.9728)">
			<title>Rectangle.36</title>
			<desc>IPA Provider n</desc>
			<g id="shadow1-2" transform="matrix(1,0,0,1,0.345598,1.97279)" class="st1">
				<rect x="0" y="42" width="291.969" height="50.315" class="st2"/>
			</g>
			<rect x="0" y="42" width="291.969" height="50.315" class="st3"/>
			<text x="230.27" y="55" class="st4">IPA Provider n</text>		</g>
		<g id="shape2-7" transform="translate(168.765,-30.7681)">
			<title>Rectangle.39</title>
			<desc>...</desc>
			<g id="shadow2-8" transform="matrix(1,0,0,1,0.345598,1.97279)" class="st1">
				<rect x="0" y="61.1339" width="62.3622" height="31.1811" class="st2"/>
			</g>
			<rect x="0" y="61.1339" width="62.3622" height="31.1811" class="st5"/>
			<text x="27.39" y="79.72" class="st6">...</text>		</g>
		<g id="shape3-13" transform="translate(99.3158,-30.7681)">
			<title>Rectangle.40</title>
			<desc>Provider Intent Set</desc>
			<g id="shadow3-14" transform="matrix(1,0,0,1,0.345598,1.97279)" class="st1">
				<rect x="0" y="61.1339" width="62.3622" height="31.1811" class="st2"/>
			</g>
			<rect x="0" y="61.1339" width="62.3622" height="31.1811" class="st5"/>
			<text x="13.95" y="73.72" class="st6">Provider <tspan x="11.24" dy="1.2em" class="st7">Intent Set</tspan></text>		</g>
		<g id="shape4-20" transform="translate(29.867,-30.7681)">
			<title>Rectangle.57</title>
			<desc>Provider NLU</desc>
			<g id="shadow4-21" transform="matrix(1,0,0,1,0.345598,1.97279)" class="st1">
				<rect x="0" y="61.1339" width="62.3622" height="31.1811" class="st2"/>
			</g>
			<rect x="0" y="61.1339" width="62.3622" height="31.1811" class="st5"/>
			<text x="4.29" y="79.72" class="st6">Provider NLU</text>		</g>
	</g>
</svg>
