<?xml version="1.0" encoding="UTF-8" standalone="no"?>
<!DOCTYPE svg PUBLIC "-//W3C//DTD SVG 1.1//EN" "http://www.w3.org/Graphics/SVG/1.1/DTD/svg11.dtd">
<!-- Generated by Microsoft Visio, SVG Export ipaproviders-component.svg Page-1 -->
<svg xmlns="http://www.w3.org/2000/svg" xmlns:xlink="http://www.w3.org/1999/xlink" xmlns:ev="http://www.w3.org/2001/xml-events"
		width="4.80065in" height="2.32743in" viewBox="0 0 345.647 167.575" xml:space="preserve" color-interpolation-filters="sRGB"
		class="st10">
	<style type="text/css">
	<![CDATA[
		.st1 {visibility:visible}
		.st2 {fill:#5b9bd5;fill-opacity:0.22;filter:url(#filter_2);stroke:none}
		.st3 {fill:#d8d8d8;stroke:none;stroke-width:1}
		.st4 {fill:#000000;font-family:Calibri;font-size:0.833336em}
		.st5 {fill:#bfbfbf;stroke:none;stroke-width:1}
		.st6 {fill:#a5a5a5;stroke:none;stroke-width:0.25}
		.st7 {fill:#feffff;font-family:Calibri;font-size:0.833336em}
		.st8 {font-size:1em}
		.st9 {fill:#7f7f7f;stroke:none;stroke-width:0.25}
		.st10 {fill:none;fill-rule:evenodd;font-size:12px;overflow:visible;stroke-linecap:square;stroke-miterlimit:3}
	]]>
	</style>

	<defs id="Filters">
		<filter id="filter_2">
			<feGaussianBlur stdDeviation="2"/>
		</filter>
	</defs>
	<g>
		<title>Page-1</title>
		<g id="shape1-1" transform="translate(2.6544,-4.9728)">
			<title>Rectangle.1</title>
			<desc>IPA Providers</desc>
			<g id="shadow1-2" transform="matrix(1,0,0,1,0.345598,1.97279)" class="st1">
				<rect x="0" y="5.99999" width="339.647" height="161.575" class="st2"/>
			</g>
			<rect x="0" y="5.99999" width="339.647" height="161.575" class="st3"/>
			<text x="281.55" y="19" class="st4">IPA Providers</text>		</g>
		<g id="shape2-7" transform="translate(14.356,-11.0204)">
			<title>Rectangle.36</title>
			<desc>IPA Provider n</desc>
			<g id="shadow2-8" transform="matrix(1,0,0,1,0.345598,1.97279)" class="st1">
				<rect x="0" y="108.756" width="298.89" height="58.8189" class="st2"/>
			</g>
			<rect x="0" y="108.756" width="298.89" height="58.8189" class="st5"/>
			<text x="237.19" y="121.76" class="st4">IPA Provider n</text>		</g>
		<g id="shape3-13" transform="translate(233.167,-20.0201)">
			<title>Rectangle.39</title>
			<desc>...</desc>
			<g id="shadow3-14" transform="matrix(1,0,0,1,0.345598,1.97279)" class="st1">
				<rect x="0" y="136.394" width="62.3622" height="31.1811" class="st2"/>
			</g>
			<rect x="0" y="136.394" width="62.3622" height="31.1811" class="st6"/>
			<text x="27.39" y="154.98" class="st7">...</text>		</g>
		<g id="shape4-19" transform="translate(163.718,-20.0201)">
			<title>Rectangle.40</title>
			<desc>Provider Intent Set</desc>
			<g id="shadow4-20" transform="matrix(1,0,0,1,0.345598,1.97279)" class="st1">
				<rect x="0" y="136.394" width="62.3622" height="31.1811" class="st2"/>
			</g>
			<rect x="0" y="136.394" width="62.3622" height="31.1811" class="st6"/>
			<text x="13.95" y="148.98" class="st7">Provider <tspan x="11.24" dy="1.2em" class="st8">Intent Set</tspan></text>		</g>
		<g id="shape5-26" transform="translate(94.4348,-73.3826)">
			<title>Circle</title>
			<g id="shadow5-27" transform="matrix(1,0,0,1,0.345598,1.97279)" class="st1">
				<path d="M0 163.32 A4.25197 4.25197 0 0 1 8.5 163.32 A4.25197 4.25197 0 1 1 0 163.32 Z" class="st2"/>
			</g>
			<path d="M0 163.32 A4.25197 4.25197 0 0 1 8.5 163.32 A4.25197 4.25197 0 1 1 0 163.32 Z" class="st9"/>
		</g>
		<g id="shape6-31" transform="translate(111.443,-73.3826)">
			<title>Circle.42</title>
			<g id="shadow6-32" transform="matrix(1,0,0,1,0.345598,1.97279)" class="st1">
				<path d="M0 163.32 A4.25197 4.25197 0 0 1 8.5 163.32 A4.25197 4.25197 0 1 1 0 163.32 Z" class="st2"/>
			</g>
			<path d="M0 163.32 A4.25197 4.25197 0 0 1 8.5 163.32 A4.25197 4.25197 0 1 1 0 163.32 Z" class="st9"/>
		</g>
		<g id="shape7-36" transform="translate(128.451,-73.3826)">
			<title>Circle.43</title>
			<g id="shadow7-37" transform="matrix(1,0,0,1,0.345598,1.97279)" class="st1">
				<path d="M0 163.32 A4.25197 4.25197 0 0 1 8.5 163.32 A4.25197 4.25197 0 1 1 0 163.32 Z" class="st2"/>
			</g>
			<path d="M0 163.32 A4.25197 4.25197 0 0 1 8.5 163.32 A4.25197 4.25197 0 1 1 0 163.32 Z" class="st9"/>
		</g>
		<g id="shape8-41" transform="translate(94.2694,-20.0201)">
			<title>Rectangle.57</title>
			<desc>Provider NLU</desc>
			<g id="shadow8-42" transform="matrix(1,0,0,1,0.345598,1.97279)" class="st1">
				<rect x="0" y="136.394" width="62.3622" height="31.1811" class="st2"/>
			</g>
			<rect x="0" y="136.394" width="62.3622" height="31.1811" class="st6"/>
			<text x="4.29" y="154.98" class="st7">Provider NLU</text>		</g>
		<g id="shape9-47" transform="translate(15.0647,-86.4928)">
			<title>Rectangle.103</title>
			<desc>IPA Provider 1</desc>
			<g id="shadow9-48" transform="matrix(1,0,0,1,0.345598,1.97279)" class="st1">
				<rect x="0" y="108.756" width="298.89" height="58.8189" class="st2"/>
			</g>
			<rect x="0" y="108.756" width="298.89" height="58.8189" class="st5"/>
			<text x="237.38" y="121.76" class="st4">IPA Provider 1</text>		</g>
		<g id="shape10-53" transform="translate(231.75,-95.1382)">
			<title>Rectangle.73</title>
			<desc>...</desc>
			<g id="shadow10-54" transform="matrix(1,0,0,1,0.345598,1.97279)" class="st1">
				<rect x="0" y="136.394" width="62.3622" height="31.1811" class="st2"/>
			</g>
			<rect x="0" y="136.394" width="62.3622" height="31.1811" class="st6"/>
			<text x="27.39" y="154.98" class="st7">...</text>		</g>
		<g id="shape11-59" transform="translate(162.301,-95.1382)">
			<title>Rectangle.74</title>
			<desc>Provider Intent Set</desc>
			<g id="shadow11-60" transform="matrix(1,0,0,1,0.345598,1.97279)" class="st1">
				<rect x="0" y="136.394" width="62.3622" height="31.1811" class="st2"/>
			</g>
			<rect x="0" y="136.394" width="62.3622" height="31.1811" class="st6"/>
			<text x="13.95" y="148.98" class="st7">Provider <tspan x="11.24" dy="1.2em" class="st8">Intent Set</tspan></text>		</g>
		<g id="shape12-66" transform="translate(92.8521,-95.1382)">
			<title>Rectangle.75</title>
			<desc>Provider NLU</desc>
			<g id="shadow12-67" transform="matrix(1,0,0,1,0.345598,1.97279)" class="st1">
				<rect x="0" y="136.394" width="62.3622" height="31.1811" class="st2"/>
			</g>
			<rect x="0" y="136.394" width="62.3622" height="31.1811" class="st6"/>
			<text x="4.29" y="154.98" class="st7">Provider NLU</text>		</g>
		<g id="shape13-72" transform="translate(23.5686,-95.1382)">
			<title>Rectangle.112</title>
			<desc>Provider ASR</desc>
			<g id="shadow13-73" transform="matrix(1,0,0,1,0.345598,1.97279)" class="st1">
				<rect x="0" y="136.394" width="62.3622" height="31.1811" class="st2"/>
			</g>
			<rect x="0" y="136.394" width="62.3622" height="31.1811" class="st6"/>
			<text x="4.92" y="154.98" class="st7">Provider ASR</text>		</g>
		<g id="shape14-78" transform="translate(25.4528,-20.0201)">
			<title>Rectangle.113</title>
			<desc>Provider ASR</desc>
			<g id="shadow14-79" transform="matrix(1,0,0,1,0.345598,1.97279)" class="st1">
				<rect x="0" y="136.394" width="62.3622" height="31.1811" class="st2"/>
			</g>
			<rect x="0" y="136.394" width="62.3622" height="31.1811" class="st6"/>
			<text x="4.92" y="154.98" class="st7">Provider ASR</text>		</g>
	</g>
</svg>
