<?xml version="1.0" encoding="UTF-8" standalone="no"?>
<!DOCTYPE svg PUBLIC "-//W3C//DTD SVG 1.1//EN" "http://www.w3.org/Graphics/SVG/1.1/DTD/svg11.dtd">
<!-- Generated by Microsoft Visio, SVG Export ipaproviders-component.svg Page-1 -->
<svg xmlns="http://www.w3.org/2000/svg" xmlns:xlink="http://www.w3.org/1999/xlink" xmlns:ev="http://www.w3.org/2001/xml-events"
		xmlns:v="http://schemas.microsoft.com/visio/2003/SVGExtensions/" width="4.0479in" height="2.82743in"
		viewBox="0 0 291.449 203.575" xml:space="preserve" color-interpolation-filters="sRGB" class="st10">
	<v:documentProperties v:langID="1033" v:metric="true" v:viewMarkup="false">
		<v:userDefs>
			<v:ud v:nameU="msvSubprocessMaster" v:prompt="" v:val="VT4(Rectangle)"/>
			<v:ud v:nameU="msvNoAutoConnect" v:val="VT0(1):26"/>
		</v:userDefs>
	</v:documentProperties>

	<style type="text/css">
	<![CDATA[
		.st1 {visibility:visible}
		.st2 {fill:#5b9bd5;fill-opacity:0.22;filter:url(#filter_2);stroke:none}
		.st3 {fill:#d8d8d8;stroke:none;stroke-width:1}
		.st4 {fill:#000000;font-family:Calibri;font-size:0.833336em}
		.st5 {fill:#bfbfbf;stroke:none;stroke-width:1}
		.st6 {fill:#a5a5a5;stroke:none;stroke-width:0.25}
		.st7 {fill:#feffff;font-family:Calibri;font-size:0.833336em}
		.st8 {font-size:1em}
		.st9 {fill:#7f7f7f;stroke:none;stroke-width:0.25}
		.st10 {fill:none;fill-rule:evenodd;font-size:12px;overflow:visible;stroke-linecap:square;stroke-miterlimit:3}
	]]>
	</style>

	<defs id="Filters">
		<filter id="filter_2">
			<feGaussianBlur stdDeviation="2"/>
		</filter>
	</defs>
	<g v:mID="0" v:index="1" v:groupContext="foregroundPage">
		<v:userDefs>
			<v:ud v:nameU="msvThemeOrder" v:val="VT0(0):26"/>
		</v:userDefs>
		<title>Page-1</title>
		<v:pageProperties v:drawingScale="0.0393701" v:pageScale="0.0393701" v:drawingUnits="24" v:shadowOffsetX="8.50394"
				v:shadowOffsetY="-8.50394"/>
		<g id="shape12-1" v:mID="12" v:groupContext="shape" transform="translate(20.6544,-22.9728)">
			<title>Rectangle.12</title>
			<desc>IPA Providers</desc>
			<v:userDefs>
				<v:ud v:nameU="visVersion" v:val="VT0(15):26"/>
			</v:userDefs>
			<v:textBlock v:margins="rect(4,4,4,4)" v:tabSpace="42.5197" v:verticalAlign="0"/>
			<v:textRect cx="124.724" cy="122.787" width="249.45" height="161.575"/>
			<g id="shadow12-2" v:groupContext="shadow" v:shadowOffsetX="0.345598" v:shadowOffsetY="-1.97279" v:shadowType="1"
					transform="matrix(1,0,0,1,0.345598,1.97279)" class="st1">
				<rect x="0" y="42" width="249.449" height="161.575" class="st2"/>
			</g>
			<rect x="0" y="42" width="249.449" height="161.575" class="st3"/>
			<text x="191.35" y="55" class="st4" v:langID="1031"><v:paragraph v:horizAlign="2"/><v:tabList/>IPA Providers</text>		</g>
		<g id="shape1-7" v:mID="1" v:groupContext="shape" transform="translate(32.3561,-29.0204)">
			<title>Rectangle.36</title>
			<desc>IPA Provider n</desc>
			<v:userDefs>
				<v:ud v:nameU="visVersion" v:val="VT0(15):26"/>
			</v:userDefs>
			<v:textBlock v:margins="rect(4,4,4,4)" v:tabSpace="42.5197" v:verticalAlign="0"/>
			<v:textRect cx="110.551" cy="174.165" width="221.11" height="58.8189"/>
			<g id="shadow1-8" v:groupContext="shadow" v:shadowOffsetX="0.345598" v:shadowOffsetY="-1.97279" v:shadowType="1"
					transform="matrix(1,0,0,1,0.345598,1.97279)" class="st1">
				<rect x="0" y="144.756" width="221.102" height="58.8189" class="st2"/>
			</g>
			<rect x="0" y="144.756" width="221.102" height="58.8189" class="st5"/>
			<text x="159.4" y="157.76" class="st4" v:langID="1031"><v:paragraph v:horizAlign="2"/><v:tabList/>IPA Provider n</text>		</g>
		<g id="shape2-13" v:mID="2" v:groupContext="shape" transform="translate(180.466,-36.8157)">
			<title>Rectangle.39</title>
			<desc>...</desc>
			<v:userDefs>
				<v:ud v:nameU="visVersion" v:val="VT0(15):26"/>
			</v:userDefs>
			<v:textBlock v:margins="rect(4,4,4,4)" v:tabSpace="42.5197"/>
			<v:textRect cx="31.1811" cy="187.984" width="62.37" height="31.1811"/>
			<g id="shadow2-14" v:groupContext="shadow" v:shadowOffsetX="0.345598" v:shadowOffsetY="-1.97279" v:shadowType="1"
					transform="matrix(1,0,0,1,0.345598,1.97279)" class="st1">
				<rect x="0" y="172.394" width="62.3622" height="31.1811" class="st2"/>
			</g>
			<rect x="0" y="172.394" width="62.3622" height="31.1811" class="st6"/>
			<text x="27.39" y="190.98" class="st7" v:langID="1031"><v:paragraph v:horizAlign="1"/><v:tabList/>...</text>		</g>
		<g id="shape3-19" v:mID="3" v:groupContext="shape" transform="translate(111.017,-36.8157)">
			<title>Rectangle.40</title>
			<desc>Provider Intent Set</desc>
			<v:userDefs>
				<v:ud v:nameU="visVersion" v:val="VT0(15):26"/>
			</v:userDefs>
			<v:textBlock v:margins="rect(4,4,4,4)" v:tabSpace="42.5197"/>
			<v:textRect cx="31.1811" cy="187.984" width="62.37" height="31.1811"/>
			<g id="shadow3-20" v:groupContext="shadow" v:shadowOffsetX="0.345598" v:shadowOffsetY="-1.97279" v:shadowType="1"
					transform="matrix(1,0,0,1,0.345598,1.97279)" class="st1">
				<rect x="0" y="172.394" width="62.3622" height="31.1811" class="st2"/>
			</g>
			<rect x="0" y="172.394" width="62.3622" height="31.1811" class="st6"/>
			<text x="13.95" y="184.98" class="st7" v:langID="1031"><v:paragraph v:horizAlign="1"/><v:tabList/>Provider <tspan
						x="11.24" dy="1.2em" class="st8">Intent Set</tspan></text>		</g>
		<g id="shape4-26" v:mID="4" v:groupContext="shape" transform="translate(112.435,-91.3826)">
			<title>Circle</title>
			<v:userDefs>
				<v:ud v:nameU="visVersion" v:val="VT0(15):26"/>
			</v:userDefs>
			<g id="shadow4-27" v:groupContext="shadow" v:shadowOffsetX="0.345598" v:shadowOffsetY="-1.97279" v:shadowType="1"
					transform="matrix(1,0,0,1,0.345598,1.97279)" class="st1">
				<path d="M0 199.32 A4.25197 4.25197 0 0 1 8.5 199.32 A4.25197 4.25197 0 1 1 0 199.32 Z" class="st2"/>
			</g>
			<path d="M0 199.32 A4.25197 4.25197 0 0 1 8.5 199.32 A4.25197 4.25197 0 1 1 0 199.32 Z" class="st9"/>
		</g>
		<g id="shape5-31" v:mID="5" v:groupContext="shape" transform="translate(129.443,-91.3826)">
			<title>Circle.42</title>
			<v:userDefs>
				<v:ud v:nameU="visVersion" v:val="VT0(15):26"/>
			</v:userDefs>
			<g id="shadow5-32" v:groupContext="shadow" v:shadowOffsetX="0.345598" v:shadowOffsetY="-1.97279" v:shadowType="1"
					transform="matrix(1,0,0,1,0.345598,1.97279)" class="st1">
				<path d="M0 199.32 A4.25197 4.25197 0 0 1 8.5 199.32 A4.25197 4.25197 0 1 1 0 199.32 Z" class="st2"/>
			</g>
			<path d="M0 199.32 A4.25197 4.25197 0 0 1 8.5 199.32 A4.25197 4.25197 0 1 1 0 199.32 Z" class="st9"/>
		</g>
		<g id="shape6-36" v:mID="6" v:groupContext="shape" transform="translate(146.451,-91.3826)">
			<title>Circle.43</title>
			<v:userDefs>
				<v:ud v:nameU="visVersion" v:val="VT0(15):26"/>
			</v:userDefs>
			<g id="shadow6-37" v:groupContext="shadow" v:shadowOffsetX="0.345598" v:shadowOffsetY="-1.97279" v:shadowType="1"
					transform="matrix(1,0,0,1,0.345598,1.97279)" class="st1">
				<path d="M0 199.32 A4.25197 4.25197 0 0 1 8.5 199.32 A4.25197 4.25197 0 1 1 0 199.32 Z" class="st2"/>
			</g>
			<path d="M0 199.32 A4.25197 4.25197 0 0 1 8.5 199.32 A4.25197 4.25197 0 1 1 0 199.32 Z" class="st9"/>
		</g>
		<g id="shape7-41" v:mID="7" v:groupContext="shape" transform="translate(41.5687,-36.8157)">
			<title>Rectangle.57</title>
			<desc>Provider NLU</desc>
			<v:userDefs>
				<v:ud v:nameU="visVersion" v:val="VT0(15):26"/>
			</v:userDefs>
			<v:textBlock v:margins="rect(4,4,4,4)" v:tabSpace="42.5197"/>
			<v:textRect cx="31.1811" cy="187.984" width="62.37" height="31.1811"/>
			<g id="shadow7-42" v:groupContext="shadow" v:shadowOffsetX="0.345598" v:shadowOffsetY="-1.97279" v:shadowType="1"
					transform="matrix(1,0,0,1,0.345598,1.97279)" class="st1">
				<rect x="0" y="172.394" width="62.3622" height="31.1811" class="st2"/>
			</g>
			<rect x="0" y="172.394" width="62.3622" height="31.1811" class="st6"/>
			<text x="4.29" y="190.98" class="st7" v:langID="1031"><v:paragraph v:horizAlign="1"/><v:tabList/>Provider NLU</text>		</g>
		<g id="shape8-47" v:mID="8" v:groupContext="shape" transform="translate(33.0647,-104.493)">
			<title>Rectangle.72</title>
			<desc>IPA Provider 1</desc>
			<v:userDefs>
				<v:ud v:nameU="visVersion" v:val="VT0(15):26"/>
			</v:userDefs>
			<v:textBlock v:margins="rect(4,4,4,4)" v:tabSpace="42.5197" v:verticalAlign="0"/>
			<v:textRect cx="110.551" cy="174.165" width="221.11" height="58.8189"/>
			<g id="shadow8-48" v:groupContext="shadow" v:shadowOffsetX="0.345598" v:shadowOffsetY="-1.97279" v:shadowType="1"
					transform="matrix(1,0,0,1,0.345598,1.97279)" class="st1">
				<rect x="0" y="144.756" width="221.102" height="58.8189" class="st2"/>
			</g>
			<rect x="0" y="144.756" width="221.102" height="58.8189" class="st5"/>
			<text x="159.59" y="157.76" class="st4" v:langID="1031"><v:paragraph v:horizAlign="2"/><v:tabList/>IPA Provider 1</text>		</g>
		<g id="shape9-53" v:mID="9" v:groupContext="shape" transform="translate(181.175,-112.288)">
			<title>Rectangle.73</title>
			<desc>...</desc>
			<v:userDefs>
				<v:ud v:nameU="visVersion" v:val="VT0(15):26"/>
			</v:userDefs>
			<v:textBlock v:margins="rect(4,4,4,4)" v:tabSpace="42.5197"/>
			<v:textRect cx="31.1811" cy="187.984" width="62.37" height="31.1811"/>
			<g id="shadow9-54" v:groupContext="shadow" v:shadowOffsetX="0.345598" v:shadowOffsetY="-1.97279" v:shadowType="1"
					transform="matrix(1,0,0,1,0.345598,1.97279)" class="st1">
				<rect x="0" y="172.394" width="62.3622" height="31.1811" class="st2"/>
			</g>
			<rect x="0" y="172.394" width="62.3622" height="31.1811" class="st6"/>
			<text x="27.39" y="190.98" class="st7" v:langID="1031"><v:paragraph v:horizAlign="1"/><v:tabList/>...</text>		</g>
		<g id="shape10-59" v:mID="10" v:groupContext="shape" transform="translate(111.726,-112.288)">
			<title>Rectangle.74</title>
			<desc>Provider Intent Set</desc>
			<v:userDefs>
				<v:ud v:nameU="visVersion" v:val="VT0(15):26"/>
			</v:userDefs>
			<v:textBlock v:margins="rect(4,4,4,4)" v:tabSpace="42.5197"/>
			<v:textRect cx="31.1811" cy="187.984" width="62.37" height="31.1811"/>
			<g id="shadow10-60" v:groupContext="shadow" v:shadowOffsetX="0.345598" v:shadowOffsetY="-1.97279" v:shadowType="1"
					transform="matrix(1,0,0,1,0.345598,1.97279)" class="st1">
				<rect x="0" y="172.394" width="62.3622" height="31.1811" class="st2"/>
			</g>
			<rect x="0" y="172.394" width="62.3622" height="31.1811" class="st6"/>
			<text x="13.95" y="184.98" class="st7" v:langID="1031"><v:paragraph v:horizAlign="1"/><v:tabList/>Provider <tspan
						x="11.24" dy="1.2em" class="st8">Intent Set</tspan></text>		</g>
		<g id="shape11-66" v:mID="11" v:groupContext="shape" transform="translate(42.2773,-112.288)">
			<title>Rectangle.75</title>
			<desc>Provider NLU</desc>
			<v:userDefs>
				<v:ud v:nameU="visVersion" v:val="VT0(15):26"/>
			</v:userDefs>
			<v:textBlock v:margins="rect(4,4,4,4)" v:tabSpace="42.5197"/>
			<v:textRect cx="31.1811" cy="187.984" width="62.37" height="31.1811"/>
			<g id="shadow11-67" v:groupContext="shadow" v:shadowOffsetX="0.345598" v:shadowOffsetY="-1.97279" v:shadowType="1"
					transform="matrix(1,0,0,1,0.345598,1.97279)" class="st1">
				<rect x="0" y="172.394" width="62.3622" height="31.1811" class="st2"/>
			</g>
			<rect x="0" y="172.394" width="62.3622" height="31.1811" class="st6"/>
			<text x="4.29" y="190.98" class="st7" v:langID="1031"><v:paragraph v:horizAlign="1"/><v:tabList/>Provider NLU</text>		</g>
	</g>
</svg>
