<?xml version="1.0" encoding="utf-8"?><svg version="1.1" preserveAspectRatio="xMidYMid" xml:space="preserve" width="497.77613999999994pt" height="373.58617999999995pt" viewBox="75.09896 12.34392 497.77613999999994 373.58617999999995" xmlns="http://www.w3.org/2000/svg" xmlns:xlink="http://www.w3.org/1999/xlink"><g transform="matrix(1 0 0 -1 0 541)"><g stroke="#000000" fill="none" fill-rule="evenodd" stroke-width="1" stroke-linecap="round" stroke-linejoin="round" stroke-miterlimit="3" letter-spacing="normal" font-weight="normal" font-style="normal" baseline-shift="0"><g transform="matrix(0.75 0 0 0.75 0 541.400024)"><g transform="matrix(1.319031 0 0 -1.317076 0 0)" font-family="CalibriUnicode" font-size="10"><rect fill="#D0D0D0" stroke="none" x="145" y="89" width="15" height="15" /><rect stroke="none" fill="#DAEAFC" x="142" y="86" width="14" height="14" /><rect stroke="#9A8484" x="142" y="86" width="14" height="15" /><rect stroke="#9A8484" x="142" y="86" width="14" height="14" /><rect fill="#D0D0D0" stroke="none" x="145" y="181" width="15" height="15" /><rect stroke="none" fill="#DAEAFC" x="142" y="178" width="14" height="14" /><rect stroke="#9A8484" x="142" y="178" width="14" height="15" /><rect stroke="#9A8484" x="142" y="178" width="14" height="14" /><rect fill="#D0D0D0" stroke="none" x="145" y="239" width="15" height="15" /><rect stroke="none" fill="#DAEAFC" x="142" y="236" width="14" height="14" /><rect stroke="#9A8484" x="142" y="236" width="14" height="15" /><rect stroke="#9A8484" x="142" y="236" width="14" height="14" /><rect fill="#D0D0D0" stroke="none" x="152" y="24" width="419" height="359" /><rect stroke="none" fill="#F9EAEA" x="149" y="21" width="418" height="358" /><rect stroke="#9A8484" x="149" y="21" width="418" height="359" /><rect stroke="#9A8484" x="149" y="21" width="418" height="358" /><text transform="matrix(1 0 0 1 325 30)" fill="#595959" font-weight="bold" stroke="none"><tspan dx="0 " x="0" y="10">APIs / Data</tspan></text><path stroke="#9A8484" d="M149 48H567" /><rect stroke="none" fill="#F9EAEA" x="552" y="26" width="10" height="16" /><rect stroke="#9A8484" x="552" y="26" width="10" height="17" /><rect stroke="none" fill="#F9EAEA" x="549" y="28" width="6" height="4" /><rect stroke="#9A8484" x="549" y="28" width="6" height="5" /><rect stroke="none" fill="#F9EAEA" x="549" y="35" width="6" height="4" /><rect stroke="#9A8484" x="549" y="35" width="6" height="5" /><rect stroke="none" fill="#DAEAFC" x="142" y="86" width="14" height="14" /><rect stroke="#9A8484" x="142" y="86" width="14" height="15" /><rect stroke="#9A8484" x="142" y="86" width="14" height="14" /><rect stroke="none" fill="#DAEAFC" x="142" y="178" width="14" height="14" /><rect stroke="#9A8484" x="142" y="178" width="14" height="15" /><rect stroke="#9A8484" x="142" y="178" width="14" height="14" /><rect stroke="none" fill="#DAEAFC" x="142" y="236" width="14" height="14" /><rect stroke="#9A8484" x="142" y="236" width="14" height="15" /><rect stroke="#9A8484" x="142" y="236" width="14" height="14" /><path stroke="#9A8484" d="M142 92H116m-7 6C109 98 109 98 109 98C112.31 98 115 95.31 115 92C115 88.71 112.29 86 109 86" /><text transform="matrix(1 0 0 1 95 102)" fill="#595959" stroke="none"><tspan dx="0 " x="0" y="10">Client Input</tspan></text><path stroke="#9A8484" d="M142 184H116" /><path stroke="none" fill="#F1ECFA" d="M103 184C103 180.69 105.69 178 109 178C112.31 178 115 180.69 115 184C115 187.31 112.31 190 109 190C105.69 190 103 187.31 103 184" /><path stroke="#9A8484" d="M103 184C103 180.69 105.69 178 109 178C112.31 178 115 180.69 115 184C115 187.31 112.31 190 109 190C105.69 190 103 187.31 103 184M103 184C103 180.69 105.69 178 109 178C112.31 178 115 180.69 115 184C115 187.31 112.31 190 109 190C105.69 190 103 187.31 103 184" /><text transform="matrix(1 0 0 1 92 194)" fill="#595959" stroke="none"><tspan dx="0 " x="0" y="10">S</tspan><tspan dx="0 " x="5" y="10">e</tspan><tspan dx="0 " x="10.33333" y="10">m</tspan><tspan dx="0 " x="18.66667" y="10">a</tspan><tspan dx="0 " x="23.33333" y="10">n</tspan><tspan dx="0 0 " x="29" y="10">ti</tspan><tspan dx="0 " x="34.66667" y="10">c</tspan></text><text transform="matrix(1 0 0 1 84 207)" fill="#595959" stroke="none"><tspan dx="0 " x="0" y="10">I</tspan><tspan dx="0 " x="2.666667" y="10">n</tspan><tspan dx="0 " x="7.666667" y="10">t</tspan><tspan dx="0 " x="11" y="10">e</tspan><tspan dx="0 " x="15.66667" y="10">r</tspan><tspan dx="0 " x="19.33333" y="10">p</tspan><tspan dx="0 " x="24.33333" y="10">r</tspan><tspan dx="0 " x="28" y="10">e</tspan><tspan dx="0 " x="32.66667" y="10">t</tspan><tspan dx="0 " x="36" y="10">a</tspan><tspan dx="0 0 " x="40.66667" y="10">ti</tspan><tspan dx="0 " x="46.33334" y="10">o</tspan><tspan dx="0 " x="51.66667" y="10">n</tspan></text><path stroke="#9A8484" d="M142 242H116m-7 6C109 248 109 248 109 248C112.31 248 115 245.31 115 242C115 238.71 112.29 236 109 236" /><text transform="matrix(1 0 0 1 95 252)" fill="#595959" stroke="none"><tspan dx="0 " x="0" y="10">Service Call</tspan></text><rect stroke="none" fill="#F9EAEA" x="247" y="64" width="109" height="300" /><rect stroke="#9A8484" x="247" y="64" width="109" height="301" /><text transform="matrix(1 0 0 1 254 73)" fill="#595959" font-weight="bold" stroke="none"><tspan dx="0 " x="0" y="10">P</tspan><tspan dx="0 " x="5.5" y="10">r</tspan><tspan dx="0 " x="9" y="10">o</tspan><tspan dx="0 " x="14.5" y="10">v</tspan><tspan dx="0 " x="19" y="10">i</tspan><tspan dx="0 " x="21.5" y="10">d</tspan><tspan dx="0 " x="27" y="10">e</tspan><tspan dx="0 " x="32" y="10">r</tspan><tspan dx="0 " x="35.5" y="10"> </tspan><tspan dx="0 " x="38" y="10">S</tspan><tspan dx="0 " x="42.5" y="10">e</tspan><tspan dx="0 " x="47.5" y="10">l</tspan><tspan dx="0 " x="50" y="10">e</tspan><tspan dx="0 " x="55" y="10">c</tspan><tspan dx="0 0 " x="59" y="10">ti</tspan><tspan dx="0 " x="65" y="10">o</tspan><tspan dx="0 " x="70.5" y="10">n</tspan></text><text transform="matrix(1 0 0 1 276 86)" fill="#595959" font-weight="bold" stroke="none"><tspan dx="0 " x="0" y="10">Service</tspan></text><rect stroke="none" fill="#F9EAEA" x="341" y="69" width="10" height="16" /><rect stroke="#9A8484" x="341" y="69" width="10" height="17" /><rect stroke="none" fill="#F9EAEA" x="338" y="71" width="6" height="4" /><rect stroke="#9A8484" x="338" y="71" width="6" height="5" /><rect stroke="none" fill="#F9EAEA" x="338" y="78" width="6" height="4" /><rect stroke="#9A8484" x="338" y="78" width="6" height="5" /><rect stroke="none" fill="#DAEAFC" x="240" y="179" width="14" height="14" /><rect stroke="#9A8484" x="240" y="179" width="14" height="15" /><rect stroke="none" fill="#DAEAFC" x="350" y="87" width="14" height="14" /><rect stroke="#9A8484" x="350" y="87" width="14" height="15" /><rect stroke="none" fill="#DAEAFC" x="350" y="178" width="14" height="14" /><rect stroke="#9A8484" x="350" y="178" width="14" height="15" /><rect stroke="none" fill="#DAEAFC" x="240" y="87" width="14" height="14" /><rect stroke="#9A8484" x="240" y="87" width="14" height="15" /><rect stroke="none" fill="#DAEAFC" x="350" y="336" width="14" height="14" /><rect stroke="#9A8484" x="350" y="336" width="14" height="15" /><rect stroke="none" fill="#DAEAFC" x="350" y="237" width="14" height="14" /><rect stroke="#9A8484" x="350" y="237" width="14" height="15" /><rect stroke="none" fill="#DAEAFC" x="240" y="237" width="14" height="14" /><rect stroke="#9A8484" x="240" y="237" width="14" height="15" /><path stroke="#9A8484" d="M240 185H214" /><path stroke="none" fill="#F1ECFA" d="M201 185C201 181.69 203.69 179 207 179C210.31 179 213 181.69 213 185C213 188.31 210.31 191 207 191C203.69 191 201 188.31 201 185" /><path stroke="#9A8484" d="M201 185C201 181.69 203.69 179 207 179C210.31 179 213 181.69 213 185C213 188.31 210.31 191 207 191C203.69 191 201 188.31 201 185M201 185C201 181.69 203.69 179 207 179C210.31 179 213 181.69 213 185C213 188.31 210.31 191 207 191C203.69 191 201 188.31 201 185" /><text transform="matrix(1 0 0 1 143 195)" fill="#595959" stroke="none"><tspan dx="0 " x="0" y="10">S</tspan><tspan dx="0 " x="4.333333" y="10">e</tspan><tspan dx="0 " x="9.333333" y="10">m</tspan><tspan dx="0 " x="17.33333" y="10">a</tspan><tspan dx="0 " x="22" y="10">n</tspan><tspan dx="0 0 " x="27.33333" y="10">ti</tspan><tspan dx="0 " x="33" y="10">c</tspan><tspan dx="0 " x="37.33333" y="10"> </tspan><tspan dx="0 " x="39.66666" y="10">I</tspan><tspan dx="0 " x="42.33333" y="10">n</tspan><tspan dx="0 " x="47.66666" y="10">t</tspan><tspan dx="0 " x="51" y="10">e</tspan><tspan dx="0 " x="56" y="10">r</tspan><tspan dx="0 " x="59.66666" y="10">p</tspan><tspan dx="0 " x="65" y="10">r</tspan><tspan dx="0 " x="68.66666" y="10">e</tspan><tspan dx="0 " x="73.66666" y="10">t</tspan><tspan dx="0 " x="77" y="10">a</tspan><tspan dx="0 0 " x="81.66666" y="10">ti</tspan><tspan dx="0 " x="87.33333" y="10">o</tspan><tspan dx="0 " x="92.66666" y="10">n</tspan></text><path stroke="#9A8484" d="M240 93H214m-7 6C207 99 207 99 207 99C210.31 99 213 96.31 213 93C213 89.71 210.29 87 207 87" /><text transform="matrix(1 0 0 1 193 103)" fill="#595959" stroke="none"><tspan dx="0 " x="0" y="10">Client Input</tspan></text><path stroke="#9A8484" d="M240 243H214m-7 6C207 249 207 249 207 249C210.31 249 213 246.31 213 243C213 239.71 210.29 237 207 237" /><text transform="matrix(1 0 0 1 161 253)" fill="#595959" stroke="none"><tspan dx="0 " x="0" y="10">Service Call</tspan></text><rect stroke="none" fill="#F9EAEA" x="417" y="62" width="109" height="59" /><rect stroke="#9A8484" x="417" y="62" width="109" height="60" /><text transform="matrix(1 0 0 1 433 71)" fill="#595959" font-weight="bold" stroke="none"><tspan dx="0 " x="0" y="10">IPA Providers</tspan></text><rect stroke="none" fill="#F9EAEA" x="511" y="67" width="10" height="16" /><rect stroke="#9A8484" x="511" y="67" width="10" height="17" /><rect stroke="none" fill="#F9EAEA" x="508" y="69" width="6" height="4" /><rect stroke="#9A8484" x="508" y="69" width="6" height="5" /><rect stroke="none" fill="#F9EAEA" x="508" y="76" width="6" height="4" /><rect stroke="#9A8484" x="508" y="76" width="6" height="5" /><rect stroke="none" fill="#DAEAFC" x="411" y="87" width="14" height="14" /><rect stroke="#9A8484" x="411" y="87" width="14" height="15" /><rect stroke="none" fill="#DAEAFC" x="436" y="115" width="14" height="14" /><rect stroke="#9A8484" x="436" y="115" width="14" height="15" /><rect stroke="none" fill="#F9EAEA" x="417" y="305" width="109" height="59" /><rect stroke="#9A8484" x="417" y="305" width="109" height="60" /><text transform="matrix(1 0 0 1 430 314)" fill="#595959" font-weight="bold" stroke="none"><tspan dx="0 " x="0" y="10">Data Providers</tspan></text><rect stroke="none" fill="#F9EAEA" x="511" y="310" width="10" height="16" /><rect stroke="#9A8484" x="511" y="310" width="10" height="17" /><rect stroke="none" fill="#F9EAEA" x="508" y="312" width="6" height="4" /><rect stroke="#9A8484" x="508" y="312" width="6" height="5" /><rect stroke="none" fill="#F9EAEA" x="508" y="319" width="6" height="4" /><rect stroke="#9A8484" x="508" y="319" width="6" height="5" /><rect stroke="none" fill="#DAEAFC" x="410" y="336" width="14" height="14" /><rect stroke="#9A8484" x="410" y="336" width="14" height="15" /><rect stroke="none" fill="#F9EAEA" x="417" y="214" width="109" height="59" /><rect stroke="#9A8484" x="417" y="214" width="109" height="60" /><text transform="matrix(1 0 0 1 425 223)" fill="#595959" font-weight="bold" stroke="none"><tspan dx="0 " x="0" y="10">External Services</tspan></text><rect stroke="none" fill="#F9EAEA" x="511" y="219" width="10" height="16" /><rect stroke="#9A8484" x="511" y="219" width="10" height="17" /><rect stroke="none" fill="#F9EAEA" x="508" y="221" width="6" height="4" /><rect stroke="#9A8484" x="508" y="221" width="6" height="5" /><rect stroke="none" fill="#F9EAEA" x="508" y="228" width="6" height="4" /><rect stroke="#9A8484" x="508" y="228" width="6" height="5" /><rect stroke="none" fill="#DAEAFC" x="410" y="237" width="14" height="14" /><rect stroke="#9A8484" x="410" y="237" width="14" height="15" /><path stroke="#69738C" stroke-dasharray="7,4" d="M157 185L197 185" /><path stroke="#69738C" fill="#FAF1EC" d="M172 179v12l-15 -6l15 -6" /><path stroke="#69738C" stroke-dasharray="7,4" d="M201 93L161 93" /><path stroke="#69738C" fill="#FAF1EC" d="M186 99V87l15 6l-15 6" /><path stroke="#69738C" d="M365 343h13M387.18 332.57C386.79 332.52 386.39 332.5 386 332.5C381.25 333 377 337.25 377 342.5C377 347.75 381.25 352 386.5 352C386.32 351.5 386.63 351.48 386.95 351.45M393 343h17" /><path stroke="none" fill="#FAF1EC" d="M380 342.5C380 338.91 382.91 336 386.5 336C390.09 336 393 338.91 393 342.5C393 346.09 390.09 349 386.5 349C382.91 349 380 346.09 380 342.5" /><path stroke="#69738C" d="M380 342.5C380 338.91 382.91 336 386.5 336C390.09 336 393 338.91 393 342.5C393 346.09 390.09 349 386.5 349C382.91 349 380 346.09 380 342.5M365 244h13M387.18 233.57C386.79 233.52 386.39 233.5 386 233.5C381.25 234 377 238.25 377 243.5C377 248.75 381.25 253 386.5 253C386.32 252.5 386.63 252.48 386.95 252.45M393 244h17" /><path stroke="none" fill="#FAF1EC" d="M380 243.5C380 239.91 382.91 237 386.5 237C390.09 237 393 239.91 393 243.5C393 247.09 390.09 250 386.5 250C382.91 250 380 247.09 380 243.5" /><path stroke="#69738C" d="M380 243.5C380 239.91 382.91 237 386.5 237C390.09 237 393 239.91 393 243.5C393 247.09 390.09 250 386.5 250C382.91 250 380 247.09 380 243.5M436 127l-29 23M404.27 162.9C406.91 161.14 408.5 158.17 408.5 155C409 150.25 404.75 146 399.5 146C397.02 145.5 395.09 146.12 393.48 147.27M395 160l-30 26" /><path stroke="none" fill="#FAF1EC" d="M393 155.5C393 151.91 395.91 149 399.5 149C403.09 149 406 151.91 406 155.5C406 159.09 403.09 162 399.5 162C395.91 162 393 159.09 393 155.5" /><path stroke="#69738C" d="M393 155.5C393 151.91 395.91 149 399.5 149C403.09 149 406 151.91 406 155.5C406 159.09 403.09 162 399.5 162C395.91 162 393 159.09 393 155.5" /><path stroke="#69738C" stroke-dasharray="7,4" d="M201 243L161 243" /><path stroke="#69738C" fill="#FAF1EC" d="M186 249V237l15 6l-15 6" /><path stroke="#69738C" d="M365 94h14M388.18 83.57C387.79 83.52 387.39 83.5 387 83.5C382.25 84 378 88.25 378 93.5C378 98.75 382.25 103 387.5 103C387.32 102.5 387.63 102.48 387.95 102.45M394 94h17" /><path stroke="none" fill="#FAF1EC" d="M381 93.5C381 89.91 383.91 87 387.5 87C391.09 87 394 89.91 394 93.5C394 97.09 391.09 100 387.5 100C383.91 100 381 97.09 381 93.5" /><path stroke="#69738C" d="M381 93.5C381 89.91 383.91 87 387.5 87C391.09 87 394 89.91 394 93.5C394 97.09 391.09 100 387.5 100C383.91 100 381 97.09 381 93.5" /><g transform="matrix(1 0 0 -1 370 66)"><rect fill="#F9EAEA" stroke="none" x="0" width="41" y="-13" height="13" /></g><text transform="matrix(1 0 0 1 370 66)" fill="#595959" stroke="none"><tspan dx="0 " x="0" y="10">ASR Input</tspan></text><g transform="matrix(1 0 0 -1 359 316)"><rect fill="#F9EAEA" stroke="none" x="0" width="54" y="-13" height="13" /></g><text transform="matrix(1 0 0 1 359 316)" fill="#595959" stroke="none"><tspan dx="0 " x="0" y="10">Remote Data</tspan></text><g transform="matrix(1 0 0 -1 345 215)"><rect fill="#F9EAEA" stroke="none" x="0" width="81" y="-13" height="13" /></g><text transform="matrix(1 0 0 1 345 215)" fill="#595959" stroke="none"><tspan dx="0 " x="0" y="10">Remote Service Call</tspan></text><g transform="matrix(1 0 0 -1 352 172)"><rect fill="#F9EAEA" stroke="none" x="0" width="98" y="-13" height="13" /></g><text transform="matrix(1 0 0 1 352 172)" fill="#595959" stroke="none"><tspan dx="0 " x="0" y="10">S</tspan><tspan dx="0 " x="4.333333" y="10">e</tspan><tspan dx="0 " x="9.333333" y="10">m</tspan><tspan dx="0 " x="17.33333" y="10">a</tspan><tspan dx="0 " x="22" y="10">n</tspan><tspan dx="0 0 " x="27.33333" y="10">ti</tspan><tspan dx="0 " x="33" y="10">c</tspan><tspan dx="0 " x="37.33333" y="10"> </tspan><tspan dx="0 " x="39.66666" y="10">I</tspan><tspan dx="0 " x="42.33333" y="10">n</tspan><tspan dx="0 " x="47.66666" y="10">t</tspan><tspan dx="0 " x="51" y="10">e</tspan><tspan dx="0 " x="56" y="10">r</tspan><tspan dx="0 " x="59.66666" y="10">p</tspan><tspan dx="0 " x="65" y="10">r</tspan><tspan dx="0 " x="68.66666" y="10">e</tspan><tspan dx="0 " x="73.66666" y="10">t</tspan><tspan dx="0 " x="77" y="10">a</tspan><tspan dx="0 0 " x="81.66666" y="10">ti</tspan><tspan dx="0 " x="87.33333" y="10">o</tspan><tspan dx="0 " x="92.66666" y="10">n</tspan></text></g></g></g></g></svg>