<?xml version="1.0" encoding="utf-8"?><svg version="1.1" preserveAspectRatio="xMidYMid" xml:space="preserve" width="318.61255pt" height="301.4931pt" viewBox="36.50185 24.969299999999997 318.61255 301.4931" xmlns="http://www.w3.org/2000/svg" xmlns:xlink="http://www.w3.org/1999/xlink"><g transform="matrix(1 0 0 -1 0 541)"><g stroke="#000000" fill="none" fill-rule="evenodd" stroke-width="1" stroke-linecap="round" stroke-linejoin="round" stroke-miterlimit="3" letter-spacing="normal" font-weight="normal" font-style="normal" baseline-shift="0"><g transform="matrix(0.5 0 0 0.5 0 541.400024)"><g transform="matrix(1.483395 0 0 -1.483081 0 0)" font-family="CalibriUnicode" font-size="7"><rect fill="#D0D0D0" stroke="none" x="415" y="244" width="15" height="15" /><rect stroke="none" fill="#DAEAFC" x="412" y="241" width="14" height="14" /><rect stroke="#9A8484" x="412" y="241" width="14" height="15" /><rect stroke="#9A8484" x="412" y="241" width="14" height="14" /><rect fill="#D0D0D0" stroke="none" x="415" y="270" width="15" height="15" /><rect stroke="none" fill="#DAEAFC" x="412" y="267" width="14" height="14" /><rect stroke="#9A8484" x="412" y="267" width="14" height="15" /><rect stroke="#9A8484" x="412" y="267" width="14" height="14" /><rect fill="#D0D0D0" stroke="none" x="63" y="48" width="359" height="382" /><rect stroke="none" fill="#F9EAEA" x="60" y="45" width="358" height="381" /><rect stroke="#9A8484" x="60" y="45" width="358" height="382" /><rect stroke="#9A8484" x="60" y="45" width="358" height="381" /><text transform="matrix(1 0 0 1 222 54)" fill="#595959" font-weight="bold" stroke="none"><tspan dx="0 " x="0" y="7">Client</tspan></text><path stroke="#9A8484" d="M60 68H418" /><rect stroke="none" fill="#F9EAEA" x="403" y="50" width="10" height="16" /><rect stroke="#9A8484" x="403" y="50" width="10" height="17" /><rect stroke="none" fill="#F9EAEA" x="400" y="52" width="6" height="4" /><rect stroke="#9A8484" x="400" y="52" width="6" height="5" /><rect stroke="none" fill="#F9EAEA" x="400" y="59" width="6" height="4" /><rect stroke="#9A8484" x="400" y="59" width="6" height="5" /><rect stroke="none" fill="#DAEAFC" x="412" y="241" width="14" height="14" /><rect stroke="#9A8484" x="412" y="241" width="14" height="15" /><rect stroke="#9A8484" x="412" y="241" width="14" height="14" /><rect stroke="none" fill="#DAEAFC" x="412" y="267" width="14" height="14" /><rect stroke="#9A8484" x="412" y="267" width="14" height="15" /><rect stroke="#9A8484" x="412" y="267" width="14" height="14" /><path stroke="#9A8484" d="M427 247h26" /><path stroke="none" fill="#F1ECFA" d="M453 247C453 243.69 455.69 241 459 241C462.31 241 465 243.69 465 247C465 250.31 462.31 253 459 253C455.69 253 453 250.31 453 247" /><path stroke="#9A8484" d="M453 247C453 243.69 455.69 241 459 241C462.31 241 465 243.69 465 247C465 250.31 462.31 253 459 253C455.69 253 453 250.31 453 247M453 247C453 243.69 455.69 241 459 241C462.31 241 465 243.69 465 247C465 250.31 462.31 253 459 253C455.69 253 453 250.31 453 247" /><text transform="matrix(1 0 0 1 432 257)" fill="#595959" stroke="none"><tspan dx="0 " x="0" y="7">IPARequest</tspan></text><path stroke="#9A8484" d="M427 273h26M459.99 267.08C459.66 267.03 459.33 267 459 267C455.69 267 453 269.69 453 273C453 276.31 455.69 279 459 279C459.28 279 459.57 278.98 459.85 278.94" /><text transform="matrix(1 0 0 1 432 283)" fill="#595959" stroke="none"><tspan dx="0 " x="0" y="7">IPAResponse</tspan></text><rect stroke="none" fill="#F9EAEA" x="92" y="229" width="257" height="59" /><rect stroke="#9A8484" x="92" y="229" width="257" height="60" /><text transform="matrix(1 0 0 1 198 238)" fill="#595959" font-weight="bold" stroke="none"><tspan dx="0 " x="0" y="7">IPA Client</tspan></text><rect stroke="none" fill="#F9EAEA" x="334" y="234" width="10" height="16" /><rect stroke="#9A8484" x="334" y="234" width="10" height="17" /><rect stroke="none" fill="#F9EAEA" x="331" y="236" width="6" height="4" /><rect stroke="#9A8484" x="331" y="236" width="6" height="5" /><rect stroke="none" fill="#F9EAEA" x="331" y="243" width="6" height="4" /><rect stroke="#9A8484" x="331" y="243" width="6" height="5" /><rect stroke="none" fill="#DAEAFC" x="343" y="241" width="14" height="14" /><rect stroke="#9A8484" x="343" y="241" width="14" height="15" /><rect stroke="none" fill="#DAEAFC" x="137" y="222" width="14" height="14" /><rect stroke="#9A8484" x="137" y="222" width="14" height="15" /><rect stroke="none" fill="#DAEAFC" x="282" y="222" width="14" height="14" /><rect stroke="#9A8484" x="282" y="222" width="14" height="15" /><rect stroke="none" fill="#DAEAFC" x="343" y="267" width="14" height="14" /><rect stroke="#9A8484" x="343" y="267" width="14" height="15" /><rect stroke="none" fill="#DAEAFC" x="137" y="282" width="14" height="14" /><rect stroke="#9A8484" x="137" y="282" width="14" height="15" /><rect stroke="none" fill="#DAEAFC" x="283" y="282" width="14" height="14" /><rect stroke="#9A8484" x="283" y="282" width="14" height="15" /><rect stroke="none" fill="#F9EAEA" x="92" y="349" width="109" height="59" /><rect stroke="#9A8484" x="92" y="349" width="109" height="60" /><text transform="matrix(1 0 0 1 119 358)" fill="#595959" font-weight="bold" stroke="none"><tspan dx="0 " x="0" y="7">P</tspan><tspan dx="0 " x="3.25" y="7">r</tspan><tspan dx="0 " x="5.75" y="7">e</tspan><tspan dx="0 " x="9" y="7">s</tspan><tspan dx="0 " x="11.75" y="7">e</tspan><tspan dx="0 " x="15" y="7">n</tspan><tspan dx="0 " x="18.5" y="7">t</tspan><tspan dx="0 " x="20.75" y="7">a</tspan><tspan dx="0 0 " x="24" y="7">ti</tspan><tspan dx="0 " x="28" y="7">o</tspan><tspan dx="0 " x="31.5" y="7">n</tspan></text><rect stroke="none" fill="#F9EAEA" x="186" y="354" width="10" height="16" /><rect stroke="#9A8484" x="186" y="354" width="10" height="17" /><rect stroke="none" fill="#F9EAEA" x="183" y="356" width="6" height="4" /><rect stroke="#9A8484" x="183" y="356" width="6" height="5" /><rect stroke="none" fill="#F9EAEA" x="183" y="363" width="6" height="4" /><rect stroke="#9A8484" x="183" y="363" width="6" height="5" /><rect stroke="none" fill="#DAEAFC" x="137" y="342" width="14" height="14" /><rect stroke="#9A8484" x="137" y="342" width="14" height="15" /><rect stroke="none" fill="#F9EAEA" x="240" y="349" width="109" height="59" /><rect stroke="#9A8484" x="240" y="349" width="109" height="60" /><text transform="matrix(1 0 0 1 274 358)" fill="#595959" font-weight="bold" stroke="none"><tspan dx="0 " x="0" y="7">Capture</tspan></text><rect stroke="none" fill="#F9EAEA" x="334" y="354" width="10" height="16" /><rect stroke="#9A8484" x="334" y="354" width="10" height="17" /><rect stroke="none" fill="#F9EAEA" x="331" y="356" width="6" height="4" /><rect stroke="#9A8484" x="331" y="356" width="6" height="5" /><rect stroke="none" fill="#F9EAEA" x="331" y="363" width="6" height="4" /><rect stroke="#9A8484" x="331" y="363" width="6" height="5" /><rect stroke="none" fill="#DAEAFC" x="284" y="342" width="14" height="14" /><rect stroke="#9A8484" x="284" y="342" width="14" height="15" /><rect stroke="none" fill="#F9EAEA" x="92" y="105" width="109" height="59" /><rect stroke="#9A8484" x="92" y="105" width="109" height="60" /><text transform="matrix(1 0 0 1 117 114)" fill="#595959" font-weight="bold" stroke="none"><tspan dx="0 " x="0" y="7">Local Services</tspan></text><rect stroke="none" fill="#F9EAEA" x="186" y="110" width="10" height="16" /><rect stroke="#9A8484" x="186" y="110" width="10" height="17" /><rect stroke="none" fill="#F9EAEA" x="183" y="112" width="6" height="4" /><rect stroke="#9A8484" x="183" y="112" width="6" height="5" /><rect stroke="none" fill="#F9EAEA" x="183" y="119" width="6" height="4" /><rect stroke="#9A8484" x="183" y="119" width="6" height="5" /><rect stroke="none" fill="#DAEAFC" x="137" y="157" width="14" height="14" /><rect stroke="#9A8484" x="137" y="157" width="14" height="15" /><rect stroke="none" fill="#F9EAEA" x="240" y="105" width="109" height="59" /><rect stroke="#9A8484" x="240" y="105" width="109" height="60" /><text transform="matrix(1 0 0 1 256 114)" fill="#595959" font-weight="bold" stroke="none"><tspan dx="0 " x="0" y="7">Local Data Providers</tspan></text><rect stroke="none" fill="#F9EAEA" x="334" y="110" width="10" height="16" /><rect stroke="#9A8484" x="334" y="110" width="10" height="17" /><rect stroke="none" fill="#F9EAEA" x="331" y="112" width="6" height="4" /><rect stroke="#9A8484" x="331" y="112" width="6" height="5" /><rect stroke="none" fill="#F9EAEA" x="331" y="119" width="6" height="4" /><rect stroke="#9A8484" x="331" y="119" width="6" height="5" /><rect stroke="none" fill="#DAEAFC" x="282" y="157" width="14" height="14" /><rect stroke="#9A8484" x="282" y="157" width="14" height="15" /><path stroke="#69738C" d="M358 274h18M385.18 263.57C384.79 263.52 384.39 263.5 384 263.5C379.25 264 375 268.25 375 273.5C375 278.75 379.25 283 384.5 283C384.32 282.5 384.63 282.48 384.95 282.45M391 274h21" /><path stroke="none" fill="#FAF1EC" d="M378 273.5C378 269.91 380.91 267 384.5 267C388.09 267 391 269.91 391 273.5C391 277.09 388.09 280 384.5 280C380.91 280 378 277.09 378 273.5" /><path stroke="#69738C" d="M378 273.5C378 269.91 380.91 267 384.5 267C388.09 267 391 269.91 391 273.5C391 277.09 388.09 280 384.5 280C380.91 280 378 277.09 378 273.5M412 248H395M384.86 256.46C389.73 256.02 393.5 251.89 393.5 247C393.5 242.18 389.84 238.09 385.05 237.56M378 248H358" /><path stroke="none" fill="#FAF1EC" d="M378 247.5C378 243.91 380.91 241 384.5 241C388.09 241 391 243.91 391 247.5C391 251.09 388.09 254 384.5 254C380.91 254 378 251.09 378 247.5" /><path stroke="#69738C" d="M378 247.5C378 243.91 380.91 241 384.5 241C388.09 241 391 243.91 391 247.5C391 251.09 388.09 254 384.5 254C380.91 254 378 251.09 378 247.5M290 297v13M298.45 318.95C298.48 318.63 298.5 318.32 298.5 318C299 313.25 294.75 309 289.5 309C284.25 309 280 313.25 280 318.5C279.5 318.35 279.52 318.7 279.56 319.05M290 326v16" /><path stroke="none" fill="#FAF1EC" d="M283 318.5C283 314.91 285.91 312 289.5 312C293.09 312 296 314.91 296 318.5C296 322.09 293.09 325 289.5 325C285.91 325 283 322.09 283 318.5" /><path stroke="#69738C" d="M283 318.5C283 314.91 285.91 312 289.5 312C293.09 312 296 314.91 296 318.5C296 322.09 293.09 325 289.5 325C285.91 325 283 322.09 283 318.5M144 342V328M133.56 319.05C134.09 323.84 138.18 327.5 143 327.5C147.86 327.5 151.97 323.78 152.45 318.95M144 313V297" /><path stroke="none" fill="#FAF1EC" d="M137 318.5C137 314.91 139.91 312 143.5 312C147.09 312 150 314.91 150 318.5C150 322.09 147.09 325 143.5 325C139.91 325 137 322.09 137 318.5" /><path stroke="#69738C" d="M137 318.5C137 314.91 139.91 312 143.5 312C147.09 312 150 314.91 150 318.5C150 322.09 147.09 325 143.5 325C139.91 325 137 322.09 137 318.5M289 222V206M278.56 197.05C279.09 201.84 283.18 205.5 288 205.5C292.86 205.5 296.97 201.78 297.45 196.95M289 191V172" /><path stroke="none" fill="#FAF1EC" d="M282 196.5C282 192.91 284.91 190 288.5 190C292.09 190 295 192.91 295 196.5C295 200.09 292.09 203 288.5 203C284.91 203 282 200.09 282 196.5" /><path stroke="#69738C" d="M282 196.5C282 192.91 284.91 190 288.5 190C292.09 190 295 192.91 295 196.5C295 200.09 292.09 203 288.5 203C284.91 203 282 200.09 282 196.5M144 172v16M152.45 196.95C152.48 196.63 152.5 196.32 152.5 196C153 191.25 148.75 187 143.5 187C138.25 187 134 191.25 134 196.5C133.5 196.35 133.52 196.7 133.56 197.05M144 204v18" /><path stroke="none" fill="#FAF1EC" d="M137 196.5C137 192.91 139.91 190 143.5 190C147.09 190 150 192.91 150 196.5C150 200.09 147.09 203 143.5 203C139.91 203 137 200.09 137 196.5" /><path stroke="#69738C" d="M137 196.5C137 192.91 139.91 190 143.5 190C147.09 190 150 192.91 150 196.5C150 200.09 147.09 203 143.5 203C139.91 203 137 200.09 137 196.5" /><g transform="matrix(1 0 0 -1 312 185)"><rect fill="#F9EAEA" stroke="none" x="0" width="46" y="-9" height="9" /></g><text transform="matrix(1 0 0 1 312 185)" fill="#595959" stroke="none"><tspan dx="0 " x="0" y="7">M</tspan><tspan dx="0 " x="5.75" y="7">u</tspan><tspan dx="0 " x="9.25" y="7">l</tspan><tspan dx="0 0 " x="11" y="7">ti</tspan><tspan dx="0 " x="15" y="7">M</tspan><tspan dx="0 " x="20.75" y="7">o</tspan><tspan dx="0 " x="24.25" y="7">d</tspan><tspan dx="0 " x="27.75" y="7">a</tspan><tspan dx="0 " x="31" y="7">l</tspan><tspan dx="0 " x="32.75" y="7">D</tspan><tspan dx="0 " x="37.25" y="7">a</tspan><tspan dx="0 " x="40.5" y="7">t</tspan><tspan dx="0 " x="42.75" y="7">a</tspan></text><g transform="matrix(1 0 0 -1 167 195)"><rect fill="#F9EAEA" stroke="none" x="0" width="47" y="-9" height="9" /></g><text transform="matrix(1 0 0 1 167 195)" fill="#595959" stroke="none"><tspan dx="0 " x="0" y="7">Local Service Call</tspan></text><g transform="matrix(1 0 0 -1 316 314)"><rect fill="#F9EAEA" stroke="none" x="0" width="46" y="-9" height="9" /></g><text transform="matrix(1 0 0 1 316 314)" fill="#595959" stroke="none"><tspan dx="0 " x="0" y="7">M</tspan><tspan dx="0 " x="5.75" y="7">u</tspan><tspan dx="0 " x="9.25" y="7">l</tspan><tspan dx="0 0 " x="11" y="7">ti</tspan><tspan dx="0 " x="15" y="7">M</tspan><tspan dx="0 " x="20.75" y="7">o</tspan><tspan dx="0 " x="24.25" y="7">d</tspan><tspan dx="0 " x="27.75" y="7">a</tspan><tspan dx="0 " x="31" y="7">l</tspan><tspan dx="0 " x="32.75" y="7">D</tspan><tspan dx="0 " x="37.25" y="7">a</tspan><tspan dx="0 " x="40.5" y="7">t</tspan><tspan dx="0 " x="42.75" y="7">a</tspan></text><g transform="matrix(1 0 0 -1 74 315)"><rect fill="#F9EAEA" stroke="none" x="0" width="46" y="-9" height="9" /></g><text transform="matrix(1 0 0 1 74 315)" fill="#595959" stroke="none"><tspan dx="0 " x="0" y="7">M</tspan><tspan dx="0 " x="5.75" y="7">u</tspan><tspan dx="0 " x="9.25" y="7">l</tspan><tspan dx="0 0 " x="11" y="7">ti</tspan><tspan dx="0 " x="15" y="7">M</tspan><tspan dx="0 " x="20.75" y="7">o</tspan><tspan dx="0 " x="24.25" y="7">d</tspan><tspan dx="0 " x="27.75" y="7">a</tspan><tspan dx="0 " x="31" y="7">l</tspan><tspan dx="0 " x="32.75" y="7">D</tspan><tspan dx="0 " x="37.25" y="7">a</tspan><tspan dx="0 " x="40.5" y="7">t</tspan><tspan dx="0 " x="42.75" y="7">a</tspan></text></g></g></g></g></svg>