<?xml version="1.0" encoding="utf-8"?><svg version="1.1" preserveAspectRatio="xMidYMid" xml:space="preserve" width="190.73729pt" height="184.65823pt" viewBox="17.38451 11.31327 190.73729 184.65823" xmlns="http://www.w3.org/2000/svg" xmlns:xlink="http://www.w3.org/1999/xlink"><g transform="matrix(1 0 0 -1 0 541)"><g stroke="#000000" fill="none" fill-rule="evenodd" stroke-width="1" stroke-linecap="round" stroke-linejoin="round" stroke-miterlimit="3" letter-spacing="normal" font-weight="normal" font-style="normal" baseline-shift="0"><g transform="matrix(0.6 0 0 0.6 0 541.400024)"><g transform="matrix(0.72944 0 0 -0.730122 0 0)" font-family="CalibriUnicode" font-size="8"><rect fill="#D0D0D0" stroke="none" x="412" y="259" width="15" height="15" /><rect stroke="none" fill="#DAEAFC" x="409" y="256" width="14" height="14" /><rect stroke="#9A8484" x="409" y="256" width="14" height="15" /><rect stroke="#9A8484" x="409" y="256" width="14" height="14" /><rect fill="#D0D0D0" stroke="none" x="61" y="48" width="359" height="382" /><rect stroke="none" fill="#F9EAEA" x="58" y="45" width="358" height="381" /><rect stroke="#9A8484" x="58" y="45" width="358" height="382" /><rect stroke="#9A8484" x="58" y="45" width="358" height="381" /><text transform="matrix(1 0 0 1 218 54)" fill="#595959" font-weight="bold" stroke="none"><tspan dx="0 " x="0" y="8">Client</tspan></text><path stroke="#9A8484" d="M58 69H416" /><rect stroke="none" fill="#F9EAEA" x="401" y="50" width="10" height="16" /><rect stroke="#9A8484" x="401" y="50" width="10" height="17" /><rect stroke="none" fill="#F9EAEA" x="398" y="52" width="6" height="4" /><rect stroke="#9A8484" x="398" y="52" width="6" height="5" /><rect stroke="none" fill="#F9EAEA" x="398" y="59" width="6" height="4" /><rect stroke="#9A8484" x="398" y="59" width="6" height="5" /><rect stroke="none" fill="#DAEAFC" x="409" y="256" width="14" height="14" /><rect stroke="#9A8484" x="409" y="256" width="14" height="15" /><rect stroke="#9A8484" x="409" y="256" width="14" height="14" /><path stroke="#9A8484" d="M424 262h26M456.99 256.08C456.66 256.03 456.33 256 456 256C452.69 256 450 258.69 450 262C450 265.31 452.69 268 456 268C456.28 268 456.57 267.98 456.85 267.94" /><text transform="matrix(1 0 0 1 438 272)" fill="#595959" stroke="none"><tspan dx="0 " x="0" y="8">Client</tspan></text><text transform="matrix(1 0 0 1 438 282)" fill="#595959" stroke="none"><tspan dx="0 " x="0" y="8">Input</tspan></text><rect stroke="none" fill="#F9EAEA" x="90" y="229" width="257" height="59" /><rect stroke="#9A8484" x="90" y="229" width="257" height="60" /><text transform="matrix(1 0 0 1 193 238)" fill="#595959" font-weight="bold" stroke="none"><tspan dx="0 " x="0" y="8">IPA Client</tspan></text><rect stroke="none" fill="#F9EAEA" x="332" y="234" width="10" height="16" /><rect stroke="#9A8484" x="332" y="234" width="10" height="17" /><rect stroke="none" fill="#F9EAEA" x="329" y="236" width="6" height="4" /><rect stroke="#9A8484" x="329" y="236" width="6" height="5" /><rect stroke="none" fill="#F9EAEA" x="329" y="243" width="6" height="4" /><rect stroke="#9A8484" x="329" y="243" width="6" height="5" /><rect stroke="none" fill="#DAEAFC" x="341" y="256" width="14" height="14" /><rect stroke="#9A8484" x="341" y="256" width="14" height="15" /><rect stroke="none" fill="#DAEAFC" x="135" y="222" width="14" height="14" /><rect stroke="#9A8484" x="135" y="222" width="14" height="15" /><rect stroke="none" fill="#DAEAFC" x="280" y="222" width="14" height="14" /><rect stroke="#9A8484" x="280" y="222" width="14" height="15" /><rect stroke="none" fill="#DAEAFC" x="136" y="282" width="14" height="14" /><rect stroke="#9A8484" x="136" y="282" width="14" height="15" /><rect stroke="none" fill="#DAEAFC" x="283" y="282" width="14" height="14" /><rect stroke="#9A8484" x="283" y="282" width="14" height="15" /><rect stroke="none" fill="#F9EAEA" x="90" y="349" width="109" height="59" /><rect stroke="#9A8484" x="90" y="349" width="109" height="60" /><text transform="matrix(1 0 0 1 121 358)" fill="#595959" font-weight="bold" stroke="none"><tspan dx="0 " x="0" y="8">Speaker</tspan></text><rect stroke="none" fill="#F9EAEA" x="184" y="354" width="10" height="16" /><rect stroke="#9A8484" x="184" y="354" width="10" height="17" /><rect stroke="none" fill="#F9EAEA" x="181" y="356" width="6" height="4" /><rect stroke="#9A8484" x="181" y="356" width="6" height="5" /><rect stroke="none" fill="#F9EAEA" x="181" y="363" width="6" height="4" /><rect stroke="#9A8484" x="181" y="363" width="6" height="5" /><rect stroke="none" fill="#DAEAFC" x="135" y="342" width="14" height="14" /><rect stroke="#9A8484" x="135" y="342" width="14" height="15" /><rect stroke="none" fill="#F9EAEA" x="238" y="349" width="109" height="59" /><rect stroke="#9A8484" x="238" y="349" width="109" height="60" /><text transform="matrix(1 0 0 1 262 358)" fill="#595959" font-weight="bold" stroke="none"><tspan dx="0 " x="0" y="8">Microphone</tspan></text><rect stroke="none" fill="#F9EAEA" x="332" y="354" width="10" height="16" /><rect stroke="#9A8484" x="332" y="354" width="10" height="17" /><rect stroke="none" fill="#F9EAEA" x="329" y="356" width="6" height="4" /><rect stroke="#9A8484" x="329" y="356" width="6" height="5" /><rect stroke="none" fill="#F9EAEA" x="329" y="363" width="6" height="4" /><rect stroke="#9A8484" x="329" y="363" width="6" height="5" /><rect stroke="none" fill="#DAEAFC" x="282" y="342" width="14" height="14" /><rect stroke="#9A8484" x="282" y="342" width="14" height="15" /><rect stroke="none" fill="#F9EAEA" x="90" y="105" width="109" height="59" /><rect stroke="#9A8484" x="90" y="105" width="109" height="60" /><text transform="matrix(1 0 0 1 111 114)" fill="#595959" font-weight="bold" stroke="none"><tspan dx="0 " x="0" y="8">Local Services</tspan></text><rect stroke="none" fill="#F9EAEA" x="184" y="110" width="10" height="16" /><rect stroke="#9A8484" x="184" y="110" width="10" height="17" /><rect stroke="none" fill="#F9EAEA" x="181" y="112" width="6" height="4" /><rect stroke="#9A8484" x="181" y="112" width="6" height="5" /><rect stroke="none" fill="#F9EAEA" x="181" y="119" width="6" height="4" /><rect stroke="#9A8484" x="181" y="119" width="6" height="5" /><rect stroke="none" fill="#DAEAFC" x="135" y="157" width="14" height="14" /><rect stroke="#9A8484" x="135" y="157" width="14" height="15" /><rect stroke="none" fill="#F9EAEA" x="238" y="105" width="109" height="59" /><rect stroke="#9A8484" x="238" y="105" width="109" height="60" /><text transform="matrix(1 0 0 1 249 114)" fill="#595959" font-weight="bold" stroke="none"><tspan dx="0 " x="0" y="8">Local Data Providers</tspan></text><rect stroke="none" fill="#F9EAEA" x="332" y="110" width="10" height="16" /><rect stroke="#9A8484" x="332" y="110" width="10" height="17" /><rect stroke="none" fill="#F9EAEA" x="329" y="112" width="6" height="4" /><rect stroke="#9A8484" x="329" y="112" width="6" height="5" /><rect stroke="none" fill="#F9EAEA" x="329" y="119" width="6" height="4" /><rect stroke="#9A8484" x="329" y="119" width="6" height="5" /><rect stroke="none" fill="#DAEAFC" x="280" y="158" width="14" height="14" /><rect stroke="#9A8484" x="280" y="158" width="14" height="15" /><path stroke="#69738C" d="M356 263h53m0 0l-15 5m15 -5l-15 -5" /><path stroke="#69738C" d="M142 222V206M131.56 197.05C132.09 201.84 136.18 205.5 141 205.5C145.86 205.5 149.97 201.78 150.45 196.95M142 191V172" /><path stroke="none" fill="#FAF1EC" d="M135 196.5C135 192.91 137.91 190 141.5 190C145.09 190 148 192.91 148 196.5C148 200.09 145.09 203 141.5 203C137.91 203 135 200.09 135 196.5" /><path stroke="#69738C" d="M135 196.5C135 192.91 137.91 190 141.5 190C145.09 190 148 192.91 148 196.5C148 200.09 145.09 203 141.5 203C137.91 203 135 200.09 135 196.5M287 222V206M276.56 197.05C277.09 201.84 281.18 205.5 286 205.5C290.86 205.5 294.97 201.78 295.45 196.95M287 191V173" /><path stroke="none" fill="#FAF1EC" d="M280 196.5C280 192.91 282.91 190 286.5 190C290.09 190 293 192.91 293 196.5C293 200.09 290.09 203 286.5 203C282.91 203 280 200.09 280 196.5" /><path stroke="#69738C" d="M280 196.5C280 192.91 282.91 190 286.5 190C290.09 190 293 192.91 293 196.5C293 200.09 290.09 203 286.5 203C282.91 203 280 200.09 280 196.5M142 297v13M150.45 318.95C150.48 318.63 150.5 318.32 150.5 318C151 313.25 146.75 309 141.5 309C136.25 309 132 313.25 132 318.5C131.5 318.35 131.52 318.7 131.56 319.05M142 326v16" /><path stroke="none" fill="#FAF1EC" d="M135 318.5C135 314.91 137.91 312 141.5 312C145.09 312 148 314.91 148 318.5C148 322.09 145.09 325 141.5 325C137.91 325 135 322.09 135 318.5" /><path stroke="#69738C" d="M135 318.5C135 314.91 137.91 312 141.5 312C145.09 312 148 314.91 148 318.5C148 322.09 145.09 325 141.5 325C137.91 325 135 322.09 135 318.5M289 297v13M297.45 318.95C297.48 318.63 297.5 318.32 297.5 318C298 313.25 293.75 309 288.5 309C283.25 309 279 313.25 279 318.5C278.5 318.35 278.52 318.7 278.56 319.05M289 326v16" /><path stroke="none" fill="#FAF1EC" d="M282 318.5C282 314.91 284.91 312 288.5 312C292.09 312 295 314.91 295 318.5C295 322.09 292.09 325 288.5 325C284.91 325 282 322.09 282 318.5" /><path stroke="#69738C" d="M282 318.5C282 314.91 284.91 312 288.5 312C292.09 312 295 314.91 295 318.5C295 322.09 292.09 325 288.5 325C284.91 325 282 322.09 282 318.5" /><g transform="matrix(1 0 0 -1 310 192)"><rect fill="#F9EAEA" stroke="none" x="0" width="34" y="-11" height="11" /></g><text transform="matrix(1 0 0 1 310 192)" fill="#595959" stroke="none"><tspan dx="0 " x="0" y="8">Local Data</tspan></text><g transform="matrix(1 0 0 -1 61 320)"><rect fill="#F9EAEA" stroke="none" x="0" width="44" y="-11" height="11" /></g><text transform="matrix(1 0 0 1 61 320)" fill="#595959" stroke="none"><tspan dx="0 " x="0" y="8">Audio Output</tspan></text><g transform="matrix(1 0 0 -1 364 265)"><rect fill="#F9EAEA" stroke="none" x="0" width="38" y="-11" height="11" /></g><text transform="matrix(1 0 0 1 364 265)" fill="#595959" stroke="none"><tspan dx="0 " x="0" y="8">«delegate»</tspan></text><g transform="matrix(1 0 0 -1 308 319)"><rect fill="#F9EAEA" stroke="none" x="0" width="38" y="-11" height="11" /></g><text transform="matrix(1 0 0 1 308 319)" fill="#595959" stroke="none"><tspan dx="0 " x="0" y="8">Audio Input</tspan></text><g transform="matrix(1 0 0 -1 161 194)"><rect fill="#F9EAEA" stroke="none" x="0" width="56" y="-11" height="11" /></g><text transform="matrix(1 0 0 1 161 194)" fill="#595959" stroke="none"><tspan dx="0 " x="0" y="8">Local Service Call</tspan></text></g></g></g></g></svg>