<?xml version="1.0" encoding="utf-8"?><svg version="1.1" preserveAspectRatio="xMidYMid" xml:space="preserve" width="694.31179pt" height="482.24489pt" viewBox="47.39931 10.368310000000001 694.31179 482.24489" xmlns="http://www.w3.org/2000/svg" xmlns:xlink="http://www.w3.org/1999/xlink"><g transform="matrix(1 0 0 -1 0 541)"><g stroke="#000000" fill="none" fill-rule="evenodd" stroke-width="1" stroke-linecap="round" stroke-linejoin="round" stroke-miterlimit="3" letter-spacing="normal" font-weight="normal" font-style="normal" baseline-shift="0"><g transform="matrix(0.75 0 0 0.75 0 541.400024)"><g transform="matrix(1.319031 0 0 -1.317076 0 0)" font-family="CalibriUnicode" font-size="10"><rect fill="#D0D0D0" stroke="none" x="123" y="186" width="15" height="15" /><rect stroke="none" fill="#DAEAFC" x="120" y="183" width="14" height="14" /><rect stroke="#9A8484" x="120" y="183" width="14" height="15" /><rect stroke="#9A8484" x="120" y="183" width="14" height="14" /><rect fill="#D0D0D0" stroke="none" x="123" y="386" width="15" height="15" /><rect stroke="none" fill="#DAEAFC" x="120" y="383" width="14" height="14" /><rect stroke="#9A8484" x="120" y="383" width="14" height="15" /><rect stroke="#9A8484" x="120" y="383" width="14" height="14" /><rect fill="#D0D0D0" stroke="none" x="671" y="66" width="15" height="15" /><rect stroke="none" fill="#DAEAFC" x="668" y="63" width="14" height="14" /><rect stroke="#9A8484" x="668" y="63" width="14" height="15" /><rect stroke="#9A8484" x="668" y="63" width="14" height="14" /><rect fill="#D0D0D0" stroke="none" x="671" y="180" width="15" height="15" /><rect stroke="none" fill="#DAEAFC" x="668" y="177" width="14" height="14" /><rect stroke="#9A8484" x="668" y="177" width="14" height="15" /><rect stroke="#9A8484" x="668" y="177" width="14" height="14" /><rect fill="#D0D0D0" stroke="none" x="671" y="335" width="15" height="15" /><rect stroke="none" fill="#DAEAFC" x="668" y="332" width="14" height="14" /><rect stroke="#9A8484" x="668" y="332" width="14" height="15" /><rect stroke="#9A8484" x="668" y="332" width="14" height="14" /><rect fill="#D0D0D0" stroke="none" x="131" y="22" width="548" height="469" /><rect stroke="none" fill="#F9EAEA" x="128" y="19" width="547" height="468" /><rect stroke="#9A8484" x="128" y="19" width="547" height="469" /><rect stroke="#9A8484" x="128" y="19" width="547" height="468" /><text transform="matrix(1 0 0 1 379 28)" fill="#595959" font-weight="bold" stroke="none"><tspan dx="0 " x="0" y="10">Dialog</tspan></text><path stroke="#9A8484" d="M128 46H675" /><rect stroke="none" fill="#F9EAEA" x="660" y="24" width="10" height="16" /><rect stroke="#9A8484" x="660" y="24" width="10" height="17" /><rect stroke="none" fill="#F9EAEA" x="657" y="26" width="6" height="4" /><rect stroke="#9A8484" x="657" y="26" width="6" height="5" /><rect stroke="none" fill="#F9EAEA" x="657" y="33" width="6" height="4" /><rect stroke="#9A8484" x="657" y="33" width="6" height="5" /><rect stroke="none" fill="#DAEAFC" x="120" y="183" width="14" height="14" /><rect stroke="#9A8484" x="120" y="183" width="14" height="15" /><rect stroke="#9A8484" x="120" y="183" width="14" height="14" /><rect stroke="none" fill="#DAEAFC" x="120" y="383" width="14" height="14" /><rect stroke="#9A8484" x="120" y="383" width="14" height="15" /><rect stroke="#9A8484" x="120" y="383" width="14" height="14" /><rect stroke="none" fill="#DAEAFC" x="668" y="63" width="14" height="14" /><rect stroke="#9A8484" x="668" y="63" width="14" height="15" /><rect stroke="#9A8484" x="668" y="63" width="14" height="14" /><rect stroke="none" fill="#DAEAFC" x="668" y="177" width="14" height="14" /><rect stroke="#9A8484" x="668" y="177" width="14" height="15" /><rect stroke="#9A8484" x="668" y="177" width="14" height="14" /><rect stroke="none" fill="#DAEAFC" x="668" y="332" width="14" height="14" /><rect stroke="#9A8484" x="668" y="332" width="14" height="15" /><rect stroke="#9A8484" x="668" y="332" width="14" height="14" /><path stroke="#9A8484" d="M120 189H94m-7 6C87 195 87 195 87 195C90.31 195 93 192.31 93 189C93 185.71 90.29 183 87 183" /><text transform="matrix(1 0 0 1 73 199)" fill="#595959" stroke="none"><tspan dx="0 " x="0" y="10">Client Input</tspan></text><path stroke="#9A8484" d="M120 389H94" /><path stroke="none" fill="#F1ECFA" d="M81 389C81 385.69 83.69 383 87 383C90.31 383 93 385.69 93 389C93 392.31 90.31 395 87 395C83.69 395 81 392.31 81 389" /><path stroke="#9A8484" d="M81 389C81 385.69 83.69 383 87 383C90.31 383 93 385.69 93 389C93 392.31 90.31 395 87 395C83.69 395 81 392.31 81 389M81 389C81 385.69 83.69 383 87 383C90.31 383 93 385.69 93 389C93 392.31 90.31 395 87 395C83.69 395 81 392.31 81 389" /><text transform="matrix(1 0 0 1 56 399)" fill="#595959" stroke="none"><tspan dx="0 " x="0" y="10">Client Response</tspan></text><path stroke="#9A8484" d="M683 69h26" /><path stroke="none" fill="#F1ECFA" d="M709 69C709 65.69 711.69 63 715 63C718.31 63 721 65.69 721 69C721 72.31 718.31 75 715 75C711.69 75 709 72.31 709 69" /><path stroke="#9A8484" d="M709 69C709 65.69 711.69 63 715 63C718.31 63 721 65.69 721 69C721 72.31 718.31 75 715 75C711.69 75 709 72.31 709 69M709 69C709 65.69 711.69 63 715 63C718.31 63 721 65.69 721 69C721 72.31 718.31 75 715 75C711.69 75 709 72.31 709 69" /><text transform="matrix(1 0 0 1 686 79)" fill="#595959" stroke="none"><tspan dx="0 " x="0" y="10">Client Input</tspan></text><path stroke="#9A8484" d="M683 183h26M715.99 177.08C715.66 177.03 715.33 177 715 177C711.69 177 709 179.69 709 183C709 186.31 711.69 189 715 189C715.28 189 715.57 188.98 715.85 188.94" /><text transform="matrix(1 0 0 1 693 193)" fill="#595959" stroke="none"><tspan dx="0 " x="0" y="10">S</tspan><tspan dx="0 " x="5" y="10">e</tspan><tspan dx="0 " x="10.33333" y="10">m</tspan><tspan dx="0 " x="18.66667" y="10">a</tspan><tspan dx="0 " x="23.33333" y="10">n</tspan><tspan dx="0 0 " x="29" y="10">ti</tspan><tspan dx="0 " x="34.66667" y="10">c</tspan></text><text transform="matrix(1 0 0 1 685 206)" fill="#595959" stroke="none"><tspan dx="0 " x="0" y="10">I</tspan><tspan dx="0 " x="2.666667" y="10">n</tspan><tspan dx="0 " x="7.666667" y="10">t</tspan><tspan dx="0 " x="11" y="10">e</tspan><tspan dx="0 " x="15.66667" y="10">r</tspan><tspan dx="0 " x="19.33333" y="10">p</tspan><tspan dx="0 " x="24.33333" y="10">r</tspan><tspan dx="0 " x="28" y="10">e</tspan><tspan dx="0 " x="32.66667" y="10">t</tspan><tspan dx="0 " x="36" y="10">a</tspan><tspan dx="0 0 " x="40.66667" y="10">ti</tspan><tspan dx="0 " x="46.33334" y="10">o</tspan><tspan dx="0 " x="51.66667" y="10">n</tspan></text><path stroke="#9A8484" d="M683 338h26" /><path stroke="none" fill="#F1ECFA" d="M709 338C709 334.69 711.69 332 715 332C718.31 332 721 334.69 721 338C721 341.31 718.31 344 715 344C711.69 344 709 341.31 709 338" /><path stroke="#9A8484" d="M709 338C709 334.69 711.69 332 715 332C718.31 332 721 334.69 721 338C721 341.31 718.31 344 715 344C711.69 344 709 341.31 709 338M709 338C709 334.69 711.69 332 715 332C718.31 332 721 334.69 721 338C721 341.31 718.31 344 715 344C711.69 344 709 341.31 709 338" /><text transform="matrix(1 0 0 1 686 348)" fill="#595959" stroke="none"><tspan dx="0 " x="0" y="10">Service Call</tspan></text><rect stroke="none" fill="#F9EAEA" x="189" y="205" width="109" height="263" /><rect stroke="#9A8484" x="189" y="205" width="109" height="264" /><text transform="matrix(1 0 0 1 210 214)" fill="#595959" font-weight="bold" stroke="none"><tspan dx="0 " x="0" y="10">IPA Service</tspan></text><rect stroke="none" fill="#F9EAEA" x="283" y="210" width="10" height="16" /><rect stroke="#9A8484" x="283" y="210" width="10" height="17" /><rect stroke="none" fill="#F9EAEA" x="280" y="212" width="6" height="4" /><rect stroke="#9A8484" x="280" y="212" width="6" height="5" /><rect stroke="none" fill="#F9EAEA" x="280" y="219" width="6" height="4" /><rect stroke="#9A8484" x="280" y="219" width="6" height="5" /><rect stroke="none" fill="#DAEAFC" x="181" y="258" width="14" height="14" /><rect stroke="#9A8484" x="181" y="258" width="14" height="15" /><rect stroke="none" fill="#DAEAFC" x="181" y="426" width="14" height="14" /><rect stroke="#9A8484" x="181" y="426" width="14" height="15" /><rect stroke="none" fill="#DAEAFC" x="292" y="427" width="14" height="14" /><rect stroke="#9A8484" x="292" y="427" width="14" height="15" /><rect stroke="none" fill="#DAEAFC" x="236" y="198" width="14" height="14" /><rect stroke="#9A8484" x="236" y="198" width="14" height="15" /><rect stroke="none" fill="#DAEAFC" x="181" y="213" width="14" height="14" /><rect stroke="#9A8484" x="181" y="213" width="14" height="15" /><rect stroke="none" fill="#DAEAFC" x="292" y="378" width="14" height="14" /><rect stroke="#9A8484" x="292" y="378" width="14" height="15" /><path stroke="#9A8484" d="M181 264H155m-7 6C148 270 148 270 148 270C151.31 270 154 267.31 154 264C154 260.71 151.29 258 148 258" /><text transform="matrix(1 0 0 1 134 274)" fill="#595959" stroke="none"><tspan dx="0 " x="0" y="10">Client Input</tspan></text><path stroke="#9A8484" d="M181 432H155" /><path stroke="none" fill="#F1ECFA" d="M142 432C142 428.69 144.69 426 148 426C151.31 426 154 428.69 154 432C154 435.31 151.31 438 148 438C144.69 438 142 435.31 142 432" /><path stroke="#9A8484" d="M142 432C142 428.69 144.69 426 148 426C151.31 426 154 428.69 154 432C154 435.31 151.31 438 148 438C144.69 438 142 435.31 142 432M142 432C142 428.69 144.69 426 148 426C151.31 426 154 428.69 154 432C154 435.31 151.31 438 148 438C144.69 438 142 435.31 142 432" /><text transform="matrix(1 0 0 1 117 442)" fill="#595959" stroke="none"><tspan dx="0 " x="0" y="10">Client Response</tspan></text><path stroke="#9A8484" d="M181 219H155" /><path stroke="none" fill="#F1ECFA" d="M142 219C142 215.69 144.69 213 148 213C151.31 213 154 215.69 154 219C154 222.31 151.31 225 148 225C144.69 225 142 222.31 142 219" /><path stroke="#9A8484" d="M142 219C142 215.69 144.69 213 148 213C151.31 213 154 215.69 154 219C154 222.31 151.31 225 148 225C144.69 225 142 222.31 142 219M142 219C142 215.69 144.69 213 148 213C151.31 213 154 215.69 154 219C154 222.31 151.31 225 148 225C144.69 225 142 222.31 142 219" /><text transform="matrix(1 0 0 1 88 229)" fill="#595959" stroke="none"><tspan dx="0 " x="0" y="10">Forwarded Client Input</tspan></text><rect stroke="none" fill="#F9EAEA" x="369" y="210" width="109" height="59" /><rect stroke="#9A8484" x="369" y="210" width="109" height="60" /><text transform="matrix(1 0 0 1 401 219)" fill="#595959" font-weight="bold" stroke="none"><tspan dx="0 " x="0" y="10">Dialog</tspan></text><text transform="matrix(1 0 0 1 385 232)" fill="#595959" font-weight="bold" stroke="none"><tspan dx="0 " x="0" y="10">Management</tspan></text><rect stroke="none" fill="#F9EAEA" x="463" y="215" width="10" height="16" /><rect stroke="#9A8484" x="463" y="215" width="10" height="17" /><rect stroke="none" fill="#F9EAEA" x="460" y="217" width="6" height="4" /><rect stroke="#9A8484" x="460" y="217" width="6" height="5" /><rect stroke="none" fill="#F9EAEA" x="460" y="224" width="6" height="4" /><rect stroke="#9A8484" x="460" y="224" width="6" height="5" /><rect stroke="none" fill="#DAEAFC" x="414" y="203" width="14" height="14" /><rect stroke="#9A8484" x="414" y="203" width="14" height="15" /><rect stroke="none" fill="#DAEAFC" x="414" y="263" width="14" height="14" /><rect stroke="#9A8484" x="414" y="263" width="14" height="15" /><rect stroke="none" fill="#DAEAFC" x="472" y="218" width="14" height="14" /><rect stroke="#9A8484" x="472" y="218" width="14" height="15" /><rect stroke="none" fill="#DAEAFC" x="472" y="258" width="14" height="14" /><rect stroke="#9A8484" x="472" y="258" width="14" height="15" /><rect stroke="none" fill="#F9EAEA" x="369" y="404" width="109" height="59" /><rect stroke="#9A8484" x="369" y="404" width="109" height="60" /><text transform="matrix(1 0 0 1 406 413)" fill="#595959" font-weight="bold" stroke="none"><tspan dx="0 " x="0" y="10">TTS</tspan></text><rect stroke="none" fill="#F9EAEA" x="463" y="409" width="10" height="16" /><rect stroke="#9A8484" x="463" y="409" width="10" height="17" /><rect stroke="none" fill="#F9EAEA" x="460" y="411" width="6" height="4" /><rect stroke="#9A8484" x="460" y="411" width="6" height="5" /><rect stroke="none" fill="#F9EAEA" x="460" y="418" width="6" height="4" /><rect stroke="#9A8484" x="460" y="418" width="6" height="5" /><rect stroke="none" fill="#DAEAFC" x="361" y="427" width="14" height="14" /><rect stroke="#9A8484" x="361" y="427" width="14" height="15" /><rect stroke="none" fill="#DAEAFC" x="472" y="430" width="14" height="14" /><rect stroke="#9A8484" x="472" y="430" width="14" height="15" /><rect stroke="none" fill="#F9EAEA" x="189" y="101" width="109" height="59" /><rect stroke="#9A8484" x="189" y="101" width="109" height="60" /><text transform="matrix(1 0 0 1 225 110)" fill="#595959" font-weight="bold" stroke="none"><tspan dx="0 " x="0" y="10">ASR</tspan></text><rect stroke="none" fill="#F9EAEA" x="283" y="106" width="10" height="16" /><rect stroke="#9A8484" x="283" y="106" width="10" height="17" /><rect stroke="none" fill="#F9EAEA" x="280" y="108" width="6" height="4" /><rect stroke="#9A8484" x="280" y="108" width="6" height="5" /><rect stroke="none" fill="#F9EAEA" x="280" y="115" width="6" height="4" /><rect stroke="#9A8484" x="280" y="115" width="6" height="5" /><rect stroke="none" fill="#DAEAFC" x="236" y="154" width="14" height="14" /><rect stroke="#9A8484" x="236" y="154" width="14" height="15" /><rect stroke="none" fill="#DAEAFC" x="292" y="126" width="14" height="14" /><rect stroke="#9A8484" x="292" y="126" width="14" height="15" /><rect stroke="none" fill="#F9EAEA" x="369" y="307" width="109" height="59" /><rect stroke="#9A8484" x="369" y="307" width="109" height="60" /><text transform="matrix(1 0 0 1 399 316)" fill="#595959" font-weight="bold" stroke="none"><tspan dx="0 " x="0" y="10">Dialogs</tspan></text><rect stroke="none" fill="#F9EAEA" x="463" y="312" width="10" height="16" /><rect stroke="#9A8484" x="463" y="312" width="10" height="17" /><rect stroke="none" fill="#F9EAEA" x="460" y="314" width="6" height="4" /><rect stroke="#9A8484" x="460" y="314" width="6" height="5" /><rect stroke="none" fill="#F9EAEA" x="460" y="321" width="6" height="4" /><rect stroke="#9A8484" x="460" y="321" width="6" height="5" /><rect stroke="none" fill="#DAEAFC" x="414" y="300" width="14" height="14" /><rect stroke="#9A8484" x="414" y="300" width="14" height="15" /><rect stroke="none" fill="#DAEAFC" x="472" y="333" width="14" height="14" /><rect stroke="#9A8484" x="472" y="333" width="14" height="15" /><path stroke="#9A8484" d="M487 339h26" /><path stroke="none" fill="#F1ECFA" d="M513 339C513 335.69 515.69 333 519 333C522.31 333 525 335.69 525 339C525 342.31 522.31 345 519 345C515.69 345 513 342.31 513 339" /><path stroke="#9A8484" d="M513 339C513 335.69 515.69 333 519 333C522.31 333 525 335.69 525 339C525 342.31 522.31 345 519 345C515.69 345 513 342.31 513 339M513 339C513 335.69 515.69 333 519 333C522.31 333 525 335.69 525 339C525 342.31 522.31 345 519 345C515.69 345 513 342.31 513 339" /><text transform="matrix(1 0 0 1 490 349)" fill="#595959" stroke="none"><tspan dx="0 " x="0" y="10">Service Call</tspan></text><rect stroke="none" fill="#F9EAEA" x="536" y="101" width="109" height="59" /><rect stroke="#9A8484" x="536" y="101" width="109" height="60" /><text transform="matrix(1 0 0 1 565 110)" fill="#595959" font-weight="bold" stroke="none"><tspan dx="0 " x="0" y="10">Context</tspan></text><rect stroke="none" fill="#F9EAEA" x="630" y="106" width="10" height="16" /><rect stroke="#9A8484" x="630" y="106" width="10" height="17" /><rect stroke="none" fill="#F9EAEA" x="627" y="108" width="6" height="4" /><rect stroke="#9A8484" x="627" y="108" width="6" height="5" /><rect stroke="none" fill="#F9EAEA" x="627" y="115" width="6" height="4" /><rect stroke="#9A8484" x="627" y="115" width="6" height="5" /><rect stroke="none" fill="#DAEAFC" x="528" y="123" width="14" height="14" /><rect stroke="#9A8484" x="528" y="123" width="14" height="15" /><rect stroke="none" fill="#DAEAFC" x="550" y="154" width="14" height="14" /><rect stroke="#9A8484" x="550" y="154" width="14" height="15" /><rect stroke="none" fill="#F9EAEA" x="369" y="101" width="109" height="59" /><rect stroke="#9A8484" x="369" y="101" width="109" height="60" /><text transform="matrix(1 0 0 1 404 110)" fill="#595959" font-weight="bold" stroke="none"><tspan dx="0 " x="0" y="10">NLU</tspan></text><rect stroke="none" fill="#F9EAEA" x="463" y="106" width="10" height="16" /><rect stroke="#9A8484" x="463" y="106" width="10" height="17" /><rect stroke="none" fill="#F9EAEA" x="460" y="108" width="6" height="4" /><rect stroke="#9A8484" x="460" y="108" width="6" height="5" /><rect stroke="none" fill="#F9EAEA" x="460" y="115" width="6" height="4" /><rect stroke="#9A8484" x="460" y="115" width="6" height="5" /><rect stroke="none" fill="#DAEAFC" x="361" y="126" width="14" height="14" /><rect stroke="#9A8484" x="361" y="126" width="14" height="15" /><rect stroke="none" fill="#DAEAFC" x="414" y="154" width="14" height="14" /><rect stroke="#9A8484" x="414" y="154" width="14" height="15" /><rect stroke="none" fill="#DAEAFC" x="472" y="123" width="14" height="14" /><rect stroke="#9A8484" x="472" y="123" width="14" height="15" /><rect stroke="none" fill="#F9EAEA" x="536" y="404" width="109" height="59" /><rect stroke="#9A8484" x="536" y="404" width="109" height="60" /><text transform="matrix(1 0 0 1 572 413)" fill="#595959" font-weight="bold" stroke="none"><tspan dx="0 " x="0" y="10">NLG</tspan></text><rect stroke="none" fill="#F9EAEA" x="630" y="409" width="10" height="16" /><rect stroke="#9A8484" x="630" y="409" width="10" height="17" /><rect stroke="none" fill="#F9EAEA" x="627" y="411" width="6" height="4" /><rect stroke="#9A8484" x="627" y="411" width="6" height="5" /><rect stroke="none" fill="#F9EAEA" x="627" y="418" width="6" height="4" /><rect stroke="#9A8484" x="627" y="418" width="6" height="5" /><rect stroke="none" fill="#DAEAFC" x="554" y="397" width="14" height="14" /><rect stroke="#9A8484" x="554" y="397" width="14" height="15" /><rect stroke="none" fill="#DAEAFC" x="604" y="397" width="14" height="14" /><rect stroke="#9A8484" x="604" y="397" width="14" height="15" /><rect stroke="none" fill="#DAEAFC" x="528" y="430" width="14" height="14" /><rect stroke="#9A8484" x="528" y="430" width="14" height="15" /><path stroke="#69738C" d="M361 133H344M333.86 141.46C338.73 141.02 342.5 136.89 342.5 132C342.5 127.18 338.84 123.09 334.05 122.56M327 133H307" /><path stroke="none" fill="#FAF1EC" d="M327 132.5C327 128.91 329.91 126 333.5 126C337.09 126 340 128.91 340 132.5C340 136.09 337.09 139 333.5 139C329.91 139 327 136.09 327 132.5" /><path stroke="#69738C" d="M327 132.5C327 128.91 329.91 126 333.5 126C337.09 126 340 128.91 340 132.5C340 136.09 337.09 139 333.5 139C329.91 139 327 136.09 327 132.5M243 169v5M251.45 182.95C251.48 182.63 251.5 182.32 251.5 182C252 177.25 247.75 173 242.5 173C237.25 173 233 177.25 233 182.5C232.5 182.35 232.52 182.7 232.56 183.05M243 190v8" /><path stroke="none" fill="#FAF1EC" d="M236 182.5C236 178.91 238.91 176 242.5 176C246.09 176 249 178.91 249 182.5C249 186.09 246.09 189 242.5 189C238.91 189 236 186.09 236 182.5" /><path stroke="#69738C" d="M236 182.5C236 178.91 238.91 176 242.5 176C246.09 176 249 178.91 249 182.5C249 186.09 246.09 189 242.5 189C238.91 189 236 186.09 236 182.5M162 70v7m-1 4v7m-1 4v7m-1 4v7m-1 4v7m-1 4l-1 7m0 4l-1 7m0 4l-1 7m0 4l-1 7m0 4l-1 7m0 4l-1 7m0 4l-1 7m0 4l-1 7" /><path stroke="#69738C" stroke-dasharray="7,4" d="M668 70L166 70" /><path stroke="#69738C" fill="#FAF1EC" d="M653 76V64l15 6l-15 6" /><path stroke="#69738C" d="M421 300v-2M410.56 289.05C411.09 293.84 415.18 297.5 420 297.5C424.86 297.5 428.97 293.78 429.45 288.95M421 283v-5" /><path stroke="none" fill="#FAF1EC" d="M414 288.5C414 284.91 416.91 282 420.5 282C424.09 282 427 284.91 427 288.5C427 292.09 424.09 295 420.5 295C416.91 295 414 292.09 414 288.5" /><path stroke="#69738C" d="M414 288.5C414 284.91 416.91 282 420.5 282C424.09 282 427 284.91 427 288.5C427 292.09 424.09 295 420.5 295C416.91 295 414 292.09 414 288.5M487 130h11M507.18 119.57C506.79 119.52 506.39 119.5 506 119.5C501.25 120 497 124.25 497 129.5C497 134.75 501.25 139 506.5 139C506.32 138.5 506.63 138.48 506.95 138.45M513 130h15" /><path stroke="none" fill="#FAF1EC" d="M500 129.5C500 125.91 502.91 123 506.5 123C510.09 123 513 125.91 513 129.5C513 133.09 510.09 136 506.5 136C502.91 136 500 133.09 500 129.5" /><path stroke="#69738C" d="M500 129.5C500 125.91 502.91 123 506.5 123C510.09 123 513 125.91 513 129.5C513 133.09 510.09 136 506.5 136C502.91 136 500 133.09 500 129.5M487 218l24 -20M510.92 183.7C508.75 185.51 507.5 188.18 507.5 191C508 196.75 512.25 201 517.5 201C519.06 200.5 521.06 199.83 522.7 198.6M522 189l28 -23" /><path stroke="none" fill="#FAF1EC" d="M511 191.5C511 187.91 513.91 185 517.5 185C521.09 185 524 187.91 524 191.5C524 195.09 521.09 198 517.5 198C513.91 198 511 195.09 511 191.5" /><path stroke="#69738C" d="M511 191.5C511 187.91 513.91 185 517.5 185C521.09 185 524 187.91 524 191.5C524 195.09 521.09 198 517.5 198C513.91 198 511 195.09 511 191.5M307 434h18M334.18 423.57C333.79 423.52 333.39 423.5 333 423.5C328.25 424 324 428.25 324 433.5C324 438.75 328.25 443 333.5 443C333.32 442.5 333.63 442.48 333.95 442.45M340 434h21" /><path stroke="none" fill="#FAF1EC" d="M327 433.5C327 429.91 329.91 427 333.5 427C337.09 427 340 429.91 340 433.5C340 437.09 337.09 440 333.5 440C329.91 440 327 437.09 327 433.5" /><path stroke="#69738C" d="M327 433.5C327 429.91 329.91 427 333.5 427C337.09 427 340 429.91 340 433.5C340 437.09 337.09 440 333.5 440C329.91 440 327 437.09 327 433.5M619 400l42 -21m0 0V89" /><path stroke="#69738C" d="M535 89v34" /><path stroke="#69738C" d="M661 89H608M597.86 97.46C602.73 97.02 606.5 92.89 606.5 88C606.5 83.18 602.84 79.09 598.05 78.56M591 89H535" /><path stroke="none" fill="#FAF1EC" d="M591 88.5C591 84.91 593.91 82 597.5 82C601.09 82 604 84.91 604 88.5C604 92.09 601.09 95 597.5 95C593.91 95 591 92.09 591 88.5" /><path stroke="#69738C" d="M591 88.5C591 84.91 593.91 82 597.5 82C601.09 82 604 84.91 604 88.5C604 92.09 601.09 95 597.5 95C593.91 95 591 92.09 591 88.5M482 348l16 36m0 0H412M401.86 392.46C406.73 392.02 410.5 387.89 410.5 383C410.5 378.18 406.84 374.09 402.05 373.56M395 384H307" /><path stroke="none" fill="#FAF1EC" d="M395 383.5C395 379.91 397.91 377 401.5 377C405.09 377 408 379.91 408 383.5C408 387.09 405.09 390 401.5 390C397.91 390 395 387.09 395 383.5" /><path stroke="#69738C" d="M395 383.5C395 379.91 397.91 377 401.5 377C405.09 377 408 379.91 408 383.5C408 387.09 405.09 390 401.5 390C397.91 390 395 387.09 395 383.5M421 203v-8M410.56 186.05C411.09 190.84 415.18 194.5 420 194.5C424.86 194.5 428.97 190.78 429.45 185.95M421 180V169" /><path stroke="none" fill="#FAF1EC" d="M414 185.5C414 181.91 416.91 179 420.5 179C424.09 179 427 181.91 427 185.5C427 189.09 424.09 192 420.5 192C416.91 192 414 189.09 414 185.5" /><path stroke="#69738C" d="M414 185.5C414 181.91 416.91 179 420.5 179C424.09 179 427 181.91 427 185.5C427 189.09 424.09 192 420.5 192C416.91 192 414 189.09 414 185.5M487 437h11M507.18 426.57C506.79 426.52 506.39 426.5 506 426.5C501.25 427 497 431.25 497 436.5C497 441.75 501.25 446 506.5 446C506.32 445.5 506.63 445.48 506.95 445.45M513 437h15" /><path stroke="none" fill="#FAF1EC" d="M500 436.5C500 432.91 502.91 430 506.5 430C510.09 430 513 432.91 513 436.5C513 440.09 510.09 443 506.5 443C502.91 443 500 440.09 500 436.5" /><path stroke="#69738C" d="M500 436.5C500 432.91 502.91 430 506.5 430C510.09 430 513 432.91 513 436.5C513 440.09 510.09 443 506.5 443C502.91 443 500 440.09 500 436.5M146 258l-1 -7m-2 -4l-2 -7m-1 -4l-2 -7m-1 -4l-2 -7m-1 -4l-2 -7m-1 -4l-2 -5" /><path stroke="#69738C" fill="#FAF1EC" d="M136 245l12 -3l-2 16L136 245" /><path stroke="#69738C" d="M131 398l3 7m2 4l4 7m2 4l3 6" /><path stroke="#69738C" fill="#FAF1EC" d="M143 409l-11 5l-1 -16l12 11" /><path stroke="#69738C" stroke-dasharray="7,4" d="M446 184L668 184" /><path stroke="#69738C" d="M427 203l7 -7m4 -4l7 -7" /><path stroke="#69738C" fill="#FAF1EC" d="M433 188l9 9l-15 6l6 -15" /><path stroke="#69738C" stroke-dasharray="7,4" d="M668 339L529 339" /><path stroke="#69738C" fill="#FAF1EC" d="M653 345V333l15 6l-15 6" /><path stroke="#69738C" d="M560 397L559 264m0 0H533M522.86 272.46C527.73 272.02 531.5 267.89 531.5 263C531.5 258.18 527.84 254.09 523.05 253.56M516 264H487" /><path stroke="none" fill="#FAF1EC" d="M516 263.5C516 259.91 518.91 257 522.5 257C526.09 257 529 259.91 529 263.5C529 267.09 526.09 270 522.5 270C518.91 270 516 267.09 516 263.5" /><path stroke="#69738C" d="M516 263.5C516 259.91 518.91 257 522.5 257C526.09 257 529 259.91 529 263.5C529 267.09 526.09 270 522.5 270C518.91 270 516 267.09 516 263.5" /><g transform="matrix(1 0 0 -1 314 404)"><rect fill="#F9EAEA" stroke="none" x="0" width="47" y="-13" height="13" /></g><text transform="matrix(1 0 0 1 314 404)" fill="#595959" stroke="none"><tspan dx="0 " x="0" y="10">TTS Output</tspan></text><g transform="matrix(1 0 0 -1 486 412)"><rect fill="#F9EAEA" stroke="none" x="0" width="49" y="-13" height="13" /></g><text transform="matrix(1 0 0 1 486 412)" fill="#595959" stroke="none"><tspan dx="0 " x="0" y="10">Text Output</tspan></text><g transform="matrix(1 0 0 -1 308 183)"><rect fill="#F9EAEA" stroke="none" x="0" width="98" y="-13" height="13" /></g><text transform="matrix(1 0 0 1 308 183)" fill="#595959" stroke="none"><tspan dx="0 " x="0" y="10">S</tspan><tspan dx="0 " x="4.333333" y="10">e</tspan><tspan dx="0 " x="9.333333" y="10">m</tspan><tspan dx="0 " x="17.33333" y="10">a</tspan><tspan dx="0 " x="22" y="10">n</tspan><tspan dx="0 0 " x="27.33333" y="10">ti</tspan><tspan dx="0 " x="33" y="10">c</tspan><tspan dx="0 " x="37.33333" y="10"> </tspan><tspan dx="0 " x="39.66666" y="10">I</tspan><tspan dx="0 " x="42.33333" y="10">n</tspan><tspan dx="0 " x="47.66666" y="10">t</tspan><tspan dx="0 " x="51" y="10">e</tspan><tspan dx="0 " x="56" y="10">r</tspan><tspan dx="0 " x="59.66666" y="10">p</tspan><tspan dx="0 " x="65" y="10">r</tspan><tspan dx="0 " x="68.66666" y="10">e</tspan><tspan dx="0 " x="73.66666" y="10">t</tspan><tspan dx="0 " x="77" y="10">a</tspan><tspan dx="0 0 " x="81.66666" y="10">ti</tspan><tspan dx="0 " x="87.33333" y="10">o</tspan><tspan dx="0 " x="92.66666" y="10">n</tspan></text><g transform="matrix(1 0 0 -1 437 280)"><rect fill="#F9EAEA" stroke="none" x="0" width="83" y="-13" height="13" /></g><text transform="matrix(1 0 0 1 437 280)" fill="#595959" stroke="none"><tspan dx="0 " x="0" y="10">S</tspan><tspan dx="0 " x="4.333333" y="10">p</tspan><tspan dx="0 " x="9.666666" y="10">e</tspan><tspan dx="0 " x="14.66667" y="10">c</tspan><tspan dx="0 " x="19" y="10">i</tspan><tspan dx="0 0 " x="21.33333" y="10">fi</tspan><tspan dx="0 " x="26.66666" y="10">c</tspan><tspan dx="0 " x="31" y="10"> </tspan><tspan dx="0 " x="33.33333" y="10">D</tspan><tspan dx="0 " x="39.33333" y="10">i</tspan><tspan dx="0 " x="41.66666" y="10">a</tspan><tspan dx="0 " x="46.33333" y="10">l</tspan><tspan dx="0 " x="48.66666" y="10">o</tspan><tspan dx="0 " x="53.99999" y="10">g</tspan><tspan dx="0 " x="58.66666" y="10"> </tspan><tspan dx="0 " x="60.99999" y="10">I</tspan><tspan dx="0 " x="63.66666" y="10">n</tspan><tspan dx="0 " x="68.99999" y="10">p</tspan><tspan dx="0 " x="74.33333" y="10">u</tspan><tspan dx="0 " x="79.66666" y="10">t</tspan></text><g transform="matrix(1 0 0 -1 409 368)"><rect fill="#F9EAEA" stroke="none" x="0" width="47" y="-13" height="13" /></g><text transform="matrix(1 0 0 1 409 368)" fill="#595959" stroke="none"><tspan dx="0 " x="0" y="10">Service Call</tspan></text><g transform="matrix(1 0 0 -1 520 198)"><rect fill="#F9EAEA" stroke="none" x="0" width="61" y="-13" height="13" /></g><text transform="matrix(1 0 0 1 520 198)" fill="#595959" stroke="none"><tspan dx="0 " x="0" y="10">History Update</tspan></text><g transform="matrix(1 0 0 -1 258 170)"><rect fill="#F9EAEA" stroke="none" x="0" width="41" y="-13" height="13" /></g><text transform="matrix(1 0 0 1 258 170)" fill="#595959" stroke="none"><tspan dx="0 " x="0" y="10">ASR Input</tspan></text><g transform="matrix(1 0 0 -1 485 83)"><rect fill="#F9EAEA" stroke="none" x="0" width="93" y="-13" height="13" /></g><text transform="matrix(1 0 0 1 485 83)" fill="#595959" stroke="none"><tspan dx="0 " x="0" y="10">Contextual Enrichment</tspan></text><g transform="matrix(1 0 0 -1 464 142)"><rect fill="#F9EAEA" stroke="none" x="0" width="93" y="-13" height="13" /></g><text transform="matrix(1 0 0 1 464 142)" fill="#595959" stroke="none"><tspan dx="0 " x="0" y="10">Contextual enrichment</tspan></text><g transform="matrix(1 0 0 -1 314 99)"><rect fill="#F9EAEA" stroke="none" x="0" width="41" y="-13" height="13" /></g><text transform="matrix(1 0 0 1 314 99)" fill="#595959" stroke="none"><tspan dx="0 " x="0" y="10">NLU Input</tspan></text><g transform="matrix(1 0 0 -1 538 271)"><rect fill="#F9EAEA" stroke="none" x="0" width="68" y="-13" height="13" /></g><text transform="matrix(1 0 0 1 538 271)" fill="#595959" stroke="none"><tspan dx="0 " x="0" y="10">Dialog Response</tspan></text></g></g></g></g></svg>