<?xml version="1.0" encoding="utf-8"?><svg version="1.1" preserveAspectRatio="xMidYMid" xml:space="preserve" width="309.78201pt" height="222.77053400000003pt" viewBox="15.196190000000001 -0.07663400000000031 309.78201 222.77053400000003" xmlns="http://www.w3.org/2000/svg" xmlns:xlink="http://www.w3.org/1999/xlink"><g transform="matrix(1 0 0 -1 0 541)"><g stroke="#000000" fill="none" fill-rule="evenodd" stroke-width="1" stroke-linecap="round" stroke-linejoin="round" stroke-miterlimit="3" letter-spacing="normal" font-weight="normal" font-style="normal" baseline-shift="0"><g transform="matrix(0.6 0 0 0.6 0 541.400024)"><g transform="matrix(0.72944 0 0 -0.730122 0 0)" font-family="CalibriUnicode" font-size="8"><rect fill="#D0D0D0" stroke="none" x="95" y="260" width="15" height="15" /><rect stroke="none" fill="#DAEAFC" x="92" y="257" width="14" height="14" /><rect stroke="#9A8484" x="92" y="257" width="14" height="15" /><rect stroke="#9A8484" x="92" y="257" width="14" height="14" /><rect fill="#D0D0D0" stroke="none" x="672" y="66" width="15" height="15" /><rect stroke="none" fill="#DAEAFC" x="669" y="63" width="14" height="14" /><rect stroke="#9A8484" x="669" y="63" width="14" height="15" /><rect stroke="#9A8484" x="669" y="63" width="14" height="14" /><rect fill="#D0D0D0" stroke="none" x="672" y="335" width="15" height="15" /><rect stroke="none" fill="#DAEAFC" x="669" y="332" width="14" height="14" /><rect stroke="#9A8484" x="669" y="332" width="14" height="15" /><rect stroke="#9A8484" x="669" y="332" width="14" height="14" /><rect fill="#D0D0D0" stroke="none" x="100" y="22" width="579" height="469" /><rect stroke="none" fill="#F9EAEA" x="97" y="19" width="578" height="468" /><rect stroke="#9A8484" x="97" y="19" width="578" height="469" /><rect stroke="#9A8484" x="97" y="19" width="578" height="468" /><text transform="matrix(1 0 0 1 366 28)" fill="#595959" font-weight="bold" stroke="none"><tspan dx="0 " x="0" y="8">Dialog</tspan></text><path stroke="#9A8484" d="M97 43H675" /><rect stroke="none" fill="#F9EAEA" x="660" y="24" width="10" height="16" /><rect stroke="#9A8484" x="660" y="24" width="10" height="17" /><rect stroke="none" fill="#F9EAEA" x="657" y="26" width="6" height="4" /><rect stroke="#9A8484" x="657" y="26" width="6" height="5" /><rect stroke="none" fill="#F9EAEA" x="657" y="33" width="6" height="4" /><rect stroke="#9A8484" x="657" y="33" width="6" height="5" /><rect stroke="none" fill="#DAEAFC" x="92" y="257" width="14" height="14" /><rect stroke="#9A8484" x="92" y="257" width="14" height="15" /><rect stroke="#9A8484" x="92" y="257" width="14" height="14" /><rect stroke="none" fill="#DAEAFC" x="669" y="63" width="14" height="14" /><rect stroke="#9A8484" x="669" y="63" width="14" height="15" /><rect stroke="#9A8484" x="669" y="63" width="14" height="14" /><rect stroke="none" fill="#DAEAFC" x="669" y="332" width="14" height="14" /><rect stroke="#9A8484" x="669" y="332" width="14" height="15" /><rect stroke="#9A8484" x="669" y="332" width="14" height="14" /><path stroke="#9A8484" d="M92 263H66" /><path stroke="none" fill="#F1ECFA" d="M53 263C53 259.69 55.69 257 59 257C62.31 257 65 259.69 65 263C65 266.31 62.31 269 59 269C55.69 269 53 266.31 53 263" /><path stroke="#9A8484" d="M53 263C53 259.69 55.69 257 59 257C62.31 257 65 259.69 65 263C65 266.31 62.31 269 59 269C55.69 269 53 266.31 53 263M53 263C53 259.69 55.69 257 59 257C62.31 257 65 259.69 65 263C65 266.31 62.31 269 59 269C55.69 269 53 266.31 53 263" /><text transform="matrix(1 0 0 1 66 273)" fill="#595959" stroke="none"><tspan dx="0 " x="0" y="8">Client</tspan></text><text transform="matrix(1 0 0 1 66 283)" fill="#595959" stroke="none"><tspan dx="0 " x="0" y="8">Input</tspan></text><path stroke="#9A8484" d="M684 69h26M716.99 63.08C716.66 63.03 716.33 63 716 63C712.69 63 710 65.69 710 69C710 72.31 712.69 75 716 75C716.28 75 716.57 74.98 716.85 74.94" /><text transform="matrix(1 0 0 1 695 79)" fill="#595959" stroke="none"><tspan dx="0 " x="0" y="8">External</tspan></text><text transform="matrix(1 0 0 1 700 89)" fill="#595959" stroke="none"><tspan dx="0 " x="0" y="8">Client</tspan></text><text transform="matrix(1 0 0 1 700 99)" fill="#595959" stroke="none"><tspan dx="0 " x="0" y="8">Input</tspan></text><path stroke="#9A8484" d="M684 338h26M716.99 332.08C716.66 332.03 716.33 332 716 332C712.69 332 710 334.69 710 338C710 341.31 712.69 344 716 344C716.28 344 716.57 343.98 716.85 343.94" /><text transform="matrix(1 0 0 1 695 348)" fill="#595959" stroke="none"><tspan dx="0 " x="0" y="8">External</tspan></text><text transform="matrix(1 0 0 1 697 358)" fill="#595959" stroke="none"><tspan dx="0 " x="0" y="8">Service</tspan></text><text transform="matrix(1 0 0 1 703 368)" fill="#595959" stroke="none"><tspan dx="0 " x="0" y="8">Call</tspan></text><rect stroke="none" fill="#F9EAEA" x="189" y="205" width="109" height="263" /><rect stroke="#9A8484" x="189" y="205" width="109" height="264" /><text transform="matrix(1 0 0 1 215 214)" fill="#595959" font-weight="bold" stroke="none"><tspan dx="0 " x="0" y="8">IPA Service</tspan></text><rect stroke="none" fill="#F9EAEA" x="283" y="210" width="10" height="16" /><rect stroke="#9A8484" x="283" y="210" width="10" height="17" /><rect stroke="none" fill="#F9EAEA" x="280" y="212" width="6" height="4" /><rect stroke="#9A8484" x="280" y="212" width="6" height="5" /><rect stroke="none" fill="#F9EAEA" x="280" y="219" width="6" height="4" /><rect stroke="#9A8484" x="280" y="219" width="6" height="5" /><rect stroke="none" fill="#DAEAFC" x="181" y="258" width="14" height="14" /><rect stroke="#9A8484" x="181" y="258" width="14" height="15" /><rect stroke="none" fill="#DAEAFC" x="292" y="427" width="14" height="14" /><rect stroke="#9A8484" x="292" y="427" width="14" height="15" /><rect stroke="none" fill="#DAEAFC" x="236" y="198" width="14" height="14" /><rect stroke="#9A8484" x="236" y="198" width="14" height="15" /><rect stroke="none" fill="#DAEAFC" x="181" y="213" width="14" height="14" /><rect stroke="#9A8484" x="181" y="213" width="14" height="15" /><rect stroke="none" fill="#DAEAFC" x="292" y="378" width="14" height="14" /><rect stroke="#9A8484" x="292" y="378" width="14" height="15" /><path stroke="#9A8484" d="M181 264H155" /><path stroke="none" fill="#F1ECFA" d="M142 264C142 260.69 144.69 258 148 258C151.31 258 154 260.69 154 264C154 267.31 151.31 270 148 270C144.69 270 142 267.31 142 264" /><path stroke="#9A8484" d="M142 264C142 260.69 144.69 258 148 258C151.31 258 154 260.69 154 264C154 267.31 151.31 270 148 270C144.69 270 142 267.31 142 264M142 264C142 260.69 144.69 258 148 258C151.31 258 154 260.69 154 264C154 267.31 151.31 270 148 270C144.69 270 142 267.31 142 264" /><text transform="matrix(1 0 0 1 155 274)" fill="#595959" stroke="none"><tspan dx="0 " x="0" y="8">Client</tspan></text><text transform="matrix(1 0 0 1 155 284)" fill="#595959" stroke="none"><tspan dx="0 " x="0" y="8">Input</tspan></text><path stroke="#9A8484" d="M181 219H155" /><path stroke="none" fill="#F1ECFA" d="M142 219C142 215.69 144.69 213 148 213C151.31 213 154 215.69 154 219C154 222.31 151.31 225 148 225C144.69 225 142 222.31 142 219" /><path stroke="#9A8484" d="M142 219C142 215.69 144.69 213 148 213C151.31 213 154 215.69 154 219C154 222.31 151.31 225 148 225C144.69 225 142 222.31 142 219M142 219C142 215.69 144.69 213 148 213C151.31 213 154 215.69 154 219C154 222.31 151.31 225 148 225C144.69 225 142 222.31 142 219" /><text transform="matrix(1 0 0 1 107 229)" fill="#595959" stroke="none"><tspan dx="0 " x="0" y="8">External Client</tspan></text><text transform="matrix(1 0 0 1 122 239)" fill="#595959" stroke="none"><tspan dx="0 " x="0" y="8">Input</tspan></text><rect stroke="none" fill="#F9EAEA" x="369" y="210" width="109" height="59" /><rect stroke="#9A8484" x="369" y="210" width="109" height="60" /><text transform="matrix(1 0 0 1 380 219)" fill="#595959" font-weight="bold" stroke="none"><tspan dx="0 " x="0" y="8">Dialog Management</tspan></text><rect stroke="none" fill="#F9EAEA" x="463" y="215" width="10" height="16" /><rect stroke="#9A8484" x="463" y="215" width="10" height="17" /><rect stroke="none" fill="#F9EAEA" x="460" y="217" width="6" height="4" /><rect stroke="#9A8484" x="460" y="217" width="6" height="5" /><rect stroke="none" fill="#F9EAEA" x="460" y="224" width="6" height="4" /><rect stroke="#9A8484" x="460" y="224" width="6" height="5" /><rect stroke="none" fill="#DAEAFC" x="414" y="203" width="14" height="14" /><rect stroke="#9A8484" x="414" y="203" width="14" height="15" /><rect stroke="none" fill="#DAEAFC" x="414" y="263" width="14" height="14" /><rect stroke="#9A8484" x="414" y="263" width="14" height="15" /><rect stroke="none" fill="#DAEAFC" x="472" y="218" width="14" height="14" /><rect stroke="#9A8484" x="472" y="218" width="14" height="15" /><rect stroke="none" fill="#DAEAFC" x="472" y="258" width="14" height="14" /><rect stroke="#9A8484" x="472" y="258" width="14" height="15" /><rect stroke="none" fill="#F9EAEA" x="369" y="404" width="109" height="59" /><rect stroke="#9A8484" x="369" y="404" width="109" height="60" /><text transform="matrix(1 0 0 1 407 413)" fill="#595959" font-weight="bold" stroke="none"><tspan dx="0 " x="0" y="8">TTS</tspan></text><rect stroke="none" fill="#F9EAEA" x="463" y="409" width="10" height="16" /><rect stroke="#9A8484" x="463" y="409" width="10" height="17" /><rect stroke="none" fill="#F9EAEA" x="460" y="411" width="6" height="4" /><rect stroke="#9A8484" x="460" y="411" width="6" height="5" /><rect stroke="none" fill="#F9EAEA" x="460" y="418" width="6" height="4" /><rect stroke="#9A8484" x="460" y="418" width="6" height="5" /><rect stroke="none" fill="#DAEAFC" x="361" y="427" width="14" height="14" /><rect stroke="#9A8484" x="361" y="427" width="14" height="15" /><rect stroke="none" fill="#DAEAFC" x="472" y="430" width="14" height="14" /><rect stroke="#9A8484" x="472" y="430" width="14" height="15" /><rect stroke="none" fill="#F9EAEA" x="189" y="101" width="109" height="59" /><rect stroke="#9A8484" x="189" y="101" width="109" height="60" /><text transform="matrix(1 0 0 1 227 110)" fill="#595959" font-weight="bold" stroke="none"><tspan dx="0 " x="0" y="8">ASR</tspan></text><rect stroke="none" fill="#F9EAEA" x="283" y="106" width="10" height="16" /><rect stroke="#9A8484" x="283" y="106" width="10" height="17" /><rect stroke="none" fill="#F9EAEA" x="280" y="108" width="6" height="4" /><rect stroke="#9A8484" x="280" y="108" width="6" height="5" /><rect stroke="none" fill="#F9EAEA" x="280" y="115" width="6" height="4" /><rect stroke="#9A8484" x="280" y="115" width="6" height="5" /><rect stroke="none" fill="#DAEAFC" x="236" y="154" width="14" height="14" /><rect stroke="#9A8484" x="236" y="154" width="14" height="15" /><rect stroke="none" fill="#DAEAFC" x="292" y="126" width="14" height="14" /><rect stroke="#9A8484" x="292" y="126" width="14" height="15" /><rect stroke="none" fill="#F9EAEA" x="369" y="307" width="109" height="59" /><rect stroke="#9A8484" x="369" y="307" width="109" height="60" /><text transform="matrix(1 0 0 1 402 316)" fill="#595959" font-weight="bold" stroke="none"><tspan dx="0 " x="0" y="8">Dialogs</tspan></text><rect stroke="none" fill="#F9EAEA" x="463" y="312" width="10" height="16" /><rect stroke="#9A8484" x="463" y="312" width="10" height="17" /><rect stroke="none" fill="#F9EAEA" x="460" y="314" width="6" height="4" /><rect stroke="#9A8484" x="460" y="314" width="6" height="5" /><rect stroke="none" fill="#F9EAEA" x="460" y="321" width="6" height="4" /><rect stroke="#9A8484" x="460" y="321" width="6" height="5" /><rect stroke="none" fill="#DAEAFC" x="414" y="300" width="14" height="14" /><rect stroke="#9A8484" x="414" y="300" width="14" height="15" /><rect stroke="none" fill="#DAEAFC" x="472" y="333" width="14" height="14" /><rect stroke="#9A8484" x="472" y="333" width="14" height="15" /><path stroke="#9A8484" d="M487 339h26" /><path stroke="none" fill="#F1ECFA" d="M513 339C513 335.69 515.69 333 519 333C522.31 333 525 335.69 525 339C525 342.31 522.31 345 519 345C515.69 345 513 342.31 513 339" /><path stroke="#9A8484" d="M513 339C513 335.69 515.69 333 519 333C522.31 333 525 335.69 525 339C525 342.31 522.31 345 519 345C515.69 345 513 342.31 513 339M513 339C513 335.69 515.69 333 519 333C522.31 333 525 335.69 525 339C525 342.31 522.31 345 519 345C515.69 345 513 342.31 513 339" /><text transform="matrix(1 0 0 1 498 349)" fill="#595959" stroke="none"><tspan dx="0 " x="0" y="8">Service</tspan></text><text transform="matrix(1 0 0 1 504 359)" fill="#595959" stroke="none"><tspan dx="0 " x="0" y="8">Call</tspan></text><rect stroke="none" fill="#F9EAEA" x="536" y="101" width="109" height="59" /><rect stroke="#9A8484" x="536" y="101" width="109" height="60" /><text transform="matrix(1 0 0 1 568 110)" fill="#595959" font-weight="bold" stroke="none"><tspan dx="0 " x="0" y="8">Context</tspan></text><rect stroke="none" fill="#F9EAEA" x="630" y="106" width="10" height="16" /><rect stroke="#9A8484" x="630" y="106" width="10" height="17" /><rect stroke="none" fill="#F9EAEA" x="627" y="108" width="6" height="4" /><rect stroke="#9A8484" x="627" y="108" width="6" height="5" /><rect stroke="none" fill="#F9EAEA" x="627" y="115" width="6" height="4" /><rect stroke="#9A8484" x="627" y="115" width="6" height="5" /><rect stroke="none" fill="#DAEAFC" x="528" y="123" width="14" height="14" /><rect stroke="#9A8484" x="528" y="123" width="14" height="15" /><rect stroke="none" fill="#DAEAFC" x="550" y="154" width="14" height="14" /><rect stroke="#9A8484" x="550" y="154" width="14" height="15" /><rect stroke="none" fill="#F9EAEA" x="369" y="101" width="109" height="59" /><rect stroke="#9A8484" x="369" y="101" width="109" height="60" /><text transform="matrix(1 0 0 1 406 110)" fill="#595959" font-weight="bold" stroke="none"><tspan dx="0 " x="0" y="8">NLU</tspan></text><rect stroke="none" fill="#F9EAEA" x="463" y="106" width="10" height="16" /><rect stroke="#9A8484" x="463" y="106" width="10" height="17" /><rect stroke="none" fill="#F9EAEA" x="460" y="108" width="6" height="4" /><rect stroke="#9A8484" x="460" y="108" width="6" height="5" /><rect stroke="none" fill="#F9EAEA" x="460" y="115" width="6" height="4" /><rect stroke="#9A8484" x="460" y="115" width="6" height="5" /><rect stroke="none" fill="#DAEAFC" x="361" y="126" width="14" height="14" /><rect stroke="#9A8484" x="361" y="126" width="14" height="15" /><rect stroke="none" fill="#DAEAFC" x="414" y="154" width="14" height="14" /><rect stroke="#9A8484" x="414" y="154" width="14" height="15" /><rect stroke="none" fill="#DAEAFC" x="472" y="123" width="14" height="14" /><rect stroke="#9A8484" x="472" y="123" width="14" height="15" /><rect stroke="none" fill="#F9EAEA" x="536" y="404" width="109" height="59" /><rect stroke="#9A8484" x="536" y="404" width="109" height="60" /><text transform="matrix(1 0 0 1 574 413)" fill="#595959" font-weight="bold" stroke="none"><tspan dx="0 " x="0" y="8">NLG</tspan></text><rect stroke="none" fill="#F9EAEA" x="630" y="409" width="10" height="16" /><rect stroke="#9A8484" x="630" y="409" width="10" height="17" /><rect stroke="none" fill="#F9EAEA" x="627" y="411" width="6" height="4" /><rect stroke="#9A8484" x="627" y="411" width="6" height="5" /><rect stroke="none" fill="#F9EAEA" x="627" y="418" width="6" height="4" /><rect stroke="#9A8484" x="627" y="418" width="6" height="5" /><rect stroke="none" fill="#DAEAFC" x="554" y="397" width="14" height="14" /><rect stroke="#9A8484" x="554" y="397" width="14" height="15" /><rect stroke="none" fill="#DAEAFC" x="604" y="397" width="14" height="14" /><rect stroke="#9A8484" x="604" y="397" width="14" height="15" /><rect stroke="none" fill="#DAEAFC" x="528" y="430" width="14" height="14" /><rect stroke="#9A8484" x="528" y="430" width="14" height="15" /><path stroke="#69738C" d="M107 264h35m0 0l-15 5m15 -5l-15 -5" /><path stroke="#69738C" d="M673 78L645 178m0 0H451m0 0l-24 25m0 0l7 -14m-7 14l14 -7" /><path stroke="#69738C" d="M307 434h18M334.18 423.57C333.79 423.52 333.39 423.5 333 423.5C328.25 424 324 428.25 324 433.5C324 438.75 328.25 443 333.5 443C333.32 442.5 333.63 442.48 333.95 442.45M340 434h21" /><path stroke="none" fill="#FAF1EC" d="M327 433.5C327 429.91 329.91 427 333.5 427C337.09 427 340 429.91 340 433.5C340 437.09 337.09 440 333.5 440C329.91 440 327 437.09 327 433.5" /><path stroke="#69738C" d="M327 433.5C327 429.91 329.91 427 333.5 427C337.09 427 340 429.91 340 433.5C340 437.09 337.09 440 333.5 440C329.91 440 327 437.09 327 433.5M421 203v-8M410.56 186.05C411.09 190.84 415.18 194.5 420 194.5C424.86 194.5 428.97 190.78 429.45 185.95M421 180V169" /><path stroke="none" fill="#FAF1EC" d="M414 185.5C414 181.91 416.91 179 420.5 179C424.09 179 427 181.91 427 185.5C427 189.09 424.09 192 420.5 192C416.91 192 414 189.09 414 185.5" /><path stroke="#69738C" d="M414 185.5C414 181.91 416.91 179 420.5 179C424.09 179 427 181.91 427 185.5C427 189.09 424.09 192 420.5 192C416.91 192 414 189.09 414 185.5M487 218l24 -20M510.92 183.7C508.75 185.51 507.5 188.18 507.5 191C508 196.75 512.25 201 517.5 201C519.06 200.5 521.06 199.83 522.7 198.6M522 189l28 -23" /><path stroke="none" fill="#FAF1EC" d="M511 191.5C511 187.91 513.91 185 517.5 185C521.09 185 524 187.91 524 191.5C524 195.09 521.09 198 517.5 198C513.91 198 511 195.09 511 191.5" /><path stroke="#69738C" d="M511 191.5C511 187.91 513.91 185 517.5 185C521.09 185 524 187.91 524 191.5C524 195.09 521.09 198 517.5 198C513.91 198 511 195.09 511 191.5M487 437h11M507.18 426.57C506.79 426.52 506.39 426.5 506 426.5C501.25 427 497 431.25 497 436.5C497 441.75 501.25 446 506.5 446C506.32 445.5 506.63 445.48 506.95 445.45M513 437h15" /><path stroke="none" fill="#FAF1EC" d="M500 436.5C500 432.91 502.91 430 506.5 430C510.09 430 513 432.91 513 436.5C513 440.09 510.09 443 506.5 443C502.91 443 500 440.09 500 436.5" /><path stroke="#69738C" d="M500 436.5C500 432.91 502.91 430 506.5 430C510.09 430 513 432.91 513 436.5C513 440.09 510.09 443 506.5 443C502.91 443 500 440.09 500 436.5M243 169v5M251.45 182.95C251.48 182.63 251.5 182.32 251.5 182C252 177.25 247.75 173 242.5 173C237.25 173 233 177.25 233 182.5C232.5 182.35 232.52 182.7 232.56 183.05M243 190v8" /><path stroke="none" fill="#FAF1EC" d="M236 182.5C236 178.91 238.91 176 242.5 176C246.09 176 249 178.91 249 182.5C249 186.09 246.09 189 242.5 189C238.91 189 236 186.09 236 182.5" /><path stroke="#69738C" d="M236 182.5C236 178.91 238.91 176 242.5 176C246.09 176 249 178.91 249 182.5C249 186.09 246.09 189 242.5 189C238.91 189 236 186.09 236 182.5M421 300v-2M410.56 289.05C411.09 293.84 415.18 297.5 420 297.5C424.86 297.5 428.97 293.78 429.45 288.95M421 283v-5" /><path stroke="none" fill="#FAF1EC" d="M414 288.5C414 284.91 416.91 282 420.5 282C424.09 282 427 284.91 427 288.5C427 292.09 424.09 295 420.5 295C416.91 295 414 292.09 414 288.5" /><path stroke="#69738C" d="M414 288.5C414 284.91 416.91 282 420.5 282C424.09 282 427 284.91 427 288.5C427 292.09 424.09 295 420.5 295C416.91 295 414 292.09 414 288.5M482 348l16 36m0 0H412M401.86 392.46C406.73 392.02 410.5 387.89 410.5 383C410.5 378.18 406.84 374.09 402.05 373.56M395 384H307" /><path stroke="none" fill="#FAF1EC" d="M395 383.5C395 379.91 397.91 377 401.5 377C405.09 377 408 379.91 408 383.5C408 387.09 405.09 390 401.5 390C397.91 390 395 387.09 395 383.5" /><path stroke="#69738C" d="M395 383.5C395 379.91 397.91 377 401.5 377C405.09 377 408 379.91 408 383.5C408 387.09 405.09 390 401.5 390C397.91 390 395 387.09 395 383.5M361 133H344M333.86 141.46C338.73 141.02 342.5 136.89 342.5 132C342.5 127.18 338.84 123.09 334.05 122.56M327 133H307" /><path stroke="none" fill="#FAF1EC" d="M327 132.5C327 128.91 329.91 126 333.5 126C337.09 126 340 128.91 340 132.5C340 136.09 337.09 139 333.5 139C329.91 139 327 136.09 327 132.5" /><path stroke="#69738C" d="M327 132.5C327 128.91 329.91 126 333.5 126C337.09 126 340 128.91 340 132.5C340 136.09 337.09 139 333.5 139C329.91 139 327 136.09 327 132.5M487 130h11M507.18 119.57C506.79 119.52 506.39 119.5 506 119.5C501.25 120 497 124.25 497 129.5C497 134.75 501.25 139 506.5 139C506.32 138.5 506.63 138.48 506.95 138.45M513 130h15" /><path stroke="none" fill="#FAF1EC" d="M500 129.5C500 125.91 502.91 123 506.5 123C510.09 123 513 125.91 513 129.5C513 133.09 510.09 136 506.5 136C502.91 136 500 133.09 500 129.5" /><path stroke="#69738C" d="M500 129.5C500 125.91 502.91 123 506.5 123C510.09 123 513 125.91 513 129.5C513 133.09 510.09 136 506.5 136C502.91 136 500 133.09 500 129.5M560 397L559 264m0 0H533M522.86 272.46C527.73 272.02 531.5 267.89 531.5 263C531.5 258.18 527.84 254.09 523.05 253.56M516 264H487" /><path stroke="none" fill="#FAF1EC" d="M516 263.5C516 259.91 518.91 257 522.5 257C526.09 257 529 259.91 529 263.5C529 267.09 526.09 270 522.5 270C518.91 270 516 267.09 516 263.5" /><path stroke="#69738C" d="M516 263.5C516 259.91 518.91 257 522.5 257C526.09 257 529 259.91 529 263.5C529 267.09 526.09 270 522.5 270C518.91 270 516 267.09 516 263.5M619 400l42 -21m0 0V89" /><path stroke="#69738C" d="M535 89v34" /><path stroke="#69738C" d="M661 89H608M597.86 97.46C602.73 97.02 606.5 92.89 606.5 88C606.5 83.18 602.84 79.09 598.05 78.56M591 89H535" /><path stroke="none" fill="#FAF1EC" d="M591 88.5C591 84.91 593.91 82 597.5 82C601.09 82 604 84.91 604 88.5C604 92.09 601.09 95 597.5 95C593.91 95 591 92.09 591 88.5" /><path stroke="#69738C" d="M591 88.5C591 84.91 593.91 82 597.5 82C601.09 82 604 84.91 604 88.5C604 92.09 601.09 95 597.5 95C593.91 95 591 92.09 591 88.5M526 339H669m0 0l-15 5m15 -5l-15 -5" /><path stroke="#69738C" d="M148 213L162 70m0 0H669m0 0l-15 5m15 -5L654 65" /><g transform="matrix(1 0 0 -1 524 201)"><rect fill="#F9EAEA" stroke="none" x="0" width="49" y="-11" height="11" /></g><text transform="matrix(1 0 0 1 524 201)" fill="#595959" stroke="none"><tspan dx="0 " x="0" y="8">History Update</tspan></text><g transform="matrix(1 0 0 -1 544 274)"><rect fill="#F9EAEA" stroke="none" x="0" width="54" y="-11" height="11" /></g><text transform="matrix(1 0 0 1 544 274)" fill="#595959" stroke="none"><tspan dx="0 " x="0" y="8">Dialog Response</tspan></text><g transform="matrix(1 0 0 -1 473 169)"><rect fill="#F9EAEA" stroke="none" x="0" width="38" y="-11" height="11" /></g><text transform="matrix(1 0 0 1 473 169)" fill="#595959" stroke="none"><tspan dx="0 " x="0" y="8">«delegate»</tspan></text><g transform="matrix(1 0 0 -1 579 341)"><rect fill="#F9EAEA" stroke="none" x="0" width="38" y="-11" height="11" /></g><text transform="matrix(1 0 0 1 579 341)" fill="#595959" stroke="none"><tspan dx="0 " x="0" y="8">«delegate»</tspan></text><g transform="matrix(1 0 0 -1 471 145)"><rect fill="#F9EAEA" stroke="none" x="0" width="74" y="-11" height="11" /></g><text transform="matrix(1 0 0 1 471 145)" fill="#595959" stroke="none"><tspan dx="0 " x="0" y="8">Contextual enrichment</tspan></text><g transform="matrix(1 0 0 -1 316 186)"><rect fill="#F9EAEA" stroke="none" x="0" width="78" y="-11" height="11" /></g><text transform="matrix(1 0 0 1 316 186)" fill="#595959" stroke="none"><tspan dx="0 " x="0" y="8">S</tspan><tspan dx="0 " x="4" y="8">e</tspan><tspan dx="0 " x="8.25" y="8">m</tspan><tspan dx="0 " x="15" y="8">a</tspan><tspan dx="0 " x="19" y="8">n</tspan><tspan dx="0 0 " x="23" y="8">ti</tspan><tspan dx="0 " x="27.5" y="8">c</tspan><tspan dx="0 " x="31" y="8"> </tspan><tspan dx="0 " x="32.75" y="8">I</tspan><tspan dx="0 " x="34.75" y="8">n</tspan><tspan dx="0 " x="38.75" y="8">t</tspan><tspan dx="0 " x="41.5" y="8">e</tspan><tspan dx="0 " x="45.5" y="8">r</tspan><tspan dx="0 " x="48.25" y="8">p</tspan><tspan dx="0 " x="52.25" y="8">r</tspan><tspan dx="0 " x="55" y="8">e</tspan><tspan dx="0 " x="59" y="8">t</tspan><tspan dx="0 " x="61.75" y="8">a</tspan><tspan dx="0 0 " x="65.5" y="8">ti</tspan><tspan dx="0 " x="70" y="8">o</tspan><tspan dx="0 " x="74" y="8">n</tspan></text><g transform="matrix(1 0 0 -1 107 244)"><rect fill="#F9EAEA" stroke="none" x="0" width="38" y="-11" height="11" /></g><text transform="matrix(1 0 0 1 107 244)" fill="#595959" stroke="none"><tspan dx="0 " x="0" y="8">«delegate»</tspan></text><g transform="matrix(1 0 0 -1 397 72)"><rect fill="#F9EAEA" stroke="none" x="0" width="38" y="-11" height="11" /></g><text transform="matrix(1 0 0 1 397 72)" fill="#595959" stroke="none"><tspan dx="0 " x="0" y="8">«delegate»</tspan></text><g transform="matrix(1 0 0 -1 317 102)"><rect fill="#F9EAEA" stroke="none" x="0" width="33" y="-11" height="11" /></g><text transform="matrix(1 0 0 1 317 102)" fill="#595959" stroke="none"><tspan dx="0 " x="0" y="8">NLU Input</tspan></text><g transform="matrix(1 0 0 -1 412 371)"><rect fill="#F9EAEA" stroke="none" x="0" width="38" y="-11" height="11" /></g><text transform="matrix(1 0 0 1 412 371)" fill="#595959" stroke="none"><tspan dx="0 " x="0" y="8">Service Call</tspan></text><g transform="matrix(1 0 0 -1 444 283)"><rect fill="#F9EAEA" stroke="none" x="0" width="67" y="-11" height="11" /></g><text transform="matrix(1 0 0 1 444 283)" fill="#595959" stroke="none"><tspan dx="0 " x="0" y="8">S</tspan><tspan dx="0 " x="4" y="8">p</tspan><tspan dx="0 " x="8.25" y="8">e</tspan><tspan dx="0 " x="12.5" y="8">c</tspan><tspan dx="0 " x="16.25" y="8">i</tspan><tspan dx="0 0 " x="18" y="8">fi</tspan><tspan dx="0 " x="22.25" y="8">c</tspan><tspan dx="0 " x="26" y="8"> </tspan><tspan dx="0 " x="28" y="8">D</tspan><tspan dx="0 " x="33" y="8">i</tspan><tspan dx="0 " x="34.75" y="8">a</tspan><tspan dx="0 " x="38.75" y="8">l</tspan><tspan dx="0 " x="40.5" y="8">o</tspan><tspan dx="0 " x="44.75" y="8">g</tspan><tspan dx="0 " x="48.5" y="8"> </tspan><tspan dx="0 " x="50.25" y="8">I</tspan><tspan dx="0 " x="52.25" y="8">n</tspan><tspan dx="0 " x="56.25" y="8">p</tspan><tspan dx="0 " x="60.25" y="8">u</tspan><tspan dx="0 " x="64.25" y="8">t</tspan></text><g transform="matrix(1 0 0 -1 261 173)"><rect fill="#F9EAEA" stroke="none" x="0" width="33" y="-11" height="11" /></g><text transform="matrix(1 0 0 1 261 173)" fill="#595959" stroke="none"><tspan dx="0 " x="0" y="8">ASR Input</tspan></text><g transform="matrix(1 0 0 -1 318 407)"><rect fill="#F9EAEA" stroke="none" x="0" width="38" y="-11" height="11" /></g><text transform="matrix(1 0 0 1 318 407)" fill="#595959" stroke="none"><tspan dx="0 " x="0" y="8">TTS Output</tspan></text><g transform="matrix(1 0 0 -1 492 86)"><rect fill="#F9EAEA" stroke="none" x="0" width="74" y="-11" height="11" /></g><text transform="matrix(1 0 0 1 492 86)" fill="#595959" stroke="none"><tspan dx="0 " x="0" y="8">Contextual Enrichment</tspan></text><g transform="matrix(1 0 0 -1 490 415)"><rect fill="#F9EAEA" stroke="none" x="0" width="39" y="-11" height="11" /></g><text transform="matrix(1 0 0 1 490 415)" fill="#595959" stroke="none"><tspan dx="0 " x="0" y="8">Text Output</tspan></text></g></g></g></g></svg>