<?xml version="1.0" encoding="utf-8"?><svg version="1.1" preserveAspectRatio="xMidYMid" xml:space="preserve" width="297.4822pt" height="222.25841pt" viewBox="-8 10.818290000000001 297.4822 222.25841" xmlns="http://www.w3.org/2000/svg" xmlns:xlink="http://www.w3.org/1999/xlink"><g transform="matrix(1 0 0 -1 0 816)"><g stroke="#000000" fill="none" fill-rule="evenodd" stroke-width="1" stroke-linecap="round" stroke-linejoin="round" stroke-miterlimit="3" letter-spacing="normal" font-weight="normal" font-style="normal" baseline-shift="0"><g transform="matrix(0.6 0 0 0.6 0 816.450012)"><g transform="matrix(0.729323 0 0 -0.72986 0 0)" font-family="CalibriUnicode" font-size="8"><rect fill="#D0D0D0" stroke="none" x="577" y="349" width="15" height="15" /><rect stroke="none" fill="#DAEAFC" x="574" y="346" width="14" height="14" /><rect stroke="#9A8484" x="574" y="346" width="14" height="15" /><rect stroke="#9A8484" x="574" y="346" width="14" height="14" /><rect fill="#D0D0D0" stroke="none" x="98" y="129" width="15" height="15" /><rect stroke="none" fill="#DAEAFC" x="95" y="126" width="14" height="14" /><rect stroke="#9A8484" x="95" y="126" width="14" height="15" /><rect stroke="#9A8484" x="95" y="126" width="14" height="14" /><rect fill="#D0D0D0" stroke="none" x="99" y="423" width="15" height="15" /><rect stroke="none" fill="#DAEAFC" x="96" y="420" width="14" height="14" /><rect stroke="#9A8484" x="96" y="420" width="14" height="15" /><rect stroke="#9A8484" x="96" y="420" width="14" height="14" /><rect fill="#D0D0D0" stroke="none" x="99" y="444" width="15" height="15" /><rect stroke="none" fill="#DAEAFC" x="96" y="441" width="14" height="14" /><rect stroke="#9A8484" x="96" y="441" width="14" height="15" /><rect stroke="#9A8484" x="96" y="441" width="14" height="14" /><rect fill="#D0D0D0" stroke="none" x="99" y="278" width="15" height="15" /><rect stroke="none" fill="#DAEAFC" x="96" y="275" width="14" height="14" /><rect stroke="#9A8484" x="96" y="275" width="14" height="15" /><rect stroke="#9A8484" x="96" y="275" width="14" height="14" /><rect fill="#D0D0D0" stroke="none" x="99" y="344" width="15" height="15" /><rect stroke="none" fill="#DAEAFC" x="96" y="341" width="14" height="14" /><rect stroke="#9A8484" x="96" y="341" width="14" height="15" /><rect stroke="#9A8484" x="96" y="341" width="14" height="14" /><rect fill="#D0D0D0" stroke="none" x="99" y="364" width="15" height="15" /><rect stroke="none" fill="#DAEAFC" x="96" y="361" width="14" height="14" /><rect stroke="#9A8484" x="96" y="361" width="14" height="15" /><rect stroke="#9A8484" x="96" y="361" width="14" height="14" /><rect fill="#D0D0D0" stroke="none" x="106" y="47" width="478" height="468" /><rect stroke="none" fill="#F9EAEA" x="103" y="44" width="477" height="467" /><rect stroke="#9A8484" x="103" y="44" width="477" height="468" /><rect stroke="#9A8484" x="103" y="44" width="477" height="467" /><text transform="matrix(1 0 0 1 316 53)" fill="#595959" font-weight="bold" stroke="none"><tspan dx="0 " x="0" y="8">IPA Client</tspan></text><path stroke="#9A8484" d="M103 68H580" /><rect stroke="none" fill="#F9EAEA" x="565" y="49" width="10" height="16" /><rect stroke="#9A8484" x="565" y="49" width="10" height="17" /><rect stroke="none" fill="#F9EAEA" x="562" y="51" width="6" height="4" /><rect stroke="#9A8484" x="562" y="51" width="6" height="5" /><rect stroke="none" fill="#F9EAEA" x="562" y="58" width="6" height="4" /><rect stroke="#9A8484" x="562" y="58" width="6" height="5" /><rect stroke="none" fill="#DAEAFC" x="574" y="346" width="14" height="14" /><rect stroke="#9A8484" x="574" y="346" width="14" height="15" /><rect stroke="#9A8484" x="574" y="346" width="14" height="14" /><rect stroke="none" fill="#DAEAFC" x="95" y="126" width="14" height="14" /><rect stroke="#9A8484" x="95" y="126" width="14" height="15" /><rect stroke="#9A8484" x="95" y="126" width="14" height="14" /><rect stroke="none" fill="#DAEAFC" x="96" y="420" width="14" height="14" /><rect stroke="#9A8484" x="96" y="420" width="14" height="15" /><rect stroke="#9A8484" x="96" y="420" width="14" height="14" /><rect stroke="none" fill="#DAEAFC" x="96" y="441" width="14" height="14" /><rect stroke="#9A8484" x="96" y="441" width="14" height="15" /><rect stroke="#9A8484" x="96" y="441" width="14" height="14" /><rect stroke="none" fill="#DAEAFC" x="96" y="275" width="14" height="14" /><rect stroke="#9A8484" x="96" y="275" width="14" height="15" /><rect stroke="#9A8484" x="96" y="275" width="14" height="14" /><rect stroke="none" fill="#DAEAFC" x="96" y="341" width="14" height="14" /><rect stroke="#9A8484" x="96" y="341" width="14" height="15" /><rect stroke="#9A8484" x="96" y="341" width="14" height="14" /><rect stroke="none" fill="#DAEAFC" x="96" y="361" width="14" height="14" /><rect stroke="#9A8484" x="96" y="361" width="14" height="15" /><rect stroke="#9A8484" x="96" y="361" width="14" height="14" /><path stroke="#9A8484" d="M589 352h26M621.99 346.08C621.66 346.03 621.33 346 621 346C617.69 346 615 348.69 615 352C615 355.31 617.69 358 621 358C621.28 358 621.57 357.98 621.85 357.94" /><text transform="matrix(1 0 0 1 604 330)" fill="#595959" stroke="none"><tspan dx="0 " x="0" y="8">Client Input</tspan></text><path stroke="#9A8484" d="M95 132H69m-7 6C62 138 62 138 62 138C65.31 138 68 135.31 68 132C68 128.71 65.29 126 62 126" /><text transform="matrix(1 0 0 1 14 126)" fill="#595959" stroke="none"><tspan dx="0 " x="0" y="8">LocalData</tspan></text><path stroke="#9A8484" d="M96 426H70" /><path stroke="none" fill="#F1ECFA" d="M57 426C57 422.69 59.69 420 63 420C66.31 420 69 422.69 69 426C69 429.31 66.31 432 63 432C59.69 432 57 429.31 57 426" /><path stroke="#9A8484" d="M57 426C57 422.69 59.69 420 63 420C66.31 420 69 422.69 69 426C69 429.31 66.31 432 63 432C59.69 432 57 429.31 57 426M57 426C57 422.69 59.69 420 63 420C66.31 420 69 422.69 69 426C69 429.31 66.31 432 63 432C59.69 432 57 429.31 57 426" /><text transform="matrix(1 0 0 1 3 418)" fill="#595959" stroke="none"><tspan dx="0 " x="0" y="8">Audio Output</tspan></text><path stroke="#9A8484" d="M96 447H70m-7 6C63 453 63 453 63 453C66.31 453 69 450.31 69 447C69 443.71 66.29 441 63 441" /><text transform="matrix(1 0 0 1 8 441)" fill="#595959" stroke="none"><tspan dx="0 " x="0" y="8">Audio Input</tspan></text><path stroke="#9A8484" d="M96 281H70m-7 6C63 287 63 287 63 287C66.31 287 69 284.31 69 281C69 277.71 66.29 275 63 275" /><text transform="matrix(1 0 0 1 0 275)" fill="#595959" stroke="none"><tspan dx="0 " x="0" y="8">Local Service</tspan></text><path stroke="#9A8484" d="M96 347H70" /><path stroke="none" fill="#F1ECFA" d="M57 347C57 343.69 59.69 341 63 341C66.31 341 69 343.69 69 347C69 350.31 66.31 353 63 353C59.69 353 57 350.31 57 347" /><path stroke="#9A8484" d="M57 347C57 343.69 59.69 341 63 341C66.31 341 69 343.69 69 347C69 350.31 66.31 353 63 353C59.69 353 57 350.31 57 347M57 347C57 343.69 59.69 341 63 341C66.31 341 69 343.69 69 347C69 350.31 66.31 353 63 353C59.69 353 57 350.31 57 347" /><text transform="matrix(1 0 0 1 6 339)" fill="#595959" stroke="none"><tspan dx="0 " x="0" y="8">Text Output</tspan></text><path stroke="#9A8484" d="M96 367H70m-7 6C63 373 63 373 63 373C66.31 373 69 370.31 69 367C69 363.71 66.29 361 63 361" /><text transform="matrix(1 0 0 1 13 359)" fill="#595959" stroke="none"><tspan dx="0 " x="0" y="8">Text Input</tspan></text><rect stroke="none" fill="#F9EAEA" x="217" y="107" width="109" height="59" /><rect stroke="#9A8484" x="217" y="107" width="109" height="60" /><text transform="matrix(1 0 0 1 229 113)" fill="#595959" stroke="none"><tspan dx="0 " x="0" y="8">«ModalityRegistry»</tspan></text><text transform="matrix(1 0 0 1 225 123)" fill="#595959" font-weight="bold" stroke="none"><tspan dx="0 " x="0" y="8">Local Service Registry</tspan></text><rect stroke="none" fill="#F9EAEA" x="311" y="112" width="10" height="16" /><rect stroke="#9A8484" x="311" y="112" width="10" height="17" /><rect stroke="none" fill="#F9EAEA" x="308" y="114" width="6" height="4" /><rect stroke="#9A8484" x="308" y="114" width="6" height="5" /><rect stroke="none" fill="#F9EAEA" x="308" y="121" width="6" height="4" /><rect stroke="#9A8484" x="308" y="121" width="6" height="5" /><rect stroke="none" fill="#DAEAFC" x="209" y="127" width="14" height="14" /><rect stroke="#9A8484" x="209" y="127" width="14" height="15" /><rect stroke="none" fill="#DAEAFC" x="262" y="161" width="14" height="14" /><rect stroke="#9A8484" x="262" y="161" width="14" height="15" /><path stroke="#9A8484" d="M209 133H183m-7 6C176 139 176 139 176 139C179.31 139 182 136.31 182 133C182 129.71 179.29 127 176 127" /><text transform="matrix(1 0 0 1 164 143)" fill="#595959" stroke="none"><tspan dx="0 " x="0" y="8">Register</tspan></text><rect stroke="none" fill="#F9EAEA" x="403" y="239" width="109" height="233" /><rect stroke="#9A8484" x="403" y="239" width="109" height="234" /><text transform="matrix(1 0 0 1 415 245)" fill="#595959" stroke="none"><tspan dx="0 " x="0" y="8">«</tspan><tspan dx="0 " x="4.5" y="8">I</tspan><tspan dx="0 " x="6.75" y="8">n</tspan><tspan dx="0 " x="11.25" y="8">t</tspan><tspan dx="0 " x="14.25" y="8">e</tspan><tspan dx="0 " x="18.75" y="8">r</tspan><tspan dx="0 " x="21.75" y="8">a</tspan><tspan dx="0 " x="26" y="8">c</tspan><tspan dx="0 0 " x="29.75" y="8">ti</tspan><tspan dx="0 " x="34.25" y="8">o</tspan><tspan dx="0 " x="38.5" y="8">n</tspan><tspan dx="0 " x="42.75" y="8">M</tspan><tspan dx="0 " x="49.75" y="8">a</tspan><tspan dx="0 " x="53.75" y="8">n</tspan><tspan dx="0 " x="58" y="8">a</tspan><tspan dx="0 " x="62" y="8">.</tspan><tspan dx="0 " x="64" y="8">.</tspan><tspan dx="0 " x="66" y="8">.</tspan></text><text transform="matrix(1 0 0 1 416 255)" fill="#595959" font-weight="bold" stroke="none"><tspan dx="0 " x="0" y="8">Modality Manager</tspan></text><rect stroke="none" fill="#F9EAEA" x="497" y="244" width="10" height="16" /><rect stroke="#9A8484" x="497" y="244" width="10" height="17" /><rect stroke="none" fill="#F9EAEA" x="494" y="246" width="6" height="4" /><rect stroke="#9A8484" x="494" y="246" width="6" height="5" /><rect stroke="none" fill="#F9EAEA" x="494" y="253" width="6" height="4" /><rect stroke="#9A8484" x="494" y="253" width="6" height="5" /><rect stroke="none" fill="#DAEAFC" x="396" y="346" width="14" height="14" /><rect stroke="#9A8484" x="396" y="346" width="14" height="15" /><rect stroke="none" fill="#DAEAFC" x="505" y="346" width="14" height="14" /><rect stroke="#9A8484" x="505" y="346" width="14" height="15" /><rect stroke="none" fill="#F9EAEA" x="225" y="413" width="109" height="59" /><rect stroke="#9A8484" x="225" y="413" width="109" height="60" /><text transform="matrix(1 0 0 1 239 419)" fill="#595959" stroke="none"><tspan dx="0 " x="0" y="8">«ModalityCompo...</tspan></text><text transform="matrix(1 0 0 1 231 429)" fill="#595959" font-weight="bold" stroke="none"><tspan dx="0 " x="0" y="8">Voice Modality Handler</tspan></text><rect stroke="none" fill="#F9EAEA" x="319" y="418" width="10" height="16" /><rect stroke="#9A8484" x="319" y="418" width="10" height="17" /><rect stroke="none" fill="#F9EAEA" x="316" y="420" width="6" height="4" /><rect stroke="#9A8484" x="316" y="420" width="6" height="5" /><rect stroke="none" fill="#F9EAEA" x="316" y="427" width="6" height="4" /><rect stroke="#9A8484" x="316" y="427" width="6" height="5" /><rect stroke="none" fill="#DAEAFC" x="217" y="428" width="14" height="29" /><rect stroke="#9A8484" x="217" y="428" width="14" height="30" /><rect stroke="none" fill="#DAEAFC" x="328" y="428" width="14" height="14" /><rect stroke="#9A8484" x="328" y="428" width="14" height="15" /><path stroke="#9A8484" d="M217 434H191" /><path stroke="none" fill="#F1ECFA" d="M178 434C178 430.69 180.69 428 184 428C187.31 428 190 430.69 190 434C190 437.31 187.31 440 184 440C180.69 440 178 437.31 178 434" /><path stroke="#9A8484" d="M178 434C178 430.69 180.69 428 184 428C187.31 428 190 430.69 190 434C190 437.31 187.31 440 184 440C180.69 440 178 437.31 178 434M178 434C178 430.69 180.69 428 184 428C187.31 428 190 430.69 190 434C190 437.31 187.31 440 184 440C180.69 440 178 437.31 178 434" /><text transform="matrix(1 0 0 1 158 413)" fill="#595959" stroke="none"><tspan dx="0 " x="0" y="8">Audio Output</tspan></text><path stroke="#9A8484" d="M217 449H191m-7 6C184 455 184 455 184 455C187.31 455 190 452.31 190 449C190 445.71 187.29 443 184 443" /><text transform="matrix(1 0 0 1 174 456)" fill="#595959" stroke="none"><tspan dx="0 " x="0" y="8">Audio Input</tspan></text><rect stroke="none" fill="#F9EAEA" x="225" y="326" width="109" height="59" /><rect stroke="#9A8484" x="225" y="326" width="109" height="60" /><text transform="matrix(1 0 0 1 239 332)" fill="#595959" stroke="none"><tspan dx="0 " x="0" y="8">«ModalityCompo...</tspan></text><text transform="matrix(1 0 0 1 230 342)" fill="#595959" font-weight="bold" stroke="none"><tspan dx="0 " x="0" y="8">Text Modalaity Handler</tspan></text><rect stroke="none" fill="#F9EAEA" x="319" y="331" width="10" height="16" /><rect stroke="#9A8484" x="319" y="331" width="10" height="17" /><rect stroke="none" fill="#F9EAEA" x="316" y="333" width="6" height="4" /><rect stroke="#9A8484" x="316" y="333" width="6" height="5" /><rect stroke="none" fill="#F9EAEA" x="316" y="340" width="6" height="4" /><rect stroke="#9A8484" x="316" y="340" width="6" height="5" /><rect stroke="none" fill="#DAEAFC" x="217" y="342" width="14" height="29" /><rect stroke="#9A8484" x="217" y="342" width="14" height="30" /><rect stroke="none" fill="#DAEAFC" x="328" y="346" width="14" height="14" /><rect stroke="#9A8484" x="328" y="346" width="14" height="15" /><path stroke="#9A8484" d="M217 348H191" /><path stroke="none" fill="#F1ECFA" d="M178 348C178 344.69 180.69 342 184 342C187.31 342 190 344.69 190 348C190 351.31 187.31 354 184 354C180.69 354 178 351.31 178 348" /><path stroke="#9A8484" d="M178 348C178 344.69 180.69 342 184 342C187.31 342 190 344.69 190 348C190 351.31 187.31 354 184 354C180.69 354 178 351.31 178 348M178 348C178 344.69 180.69 342 184 342C187.31 342 190 344.69 190 348C190 351.31 187.31 354 184 354C180.69 354 178 351.31 178 348" /><text transform="matrix(1 0 0 1 174 326)" fill="#595959" stroke="none"><tspan dx="0 " x="0" y="8">Text Output</tspan></text><path stroke="#9A8484" d="M217 363H191m-7 6C184 369 184 369 184 369C187.31 369 190 366.31 190 363C190 359.71 187.29 357 184 357" /><text transform="matrix(1 0 0 1 176 372)" fill="#595959" stroke="none"><tspan dx="0 " x="0" y="8">Text Input</tspan></text><rect stroke="none" fill="#F9EAEA" x="225" y="239" width="109" height="59" /><rect stroke="#9A8484" x="225" y="239" width="109" height="60" /><text transform="matrix(1 0 0 1 239 245)" fill="#595959" stroke="none"><tspan dx="0 " x="0" y="8">«ModalityCompo...</tspan></text><text transform="matrix(1 0 0 1 232 255)" fill="#595959" font-weight="bold" stroke="none"><tspan dx="0 " x="0" y="8">Local Service Modality</tspan></text><rect stroke="none" fill="#F9EAEA" x="319" y="244" width="10" height="16" /><rect stroke="#9A8484" x="319" y="244" width="10" height="17" /><rect stroke="none" fill="#F9EAEA" x="316" y="246" width="6" height="4" /><rect stroke="#9A8484" x="316" y="246" width="6" height="5" /><rect stroke="none" fill="#F9EAEA" x="316" y="253" width="6" height="4" /><rect stroke="#9A8484" x="316" y="253" width="6" height="5" /><rect stroke="none" fill="#DAEAFC" x="328" y="261" width="14" height="14" /><rect stroke="#9A8484" x="328" y="261" width="14" height="15" /><rect stroke="none" fill="#DAEAFC" x="217" y="261" width="14" height="29" /><rect stroke="#9A8484" x="217" y="261" width="14" height="30" /><rect stroke="none" fill="#DAEAFC" x="262" y="231" width="14" height="14" /><rect stroke="#9A8484" x="262" y="231" width="14" height="15" /><path stroke="#9A8484" d="M217 267H191m-7 6C184 273 184 273 184 273C187.31 273 190 270.31 190 267C190 263.71 187.29 261 184 261" /><text transform="matrix(1 0 0 1 166 238)" fill="#595959" stroke="none"><tspan dx="0 " x="0" y="8">Data Retreival</tspan></text><path stroke="#9A8484" d="M217 282H191" /><path stroke="none" fill="#F1ECFA" d="M178 282C178 278.69 180.69 276 184 276C187.31 276 190 278.69 190 282C190 285.31 187.31 288 184 288C180.69 288 178 285.31 178 282" /><path stroke="#9A8484" d="M178 282C178 278.69 180.69 276 184 276C187.31 276 190 278.69 190 282C190 285.31 187.31 288 184 288C180.69 288 178 285.31 178 282M178 282C178 278.69 180.69 276 184 276C187.31 276 190 278.69 190 282C190 285.31 187.31 288 184 288C180.69 288 178 285.31 178 282" /><text transform="matrix(1 0 0 1 169 293)" fill="#595959" stroke="none"><tspan dx="0 " x="0" y="8">Service Call</tspan></text><path stroke="#69738C" stroke-dasharray="7,4" d="M111 282L178 282" /><path stroke="#69738C" fill="#FAF1EC" d="M126 276v12l-15 -6l15 -6" /><path stroke="#69738C" stroke-dasharray="7,4" d="M111 348L178 348" /><path stroke="#69738C" fill="#FAF1EC" d="M126 342v12l-15 -6l15 -6" /><path stroke="#69738C" stroke-dasharray="7,4" d="M178 364L160 364" /><path stroke="#69738C" d="M156 364l-7 1m-4 0h-7m-4 0l-7 1m-4 0h-7m-4 0l-1 1" /><path stroke="#69738C" fill="#FAF1EC" d="M163 371V359l15 5l-15 7" /><path stroke="#69738C" d="M111 427h7m4 0l7 1m4 0l7 1m4 0l7 1m4 0l7 1m4 0l7 1m4 0l1 1" /><path stroke="#69738C" fill="#FAF1EC" d="M126 422l-1 12l-14 -7l15 -5" /><path stroke="#69738C" d="M269 231V212M258.56 203.05C259.09 207.84 263.18 211.5 268 211.5C272.86 211.5 276.97 207.78 277.45 202.95M269 197V176" /><path stroke="none" fill="#FAF1EC" d="M262 202.5C262 198.91 264.91 196 268.5 196C272.09 196 275 198.91 275 202.5C275 206.09 272.09 209 268.5 209C264.91 209 262 206.09 262 202.5" /><path stroke="#69738C" d="M262 202.5C262 198.91 264.91 196 268.5 196C272.09 196 275 198.91 275 202.5C275 206.09 272.09 209 268.5 209C264.91 209 262 206.09 262 202.5M396 353H379M368.86 361.46C373.73 361.02 377.5 356.89 377.5 352C377.5 347.18 373.84 343.09 369.05 342.56M362 353H343" /><path stroke="none" fill="#FAF1EC" d="M362 352.5C362 348.91 364.91 346 368.5 346C372.09 346 375 348.91 375 352.5C375 356.09 372.09 359 368.5 359C364.91 359 362 356.09 362 352.5" /><path stroke="#69738C" d="M362 352.5C362 348.91 364.91 346 368.5 346C372.09 346 375 348.91 375 352.5C375 356.09 372.09 359 368.5 359C364.91 359 362 356.09 362 352.5M396 361l-22 26M374.15 399.26C375.66 397.52 376.5 395.3 376.5 393C377 388.25 372.75 384 367.5 384C363.93 383.5 361.05 384.98 359.27 387.48M364 399l-24 29" /><path stroke="none" fill="#FAF1EC" d="M361 393.5C361 389.91 363.91 387 367.5 387C371.09 387 374 389.91 374 393.5C374 397.09 371.09 400 367.5 400C363.91 400 361 397.09 361 393.5" /><path stroke="#69738C" d="M361 393.5C361 389.91 363.91 387 367.5 387C371.09 387 374 389.91 374 393.5C374 397.09 371.09 400 367.5 400C363.91 400 361 397.09 361 393.5M397 346L375 318M361.28 316.72C363.06 318.5 365.48 319.5 368 319.5C373.75 320 378 315.75 378 310.5C377.5 308.22 377 306.47 376.06 304.97M365 307L341 276" /><path stroke="none" fill="#FAF1EC" d="M362 310.5C362 306.91 364.91 304 368.5 304C372.09 304 375 306.91 375 310.5C375 314.09 372.09 317 368.5 317C364.91 317 362 314.09 362 310.5" /><path stroke="#69738C" d="M362 310.5C362 306.91 364.91 304 368.5 304C372.09 304 375 306.91 375 310.5C375 314.09 372.09 317 368.5 317C364.91 317 362 314.09 362 310.5M172 140l-3 7m-2 4l-3 7m-2 4l-4 7m-2 4l-3 7m-2 4l-3 7m-2 4l-4 7m-2 4l-3 7m-2 4l-4 7m-2 4l-3 7m-2 4l-3 7m-2 4l-4 7m-2 4l-3 7m-2 4l-2 3" /><path stroke="#69738C" fill="#FAF1EC" d="M171 156l-11 -5l12 -11l-1 16" /><path stroke="#69738C" stroke-dasharray="7,4" d="M178 449L116 449" /><path stroke="#69738C" d="M112 449l-1 -1" /><path stroke="#69738C" fill="#FAF1EC" d="M163 455V443l15 6l-15 6" /><path stroke="#69738C" stroke-dasharray="7,4" d="M170 133L110 133" /><path stroke="#69738C" fill="#FAF1EC" d="M155 139V127l15 6l-15 6" /><path stroke="#69738C" d="M180 261l-4 -7m-2 -4l-5 -7m-2 -4l-4 -7m-3 -4l-4 -7m-3 -4l-4 -7m-2 -4l-5 -7m-2 -4l-5 -7m-2 -4l-4 -7m-3 -4l-4 -7m-3 -4l-4 -7m-2 -4l-5 -7" /><path stroke="#69738C" fill="#FAF1EC" d="M167 251l10 -6l3 16L167 251" /><path stroke="#69738C" d="M574 353H557M546.86 361.46C551.73 361.02 555.5 356.89 555.5 352C555.5 347.18 551.84 343.09 547.05 342.56M540 353H520" /><path stroke="none" fill="#FAF1EC" d="M540 352.5C540 348.91 542.91 346 546.5 346C550.09 346 553 348.91 553 352.5C553 356.09 550.09 359 546.5 359C542.91 359 540 356.09 540 352.5" /><path stroke="#69738C" d="M540 352.5C540 348.91 542.91 346 546.5 346C550.09 346 553 348.91 553 352.5C553 356.09 550.09 359 546.5 359C542.91 359 540 356.09 540 352.5" /><g transform="matrix(1 0 0 -1 353 327)"><rect fill="#F9EAEA" stroke="none" x="0" width="68" y="-11" height="11" /></g><text transform="matrix(1 0 0 1 353 327)" fill="#595959" stroke="none"><tspan dx="0 " x="0" y="8">HandleTextModality</tspan></text><g transform="matrix(1 0 0 -1 289 198)"><rect fill="#F9EAEA" stroke="none" x="0" width="49" y="-11" height="11" /></g><text transform="matrix(1 0 0 1 289 198)" fill="#595959" stroke="none"><tspan dx="0 " x="0" y="8">Registry Query</tspan></text><g transform="matrix(1 0 0 -1 521 375)"><rect fill="#FFFFFF" stroke="none" x="0" width="56" y="-11" height="11" /></g><text transform="matrix(1 0 0 1 521 375)" fill="#595959" stroke="none"><tspan dx="0 " x="0" y="8">C</tspan><tspan dx="0 " x="4.25" y="8">l</tspan><tspan dx="0 " x="6" y="8">i</tspan><tspan dx="0 " x="7.75" y="8">e</tspan><tspan dx="0 " x="12" y="8">n</tspan><tspan dx="0 " x="16.25" y="8">t</tspan><tspan dx="0 " x="19" y="8"> </tspan><tspan dx="0 " x="20.75" y="8">I</tspan><tspan dx="0 " x="22.75" y="8">n</tspan><tspan dx="0 " x="26.75" y="8">t</tspan><tspan dx="0 " x="29.5" y="8">e</tspan><tspan dx="0 " x="33.5" y="8">r</tspan><tspan dx="0 " x="36.25" y="8">a</tspan><tspan dx="0 " x="40" y="8">c</tspan><tspan dx="0 0 " x="43.5" y="8">ti</tspan><tspan dx="0 " x="48" y="8">o</tspan><tspan dx="0 " x="52" y="8">n</tspan></text><g transform="matrix(1 0 0 -1 355 286)"><rect fill="#F9EAEA" stroke="none" x="0" width="94" y="-11" height="11" /></g><text transform="matrix(1 0 0 1 355 286)" fill="#595959" stroke="none"><tspan dx="0 " x="0" y="8">HandleLocalServiceModality</tspan></text><g transform="matrix(1 0 0 -1 340 405)"><rect fill="#F9EAEA" stroke="none" x="0" width="73" y="-11" height="11" /></g><text transform="matrix(1 0 0 1 340 405)" fill="#595959" stroke="none"><tspan dx="0 " x="0" y="8">HandleAudioModality</tspan></text></g></g></g></g></svg>