<?xml version="1.0" encoding="utf-8"?><svg version="1.1" preserveAspectRatio="xMidYMid" xml:space="preserve" width="1058.9350399999998pt" height="594.85492pt" viewBox="48.36596 35.06348 1058.9350399999998 594.85492" xmlns="http://www.w3.org/2000/svg" xmlns:xlink="http://www.w3.org/1999/xlink"><g transform="matrix(1 0 0 -1 0 541)"><g stroke="#000000" fill="none" fill-rule="evenodd" stroke-width="1" stroke-linecap="round" stroke-linejoin="round" stroke-miterlimit="3" letter-spacing="normal" font-weight="normal" font-style="normal" baseline-shift="0"><g transform="matrix(0.75 0 0 0.75 0 541.400024)"><g transform="matrix(1.318502 0 0 -1.317076 0 0)" font-family="CalibriUnicode" font-size="10"><rect fill="#D0D0D0" stroke="none" x="474" y="211" width="15" height="15" /><rect stroke="none" fill="#DAEAFC" x="471" y="208" width="14" height="14" /><rect stroke="#9A8484" x="471" y="208" width="14" height="15" /><rect stroke="#9A8484" x="471" y="208" width="14" height="14" /><rect fill="#D0D0D0" stroke="none" x="474" y="498" width="15" height="15" /><rect stroke="none" fill="#DAEAFC" x="471" y="495" width="14" height="14" /><rect stroke="#9A8484" x="471" y="495" width="14" height="15" /><rect stroke="#9A8484" x="471" y="495" width="14" height="14" /><rect fill="#D0D0D0" stroke="none" x="1022" y="91" width="15" height="15" /><rect stroke="none" fill="#DAEAFC" x="1019" y="88" width="14" height="14" /><rect stroke="#9A8484" x="1019" y="88" width="14" height="15" /><rect stroke="#9A8484" x="1019" y="88" width="14" height="14" /><rect fill="#D0D0D0" stroke="none" x="1022" y="205" width="15" height="15" /><rect stroke="none" fill="#DAEAFC" x="1019" y="202" width="14" height="14" /><rect stroke="#9A8484" x="1019" y="202" width="14" height="15" /><rect stroke="#9A8484" x="1019" y="202" width="14" height="14" /><rect fill="#D0D0D0" stroke="none" x="1022" y="360" width="15" height="15" /><rect stroke="none" fill="#DAEAFC" x="1019" y="357" width="14" height="14" /><rect stroke="#9A8484" x="1019" y="357" width="14" height="15" /><rect stroke="#9A8484" x="1019" y="357" width="14" height="14" /><rect fill="#D0D0D0" stroke="none" x="481" y="47" width="548" height="583" /><rect stroke="none" fill="#F9EAEA" x="478" y="44" width="547" height="582" /><rect stroke="#9A8484" x="478" y="44" width="547" height="583" /><rect stroke="#9A8484" x="478" y="44" width="547" height="582" /><text transform="matrix(1 0 0 1 729 53)" fill="#595959" font-weight="bold" stroke="none"><tspan dx="0 " x="0" y="10">Dialog</tspan></text><path stroke="#9A8484" d="M478 71h547" /><rect stroke="none" fill="#F9EAEA" x="1010" y="49" width="10" height="16" /><rect stroke="#9A8484" x="1010" y="49" width="10" height="17" /><rect stroke="none" fill="#F9EAEA" x="1007" y="51" width="6" height="4" /><rect stroke="#9A8484" x="1007" y="51" width="6" height="5" /><rect stroke="none" fill="#F9EAEA" x="1007" y="58" width="6" height="4" /><rect stroke="#9A8484" x="1007" y="58" width="6" height="5" /><rect stroke="none" fill="#DAEAFC" x="471" y="208" width="14" height="14" /><rect stroke="#9A8484" x="471" y="208" width="14" height="15" /><rect stroke="#9A8484" x="471" y="208" width="14" height="14" /><rect stroke="none" fill="#DAEAFC" x="471" y="495" width="14" height="14" /><rect stroke="#9A8484" x="471" y="495" width="14" height="15" /><rect stroke="#9A8484" x="471" y="495" width="14" height="14" /><rect stroke="none" fill="#DAEAFC" x="1019" y="88" width="14" height="14" /><rect stroke="#9A8484" x="1019" y="88" width="14" height="15" /><rect stroke="#9A8484" x="1019" y="88" width="14" height="14" /><rect stroke="none" fill="#DAEAFC" x="1019" y="202" width="14" height="14" /><rect stroke="#9A8484" x="1019" y="202" width="14" height="15" /><rect stroke="#9A8484" x="1019" y="202" width="14" height="14" /><rect stroke="none" fill="#DAEAFC" x="1019" y="357" width="14" height="14" /><rect stroke="#9A8484" x="1019" y="357" width="14" height="15" /><rect stroke="#9A8484" x="1019" y="357" width="14" height="14" /><rect fill="#D0D0D0" stroke="none" x="413" y="211" width="15" height="15" /><rect stroke="none" fill="#DAEAFC" x="410" y="208" width="14" height="14" /><rect stroke="#9A8484" x="410" y="208" width="14" height="15" /><rect stroke="#9A8484" x="410" y="208" width="14" height="14" /><rect fill="#D0D0D0" stroke="none" x="413" y="498" width="15" height="15" /><rect stroke="none" fill="#DAEAFC" x="410" y="495" width="14" height="14" /><rect stroke="#9A8484" x="410" y="495" width="14" height="15" /><rect stroke="#9A8484" x="410" y="495" width="14" height="14" /><rect fill="#D0D0D0" stroke="none" x="61" y="48" width="359" height="582" /><rect stroke="none" fill="#F9EAEA" x="58" y="45" width="358" height="581" /><rect stroke="#9A8484" x="58" y="45" width="358" height="582" /><rect stroke="#9A8484" x="58" y="45" width="358" height="581" /><text transform="matrix(1 0 0 1 216 54)" fill="#595959" font-weight="bold" stroke="none"><tspan dx="0 " x="0" y="10">Client</tspan></text><path stroke="#9A8484" d="M58 72H416" /><rect stroke="none" fill="#F9EAEA" x="401" y="50" width="10" height="16" /><rect stroke="#9A8484" x="401" y="50" width="10" height="17" /><rect stroke="none" fill="#F9EAEA" x="398" y="52" width="6" height="4" /><rect stroke="#9A8484" x="398" y="52" width="6" height="5" /><rect stroke="none" fill="#F9EAEA" x="398" y="59" width="6" height="4" /><rect stroke="#9A8484" x="398" y="59" width="6" height="5" /><rect stroke="none" fill="#DAEAFC" x="410" y="208" width="14" height="14" /><rect stroke="#9A8484" x="410" y="208" width="14" height="15" /><rect stroke="#9A8484" x="410" y="208" width="14" height="14" /><rect stroke="none" fill="#DAEAFC" x="410" y="495" width="14" height="14" /><rect stroke="#9A8484" x="410" y="495" width="14" height="15" /><rect stroke="#9A8484" x="410" y="495" width="14" height="14" /><rect stroke="none" fill="#F9EAEA" x="90" y="229" width="257" height="268" /><rect stroke="#9A8484" x="90" y="229" width="257" height="269" /><text transform="matrix(1 0 0 1 189 238)" fill="#595959" font-weight="bold" stroke="none"><tspan dx="0 " x="0" y="10">IPA Client</tspan></text><rect stroke="none" fill="#F9EAEA" x="332" y="234" width="10" height="16" /><rect stroke="#9A8484" x="332" y="234" width="10" height="17" /><rect stroke="none" fill="#F9EAEA" x="329" y="236" width="6" height="4" /><rect stroke="#9A8484" x="329" y="236" width="6" height="5" /><rect stroke="none" fill="#F9EAEA" x="329" y="243" width="6" height="4" /><rect stroke="#9A8484" x="329" y="243" width="6" height="5" /><rect stroke="none" fill="#DAEAFC" x="340" y="347" width="14" height="29" /><rect stroke="#9A8484" x="340" y="347" width="14" height="30" /><rect stroke="none" fill="#DAEAFC" x="135" y="222" width="14" height="14" /><rect stroke="#9A8484" x="135" y="222" width="14" height="15" /><rect stroke="none" fill="#DAEAFC" x="280" y="222" width="14" height="14" /><rect stroke="#9A8484" x="280" y="222" width="14" height="15" /><rect stroke="none" fill="#DAEAFC" x="136" y="490" width="14" height="14" /><rect stroke="#9A8484" x="136" y="490" width="14" height="15" /><rect stroke="none" fill="#DAEAFC" x="283" y="490" width="14" height="14" /><rect stroke="#9A8484" x="283" y="490" width="14" height="15" /><path stroke="#9A8484" d="M355 353h26" /><path stroke="none" fill="#F1ECFA" d="M381 353C381 349.69 383.69 347 387 347C390.31 347 393 349.69 393 353C393 356.31 390.31 359 387 359C383.69 359 381 356.31 381 353" /><path stroke="#9A8484" d="M381 353C381 349.69 383.69 347 387 347C390.31 347 393 349.69 393 353C393 356.31 390.31 359 387 359C383.69 359 381 356.31 381 353M381 353C381 349.69 383.69 347 387 347C390.31 347 393 349.69 393 353C393 356.31 390.31 359 387 359C383.69 359 381 356.31 381 353" /><text transform="matrix(1 0 0 1 374 331)" fill="#595959" stroke="none"><tspan dx="0 " x="0" y="10">Client Input</tspan></text><path stroke="#9A8484" d="M355 368h26M387.99 362.08C387.66 362.03 387.33 362 387 362C383.69 362 381 364.69 381 368C381 371.31 383.69 374 387 374C387.28 374 387.57 373.98 387.85 373.94" /><text transform="matrix(1 0 0 1 392 378)" fill="#595959" stroke="none"><tspan dx="0 " x="0" y="10">Client Response</tspan></text><rect stroke="none" fill="#F9EAEA" x="540" y="230" width="109" height="263" /><rect stroke="#9A8484" x="540" y="230" width="109" height="264" /><text transform="matrix(1 0 0 1 561 239)" fill="#595959" font-weight="bold" stroke="none"><tspan dx="0 " x="0" y="10">IPA Service</tspan></text><rect stroke="none" fill="#F9EAEA" x="634" y="235" width="10" height="16" /><rect stroke="#9A8484" x="634" y="235" width="10" height="17" /><rect stroke="none" fill="#F9EAEA" x="631" y="237" width="6" height="4" /><rect stroke="#9A8484" x="631" y="237" width="6" height="5" /><rect stroke="none" fill="#F9EAEA" x="631" y="244" width="6" height="4" /><rect stroke="#9A8484" x="631" y="244" width="6" height="5" /><rect stroke="none" fill="#DAEAFC" x="533" y="283" width="14" height="14" /><rect stroke="#9A8484" x="533" y="283" width="14" height="15" /><rect stroke="none" fill="#DAEAFC" x="533" y="451" width="14" height="14" /><rect stroke="#9A8484" x="533" y="451" width="14" height="15" /><rect stroke="none" fill="#DAEAFC" x="643" y="452" width="14" height="14" /><rect stroke="#9A8484" x="643" y="452" width="14" height="15" /><rect stroke="none" fill="#DAEAFC" x="587" y="223" width="14" height="14" /><rect stroke="#9A8484" x="587" y="223" width="14" height="15" /><rect stroke="none" fill="#DAEAFC" x="533" y="238" width="14" height="14" /><rect stroke="#9A8484" x="533" y="238" width="14" height="15" /><rect stroke="none" fill="#DAEAFC" x="643" y="403" width="14" height="14" /><rect stroke="#9A8484" x="643" y="403" width="14" height="15" /><path stroke="#9A8484" d="M533 289H507m-7 6C500 295 500 295 500 295C503.31 295 506 292.31 506 289C506 285.71 503.29 283 500 283" /><text transform="matrix(1 0 0 1 486 299)" fill="#595959" stroke="none"><tspan dx="0 " x="0" y="10">Client Input</tspan></text><path stroke="#9A8484" d="M533 457H507" /><path stroke="none" fill="#F1ECFA" d="M494 457C494 453.69 496.69 451 500 451C503.31 451 506 453.69 506 457C506 460.31 503.31 463 500 463C496.69 463 494 460.31 494 457" /><path stroke="#9A8484" d="M494 457C494 453.69 496.69 451 500 451C503.31 451 506 453.69 506 457C506 460.31 503.31 463 500 463C496.69 463 494 460.31 494 457M494 457C494 453.69 496.69 451 500 451C503.31 451 506 453.69 506 457C506 460.31 503.31 463 500 463C496.69 463 494 460.31 494 457" /><text transform="matrix(1 0 0 1 474 434)" fill="#595959" stroke="none"><tspan dx="0 " x="0" y="10">Client Response</tspan></text><path stroke="#9A8484" d="M533 244H507" /><path stroke="none" fill="#F1ECFA" d="M494 244C494 240.69 496.69 238 500 238C503.31 238 506 240.69 506 244C506 247.31 503.31 250 500 250C496.69 250 494 247.31 494 244" /><path stroke="#9A8484" d="M494 244C494 240.69 496.69 238 500 238C503.31 238 506 240.69 506 244C506 247.31 503.31 250 500 250C496.69 250 494 247.31 494 244M494 244C494 240.69 496.69 238 500 238C503.31 238 506 240.69 506 244C506 247.31 503.31 250 500 250C496.69 250 494 247.31 494 244" /><text transform="matrix(1 0 0 1 520 255)" fill="#595959" stroke="none"><tspan dx="0 " x="0" y="10">Forwarded Client Input</tspan></text><rect stroke="none" fill="#F9EAEA" x="720" y="235" width="109" height="59" /><rect stroke="#9A8484" x="720" y="235" width="109" height="60" /><text transform="matrix(1 0 0 1 752 244)" fill="#595959" font-weight="bold" stroke="none"><tspan dx="0 " x="0" y="10">Dialog</tspan></text><text transform="matrix(1 0 0 1 736 257)" fill="#595959" font-weight="bold" stroke="none"><tspan dx="0 " x="0" y="10">Management</tspan></text><rect stroke="none" fill="#F9EAEA" x="814" y="240" width="10" height="16" /><rect stroke="#9A8484" x="814" y="240" width="10" height="17" /><rect stroke="none" fill="#F9EAEA" x="811" y="242" width="6" height="4" /><rect stroke="#9A8484" x="811" y="242" width="6" height="5" /><rect stroke="none" fill="#F9EAEA" x="811" y="249" width="6" height="4" /><rect stroke="#9A8484" x="811" y="249" width="6" height="5" /><rect stroke="none" fill="#DAEAFC" x="764" y="228" width="14" height="14" /><rect stroke="#9A8484" x="764" y="228" width="14" height="15" /><rect stroke="none" fill="#DAEAFC" x="764" y="288" width="14" height="14" /><rect stroke="#9A8484" x="764" y="288" width="14" height="15" /><rect stroke="none" fill="#DAEAFC" x="823" y="243" width="14" height="14" /><rect stroke="#9A8484" x="823" y="243" width="14" height="15" /><rect stroke="none" fill="#DAEAFC" x="823" y="283" width="14" height="14" /><rect stroke="#9A8484" x="823" y="283" width="14" height="15" /><rect stroke="none" fill="#F9EAEA" x="720" y="429" width="109" height="59" /><rect stroke="#9A8484" x="720" y="429" width="109" height="60" /><text transform="matrix(1 0 0 1 757 438)" fill="#595959" font-weight="bold" stroke="none"><tspan dx="0 " x="0" y="10">TTS</tspan></text><rect stroke="none" fill="#F9EAEA" x="814" y="434" width="10" height="16" /><rect stroke="#9A8484" x="814" y="434" width="10" height="17" /><rect stroke="none" fill="#F9EAEA" x="811" y="436" width="6" height="4" /><rect stroke="#9A8484" x="811" y="436" width="6" height="5" /><rect stroke="none" fill="#F9EAEA" x="811" y="443" width="6" height="4" /><rect stroke="#9A8484" x="811" y="443" width="6" height="5" /><rect stroke="none" fill="#DAEAFC" x="713" y="452" width="14" height="14" /><rect stroke="#9A8484" x="713" y="452" width="14" height="15" /><rect stroke="none" fill="#DAEAFC" x="823" y="455" width="14" height="14" /><rect stroke="#9A8484" x="823" y="455" width="14" height="15" /><rect stroke="none" fill="#F9EAEA" x="540" y="126" width="109" height="59" /><rect stroke="#9A8484" x="540" y="126" width="109" height="60" /><text transform="matrix(1 0 0 1 576 135)" fill="#595959" font-weight="bold" stroke="none"><tspan dx="0 " x="0" y="10">ASR</tspan></text><rect stroke="none" fill="#F9EAEA" x="634" y="131" width="10" height="16" /><rect stroke="#9A8484" x="634" y="131" width="10" height="17" /><rect stroke="none" fill="#F9EAEA" x="631" y="133" width="6" height="4" /><rect stroke="#9A8484" x="631" y="133" width="6" height="5" /><rect stroke="none" fill="#F9EAEA" x="631" y="140" width="6" height="4" /><rect stroke="#9A8484" x="631" y="140" width="6" height="5" /><rect stroke="none" fill="#DAEAFC" x="587" y="179" width="14" height="14" /><rect stroke="#9A8484" x="587" y="179" width="14" height="15" /><rect stroke="none" fill="#DAEAFC" x="643" y="151" width="14" height="14" /><rect stroke="#9A8484" x="643" y="151" width="14" height="15" /><rect stroke="none" fill="#F9EAEA" x="720" y="332" width="109" height="59" /><rect stroke="#9A8484" x="720" y="332" width="109" height="60" /><text transform="matrix(1 0 0 1 750 341)" fill="#595959" font-weight="bold" stroke="none"><tspan dx="0 " x="0" y="10">Dialogs</tspan></text><rect stroke="none" fill="#F9EAEA" x="814" y="337" width="10" height="16" /><rect stroke="#9A8484" x="814" y="337" width="10" height="17" /><rect stroke="none" fill="#F9EAEA" x="811" y="339" width="6" height="4" /><rect stroke="#9A8484" x="811" y="339" width="6" height="5" /><rect stroke="none" fill="#F9EAEA" x="811" y="346" width="6" height="4" /><rect stroke="#9A8484" x="811" y="346" width="6" height="5" /><rect stroke="none" fill="#DAEAFC" x="764" y="324" width="14" height="14" /><rect stroke="#9A8484" x="764" y="324" width="14" height="15" /><rect stroke="none" fill="#DAEAFC" x="823" y="358" width="14" height="14" /><rect stroke="#9A8484" x="823" y="358" width="14" height="15" /><path stroke="#9A8484" d="M838 364h26" /><path stroke="none" fill="#F1ECFA" d="M864 364C864 360.69 866.69 358 870 358C873.31 358 876 360.69 876 364C876 367.31 873.31 370 870 370C866.69 370 864 367.31 864 364" /><path stroke="#9A8484" d="M864 364C864 360.69 866.69 358 870 358C873.31 358 876 360.69 876 364C876 367.31 873.31 370 870 370C866.69 370 864 367.31 864 364M864 364C864 360.69 866.69 358 870 358C873.31 358 876 360.69 876 364C876 367.31 873.31 370 870 370C866.69 370 864 367.31 864 364" /><text transform="matrix(1 0 0 1 841 374)" fill="#595959" stroke="none"><tspan dx="0 " x="0" y="10">Service Call</tspan></text><text transform="matrix(1 0 0 1 1062 421)" fill="#595959" stroke="none"><tspan dx="0 " x="0" y="10">Service Call</tspan></text><rect stroke="none" fill="#DAEAFC" x="135" y="542" width="14" height="14" /><rect stroke="#9A8484" x="135" y="542" width="14" height="15" /><rect stroke="none" fill="#DAEAFC" x="282" y="542" width="14" height="14" /><rect stroke="#9A8484" x="282" y="542" width="14" height="15" /><rect stroke="none" fill="#F9EAEA" x="90" y="105" width="109" height="59" /><rect stroke="#9A8484" x="90" y="105" width="109" height="60" /><text transform="matrix(1 0 0 1 106 114)" fill="#595959" font-weight="bold" stroke="none"><tspan dx="0 " x="0" y="10">Local Services</tspan></text><rect stroke="none" fill="#F9EAEA" x="184" y="110" width="10" height="16" /><rect stroke="#9A8484" x="184" y="110" width="10" height="17" /><rect stroke="none" fill="#F9EAEA" x="181" y="112" width="6" height="4" /><rect stroke="#9A8484" x="181" y="112" width="6" height="5" /><rect stroke="none" fill="#F9EAEA" x="181" y="119" width="6" height="4" /><rect stroke="#9A8484" x="181" y="119" width="6" height="5" /><rect stroke="none" fill="#DAEAFC" x="135" y="157" width="14" height="14" /><rect stroke="#9A8484" x="135" y="157" width="14" height="15" /><rect stroke="none" fill="#F9EAEA" x="238" y="105" width="109" height="59" /><rect stroke="#9A8484" x="238" y="105" width="109" height="60" /><text transform="matrix(1 0 0 1 261 114)" fill="#595959" font-weight="bold" stroke="none"><tspan dx="0 " x="0" y="10">Local Data</tspan></text><text transform="matrix(1 0 0 1 262 127)" fill="#595959" font-weight="bold" stroke="none"><tspan dx="0 " x="0" y="10">Providers</tspan></text><rect stroke="none" fill="#F9EAEA" x="332" y="110" width="10" height="16" /><rect stroke="#9A8484" x="332" y="110" width="10" height="17" /><rect stroke="none" fill="#F9EAEA" x="329" y="112" width="6" height="4" /><rect stroke="#9A8484" x="329" y="112" width="6" height="5" /><rect stroke="none" fill="#F9EAEA" x="329" y="119" width="6" height="4" /><rect stroke="#9A8484" x="329" y="119" width="6" height="5" /><rect stroke="none" fill="#DAEAFC" x="280" y="157" width="14" height="14" /><rect stroke="#9A8484" x="280" y="157" width="14" height="15" /><rect stroke="none" fill="#F9EAEA" x="887" y="126" width="109" height="59" /><rect stroke="#9A8484" x="887" y="126" width="109" height="60" /><text transform="matrix(1 0 0 1 916 135)" fill="#595959" font-weight="bold" stroke="none"><tspan dx="0 " x="0" y="10">Context</tspan></text><rect stroke="none" fill="#F9EAEA" x="981" y="131" width="10" height="16" /><rect stroke="#9A8484" x="981" y="131" width="10" height="17" /><rect stroke="none" fill="#F9EAEA" x="978" y="133" width="6" height="4" /><rect stroke="#9A8484" x="978" y="133" width="6" height="5" /><rect stroke="none" fill="#F9EAEA" x="978" y="140" width="6" height="4" /><rect stroke="#9A8484" x="978" y="140" width="6" height="5" /><rect stroke="none" fill="#DAEAFC" x="880" y="148" width="14" height="14" /><rect stroke="#9A8484" x="880" y="148" width="14" height="15" /><rect stroke="none" fill="#DAEAFC" x="900" y="179" width="14" height="14" /><rect stroke="#9A8484" x="900" y="179" width="14" height="15" /><rect stroke="none" fill="#F9EAEA" x="720" y="126" width="109" height="59" /><rect stroke="#9A8484" x="720" y="126" width="109" height="60" /><text transform="matrix(1 0 0 1 755 135)" fill="#595959" font-weight="bold" stroke="none"><tspan dx="0 " x="0" y="10">NLU</tspan></text><rect stroke="none" fill="#F9EAEA" x="814" y="131" width="10" height="16" /><rect stroke="#9A8484" x="814" y="131" width="10" height="17" /><rect stroke="none" fill="#F9EAEA" x="811" y="133" width="6" height="4" /><rect stroke="#9A8484" x="811" y="133" width="6" height="5" /><rect stroke="none" fill="#F9EAEA" x="811" y="140" width="6" height="4" /><rect stroke="#9A8484" x="811" y="140" width="6" height="5" /><rect stroke="none" fill="#DAEAFC" x="713" y="151" width="14" height="14" /><rect stroke="#9A8484" x="713" y="151" width="14" height="15" /><rect stroke="none" fill="#DAEAFC" x="764" y="179" width="14" height="14" /><rect stroke="#9A8484" x="764" y="179" width="14" height="15" /><rect stroke="none" fill="#DAEAFC" x="823" y="148" width="14" height="14" /><rect stroke="#9A8484" x="823" y="148" width="14" height="15" /><rect stroke="none" fill="#F9EAEA" x="887" y="429" width="109" height="59" /><rect stroke="#9A8484" x="887" y="429" width="109" height="60" /><text transform="matrix(1 0 0 1 923 438)" fill="#595959" font-weight="bold" stroke="none"><tspan dx="0 " x="0" y="10">NLG</tspan></text><rect stroke="none" fill="#F9EAEA" x="981" y="434" width="10" height="16" /><rect stroke="#9A8484" x="981" y="434" width="10" height="17" /><rect stroke="none" fill="#F9EAEA" x="978" y="436" width="6" height="4" /><rect stroke="#9A8484" x="978" y="436" width="6" height="5" /><rect stroke="none" fill="#F9EAEA" x="978" y="443" width="6" height="4" /><rect stroke="#9A8484" x="978" y="443" width="6" height="5" /><rect stroke="none" fill="#DAEAFC" x="904" y="421" width="14" height="14" /><rect stroke="#9A8484" x="904" y="421" width="14" height="15" /><rect stroke="none" fill="#DAEAFC" x="955" y="421" width="14" height="14" /><rect stroke="#9A8484" x="955" y="421" width="14" height="15" /><rect stroke="none" fill="#DAEAFC" x="880" y="455" width="14" height="14" /><rect stroke="#9A8484" x="880" y="455" width="14" height="15" /><path stroke="#69738C" d="M838 155h12M859.18 144.57C858.79 144.52 858.39 144.5 858 144.5C853.25 145 849 149.25 849 154.5C849 159.75 853.25 164 858.5 164C858.32 163.5 858.63 163.48 858.95 163.45M865 155h15" /><path stroke="none" fill="#FAF1EC" d="M852 154.5C852 150.91 854.91 148 858.5 148C862.09 148 865 150.91 865 154.5C865 158.09 862.09 161 858.5 161C854.91 161 852 158.09 852 154.5" /><path stroke="#69738C" d="M852 154.5C852 150.91 854.91 148 858.5 148C862.09 148 865 150.91 865 154.5C865 158.09 862.09 161 858.5 161C854.91 161 852 158.09 852 154.5M658 459h18M685.18 448.57C684.79 448.52 684.39 448.5 684 448.5C679.25 449 675 453.25 675 458.5C675 463.75 679.25 468 684.5 468C684.32 467.5 684.63 467.48 684.95 467.45M691 459h22" /><path stroke="none" fill="#FAF1EC" d="M678 458.5C678 454.91 680.91 452 684.5 452C688.09 452 691 454.91 691 458.5C691 462.09 688.09 465 684.5 465C680.91 465 678 462.09 678 458.5" /><path stroke="#69738C" d="M678 458.5C678 454.91 680.91 452 684.5 452C688.09 452 691 454.91 691 458.5C691 462.09 688.09 465 684.5 465C680.91 465 678 462.09 678 458.5M287 222V206M276.56 197.05C277.09 201.84 281.18 205.5 286 205.5C290.86 205.5 294.97 201.78 295.45 196.95M287 191V172" /><path stroke="none" fill="#FAF1EC" d="M280 196.5C280 192.91 282.91 190 286.5 190C290.09 190 293 192.91 293 196.5C293 200.09 290.09 203 286.5 203C282.91 203 280 200.09 280 196.5" /><path stroke="#69738C" d="M280 196.5C280 192.91 282.91 190 286.5 190C290.09 190 293 192.91 293 196.5C293 200.09 290.09 203 286.5 203C282.91 203 280 200.09 280 196.5M142 222V206M131.56 197.05C132.09 201.84 136.18 205.5 141 205.5C145.86 205.5 149.97 201.78 150.45 196.95M142 191V172" /><path stroke="none" fill="#FAF1EC" d="M135 196.5C135 192.91 137.91 190 141.5 190C145.09 190 148 192.91 148 196.5C148 200.09 145.09 203 141.5 203C137.91 203 135 200.09 135 196.5" /><path stroke="#69738C" d="M135 196.5C135 192.91 137.91 190 141.5 190C145.09 190 148 192.91 148 196.5C148 200.09 145.09 203 141.5 203C137.91 203 135 200.09 135 196.5M1087 363h-17M1059.86 371.46C1064.73 371.02 1068.5 366.89 1068.5 362C1068.5 357.18 1064.84 353.09 1060.05 352.56M1053 363h-19" /><path stroke="none" fill="#FAF1EC" d="M1053 362.5C1053 358.91 1055.91 356 1059.5 356C1063.09 356 1066 358.91 1066 362.5C1066 366.09 1063.09 369 1059.5 369C1055.91 369 1053 366.09 1053 362.5" /><path stroke="#69738C" d="M1053 362.5C1053 358.91 1055.91 356 1059.5 356C1063.09 356 1066 358.91 1066 362.5C1066 366.09 1063.09 369 1059.5 369C1055.91 369 1053 366.09 1053 362.5M970 424l42 -20m0 0V114" /><path stroke="#69738C" d="M886 114v34" /><path stroke="#69738C" d="M1012 114H959M948.86 122.46C953.73 122.02 957.5 117.89 957.5 113C957.5 108.18 953.84 104.09 949.05 103.56M942 114H886" /><path stroke="none" fill="#FAF1EC" d="M942 113.5C942 109.91 944.91 107 948.5 107C952.09 107 955 109.91 955 113.5C955 117.09 952.09 120 948.5 120C944.91 120 942 117.09 942 113.5" /><path stroke="#69738C" d="M942 113.5C942 109.91 944.91 107 948.5 107C952.09 107 955 109.91 955 113.5C955 117.09 952.09 120 948.5 120C944.91 120 942 117.09 942 113.5M838 243l24 -20M861.92 208.7C859.75 210.51 858.5 213.18 858.5 216C859 221.75 863.25 226 868.5 226C870.06 225.5 872.06 224.83 873.7 223.6M873 214l27 -23" /><path stroke="none" fill="#FAF1EC" d="M862 216.5C862 212.91 864.91 210 868.5 210C872.09 210 875 212.91 875 216.5C875 220.09 872.09 223 868.5 223C864.91 223 862 220.09 862 216.5" /><path stroke="#69738C" d="M862 216.5C862 212.91 864.91 210 868.5 210C872.09 210 875 212.91 875 216.5C875 220.09 872.09 223 868.5 223C864.91 223 862 220.09 862 216.5M289 505v9M297.45 522.95C297.48 522.63 297.5 522.32 297.5 522C298 517.25 293.75 513 288.5 513C283.25 513 279 517.25 279 522.5C278.5 522.35 278.52 522.7 278.56 523.05M289 530v12" /><path stroke="none" fill="#FAF1EC" d="M282 522.5C282 518.91 284.91 516 288.5 516C292.09 516 295 518.91 295 522.5C295 526.09 292.09 529 288.5 529C284.91 529 282 526.09 282 522.5" /><path stroke="#69738C" d="M282 522.5C282 518.91 284.91 516 288.5 516C292.09 516 295 518.91 295 522.5C295 526.09 292.09 529 288.5 529C284.91 529 282 526.09 282 522.5M771 324v-2M760.56 313.05C761.09 317.84 765.18 321.5 770 321.5C774.86 321.5 778.97 317.78 779.45 312.95M771 307v-4" /><path stroke="none" fill="#FAF1EC" d="M764 312.5C764 308.91 766.91 306 770.5 306C774.09 306 777 308.91 777 312.5C777 316.09 774.09 319 770.5 319C766.91 319 764 316.09 764 312.5" /><path stroke="#69738C" d="M764 312.5C764 308.91 766.91 306 770.5 306C774.09 306 777 308.91 777 312.5C777 316.09 774.09 319 770.5 319C766.91 319 764 316.09 764 312.5M1034 209h16M1059.18 198.57C1058.79 198.52 1058.39 198.5 1058 198.5C1053.25 199 1049 203.25 1049 208.5C1049 213.75 1053.25 218 1058.5 218C1058.32 217.5 1058.63 217.48 1058.95 217.45M1065 209h19" /><path stroke="none" fill="#FAF1EC" d="M1052 208.5C1052 204.91 1054.91 202 1058.5 202C1062.09 202 1065 204.91 1065 208.5C1065 212.09 1062.09 215 1058.5 215C1054.91 215 1052 212.09 1052 208.5" /><path stroke="#69738C" d="M1052 208.5C1052 204.91 1054.91 202 1058.5 202C1062.09 202 1065 204.91 1065 208.5C1065 212.09 1062.09 215 1058.5 215C1054.91 215 1052 212.09 1052 208.5M1084 95h-15M1058.86 103.46C1063.73 103.02 1067.5 98.89 1067.5 94C1067.5 89.18 1063.84 85.09 1059.05 84.56M1052 95h-18" /><path stroke="none" fill="#FAF1EC" d="M1052 94.5C1052 90.91 1054.91 88 1058.5 88C1062.09 88 1065 90.91 1065 94.5C1065 98.09 1062.09 101 1058.5 101C1054.91 101 1052 98.09 1052 94.5" /><path stroke="#69738C" d="M1052 94.5C1052 90.91 1054.91 88 1058.5 88C1062.09 88 1065 90.91 1065 94.5C1065 98.09 1062.09 101 1058.5 101C1054.91 101 1052 98.09 1052 94.5" /><path stroke="#69738C" stroke-dasharray="7,4" d="M499 95L499 234" /><path stroke="#69738C" stroke-dasharray="7,4" d="M1019 95L499 95" /><path stroke="#69738C" fill="#FAF1EC" d="M1004 101V89l15 6l-15 6" /><path stroke="#69738C" d="M594 194v5M602.45 207.95C602.48 207.63 602.5 207.32 602.5 207C603 202.25 598.75 198 593.5 198C588.25 198 584 202.25 584 207.5C583.5 207.35 583.52 207.7 583.56 208.05M594 215v8" /><path stroke="none" fill="#FAF1EC" d="M587 207.5C587 203.91 589.91 201 593.5 201C597.09 201 600 203.91 600 207.5C600 211.09 597.09 214 593.5 214C589.91 214 587 211.09 587 207.5" /><path stroke="#69738C" d="M587 207.5C587 203.91 589.91 201 593.5 201C597.09 201 600 203.91 600 207.5C600 211.09 597.09 214 593.5 214C589.91 214 587 211.09 587 207.5M910 421V289m0 0H884M873.86 297.46C878.73 297.02 882.5 292.89 882.5 288C882.5 283.18 878.84 279.09 874.05 278.56M867 289H838" /><path stroke="none" fill="#FAF1EC" d="M867 288.5C867 284.91 869.91 282 873.5 282C877.09 282 880 284.91 880 288.5C880 292.09 877.09 295 873.5 295C869.91 295 867 292.09 867 288.5" /><path stroke="#69738C" d="M867 288.5C867 284.91 869.91 282 873.5 282C877.09 282 880 284.91 880 288.5C880 292.09 877.09 295 873.5 295C869.91 295 867 292.09 867 288.5M498 283l-2 -7m-1 -4l-2 -7m-1 -4l-2 -7m-1 -4l-3 -7m-1 -4l-2 -7m-1 -4l-2 -5" /><path stroke="#69738C" fill="#FAF1EC" d="M488 270l11 -3l-1 16L488 270" /><path stroke="#69738C" stroke-dasharray="7,4" d="M1019 364L880 364" /><path stroke="#69738C" fill="#FAF1EC" d="M1004 370V358l15 6l-15 6" /><path stroke="#69738C" d="M375 375l2 7m1 4l2 7m2 4l2 7m1 4l3 7m1 4l2 7m1 4l3 7m1 4l2 7m2 4l2 7m1 4l2 7m2 4l2 7m1 4l3 7" /><path stroke="#69738C" fill="#FAF1EC" d="M385 387l-11 4l1 -16l10 12" /><path stroke="#69738C" d="M413 223l-2 7m-2 4l-3 7m-2 4l-2 7m-2 4l-3 7m-2 4l-2 7m-2 4l-3 7m-2 4l-3 7m-1 4l-3 7m-2 4l-3 7m-1 4l-3 7m-2 4l-3 7m-1 4l-2 3" /><path stroke="#69738C" fill="#FAF1EC" d="M413 239l-11 -4l11 -12v16" /><path stroke="#69738C" stroke-dasharray="7,4" d="M796 209L1019 209" /><path stroke="#69738C" d="M777 228l7 -7m4 -4l7 -7" /><path stroke="#69738C" fill="#FAF1EC" d="M783 213l9 9l-15 6l6 -15" /><path stroke="#69738C" d="M142 542V532M131.56 523.05C132.09 527.84 136.18 531.5 141 531.5C145.86 531.5 149.97 527.78 150.45 522.95M142 517V505" /><path stroke="none" fill="#FAF1EC" d="M135 522.5C135 518.91 137.91 516 141.5 516C145.09 516 148 518.91 148 522.5C148 526.09 145.09 529 141.5 529C137.91 529 135 526.09 135 522.5" /><path stroke="#69738C" d="M135 522.5C135 518.91 137.91 516 141.5 516C145.09 516 148 518.91 148 522.5C148 526.09 145.09 529 141.5 529C137.91 529 135 526.09 135 522.5M425 502h14M448.18 491.57C447.79 491.52 447.39 491.5 447 491.5C442.25 492 438 496.25 438 501.5C438 506.75 442.25 511 447.5 511C447.32 510.5 447.63 510.48 447.95 510.45M454 502h17" /><path stroke="none" fill="#FAF1EC" d="M441 501.5C441 497.91 443.91 495 447.5 495C451.09 495 454 497.91 454 501.5C454 505.09 451.09 508 447.5 508C443.91 508 441 505.09 441 501.5" /><path stroke="#69738C" d="M441 501.5C441 497.91 443.91 495 447.5 495C451.09 495 454 497.91 454 501.5C454 505.09 451.09 508 447.5 508C443.91 508 441 505.09 441 501.5M833 373l16 36m0 0H763M752.86 417.46C757.73 417.02 761.5 412.89 761.5 408C761.5 403.18 757.84 399.09 753.05 398.56M746 409H658" /><path stroke="none" fill="#FAF1EC" d="M746 408.5C746 404.91 748.91 402 752.5 402C756.09 402 759 404.91 759 408.5C759 412.09 756.09 415 752.5 415C748.91 415 746 412.09 746 408.5" /><path stroke="#69738C" d="M746 408.5C746 404.91 748.91 402 752.5 402C756.09 402 759 404.91 759 408.5C759 412.09 756.09 415 752.5 415C748.91 415 746 412.09 746 408.5M471 215H458M447.86 223.46C452.73 223.02 456.5 218.89 456.5 214C456.5 209.18 452.84 205.09 448.05 204.56M441 215H425" /><path stroke="none" fill="#FAF1EC" d="M441 214.5C441 210.91 443.91 208 447.5 208C451.09 208 454 210.91 454 214.5C454 218.09 451.09 221 447.5 221C443.91 221 441 218.09 441 214.5" /><path stroke="#69738C" d="M441 214.5C441 210.91 443.91 208 447.5 208C451.09 208 454 210.91 454 214.5C454 218.09 451.09 221 447.5 221C443.91 221 441 218.09 441 214.5M838 462h12M859.18 451.57C858.79 451.52 858.39 451.5 858 451.5C853.25 452 849 456.25 849 461.5C849 466.75 853.25 471 858.5 471C858.32 470.5 858.63 470.48 858.95 470.45M865 462h15" /><path stroke="none" fill="#FAF1EC" d="M852 461.5C852 457.91 854.91 455 858.5 455C862.09 455 865 457.91 865 461.5C865 465.09 862.09 468 858.5 468C854.91 468 852 465.09 852 461.5" /><path stroke="#69738C" d="M852 461.5C852 457.91 854.91 455 858.5 455C862.09 455 865 457.91 865 461.5C865 465.09 862.09 468 858.5 468C854.91 468 852 465.09 852 461.5M771 228v-8M760.56 211.05C761.09 215.84 765.18 219.5 770 219.5C774.86 219.5 778.97 215.78 779.45 210.95M771 205V194" /><path stroke="none" fill="#FAF1EC" d="M764 210.5C764 206.91 766.91 204 770.5 204C774.09 204 777 206.91 777 210.5C777 214.09 774.09 217 770.5 217C766.91 217 764 214.09 764 210.5" /><path stroke="#69738C" d="M764 210.5C764 206.91 766.91 204 770.5 204C774.09 204 777 206.91 777 210.5C777 214.09 774.09 217 770.5 217C766.91 217 764 214.09 764 210.5M713 158H695M684.86 166.46C689.73 166.02 693.5 161.89 693.5 157C693.5 152.18 689.84 148.09 685.05 147.56M678 158H658" /><path stroke="none" fill="#FAF1EC" d="M678 157.5C678 153.91 680.91 151 684.5 151C688.09 151 691 153.91 691 157.5C691 161.09 688.09 164 684.5 164C680.91 164 678 161.09 678 157.5" /><path stroke="#69738C" d="M678 157.5C678 153.91 680.91 151 684.5 151C688.09 151 691 153.91 691 157.5C691 161.09 688.09 164 684.5 164C680.91 164 678 161.09 678 157.5M481 495l3 -7m2 -4l3 -7m2 -4l4 -7" /><path stroke="#69738C" fill="#FAF1EC" d="M482 479l11 5l-12 11l1 -16" /><g transform="matrix(1 0 0 -1 871 223)"><rect fill="#F9EAEA" stroke="none" x="0" width="61" y="-13" height="13" /></g><text transform="matrix(1 0 0 1 871 223)" fill="#595959" stroke="none"><tspan dx="0 " x="0" y="10">History Update</tspan></text><g transform="matrix(1 0 0 -1 609 195)"><rect fill="#F9EAEA" stroke="none" x="0" width="41" y="-13" height="13" /></g><text transform="matrix(1 0 0 1 609 195)" fill="#595959" stroke="none"><tspan dx="0 " x="0" y="10">ASR Input</tspan></text><g transform="matrix(1 0 0 -1 816 167)"><rect fill="#F9EAEA" stroke="none" x="0" width="93" y="-13" height="13" /></g><text transform="matrix(1 0 0 1 816 167)" fill="#595959" stroke="none"><tspan dx="0 " x="0" y="10">Contextual enrichment</tspan></text><g transform="matrix(1 0 0 -1 665 429)"><rect fill="#F9EAEA" stroke="none" x="0" width="47" y="-13" height="13" /></g><text transform="matrix(1 0 0 1 665 429)" fill="#595959" stroke="none"><tspan dx="0 " x="0" y="10">TTS Output</tspan></text><g transform="matrix(1 0 0 -1 836 108)"><rect fill="#F9EAEA" stroke="none" x="0" width="93" y="-13" height="13" /></g><text transform="matrix(1 0 0 1 836 108)" fill="#595959" stroke="none"><tspan dx="0 " x="0" y="10">Contextual Enrichment</tspan></text><g transform="matrix(1 0 0 -1 422 192)"><rect fill="#FFFFFF" stroke="none" x="0" width="47" y="-13" height="13" /></g><text transform="matrix(1 0 0 1 422 192)" fill="#595959" stroke="none"><tspan dx="0 " x="0" y="10">Client Input</tspan></text><g transform="matrix(1 0 0 -1 838 437)"><rect fill="#F9EAEA" stroke="none" x="0" width="49" y="-13" height="13" /></g><text transform="matrix(1 0 0 1 838 437)" fill="#595959" stroke="none"><tspan dx="0 " x="0" y="10">Text Output</tspan></text><g transform="matrix(1 0 0 -1 889 296)"><rect fill="#F9EAEA" stroke="none" x="0" width="68" y="-13" height="13" /></g><text transform="matrix(1 0 0 1 889 296)" fill="#595959" stroke="none"><tspan dx="0 " x="0" y="10">Dialog Response</tspan></text><g transform="matrix(1 0 0 -1 57 521)"><rect fill="#FFFFFF" stroke="none" x="0" width="55" y="-13" height="13" /></g><text transform="matrix(1 0 0 1 57 521)" fill="#595959" stroke="none"><tspan dx="0 " x="0" y="10">Audio Output</tspan></text><g transform="matrix(1 0 0 -1 760 393)"><rect fill="#F9EAEA" stroke="none" x="0" width="47" y="-13" height="13" /></g><text transform="matrix(1 0 0 1 760 393)" fill="#595959" stroke="none"><tspan dx="0 " x="0" y="10">Service Call</tspan></text><g transform="matrix(1 0 0 -1 1033 336)"><rect fill="#FFFFFF" stroke="none" x="0" width="47" y="-13" height="13" /></g><text transform="matrix(1 0 0 1 1033 336)" fill="#595959" stroke="none"><tspan dx="0 " x="0" y="10">Service Call</tspan></text><g transform="matrix(1 0 0 -1 665 124)"><rect fill="#F9EAEA" stroke="none" x="0" width="41" y="-13" height="13" /></g><text transform="matrix(1 0 0 1 665 124)" fill="#595959" stroke="none"><tspan dx="0 " x="0" y="10">NLU Input</tspan></text><g transform="matrix(1 0 0 -1 984 222)"><rect fill="#FFFFFF" stroke="none" x="0" width="98" y="-13" height="13" /></g><text transform="matrix(1 0 0 1 984 222)" fill="#595959" stroke="none"><tspan dx="0 " x="0" y="10">S</tspan><tspan dx="0 " x="4.333333" y="10">e</tspan><tspan dx="0 " x="9.333333" y="10">m</tspan><tspan dx="0 " x="17.33333" y="10">a</tspan><tspan dx="0 " x="22" y="10">n</tspan><tspan dx="0 0 " x="27.33333" y="10">ti</tspan><tspan dx="0 " x="33" y="10">c</tspan><tspan dx="0 " x="37.33333" y="10"> </tspan><tspan dx="0 " x="39.66666" y="10">I</tspan><tspan dx="0 " x="42.33333" y="10">n</tspan><tspan dx="0 " x="47.66666" y="10">t</tspan><tspan dx="0 " x="51" y="10">e</tspan><tspan dx="0 " x="56" y="10">r</tspan><tspan dx="0 " x="59.66666" y="10">p</tspan><tspan dx="0 " x="65" y="10">r</tspan><tspan dx="0 " x="68.66666" y="10">e</tspan><tspan dx="0 " x="73.66666" y="10">t</tspan><tspan dx="0 " x="77" y="10">a</tspan><tspan dx="0 0 " x="81.66666" y="10">ti</tspan><tspan dx="0 " x="87.33333" y="10">o</tspan><tspan dx="0 " x="92.66666" y="10">n</tspan></text><g transform="matrix(1 0 0 -1 307 189)"><rect fill="#F9EAEA" stroke="none" x="0" width="43" y="-13" height="13" /></g><text transform="matrix(1 0 0 1 307 189)" fill="#595959" stroke="none"><tspan dx="0 " x="0" y="10">Local Data</tspan></text><g transform="matrix(1 0 0 -1 418 474)"><rect fill="#FFFFFF" stroke="none" x="0" width="65" y="-13" height="13" /></g><text transform="matrix(1 0 0 1 418 474)" fill="#595959" stroke="none"><tspan dx="0 " x="0" y="10">Client Response</tspan></text><g transform="matrix(1 0 0 -1 1035 70)"><rect fill="#FFFFFF" stroke="none" x="0" width="47" y="-13" height="13" /></g><text transform="matrix(1 0 0 1 1035 70)" fill="#595959" stroke="none"><tspan dx="0 " x="0" y="10">Client Input</tspan></text><g transform="matrix(1 0 0 -1 658 208)"><rect fill="#F9EAEA" stroke="none" x="0" width="98" y="-13" height="13" /></g><text transform="matrix(1 0 0 1 658 208)" fill="#595959" stroke="none"><tspan dx="0 " x="0" y="10">S</tspan><tspan dx="0 " x="4.333333" y="10">e</tspan><tspan dx="0 " x="9.333333" y="10">m</tspan><tspan dx="0 " x="17.33333" y="10">a</tspan><tspan dx="0 " x="22" y="10">n</tspan><tspan dx="0 0 " x="27.33333" y="10">ti</tspan><tspan dx="0 " x="33" y="10">c</tspan><tspan dx="0 " x="37.33333" y="10"> </tspan><tspan dx="0 " x="39.66666" y="10">I</tspan><tspan dx="0 " x="42.33333" y="10">n</tspan><tspan dx="0 " x="47.66666" y="10">t</tspan><tspan dx="0 " x="51" y="10">e</tspan><tspan dx="0 " x="56" y="10">r</tspan><tspan dx="0 " x="59.66666" y="10">p</tspan><tspan dx="0 " x="65" y="10">r</tspan><tspan dx="0 " x="68.66666" y="10">e</tspan><tspan dx="0 " x="73.66666" y="10">t</tspan><tspan dx="0 " x="77" y="10">a</tspan><tspan dx="0 0 " x="81.66666" y="10">ti</tspan><tspan dx="0 " x="87.33333" y="10">o</tspan><tspan dx="0 " x="92.66666" y="10">n</tspan></text><g transform="matrix(1 0 0 -1 304 520)"><rect fill="#F9EAEA" stroke="none" x="0" width="48" y="-13" height="13" /></g><text transform="matrix(1 0 0 1 304 520)" fill="#595959" stroke="none"><tspan dx="0 " x="0" y="10">Audio Input</tspan></text><g transform="matrix(1 0 0 -1 787 304)"><rect fill="#F9EAEA" stroke="none" x="0" width="83" y="-13" height="13" /></g><text transform="matrix(1 0 0 1 787 304)" fill="#595959" stroke="none"><tspan dx="0 " x="0" y="10">S</tspan><tspan dx="0 " x="4.333333" y="10">p</tspan><tspan dx="0 " x="9.666666" y="10">e</tspan><tspan dx="0 " x="14.66667" y="10">c</tspan><tspan dx="0 " x="19" y="10">i</tspan><tspan dx="0 0 " x="21.33333" y="10">fi</tspan><tspan dx="0 " x="26.66666" y="10">c</tspan><tspan dx="0 " x="31" y="10"> </tspan><tspan dx="0 " x="33.33333" y="10">D</tspan><tspan dx="0 " x="39.33333" y="10">i</tspan><tspan dx="0 " x="41.66666" y="10">a</tspan><tspan dx="0 " x="46.33333" y="10">l</tspan><tspan dx="0 " x="48.66666" y="10">o</tspan><tspan dx="0 " x="53.99999" y="10">g</tspan><tspan dx="0 " x="58.66666" y="10"> </tspan><tspan dx="0 " x="60.99999" y="10">I</tspan><tspan dx="0 " x="63.66666" y="10">n</tspan><tspan dx="0 " x="68.99999" y="10">p</tspan><tspan dx="0 " x="74.33333" y="10">u</tspan><tspan dx="0 " x="79.66666" y="10">t</tspan></text><g transform="matrix(1 0 0 -1 156 191)"><rect fill="#F9EAEA" stroke="none" x="0" width="70" y="-13" height="13" /></g><text transform="matrix(1 0 0 1 156 191)" fill="#595959" stroke="none"><tspan dx="0 " x="0" y="10">Local Service Call</tspan></text></g></g></g></g></svg>