<?xml version="1.0" encoding="utf-8"?><svg version="1.1" preserveAspectRatio="xMidYMid" xml:space="preserve" width="448.38164pt" height="244.71141pt" viewBox="55.78186 28.578490000000002 448.38164 244.71141" xmlns="http://www.w3.org/2000/svg" xmlns:xlink="http://www.w3.org/1999/xlink"><g transform="matrix(1 0 0 -1 0 790)"><g stroke="#000000" fill="none" fill-rule="evenodd" stroke-width="1" stroke-linecap="round" stroke-linejoin="round" stroke-miterlimit="3" letter-spacing="normal" font-weight="normal" font-style="normal" baseline-shift="0"><g transform="matrix(0.5 0 0 0.5 0 790.549988)"><g transform="matrix(1.483299 0 0 -1.485139 0 0)" font-family="CalibriUnicode" font-size="7"><rect fill="#D0D0D0" stroke="none" x="410" y="53" width="91" height="50" /><rect stroke="none" fill="#F9EAEA" x="407" y="50" width="90" height="49" /><rect stroke="#9A8484" x="407" y="50" width="90" height="50" /><rect stroke="#9A8484" x="407" y="50" width="90" height="49" /><text transform="matrix(1 0 0 1 421 53)" fill="#595959" stroke="none"><tspan dx="0 " x="0" y="7">«</tspan><tspan dx="0 " x="3.25" y="7">I</tspan><tspan dx="0 " x="5" y="7">n</tspan><tspan dx="0 " x="8.5" y="7">t</tspan><tspan dx="0 " x="10.75" y="7">e</tspan><tspan dx="0 " x="14" y="7">r</tspan><tspan dx="0 " x="16.25" y="7">a</tspan><tspan dx="0 " x="19.25" y="7">c</tspan><tspan dx="0 0 " x="22.25" y="7">ti</tspan><tspan dx="0 " x="26.25" y="7">o</tspan><tspan dx="0 " x="29.75" y="7">n</tspan><tspan dx="0 " x="33.25" y="7">M</tspan><tspan dx="0 " x="39.25" y="7">a</tspan><tspan dx="0 " x="42.5" y="7">n</tspan><tspan dx="0 " x="46.25" y="7">a</tspan><tspan dx="0 " x="49.5" y="7">g</tspan><tspan dx="0 " x="52.75" y="7">e</tspan><tspan dx="0 " x="56.25" y="7">r</tspan><tspan dx="0 " x="58.5" y="7">»</tspan></text><text transform="matrix(1 0 0 1 424 65)" fill="#595959" stroke="none"><tspan dx="0 " x="0" y="7">I</tspan><tspan dx="0 " x="1.75" y="7">n</tspan><tspan dx="0 " x="5.25" y="7">t</tspan><tspan dx="0 " x="7.5" y="7">e</tspan><tspan dx="0 " x="10.75" y="7">r</tspan><tspan dx="0 " x="13" y="7">a</tspan><tspan dx="0 " x="16" y="7">c</tspan><tspan dx="0 0 " x="19" y="7">ti</tspan><tspan dx="0 " x="23" y="7">o</tspan><tspan dx="0 " x="26.5" y="7">n</tspan><tspan dx="0 " x="30.25" y="7"> </tspan><tspan dx="0 " x="31.75" y="7">M</tspan><tspan dx="0 " x="37.75" y="7">a</tspan><tspan dx="0 " x="41" y="7">n</tspan><tspan dx="0 " x="44.75" y="7">a</tspan><tspan dx="0 " x="48" y="7">g</tspan><tspan dx="0 " x="51.25" y="7">e</tspan><tspan dx="0 " x="54.75" y="7">r</tspan></text><path stroke="#9A8484" stroke-dasharray="7,4" d="M452 100L452 358" /><rect stroke="none" fill="#F9EAEA" x="447" y="147" width="9" height="9" /><rect stroke="#9A8484" x="447" y="147" width="9" height="10" /><rect stroke="none" fill="#F9EAEA" x="447" y="217" width="9" height="125" /><rect stroke="#9A8484" x="447" y="217" width="9" height="126" /><path fill="#D0D0D0" stroke="none" d="M89 56.5C89 54.01 91.01 52 93.5 52C95.99 52 98 54.01 98 56.5C98 58.99 95.99 61 93.5 61C91.01 61 89 58.99 89 56.5" /><path stroke="none" fill="#FEF2DD" d="M87 54.5C87 52.01 89.01 50 91.5 50C93.99 50 96 52.01 96 54.5C96 56.99 93.99 59 91.5 59C89.01 59 87 56.99 87 54.5" /><path stroke="#9A8484" d="M87 54.5C87 52.01 89.01 50 91.5 50C93.99 50 96 52.01 96 54.5C96 56.99 93.99 59 91.5 59C89.01 59 87 56.99 87 54.5M92 60V70M87 65H97M87 80L92 70m5 10L92 70" /><text transform="matrix(1 0 0 1 86 85)" fill="#595959" stroke="none"><tspan dx="0 " x="0" y="7">User</tspan></text><path stroke="#9A8484" stroke-dasharray="7,4" d="M92 94L92 354" /><rect stroke="none" fill="#FEF2DD" x="87" y="182" width="9" height="160" /><rect stroke="#9A8484" x="87" y="182" width="9" height="161" /><rect fill="#D0D0D0" stroke="none" x="175" y="53" width="88" height="50" /><rect stroke="none" fill="#F9EAEA" x="172" y="50" width="87" height="49" /><rect stroke="#9A8484" x="172" y="50" width="87" height="50" /><rect stroke="#9A8484" x="172" y="50" width="87" height="49" /><text transform="matrix(1 0 0 1 184 53)" fill="#595959" stroke="none"><tspan dx="0 " x="0" y="7">«ModalityComponent»</tspan></text><text transform="matrix(1 0 0 1 178 65)" fill="#595959" stroke="none"><tspan dx="0 " x="0" y="7">Voice Modality Component</tspan></text><path stroke="#9A8484" stroke-dasharray="7,4" d="M216 100L216 358" /><rect stroke="none" fill="#F9EAEA" x="211" y="147" width="9" height="9" /><rect stroke="#9A8484" x="211" y="147" width="9" height="10" /><rect stroke="none" fill="#F9EAEA" x="211" y="182" width="9" height="160" /><rect stroke="#9A8484" x="211" y="182" width="9" height="161" /><rect stroke="none" fill="#F9EAEA" x="216" y="238" width="9" height="11" /><rect stroke="#9A8484" x="216" y="238" width="9" height="12" /><rect stroke="none" fill="#F9EAEA" x="216" y="328" width="9" height="11" /><rect stroke="#9A8484" x="216" y="328" width="9" height="12" /><rect fill="#D0D0D0" stroke="none" x="579" y="53" width="90" height="50" /><rect stroke="none" fill="#F9EAEA" x="576" y="50" width="89" height="49" /><rect stroke="#9A8484" x="576" y="50" width="89" height="50" /><rect stroke="#9A8484" x="576" y="50" width="89" height="49" /><text transform="matrix(1 0 0 1 612 53)" fill="#595959" stroke="none"><tspan dx="0 " x="0" y="7">Dialog</tspan></text><path stroke="#9A8484" stroke-dasharray="7,4" d="M621 100L621 358" /><rect stroke="none" fill="#F9EAEA" x="616" y="247" width="9" height="9" /><rect stroke="#9A8484" x="616" y="247" width="9" height="10" /><path stroke="#A3A3A3" stroke-width="2" d="M196 352H513m0 0V271" /><path stroke="#9A8484" d="M193 268v83m0 0H512m0 0V268m0 0H193" /><path stroke="#9A8484" fill="#F1FAED" d="M193 268v16h75l13 -14v-2H193" /><path stroke="#9A8484" d="M193 268v16h75l13 -14v-2H193 Z" /><text transform="matrix(1 0 0 1 198 271)" fill="#595959" font-weight="bold" stroke="none"><tspan dx="0 " x="0" y="7">alt modality supported</tspan></text><text transform="matrix(1 0 0 1 198 287)" fill="#595959" stroke="none"><tspan dx="0 " x="0" y="7">[</tspan><tspan dx="0 " x="2.25" y="7">M</tspan><tspan dx="0 " x="8" y="7">o</tspan><tspan dx="0 " x="11.5" y="7">d</tspan><tspan dx="0 " x="15" y="7">a</tspan><tspan dx="0 " x="18" y="7">l</tspan><tspan dx="0 " x="19.75" y="7">i</tspan><tspan dx="0 " x="21.5" y="7">t</tspan><tspan dx="0 " x="23.75" y="7">y</tspan><tspan dx="0 " x="26.75" y="7"> </tspan><tspan dx="0 " x="28" y="7">C</tspan><tspan dx="0 " x="31.5" y="7">o</tspan><tspan dx="0 " x="35" y="7">m</tspan><tspan dx="0 " x="40.25" y="7">p</tspan><tspan dx="0 " x="43.75" y="7">o</tspan><tspan dx="0 " x="47.25" y="7">n</tspan><tspan dx="0 " x="50.75" y="7">e</tspan><tspan dx="0 " x="54" y="7">n</tspan><tspan dx="0 " x="57.5" y="7">t</tspan><tspan dx="0 " x="59.75" y="7"> </tspan><tspan dx="0 " x="61" y="7">s</tspan><tspan dx="0 " x="63.75" y="7">u</tspan><tspan dx="0 " x="67.25" y="7">p</tspan><tspan dx="0 " x="70.75" y="7">p</tspan><tspan dx="0 " x="74.25" y="7">o</tspan><tspan dx="0 " x="77.75" y="7">r</tspan><tspan dx="0 " x="80" y="7">t</tspan><tspan dx="0 " x="82.25" y="7">s</tspan><tspan dx="0 " x="85" y="7"> </tspan><tspan dx="0 " x="86.25" y="7">p</tspan><tspan dx="0 " x="89.75" y="7">a</tspan><tspan dx="0 " x="92.75" y="7">r</tspan><tspan dx="0 " x="95" y="7">t</tspan><tspan dx="0 " x="97.25" y="7">s</tspan><tspan dx="0 " x="100" y="7"> </tspan><tspan dx="0 " x="101.25" y="7">o</tspan><tspan dx="0 " x="104.75" y="7">f</tspan><tspan dx="0 " x="107" y="7"> </tspan><tspan dx="0 " x="108.25" y="7">M</tspan><tspan dx="0 " x="114" y="7">u</tspan><tspan dx="0 " x="117.5" y="7">l</tspan><tspan dx="0 0 " x="119.25" y="7">ti</tspan><tspan dx="0 " x="123.25" y="7">M</tspan><tspan dx="0 " x="129" y="7">o</tspan><tspan dx="0 " x="132.75" y="7">d</tspan><tspan dx="0 " x="136.5" y="7">a</tspan><tspan dx="0 " x="139.75" y="7">l</tspan><tspan dx="0 " x="141.5" y="7">D</tspan><tspan dx="0 " x="146" y="7">a</tspan><tspan dx="0 " x="149.25" y="7">t</tspan><tspan dx="0 " x="151.5" y="7">a</tspan><tspan dx="0 " x="154.75" y="7">]</tspan></text><path stroke="#69738C" d="M447 147H221" /><path stroke="#69738C" fill="#69738C" d="M233 143v4v4l-12 -4l12 -4" /><path stroke="#69738C" d="M97 182H211" /><path stroke="#69738C" fill="#69738C" d="M199 178v4v4l12 -4l-12 -4" /><path stroke="#69738C" d="M221 217H447" /><path stroke="#69738C" fill="#69738C" d="M435 213v4v4l12 -4l-12 -4" /><path stroke="#69738C" d="M447 238H226" /><path stroke="#69738C" fill="#69738C" d="M238 234v4v4l-12 -4l12 -4" /><path stroke="#69738C" d="M457 247H616" /><path stroke="#69738C" fill="#69738C" d="M604 243v4v4l12 -4l-12 -4" /><path stroke="#69738C" d="M447 328H226" /><path stroke="#69738C" fill="#69738C" d="M238 324v4v4l-12 -4l12 -4" /><g transform="matrix(1 0 0 -1 266 136)"><rect fill="#FFFFFF" stroke="none" x="0" width="138" y="-9" height="9" /></g><text transform="matrix(1 0 0 1 266 136)" fill="#595959" stroke="none"><tspan dx="0 " x="0" y="7">startCapture(CaptureModalityComponentListener)</tspan></text><g transform="matrix(1 0 0 -1 292 317)"><rect fill="#FFFFFF" stroke="none" x="0" width="88" y="-9" height="9" /></g><text transform="matrix(1 0 0 1 292 317)" fill="#595959" stroke="none"><tspan dx="0 " x="0" y="7">h</tspan><tspan dx="0 " x="3.25" y="7">a</tspan><tspan dx="0 " x="6.5" y="7">n</tspan><tspan dx="0 " x="10" y="7">d</tspan><tspan dx="0 " x="13.5" y="7">l</tspan><tspan dx="0 " x="15.25" y="7">e</tspan><tspan dx="0 " x="18.5" y="7">O</tspan><tspan dx="0 " x="22.75" y="7">u</tspan><tspan dx="0 " x="26.25" y="7">t</tspan><tspan dx="0 " x="28.5" y="7">p</tspan><tspan dx="0 " x="32" y="7">u</tspan><tspan dx="0 " x="35.5" y="7">t</tspan><tspan dx="0 " x="37.75" y="7">(</tspan><tspan dx="0 " x="40" y="7">M</tspan><tspan dx="0 " x="45.75" y="7">u</tspan><tspan dx="0 " x="49.25" y="7">l</tspan><tspan dx="0 0 " x="51" y="7">ti</tspan><tspan dx="0 " x="55" y="7">M</tspan><tspan dx="0 " x="60.75" y="7">o</tspan><tspan dx="0 " x="64.25" y="7">d</tspan><tspan dx="0 " x="67.75" y="7">a</tspan><tspan dx="0 " x="71" y="7">l</tspan><tspan dx="0 " x="72.75" y="7">D</tspan><tspan dx="0 " x="77" y="7">a</tspan><tspan dx="0 " x="80.25" y="7">t</tspan><tspan dx="0 " x="82.5" y="7">a</tspan><tspan dx="0 " x="85.75" y="7">)</tspan></text><g transform="matrix(1 0 0 -1 488 231)"><rect fill="#FFFFFF" stroke="none" x="0" width="119" y="-9" height="9" /></g><text transform="matrix(1 0 0 1 488 231)" fill="#595959" stroke="none"><tspan dx="0 " x="0" y="7">processIPAData(IPARequest): IPAResponse</tspan></text><g transform="matrix(1 0 0 -1 126 172)"><rect fill="#FFFFFF" stroke="none" x="0" width="56" y="-9" height="9" /></g><text transform="matrix(1 0 0 1 126 172)" fill="#595959" stroke="none"><tspan dx="0 " x="0" y="7">query(Audio): Audio</tspan></text><g transform="matrix(1 0 0 -1 318 228)"><rect fill="#FFFFFF" stroke="none" x="0" width="37" y="-9" height="9" /></g><text transform="matrix(1 0 0 1 318 228)" fill="#595959" stroke="none"><tspan dx="0 " x="0" y="7">stopCapture()</tspan></text><g transform="matrix(1 0 0 -1 275 207)"><rect fill="#FFFFFF" stroke="none" x="0" width="119" y="-9" height="9" /></g><text transform="matrix(1 0 0 1 275 207)" fill="#595959" stroke="none"><tspan dx="0 " x="0" y="7">p</tspan><tspan dx="0 " x="3.5" y="7">r</tspan><tspan dx="0 " x="5.75" y="7">o</tspan><tspan dx="0 " x="9.25" y="7">c</tspan><tspan dx="0 " x="12.25" y="7">e</tspan><tspan dx="0 " x="15.5" y="7">s</tspan><tspan dx="0 " x="18.25" y="7">s</tspan><tspan dx="0 " x="21" y="7">I</tspan><tspan dx="0 " x="22.75" y="7">P</tspan><tspan dx="0 " x="26" y="7">A</tspan><tspan dx="0 " x="30" y="7">D</tspan><tspan dx="0 " x="34.5" y="7">a</tspan><tspan dx="0 " x="37.75" y="7">t</tspan><tspan dx="0 " x="40" y="7">a</tspan><tspan dx="0 " x="43.25" y="7">(</tspan><tspan dx="0 " x="45.5" y="7">I</tspan><tspan dx="0 " x="47.25" y="7">P</tspan><tspan dx="0 " x="50.75" y="7">A</tspan><tspan dx="0 " x="54.75" y="7">D</tspan><tspan dx="0 " x="59.25" y="7">a</tspan><tspan dx="0 " x="62.5" y="7">t</tspan><tspan dx="0 " x="64.75" y="7">a</tspan><tspan dx="0 " x="68" y="7">)</tspan><tspan dx="0 " x="70.25" y="7">:</tspan><tspan dx="0 " x="72" y="7"> </tspan><tspan dx="0 " x="73.5" y="7">M</tspan><tspan dx="0 " x="79.5" y="7">u</tspan><tspan dx="0 0 " x="83.25" y="7">ti</tspan><tspan dx="0 " x="87.25" y="7">M</tspan><tspan dx="0 " x="93.25" y="7">o</tspan><tspan dx="0 " x="97" y="7">d</tspan><tspan dx="0 " x="100.75" y="7">a</tspan><tspan dx="0 " x="104" y="7">l</tspan><tspan dx="0 " x="105.75" y="7">D</tspan><tspan dx="0 " x="110.25" y="7">a</tspan><tspan dx="0 " x="113.5" y="7">t</tspan><tspan dx="0 " x="115.75" y="7">a</tspan></text></g></g></g></g></svg>