<?xml version="1.0" encoding="utf-8"?><svg version="1.1" preserveAspectRatio="xMidYMid" xml:space="preserve" width="713.7472600000001pt" height="295.94871pt" viewBox="34.26524 28.578490000000002 713.7472600000001 295.94871" xmlns="http://www.w3.org/2000/svg" xmlns:xlink="http://www.w3.org/1999/xlink"><g transform="matrix(1 0 0 -1 0 790)"><g stroke="#000000" fill="none" fill-rule="evenodd" stroke-width="1" stroke-linecap="round" stroke-linejoin="round" stroke-miterlimit="3" letter-spacing="normal" font-weight="normal" font-style="normal" baseline-shift="0"><g transform="matrix(0.5 0 0 0.5 0 790.549988)"><g transform="matrix(1.482991 0 0 -1.485139 0 0)" font-family="CalibriUnicode" font-size="7"><path fill="#D0D0D0" stroke="none" d="M60 56.5C60 54.01 62.01 52 64.5 52C66.99 52 69 54.01 69 56.5C69 58.99 66.99 61 64.5 61C62.01 61 60 58.99 60 56.5" /><path stroke="none" fill="#FEF2DD" d="M58 54.5C58 52.01 60.01 50 62.5 50C64.99 50 67 52.01 67 54.5C67 56.99 64.99 59 62.5 59C60.01 59 58 56.99 58 54.5" /><path stroke="#9A8484" d="M58 54.5C58 52.01 60.01 50 62.5 50C64.99 50 67 52.01 67 54.5C67 56.99 64.99 59 62.5 59C60.01 59 58 56.99 58 54.5M63 60V70M58 65H68M58 80L63 70m5 10L63 70" /><text transform="matrix(1 0 0 1 57 85)" fill="#595959" stroke="none"><tspan dx="0 " x="0" y="7">User</tspan></text><path stroke="#9A8484" stroke-dasharray="7,4" d="M63 94L63 427" /><rect stroke="none" fill="#FEF2DD" x="58" y="170" width="9" height="187" /><rect stroke="#9A8484" x="58" y="170" width="9" height="188" /><rect fill="#D0D0D0" stroke="none" x="908" y="53" width="90" height="50" /><rect stroke="none" fill="#F9EAEA" x="905" y="50" width="89" height="49" /><rect stroke="#9A8484" x="905" y="50" width="89" height="50" /><rect stroke="#9A8484" x="905" y="50" width="89" height="49" /><text transform="matrix(1 0 0 1 941 53)" fill="#595959" stroke="none"><tspan dx="0 " x="0" y="7">Dialog</tspan></text><path stroke="#9A8484" stroke-dasharray="7,4" d="M950 100L950 426" /><rect stroke="none" fill="#F9EAEA" x="945" y="281" width="9" height="9" /><rect stroke="#9A8484" x="945" y="281" width="9" height="10" /><rect fill="#D0D0D0" stroke="none" x="716" y="53" width="90" height="50" /><rect stroke="none" fill="#FDFAF7" x="713" y="50" width="89" height="49" /><rect stroke="#9A8484" x="713" y="50" width="89" height="50" /><rect stroke="#9A8484" x="713" y="50" width="89" height="49" /><text transform="matrix(1 0 0 1 730 53)" fill="#595959" stroke="none"><tspan dx="0 " x="0" y="7">I</tspan><tspan dx="0 " x="1.75" y="7">n</tspan><tspan dx="0 " x="5.25" y="7">t</tspan><tspan dx="0 " x="7.5" y="7">e</tspan><tspan dx="0 " x="10.75" y="7">r</tspan><tspan dx="0 " x="13" y="7">a</tspan><tspan dx="0 " x="16.25" y="7">c</tspan><tspan dx="0 0 " x="19.25" y="7">ti</tspan><tspan dx="0 " x="23.25" y="7">o</tspan><tspan dx="0 " x="27" y="7">n</tspan><tspan dx="0 " x="30.75" y="7">M</tspan><tspan dx="0 " x="36.75" y="7">a</tspan><tspan dx="0 " x="40" y="7">n</tspan><tspan dx="0 " x="43.75" y="7">a</tspan><tspan dx="0 " x="47" y="7">g</tspan><tspan dx="0 " x="50.25" y="7">e</tspan><tspan dx="0 " x="53.75" y="7">r</tspan></text><path stroke="#9A8484" stroke-dasharray="7,4" d="M758 100L758 426" /><rect stroke="none" fill="#FDFAF7" x="753" y="135" width="9" height="9" /><rect stroke="#9A8484" x="753" y="135" width="9" height="10" /><rect stroke="none" fill="#FDFAF7" x="753" y="241" width="9" height="116" /><rect stroke="#9A8484" x="753" y="241" width="9" height="117" /><rect fill="#D0D0D0" stroke="none" x="288" y="53" width="111" height="50" /><rect stroke="none" fill="#FDFAF7" x="285" y="50" width="110" height="49" /><rect stroke="#9A8484" x="285" y="50" width="110" height="50" /><rect stroke="#9A8484" x="285" y="50" width="110" height="49" /><text transform="matrix(1 0 0 1 301 53)" fill="#595959" stroke="none"><tspan dx="0 " x="0" y="7">CaptureModalityComponent</tspan></text><path stroke="#9A8484" stroke-dasharray="7,4" d="M340 100L340 426" /><rect stroke="none" fill="#FDFAF7" x="335" y="135" width="9" height="9" /><rect stroke="#9A8484" x="335" y="135" width="9" height="10" /><rect stroke="none" fill="#FDFAF7" x="335" y="170" width="9" height="187" /><rect stroke="#9A8484" x="335" y="170" width="9" height="188" /><rect stroke="none" fill="#FDFAF7" x="340" y="269" width="9" height="11" /><rect stroke="#9A8484" x="340" y="269" width="9" height="12" /><rect fill="#D0D0D0" stroke="none" x="481" y="53" width="165" height="50" /><rect stroke="none" fill="#FDFAF7" x="478" y="50" width="164" height="49" /><rect stroke="#9A8484" x="478" y="50" width="164" height="50" /><rect stroke="#9A8484" x="478" y="50" width="164" height="49" /><text transform="matrix(1 0 0 1 499 53)" fill="#595959" stroke="none"><tspan dx="0 " x="0" y="7">M</tspan><tspan dx="0 " x="5.75" y="7">u</tspan><tspan dx="0 " x="9.25" y="7">l</tspan><tspan dx="0 " x="11" y="7">i</tspan><tspan dx="0 " x="12.75" y="7">t</tspan><tspan dx="0 " x="15" y="7">M</tspan><tspan dx="0 " x="20.75" y="7">o</tspan><tspan dx="0 " x="24.25" y="7">d</tspan><tspan dx="0 " x="27.75" y="7">a</tspan><tspan dx="0 " x="30.75" y="7">l</tspan><tspan dx="0 " x="32.5" y="7">C</tspan><tspan dx="0 " x="36" y="7">a</tspan><tspan dx="0 " x="39" y="7">p</tspan><tspan dx="0 " x="42.5" y="7">t</tspan><tspan dx="0 " x="44.75" y="7">u</tspan><tspan dx="0 " x="48.25" y="7">r</tspan><tspan dx="0 " x="50.5" y="7">e</tspan><tspan dx="0 " x="53.75" y="7">S</tspan><tspan dx="0 " x="56.75" y="7">y</tspan><tspan dx="0 " x="59.75" y="7">n</tspan><tspan dx="0 " x="63.25" y="7">c</tspan><tspan dx="0 " x="66.25" y="7">h</tspan><tspan dx="0 " x="69.75" y="7">r</tspan><tspan dx="0 " x="72" y="7">o</tspan><tspan dx="0 " x="75.75" y="7">n</tspan><tspan dx="0 " x="79.5" y="7">i</tspan><tspan dx="0 " x="81.25" y="7">z</tspan><tspan dx="0 " x="84" y="7">a</tspan><tspan dx="0 0 " x="87.25" y="7">ti</tspan><tspan dx="0 " x="91.25" y="7">o</tspan><tspan dx="0 " x="95" y="7">n</tspan><tspan dx="0 " x="98.75" y="7">S</tspan><tspan dx="0 " x="102" y="7">t</tspan><tspan dx="0 " x="104.25" y="7">r</tspan><tspan dx="0 " x="106.5" y="7">a</tspan><tspan dx="0 " x="109.75" y="7">t</tspan><tspan dx="0 " x="112" y="7">e</tspan><tspan dx="0 " x="115.5" y="7">g</tspan><tspan dx="0 " x="118.75" y="7">y</tspan></text><path stroke="#9A8484" stroke-dasharray="7,4" d="M560 100L560 426" /><rect stroke="none" fill="#FDFAF7" x="555" y="184" width="9" height="173" /><rect stroke="#9A8484" x="555" y="184" width="9" height="174" /><rect stroke="none" fill="#FDFAF7" x="560" y="213" width="9" height="136" /><rect stroke="#9A8484" x="560" y="213" width="9" height="137" /><rect fill="#D0D0D0" stroke="none" x="113" y="53" width="129" height="50" /><rect stroke="none" fill="#FDFAF7" x="110" y="50" width="128" height="49" /><rect stroke="#9A8484" x="110" y="50" width="128" height="50" /><rect stroke="#9A8484" x="110" y="50" width="128" height="49" /><text transform="matrix(1 0 0 1 128 53)" fill="#595959" stroke="none"><tspan dx="0 " x="0" y="7">P</tspan><tspan dx="0 " x="3.25" y="7">r</tspan><tspan dx="0 " x="5.5" y="7">e</tspan><tspan dx="0 " x="8.75" y="7">s</tspan><tspan dx="0 " x="11.5" y="7">e</tspan><tspan dx="0 " x="14.75" y="7">n</tspan><tspan dx="0 " x="18.25" y="7">t</tspan><tspan dx="0 " x="20.5" y="7">a</tspan><tspan dx="0 0 " x="23.75" y="7">ti</tspan><tspan dx="0 " x="27.75" y="7">o</tspan><tspan dx="0 " x="31.25" y="7">n</tspan><tspan dx="0 " x="34.75" y="7">M</tspan><tspan dx="0 " x="40.5" y="7">o</tspan><tspan dx="0 " x="44" y="7">d</tspan><tspan dx="0 " x="47.5" y="7">a</tspan><tspan dx="0 " x="50.75" y="7">l</tspan><tspan dx="0 " x="52.5" y="7">i</tspan><tspan dx="0 " x="54.25" y="7">t</tspan><tspan dx="0 " x="56.5" y="7">y</tspan><tspan dx="0 " x="59.75" y="7">C</tspan><tspan dx="0 " x="63.25" y="7">o</tspan><tspan dx="0 " x="66.75" y="7">m</tspan><tspan dx="0 " x="72" y="7">p</tspan><tspan dx="0 " x="75.5" y="7">o</tspan><tspan dx="0 " x="79" y="7">n</tspan><tspan dx="0 " x="82.5" y="7">e</tspan><tspan dx="0 " x="86" y="7">n</tspan><tspan dx="0 " x="89.75" y="7">t</tspan></text><path stroke="#9A8484" stroke-dasharray="7,4" d="M174 100L174 426" /><rect stroke="none" fill="#FDFAF7" x="169" y="343" width="9" height="9" /><rect stroke="#9A8484" x="169" y="343" width="9" height="10" /><path stroke="#A3A3A3" stroke-width="2" d="M167 370H884m0 0V294" /><path stroke="#9A8484" d="M164 291v78m0 0H883m0 0V291m0 0H164" /><path stroke="#9A8484" fill="#F1FAED" d="M164 291v16h75l13 -14v-2H164" /><path stroke="#9A8484" d="M164 291v16h75l13 -14v-2H164 Z" /><text transform="matrix(1 0 0 1 169 294)" fill="#595959" font-weight="bold" stroke="none"><tspan dx="0 " x="0" y="7">alt modality supported</tspan></text><text transform="matrix(1 0 0 1 169 310)" fill="#595959" stroke="none"><tspan dx="0 " x="0" y="7">[</tspan><tspan dx="0 " x="2.25" y="7">M</tspan><tspan dx="0 " x="8" y="7">o</tspan><tspan dx="0 " x="11.5" y="7">d</tspan><tspan dx="0 " x="15" y="7">a</tspan><tspan dx="0 " x="18" y="7">l</tspan><tspan dx="0 " x="19.75" y="7">i</tspan><tspan dx="0 " x="21.5" y="7">t</tspan><tspan dx="0 " x="23.75" y="7">y</tspan><tspan dx="0 " x="26.75" y="7"> </tspan><tspan dx="0 " x="28" y="7">C</tspan><tspan dx="0 " x="31.5" y="7">o</tspan><tspan dx="0 " x="35" y="7">m</tspan><tspan dx="0 " x="40.25" y="7">p</tspan><tspan dx="0 " x="43.75" y="7">o</tspan><tspan dx="0 " x="47.25" y="7">n</tspan><tspan dx="0 " x="50.75" y="7">e</tspan><tspan dx="0 " x="54" y="7">n</tspan><tspan dx="0 " x="57.5" y="7">t</tspan><tspan dx="0 " x="59.75" y="7"> </tspan><tspan dx="0 " x="61" y="7">s</tspan><tspan dx="0 " x="63.75" y="7">u</tspan><tspan dx="0 " x="67.25" y="7">p</tspan><tspan dx="0 " x="70.75" y="7">p</tspan><tspan dx="0 " x="74.25" y="7">o</tspan><tspan dx="0 " x="77.75" y="7">r</tspan><tspan dx="0 " x="80" y="7">t</tspan><tspan dx="0 " x="82.25" y="7">s</tspan><tspan dx="0 " x="85" y="7"> </tspan><tspan dx="0 " x="86.25" y="7">p</tspan><tspan dx="0 " x="89.75" y="7">a</tspan><tspan dx="0 " x="92.75" y="7">r</tspan><tspan dx="0 " x="95" y="7">t</tspan><tspan dx="0 " x="97.25" y="7">s</tspan><tspan dx="0 " x="100" y="7"> </tspan><tspan dx="0 " x="101.25" y="7">o</tspan><tspan dx="0 " x="104.75" y="7">f</tspan><tspan dx="0 " x="107" y="7"> </tspan><tspan dx="0 " x="108.25" y="7">M</tspan><tspan dx="0 " x="114" y="7">u</tspan><tspan dx="0 " x="117.5" y="7">l</tspan><tspan dx="0 0 " x="119.25" y="7">ti</tspan><tspan dx="0 " x="123.25" y="7">M</tspan><tspan dx="0 " x="129" y="7">o</tspan><tspan dx="0 " x="132.75" y="7">d</tspan><tspan dx="0 " x="136.5" y="7">a</tspan><tspan dx="0 " x="139.75" y="7">l</tspan><tspan dx="0 " x="141.5" y="7">D</tspan><tspan dx="0 " x="146" y="7">a</tspan><tspan dx="0 " x="149.25" y="7">t</tspan><tspan dx="0 " x="151.5" y="7">a</tspan><tspan dx="0 " x="154.75" y="7">]</tspan></text><path stroke="#69738C" d="M753 135H345" /><path stroke="#69738C" fill="#69738C" d="M357 131v4v4l-12 -4l12 -4" /><path stroke="#69738C" d="M68 170H335" /><path stroke="#69738C" fill="#69738C" d="M323 166v4v4l12 -4l-12 -4" /><path stroke="#69738C" d="M345 184H555" /><path stroke="#69738C" fill="#69738C" d="M543 180v4v4l12 -4l-12 -4" /><path stroke="#69738C" d="M565 198h40m0 0v15m0 0H570" /><path stroke="#69738C" fill="#69738C" d="M582 209v4v4l-12 -4l12 -4" /><path stroke="#69738C" d="M570 241H753" /><path stroke="#69738C" fill="#69738C" d="M741 237v4v4l12 -4l-12 -4" /><path stroke="#69738C" d="M753 269H350" /><path stroke="#69738C" fill="#69738C" d="M362 265v4v4l-12 -4l12 -4" /><path stroke="#69738C" d="M763 281H945" /><path stroke="#69738C" fill="#69738C" d="M933 277v4v4l12 -4l-12 -4" /><path stroke="#69738C" d="M753 343H179" /><path stroke="#69738C" fill="#69738C" d="M191 339v4v4l-12 -4l12 -4" /><g transform="matrix(1 0 0 -1 533 259)"><rect fill="#FFFFFF" stroke="none" x="0" width="37" y="-9" height="9" /></g><text transform="matrix(1 0 0 1 533 259)" fill="#595959" stroke="none"><tspan dx="0 " x="0" y="7">stopCapture()</tspan></text><g transform="matrix(1 0 0 -1 173 160)"><rect fill="#FFFFFF" stroke="none" x="0" width="56" y="-9" height="9" /></g><text transform="matrix(1 0 0 1 173 160)" fill="#595959" stroke="none"><tspan dx="0 " x="0" y="7">query(Audio): Audio</tspan></text><g transform="matrix(1 0 0 -1 806 265)"><rect fill="#FFFFFF" stroke="none" x="0" width="119" y="-9" height="9" /></g><text transform="matrix(1 0 0 1 806 265)" fill="#595959" stroke="none"><tspan dx="0 " x="0" y="7">processIPAData(IPARequest): IPAResponse</tspan></text><g transform="matrix(1 0 0 -1 612 204)"><rect fill="#FFFFFF" stroke="none" x="0" width="202" y="-9" height="9" /></g><text transform="matrix(1 0 0 1 612 204)" fill="#595959" stroke="none"><tspan dx="0 " x="0" y="7">n</tspan><tspan dx="0 " x="3.5" y="7">o</tspan><tspan dx="0 0 " x="7" y="7">ti</tspan><tspan dx="0 " x="11" y="7">f</tspan><tspan dx="0 " x="13.25" y="7">y</tspan><tspan dx="0 " x="16.25" y="7">I</tspan><tspan dx="0 " x="18" y="7">n</tspan><tspan dx="0 " x="21.5" y="7">t</tspan><tspan dx="0 " x="23.75" y="7">e</tspan><tspan dx="0 " x="27" y="7">r</tspan><tspan dx="0 " x="29.25" y="7">a</tspan><tspan dx="0 " x="32.25" y="7">c</tspan><tspan dx="0 0 " x="35.25" y="7">ti</tspan><tspan dx="0 " x="39.25" y="7">o</tspan><tspan dx="0 " x="42.75" y="7">n</tspan><tspan dx="0 " x="46.25" y="7">M</tspan><tspan dx="0 " x="52" y="7">a</tspan><tspan dx="0 " x="55" y="7">n</tspan><tspan dx="0 " x="58.5" y="7">a</tspan><tspan dx="0 " x="61.5" y="7">g</tspan><tspan dx="0 " x="64.5" y="7">e</tspan><tspan dx="0 " x="67.75" y="7">r</tspan><tspan dx="0 " x="70" y="7">(</tspan><tspan dx="0 " x="72.25" y="7">s</tspan><tspan dx="0 " x="75" y="7">t</tspan><tspan dx="0 " x="77.25" y="7">d</tspan><tspan dx="0 " x="80.75" y="7">:</tspan><tspan dx="0 " x="82.5" y="7">:</tspan><tspan dx="0 " x="84.25" y="7">s</tspan><tspan dx="0 " x="87" y="7">h</tspan><tspan dx="0 " x="90.5" y="7">a</tspan><tspan dx="0 " x="93.5" y="7">r</tspan><tspan dx="0 " x="95.75" y="7">e</tspan><tspan dx="0 " x="99" y="7">d</tspan><tspan dx="0 " x="102.5" y="7">_</tspan><tspan dx="0 " x="105.75" y="7">p</tspan><tspan dx="0 " x="109.25" y="7">t</tspan><tspan dx="0 " x="111.5" y="7">r</tspan><tspan dx="0 " x="113.75" y="7">&lt;</tspan><tspan dx="0 " x="117" y="7">M</tspan><tspan dx="0 " x="122.75" y="7">u</tspan><tspan dx="0 " x="126.25" y="7">l</tspan><tspan dx="0 0 " x="128" y="7">ti</tspan><tspan dx="0 " x="132" y="7">M</tspan><tspan dx="0 " x="137.75" y="7">o</tspan><tspan dx="0 " x="141.25" y="7">d</tspan><tspan dx="0 " x="144.75" y="7">a</tspan><tspan dx="0 " x="147.75" y="7">l</tspan><tspan dx="0 " x="149.5" y="7">D</tspan><tspan dx="0 " x="153.75" y="7">a</tspan><tspan dx="0 " x="157" y="7">t</tspan><tspan dx="0 " x="159.25" y="7">a</tspan><tspan dx="0 " x="162.5" y="7">C</tspan><tspan dx="0 " x="166.25" y="7">o</tspan><tspan dx="0 " x="170" y="7">l</tspan><tspan dx="0 " x="171.75" y="7">l</tspan><tspan dx="0 " x="173.5" y="7">e</tspan><tspan dx="0 " x="177" y="7">c</tspan><tspan dx="0 0 " x="180" y="7">ti</tspan><tspan dx="0 " x="184" y="7">o</tspan><tspan dx="0 " x="187.75" y="7">n</tspan><tspan dx="0 " x="191.5" y="7">&gt;</tspan><tspan dx="0 " x="195" y="7">&amp;</tspan><tspan dx="0 " x="199.75" y="7">)</tspan></text><g transform="matrix(1 0 0 -1 454 125)"><rect fill="#FFFFFF" stroke="none" x="0" width="192" y="-9" height="9" /></g><text transform="matrix(1 0 0 1 454 125)" fill="#595959" stroke="none"><tspan dx="0 " x="0" y="7">startCapture(std::shared_ptr&lt;CaptureModalityComponentListener&gt;&amp;)</tspan></text><g transform="matrix(1 0 0 -1 569 231)"><rect fill="#FFFFFF" stroke="none" x="0" width="184" y="-9" height="9" /></g><text transform="matrix(1 0 0 1 569 231)" fill="#595959" stroke="none"><tspan dx="0 " x="0" y="7">o</tspan><tspan dx="0 " x="3.5" y="7">n</tspan><tspan dx="0 " x="7" y="7">M</tspan><tspan dx="0 " x="12.75" y="7">u</tspan><tspan dx="0 " x="16.25" y="7">l</tspan><tspan dx="0 0 " x="18" y="7">ti</tspan><tspan dx="0 " x="22" y="7">m</tspan><tspan dx="0 " x="27.25" y="7">o</tspan><tspan dx="0 " x="30.75" y="7">d</tspan><tspan dx="0 " x="34.25" y="7">a</tspan><tspan dx="0 " x="37.25" y="7">l</tspan><tspan dx="0 " x="39" y="7">I</tspan><tspan dx="0 " x="40.75" y="7">n</tspan><tspan dx="0 " x="44.25" y="7">p</tspan><tspan dx="0 " x="47.75" y="7">u</tspan><tspan dx="0 " x="51.25" y="7">t</tspan><tspan dx="0 " x="53.5" y="7">(</tspan><tspan dx="0 " x="55.75" y="7">s</tspan><tspan dx="0 " x="58.5" y="7">t</tspan><tspan dx="0 " x="60.75" y="7">d</tspan><tspan dx="0 " x="64.25" y="7">:</tspan><tspan dx="0 " x="66" y="7">:</tspan><tspan dx="0 " x="67.75" y="7">s</tspan><tspan dx="0 " x="70.5" y="7">h</tspan><tspan dx="0 " x="74" y="7">a</tspan><tspan dx="0 " x="77" y="7">r</tspan><tspan dx="0 " x="79.25" y="7">e</tspan><tspan dx="0 " x="82.5" y="7">d</tspan><tspan dx="0 " x="86" y="7">_</tspan><tspan dx="0 " x="89.25" y="7">p</tspan><tspan dx="0 " x="92.75" y="7">t</tspan><tspan dx="0 " x="95" y="7">r</tspan><tspan dx="0 " x="97.25" y="7">&lt;</tspan><tspan dx="0 " x="100.5" y="7">M</tspan><tspan dx="0 " x="106.25" y="7">u</tspan><tspan dx="0 " x="109.75" y="7">l</tspan><tspan dx="0 0 " x="111.5" y="7">ti</tspan><tspan dx="0 " x="115.5" y="7">M</tspan><tspan dx="0 " x="121.25" y="7">o</tspan><tspan dx="0 " x="124.75" y="7">d</tspan><tspan dx="0 " x="128.25" y="7">a</tspan><tspan dx="0 " x="131.25" y="7">l</tspan><tspan dx="0 " x="133" y="7">D</tspan><tspan dx="0 " x="137.25" y="7">a</tspan><tspan dx="0 " x="140.25" y="7">t</tspan><tspan dx="0 " x="142.5" y="7">a</tspan><tspan dx="0 " x="145.5" y="7">C</tspan><tspan dx="0 " x="149" y="7">o</tspan><tspan dx="0 " x="152.5" y="7">l</tspan><tspan dx="0 " x="154.25" y="7">l</tspan><tspan dx="0 " x="156" y="7">e</tspan><tspan dx="0 " x="159.25" y="7">c</tspan><tspan dx="0 0 " x="162.25" y="7">ti</tspan><tspan dx="0 " x="166.25" y="7">o</tspan><tspan dx="0 " x="169.75" y="7">n</tspan><tspan dx="0 " x="173.5" y="7">&gt;</tspan><tspan dx="0 " x="177" y="7">&amp;</tspan><tspan dx="0 " x="181.75" y="7">)</tspan></text><g transform="matrix(1 0 0 -1 374 170)"><rect fill="#FFFFFF" stroke="none" x="0" width="153" y="-9" height="9" /></g><text transform="matrix(1 0 0 1 374 170)" fill="#595959" stroke="none"><tspan dx="0 " x="0" y="7">o</tspan><tspan dx="0 " x="3.5" y="7">n</tspan><tspan dx="0 " x="7" y="7">M</tspan><tspan dx="0 " x="12.75" y="7">u</tspan><tspan dx="0 " x="16.25" y="7">l</tspan><tspan dx="0 0 " x="18" y="7">ti</tspan><tspan dx="0 " x="22" y="7">M</tspan><tspan dx="0 " x="27.75" y="7">o</tspan><tspan dx="0 " x="31.25" y="7">d</tspan><tspan dx="0 " x="34.75" y="7">a</tspan><tspan dx="0 " x="37.75" y="7">l</tspan><tspan dx="0 " x="39.5" y="7">I</tspan><tspan dx="0 " x="41.25" y="7">n</tspan><tspan dx="0 " x="44.75" y="7">p</tspan><tspan dx="0 " x="48.25" y="7">u</tspan><tspan dx="0 " x="51.75" y="7">t</tspan><tspan dx="0 " x="54" y="7">(</tspan><tspan dx="0 " x="56.25" y="7">s</tspan><tspan dx="0 " x="59" y="7">t</tspan><tspan dx="0 " x="61.25" y="7">d</tspan><tspan dx="0 " x="64.75" y="7">:</tspan><tspan dx="0 " x="66.5" y="7">:</tspan><tspan dx="0 " x="68.25" y="7">s</tspan><tspan dx="0 " x="71" y="7">h</tspan><tspan dx="0 " x="74.5" y="7">a</tspan><tspan dx="0 " x="77.5" y="7">r</tspan><tspan dx="0 " x="79.75" y="7">e</tspan><tspan dx="0 " x="83" y="7">d</tspan><tspan dx="0 " x="86.5" y="7">_</tspan><tspan dx="0 " x="89.75" y="7">p</tspan><tspan dx="0 " x="93.25" y="7">t</tspan><tspan dx="0 " x="95.5" y="7">r</tspan><tspan dx="0 " x="97.75" y="7">&lt;</tspan><tspan dx="0 " x="101" y="7">M</tspan><tspan dx="0 " x="106.75" y="7">u</tspan><tspan dx="0 " x="110.25" y="7">l</tspan><tspan dx="0 0 " x="112" y="7">ti</tspan><tspan dx="0 " x="116" y="7">M</tspan><tspan dx="0 " x="121.75" y="7">o</tspan><tspan dx="0 " x="125.25" y="7">d</tspan><tspan dx="0 " x="129" y="7">a</tspan><tspan dx="0 " x="132.25" y="7">l</tspan><tspan dx="0 " x="134" y="7">D</tspan><tspan dx="0 " x="138.5" y="7">a</tspan><tspan dx="0 " x="141.75" y="7">t</tspan><tspan dx="0 " x="144" y="7">a</tspan><tspan dx="0 " x="147.25" y="7">&gt;</tspan><tspan dx="0 " x="150.75" y="7">)</tspan></text><g transform="matrix(1 0 0 -1 404 333)"><rect fill="#FFFFFF" stroke="none" x="0" width="125" y="-9" height="9" /></g><text transform="matrix(1 0 0 1 404 333)" fill="#595959" stroke="none"><tspan dx="0 " x="0" y="7">p</tspan><tspan dx="0 " x="3.5" y="7">r</tspan><tspan dx="0 " x="5.75" y="7">e</tspan><tspan dx="0 " x="9" y="7">s</tspan><tspan dx="0 " x="11.75" y="7">e</tspan><tspan dx="0 " x="15" y="7">n</tspan><tspan dx="0 " x="18.5" y="7">t</tspan><tspan dx="0 " x="20.75" y="7">(</tspan><tspan dx="0 " x="23" y="7">s</tspan><tspan dx="0 " x="25.75" y="7">t</tspan><tspan dx="0 " x="28" y="7">d</tspan><tspan dx="0 " x="31.5" y="7">:</tspan><tspan dx="0 " x="33.25" y="7">:</tspan><tspan dx="0 " x="35" y="7">s</tspan><tspan dx="0 " x="37.75" y="7">h</tspan><tspan dx="0 " x="41.25" y="7">a</tspan><tspan dx="0 " x="44.25" y="7">r</tspan><tspan dx="0 " x="46.5" y="7">e</tspan><tspan dx="0 " x="49.75" y="7">d</tspan><tspan dx="0 " x="53.25" y="7">_</tspan><tspan dx="0 " x="56.5" y="7">p</tspan><tspan dx="0 " x="60" y="7">t</tspan><tspan dx="0 " x="62.25" y="7">r</tspan><tspan dx="0 " x="64.5" y="7">&lt;</tspan><tspan dx="0 " x="67.75" y="7">M</tspan><tspan dx="0 " x="73.5" y="7">u</tspan><tspan dx="0 " x="77" y="7">l</tspan><tspan dx="0 0 " x="78.75" y="7">ti</tspan><tspan dx="0 " x="82.75" y="7">M</tspan><tspan dx="0 " x="88.75" y="7">o</tspan><tspan dx="0 " x="92.5" y="7">d</tspan><tspan dx="0 " x="96.25" y="7">a</tspan><tspan dx="0 " x="99.5" y="7">l</tspan><tspan dx="0 " x="101.25" y="7">D</tspan><tspan dx="0 " x="105.75" y="7">a</tspan><tspan dx="0 " x="109" y="7">t</tspan><tspan dx="0 " x="111.25" y="7">a</tspan><tspan dx="0 " x="114.5" y="7">&gt;</tspan><tspan dx="0 " x="118" y="7">&amp;</tspan><tspan dx="0 " x="122.75" y="7">)</tspan></text></g></g></g></g></svg>