<?xml version="1.0" encoding="utf-8"?><svg version="1.1" preserveAspectRatio="xMidYMid" xml:space="preserve" width="486.87174600000003pt" height="331.27326pt" viewBox="-5.0350459999999995 24.190040000000003 486.87174600000003 331.27326" xmlns="http://www.w3.org/2000/svg" xmlns:xlink="http://www.w3.org/1999/xlink"><desc xmlns:eadoc="http://www.siemens.com/eauml/doc"><eadoc:guid>EAID_68EA8C17_9EBB_4d6d_83F4_6332A156D162</eadoc:guid><eadoc:name>IPA Client</eadoc:name><eadoc:type>Diagram</eadoc:type><eadoc:note></eadoc:note></desc><g transform="matrix(1 0 0 -1 0 816)"><g stroke="#000000" fill="none" fill-rule="evenodd" stroke-width="1" stroke-linecap="round" stroke-linejoin="round" stroke-miterlimit="3" letter-spacing="normal" font-weight="normal" font-style="normal" baseline-shift="0"><g transform="matrix(0.5 0 0 0.5 0 816.450012)"><g transform="matrix(1.482477 0 0 -1.483639 0 0)" font-family="CalibriUnicode" font-size="7"><rect fill="#D0D0D0" stroke="none" x="576" y="296" width="15" height="30" /><rect stroke="none" fill="#DAEAFC" x="573" y="293" width="14" height="29" /><rect stroke="#9A8484" x="573" y="293" width="14" height="30" /><rect stroke="#9A8484" x="573" y="293" width="14" height="29" /><rect fill="#D0D0D0" stroke="none" x="98" y="129" width="15" height="15" /><rect stroke="none" fill="#DAEAFC" x="95" y="126" width="14" height="14" /><rect stroke="#9A8484" x="95" y="126" width="14" height="15" /><rect stroke="#9A8484" x="95" y="126" width="14" height="14" /><rect fill="#D0D0D0" stroke="none" x="98" y="380" width="15" height="15" /><rect stroke="none" fill="#DAEAFC" x="95" y="377" width="14" height="14" /><rect stroke="#9A8484" x="95" y="377" width="14" height="15" /><rect stroke="#9A8484" x="95" y="377" width="14" height="14" /><rect fill="#D0D0D0" stroke="none" x="98" y="409" width="15" height="15" /><rect stroke="none" fill="#DAEAFC" x="95" y="406" width="14" height="14" /><rect stroke="#9A8484" x="95" y="406" width="14" height="15" /><rect stroke="#9A8484" x="95" y="406" width="14" height="14" /><rect fill="#D0D0D0" stroke="none" x="98" y="233" width="15" height="15" /><rect stroke="none" fill="#DAEAFC" x="95" y="230" width="14" height="14" /><rect stroke="#9A8484" x="95" y="230" width="14" height="15" /><rect stroke="#9A8484" x="95" y="230" width="14" height="14" /><rect fill="#D0D0D0" stroke="none" x="98" y="290" width="15" height="15" /><rect stroke="none" fill="#DAEAFC" x="95" y="287" width="14" height="14" /><rect stroke="#9A8484" x="95" y="287" width="14" height="15" /><rect stroke="#9A8484" x="95" y="287" width="14" height="14" /><rect fill="#D0D0D0" stroke="none" x="98" y="319" width="15" height="15" /><rect stroke="none" fill="#DAEAFC" x="95" y="316" width="14" height="14" /><rect stroke="#9A8484" x="95" y="316" width="14" height="15" /><rect stroke="#9A8484" x="95" y="316" width="14" height="14" /><rect fill="#D0D0D0" stroke="none" x="106" y="47" width="478" height="422" /><rect stroke="none" fill="#F9EAEA" x="103" y="44" width="477" height="421" /><rect stroke="#9A8484" x="103" y="44" width="477" height="422" /><rect stroke="#9A8484" x="103" y="44" width="477" height="421" /><text transform="matrix(1 0 0 1 319 53)" fill="#595959" font-weight="bold" stroke="none"><desc xmlns:eadoc="http://www.siemens.com/eauml/doc"><eadoc:guid>EAID_0478837B_8764_44fa_AAFF_92BF18D26322</eadoc:guid><eadoc:name>IPA Client</eadoc:name><eadoc:type>Component</eadoc:type><eadoc:note></eadoc:note></desc><tspan dx="0 " x="0" y="7">IPA Client</tspan></text><path stroke="#9A8484" d="M103 67H580" /><rect stroke="none" fill="#F9EAEA" x="565" y="49" width="10" height="16" /><rect stroke="#9A8484" x="565" y="49" width="10" height="17" /><rect stroke="none" fill="#F9EAEA" x="562" y="51" width="6" height="4" /><rect stroke="#9A8484" x="562" y="51" width="6" height="5" /><rect stroke="none" fill="#F9EAEA" x="562" y="58" width="6" height="4" /><rect stroke="#9A8484" x="562" y="58" width="6" height="5" /><rect stroke="none" fill="#DAEAFC" x="573" y="293" width="14" height="29" /><rect stroke="#9A8484" x="573" y="293" width="14" height="30" /><rect stroke="#9A8484" x="573" y="293" width="14" height="29" /><rect stroke="none" fill="#DAEAFC" x="95" y="126" width="14" height="14" /><rect stroke="#9A8484" x="95" y="126" width="14" height="15" /><rect stroke="#9A8484" x="95" y="126" width="14" height="14" /><rect stroke="none" fill="#DAEAFC" x="95" y="377" width="14" height="14" /><rect stroke="#9A8484" x="95" y="377" width="14" height="15" /><rect stroke="#9A8484" x="95" y="377" width="14" height="14" /><rect stroke="none" fill="#DAEAFC" x="95" y="406" width="14" height="14" /><rect stroke="#9A8484" x="95" y="406" width="14" height="15" /><rect stroke="#9A8484" x="95" y="406" width="14" height="14" /><rect stroke="none" fill="#DAEAFC" x="95" y="230" width="14" height="14" /><rect stroke="#9A8484" x="95" y="230" width="14" height="15" /><rect stroke="#9A8484" x="95" y="230" width="14" height="14" /><rect stroke="none" fill="#DAEAFC" x="95" y="287" width="14" height="14" /><rect stroke="#9A8484" x="95" y="287" width="14" height="15" /><rect stroke="#9A8484" x="95" y="287" width="14" height="14" /><rect stroke="none" fill="#DAEAFC" x="95" y="316" width="14" height="14" /><rect stroke="#9A8484" x="95" y="316" width="14" height="15" /><rect stroke="#9A8484" x="95" y="316" width="14" height="14" /><path stroke="#9A8484" d="M588 299h26" /><path stroke="none" fill="#F1ECFA" d="M614 299C614 295.69 616.69 293 620 293C623.31 293 626 295.69 626 299C626 302.31 623.31 305 620 305C616.69 305 614 302.31 614 299" /><path stroke="#9A8484" d="M614 299C614 295.69 616.69 293 620 293C623.31 293 626 295.69 626 299C626 302.31 623.31 305 620 305C616.69 305 614 302.31 614 299M614 299C614 295.69 616.69 293 620 293C623.31 293 626 295.69 626 299C626 302.31 623.31 305 620 305C616.69 305 614 302.31 614 299" /><text transform="matrix(1 0 0 1 598 270)" fill="#595959" stroke="none"><tspan dx="0 " x="0" y="7">Client Input</tspan></text><path stroke="#9A8484" d="M588 314h26M620.99 308.08C620.66 308.03 620.33 308 620 308C616.69 308 614 310.69 614 314C614 317.31 616.69 320 620 320C620.28 320 620.57 319.98 620.85 319.94" /><text transform="matrix(1 0 0 1 596 324)" fill="#595959" stroke="none"><tspan dx="0 " x="0" y="7">Client Response</tspan></text><path stroke="#9A8484" d="M95 132H69m-7 6C62 138 62 138 62 138C65.31 138 68 135.31 68 132C68 128.71 65.29 126 62 126" /><text transform="matrix(1 0 0 1 14 126)" fill="#595959" stroke="none"><tspan dx="0 " x="0" y="7">LocalData</tspan></text><path stroke="#9A8484" d="M95 383H69" /><path stroke="none" fill="#F1ECFA" d="M56 383C56 379.69 58.69 377 62 377C65.31 377 68 379.69 68 383C68 386.31 65.31 389 62 389C58.69 389 56 386.31 56 383" /><path stroke="#9A8484" d="M56 383C56 379.69 58.69 377 62 377C65.31 377 68 379.69 68 383C68 386.31 65.31 389 62 389C58.69 389 56 386.31 56 383M56 383C56 379.69 58.69 377 62 377C65.31 377 68 379.69 68 383C68 386.31 65.31 389 62 389C58.69 389 56 386.31 56 383" /><text transform="matrix(1 0 0 1 5 375)" fill="#595959" stroke="none"><tspan dx="0 " x="0" y="7">Audio Output</tspan></text><path stroke="#9A8484" d="M95 412H69m-7 6C62 418 62 418 62 418C65.31 418 68 415.31 68 412C68 408.71 65.29 406 62 406" /><text transform="matrix(1 0 0 1 9 406)" fill="#595959" stroke="none"><tspan dx="0 " x="0" y="7">Audio Input</tspan></text><path stroke="#9A8484" d="M95 236H69m-7 6C62 242 62 242 62 242C65.31 242 68 239.31 68 236C68 232.71 65.29 230 62 230" /><text transform="matrix(1 0 0 1 4 230)" fill="#595959" stroke="none"><tspan dx="0 " x="0" y="7">Local Service</tspan></text><path stroke="#9A8484" d="M95 293H69" /><path stroke="none" fill="#F1ECFA" d="M56 293C56 289.69 58.69 287 62 287C65.31 287 68 289.69 68 293C68 296.31 65.31 299 62 299C58.69 299 56 296.31 56 293" /><path stroke="#9A8484" d="M56 293C56 289.69 58.69 287 62 287C65.31 287 68 289.69 68 293C68 296.31 65.31 299 62 299C58.69 299 56 296.31 56 293M56 293C56 289.69 58.69 287 62 287C65.31 287 68 289.69 68 293C68 296.31 65.31 299 62 299C58.69 299 56 296.31 56 293" /><text transform="matrix(1 0 0 1 6 285)" fill="#595959" stroke="none"><tspan dx="0 " x="0" y="7">Text Output</tspan></text><path stroke="#9A8484" d="M95 322H69m-7 6C62 328 62 328 62 328C65.31 328 68 325.31 68 322C68 318.71 65.29 316 62 316" /><text transform="matrix(1 0 0 1 13 314)" fill="#595959" stroke="none"><tspan dx="0 " x="0" y="7">Text Input</tspan></text><rect stroke="none" fill="#F9EAEA" x="217" y="107" width="109" height="59" /><rect stroke="#9A8484" x="217" y="107" width="109" height="60" /><text transform="matrix(1 0 0 1 231 116)" fill="#595959" font-weight="bold" stroke="none"><desc xmlns:eadoc="http://www.siemens.com/eauml/doc"><eadoc:guid>EAID_194D9448_B45C_4ed9_AA9D_1DA4B7B8AF24</eadoc:guid><eadoc:name>Local Service Registry</eadoc:name><eadoc:type>Component</eadoc:type><eadoc:note></eadoc:note></desc><tspan dx="0 " x="0" y="7">Local Service Registry</tspan></text><rect stroke="none" fill="#F9EAEA" x="311" y="112" width="10" height="16" /><rect stroke="#9A8484" x="311" y="112" width="10" height="17" /><rect stroke="none" fill="#F9EAEA" x="308" y="114" width="6" height="4" /><rect stroke="#9A8484" x="308" y="114" width="6" height="5" /><rect stroke="none" fill="#F9EAEA" x="308" y="121" width="6" height="4" /><rect stroke="#9A8484" x="308" y="121" width="6" height="5" /><rect stroke="none" fill="#DAEAFC" x="209" y="127" width="14" height="14" /><rect stroke="#9A8484" x="209" y="127" width="14" height="15" /><rect stroke="none" fill="#DAEAFC" x="320" y="133" width="14" height="14" /><rect stroke="#9A8484" x="320" y="133" width="14" height="15" /><path stroke="#9A8484" d="M209 133H183m-7 6C176 139 176 139 176 139C179.31 139 182 136.31 182 133C182 129.71 179.29 127 176 127" /><text transform="matrix(1 0 0 1 154 143)" fill="#595959" stroke="none"><tspan dx="0 " x="0" y="7">Register</tspan></text><rect stroke="none" fill="#F9EAEA" x="395" y="194" width="109" height="233" /><rect stroke="#9A8484" x="395" y="194" width="109" height="234" /><text transform="matrix(1 0 0 1 413 203)" fill="#595959" font-weight="bold" stroke="none"><desc xmlns:eadoc="http://www.siemens.com/eauml/doc"><eadoc:guid>EAID_0E03B95B_B6B2_44f7_A12E_09061E76E21F</eadoc:guid><eadoc:name>Modality Manager</eadoc:name><eadoc:type>Component</eadoc:type><eadoc:note></eadoc:note></desc><tspan dx="0 " x="0" y="7">Modality Manager</tspan></text><rect stroke="none" fill="#F9EAEA" x="489" y="199" width="10" height="16" /><rect stroke="#9A8484" x="489" y="199" width="10" height="17" /><rect stroke="none" fill="#F9EAEA" x="486" y="201" width="6" height="4" /><rect stroke="#9A8484" x="486" y="201" width="6" height="5" /><rect stroke="none" fill="#F9EAEA" x="486" y="208" width="6" height="4" /><rect stroke="#9A8484" x="486" y="208" width="6" height="5" /><rect stroke="none" fill="#DAEAFC" x="388" y="301" width="14" height="14" /><rect stroke="#9A8484" x="388" y="301" width="14" height="15" /><rect stroke="none" fill="#DAEAFC" x="497" y="301" width="14" height="14" /><rect stroke="#9A8484" x="497" y="301" width="14" height="15" /><rect stroke="none" fill="#F9EAEA" x="217" y="368" width="109" height="59" /><rect stroke="#9A8484" x="217" y="368" width="109" height="60" /><text transform="matrix(1 0 0 1 235 374)" fill="#595959" stroke="none"><tspan dx="0 " x="0" y="7">«ModalityHandler»</tspan></text><text transform="matrix(1 0 0 1 229 383)" fill="#595959" font-weight="bold" stroke="none"><desc xmlns:eadoc="http://www.siemens.com/eauml/doc"><eadoc:guid>EAID_DFF6672E_9D6B_459d_8B73_93E819F5F266</eadoc:guid><eadoc:name>Audio Modality Handler</eadoc:name><eadoc:type>Component</eadoc:type><eadoc:note></eadoc:note></desc><tspan dx="0 " x="0" y="7">Audio Modality Handler</tspan></text><rect stroke="none" fill="#F9EAEA" x="311" y="373" width="10" height="16" /><rect stroke="#9A8484" x="311" y="373" width="10" height="17" /><rect stroke="none" fill="#F9EAEA" x="308" y="375" width="6" height="4" /><rect stroke="#9A8484" x="308" y="375" width="6" height="5" /><rect stroke="none" fill="#F9EAEA" x="308" y="382" width="6" height="4" /><rect stroke="#9A8484" x="308" y="382" width="6" height="5" /><rect stroke="none" fill="#DAEAFC" x="209" y="383" width="14" height="29" /><rect stroke="#9A8484" x="209" y="383" width="14" height="30" /><rect stroke="none" fill="#DAEAFC" x="320" y="383" width="14" height="14" /><rect stroke="#9A8484" x="320" y="383" width="14" height="15" /><path stroke="#9A8484" d="M209 389H183" /><path stroke="none" fill="#F1ECFA" d="M170 389C170 385.69 172.69 383 176 383C179.31 383 182 385.69 182 389C182 392.31 179.31 395 176 395C172.69 395 170 392.31 170 389" /><path stroke="#9A8484" d="M170 389C170 385.69 172.69 383 176 383C179.31 383 182 385.69 182 389C182 392.31 179.31 395 176 395C172.69 395 170 392.31 170 389M170 389C170 385.69 172.69 383 176 383C179.31 383 182 385.69 182 389C182 392.31 179.31 395 176 395C172.69 395 170 392.31 170 389" /><text transform="matrix(1 0 0 1 152 368)" fill="#595959" stroke="none"><tspan dx="0 " x="0" y="7">Audio Output</tspan></text><path stroke="#9A8484" d="M209 404H183m-7 6C176 410 176 410 176 410C179.31 410 182 407.31 182 404C182 400.71 179.29 398 176 398" /><text transform="matrix(1 0 0 1 168 411)" fill="#595959" stroke="none"><tspan dx="0 " x="0" y="7">Audio Input</tspan></text><rect stroke="none" fill="#F9EAEA" x="217" y="281" width="109" height="59" /><rect stroke="#9A8484" x="217" y="281" width="109" height="60" /><text transform="matrix(1 0 0 1 235 287)" fill="#595959" stroke="none"><tspan dx="0 " x="0" y="7">«ModalityHandler»</tspan></text><text transform="matrix(1 0 0 1 229 296)" fill="#595959" font-weight="bold" stroke="none"><desc xmlns:eadoc="http://www.siemens.com/eauml/doc"><eadoc:guid>EAID_B47411E8_74C8_442c_BD44_2903E396B897</eadoc:guid><eadoc:name>Text Modalaity Handler</eadoc:name><eadoc:type>Component</eadoc:type><eadoc:note></eadoc:note></desc><tspan dx="0 " x="0" y="7">Text Modalaity Handler</tspan></text><rect stroke="none" fill="#F9EAEA" x="311" y="286" width="10" height="16" /><rect stroke="#9A8484" x="311" y="286" width="10" height="17" /><rect stroke="none" fill="#F9EAEA" x="308" y="288" width="6" height="4" /><rect stroke="#9A8484" x="308" y="288" width="6" height="5" /><rect stroke="none" fill="#F9EAEA" x="308" y="295" width="6" height="4" /><rect stroke="#9A8484" x="308" y="295" width="6" height="5" /><rect stroke="none" fill="#DAEAFC" x="209" y="297" width="14" height="29" /><rect stroke="#9A8484" x="209" y="297" width="14" height="30" /><rect stroke="none" fill="#DAEAFC" x="320" y="301" width="14" height="14" /><rect stroke="#9A8484" x="320" y="301" width="14" height="15" /><path stroke="#9A8484" d="M209 303H183" /><path stroke="none" fill="#F1ECFA" d="M170 303C170 299.69 172.69 297 176 297C179.31 297 182 299.69 182 303C182 306.31 179.31 309 176 309C172.69 309 170 306.31 170 303" /><path stroke="#9A8484" d="M170 303C170 299.69 172.69 297 176 297C179.31 297 182 299.69 182 303C182 306.31 179.31 309 176 309C172.69 309 170 306.31 170 303M170 303C170 299.69 172.69 297 176 297C179.31 297 182 299.69 182 303C182 306.31 179.31 309 176 309C172.69 309 170 306.31 170 303" /><text transform="matrix(1 0 0 1 167 281)" fill="#595959" stroke="none"><tspan dx="0 " x="0" y="7">Text Output</tspan></text><path stroke="#9A8484" d="M209 318H183m-7 6C176 324 176 324 176 324C179.31 324 182 321.31 182 318C182 314.71 179.29 312 176 312" /><text transform="matrix(1 0 0 1 169 327)" fill="#595959" stroke="none"><tspan dx="0 " x="0" y="7">Text Input</tspan></text><rect stroke="none" fill="#F9EAEA" x="217" y="194" width="109" height="59" /><rect stroke="#9A8484" x="217" y="194" width="109" height="60" /><text transform="matrix(1 0 0 1 235 200)" fill="#595959" stroke="none"><tspan dx="0 " x="0" y="7">«ModalityHandler»</tspan></text><text transform="matrix(1 0 0 1 230 209)" fill="#595959" font-weight="bold" stroke="none"><desc xmlns:eadoc="http://www.siemens.com/eauml/doc"><eadoc:guid>EAID_FB9ABA3F_47D9_4fa7_AB9C_9BEC1C36551F</eadoc:guid><eadoc:name>Local Service Modality</eadoc:name><eadoc:type>Component</eadoc:type><eadoc:note></eadoc:note></desc><tspan dx="0 " x="0" y="7">Local Service Modality</tspan></text><rect stroke="none" fill="#F9EAEA" x="311" y="199" width="10" height="16" /><rect stroke="#9A8484" x="311" y="199" width="10" height="17" /><rect stroke="none" fill="#F9EAEA" x="308" y="201" width="6" height="4" /><rect stroke="#9A8484" x="308" y="201" width="6" height="5" /><rect stroke="none" fill="#F9EAEA" x="308" y="208" width="6" height="4" /><rect stroke="#9A8484" x="308" y="208" width="6" height="5" /><rect stroke="none" fill="#DAEAFC" x="320" y="216" width="14" height="14" /><rect stroke="#9A8484" x="320" y="216" width="14" height="15" /><rect stroke="none" fill="#DAEAFC" x="209" y="216" width="14" height="29" /><rect stroke="#9A8484" x="209" y="216" width="14" height="30" /><path stroke="#9A8484" d="M209 222H183m-7 6C176 228 176 228 176 228C179.31 228 182 225.31 182 222C182 218.71 179.29 216 176 216" /><text transform="matrix(1 0 0 1 157 193)" fill="#595959" stroke="none"><tspan dx="0 " x="0" y="7">Data Retreival</tspan></text><path stroke="#9A8484" d="M209 237H183" /><path stroke="none" fill="#F1ECFA" d="M170 237C170 233.69 172.69 231 176 231C179.31 231 182 233.69 182 237C182 240.31 179.31 243 176 243C172.69 243 170 240.31 170 237" /><path stroke="#9A8484" d="M170 237C170 233.69 172.69 231 176 231C179.31 231 182 233.69 182 237C182 240.31 179.31 243 176 243C172.69 243 170 240.31 170 237M170 237C170 233.69 172.69 231 176 231C179.31 231 182 233.69 182 237C182 240.31 179.31 243 176 243C172.69 243 170 240.31 170 237" /><text transform="matrix(1 0 0 1 162 248)" fill="#595959" stroke="none"><tspan dx="0 " x="0" y="7">Service Call</tspan></text><path stroke="#69738C" d="M171 140l-5 7m-2 4l-6 7m-2 4l-5 7m-3 4l-5 7m-3 4l-5 7m-3 4l-5 7m-3 4l-5 7m-3 4l-5 7m-3 4l-2 2" /><path stroke="#69738C" fill="#FAF1EC" d="M167 156l-10 -7l14 -9l-4 16" /><path stroke="#69738C" stroke-dasharray="7,4" d="M170 133L110 133" /><path stroke="#69738C" fill="#FAF1EC" d="M155 139V127l15 6l-15 6" /><path stroke="#69738C" stroke-dasharray="7,4" d="M110 237L170 237" /><path stroke="#69738C" fill="#FAF1EC" d="M125 231v12l-15 -6l15 -6" /><path stroke="#69738C" d="M171 216l-5 -7m-4 -4l-6 -7m-3 -4l-6 -7m-3 -4l-6 -7m-3 -4l-6 -7m-4 -4l-6 -7m-3 -4l-6 -7" /><path stroke="#69738C" fill="#FAF1EC" d="M157 208l9 -7l5 15l-14 -8" /><path stroke="#69738C" d="M389 301L367 273M353.28 271.72C355.06 273.5 357.48 274.5 360 274.5C365.75 275 370 270.75 370 265.5C369.5 263.22 369 261.47 368.06 259.97M357 262L333 231" /><path stroke="none" fill="#FAF1EC" d="M354 265.5C354 261.91 356.91 259 360.5 259C364.09 259 367 261.91 367 265.5C367 269.09 364.09 272 360.5 272C356.91 272 354 269.09 354 265.5" /><path stroke="#69738C" d="M354 265.5C354 261.91 356.91 259 360.5 259C364.09 259 367 261.91 367 265.5C367 269.09 364.09 272 360.5 272C356.91 272 354 269.09 354 265.5M388 308H371M360.86 316.46C365.73 316.02 369.5 311.89 369.5 307C369.5 302.18 365.84 298.09 361.05 297.56M354 308H335" /><path stroke="none" fill="#FAF1EC" d="M354 307.5C354 303.91 356.91 301 360.5 301C364.09 301 367 303.91 367 307.5C367 311.09 364.09 314 360.5 314C356.91 314 354 311.09 354 307.5" /><path stroke="#69738C" d="M354 307.5C354 303.91 356.91 301 360.5 301C364.09 301 367 303.91 367 307.5C367 311.09 364.09 314 360.5 314C356.91 314 354 311.09 354 307.5M388 316l-22 26M366.15 354.26C367.66 352.52 368.5 350.3 368.5 348C369 343.25 364.75 339 359.5 339C355.93 338.5 353.05 339.98 351.27 342.48M356 354l-24 29" /><path stroke="none" fill="#FAF1EC" d="M353 348.5C353 344.91 355.91 342 359.5 342C363.09 342 366 344.91 366 348.5C366 352.09 363.09 355 359.5 355C355.91 355 353 352.09 353 348.5" /><path stroke="#69738C" d="M353 348.5C353 344.91 355.91 342 359.5 342C363.09 342 366 344.91 366 348.5C366 352.09 363.09 355 359.5 355C355.91 355 353 352.09 353 348.5M110 294h7m4 1l7 1m4 0l7 1m4 1l7 1m4 0l7 1m4 1l5 1" /><path stroke="#69738C" fill="#FAF1EC" d="M126 290l-2 12l-14 -8l16 -4" /><path stroke="#69738C" stroke-dasharray="7,4" d="M170 319L152 319" /><path stroke="#69738C" d="M148 320h-7m-4 0l-7 1m-4 0h-7m-4 0l-5 1" /><path stroke="#69738C" fill="#FAF1EC" d="M155 326V314l15 5l-15 7" /><path stroke="#69738C" d="M110 384h7m4 0l7 1m4 0h7m4 1h7m4 0l7 1m4 0l5 1" /><path stroke="#69738C" fill="#FAF1EC" d="M125 379v12l-15 -7l15 -5" /><path stroke="#69738C" d="M170 406h-7m-4 1h-7m-4 1h-7m-4 1l-7 1m-4 0l-7 1m-4 0l-5 1" /><path stroke="#69738C" fill="#FAF1EC" d="M156 413l-2 -11l16 4l-14 7" /><path stroke="#69738C" d="M573 308H552M541.86 316.46C546.73 316.02 550.5 311.89 550.5 307C550.5 302.18 546.84 298.09 542.05 297.56M535 308H512" /><path stroke="none" fill="#FAF1EC" d="M535 307.5C535 303.91 537.91 301 541.5 301C545.09 301 548 303.91 548 307.5C548 311.09 545.09 314 541.5 314C537.91 314 535 311.09 535 307.5" /><path stroke="#69738C" d="M535 307.5C535 303.91 537.91 301 541.5 301C545.09 301 548 303.91 548 307.5C548 311.09 545.09 314 541.5 314C537.91 314 535 311.09 535 307.5" /><g transform="matrix(1 0 0 -1 354 242)"><rect fill="#F9EAEA" stroke="none" x="0" width="79" y="-9" height="9" /></g><text transform="matrix(1 0 0 1 354 242)" fill="#595959" stroke="none"><tspan dx="0 " x="0" y="7">HandleLocalServiceModality</tspan></text><g transform="matrix(1 0 0 -1 338 361)"><rect fill="#F9EAEA" stroke="none" x="0" width="60" y="-9" height="9" /></g><text transform="matrix(1 0 0 1 338 361)" fill="#595959" stroke="none"><tspan dx="0 " x="0" y="7">HandleAudioModality</tspan></text><g transform="matrix(1 0 0 -1 351 283)"><rect fill="#F9EAEA" stroke="none" x="0" width="56" y="-9" height="9" /></g><text transform="matrix(1 0 0 1 351 283)" fill="#595959" stroke="none"><tspan dx="0 " x="0" y="7">HandleTextModality</tspan></text></g></g></g></g></svg>