<?xml version="1.0" encoding="utf-8"?><svg version="1.1" preserveAspectRatio="xMidYMid" xml:space="preserve" width="449.89298pt" height="95.34478999999999pt" viewBox="16.47602 16.07081 449.89298 95.34478999999999" xmlns="http://www.w3.org/2000/svg" xmlns:xlink="http://www.w3.org/1999/xlink"><g transform="matrix(1 0 0 -1 0 541)"><g stroke="#000000" fill="none" fill-rule="evenodd" stroke-width="1" stroke-linecap="round" stroke-linejoin="round" stroke-miterlimit="3" letter-spacing="normal" font-weight="normal" font-style="normal" baseline-shift="0"><g transform="matrix(0.5 0 0 0.5 0 541.400024)"><g transform="matrix(1.483395 0 0 -1.483081 0 0)" font-family="CalibriUnicode" font-size="7"><rect fill="#D0D0D0" stroke="none" x="502" y="67" width="15" height="15" /><rect stroke="none" fill="#DAEAFC" x="499" y="64" width="14" height="14" /><rect stroke="#9A8484" x="499" y="64" width="14" height="15" /><rect stroke="#9A8484" x="499" y="64" width="14" height="14" /><rect fill="#D0D0D0" stroke="none" x="502" y="108" width="15" height="15" /><rect stroke="none" fill="#DAEAFC" x="499" y="105" width="14" height="14" /><rect stroke="#9A8484" x="499" y="105" width="14" height="15" /><rect stroke="#9A8484" x="499" y="105" width="14" height="14" /><rect fill="#D0D0D0" stroke="none" x="509" y="36" width="109" height="104" /><rect stroke="none" fill="#F9EAEA" x="506" y="33" width="108" height="103" /><rect stroke="#9A8484" x="506" y="33" width="108" height="104" /><rect stroke="#9A8484" x="506" y="33" width="108" height="103" /><text transform="matrix(1 0 0 1 514 42)" fill="#595959" font-weight="bold" stroke="none"><tspan dx="0 " x="0" y="7">External Data / Services /</tspan></text><text transform="matrix(1 0 0 1 531 51)" fill="#595959" font-weight="bold" stroke="none"><tspan dx="0 " x="0" y="7">IPA Providers</tspan></text><rect stroke="none" fill="#F9EAEA" x="599" y="38" width="10" height="16" /><rect stroke="#9A8484" x="599" y="38" width="10" height="17" /><rect stroke="none" fill="#F9EAEA" x="596" y="40" width="6" height="4" /><rect stroke="#9A8484" x="596" y="40" width="6" height="5" /><rect stroke="none" fill="#F9EAEA" x="596" y="47" width="6" height="4" /><rect stroke="#9A8484" x="596" y="47" width="6" height="5" /><rect stroke="none" fill="#DAEAFC" x="499" y="64" width="14" height="14" /><rect stroke="#9A8484" x="499" y="64" width="14" height="15" /><rect stroke="#9A8484" x="499" y="64" width="14" height="14" /><rect stroke="none" fill="#DAEAFC" x="499" y="105" width="14" height="14" /><rect stroke="#9A8484" x="499" y="105" width="14" height="15" /><rect stroke="#9A8484" x="499" y="105" width="14" height="14" /><rect fill="#D0D0D0" stroke="none" x="266" y="67" width="15" height="15" /><rect stroke="none" fill="#DAEAFC" x="263" y="64" width="14" height="14" /><rect stroke="#9A8484" x="263" y="64" width="14" height="15" /><rect stroke="#9A8484" x="263" y="64" width="14" height="14" /><rect fill="#D0D0D0" stroke="none" x="392" y="67" width="15" height="15" /><rect stroke="none" fill="#DAEAFC" x="389" y="64" width="14" height="14" /><rect stroke="#9A8484" x="389" y="64" width="14" height="15" /><rect stroke="#9A8484" x="389" y="64" width="14" height="14" /><rect fill="#D0D0D0" stroke="none" x="392" y="108" width="15" height="15" /><rect stroke="none" fill="#DAEAFC" x="389" y="105" width="14" height="14" /><rect stroke="#9A8484" x="389" y="105" width="14" height="15" /><rect stroke="#9A8484" x="389" y="105" width="14" height="14" /><rect fill="#D0D0D0" stroke="none" x="266" y="103" width="15" height="15" /><rect stroke="none" fill="#DAEAFC" x="263" y="100" width="14" height="14" /><rect stroke="#9A8484" x="263" y="100" width="14" height="15" /><rect stroke="#9A8484" x="263" y="100" width="14" height="14" /><rect fill="#D0D0D0" stroke="none" x="274" y="36" width="125" height="104" /><rect stroke="none" fill="#F9EAEA" x="271" y="33" width="124" height="103" /><rect stroke="#9A8484" x="271" y="33" width="124" height="104" /><rect stroke="#9A8484" x="271" y="33" width="124" height="103" /><text transform="matrix(1 0 0 1 315 42)" fill="#595959" font-weight="bold" stroke="none"><tspan dx="0 " x="0" y="7">Dialog</tspan></text><rect stroke="none" fill="#F9EAEA" x="380" y="38" width="10" height="16" /><rect stroke="#9A8484" x="380" y="38" width="10" height="17" /><rect stroke="none" fill="#F9EAEA" x="377" y="40" width="6" height="4" /><rect stroke="#9A8484" x="377" y="40" width="6" height="5" /><rect stroke="none" fill="#F9EAEA" x="377" y="47" width="6" height="4" /><rect stroke="#9A8484" x="377" y="47" width="6" height="5" /><rect stroke="none" fill="#DAEAFC" x="263" y="64" width="14" height="14" /><rect stroke="#9A8484" x="263" y="64" width="14" height="15" /><rect stroke="#9A8484" x="263" y="64" width="14" height="14" /><rect stroke="none" fill="#DAEAFC" x="389" y="64" width="14" height="14" /><rect stroke="#9A8484" x="389" y="64" width="14" height="15" /><rect stroke="#9A8484" x="389" y="64" width="14" height="14" /><rect stroke="none" fill="#DAEAFC" x="389" y="105" width="14" height="14" /><rect stroke="#9A8484" x="389" y="105" width="14" height="15" /><rect stroke="#9A8484" x="389" y="105" width="14" height="14" /><rect stroke="none" fill="#DAEAFC" x="263" y="100" width="14" height="14" /><rect stroke="#9A8484" x="263" y="100" width="14" height="15" /><rect stroke="#9A8484" x="263" y="100" width="14" height="14" /><rect fill="#D0D0D0" stroke="none" x="141" y="67" width="15" height="15" /><rect stroke="none" fill="#DAEAFC" x="138" y="64" width="14" height="14" /><rect stroke="#9A8484" x="138" y="64" width="14" height="15" /><rect stroke="#9A8484" x="138" y="64" width="14" height="14" /><rect fill="#D0D0D0" stroke="none" x="141" y="102" width="15" height="15" /><rect stroke="none" fill="#DAEAFC" x="138" y="99" width="14" height="14" /><rect stroke="#9A8484" x="138" y="99" width="14" height="15" /><rect stroke="#9A8484" x="138" y="99" width="14" height="14" /><rect fill="#D0D0D0" stroke="none" x="36" y="36" width="112" height="104" /><rect stroke="none" fill="#F9EAEA" x="33" y="33" width="111" height="103" /><rect stroke="#9A8484" x="33" y="33" width="111" height="104" /><rect stroke="#9A8484" x="33" y="33" width="111" height="103" /><text transform="matrix(1 0 0 1 71 42)" fill="#595959" font-weight="bold" stroke="none"><tspan dx="0 " x="0" y="7">Client</tspan></text><rect stroke="none" fill="#F9EAEA" x="129" y="38" width="10" height="16" /><rect stroke="#9A8484" x="129" y="38" width="10" height="17" /><rect stroke="none" fill="#F9EAEA" x="126" y="40" width="6" height="4" /><rect stroke="#9A8484" x="126" y="40" width="6" height="5" /><rect stroke="none" fill="#F9EAEA" x="126" y="47" width="6" height="4" /><rect stroke="#9A8484" x="126" y="47" width="6" height="5" /><rect stroke="none" fill="#DAEAFC" x="138" y="64" width="14" height="14" /><rect stroke="#9A8484" x="138" y="64" width="14" height="15" /><rect stroke="#9A8484" x="138" y="64" width="14" height="14" /><rect stroke="none" fill="#DAEAFC" x="138" y="99" width="14" height="14" /><rect stroke="#9A8484" x="138" y="99" width="14" height="15" /><rect stroke="#9A8484" x="138" y="99" width="14" height="14" /><path stroke="#69738C" d="M153 106h46M208.18 95.57C207.79 95.52 207.39 95.5 207 95.5C202.25 96 198 100.25 198 105.5C198 110.75 202.25 115 207.5 115C207.32 114.5 207.63 114.48 207.95 114.45M214 106h49" /><path stroke="none" fill="#FAF1EC" d="M201 105.5C201 101.91 203.91 99 207.5 99C211.09 99 214 101.91 214 105.5C214 109.09 211.09 112 207.5 112C203.91 112 201 109.09 201 105.5" /><path stroke="#69738C" d="M201 105.5C201 101.91 203.91 99 207.5 99C211.09 99 214 101.91 214 105.5C214 109.09 211.09 112 207.5 112C203.91 112 201 109.09 201 105.5M263 71H218M207.86 79.46C212.73 79.02 216.5 74.89 216.5 70C216.5 65.18 212.84 61.09 208.05 60.56M201 71H153" /><path stroke="none" fill="#FAF1EC" d="M201 70.5C201 66.91 203.91 64 207.5 64C211.09 64 214 66.91 214 70.5C214 74.09 211.09 77 207.5 77C203.91 77 201 74.09 201 70.5" /><path stroke="#69738C" d="M201 70.5C201 66.91 203.91 64 207.5 64C211.09 64 214 66.91 214 70.5C214 74.09 211.09 77 207.5 77C203.91 77 201 74.09 201 70.5M404 112h38M451.18 101.57C450.79 101.52 450.39 101.5 450 101.5C445.25 102 441 106.25 441 111.5C441 116.75 445.25 121 450.5 121C450.32 120.5 450.63 120.48 450.95 120.45M457 112h42" /><path stroke="none" fill="#FAF1EC" d="M444 111.5C444 107.91 446.91 105 450.5 105C454.09 105 457 107.91 457 111.5C457 115.09 454.09 118 450.5 118C446.91 118 444 115.09 444 111.5" /><path stroke="#69738C" d="M444 111.5C444 107.91 446.91 105 450.5 105C454.09 105 457 107.91 457 111.5C457 115.09 454.09 118 450.5 118C446.91 118 444 115.09 444 111.5M404 71h38M451.18 60.57C450.79 60.52 450.39 60.5 450 60.5C445.25 61 441 65.25 441 70.5C441 75.75 445.25 80 450.5 80C450.32 79.5 450.63 79.48 450.95 79.45M457 71h42" /><path stroke="none" fill="#FAF1EC" d="M444 70.5C444 66.91 446.91 64 450.5 64C454.09 64 457 66.91 457 70.5C457 74.09 454.09 77 450.5 77C446.91 77 444 74.09 444 70.5" /><path stroke="#69738C" d="M444 70.5C444 66.91 446.91 64 450.5 64C454.09 64 457 66.91 457 70.5C457 74.09 454.09 77 450.5 77C446.91 77 444 74.09 444 70.5" /><g transform="matrix(1 0 0 -1 189 121)"><rect fill="#FFFFFF" stroke="none" x="0" width="36" y="-9" height="9" /></g><text transform="matrix(1 0 0 1 189 121)" fill="#595959" stroke="none"><tspan dx="0 " x="0" y="7">IPAResponse</tspan></text><g transform="matrix(1 0 0 -1 432 89)"><rect fill="#FFFFFF" stroke="none" x="0" width="31" y="-9" height="9" /></g><text transform="matrix(1 0 0 1 432 89)" fill="#595959" stroke="none"><tspan dx="0 " x="0" y="7">Service Call</tspan></text><g transform="matrix(1 0 0 -1 189 52)"><rect fill="#FFFFFF" stroke="none" x="0" width="32" y="-9" height="9" /></g><text transform="matrix(1 0 0 1 189 52)" fill="#595959" stroke="none"><tspan dx="0 " x="0" y="7">IPARequest</tspan></text><g transform="matrix(1 0 0 -1 422 50)"><rect fill="#FFFFFF" stroke="none" x="0" width="55" y="-9" height="9" /></g><text transform="matrix(1 0 0 1 422 50)" fill="#595959" stroke="none"><tspan dx="0 " x="0" y="7">External Client Input</tspan></text></g></g></g></g></svg>