<?xml version="1.0" encoding="utf-8"?><svg version="1.1" preserveAspectRatio="xMidYMid" xml:space="preserve" width="608.161514pt" height="259.31677pt" viewBox="-5.036414000000001 27.15733 608.161514 259.31677" xmlns="http://www.w3.org/2000/svg" xmlns:xlink="http://www.w3.org/1999/xlink"><g transform="matrix(1 0 0 -1 0 816)"><g stroke="#000000" fill="none" fill-rule="evenodd" stroke-width="1" stroke-linecap="round" stroke-linejoin="round" stroke-miterlimit="3" letter-spacing="normal" font-weight="normal" font-style="normal" baseline-shift="0"><g transform="matrix(0.5 0 0 0.5 0 816.450012)"><g transform="matrix(1.481793 0 0 -1.483639 0 0)" font-family="CalibriUnicode" font-size="7"><rect fill="#D0D0D0" stroke="none" x="742" y="149" width="15" height="15" /><rect stroke="none" fill="#DAEAFC" x="739" y="146" width="14" height="14" /><rect stroke="#9A8484" x="739" y="146" width="14" height="15" /><rect stroke="#9A8484" x="739" y="146" width="14" height="14" /><rect fill="#D0D0D0" stroke="none" x="98" y="107" width="15" height="15" /><rect stroke="none" fill="#DAEAFC" x="95" y="104" width="14" height="14" /><rect stroke="#9A8484" x="95" y="104" width="14" height="15" /><rect stroke="#9A8484" x="95" y="104" width="14" height="14" /><rect fill="#D0D0D0" stroke="none" x="98" y="291" width="15" height="15" /><rect stroke="none" fill="#DAEAFC" x="95" y="288" width="14" height="14" /><rect stroke="#9A8484" x="95" y="288" width="14" height="15" /><rect stroke="#9A8484" x="95" y="288" width="14" height="14" /><rect fill="#D0D0D0" stroke="none" x="98" y="235" width="15" height="15" /><rect stroke="none" fill="#DAEAFC" x="95" y="232" width="14" height="14" /><rect stroke="#9A8484" x="95" y="232" width="14" height="15" /><rect stroke="#9A8484" x="95" y="232" width="14" height="14" /><rect fill="#D0D0D0" stroke="none" x="98" y="171" width="15" height="15" /><rect stroke="none" fill="#DAEAFC" x="95" y="168" width="14" height="14" /><rect stroke="#9A8484" x="95" y="168" width="14" height="15" /><rect stroke="#9A8484" x="95" y="168" width="14" height="14" /><rect fill="#D0D0D0" stroke="none" x="742" y="293" width="15" height="15" /><rect stroke="none" fill="#DAEAFC" x="739" y="290" width="14" height="14" /><rect stroke="#9A8484" x="739" y="290" width="14" height="15" /><rect stroke="#9A8484" x="739" y="290" width="14" height="14" /><rect fill="#D0D0D0" stroke="none" x="106" y="51" width="644" height="325" /><rect stroke="none" fill="#F9EAEA" x="103" y="48" width="643" height="324" /><rect stroke="#9A8484" x="103" y="48" width="643" height="325" /><rect stroke="#9A8484" x="103" y="48" width="643" height="324" /><text transform="matrix(1 0 0 1 402 57)" fill="#595959" font-weight="bold" stroke="none"><tspan dx="0 " x="0" y="7">IPA Client</tspan></text><path stroke="#9A8484" d="M103 71H746" /><rect stroke="none" fill="#F9EAEA" x="731" y="53" width="10" height="16" /><rect stroke="#9A8484" x="731" y="53" width="10" height="17" /><rect stroke="none" fill="#F9EAEA" x="728" y="55" width="6" height="4" /><rect stroke="#9A8484" x="728" y="55" width="6" height="5" /><rect stroke="none" fill="#F9EAEA" x="728" y="62" width="6" height="4" /><rect stroke="#9A8484" x="728" y="62" width="6" height="5" /><rect stroke="none" fill="#DAEAFC" x="739" y="146" width="14" height="14" /><rect stroke="#9A8484" x="739" y="146" width="14" height="15" /><rect stroke="#9A8484" x="739" y="146" width="14" height="14" /><rect stroke="none" fill="#DAEAFC" x="95" y="104" width="14" height="14" /><rect stroke="#9A8484" x="95" y="104" width="14" height="15" /><rect stroke="#9A8484" x="95" y="104" width="14" height="14" /><rect stroke="none" fill="#DAEAFC" x="95" y="288" width="14" height="14" /><rect stroke="#9A8484" x="95" y="288" width="14" height="15" /><rect stroke="#9A8484" x="95" y="288" width="14" height="14" /><rect stroke="none" fill="#DAEAFC" x="95" y="232" width="14" height="14" /><rect stroke="#9A8484" x="95" y="232" width="14" height="15" /><rect stroke="#9A8484" x="95" y="232" width="14" height="14" /><rect stroke="none" fill="#DAEAFC" x="95" y="168" width="14" height="14" /><rect stroke="#9A8484" x="95" y="168" width="14" height="15" /><rect stroke="#9A8484" x="95" y="168" width="14" height="14" /><rect stroke="none" fill="#DAEAFC" x="739" y="290" width="14" height="14" /><rect stroke="#9A8484" x="739" y="290" width="14" height="15" /><rect stroke="#9A8484" x="739" y="290" width="14" height="14" /><path stroke="#9A8484" d="M754 152h26" /><path stroke="none" fill="#F1ECFA" d="M780 152C780 148.69 782.69 146 786 146C789.31 146 792 148.69 792 152C792 155.31 789.31 158 786 158C782.69 158 780 155.31 780 152" /><path stroke="#9A8484" d="M780 152C780 148.69 782.69 146 786 146C789.31 146 792 148.69 792 152C792 155.31 789.31 158 786 158C782.69 158 780 155.31 780 152M780 152C780 148.69 782.69 146 786 146C789.31 146 792 148.69 792 152C792 155.31 789.31 158 786 158C782.69 158 780 155.31 780 152" /><text transform="matrix(1 0 0 1 770 130)" fill="#595959" stroke="none"><tspan dx="0 " x="0" y="7">IPARequest</tspan></text><path stroke="#9A8484" d="M95 110H69m-7 6C62 116 62 116 62 116C65.31 116 68 113.31 68 110C68 106.71 65.29 104 62 104" /><text transform="matrix(1 0 0 1 14 104)" fill="#595959" stroke="none"><tspan dx="0 " x="0" y="7">LocalData</tspan></text><path stroke="#9A8484" d="M95 294H69" /><path stroke="none" fill="#F1ECFA" d="M56 294C56 290.69 58.69 288 62 288C65.31 288 68 290.69 68 294C68 297.31 65.31 300 62 300C58.69 300 56 297.31 56 294" /><path stroke="#9A8484" d="M56 294C56 290.69 58.69 288 62 288C65.31 288 68 290.69 68 294C68 297.31 65.31 300 62 300C58.69 300 56 297.31 56 294M56 294C56 290.69 58.69 288 62 288C65.31 288 68 290.69 68 294C68 297.31 65.31 300 62 300C58.69 300 56 297.31 56 294" /><text transform="matrix(1 0 0 1 4 288)" fill="#595959" stroke="none"><tspan dx="0 " x="0" y="7">Local Service</tspan></text><path stroke="#9A8484" d="M95 238H69" /><path stroke="none" fill="#F1ECFA" d="M56 238C56 234.69 58.69 232 62 232C65.31 232 68 234.69 68 238C68 241.31 65.31 244 62 244C58.69 244 56 241.31 56 238" /><path stroke="#9A8484" d="M56 238C56 234.69 58.69 232 62 232C65.31 232 68 234.69 68 238C68 241.31 65.31 244 62 244C58.69 244 56 241.31 56 238M56 238C56 234.69 58.69 232 62 232C65.31 232 68 234.69 68 238C68 241.31 65.31 244 62 244C58.69 244 56 241.31 56 238" /><text transform="matrix(1 0 0 1 6 230)" fill="#595959" stroke="none"><tspan dx="0 " x="0" y="7">P</tspan><tspan dx="0 " x="3.25" y="7">r</tspan><tspan dx="0 " x="5.5" y="7">e</tspan><tspan dx="0 " x="8.75" y="7">s</tspan><tspan dx="0 " x="11.5" y="7">e</tspan><tspan dx="0 " x="14.75" y="7">n</tspan><tspan dx="0 " x="18.25" y="7">t</tspan><tspan dx="0 " x="20.5" y="7">a</tspan><tspan dx="0 0 " x="23.5" y="7">ti</tspan><tspan dx="0 " x="27.5" y="7">o</tspan><tspan dx="0 " x="31.25" y="7">n</tspan></text><path stroke="#9A8484" d="M95 174H69m-7 6C62 180 62 180 62 180C65.31 180 68 177.31 68 174C68 170.71 65.29 168 62 168" /><text transform="matrix(1 0 0 1 12 166)" fill="#595959" stroke="none"><tspan dx="0 " x="0" y="7">Capture</tspan></text><path stroke="#9A8484" d="M754 296h26M786.99 290.08C786.66 290.03 786.33 290 786 290C782.69 290 780 292.69 780 296C780 299.31 782.69 302 786 302C786.28 302 786.57 301.98 786.85 301.94" /><text transform="matrix(1 0 0 1 759 306)" fill="#595959" stroke="none"><tspan dx="0 " x="0" y="7">IPAReponse</tspan></text><rect stroke="none" fill="#F9EAEA" x="514" y="123" width="109" height="233" /><rect stroke="#9A8484" x="514" y="123" width="109" height="234" /><text transform="matrix(1 0 0 1 527 129)" fill="#595959" stroke="none"><tspan dx="0 " x="0" y="7">«</tspan><tspan dx="0 " x="3.25" y="7">I</tspan><tspan dx="0 " x="5" y="7">n</tspan><tspan dx="0 " x="8.5" y="7">t</tspan><tspan dx="0 " x="10.75" y="7">e</tspan><tspan dx="0 " x="14.25" y="7">r</tspan><tspan dx="0 " x="16.5" y="7">a</tspan><tspan dx="0 " x="19.75" y="7">c</tspan><tspan dx="0 0 " x="22.75" y="7">ti</tspan><tspan dx="0 " x="26.75" y="7">o</tspan><tspan dx="0 " x="30.5" y="7">n</tspan><tspan dx="0 " x="34.25" y="7">M</tspan><tspan dx="0 " x="40.25" y="7">a</tspan><tspan dx="0 " x="43.5" y="7">n</tspan><tspan dx="0 " x="47.25" y="7">a</tspan><tspan dx="0 " x="50.5" y="7">g</tspan><tspan dx="0 " x="53.75" y="7">e</tspan><tspan dx="0 " x="57.25" y="7">r</tspan><tspan dx="0 " x="59.5" y="7">»</tspan></text><text transform="matrix(1 0 0 1 530 138)" fill="#595959" font-weight="bold" stroke="none"><tspan dx="0 " x="0" y="7">I</tspan><tspan dx="0 " x="1.75" y="7">n</tspan><tspan dx="0 " x="5.25" y="7">t</tspan><tspan dx="0 " x="7.5" y="7">e</tspan><tspan dx="0 " x="11" y="7">r</tspan><tspan dx="0 " x="13.5" y="7">a</tspan><tspan dx="0 " x="16.75" y="7">c</tspan><tspan dx="0 0 " x="19.5" y="7">ti</tspan><tspan dx="0 " x="23.5" y="7">o</tspan><tspan dx="0 " x="27.25" y="7">n</tspan><tspan dx="0 " x="31" y="7"> </tspan><tspan dx="0 " x="32.5" y="7">M</tspan><tspan dx="0 " x="38.5" y="7">a</tspan><tspan dx="0 " x="41.75" y="7">n</tspan><tspan dx="0 " x="45.5" y="7">a</tspan><tspan dx="0 " x="48.75" y="7">g</tspan><tspan dx="0 " x="52" y="7">e</tspan><tspan dx="0 " x="55.5" y="7">r</tspan></text><rect stroke="none" fill="#F9EAEA" x="608" y="128" width="10" height="16" /><rect stroke="#9A8484" x="608" y="128" width="10" height="17" /><rect stroke="none" fill="#F9EAEA" x="605" y="130" width="6" height="4" /><rect stroke="#9A8484" x="605" y="130" width="6" height="5" /><rect stroke="none" fill="#F9EAEA" x="605" y="137" width="6" height="4" /><rect stroke="#9A8484" x="605" y="137" width="6" height="5" /><rect stroke="none" fill="#DAEAFC" x="506" y="147" width="14" height="14" /><rect stroke="#9A8484" x="506" y="147" width="14" height="15" /><rect stroke="none" fill="#DAEAFC" x="616" y="147" width="14" height="14" /><rect stroke="#9A8484" x="616" y="147" width="14" height="15" /><rect stroke="none" fill="#DAEAFC" x="506" y="232" width="14" height="14" /><rect stroke="#9A8484" x="506" y="232" width="14" height="15" /><rect stroke="none" fill="#DAEAFC" x="616" y="291" width="14" height="14" /><rect stroke="#9A8484" x="616" y="291" width="14" height="15" /><rect stroke="none" fill="#DAEAFC" x="507" y="291" width="14" height="14" /><rect stroke="#9A8484" x="507" y="291" width="14" height="15" /><path stroke="#9A8484" d="M631 153h26" /><path stroke="none" fill="#F1ECFA" d="M657 153C657 149.69 659.69 147 663 147C666.31 147 669 149.69 669 153C669 156.31 666.31 159 663 159C659.69 159 657 156.31 657 153" /><path stroke="#9A8484" d="M657 153C657 149.69 659.69 147 663 147C666.31 147 669 149.69 669 153C669 156.31 666.31 159 663 159C659.69 159 657 156.31 657 153M657 153C657 149.69 659.69 147 663 147C666.31 147 669 149.69 669 153C669 156.31 666.31 159 663 159C659.69 159 657 156.31 657 153" /><text transform="matrix(1 0 0 1 636 163)" fill="#595959" stroke="none"><tspan dx="0 " x="0" y="7">IPARequest</tspan></text><path stroke="#9A8484" d="M506 238H480" /><path stroke="none" fill="#F1ECFA" d="M467 238C467 234.69 469.69 232 473 232C476.31 232 479 234.69 479 238C479 241.31 476.31 244 473 244C469.69 244 467 241.31 467 238" /><path stroke="#9A8484" d="M467 238C467 234.69 469.69 232 473 232C476.31 232 479 234.69 479 238C479 241.31 476.31 244 473 244C469.69 244 467 241.31 467 238M467 238C467 234.69 469.69 232 473 232C476.31 232 479 234.69 479 238C479 241.31 476.31 244 473 244C469.69 244 467 241.31 467 238" /><text transform="matrix(1 0 0 1 400 248)" fill="#595959" stroke="none"><tspan dx="0 " x="0" y="7">M</tspan><tspan dx="0 " x="5.75" y="7">u</tspan><tspan dx="0 " x="9.25" y="7">l</tspan><tspan dx="0 0 " x="11" y="7">ti</tspan><tspan dx="0 " x="15" y="7">M</tspan><tspan dx="0 " x="20.75" y="7">o</tspan><tspan dx="0 " x="24.25" y="7">d</tspan><tspan dx="0 " x="27.75" y="7">a</tspan><tspan dx="0 " x="31" y="7">l</tspan><tspan dx="0 " x="32.75" y="7">D</tspan><tspan dx="0 " x="37.25" y="7">a</tspan><tspan dx="0 " x="40.5" y="7">t</tspan><tspan dx="0 " x="42.75" y="7">a</tspan></text><path stroke="#9A8484" d="M631 297h26M663.99 291.08C663.66 291.03 663.33 291 663 291C659.69 291 657 293.69 657 297C657 300.31 659.69 303 663 303C663.28 303 663.57 302.98 663.85 302.94" /><text transform="matrix(1 0 0 1 636 307)" fill="#595959" stroke="none"><tspan dx="0 " x="0" y="7">IPAResponse</tspan></text><path stroke="#9A8484" d="M507 297H481" /><path stroke="none" fill="#F1ECFA" d="M468 297C468 293.69 470.69 291 474 291C477.31 291 480 293.69 480 297C480 300.31 477.31 303 474 303C470.69 303 468 300.31 468 297" /><path stroke="#9A8484" d="M468 297C468 293.69 470.69 291 474 291C477.31 291 480 293.69 480 297C480 300.31 477.31 303 474 303C470.69 303 468 300.31 468 297M468 297C468 293.69 470.69 291 474 291C477.31 291 480 293.69 480 297C480 300.31 477.31 303 474 303C470.69 303 468 300.31 468 297" /><text transform="matrix(1 0 0 1 435 307)" fill="#595959" stroke="none"><tspan dx="0 " x="0" y="7">ServiceCall</tspan></text><rect stroke="none" fill="#F9EAEA" x="238" y="123" width="185" height="59" /><rect stroke="#9A8484" x="238" y="123" width="185" height="60" /><text transform="matrix(1 0 0 1 274 132)" fill="#595959" font-weight="bold" stroke="none"><tspan dx="0 " x="0" y="7">C</tspan><tspan dx="0 " x="3.5" y="7">a</tspan><tspan dx="0 " x="6.5" y="7">p</tspan><tspan dx="0 " x="10" y="7">t</tspan><tspan dx="0 " x="12.25" y="7">u</tspan><tspan dx="0 " x="15.75" y="7">r</tspan><tspan dx="0 " x="18.25" y="7">e</tspan><tspan dx="0 " x="21.5" y="7"> </tspan><tspan dx="0 " x="23" y="7">S</tspan><tspan dx="0 " x="26.25" y="7">y</tspan><tspan dx="0 " x="29.5" y="7">n</tspan><tspan dx="0 " x="33.25" y="7">c</tspan><tspan dx="0 " x="36" y="7">h</tspan><tspan dx="0 " x="39.75" y="7">r</tspan><tspan dx="0 " x="42.25" y="7">o</tspan><tspan dx="0 " x="46" y="7">n</tspan><tspan dx="0 " x="49.75" y="7">i</tspan><tspan dx="0 " x="51.5" y="7">z</tspan><tspan dx="0 " x="54.25" y="7">a</tspan><tspan dx="0 0 " x="57.5" y="7">ti</tspan><tspan dx="0 " x="61.5" y="7">o</tspan><tspan dx="0 " x="65.25" y="7">n</tspan><tspan dx="0 " x="69" y="7"> </tspan><tspan dx="0 " x="70.5" y="7">S</tspan><tspan dx="0 " x="73.75" y="7">t</tspan><tspan dx="0 " x="76" y="7">r</tspan><tspan dx="0 " x="78.5" y="7">a</tspan><tspan dx="0 " x="81.75" y="7">t</tspan><tspan dx="0 " x="84" y="7">e</tspan><tspan dx="0 " x="87.5" y="7">g</tspan><tspan dx="0 " x="90.75" y="7">y</tspan></text><rect stroke="none" fill="#F9EAEA" x="408" y="128" width="10" height="16" /><rect stroke="#9A8484" x="408" y="128" width="10" height="17" /><rect stroke="none" fill="#F9EAEA" x="405" y="130" width="6" height="4" /><rect stroke="#9A8484" x="405" y="130" width="6" height="5" /><rect stroke="none" fill="#F9EAEA" x="405" y="137" width="6" height="4" /><rect stroke="#9A8484" x="405" y="137" width="6" height="5" /><rect stroke="none" fill="#DAEAFC" x="232" y="147" width="14" height="14" /><rect stroke="#9A8484" x="232" y="147" width="14" height="15" /><rect stroke="none" fill="#DAEAFC" x="416" y="147" width="14" height="14" /><rect stroke="#9A8484" x="416" y="147" width="14" height="15" /><path stroke="#9A8484" d="M232 153H206m-7 6C199 159 199 159 199 159C202.31 159 205 156.31 205 153C205 149.71 202.29 147 199 147" /><text transform="matrix(1 0 0 1 186 166)" fill="#595959" stroke="none"><tspan dx="0 " x="0" y="7">M</tspan><tspan dx="0 " x="5.75" y="7">u</tspan><tspan dx="0 " x="9.25" y="7">l</tspan><tspan dx="0 0 " x="11" y="7">ti</tspan><tspan dx="0 " x="15" y="7">M</tspan><tspan dx="0 " x="20.75" y="7">o</tspan><tspan dx="0 " x="24.25" y="7">d</tspan><tspan dx="0 " x="27.75" y="7">a</tspan><tspan dx="0 " x="31" y="7">l</tspan><tspan dx="0 " x="32.75" y="7">D</tspan><tspan dx="0 " x="37.25" y="7">a</tspan><tspan dx="0 " x="40.5" y="7">t</tspan><tspan dx="0 " x="42.75" y="7">a</tspan></text><path stroke="#69738C" d="M467 238H110m0 0l15 -5m-15 5l15 5" /><path stroke="#69738C" d="M506 154H478M467.86 162.46C472.73 162.02 476.5 157.89 476.5 153C476.5 148.18 472.84 144.09 468.05 143.56M461 154H431" /><path stroke="none" fill="#FAF1EC" d="M461 153.5C461 149.91 463.91 147 467.5 147C471.09 147 474 149.91 474 153.5C474 157.09 471.09 160 467.5 160C463.91 160 461 157.09 461 153.5" /><path stroke="#69738C" d="M461 153.5C461 149.91 463.91 147 467.5 147C471.09 147 474 149.91 474 153.5C474 157.09 471.09 160 467.5 160C463.91 160 461 157.09 461 153.5M110 173l83 -19m0 0l-14 8m14 -8l-16 -2" /><path stroke="#69738C" d="M468 296L110 295m0 0l15 -5m-15 5l15 5" /><path stroke="#69738C" d="M110 114l83 36m0 0l-16 -1m16 1L181 139" /><path stroke="#69738C" d="M739 297H670m0 0l15 -5m-15 5l15 5" /><path stroke="#69738C" d="M670 153h69m0 0l-15 5m15 -5l-15 -5" /><g transform="matrix(1 0 0 -1 447 183)"><rect fill="#F9EAEA" stroke="none" x="0" width="72" y="-9" height="9" /></g><text transform="matrix(1 0 0 1 447 183)" fill="#595959" stroke="none"><tspan dx="0 " x="0" y="7">M</tspan><tspan dx="0 " x="5.5" y="7">u</tspan><tspan dx="0 " x="8.75" y="7">l</tspan><tspan dx="0 0 " x="10.25" y="7">ti</tspan><tspan dx="0 " x="14.25" y="7">M</tspan><tspan dx="0 " x="20" y="7">o</tspan><tspan dx="0 " x="23.5" y="7">d</tspan><tspan dx="0 " x="27" y="7">a</tspan><tspan dx="0 " x="30" y="7">l</tspan><tspan dx="0 " x="31.75" y="7">D</tspan><tspan dx="0 " x="36" y="7">a</tspan><tspan dx="0 " x="39" y="7">t</tspan><tspan dx="0 " x="41.25" y="7">a</tspan><tspan dx="0 " x="44.25" y="7">C</tspan><tspan dx="0 " x="47.75" y="7">o</tspan><tspan dx="0 " x="51.25" y="7">l</tspan><tspan dx="0 " x="53" y="7">l</tspan><tspan dx="0 " x="54.75" y="7">e</tspan><tspan dx="0 " x="58" y="7">c</tspan><tspan dx="0 0 " x="61" y="7">ti</tspan><tspan dx="0 " x="65" y="7">o</tspan><tspan dx="0 " x="68.5" y="7">n</tspan></text><g transform="matrix(1 0 0 -1 273 240)"><rect fill="#F9EAEA" stroke="none" x="0" width="31" y="-9" height="9" /></g><text transform="matrix(1 0 0 1 273 240)" fill="#595959" stroke="none"><tspan dx="0 " x="0" y="7">«delegate»</tspan></text><g transform="matrix(1 0 0 -1 681 136)"><rect fill="#F9EAEA" stroke="none" x="0" width="31" y="-9" height="9" /></g><text transform="matrix(1 0 0 1 681 136)" fill="#595959" stroke="none"><tspan dx="0 " x="0" y="7">«delegate»</tspan></text><g transform="matrix(1 0 0 -1 274 297)"><rect fill="#F9EAEA" stroke="none" x="0" width="31" y="-9" height="9" /></g><text transform="matrix(1 0 0 1 274 297)" fill="#595959" stroke="none"><tspan dx="0 " x="0" y="7">«delegate»</tspan></text><g transform="matrix(1 0 0 -1 134 109)"><rect fill="#F9EAEA" stroke="none" x="0" width="31" y="-9" height="9" /></g><text transform="matrix(1 0 0 1 134 109)" fill="#595959" stroke="none"><tspan dx="0 " x="0" y="7">«delegate»</tspan></text><g transform="matrix(1 0 0 -1 691 278)"><rect fill="#F9EAEA" stroke="none" x="0" width="31" y="-9" height="9" /></g><text transform="matrix(1 0 0 1 691 278)" fill="#595959" stroke="none"><tspan dx="0 " x="0" y="7">«delegate»</tspan></text><g transform="matrix(1 0 0 -1 124 177)"><rect fill="#F9EAEA" stroke="none" x="0" width="31" y="-9" height="9" /></g><text transform="matrix(1 0 0 1 124 177)" fill="#595959" stroke="none"><tspan dx="0 " x="0" y="7">«delegate»</tspan></text></g></g></g></g></svg>