<?xml version="1.0" encoding="utf-8"?><svg version="1.1" preserveAspectRatio="xMidYMid" xml:space="preserve" width="404.40510000000006pt" height="128.84087pt" viewBox="66.1231 65.58743 404.40510000000006 128.84087" xmlns="http://www.w3.org/2000/svg" xmlns:xlink="http://www.w3.org/1999/xlink"><g transform="matrix(1 0 0 -1 0 841)"><g stroke="#000000" fill="none" fill-rule="evenodd" stroke-width="1" stroke-linecap="round" stroke-linejoin="round" stroke-miterlimit="3" letter-spacing="normal" font-weight="normal" font-style="normal" baseline-shift="0"><g transform="matrix(0.5 0 0 0.5 0 841.650024)"><g transform="matrix(1.482462 0 0 -1.484749 0 0)" font-family="CalibriUnicode" font-size="7"><rect fill="#D0D0D0" stroke="none" x="103" y="119" width="521" height="133" /><rect fill="#D0D0D0" stroke="none" x="103" y="103" width="105" height="16" /><rect stroke="#9A8484" fill="#FAF3F0" x="100" y="116" width="521" height="133" /><rect stroke="#9A8484" fill="#FAF3F0" x="100" y="100" width="105" height="16" /><rect stroke="#9A8484" x="100" y="100" width="105" height="16" /><text transform="matrix(1 0 0 1 105 103)" fill="#595959" font-weight="bold" stroke="none"><tspan dx="0 " x="0" y="7">w</tspan><tspan dx="0 " x="5" y="7">3</tspan><tspan dx="0 " x="8.25" y="7">c</tspan><tspan dx="0 " x="11" y="7">.</tspan><tspan dx="0 " x="12.75" y="7">v</tspan><tspan dx="0 " x="15.75" y="7">o</tspan><tspan dx="0 " x="19.25" y="7">i</tspan><tspan dx="0 " x="21" y="7">c</tspan><tspan dx="0 " x="23.75" y="7">e</tspan><tspan dx="0 " x="27" y="7">i</tspan><tspan dx="0 " x="28.75" y="7">n</tspan><tspan dx="0 " x="32.25" y="7">t</tspan><tspan dx="0 " x="34.5" y="7">e</tspan><tspan dx="0 " x="37.75" y="7">r</tspan><tspan dx="0 " x="40.25" y="7">a</tspan><tspan dx="0 " x="43.25" y="7">c</tspan><tspan dx="0 0 " x="46" y="7">ti</tspan><tspan dx="0 " x="50" y="7">o</tspan><tspan dx="0 " x="53.75" y="7">n</tspan><tspan dx="0 " x="57.5" y="7">.</tspan><tspan dx="0 " x="59.25" y="7">i</tspan><tspan dx="0 " x="61" y="7">p</tspan><tspan dx="0 " x="64.75" y="7">a</tspan></text><rect fill="#D0D0D0" stroke="none" x="137" y="161" width="130" height="64" /><rect fill="#D0D0D0" stroke="none" x="137" y="145" width="105" height="16" /><rect stroke="#9A8484" fill="#FAF3F0" x="134" y="158" width="130" height="64" /><rect stroke="#9A8484" fill="#FAF3F0" x="134" y="142" width="105" height="16" /><rect stroke="#9A8484" x="134" y="142" width="105" height="16" /><text transform="matrix(1 0 0 1 139 145)" fill="#595959" font-weight="bold" stroke="none"><tspan dx="0 " x="0" y="7">client</tspan></text><rect fill="#D0D0D0" stroke="none" x="295" y="164" width="130" height="64" /><rect fill="#D0D0D0" stroke="none" x="295" y="148" width="105" height="16" /><rect stroke="#9A8484" fill="#FAF3F0" x="292" y="161" width="130" height="64" /><rect stroke="#9A8484" fill="#FAF3F0" x="292" y="145" width="105" height="16" /><rect stroke="#9A8484" x="292" y="145" width="105" height="16" /><text transform="matrix(1 0 0 1 297 148)" fill="#595959" font-weight="bold" stroke="none"><tspan dx="0 " x="0" y="7">dialog</tspan></text><rect fill="#D0D0D0" stroke="none" x="457" y="164" width="130" height="64" /><rect fill="#D0D0D0" stroke="none" x="457" y="148" width="105" height="16" /><rect stroke="#9A8484" fill="#FAF3F0" x="454" y="161" width="130" height="64" /><rect stroke="#9A8484" fill="#FAF3F0" x="454" y="145" width="105" height="16" /><rect stroke="#9A8484" x="454" y="145" width="105" height="16" /><text transform="matrix(1 0 0 1 459 148)" fill="#595959" font-weight="bold" stroke="none"><tspan dx="0 " x="0" y="7">external</tspan></text></g></g></g></g></svg>