<?xml version="1.0" encoding="utf-8"?><svg version="1.1" preserveAspectRatio="xMidYMid" xml:space="preserve" width="594.72494pt" height="121.69537pt" viewBox="75.09896 40.99033 594.72494 121.69537" xmlns="http://www.w3.org/2000/svg" xmlns:xlink="http://www.w3.org/1999/xlink"><g transform="matrix(1 0 0 -1 0 541)"><g stroke="#000000" fill="none" fill-rule="evenodd" stroke-width="1" stroke-linecap="round" stroke-linejoin="round" stroke-miterlimit="3" letter-spacing="normal" font-weight="normal" font-style="normal" baseline-shift="0"><g transform="matrix(0.75 0 0 0.75 0 541.400024)"><g transform="matrix(1.319031 0 0 -1.317076 0 0)" font-family="CalibriUnicode" font-size="10"><rect fill="#D0D0D0" stroke="none" x="553" y="76" width="15" height="15" /><rect stroke="none" fill="#DAEAFC" x="550" y="73" width="14" height="14" /><rect stroke="#9A8484" x="550" y="73" width="14" height="15" /><rect stroke="#9A8484" x="550" y="73" width="14" height="14" /><rect fill="#D0D0D0" stroke="none" x="553" y="106" width="15" height="15" /><rect stroke="none" fill="#DAEAFC" x="550" y="103" width="14" height="14" /><rect stroke="#9A8484" x="550" y="103" width="14" height="15" /><rect stroke="#9A8484" x="550" y="103" width="14" height="14" /><rect fill="#D0D0D0" stroke="none" x="553" y="136" width="15" height="15" /><rect stroke="none" fill="#DAEAFC" x="550" y="133" width="14" height="14" /><rect stroke="#9A8484" x="550" y="133" width="14" height="15" /><rect stroke="#9A8484" x="550" y="133" width="14" height="14" /><rect fill="#D0D0D0" stroke="none" x="560" y="53" width="109" height="104" /><rect stroke="none" fill="#F9EAEA" x="557" y="50" width="108" height="103" /><rect stroke="#9A8484" x="557" y="50" width="108" height="104" /><rect stroke="#9A8484" x="557" y="50" width="108" height="103" /><text transform="matrix(1 0 0 1 578 59)" fill="#595959" font-weight="bold" stroke="none"><tspan dx="0 " x="0" y="10">APIs / Data</tspan></text><rect stroke="none" fill="#F9EAEA" x="650" y="55" width="10" height="16" /><rect stroke="#9A8484" x="650" y="55" width="10" height="17" /><rect stroke="none" fill="#F9EAEA" x="647" y="57" width="6" height="4" /><rect stroke="#9A8484" x="647" y="57" width="6" height="5" /><rect stroke="none" fill="#F9EAEA" x="647" y="64" width="6" height="4" /><rect stroke="#9A8484" x="647" y="64" width="6" height="5" /><rect stroke="none" fill="#DAEAFC" x="550" y="73" width="14" height="14" /><rect stroke="#9A8484" x="550" y="73" width="14" height="15" /><rect stroke="#9A8484" x="550" y="73" width="14" height="14" /><rect stroke="none" fill="#DAEAFC" x="550" y="103" width="14" height="14" /><rect stroke="#9A8484" x="550" y="103" width="14" height="15" /><rect stroke="#9A8484" x="550" y="103" width="14" height="14" /><rect stroke="none" fill="#DAEAFC" x="550" y="133" width="14" height="14" /><rect stroke="#9A8484" x="550" y="133" width="14" height="15" /><rect stroke="#9A8484" x="550" y="133" width="14" height="14" /><rect fill="#D0D0D0" stroke="none" x="319" y="106" width="15" height="15" /><rect stroke="none" fill="#DAEAFC" x="316" y="103" width="14" height="14" /><rect stroke="#9A8484" x="316" y="103" width="14" height="15" /><rect stroke="#9A8484" x="316" y="103" width="14" height="14" /><rect fill="#D0D0D0" stroke="none" x="319" y="76" width="15" height="15" /><rect stroke="none" fill="#DAEAFC" x="316" y="73" width="14" height="14" /><rect stroke="#9A8484" x="316" y="73" width="14" height="15" /><rect stroke="#9A8484" x="316" y="73" width="14" height="14" /><rect fill="#D0D0D0" stroke="none" x="427" y="76" width="15" height="15" /><rect stroke="none" fill="#DAEAFC" x="424" y="73" width="14" height="14" /><rect stroke="#9A8484" x="424" y="73" width="14" height="15" /><rect stroke="#9A8484" x="424" y="73" width="14" height="14" /><rect fill="#D0D0D0" stroke="none" x="427" y="106" width="15" height="15" /><rect stroke="none" fill="#DAEAFC" x="424" y="103" width="14" height="14" /><rect stroke="#9A8484" x="424" y="103" width="14" height="15" /><rect stroke="#9A8484" x="424" y="103" width="14" height="14" /><rect fill="#D0D0D0" stroke="none" x="427" y="136" width="15" height="15" /><rect stroke="none" fill="#DAEAFC" x="424" y="133" width="14" height="14" /><rect stroke="#9A8484" x="424" y="133" width="14" height="15" /><rect stroke="#9A8484" x="424" y="133" width="14" height="14" /><rect fill="#D0D0D0" stroke="none" x="325" y="53" width="109" height="104" /><rect stroke="none" fill="#F9EAEA" x="322" y="50" width="108" height="103" /><rect stroke="#9A8484" x="322" y="50" width="108" height="104" /><rect stroke="#9A8484" x="322" y="50" width="108" height="103" /><text transform="matrix(1 0 0 1 353 59)" fill="#595959" font-weight="bold" stroke="none"><tspan dx="0 " x="0" y="10">Dialog</tspan></text><rect stroke="none" fill="#F9EAEA" x="415" y="55" width="10" height="16" /><rect stroke="#9A8484" x="415" y="55" width="10" height="17" /><rect stroke="none" fill="#F9EAEA" x="412" y="57" width="6" height="4" /><rect stroke="#9A8484" x="412" y="57" width="6" height="5" /><rect stroke="none" fill="#F9EAEA" x="412" y="64" width="6" height="4" /><rect stroke="#9A8484" x="412" y="64" width="6" height="5" /><rect stroke="none" fill="#DAEAFC" x="316" y="103" width="14" height="14" /><rect stroke="#9A8484" x="316" y="103" width="14" height="15" /><rect stroke="#9A8484" x="316" y="103" width="14" height="14" /><rect stroke="none" fill="#DAEAFC" x="316" y="73" width="14" height="14" /><rect stroke="#9A8484" x="316" y="73" width="14" height="15" /><rect stroke="#9A8484" x="316" y="73" width="14" height="14" /><rect stroke="none" fill="#DAEAFC" x="424" y="73" width="14" height="14" /><rect stroke="#9A8484" x="424" y="73" width="14" height="15" /><rect stroke="#9A8484" x="424" y="73" width="14" height="14" /><rect stroke="none" fill="#DAEAFC" x="424" y="103" width="14" height="14" /><rect stroke="#9A8484" x="424" y="103" width="14" height="15" /><rect stroke="#9A8484" x="424" y="103" width="14" height="14" /><rect stroke="none" fill="#DAEAFC" x="424" y="133" width="14" height="14" /><rect stroke="#9A8484" x="424" y="133" width="14" height="15" /><rect stroke="#9A8484" x="424" y="133" width="14" height="14" /><rect fill="#D0D0D0" stroke="none" x="192" y="106" width="15" height="15" /><rect stroke="none" fill="#DAEAFC" x="189" y="103" width="14" height="14" /><rect stroke="#9A8484" x="189" y="103" width="14" height="15" /><rect stroke="#9A8484" x="189" y="103" width="14" height="14" /><rect fill="#D0D0D0" stroke="none" x="192" y="76" width="15" height="15" /><rect stroke="none" fill="#DAEAFC" x="189" y="73" width="14" height="14" /><rect stroke="#9A8484" x="189" y="73" width="14" height="15" /><rect stroke="#9A8484" x="189" y="73" width="14" height="14" /><rect fill="#D0D0D0" stroke="none" x="87" y="53" width="112" height="104" /><rect stroke="none" fill="#F9EAEA" x="84" y="50" width="111" height="103" /><rect stroke="#9A8484" x="84" y="50" width="111" height="104" /><rect stroke="#9A8484" x="84" y="50" width="111" height="103" /><text transform="matrix(1 0 0 1 118 59)" fill="#595959" font-weight="bold" stroke="none"><tspan dx="0 " x="0" y="10">Client</tspan></text><rect stroke="none" fill="#F9EAEA" x="180" y="55" width="10" height="16" /><rect stroke="#9A8484" x="180" y="55" width="10" height="17" /><rect stroke="none" fill="#F9EAEA" x="177" y="57" width="6" height="4" /><rect stroke="#9A8484" x="177" y="57" width="6" height="5" /><rect stroke="none" fill="#F9EAEA" x="177" y="64" width="6" height="4" /><rect stroke="#9A8484" x="177" y="64" width="6" height="5" /><rect stroke="none" fill="#DAEAFC" x="189" y="103" width="14" height="14" /><rect stroke="#9A8484" x="189" y="103" width="14" height="15" /><rect stroke="#9A8484" x="189" y="103" width="14" height="14" /><rect stroke="none" fill="#DAEAFC" x="189" y="73" width="14" height="14" /><rect stroke="#9A8484" x="189" y="73" width="14" height="15" /><rect stroke="#9A8484" x="189" y="73" width="14" height="14" /><path stroke="#69738C" d="M204 80h47M260.18 69.57C259.79 69.52 259.39 69.5 259 69.5C254.25 70 250 74.25 250 79.5C250 84.75 254.25 89 259.5 89C259.32 88.5 259.63 88.48 259.95 88.45M266 80h50" /><path stroke="none" fill="#FAF1EC" d="M253 79.5C253 75.91 255.91 73 259.5 73C263.09 73 266 75.91 266 79.5C266 83.09 263.09 86 259.5 86C255.91 86 253 83.09 253 79.5" /><path stroke="#69738C" d="M253 79.5C253 75.91 255.91 73 259.5 73C263.09 73 266 75.91 266 79.5C266 83.09 263.09 86 259.5 86C255.91 86 253 83.09 253 79.5M316 110H270M259.86 118.46C264.73 118.02 268.5 113.89 268.5 109C268.5 104.18 264.84 100.09 260.05 99.56M253 110H204" /><path stroke="none" fill="#FAF1EC" d="M253 109.5C253 105.91 255.91 103 259.5 103C263.09 103 266 105.91 266 109.5C266 113.09 263.09 116 259.5 116C255.91 116 253 113.09 253 109.5" /><path stroke="#69738C" d="M253 109.5C253 105.91 255.91 103 259.5 103C263.09 103 266 105.91 266 109.5C266 113.09 263.09 116 259.5 116C255.91 116 253 113.09 253 109.5M550 140H504M493.86 148.46C498.73 148.02 502.5 143.89 502.5 139C502.5 134.18 498.84 130.09 494.05 129.56M487 140H439" /><path stroke="none" fill="#FAF1EC" d="M487 139.5C487 135.91 489.91 133 493.5 133C497.09 133 500 135.91 500 139.5C500 143.09 497.09 146 493.5 146C489.91 146 487 143.09 487 139.5" /><path stroke="#69738C" d="M487 139.5C487 135.91 489.91 133 493.5 133C497.09 133 500 135.91 500 139.5C500 143.09 497.09 146 493.5 146C489.91 146 487 143.09 487 139.5M439 110h46M494.18 99.57C493.79 99.52 493.39 99.5 493 99.5C488.25 100 484 104.25 484 109.5C484 114.75 488.25 119 493.5 119C493.32 118.5 493.63 118.48 493.95 118.45M500 110h50" /><path stroke="none" fill="#FAF1EC" d="M487 109.5C487 105.91 489.91 103 493.5 103C497.09 103 500 105.91 500 109.5C500 113.09 497.09 116 493.5 116C489.91 116 487 113.09 487 109.5" /><path stroke="#69738C" d="M487 109.5C487 105.91 489.91 103 493.5 103C497.09 103 500 105.91 500 109.5C500 113.09 497.09 116 493.5 116C489.91 116 487 113.09 487 109.5M550 80H504M493.86 88.46C498.73 88.02 502.5 83.89 502.5 79C502.5 74.18 498.84 70.09 494.05 69.56M487 80H439" /><path stroke="none" fill="#FAF1EC" d="M487 79.5C487 75.91 489.91 73 493.5 73C497.09 73 500 75.91 500 79.5C500 83.09 497.09 86 493.5 86C489.91 86 487 83.09 487 79.5" /><path stroke="#69738C" d="M487 79.5C487 75.91 489.91 73 493.5 73C497.09 73 500 75.91 500 79.5C500 83.09 497.09 86 493.5 86C489.91 86 487 83.09 487 79.5" /><g transform="matrix(1 0 0 -1 451 91)"><rect fill="#FFFFFF" stroke="none" x="0" width="98" y="-13" height="13" /></g><text transform="matrix(1 0 0 1 451 91)" fill="#595959" stroke="none"><tspan dx="0 " x="0" y="10">S</tspan><tspan dx="0 " x="4.333333" y="10">e</tspan><tspan dx="0 " x="9.333333" y="10">m</tspan><tspan dx="0 " x="17.33333" y="10">a</tspan><tspan dx="0 " x="22" y="10">n</tspan><tspan dx="0 0 " x="27.33333" y="10">ti</tspan><tspan dx="0 " x="33" y="10">c</tspan><tspan dx="0 " x="37.33333" y="10"> </tspan><tspan dx="0 " x="39.66666" y="10">I</tspan><tspan dx="0 " x="42.33333" y="10">n</tspan><tspan dx="0 " x="47.66666" y="10">t</tspan><tspan dx="0 " x="51" y="10">e</tspan><tspan dx="0 " x="56" y="10">r</tspan><tspan dx="0 " x="59.66666" y="10">p</tspan><tspan dx="0 " x="65" y="10">r</tspan><tspan dx="0 " x="68.66666" y="10">e</tspan><tspan dx="0 " x="73.66666" y="10">t</tspan><tspan dx="0 " x="77" y="10">a</tspan><tspan dx="0 0 " x="81.66666" y="10">ti</tspan><tspan dx="0 " x="87.33333" y="10">o</tspan><tspan dx="0 " x="92.66666" y="10">n</tspan></text><g transform="matrix(1 0 0 -1 467 120)"><rect fill="#FFFFFF" stroke="none" x="0" width="47" y="-13" height="13" /></g><text transform="matrix(1 0 0 1 467 120)" fill="#595959" stroke="none"><tspan dx="0 " x="0" y="10">Service Call</tspan></text><g transform="matrix(1 0 0 -1 234 87)"><rect fill="#FFFFFF" stroke="none" x="0" width="47" y="-13" height="13" /></g><text transform="matrix(1 0 0 1 234 87)" fill="#595959" stroke="none"><tspan dx="0 " x="0" y="10">Client Input</tspan></text><g transform="matrix(1 0 0 -1 470 55)"><rect fill="#FFFFFF" stroke="none" x="0" width="47" y="-13" height="13" /></g><text transform="matrix(1 0 0 1 470 55)" fill="#595959" stroke="none"><tspan dx="0 " x="0" y="10">Client Input</tspan></text><g transform="matrix(1 0 0 -1 230 52)"><rect fill="#FFFFFF" stroke="none" x="0" width="65" y="-13" height="13" /></g><text transform="matrix(1 0 0 1 230 52)" fill="#595959" stroke="none"><tspan dx="0 " x="0" y="10">Client Response</tspan></text></g></g></g></g></svg>