<?xml version="1.0" encoding="utf-8"?><svg version="1.1" preserveAspectRatio="xMidYMid" xml:space="preserve" width="342.32581pt" height="163.77138pt" viewBox="6.832990000000001 10.756820000000001 342.32581 163.77138" xmlns="http://www.w3.org/2000/svg" xmlns:xlink="http://www.w3.org/1999/xlink"><g transform="matrix(1 0 0 -1 0 790)"><g stroke="#000000" fill="none" fill-rule="evenodd" stroke-width="1" stroke-linecap="round" stroke-linejoin="round" stroke-miterlimit="3" letter-spacing="normal" font-weight="normal" font-style="normal" baseline-shift="0"><g transform="matrix(0.5 0 0 0.5 0 790.549988)"><g transform="matrix(1.483299 0 0 -1.485139 0 0)" font-family="CalibriUnicode" font-size="7"><rect fill="#D0D0D0" stroke="none" x="342" y="193" width="15" height="15" /><rect stroke="none" fill="#DAEAFC" x="339" y="190" width="14" height="14" /><rect stroke="#9A8484" x="339" y="190" width="14" height="15" /><rect stroke="#9A8484" x="339" y="190" width="14" height="14" /><rect fill="#D0D0D0" stroke="none" x="342" y="55" width="15" height="15" /><rect stroke="none" fill="#DAEAFC" x="339" y="52" width="14" height="14" /><rect stroke="#9A8484" x="339" y="52" width="14" height="15" /><rect stroke="#9A8484" x="339" y="52" width="14" height="14" /><rect fill="#D0D0D0" stroke="none" x="344" y="129" width="15" height="15" /><rect stroke="none" fill="#DAEAFC" x="341" y="126" width="14" height="14" /><rect stroke="#9A8484" x="341" y="126" width="14" height="15" /><rect stroke="#9A8484" x="341" y="126" width="14" height="14" /><rect fill="#D0D0D0" stroke="none" x="350" y="29" width="110" height="196" /><rect stroke="none" fill="#F9EAEA" x="347" y="26" width="109" height="195" /><rect stroke="#9A8484" x="347" y="26" width="109" height="196" /><rect stroke="#9A8484" x="347" y="26" width="109" height="195" /><text transform="matrix(1 0 0 1 379 35)" fill="#595959" font-weight="bold" stroke="none"><tspan dx="0 " x="0" y="7">IPA Client</tspan></text><rect stroke="none" fill="#F9EAEA" x="441" y="31" width="10" height="16" /><rect stroke="#9A8484" x="441" y="31" width="10" height="17" /><rect stroke="none" fill="#F9EAEA" x="438" y="33" width="6" height="4" /><rect stroke="#9A8484" x="438" y="33" width="6" height="5" /><rect stroke="none" fill="#F9EAEA" x="438" y="40" width="6" height="4" /><rect stroke="#9A8484" x="438" y="40" width="6" height="5" /><rect stroke="none" fill="#DAEAFC" x="339" y="190" width="14" height="14" /><rect stroke="#9A8484" x="339" y="190" width="14" height="15" /><rect stroke="#9A8484" x="339" y="190" width="14" height="14" /><rect stroke="none" fill="#DAEAFC" x="339" y="52" width="14" height="14" /><rect stroke="#9A8484" x="339" y="52" width="14" height="15" /><rect stroke="#9A8484" x="339" y="52" width="14" height="14" /><rect stroke="none" fill="#DAEAFC" x="341" y="126" width="14" height="14" /><rect stroke="#9A8484" x="341" y="126" width="14" height="15" /><rect stroke="#9A8484" x="341" y="126" width="14" height="14" /><path stroke="#9A8484" d="M339 196H313" /><path stroke="none" fill="#F1ECFA" d="M300 196C300 192.69 302.69 190 306 190C309.31 190 312 192.69 312 196C312 199.31 309.31 202 306 202C302.69 202 300 199.31 300 196" /><path stroke="#9A8484" d="M300 196C300 192.69 302.69 190 306 190C309.31 190 312 192.69 312 196C312 199.31 309.31 202 306 202C302.69 202 300 199.31 300 196M300 196C300 192.69 302.69 190 306 190C309.31 190 312 192.69 312 196C312 199.31 309.31 202 306 202C302.69 202 300 199.31 300 196" /><text transform="matrix(1 0 0 1 257 206)" fill="#595959" stroke="none"><tspan dx="0 " x="0" y="7">P</tspan><tspan dx="0 " x="3.25" y="7">r</tspan><tspan dx="0 " x="5.5" y="7">e</tspan><tspan dx="0 " x="8.75" y="7">s</tspan><tspan dx="0 " x="11.5" y="7">e</tspan><tspan dx="0 " x="14.75" y="7">n</tspan><tspan dx="0 " x="18.25" y="7">t</tspan><tspan dx="0 " x="20.5" y="7">a</tspan><tspan dx="0 0 " x="23.5" y="7">ti</tspan><tspan dx="0 " x="27.5" y="7">o</tspan><tspan dx="0 " x="31.25" y="7">n</tspan></text><path stroke="#9A8484" d="M339 58H313m-7 6C306 64 306 64 306 64C309.31 64 312 61.31 312 58C312 54.71 309.29 52 306 52" /><text transform="matrix(1 0 0 1 291 68)" fill="#595959" stroke="none"><tspan dx="0 " x="0" y="7">Capture</tspan></text><path stroke="#9A8484" d="M341 132H315" /><path stroke="none" fill="#F1ECFA" d="M302 132C302 128.69 304.69 126 308 126C311.31 126 314 128.69 314 132C314 135.31 311.31 138 308 138C304.69 138 302 135.31 302 132" /><path stroke="#9A8484" d="M302 132C302 128.69 304.69 126 308 126C311.31 126 314 128.69 314 132C314 135.31 311.31 138 308 138C304.69 138 302 135.31 302 132M302 132C302 128.69 304.69 126 308 126C311.31 126 314 128.69 314 132C314 135.31 311.31 138 308 138C304.69 138 302 135.31 302 132" /><text transform="matrix(1 0 0 1 289 142)" fill="#595959" stroke="none"><tspan dx="0 " x="0" y="7">ModalityComponentLifecycle</tspan></text><rect fill="#D0D0D0" stroke="none" x="126" y="56" width="15" height="15" /><rect stroke="none" fill="#DAEAFC" x="123" y="53" width="14" height="14" /><rect stroke="#9A8484" x="123" y="53" width="14" height="15" /><rect stroke="#9A8484" x="123" y="53" width="14" height="14" /><rect fill="#D0D0D0" stroke="none" x="126" y="90" width="15" height="15" /><rect stroke="none" fill="#DAEAFC" x="123" y="87" width="14" height="14" /><rect stroke="#9A8484" x="123" y="87" width="14" height="15" /><rect stroke="#9A8484" x="123" y="87" width="14" height="14" /><rect fill="#D0D0D0" stroke="none" x="23" y="29" width="110" height="87" /><rect stroke="none" fill="#F9EAEA" x="20" y="26" width="109" height="86" /><rect stroke="#9A8484" x="20" y="26" width="109" height="87" /><rect stroke="#9A8484" x="20" y="26" width="109" height="86" /><text transform="matrix(1 0 0 1 54 35)" fill="#595959" font-weight="bold" stroke="none"><tspan dx="0 " x="0" y="7">Capture</tspan></text><rect stroke="none" fill="#F9EAEA" x="114" y="31" width="10" height="16" /><rect stroke="#9A8484" x="114" y="31" width="10" height="17" /><rect stroke="none" fill="#F9EAEA" x="111" y="33" width="6" height="4" /><rect stroke="#9A8484" x="111" y="33" width="6" height="5" /><rect stroke="none" fill="#F9EAEA" x="111" y="40" width="6" height="4" /><rect stroke="#9A8484" x="111" y="40" width="6" height="5" /><rect stroke="none" fill="#DAEAFC" x="123" y="53" width="14" height="14" /><rect stroke="#9A8484" x="123" y="53" width="14" height="15" /><rect stroke="#9A8484" x="123" y="53" width="14" height="14" /><rect stroke="none" fill="#DAEAFC" x="123" y="87" width="14" height="14" /><rect stroke="#9A8484" x="123" y="87" width="14" height="15" /><rect stroke="#9A8484" x="123" y="87" width="14" height="14" /><path stroke="#9A8484" d="M138 59h26" /><path stroke="none" fill="#F1ECFA" d="M164 59C164 55.69 166.69 53 170 53C173.31 53 176 55.69 176 59C176 62.31 173.31 65 170 65C166.69 65 164 62.31 164 59" /><path stroke="#9A8484" d="M164 59C164 55.69 166.69 53 170 53C173.31 53 176 55.69 176 59C176 62.31 173.31 65 170 65C166.69 65 164 62.31 164 59M164 59C164 55.69 166.69 53 170 53C173.31 53 176 55.69 176 59C176 62.31 173.31 65 170 65C166.69 65 164 62.31 164 59" /><text transform="matrix(1 0 0 1 143 69)" fill="#595959" stroke="none"><tspan dx="0 " x="0" y="7">M</tspan><tspan dx="0 " x="5.75" y="7">u</tspan><tspan dx="0 " x="9.25" y="7">l</tspan><tspan dx="0 0 " x="11" y="7">ti</tspan><tspan dx="0 " x="15" y="7">M</tspan><tspan dx="0 " x="20.75" y="7">o</tspan><tspan dx="0 " x="24.25" y="7">d</tspan><tspan dx="0 " x="27.75" y="7">a</tspan><tspan dx="0 " x="31" y="7">l</tspan><tspan dx="0 " x="32.75" y="7">D</tspan><tspan dx="0 " x="37.25" y="7">a</tspan><tspan dx="0 " x="40.5" y="7">t</tspan><tspan dx="0 " x="42.75" y="7">a</tspan></text><path stroke="#9A8484" d="M138 93h26M170.99 87.08C170.66 87.03 170.33 87 170 87C166.69 87 164 89.69 164 93C164 96.31 166.69 99 170 99C170.28 99 170.57 98.98 170.85 98.94" /><text transform="matrix(1 0 0 1 72 100)" fill="#595959" stroke="none"><tspan dx="0 " x="0" y="7">ModalityComponentLifecycle</tspan></text><rect fill="#D0D0D0" stroke="none" x="126" y="194" width="15" height="15" /><rect stroke="none" fill="#DAEAFC" x="123" y="191" width="14" height="14" /><rect stroke="#9A8484" x="123" y="191" width="14" height="15" /><rect stroke="#9A8484" x="123" y="191" width="14" height="14" /><rect fill="#D0D0D0" stroke="none" x="126" y="164" width="15" height="15" /><rect stroke="none" fill="#DAEAFC" x="123" y="161" width="14" height="14" /><rect stroke="#9A8484" x="123" y="161" width="14" height="15" /><rect stroke="#9A8484" x="123" y="161" width="14" height="14" /><rect fill="#D0D0D0" stroke="none" x="23" y="138" width="110" height="87" /><rect stroke="none" fill="#F9EAEA" x="20" y="135" width="109" height="86" /><rect stroke="#9A8484" x="20" y="135" width="109" height="87" /><rect stroke="#9A8484" x="20" y="135" width="109" height="86" /><text transform="matrix(1 0 0 1 47 144)" fill="#595959" font-weight="bold" stroke="none"><tspan dx="0 " x="0" y="7">P</tspan><tspan dx="0 " x="3.25" y="7">r</tspan><tspan dx="0 " x="5.75" y="7">e</tspan><tspan dx="0 " x="9" y="7">s</tspan><tspan dx="0 " x="11.75" y="7">e</tspan><tspan dx="0 " x="15" y="7">n</tspan><tspan dx="0 " x="18.5" y="7">t</tspan><tspan dx="0 " x="20.75" y="7">a</tspan><tspan dx="0 0 " x="24" y="7">ti</tspan><tspan dx="0 " x="28" y="7">o</tspan><tspan dx="0 " x="31.5" y="7">n</tspan></text><rect stroke="none" fill="#F9EAEA" x="114" y="140" width="10" height="16" /><rect stroke="#9A8484" x="114" y="140" width="10" height="17" /><rect stroke="none" fill="#F9EAEA" x="111" y="142" width="6" height="4" /><rect stroke="#9A8484" x="111" y="142" width="6" height="5" /><rect stroke="none" fill="#F9EAEA" x="111" y="149" width="6" height="4" /><rect stroke="#9A8484" x="111" y="149" width="6" height="5" /><rect stroke="none" fill="#DAEAFC" x="123" y="191" width="14" height="14" /><rect stroke="#9A8484" x="123" y="191" width="14" height="15" /><rect stroke="#9A8484" x="123" y="191" width="14" height="14" /><rect stroke="none" fill="#DAEAFC" x="123" y="161" width="14" height="14" /><rect stroke="#9A8484" x="123" y="161" width="14" height="15" /><rect stroke="#9A8484" x="123" y="161" width="14" height="14" /><path stroke="#9A8484" d="M138 197h26M170.99 191.08C170.66 191.03 170.33 191 170 191C166.69 191 164 193.69 164 197C164 200.31 166.69 203 170 203C170.28 203 170.57 202.98 170.85 202.94" /><text transform="matrix(1 0 0 1 143 207)" fill="#595959" stroke="none"><tspan dx="0 " x="0" y="7">M</tspan><tspan dx="0 " x="5.75" y="7">u</tspan><tspan dx="0 " x="9.25" y="7">l</tspan><tspan dx="0 0 " x="11" y="7">ti</tspan><tspan dx="0 " x="15" y="7">M</tspan><tspan dx="0 " x="20.75" y="7">o</tspan><tspan dx="0 " x="24.25" y="7">d</tspan><tspan dx="0 " x="27.75" y="7">a</tspan><tspan dx="0 " x="31" y="7">l</tspan><tspan dx="0 " x="32.75" y="7">D</tspan><tspan dx="0 " x="37.25" y="7">a</tspan><tspan dx="0 " x="40.5" y="7">t</tspan><tspan dx="0 " x="42.75" y="7">a</tspan></text><path stroke="#9A8484" d="M138 167h26M170.99 161.08C170.66 161.03 170.33 161 170 161C166.69 161 164 163.69 164 167C164 170.31 166.69 173 170 173C170.28 173 170.57 172.98 170.85 172.94" /><text transform="matrix(1 0 0 1 87 173)" fill="#595959" stroke="none"><tspan dx="0 " x="0" y="7">ModalityComponentLifecycle</tspan></text><path stroke="#69738C" d="M177 196h52M238.18 185.57C237.79 185.52 237.39 185.5 237 185.5C232.25 186 228 190.25 228 195.5C228 200.75 232.25 205 237.5 205C237.32 204.5 237.63 204.48 237.95 204.45M244 196h56" /><path stroke="none" fill="#FAF1EC" d="M231 195.5C231 191.91 233.91 189 237.5 189C241.09 189 244 191.91 244 195.5C244 199.09 241.09 202 237.5 202C233.91 202 231 199.09 231 195.5" /><path stroke="#69738C" d="M231 195.5C231 191.91 233.91 189 237.5 189C241.09 189 244 191.91 244 195.5C244 199.09 241.09 202 237.5 202C233.91 202 231 199.09 231 195.5M300 58H248M237.86 66.46C242.73 66.02 246.5 61.89 246.5 57C246.5 52.18 242.84 48.09 238.05 47.56M231 58H177" /><path stroke="none" fill="#FAF1EC" d="M231 57.5C231 53.91 233.91 51 237.5 51C241.09 51 244 53.91 244 57.5C244 61.09 241.09 64 237.5 64C233.91 64 231 61.09 231 57.5" /><path stroke="#69738C" d="M231 57.5C231 53.91 233.91 51 237.5 51C241.09 51 244 53.91 244 57.5C244 61.09 241.09 64 237.5 64C233.91 64 231 61.09 231 57.5M171 161l56 -12M233.82 136.57C229.09 137.16 225.5 141.23 225.5 146C226 151.75 230.25 156 235.5 156C235.63 155.5 236.25 155.44 236.86 155.32M242 147l60 -14" /><path stroke="none" fill="#FAF1EC" d="M229 146.5C229 142.91 231.91 140 235.5 140C239.09 140 242 142.91 242 146.5C242 150.09 239.09 153 235.5 153C231.91 153 229 150.09 229 146.5" /><path stroke="#69738C" d="M229 146.5C229 142.91 231.91 140 235.5 140C239.09 140 242 142.91 242 146.5C242 150.09 239.09 153 235.5 153C231.91 153 229 150.09 229 146.5M172 100l56 13M238.3 104.78C237.55 104.6 236.78 104.5 236 104.5C231.25 105 227 109.25 227 114.5C226.5 118.86 230.22 122.97 235.05 123.45M243 117l59 13" /><path stroke="none" fill="#FAF1EC" d="M230 114.5C230 110.91 232.91 108 236.5 108C240.09 108 243 110.91 243 114.5C243 118.09 240.09 121 236.5 121C232.91 121 230 118.09 230 114.5" /><path stroke="#69738C" d="M230 114.5C230 110.91 232.91 108 236.5 108C240.09 108 243 110.91 243 114.5C243 118.09 240.09 121 236.5 121C232.91 121 230 118.09 230 114.5" /></g></g></g></g></svg>