<?xml version="1.0" encoding="utf-8"?><svg version="1.1" preserveAspectRatio="xMidYMid" xml:space="preserve" width="272.03339pt" height="62.87382999999999pt" viewBox="6.4429099999999995 6.05639 272.03339 62.87382999999999" xmlns="http://www.w3.org/2000/svg" xmlns:xlink="http://www.w3.org/1999/xlink"><g transform="matrix(1 0 0 -1 0 541)"><g stroke="#000000" fill="none" fill-rule="evenodd" stroke-width="1" stroke-linecap="round" stroke-linejoin="round" stroke-miterlimit="3" letter-spacing="normal" font-weight="normal" font-style="normal" baseline-shift="0"><g transform="matrix(0.6 0 0 0.6 0 541.400024)"><g transform="matrix(0.72944 0 0 -0.730122 0 0)" font-family="CalibriUnicode" font-size="8"><rect fill="#D0D0D0" stroke="none" x="502" y="67" width="15" height="15" /><rect stroke="none" fill="#DAEAFC" x="499" y="64" width="14" height="14" /><rect stroke="#9A8484" x="499" y="64" width="14" height="15" /><rect stroke="#9A8484" x="499" y="64" width="14" height="14" /><rect fill="#D0D0D0" stroke="none" x="502" y="108" width="15" height="15" /><rect stroke="none" fill="#DAEAFC" x="499" y="105" width="14" height="14" /><rect stroke="#9A8484" x="499" y="105" width="14" height="15" /><rect stroke="#9A8484" x="499" y="105" width="14" height="14" /><rect fill="#D0D0D0" stroke="none" x="509" y="36" width="109" height="104" /><rect stroke="none" fill="#F9EAEA" x="506" y="33" width="108" height="103" /><rect stroke="#9A8484" x="506" y="33" width="108" height="104" /><rect stroke="#9A8484" x="506" y="33" width="108" height="103" /><text transform="matrix(1 0 0 1 525 42)" fill="#595959" font-weight="bold" stroke="none"><tspan dx="0 " x="0" y="8">External Data /</tspan></text><text transform="matrix(1 0 0 1 510 52)" fill="#595959" font-weight="bold" stroke="none"><tspan dx="0 " x="0" y="8">Services / IPA Providers</tspan></text><rect stroke="none" fill="#F9EAEA" x="599" y="38" width="10" height="16" /><rect stroke="#9A8484" x="599" y="38" width="10" height="17" /><rect stroke="none" fill="#F9EAEA" x="596" y="40" width="6" height="4" /><rect stroke="#9A8484" x="596" y="40" width="6" height="5" /><rect stroke="none" fill="#F9EAEA" x="596" y="47" width="6" height="4" /><rect stroke="#9A8484" x="596" y="47" width="6" height="5" /><rect stroke="none" fill="#DAEAFC" x="499" y="64" width="14" height="14" /><rect stroke="#9A8484" x="499" y="64" width="14" height="15" /><rect stroke="#9A8484" x="499" y="64" width="14" height="14" /><rect stroke="none" fill="#DAEAFC" x="499" y="105" width="14" height="14" /><rect stroke="#9A8484" x="499" y="105" width="14" height="15" /><rect stroke="#9A8484" x="499" y="105" width="14" height="14" /><rect fill="#D0D0D0" stroke="none" x="267" y="86" width="15" height="15" /><rect stroke="none" fill="#DAEAFC" x="264" y="83" width="14" height="14" /><rect stroke="#9A8484" x="264" y="83" width="14" height="15" /><rect stroke="#9A8484" x="264" y="83" width="14" height="14" /><rect fill="#D0D0D0" stroke="none" x="390" y="67" width="15" height="15" /><rect stroke="none" fill="#DAEAFC" x="387" y="64" width="14" height="14" /><rect stroke="#9A8484" x="387" y="64" width="14" height="15" /><rect stroke="#9A8484" x="387" y="64" width="14" height="14" /><rect fill="#D0D0D0" stroke="none" x="390" y="108" width="15" height="15" /><rect stroke="none" fill="#DAEAFC" x="387" y="105" width="14" height="14" /><rect stroke="#9A8484" x="387" y="105" width="14" height="15" /><rect stroke="#9A8484" x="387" y="105" width="14" height="14" /><rect fill="#D0D0D0" stroke="none" x="274" y="36" width="125" height="104" /><rect stroke="none" fill="#F9EAEA" x="271" y="33" width="124" height="103" /><rect stroke="#9A8484" x="271" y="33" width="124" height="104" /><rect stroke="#9A8484" x="271" y="33" width="124" height="103" /><text transform="matrix(1 0 0 1 313 42)" fill="#595959" font-weight="bold" stroke="none"><tspan dx="0 " x="0" y="8">Dialog</tspan></text><rect stroke="none" fill="#F9EAEA" x="380" y="38" width="10" height="16" /><rect stroke="#9A8484" x="380" y="38" width="10" height="17" /><rect stroke="none" fill="#F9EAEA" x="377" y="40" width="6" height="4" /><rect stroke="#9A8484" x="377" y="40" width="6" height="5" /><rect stroke="none" fill="#F9EAEA" x="377" y="47" width="6" height="4" /><rect stroke="#9A8484" x="377" y="47" width="6" height="5" /><rect stroke="none" fill="#DAEAFC" x="264" y="83" width="14" height="14" /><rect stroke="#9A8484" x="264" y="83" width="14" height="15" /><rect stroke="#9A8484" x="264" y="83" width="14" height="14" /><rect stroke="none" fill="#DAEAFC" x="387" y="64" width="14" height="14" /><rect stroke="#9A8484" x="387" y="64" width="14" height="15" /><rect stroke="#9A8484" x="387" y="64" width="14" height="14" /><rect stroke="none" fill="#DAEAFC" x="387" y="105" width="14" height="14" /><rect stroke="#9A8484" x="387" y="105" width="14" height="15" /><rect stroke="#9A8484" x="387" y="105" width="14" height="14" /><rect fill="#D0D0D0" stroke="none" x="140" y="86" width="15" height="15" /><rect stroke="none" fill="#DAEAFC" x="137" y="83" width="14" height="14" /><rect stroke="#9A8484" x="137" y="83" width="14" height="15" /><rect stroke="#9A8484" x="137" y="83" width="14" height="14" /><rect fill="#D0D0D0" stroke="none" x="36" y="36" width="112" height="104" /><rect stroke="none" fill="#F9EAEA" x="33" y="33" width="111" height="103" /><rect stroke="#9A8484" x="33" y="33" width="111" height="104" /><rect stroke="#9A8484" x="33" y="33" width="111" height="103" /><text transform="matrix(1 0 0 1 70 42)" fill="#595959" font-weight="bold" stroke="none"><tspan dx="0 " x="0" y="8">Client</tspan></text><rect stroke="none" fill="#F9EAEA" x="129" y="38" width="10" height="16" /><rect stroke="#9A8484" x="129" y="38" width="10" height="17" /><rect stroke="none" fill="#F9EAEA" x="126" y="40" width="6" height="4" /><rect stroke="#9A8484" x="126" y="40" width="6" height="5" /><rect stroke="none" fill="#F9EAEA" x="126" y="47" width="6" height="4" /><rect stroke="#9A8484" x="126" y="47" width="6" height="5" /><rect stroke="none" fill="#DAEAFC" x="137" y="83" width="14" height="14" /><rect stroke="#9A8484" x="137" y="83" width="14" height="15" /><rect stroke="#9A8484" x="137" y="83" width="14" height="14" /><path stroke="#69738C" d="M152 90h47M208.18 79.57C207.79 79.52 207.39 79.5 207 79.5C202.25 80 198 84.25 198 89.5C198 94.75 202.25 99 207.5 99C207.32 98.5 207.63 98.48 207.95 98.45M214 90h50" /><path stroke="none" fill="#FAF1EC" d="M201 89.5C201 85.91 203.91 83 207.5 83C211.09 83 214 85.91 214 89.5C214 93.09 211.09 96 207.5 96C203.91 96 201 93.09 201 89.5" /><path stroke="#69738C" d="M201 89.5C201 85.91 203.91 83 207.5 83C211.09 83 214 85.91 214 89.5C214 93.09 211.09 96 207.5 96C203.91 96 201 93.09 201 89.5M402 112h39M450.18 101.57C449.79 101.52 449.39 101.5 449 101.5C444.25 102 440 106.25 440 111.5C440 116.75 444.25 121 449.5 121C449.32 120.5 449.63 120.48 449.95 120.45M456 112h43" /><path stroke="none" fill="#FAF1EC" d="M443 111.5C443 107.91 445.91 105 449.5 105C453.09 105 456 107.91 456 111.5C456 115.09 453.09 118 449.5 118C445.91 118 443 115.09 443 111.5" /><path stroke="#69738C" d="M443 111.5C443 107.91 445.91 105 449.5 105C453.09 105 456 107.91 456 111.5C456 115.09 453.09 118 449.5 118C445.91 118 443 115.09 443 111.5M402 71h39M450.18 60.57C449.79 60.52 449.39 60.5 449 60.5C444.25 61 440 65.25 440 70.5C440 75.75 444.25 80 449.5 80C449.32 79.5 449.63 79.48 449.95 79.45M456 71h43" /><path stroke="none" fill="#FAF1EC" d="M443 70.5C443 66.91 445.91 64 449.5 64C453.09 64 456 66.91 456 70.5C456 74.09 453.09 77 449.5 77C445.91 77 443 74.09 443 70.5" /><path stroke="#69738C" d="M443 70.5C443 66.91 445.91 64 449.5 64C453.09 64 456 66.91 456 70.5C456 74.09 453.09 77 449.5 77C445.91 77 443 74.09 443 70.5" /><g transform="matrix(1 0 0 -1 427 88)"><rect fill="#FFFFFF" stroke="none" x="0" width="38" y="-11" height="11" /></g><text transform="matrix(1 0 0 1 427 88)" fill="#595959" stroke="none"><tspan dx="0 " x="0" y="8">Service Call</tspan></text><g transform="matrix(1 0 0 -1 416 49)"><rect fill="#FFFFFF" stroke="none" x="0" width="66" y="-11" height="11" /></g><text transform="matrix(1 0 0 1 416 49)" fill="#595959" stroke="none"><tspan dx="0 " x="0" y="8">External Client Input</tspan></text><g transform="matrix(1 0 0 -1 185 70)"><rect fill="#FFFFFF" stroke="none" x="0" width="38" y="-11" height="11" /></g><text transform="matrix(1 0 0 1 185 70)" fill="#595959" stroke="none"><tspan dx="0 " x="0" y="8">Client Input</tspan></text></g></g></g></g></svg>