<?xml version="1.0" encoding="utf-8"?><svg version="1.1" preserveAspectRatio="xMidYMid" xml:space="preserve" width="272.03339pt" height="62.87382999999999pt" viewBox="6.4429099999999995 6.05639 272.03339 62.87382999999999" xmlns="http://www.w3.org/2000/svg" xmlns:xlink="http://www.w3.org/1999/xlink"><g transform="matrix(1 0 0 -1 0 541)"><g stroke="#000000" fill="none" fill-rule="evenodd" stroke-width="1" stroke-linecap="round" stroke-linejoin="round" stroke-miterlimit="3" letter-spacing="normal" font-weight="normal" font-style="normal" baseline-shift="0"><g transform="matrix(0.6 0 0 0.6 0 541.400024)"><g transform="matrix(0.72944 0 0 -0.730122 0 0)" font-family="CalibriUnicode" font-size="8"><rect fill="#D0D0D0" stroke="none" x="502" y="59" width="15" height="15" /><rect stroke="none" fill="#DAEAFC" x="499" y="56" width="14" height="14" /><rect stroke="#9A8484" x="499" y="56" width="14" height="15" /><rect stroke="#9A8484" x="499" y="56" width="14" height="14" /><rect fill="#D0D0D0" stroke="none" x="502" y="89" width="15" height="15" /><rect stroke="none" fill="#DAEAFC" x="499" y="86" width="14" height="14" /><rect stroke="#9A8484" x="499" y="86" width="14" height="15" /><rect stroke="#9A8484" x="499" y="86" width="14" height="14" /><rect fill="#D0D0D0" stroke="none" x="502" y="119" width="15" height="15" /><rect stroke="none" fill="#DAEAFC" x="499" y="116" width="14" height="14" /><rect stroke="#9A8484" x="499" y="116" width="14" height="15" /><rect stroke="#9A8484" x="499" y="116" width="14" height="14" /><rect fill="#D0D0D0" stroke="none" x="509" y="36" width="109" height="104" /><rect stroke="none" fill="#F9EAEA" x="506" y="33" width="108" height="103" /><rect stroke="#9A8484" x="506" y="33" width="108" height="104" /><rect stroke="#9A8484" x="506" y="33" width="108" height="103" /><text transform="matrix(1 0 0 1 531 42)" fill="#595959" font-weight="bold" stroke="none"><tspan dx="0 " x="0" y="8">APIs / Data</tspan></text><rect stroke="none" fill="#F9EAEA" x="599" y="38" width="10" height="16" /><rect stroke="#9A8484" x="599" y="38" width="10" height="17" /><rect stroke="none" fill="#F9EAEA" x="596" y="40" width="6" height="4" /><rect stroke="#9A8484" x="596" y="40" width="6" height="5" /><rect stroke="none" fill="#F9EAEA" x="596" y="47" width="6" height="4" /><rect stroke="#9A8484" x="596" y="47" width="6" height="5" /><rect stroke="none" fill="#DAEAFC" x="499" y="56" width="14" height="14" /><rect stroke="#9A8484" x="499" y="56" width="14" height="15" /><rect stroke="#9A8484" x="499" y="56" width="14" height="14" /><rect stroke="none" fill="#DAEAFC" x="499" y="86" width="14" height="14" /><rect stroke="#9A8484" x="499" y="86" width="14" height="15" /><rect stroke="#9A8484" x="499" y="86" width="14" height="14" /><rect stroke="none" fill="#DAEAFC" x="499" y="116" width="14" height="14" /><rect stroke="#9A8484" x="499" y="116" width="14" height="15" /><rect stroke="#9A8484" x="499" y="116" width="14" height="14" /><rect fill="#D0D0D0" stroke="none" x="267" y="59" width="15" height="15" /><rect stroke="none" fill="#DAEAFC" x="264" y="56" width="14" height="14" /><rect stroke="#9A8484" x="264" y="56" width="14" height="15" /><rect stroke="#9A8484" x="264" y="56" width="14" height="14" /><rect fill="#D0D0D0" stroke="none" x="267" y="89" width="15" height="15" /><rect stroke="none" fill="#DAEAFC" x="264" y="86" width="14" height="14" /><rect stroke="#9A8484" x="264" y="86" width="14" height="15" /><rect stroke="#9A8484" x="264" y="86" width="14" height="14" /><rect fill="#D0D0D0" stroke="none" x="375" y="59" width="15" height="15" /><rect stroke="none" fill="#DAEAFC" x="372" y="56" width="14" height="14" /><rect stroke="#9A8484" x="372" y="56" width="14" height="15" /><rect stroke="#9A8484" x="372" y="56" width="14" height="14" /><rect fill="#D0D0D0" stroke="none" x="375" y="89" width="15" height="15" /><rect stroke="none" fill="#DAEAFC" x="372" y="86" width="14" height="14" /><rect stroke="#9A8484" x="372" y="86" width="14" height="15" /><rect stroke="#9A8484" x="372" y="86" width="14" height="14" /><rect fill="#D0D0D0" stroke="none" x="375" y="119" width="15" height="15" /><rect stroke="none" fill="#DAEAFC" x="372" y="116" width="14" height="14" /><rect stroke="#9A8484" x="372" y="116" width="14" height="15" /><rect stroke="#9A8484" x="372" y="116" width="14" height="14" /><rect fill="#D0D0D0" stroke="none" x="274" y="36" width="109" height="104" /><rect stroke="none" fill="#F9EAEA" x="271" y="33" width="108" height="103" /><rect stroke="#9A8484" x="271" y="33" width="108" height="104" /><rect stroke="#9A8484" x="271" y="33" width="108" height="103" /><text transform="matrix(1 0 0 1 305 42)" fill="#595959" font-weight="bold" stroke="none"><tspan dx="0 " x="0" y="8">Dialog</tspan></text><rect stroke="none" fill="#F9EAEA" x="364" y="38" width="10" height="16" /><rect stroke="#9A8484" x="364" y="38" width="10" height="17" /><rect stroke="none" fill="#F9EAEA" x="361" y="40" width="6" height="4" /><rect stroke="#9A8484" x="361" y="40" width="6" height="5" /><rect stroke="none" fill="#F9EAEA" x="361" y="47" width="6" height="4" /><rect stroke="#9A8484" x="361" y="47" width="6" height="5" /><rect stroke="none" fill="#DAEAFC" x="264" y="56" width="14" height="14" /><rect stroke="#9A8484" x="264" y="56" width="14" height="15" /><rect stroke="#9A8484" x="264" y="56" width="14" height="14" /><rect stroke="none" fill="#DAEAFC" x="264" y="86" width="14" height="14" /><rect stroke="#9A8484" x="264" y="86" width="14" height="15" /><rect stroke="#9A8484" x="264" y="86" width="14" height="14" /><rect stroke="none" fill="#DAEAFC" x="372" y="56" width="14" height="14" /><rect stroke="#9A8484" x="372" y="56" width="14" height="15" /><rect stroke="#9A8484" x="372" y="56" width="14" height="14" /><rect stroke="none" fill="#DAEAFC" x="372" y="86" width="14" height="14" /><rect stroke="#9A8484" x="372" y="86" width="14" height="15" /><rect stroke="#9A8484" x="372" y="86" width="14" height="14" /><rect stroke="none" fill="#DAEAFC" x="372" y="116" width="14" height="14" /><rect stroke="#9A8484" x="372" y="116" width="14" height="15" /><rect stroke="#9A8484" x="372" y="116" width="14" height="14" /><rect fill="#D0D0D0" stroke="none" x="141" y="59" width="15" height="15" /><rect stroke="none" fill="#DAEAFC" x="138" y="56" width="14" height="14" /><rect stroke="#9A8484" x="138" y="56" width="14" height="15" /><rect stroke="#9A8484" x="138" y="56" width="14" height="14" /><rect fill="#D0D0D0" stroke="none" x="141" y="89" width="15" height="15" /><rect stroke="none" fill="#DAEAFC" x="138" y="86" width="14" height="14" /><rect stroke="#9A8484" x="138" y="86" width="14" height="15" /><rect stroke="#9A8484" x="138" y="86" width="14" height="14" /><rect fill="#D0D0D0" stroke="none" x="36" y="36" width="112" height="104" /><rect stroke="none" fill="#F9EAEA" x="33" y="33" width="111" height="103" /><rect stroke="#9A8484" x="33" y="33" width="111" height="104" /><rect stroke="#9A8484" x="33" y="33" width="111" height="103" /><text transform="matrix(1 0 0 1 70 42)" fill="#595959" font-weight="bold" stroke="none"><tspan dx="0 " x="0" y="8">Client</tspan></text><rect stroke="none" fill="#F9EAEA" x="129" y="38" width="10" height="16" /><rect stroke="#9A8484" x="129" y="38" width="10" height="17" /><rect stroke="none" fill="#F9EAEA" x="126" y="40" width="6" height="4" /><rect stroke="#9A8484" x="126" y="40" width="6" height="5" /><rect stroke="none" fill="#F9EAEA" x="126" y="47" width="6" height="4" /><rect stroke="#9A8484" x="126" y="47" width="6" height="5" /><rect stroke="none" fill="#DAEAFC" x="138" y="56" width="14" height="14" /><rect stroke="#9A8484" x="138" y="56" width="14" height="15" /><rect stroke="#9A8484" x="138" y="56" width="14" height="14" /><rect stroke="none" fill="#DAEAFC" x="138" y="86" width="14" height="14" /><rect stroke="#9A8484" x="138" y="86" width="14" height="15" /><rect stroke="#9A8484" x="138" y="86" width="14" height="14" /><path stroke="#69738C" d="M153 93h46M208.18 82.57C207.79 82.52 207.39 82.5 207 82.5C202.25 83 198 87.25 198 92.5C198 97.75 202.25 102 207.5 102C207.32 101.5 207.63 101.48 207.95 101.45M214 93h50" /><path stroke="none" fill="#FAF1EC" d="M201 92.5C201 88.91 203.91 86 207.5 86C211.09 86 214 88.91 214 92.5C214 96.09 211.09 99 207.5 99C203.91 99 201 96.09 201 92.5" /><path stroke="#69738C" d="M201 92.5C201 88.91 203.91 86 207.5 86C211.09 86 214 88.91 214 92.5C214 96.09 211.09 99 207.5 99C203.91 99 201 96.09 201 92.5M264 63H218M207.86 71.46C212.73 71.02 216.5 66.89 216.5 62C216.5 57.18 212.84 53.09 208.05 52.56M201 63H153" /><path stroke="none" fill="#FAF1EC" d="M201 62.5C201 58.91 203.91 56 207.5 56C211.09 56 214 58.91 214 62.5C214 66.09 211.09 69 207.5 69C203.91 69 201 66.09 201 62.5" /><path stroke="#69738C" d="M201 62.5C201 58.91 203.91 56 207.5 56C211.09 56 214 58.91 214 62.5C214 66.09 211.09 69 207.5 69C203.91 69 201 66.09 201 62.5M499 123H453M442.86 131.46C447.73 131.02 451.5 126.89 451.5 122C451.5 117.18 447.84 113.09 443.05 112.56M436 123H387" /><path stroke="none" fill="#FAF1EC" d="M436 122.5C436 118.91 438.91 116 442.5 116C446.09 116 449 118.91 449 122.5C449 126.09 446.09 129 442.5 129C438.91 129 436 126.09 436 122.5" /><path stroke="#69738C" d="M436 122.5C436 118.91 438.91 116 442.5 116C446.09 116 449 118.91 449 122.5C449 126.09 446.09 129 442.5 129C438.91 129 436 126.09 436 122.5M387 93h47M443.18 82.57C442.79 82.52 442.39 82.5 442 82.5C437.25 83 433 87.25 433 92.5C433 97.75 437.25 102 442.5 102C442.32 101.5 442.63 101.48 442.95 101.45M449 93h50" /><path stroke="none" fill="#FAF1EC" d="M436 92.5C436 88.91 438.91 86 442.5 86C446.09 86 449 88.91 449 92.5C449 96.09 446.09 99 442.5 99C438.91 99 436 96.09 436 92.5" /><path stroke="#69738C" d="M436 92.5C436 88.91 438.91 86 442.5 86C446.09 86 449 88.91 449 92.5C449 96.09 446.09 99 442.5 99C438.91 99 436 96.09 436 92.5M499 63H453M442.86 71.46C447.73 71.02 451.5 66.89 451.5 62C451.5 57.18 447.84 53.09 443.05 52.56M436 63H387" /><path stroke="none" fill="#FAF1EC" d="M436 62.5C436 58.91 438.91 56 442.5 56C446.09 56 449 58.91 449 62.5C449 66.09 446.09 69 442.5 69C438.91 69 436 66.09 436 62.5" /><path stroke="#69738C" d="M436 62.5C436 58.91 438.91 56 442.5 56C446.09 56 449 58.91 449 62.5C449 66.09 446.09 69 442.5 69C438.91 69 436 66.09 436 62.5" /><g transform="matrix(1 0 0 -1 185 43)"><rect fill="#FFFFFF" stroke="none" x="0" width="38" y="-11" height="11" /></g><text transform="matrix(1 0 0 1 185 43)" fill="#595959" stroke="none"><tspan dx="0 " x="0" y="8">Client Input</tspan></text><g transform="matrix(1 0 0 -1 181 104)"><rect fill="#FFFFFF" stroke="none" x="0" width="52" y="-11" height="11" /></g><text transform="matrix(1 0 0 1 181 104)" fill="#595959" stroke="none"><tspan dx="0 " x="0" y="8">Client Response</tspan></text><g transform="matrix(1 0 0 -1 409 77)"><rect fill="#FFFFFF" stroke="none" x="0" width="78" y="-11" height="11" /></g><text transform="matrix(1 0 0 1 409 77)" fill="#595959" stroke="none"><tspan dx="0 " x="0" y="8">S</tspan><tspan dx="0 " x="4" y="8">e</tspan><tspan dx="0 " x="8.25" y="8">m</tspan><tspan dx="0 " x="15" y="8">a</tspan><tspan dx="0 " x="19" y="8">n</tspan><tspan dx="0 0 " x="23" y="8">ti</tspan><tspan dx="0 " x="27.5" y="8">c</tspan><tspan dx="0 " x="31" y="8"> </tspan><tspan dx="0 " x="32.75" y="8">I</tspan><tspan dx="0 " x="34.75" y="8">n</tspan><tspan dx="0 " x="38.75" y="8">t</tspan><tspan dx="0 " x="41.5" y="8">e</tspan><tspan dx="0 " x="45.5" y="8">r</tspan><tspan dx="0 " x="48.25" y="8">p</tspan><tspan dx="0 " x="52.25" y="8">r</tspan><tspan dx="0 " x="55" y="8">e</tspan><tspan dx="0 " x="59" y="8">t</tspan><tspan dx="0 " x="61.75" y="8">a</tspan><tspan dx="0 0 " x="65.5" y="8">ti</tspan><tspan dx="0 " x="70" y="8">o</tspan><tspan dx="0 " x="74" y="8">n</tspan></text><g transform="matrix(1 0 0 -1 419 106)"><rect fill="#FFFFFF" stroke="none" x="0" width="38" y="-11" height="11" /></g><text transform="matrix(1 0 0 1 419 106)" fill="#595959" stroke="none"><tspan dx="0 " x="0" y="8">Service Call</tspan></text><g transform="matrix(1 0 0 -1 422 41)"><rect fill="#FFFFFF" stroke="none" x="0" width="38" y="-11" height="11" /></g><text transform="matrix(1 0 0 1 422 41)" fill="#595959" stroke="none"><tspan dx="0 " x="0" y="8">Client Input</tspan></text></g></g></g></g></svg>