<?xml version="1.0" encoding="utf-8"?><svg version="1.1" preserveAspectRatio="xMidYMid" xml:space="preserve" width="521.06331pt" height="203.87005pt" viewBox="3.866390000000001 10.01425 521.06331 203.87005" xmlns="http://www.w3.org/2000/svg" xmlns:xlink="http://www.w3.org/1999/xlink"><g transform="matrix(1 0 0 -1 0 790)"><g stroke="#000000" fill="none" fill-rule="evenodd" stroke-width="1" stroke-linecap="round" stroke-linejoin="round" stroke-miterlimit="3" letter-spacing="normal" font-weight="normal" font-style="normal" baseline-shift="0"><g transform="matrix(0.5 0 0 0.5 0 790.549988)"><g transform="matrix(1.483299 0 0 -1.485139 0 0)" font-family="CalibriUnicode" font-size="7"><rect fill="#D0D0D0" stroke="none" x="19" y="204" width="171" height="74" /><rect stroke="none" fill="#FDFAF7" x="16" y="201" width="170" height="73" /><rect stroke="#9A8484" x="16" y="201" width="170" height="74" /><rect stroke="#9A8484" x="16" y="201" width="170" height="73" /><text transform="matrix(1 0 0 1 76 210)" fill="#595959" font-weight="bold" stroke="none"><tspan dx="0 " x="0" y="7">IPADataProcessor</tspan></text><rect fill="#D0D0D0" stroke="none" x="308" y="204" width="171" height="74" /><rect stroke="none" fill="#FDFAF7" x="305" y="201" width="170" height="73" /><rect stroke="#9A8484" x="305" y="201" width="170" height="74" /><rect stroke="#9A8484" x="305" y="201" width="170" height="73" /><text transform="matrix(1 0 0 1 379 210)" fill="#595959" font-weight="bold" stroke="none"><tspan dx="0 " x="0" y="7">IPAData</tspan></text><rect fill="#D0D0D0" stroke="none" x="90" y="28" width="171" height="74" /><rect stroke="none" fill="#FDFAF7" x="87" y="25" width="170" height="73" /><rect stroke="#9A8484" x="87" y="25" width="170" height="74" /><rect stroke="#9A8484" x="87" y="25" width="170" height="73" /><text transform="matrix(1 0 0 1 157 31)" fill="#595959" stroke="none"><tspan dx="0 " x="0" y="7">«IPAData»</tspan></text><text transform="matrix(1 0 0 1 153 40)" fill="#595959" font-weight="bold" stroke="none"><tspan dx="0 " x="0" y="7">ClientRequest</tspan></text><rect fill="#D0D0D0" stroke="none" x="308" y="28" width="171" height="74" /><rect stroke="none" fill="#FDFAF7" x="305" y="25" width="170" height="73" /><rect stroke="#9A8484" x="305" y="25" width="170" height="74" /><rect stroke="#9A8484" x="305" y="25" width="170" height="73" /><text transform="matrix(1 0 0 1 375 31)" fill="#595959" stroke="none"><tspan dx="0 " x="0" y="7">«IPAData»</tspan></text><text transform="matrix(1 0 0 1 369 40)" fill="#595959" font-weight="bold" stroke="none"><tspan dx="0 " x="0" y="7">ClientResponse</tspan></text><rect fill="#D0D0D0" stroke="none" x="526" y="28" width="171" height="74" /><rect stroke="none" fill="#FDFAF7" x="523" y="25" width="170" height="73" /><rect stroke="#9A8484" x="523" y="25" width="170" height="74" /><rect stroke="#9A8484" x="523" y="25" width="170" height="73" /><text transform="matrix(1 0 0 1 593 31)" fill="#595959" stroke="none"><tspan dx="0 " x="0" y="7">«IPAData»</tspan></text><text transform="matrix(1 0 0 1 575 40)" fill="#595959" font-weight="bold" stroke="none"><tspan dx="0 " x="0" y="7">ExternalClientResponse</tspan></text><path stroke="#69738C" d="M562 99L435 201" /><path stroke="#69738C" fill="#FAF1EC" d="M444 186l7 10l-16 5l9 -15" /><path stroke="#69738C" d="M390 99V201" /><path stroke="#69738C" fill="#FAF1EC" d="M384 185h12l-6 16l-6 -16" /><path stroke="#69738C" d="M217 99L344 201" /><path stroke="#69738C" fill="#FAF1EC" d="M328 196l7 -10l9 15l-16 -5" /><path stroke="#69738C" stroke-dasharray="7,4" d="M305 238L188 238" /><path stroke="#69738C" d="M305 238l-15 5m15 -5l-15 -5" /><g transform="matrix(1 0 0 -1 238 240)"><rect fill="#FFFFFF" stroke="none" x="0" width="17" y="-9" height="9" /></g><text transform="matrix(1 0 0 1 238 240)" fill="#595959" stroke="none"><tspan dx="0 " x="0" y="7">«use»</tspan></text></g></g></g></g></svg>