<?xml version="1.0" encoding="utf-8"?><svg version="1.1" preserveAspectRatio="xMidYMid" xml:space="preserve" width="368.2835pt" height="129.61312999999998pt" viewBox="71.3565 58.281270000000006 368.2835 129.61312999999998" xmlns="http://www.w3.org/2000/svg" xmlns:xlink="http://www.w3.org/1999/xlink"><g transform="matrix(1 0 0 -1 0 790)"><g stroke="#000000" fill="none" fill-rule="evenodd" stroke-width="1" stroke-linecap="round" stroke-linejoin="round" stroke-miterlimit="3" letter-spacing="normal" font-weight="normal" font-style="normal" baseline-shift="0"><g transform="matrix(0.5 0 0 0.5 0 790.549988)"><g transform="matrix(1.483299 0 0 -1.485139 0 0)" font-family="CalibriUnicode" font-size="7"><rect fill="#D0D0D0" stroke="none" x="110" y="133" width="90" height="75" /><rect stroke="none" fill="#DDF4F5" x="107" y="130" width="89" height="74" /><rect stroke="#9A8484" x="107" y="130" width="89" height="75" /><rect stroke="#9A8484" x="107" y="130" width="89" height="74" /><text transform="matrix(1 0 0 1 124 136)" fill="#595959" stroke="none"><tspan dx="0 " x="0" y="7">«IPADataProcessor»</tspan></text><text transform="matrix(1 0 0 1 144 145)" fill="#595959" font-weight="bold" stroke="none"><tspan dx="0 " x="0" y="7">Client</tspan></text><path stroke="#595959" d="M144 153h15" /><rect fill="#D0D0D0" stroke="none" x="295" y="133" width="90" height="75" /><rect stroke="none" fill="#DDF4F5" x="292" y="130" width="89" height="74" /><rect stroke="#9A8484" x="292" y="130" width="89" height="75" /><rect stroke="#9A8484" x="292" y="130" width="89" height="74" /><text transform="matrix(1 0 0 1 309 136)" fill="#595959" stroke="none"><tspan dx="0 " x="0" y="7">«IPADataProcessor»</tspan></text><text transform="matrix(1 0 0 1 321 145)" fill="#595959" font-weight="bold" stroke="none"><tspan dx="0 " x="0" y="7">IPAService</tspan></text><path stroke="#595959" d="M321 153h31" /><rect fill="#D0D0D0" stroke="none" x="475" y="93" width="107" height="50" /><rect stroke="none" fill="#DDF4F5" x="472" y="90" width="106" height="49" /><rect stroke="#9A8484" x="472" y="90" width="106" height="50" /><rect stroke="#9A8484" x="472" y="90" width="106" height="49" /><text transform="matrix(1 0 0 1 497 96)" fill="#595959" stroke="none"><tspan dx="0 " x="0" y="7">«IPADataProcessor»</tspan></text><text transform="matrix(1 0 0 1 490 105)" fill="#595959" font-weight="bold" stroke="none"><tspan dx="0 " x="0" y="7">P</tspan><tspan dx="0 " x="3.5" y="7">r</tspan><tspan dx="0 " x="6" y="7">o</tspan><tspan dx="0 " x="9.5" y="7">v</tspan><tspan dx="0 " x="12.5" y="7">i</tspan><tspan dx="0 " x="14.25" y="7">d</tspan><tspan dx="0 " x="17.75" y="7">e</tspan><tspan dx="0 " x="21" y="7">r</tspan><tspan dx="0 " x="23.5" y="7">S</tspan><tspan dx="0 " x="26.5" y="7">e</tspan><tspan dx="0 " x="30" y="7">l</tspan><tspan dx="0 " x="31.75" y="7">e</tspan><tspan dx="0 " x="35.25" y="7">c</tspan><tspan dx="0 0 " x="38" y="7">ti</tspan><tspan dx="0 " x="42" y="7">o</tspan><tspan dx="0 " x="45.75" y="7">n</tspan><tspan dx="0 " x="49.5" y="7">S</tspan><tspan dx="0 " x="52.75" y="7">e</tspan><tspan dx="0 " x="56.25" y="7">r</tspan><tspan dx="0 " x="58.75" y="7">v</tspan><tspan dx="0 " x="62" y="7">i</tspan><tspan dx="0 " x="63.75" y="7">c</tspan><tspan dx="0 " x="66.5" y="7">e</tspan></text><path stroke="#595959" d="M490 113h70" /><rect fill="#D0D0D0" stroke="none" x="475" y="193" width="107" height="50" /><rect stroke="none" fill="#DDF4F5" x="472" y="190" width="106" height="49" /><rect stroke="#9A8484" x="472" y="190" width="106" height="50" /><rect stroke="#9A8484" x="472" y="190" width="106" height="49" /><text transform="matrix(1 0 0 1 497 196)" fill="#595959" stroke="none"><tspan dx="0 " x="0" y="7">«IPADataProcessor»</tspan></text><text transform="matrix(1 0 0 1 503 205)" fill="#595959" font-weight="bold" stroke="none"><tspan dx="0 " x="0" y="7">DialogManager</tspan></text><path stroke="#595959" d="M503 213h44" /><path stroke="#69738C" stroke-dasharray="7,4" d="M525 190L525 140" /><path stroke="#69738C" d="M525 190l-5 -15m5 15l5 -15" /><path stroke="#69738C" d="M472 129l-7 1m-4 2l-7 2m-4 1l-7 2m-4 1l-7 2m-4 1l-7 2m-4 1l-7 2m-4 1l-7 2m-4 1l-7 2m-4 1l-2 1" /><path stroke="#69738C" d="M472 129l-13 9m13 -9l-16 -1" /><path stroke="#69738C" stroke-dasharray="7,4" d="M292 154L197 154" /><path stroke="#69738C" d="M292 154l-15 5m15 -5l-15 -5" /><path stroke="#69738C" stroke-dasharray="7,4" d="M197 189L292 189" /><path stroke="#69738C" d="M197 189l15 -5m-15 5l15 5" /><path stroke="#69738C" d="M382 178l7 1m4 1l7 2m4 1l7 2m4 1l7 2m4 1l7 2m4 1l7 1m4 1l7 2m4 1l7 2m4 1l2 1" /><path stroke="#69738C" d="M382 178l16 -1m-16 1l13 9" /><g transform="matrix(1 0 0 -1 396 131)"><rect fill="#FFFFFF" stroke="none" x="0" width="30" y="-9" height="9" /></g><text transform="matrix(1 0 0 1 396 131)" fill="#595959" stroke="none"><tspan dx="0 " x="0" y="7">«IPAData»</tspan></text><g transform="matrix(1 0 0 -1 392 140)"><rect fill="#FFFFFF" stroke="none" x="0" width="37" y="-9" height="9" /></g><text transform="matrix(1 0 0 1 392 140)" fill="#595959" stroke="none"><tspan dx="0 " x="0" y="7">ClientRequest</tspan></text><g transform="matrix(1 0 0 -1 418 143)"><rect fill="#FFFFFF" stroke="none" x="0" width="19" y="-9" height="9" /></g><text transform="matrix(1 0 0 1 418 143)" fill="#595959" stroke="none"><tspan dx="0 " x="0" y="7">«</tspan><tspan dx="0 0 " x="3.25" y="7">fl</tspan><tspan dx="0 " x="7.25" y="7">o</tspan><tspan dx="0 " x="10.75" y="7">w</tspan><tspan dx="0 " x="15.5" y="7">»</tspan></text><g transform="matrix(1 0 0 -1 495 155)"><rect fill="#FFFFFF" stroke="none" x="0" width="30" y="-9" height="9" /></g><text transform="matrix(1 0 0 1 495 155)" fill="#595959" stroke="none"><tspan dx="0 " x="0" y="7">«IPAData»</tspan></text><g transform="matrix(1 0 0 -1 478 164)"><rect fill="#FFFFFF" stroke="none" x="0" width="64" y="-9" height="9" /></g><text transform="matrix(1 0 0 1 478 164)" fill="#595959" stroke="none"><tspan dx="0 " x="0" y="7">ExternalClientResponse</tspan></text><g transform="matrix(1 0 0 -1 516 167)"><rect fill="#FFFFFF" stroke="none" x="0" width="19" y="-9" height="9" /></g><text transform="matrix(1 0 0 1 516 167)" fill="#595959" stroke="none"><tspan dx="0 " x="0" y="7">«</tspan><tspan dx="0 0 " x="3.25" y="7">fl</tspan><tspan dx="0 " x="7.25" y="7">o</tspan><tspan dx="0 " x="10.75" y="7">w</tspan><tspan dx="0 " x="15.5" y="7">»</tspan></text><g transform="matrix(1 0 0 -1 397 179)"><rect fill="#FFFFFF" stroke="none" x="0" width="30" y="-9" height="9" /></g><text transform="matrix(1 0 0 1 397 179)" fill="#595959" stroke="none"><tspan dx="0 " x="0" y="7">«IPAData»</tspan></text><g transform="matrix(1 0 0 -1 391 188)"><rect fill="#FFFFFF" stroke="none" x="0" width="42" y="-9" height="9" /></g><text transform="matrix(1 0 0 1 391 188)" fill="#595959" stroke="none"><tspan dx="0 " x="0" y="7">ClientResponse</tspan></text><g transform="matrix(1 0 0 -1 418 191)"><rect fill="#FFFFFF" stroke="none" x="0" width="19" y="-9" height="9" /></g><text transform="matrix(1 0 0 1 418 191)" fill="#595959" stroke="none"><tspan dx="0 " x="0" y="7">«</tspan><tspan dx="0 0 " x="3.25" y="7">fl</tspan><tspan dx="0 " x="7.25" y="7">o</tspan><tspan dx="0 " x="10.75" y="7">w</tspan><tspan dx="0 " x="15.5" y="7">»</tspan></text><g transform="matrix(1 0 0 -1 219 144)"><rect fill="#FFFFFF" stroke="none" x="0" width="50" y="-9" height="9" /></g><text transform="matrix(1 0 0 1 219 144)" fill="#595959" stroke="none"><tspan dx="0 " x="0" y="7">M</tspan><tspan dx="0 " x="5.75" y="7">u</tspan><tspan dx="0 " x="9.25" y="7">l</tspan><tspan dx="0 0 " x="11" y="7">ti</tspan><tspan dx="0 " x="15" y="7">M</tspan><tspan dx="0 " x="20.75" y="7">o</tspan><tspan dx="0 " x="24.25" y="7">d</tspan><tspan dx="0 " x="27.75" y="7">a</tspan><tspan dx="0 " x="31" y="7">l</tspan><tspan dx="0 " x="32.75" y="7">I</tspan><tspan dx="0 " x="34.5" y="7">n</tspan><tspan dx="0 " x="38" y="7">p</tspan><tspan dx="0 " x="41.5" y="7">u</tspan><tspan dx="0 " x="45" y="7">t</tspan><tspan dx="0 " x="47.25" y="7">s</tspan></text><g transform="matrix(1 0 0 -1 235 156)"><rect fill="#FFFFFF" stroke="none" x="0" width="19" y="-9" height="9" /></g><text transform="matrix(1 0 0 1 235 156)" fill="#595959" stroke="none"><tspan dx="0 " x="0" y="7">«</tspan><tspan dx="0 0 " x="3.25" y="7">fl</tspan><tspan dx="0 " x="7.25" y="7">o</tspan><tspan dx="0 " x="10.75" y="7">w</tspan><tspan dx="0 " x="15.5" y="7">»</tspan></text><g transform="matrix(1 0 0 -1 214 179)"><rect fill="#FFFFFF" stroke="none" x="0" width="30" y="-9" height="9" /></g><text transform="matrix(1 0 0 1 214 179)" fill="#595959" stroke="none"><tspan dx="0 " x="0" y="7">«IPAData»</tspan></text><g transform="matrix(1 0 0 -1 208 188)"><rect fill="#FFFFFF" stroke="none" x="0" width="42" y="-9" height="9" /></g><text transform="matrix(1 0 0 1 208 188)" fill="#595959" stroke="none"><tspan dx="0 " x="0" y="7">ClientResponse</tspan></text><g transform="matrix(1 0 0 -1 235 191)"><rect fill="#FFFFFF" stroke="none" x="0" width="19" y="-9" height="9" /></g><text transform="matrix(1 0 0 1 235 191)" fill="#595959" stroke="none"><tspan dx="0 " x="0" y="7">«</tspan><tspan dx="0 0 " x="3.25" y="7">fl</tspan><tspan dx="0 " x="7.25" y="7">o</tspan><tspan dx="0 " x="10.75" y="7">w</tspan><tspan dx="0 " x="15.5" y="7">»</tspan></text></g></g></g></g></svg>