<?xml version="1.0" encoding="utf-8"?><svg version="1.1" preserveAspectRatio="xMidYMid" xml:space="preserve" width="402.89087pt" height="151.51814000000002pt" viewBox="11.159130000000001 11.25176 402.89087 151.51814000000002" xmlns="http://www.w3.org/2000/svg" xmlns:xlink="http://www.w3.org/1999/xlink"><g transform="matrix(1 0 0 -1 0 790)"><g stroke="#000000" fill="none" fill-rule="evenodd" stroke-width="1" stroke-linecap="round" stroke-linejoin="round" stroke-miterlimit="3" letter-spacing="normal" font-weight="normal" font-style="normal" baseline-shift="0"><g transform="matrix(0.5 0 0 0.5 0 790.549988)"><g transform="matrix(1.236073 0 0 -1.237609 0 0)" font-family="CalibriUnicode" font-size="7"><rect fill="#D0D0D0" stroke="none" x="34" y="184" width="153" height="67" /><rect stroke="none" fill="#FDFAF7" x="31" y="181" width="152" height="66" /><rect stroke="#9A8484" x="31" y="181" width="152" height="67" /><rect stroke="#9A8484" x="31" y="181" width="152" height="66" /><text transform="matrix(1 0 0 1 82 190)" fill="#595959" font-weight="bold" stroke="none"><tspan dx="0 " x="0" y="6">IPADataProcessor</tspan></text><rect fill="#D0D0D0" stroke="none" x="271" y="184" width="153" height="67" /><rect stroke="none" fill="#FDFAF7" x="268" y="181" width="152" height="66" /><rect stroke="#9A8484" x="268" y="181" width="152" height="67" /><rect stroke="#9A8484" x="268" y="181" width="152" height="66" /><text transform="matrix(1 0 0 1 333 190)" fill="#595959" font-weight="bold" stroke="none"><tspan dx="0 " x="0" y="6">IPAData</tspan></text><rect fill="#D0D0D0" stroke="none" x="34" y="35" width="153" height="67" /><rect stroke="none" fill="#FDFAF7" x="31" y="32" width="152" height="66" /><rect stroke="#9A8484" x="31" y="32" width="152" height="67" /><rect stroke="#9A8484" x="31" y="32" width="152" height="66" /><text transform="matrix(1 0 0 1 91 41)" fill="#595959" font-weight="bold" stroke="none"><tspan dx="0 " x="0" y="6">IPARequest</tspan></text><rect fill="#D0D0D0" stroke="none" x="271" y="35" width="153" height="67" /><rect stroke="none" fill="#FDFAF7" x="268" y="32" width="152" height="66" /><rect stroke="#9A8484" x="268" y="32" width="152" height="67" /><rect stroke="#9A8484" x="268" y="32" width="152" height="66" /><text transform="matrix(1 0 0 1 326 41)" fill="#595959" font-weight="bold" stroke="none"><tspan dx="0 " x="0" y="6">IPAResponse</tspan></text><rect fill="#D0D0D0" stroke="none" x="504" y="35" width="153" height="67" /><rect stroke="none" fill="#FDFAF7" x="501" y="32" width="152" height="66" /><rect stroke="#9A8484" x="501" y="32" width="152" height="67" /><rect stroke="#9A8484" x="501" y="32" width="152" height="66" /><text transform="matrix(1 0 0 1 547 41)" fill="#595959" font-weight="bold" stroke="none"><tspan dx="0 " x="0" y="6">ExternalIPAResponse</tspan></text><path stroke="#69738C" stroke-dasharray="7,4" d="M268 214L184 214" /><path stroke="#69738C" d="M268 214l-15 5m15 -5l-15 -5" /><path stroke="#69738C" d="M344 99v82" /><path stroke="#69738C" fill="#FAF1EC" d="M338 165h12l-6 16l-6 -16" /><path stroke="#69738C" d="M161 99l130 82" /><path stroke="#69738C" fill="#FAF1EC" d="M274 178l7 -11l10 14l-17 -3" /><path stroke="#69738C" d="M523 99L395 181" /><path stroke="#69738C" fill="#FAF1EC" d="M405 167l7 10l-17 4l10 -14" /><g transform="matrix(1 0 0 -1 218 216)"><rect fill="#FFFFFF" stroke="none" x="0" width="17" y="-8" height="8" /></g><text transform="matrix(1 0 0 1 218 216)" fill="#595959" stroke="none"><tspan dx="0 " x="0" y="6">«use»</tspan></text></g></g></g></g></svg>