<?xml version="1.0" encoding="utf-8"?><svg version="1.1" preserveAspectRatio="xMidYMid" xml:space="preserve" width="355.48375999999996pt" height="295.87514pt" viewBox="86.13634 81.91966 355.48375999999996 295.87514" xmlns="http://www.w3.org/2000/svg" xmlns:xlink="http://www.w3.org/1999/xlink"><g transform="matrix(1 0 0 -1 0 841)"><g stroke="#000000" fill="none" fill-rule="evenodd" stroke-width="1" stroke-linecap="round" stroke-linejoin="round" stroke-miterlimit="3" letter-spacing="normal" font-weight="normal" font-style="normal" baseline-shift="0"><g transform="matrix(0.5 0 0 0.5 0 841.650024)"><g transform="matrix(1.482462 0 0 -1.484749 0 0)" font-family="CalibriUnicode" font-size="7"><rect stroke="#9A8484" x="228" y="122" width="200" height="377" /><text transform="matrix(1 0 0 1 323 126)" fill="#595959" stroke="none"><tspan dx="0 " x="0" y="7">IPA</tspan></text><path fill="#D0D0D0" stroke="none" d="M133 298C133 291.92 137.92 287 144 287C150.08 287 155 291.92 155 298C155 304.08 150.08 309 144 309C137.92 309 133 304.08 133 298" /><path stroke="none" fill="#FEF2DD" d="M132 295.5C132 289.7 136.7 285 142.5 285C148.3 285 153 289.7 153 295.5C153 301.3 148.3 306 142.5 306C136.7 306 132 301.3 132 295.5" /><path stroke="#9A8484" d="M132 295.5C132 289.7 136.7 285 142.5 285C148.3 285 153 289.7 153 295.5C153 301.3 148.3 306 142.5 306C136.7 306 132 301.3 132 295.5M132 295.5C132 289.7 136.7 285 142.5 285C148.3 285 153 289.7 153 295.5C153 301.3 148.3 306 142.5 306C136.7 306 132 301.3 132 295.5M143 307v23M127 312h16m16 0H143m0 18l13 23" /><path stroke="#9A8484" d="M143 330l-13 23" /><text transform="matrix(1 0 0 1 131 353)" fill="#595959" font-weight="bold" stroke="none"><tspan dx="0 " x="0" y="7">IPA User</tspan></text><path fill="#D0D0D0" stroke="none" d="M270 195.5C270 176.45 293.28 161 322 161C350.72 161 374 176.45 374 195.5C374 214.55 350.72 230 322 230C293.28 230 270 214.55 270 195.5" /><path stroke="none" fill="#E5F2FE" d="M268 193.5C268 174.45 291.28 159 320 159C348.72 159 372 174.45 372 193.5C372 212.55 348.72 228 320 228C291.28 228 268 212.55 268 193.5" /><path stroke="#9A8484" d="M268 193.5C268 174.45 291.28 159 320 159C348.72 159 372 174.45 372 193.5C372 212.55 348.72 228 320 228C291.28 228 268 212.55 268 193.5M268 193.5C268 174.45 291.28 159 320 159C348.72 159 372 174.45 372 193.5C372 212.55 348.72 228 320 228C291.28 228 268 212.55 268 193.5" /><text transform="matrix(1 0 0 1 288 185)" fill="#595959" font-weight="bold" stroke="none"><tspan dx="0 " x="0" y="7">Q</tspan><tspan dx="0 " x="4.5" y="7">u</tspan><tspan dx="0 " x="8" y="7">e</tspan><tspan dx="0 " x="11.25" y="7">s</tspan><tspan dx="0 0 " x="14" y="7">ti</tspan><tspan dx="0 " x="18" y="7">o</tspan><tspan dx="0 " x="21.5" y="7">n</tspan><tspan dx="0 " x="25" y="7"> </tspan><tspan dx="0 " x="26.25" y="7">A</tspan><tspan dx="0 " x="30.25" y="7">n</tspan><tspan dx="0 " x="33.75" y="7">s</tspan><tspan dx="0 " x="36.5" y="7">w</tspan><tspan dx="0 " x="41.5" y="7">e</tspan><tspan dx="0 " x="45" y="7">r</tspan><tspan dx="0 " x="47.5" y="7">i</tspan><tspan dx="0 " x="49.25" y="7">n</tspan><tspan dx="0 " x="53" y="7">g</tspan><tspan dx="0 " x="56.25" y="7"> </tspan><tspan dx="0 " x="57.75" y="7">o</tspan><tspan dx="0 " x="61.5" y="7">r</tspan></text><text transform="matrix(1 0 0 1 290 194)" fill="#595959" font-weight="bold" stroke="none"><tspan dx="0 " x="0" y="7">I</tspan><tspan dx="0 " x="1.75" y="7">n</tspan><tspan dx="0 " x="5.25" y="7">f</tspan><tspan dx="0 " x="7.5" y="7">o</tspan><tspan dx="0 " x="11" y="7">r</tspan><tspan dx="0 " x="13.5" y="7">m</tspan><tspan dx="0 " x="19" y="7">a</tspan><tspan dx="0 0 " x="22" y="7">ti</tspan><tspan dx="0 " x="26" y="7">o</tspan><tspan dx="0 " x="29.5" y="7">n</tspan><tspan dx="0 " x="33" y="7"> </tspan><tspan dx="0 " x="34.25" y="7">R</tspan><tspan dx="0 " x="38.25" y="7">e</tspan><tspan dx="0 " x="41.75" y="7">t</tspan><tspan dx="0 " x="44" y="7">r</tspan><tspan dx="0 " x="46.5" y="7">i</tspan><tspan dx="0 " x="48.25" y="7">e</tspan><tspan dx="0 " x="51.75" y="7">v</tspan><tspan dx="0 " x="55" y="7">a</tspan><tspan dx="0 " x="58.25" y="7">l</tspan></text><path fill="#D0D0D0" stroke="none" d="M270 322.5C270 303.45 293.28 288 322 288C350.72 288 374 303.45 374 322.5C374 341.55 350.72 357 322 357C293.28 357 270 341.55 270 322.5" /><path stroke="none" fill="#E5F2FE" d="M268 320.5C268 301.45 291.28 286 320 286C348.72 286 372 301.45 372 320.5C372 339.55 348.72 355 320 355C291.28 355 268 339.55 268 320.5" /><path stroke="#9A8484" d="M268 320.5C268 301.45 291.28 286 320 286C348.72 286 372 301.45 372 320.5C372 339.55 348.72 355 320 355C291.28 355 268 339.55 268 320.5M268 320.5C268 301.45 291.28 286 320 286C348.72 286 372 301.45 372 320.5C372 339.55 348.72 355 320 355C291.28 355 268 339.55 268 320.5" /><text transform="matrix(1 0 0 1 290 316)" fill="#595959" font-weight="bold" stroke="none"><tspan dx="0 " x="0" y="7">Execute Local Service</tspan></text><rect fill="#D0D0D0" stroke="none" x="489" y="150" width="96" height="94" /><rect stroke="none" fill="#FEF2DD" x="486" y="147" width="95" height="93" /><rect stroke="#9A8484" x="486" y="147" width="95" height="94" /><rect stroke="#9A8484" x="486" y="147" width="95" height="93" /><text transform="matrix(1 0 0 1 523 153)" fill="#595959" stroke="none"><tspan dx="0 " x="0" y="7">«actor»</tspan></text><text transform="matrix(1 0 0 1 514 162)" fill="#595959" font-weight="bold" stroke="none"><tspan dx="0 " x="0" y="7">Data Provider</tspan></text><path fill="#D0D0D0" stroke="none" d="M266 449.5C266 430.45 289.28 415 318 415C346.72 415 370 430.45 370 449.5C370 468.55 346.72 484 318 484C289.28 484 266 468.55 266 449.5" /><path stroke="none" fill="#E5F2FE" d="M264 447.5C264 428.45 287.28 413 316 413C344.72 413 368 428.45 368 447.5C368 466.55 344.72 482 316 482C287.28 482 264 466.55 264 447.5" /><path stroke="#9A8484" d="M264 447.5C264 428.45 287.28 413 316 413C344.72 413 368 428.45 368 447.5C368 466.55 344.72 482 316 482C287.28 482 264 466.55 264 447.5M264 447.5C264 428.45 287.28 413 316 413C344.72 413 368 428.45 368 447.5C368 466.55 344.72 482 316 482C287.28 482 264 466.55 264 447.5" /><text transform="matrix(1 0 0 1 282 443)" fill="#595959" font-weight="bold" stroke="none"><tspan dx="0 " x="0" y="7">Execute Remote Service</tspan></text><rect fill="#D0D0D0" stroke="none" x="489" y="277" width="96" height="94" /><rect stroke="none" fill="#FEF2DD" x="486" y="274" width="95" height="93" /><rect stroke="#9A8484" x="486" y="274" width="95" height="94" /><rect stroke="#9A8484" x="486" y="274" width="95" height="93" /><text transform="matrix(1 0 0 1 523 280)" fill="#595959" stroke="none"><tspan dx="0 " x="0" y="7">«actor»</tspan></text><text transform="matrix(1 0 0 1 516 289)" fill="#595959" font-weight="bold" stroke="none"><tspan dx="0 " x="0" y="7">Local Service</tspan></text><rect fill="#D0D0D0" stroke="none" x="489" y="404" width="96" height="94" /><rect stroke="none" fill="#FEF2DD" x="486" y="401" width="95" height="93" /><rect stroke="#9A8484" x="486" y="401" width="95" height="94" /><rect stroke="#9A8484" x="486" y="401" width="95" height="93" /><text transform="matrix(1 0 0 1 523 407)" fill="#595959" stroke="none"><tspan dx="0 " x="0" y="7">«actor»</tspan></text><text transform="matrix(1 0 0 1 512 416)" fill="#595959" font-weight="bold" stroke="none"><tspan dx="0 " x="0" y="7">Remote Service</tspan></text><path stroke="#69738C" d="M369 448H486" /><path stroke="#69738C" d="M373 321H486" /><path stroke="#69738C" d="M486 194H373" /><path stroke="#69738C" d="M164 342l101 71" /><path stroke="#69738C" d="M164 312L273 229" /><path stroke="#69738C" d="M164 323l104 -9" /></g></g></g></g></svg>