<?xml version="1.0" encoding="utf-8"?><svg version="1.1" preserveAspectRatio="xMidYMid" xml:space="preserve" width="355.92005pt" height="392.23316pt" viewBox="35.26255 22.39024 355.92005 392.23316" xmlns="http://www.w3.org/2000/svg" xmlns:xlink="http://www.w3.org/1999/xlink"><g transform="matrix(1 0 0 -1 0 790)"><g stroke="#000000" fill="none" fill-rule="evenodd" stroke-width="1" stroke-linecap="round" stroke-linejoin="round" stroke-miterlimit="3" letter-spacing="normal" font-weight="normal" font-style="normal" baseline-shift="0"><g transform="matrix(0.5 0 0 0.5 0 790.549988)"><g transform="matrix(1.236073 0 0 -1.237609 0 0)" font-family="CalibriUnicode" font-size="7"><path fill="#D0D0D0" stroke="none" d="M73 56.5C73 54.01 75.01 52 77.5 52C79.99 52 82 54.01 82 56.5C82 58.99 79.99 61 77.5 61C75.01 61 73 58.99 73 56.5" /><path stroke="none" fill="#FEF2DD" d="M71 54.5C71 52.01 73.01 50 75.5 50C77.99 50 80 52.01 80 54.5C80 56.99 77.99 59 75.5 59C73.01 59 71 56.99 71 54.5" /><path stroke="#9A8484" d="M71 54.5C71 52.01 73.01 50 75.5 50C77.99 50 80 52.01 80 54.5C80 56.99 77.99 59 75.5 59C73.01 59 71 56.99 71 54.5M76 60V70M71 65H81M71 80L76 70m5 10L76 70" /><text transform="matrix(1 0 0 1 70 85)" fill="#595959" stroke="none"><tspan dx="0 " x="0" y="6">User</tspan></text><path stroke="#9A8484" stroke-dasharray="7,4" d="M76 94L76 658" /><rect stroke="none" fill="#FEF2DD" x="71" y="135" width="9" height="496" /><rect stroke="#9A8484" x="71" y="135" width="9" height="497" /><rect fill="#D0D0D0" stroke="none" x="154" y="53" width="90" height="50" /><rect stroke="none" fill="#F9EAEA" x="151" y="50" width="89" height="49" /><rect stroke="#9A8484" x="151" y="50" width="89" height="50" /><rect stroke="#9A8484" x="151" y="50" width="89" height="49" /><text transform="matrix(1 0 0 1 188 53)" fill="#595959" stroke="none"><tspan dx="0 " x="0" y="6">Client</tspan></text><path stroke="#9A8484" stroke-dasharray="7,4" d="M196 100L196 657" /><rect stroke="none" fill="#F9EAEA" x="191" y="135" width="9" height="496" /><rect stroke="#9A8484" x="191" y="135" width="9" height="497" /><rect fill="#D0D0D0" stroke="none" x="301" y="53" width="114" height="50" /><rect stroke="none" fill="#F9EAEA" x="298" y="50" width="113" height="49" /><rect stroke="#9A8484" x="298" y="50" width="113" height="50" /><rect stroke="#9A8484" x="298" y="50" width="113" height="49" /><text transform="matrix(1 0 0 1 346 53)" fill="#595959" stroke="none"><tspan dx="0 " x="0" y="6">Dialog</tspan></text><path stroke="#9A8484" stroke-dasharray="7,4" d="M355 100L355 657" /><rect stroke="none" fill="#F9EAEA" x="350" y="160" width="9" height="436" /><rect stroke="#9A8484" x="350" y="160" width="9" height="437" /><rect stroke="none" fill="#F9EAEA" x="355" y="364" width="9" height="10" /><rect stroke="#9A8484" x="355" y="364" width="9" height="11" /><rect stroke="none" fill="#F9EAEA" x="355" y="414" width="9" height="10" /><rect stroke="#9A8484" x="355" y="414" width="9" height="11" /><rect fill="#D0D0D0" stroke="none" x="456" y="53" width="90" height="50" /><rect stroke="none" fill="#F9EAEA" x="453" y="50" width="89" height="49" /><rect stroke="#9A8484" x="453" y="50" width="89" height="50" /><rect stroke="#9A8484" x="453" y="50" width="89" height="49" /><text transform="matrix(1 0 0 1 457 53)" fill="#595959" stroke="none"><tspan dx="0 " x="0" y="6">External Data / Services / IPA</tspan></text><text transform="matrix(1 0 0 1 485 62)" fill="#595959" stroke="none"><tspan dx="0 " x="0" y="6">Providers</tspan></text><path stroke="#9A8484" stroke-dasharray="7,4" d="M498 100L498 657" /><rect stroke="none" fill="#F9EAEA" x="493" y="245" width="9" height="49" /><rect stroke="#9A8484" x="493" y="245" width="9" height="50" /><rect stroke="none" fill="#F9EAEA" x="493" y="483" width="9" height="49" /><rect stroke="#9A8484" x="493" y="483" width="9" height="50" /><path stroke="#A3A3A3" stroke-width="2" d="M307 548H605m0 0V449" /><path stroke="#9A8484" d="M304 446V547m0 0H604m0 0V446m0 0H304" /><path stroke="#9A8484" fill="#F1FAED" d="M304 446v16h52l13 -14v-2H304" /><path stroke="#9A8484" d="M304 446v16h52l13 -14v-2H304 Z" /><text transform="matrix(1 0 0 1 309 449)" fill="#595959" font-weight="bold" stroke="none"><tspan dx="0 " x="0" y="6">opt service call</tspan></text><path stroke="#A3A3A3" stroke-width="2" d="M304 315H608m0 0V198" /><path stroke="#9A8484" d="M301 195V314m0 0H607m0 0V195m0 0H301" /><path stroke="#9A8484" fill="#F1FAED" d="M301 195v16h58l13 -14v-2H301" /><path stroke="#9A8484" d="M301 195v16h58l13 -14v-2H301 Z" /><text transform="matrix(1 0 0 1 306 198)" fill="#595959" font-weight="bold" stroke="none"><tspan dx="0 " x="0" y="6">opt external IPAs</tspan></text><path stroke="#A3A3A3" stroke-width="2" d="M251 385H620m0 0V191" /><path stroke="#9A8484" d="M248 188V384m0 0H619m0 0V188m0 0H248" /><path stroke="#9A8484" fill="#F1FAED" d="M248 188v16h18l13 -14v-2H248" /><path stroke="#9A8484" d="M248 188v16h18l13 -14v-2H248 Z" /><text transform="matrix(1 0 0 1 253 191)" fill="#595959" font-weight="bold" stroke="none"><tspan dx="0 " x="0" y="6">par </tspan></text><path stroke="#9A8484" stroke-dasharray="3,4" d="M248 322L615 322" /><text transform="matrix(1 0 0 1 253 207)" fill="#595959" stroke="none"><tspan dx="0 " x="0" y="6">[remote]</tspan></text><text transform="matrix(1 0 0 1 253 327)" fill="#595959" stroke="none"><tspan dx="0 " x="0" y="6">[local]</tspan></text><path stroke="#69738C" d="M81 135H191" /><path stroke="#69738C" fill="#69738C" d="M179 131v4v4l12 -4l-12 -4" /><path stroke="#69738C" d="M201 160H350" /><path stroke="#69738C" fill="#69738C" d="M338 156v4v4l12 -4l-12 -4" /><path stroke="#69738C" d="M360 245H493m0 0l-12 -4m12 4l-12 4" /><path stroke="#69738C" stroke-dasharray="7,4" d="M493 280L360 280" /><path stroke="#69738C" d="M360 280l12 -4m-12 4l12 4" /><path stroke="#69738C" d="M360 349h40m0 0v15m0 0H365" /><path stroke="#69738C" fill="#69738C" d="M377 360v4v4l-12 -4l12 -4" /><path stroke="#69738C" d="M360 399h40m0 0v15m0 0H365" /><path stroke="#69738C" fill="#69738C" d="M377 410v4v4l-12 -4l12 -4" /><path stroke="#69738C" d="M360 483H493" /><path stroke="#69738C" fill="#69738C" d="M481 479v4v4l12 -4l-12 -4" /><path stroke="#69738C" stroke-dasharray="7,4" d="M493 518L360 518" /><path stroke="#69738C" d="M360 518l12 -4m-12 4l12 4" /><path stroke="#69738C" stroke-dasharray="7,4" d="M350 582L201 582" /><path stroke="#69738C" d="M201 582l12 -4m-12 4l12 4" /><path stroke="#69738C" stroke-dasharray="7,4" d="M191 617L85 617" /><path stroke="#69738C" d="M81 617l12 -4m-12 4l12 4" /><g transform="matrix(1 0 0 -1 406 405)"><rect fill="#FFFFFF" stroke="none" x="0" width="57" y="-8" height="8" /></g><text transform="matrix(1 0 0 1 406 405)" fill="#595959" stroke="none"><tspan dx="0 " x="0" y="6">processDialogInput()</tspan></text><g transform="matrix(1 0 0 -1 392 508)"><rect fill="#FFFFFF" stroke="none" x="0" width="69" y="-8" height="8" /></g><text transform="matrix(1 0 0 1 392 508)" fill="#595959" stroke="none"><tspan dx="0 " x="0" y="6">deliverServiceCallResult()</tspan></text><g transform="matrix(1 0 0 -1 405 355)"><rect fill="#FFFFFF" stroke="none" x="0" width="85" y="-8" height="8" /></g><text transform="matrix(1 0 0 1 405 355)" fill="#595959" stroke="none"><tspan dx="0 " x="0" y="6">d</tspan><tspan dx="0 " x="3.25" y="6">e</tspan><tspan dx="0 " x="6.25" y="6">r</tspan><tspan dx="0 " x="8.5" y="6">i</tspan><tspan dx="0 " x="9.75" y="6">v</tspan><tspan dx="0 " x="12.75" y="6">e</tspan><tspan dx="0 " x="16" y="6">S</tspan><tspan dx="0 " x="19" y="6">e</tspan><tspan dx="0 " x="22.25" y="6">m</tspan><tspan dx="0 " x="27.75" y="6">a</tspan><tspan dx="0 " x="31" y="6">n</tspan><tspan dx="0 0 " x="34.5" y="6">ti</tspan><tspan dx="0 " x="38.5" y="6">c</tspan><tspan dx="0 " x="41.5" y="6">I</tspan><tspan dx="0 " x="43.25" y="6">n</tspan><tspan dx="0 " x="46.75" y="6">t</tspan><tspan dx="0 " x="49.25" y="6">e</tspan><tspan dx="0 " x="52.5" y="6">r</tspan><tspan dx="0 " x="55" y="6">p</tspan><tspan dx="0 " x="58.5" y="6">r</tspan><tspan dx="0 " x="61" y="6">e</tspan><tspan dx="0 " x="64.25" y="6">t</tspan><tspan dx="0 " x="66.75" y="6">a</tspan><tspan dx="0 0 " x="70" y="6">ti</tspan><tspan dx="0 " x="74" y="6">o</tspan><tspan dx="0 " x="77.5" y="6">n</tspan><tspan dx="0 " x="81" y="6">(</tspan><tspan dx="0 " x="83" y="6">)</tspan></text><g transform="matrix(1 0 0 -1 383 270)"><rect fill="#FFFFFF" stroke="none" x="0" width="87" y="-8" height="8" /></g><text transform="matrix(1 0 0 1 383 270)" fill="#595959" stroke="none"><tspan dx="0 " x="0" y="6">d</tspan><tspan dx="0 " x="3.25" y="6">e</tspan><tspan dx="0 " x="6.5" y="6">l</tspan><tspan dx="0 " x="8" y="6">i</tspan><tspan dx="0 " x="9.5" y="6">v</tspan><tspan dx="0 " x="12.5" y="6">e</tspan><tspan dx="0 " x="15.75" y="6">r</tspan><tspan dx="0 " x="18.25" y="6">S</tspan><tspan dx="0 " x="21.25" y="6">e</tspan><tspan dx="0 " x="24.5" y="6">m</tspan><tspan dx="0 " x="30" y="6">a</tspan><tspan dx="0 " x="33.25" y="6">n</tspan><tspan dx="0 0 " x="36.75" y="6">ti</tspan><tspan dx="0 " x="40.75" y="6">c</tspan><tspan dx="0 " x="43.5" y="6">I</tspan><tspan dx="0 " x="45.25" y="6">n</tspan><tspan dx="0 " x="48.75" y="6">t</tspan><tspan dx="0 " x="51.25" y="6">e</tspan><tspan dx="0 " x="54.5" y="6">r</tspan><tspan dx="0 " x="57" y="6">p</tspan><tspan dx="0 " x="60.5" y="6">r</tspan><tspan dx="0 " x="63" y="6">e</tspan><tspan dx="0 " x="66.25" y="6">t</tspan><tspan dx="0 " x="68.75" y="6">a</tspan><tspan dx="0 0 " x="72" y="6">ti</tspan><tspan dx="0 " x="76" y="6">o</tspan><tspan dx="0 " x="79.5" y="6">n</tspan><tspan dx="0 " x="83" y="6">(</tspan><tspan dx="0 " x="85" y="6">)</tspan></text><g transform="matrix(1 0 0 -1 255 150)"><rect fill="#FFFFFF" stroke="none" x="0" width="40" y="-8" height="8" /></g><text transform="matrix(1 0 0 1 255 150)" fill="#595959" stroke="none"><tspan dx="0 " x="0" y="6">processInput()</tspan></text><g transform="matrix(1 0 0 -1 120 607)"><rect fill="#FFFFFF" stroke="none" x="0" width="32" y="-8" height="8" /></g><text transform="matrix(1 0 0 1 120 607)" fill="#595959" stroke="none"><tspan dx="0 " x="0" y="6">playAudio()</tspan></text><g transform="matrix(1 0 0 -1 410 473)"><rect fill="#FFFFFF" stroke="none" x="0" width="33" y="-8" height="8" /></g><text transform="matrix(1 0 0 1 410 473)" fill="#595959" stroke="none"><tspan dx="0 " x="0" y="6">callService()</tspan></text><g transform="matrix(1 0 0 -1 406 235)"><rect fill="#FFFFFF" stroke="none" x="0" width="40" y="-8" height="8" /></g><text transform="matrix(1 0 0 1 406 235)" fill="#595959" stroke="none"><tspan dx="0 " x="0" y="6">processInput()</tspan></text><g transform="matrix(1 0 0 -1 126 125)"><rect fill="#FFFFFF" stroke="none" x="0" width="21" y="-8" height="8" /></g><text transform="matrix(1 0 0 1 126 125)" fill="#595959" stroke="none"><tspan dx="0 " x="0" y="6">speak()</tspan></text><g transform="matrix(1 0 0 -1 251 572)"><rect fill="#FFFFFF" stroke="none" x="0" width="49" y="-8" height="8" /></g><text transform="matrix(1 0 0 1 251 572)" fill="#595959" stroke="none"><tspan dx="0 " x="0" y="6">deliverResponse()</tspan></text></g></g></g></g></svg>