<?xml version="1.0" encoding="utf-8"?><svg version="1.1" preserveAspectRatio="xMidYMid" xml:space="preserve" width="378.35043pt" height="554.77194pt" viewBox="36.63737 24.30196 378.35043 554.77194" xmlns="http://www.w3.org/2000/svg" xmlns:xlink="http://www.w3.org/1999/xlink"><g transform="matrix(1 0 0 -1 0 790)"><g stroke="#000000" fill="none" fill-rule="evenodd" stroke-width="1" stroke-linecap="round" stroke-linejoin="round" stroke-miterlimit="3" letter-spacing="normal" font-weight="normal" font-style="normal" baseline-shift="0"><g transform="matrix(0.6 0 0 0.6 0 790.549988)"><g transform="matrix(1.094053 0 0 -1.095065 0 0)" font-family="CalibriUnicode" font-size="8"><path fill="#D0D0D0" stroke="none" d="M73 56.5C73 54.01 75.01 52 77.5 52C79.99 52 82 54.01 82 56.5C82 58.99 79.99 61 77.5 61C75.01 61 73 58.99 73 56.5" /><path stroke="none" fill="#FEF2DD" d="M71 54.5C71 52.01 73.01 50 75.5 50C77.99 50 80 52.01 80 54.5C80 56.99 77.99 59 75.5 59C73.01 59 71 56.99 71 54.5" /><path stroke="#9A8484" d="M71 54.5C71 52.01 73.01 50 75.5 50C77.99 50 80 52.01 80 54.5C80 56.99 77.99 59 75.5 59C73.01 59 71 56.99 71 54.5M76 60V70M71 65H81M71 80L76 70m5 10L76 70" /><text transform="matrix(1 0 0 1 68 85)" fill="#595959" stroke="none"><tspan dx="0 " x="0" y="7">User</tspan></text><path stroke="#9A8484" stroke-dasharray="7,4" d="M76 95L76 870" /><rect stroke="none" fill="#FEF2DD" x="71" y="135" width="9" height="496" /><rect stroke="#9A8484" x="71" y="135" width="9" height="497" /><rect fill="#D0D0D0" stroke="none" x="154" y="53" width="90" height="50" /><rect stroke="none" fill="#F9EAEA" x="151" y="50" width="89" height="49" /><rect stroke="#9A8484" x="151" y="50" width="89" height="50" /><rect stroke="#9A8484" x="151" y="50" width="89" height="49" /><text transform="matrix(1 0 0 1 187 53)" fill="#595959" stroke="none"><tspan dx="0 " x="0" y="7">Client</tspan></text><path stroke="#9A8484" stroke-dasharray="7,4" d="M196 100L196 866" /><rect stroke="none" fill="#F9EAEA" x="191" y="135" width="9" height="496" /><rect stroke="#9A8484" x="191" y="135" width="9" height="497" /><rect fill="#D0D0D0" stroke="none" x="301" y="53" width="114" height="50" /><rect stroke="none" fill="#F9EAEA" x="298" y="50" width="113" height="49" /><rect stroke="#9A8484" x="298" y="50" width="113" height="50" /><rect stroke="#9A8484" x="298" y="50" width="113" height="49" /><text transform="matrix(1 0 0 1 344 53)" fill="#595959" stroke="none"><tspan dx="0 " x="0" y="7">Dialog</tspan></text><path stroke="#9A8484" stroke-dasharray="7,4" d="M355 100L355 866" /><rect stroke="none" fill="#F9EAEA" x="350" y="160" width="9" height="436" /><rect stroke="#9A8484" x="350" y="160" width="9" height="437" /><rect stroke="none" fill="#F9EAEA" x="355" y="364" width="9" height="10" /><rect stroke="#9A8484" x="355" y="364" width="9" height="11" /><rect stroke="none" fill="#F9EAEA" x="355" y="414" width="9" height="10" /><rect stroke="#9A8484" x="355" y="414" width="9" height="11" /><rect fill="#D0D0D0" stroke="none" x="456" y="53" width="90" height="50" /><rect stroke="none" fill="#F9EAEA" x="453" y="50" width="89" height="49" /><rect stroke="#9A8484" x="453" y="50" width="89" height="50" /><rect stroke="#9A8484" x="453" y="50" width="89" height="49" /><text transform="matrix(1 0 0 1 456 53)" fill="#595959" stroke="none"><tspan dx="0 " x="0" y="7">External Data / Services /</tspan></text><text transform="matrix(1 0 0 1 476 63)" fill="#595959" stroke="none"><tspan dx="0 " x="0" y="7">IPA Providers</tspan></text><path stroke="#9A8484" stroke-dasharray="7,4" d="M498 100L498 866" /><rect stroke="none" fill="#F9EAEA" x="493" y="245" width="9" height="49" /><rect stroke="#9A8484" x="493" y="245" width="9" height="50" /><rect stroke="none" fill="#F9EAEA" x="493" y="483" width="9" height="49" /><rect stroke="#9A8484" x="493" y="483" width="9" height="50" /><path stroke="#A3A3A3" stroke-width="2" d="M307 548H605m0 0V449" /><path stroke="#9A8484" d="M304 446V547m0 0H604m0 0V446m0 0H304" /><path stroke="#9A8484" fill="#F1FAED" d="M304 446v17h56l13 -14v-3H304" /><path stroke="#9A8484" d="M304 446v17h56l13 -14v-3H304 Z" /><text transform="matrix(1 0 0 1 309 449)" fill="#595959" font-weight="bold" stroke="none"><tspan dx="0 " x="0" y="7">opt service call</tspan></text><path stroke="#A3A3A3" stroke-width="2" d="M304 315H608m0 0V198" /><path stroke="#9A8484" d="M301 195V314m0 0H607m0 0V195m0 0H301" /><path stroke="#9A8484" fill="#F1FAED" d="M301 195v17h64l13 -14v-3H301" /><path stroke="#9A8484" d="M301 195v17h64l13 -14v-3H301 Z" /><text transform="matrix(1 0 0 1 306 198)" fill="#595959" font-weight="bold" stroke="none"><tspan dx="0 " x="0" y="7">opt external IPAs</tspan></text><path stroke="#A3A3A3" stroke-width="2" d="M251 385H620m0 0V191" /><path stroke="#9A8484" d="M248 188V384m0 0H619m0 0V188m0 0H248" /><path stroke="#9A8484" fill="#F1FAED" d="M248 188v17h20l13 -14v-3H248" /><path stroke="#9A8484" d="M248 188v17h20l13 -14v-3H248 Z" /><text transform="matrix(1 0 0 1 253 191)" fill="#595959" font-weight="bold" stroke="none"><tspan dx="0 " x="0" y="7">par </tspan></text><path stroke="#9A8484" stroke-dasharray="3,4" d="M248 322L615 322" /><text transform="matrix(1 0 0 1 253 208)" fill="#595959" stroke="none"><tspan dx="0 " x="0" y="7">[remote]</tspan></text><text transform="matrix(1 0 0 1 253 327)" fill="#595959" stroke="none"><tspan dx="0 " x="0" y="7">[local]</tspan></text><path stroke="#69738C" d="M81 135H191" /><path stroke="#69738C" fill="#69738C" d="M179 131v4v4l12 -4l-12 -4" /><path stroke="#69738C" d="M201 160H350" /><path stroke="#69738C" fill="#69738C" d="M338 156v4v4l12 -4l-12 -4" /><path stroke="#69738C" d="M360 245H493m0 0l-12 -4m12 4l-12 4" /><path stroke="#69738C" stroke-dasharray="7,4" d="M493 280L360 280" /><path stroke="#69738C" d="M360 280l12 -4m-12 4l12 4" /><path stroke="#69738C" d="M360 349h40m0 0v15m0 0H365" /><path stroke="#69738C" fill="#69738C" d="M377 360v4v4l-12 -4l12 -4" /><path stroke="#69738C" d="M360 399h40m0 0v15m0 0H365" /><path stroke="#69738C" fill="#69738C" d="M377 410v4v4l-12 -4l12 -4" /><path stroke="#69738C" d="M360 483H493" /><path stroke="#69738C" fill="#69738C" d="M481 479v4v4l12 -4l-12 -4" /><path stroke="#69738C" stroke-dasharray="7,4" d="M493 518L360 518" /><path stroke="#69738C" d="M360 518l12 -4m-12 4l12 4" /><path stroke="#69738C" stroke-dasharray="7,4" d="M350 582L201 582" /><path stroke="#69738C" d="M201 582l12 -4m-12 4l12 4" /><path stroke="#69738C" stroke-dasharray="7,4" d="M191 617L85 617" /><path stroke="#69738C" d="M81 617l12 -4m-12 4l12 4" /><g transform="matrix(1 0 0 -1 125 124)"><rect fill="#FFFFFF" stroke="none" x="0" width="25" y="-9" height="9" /></g><text transform="matrix(1 0 0 1 125 124)" fill="#595959" stroke="none"><tspan dx="0 " x="0" y="7">speak()</tspan></text><g transform="matrix(1 0 0 -1 407 472)"><rect fill="#FFFFFF" stroke="none" x="0" width="40" y="-9" height="9" /></g><text transform="matrix(1 0 0 1 407 472)" fill="#595959" stroke="none"><tspan dx="0 " x="0" y="7">callService()</tspan></text><g transform="matrix(1 0 0 -1 404 234)"><rect fill="#FFFFFF" stroke="none" x="0" width="47" y="-9" height="9" /></g><text transform="matrix(1 0 0 1 404 234)" fill="#595959" stroke="none"><tspan dx="0 " x="0" y="7">processInput()</tspan></text><g transform="matrix(1 0 0 -1 404 354)"><rect fill="#FFFFFF" stroke="none" x="0" width="102" y="-9" height="9" /></g><text transform="matrix(1 0 0 1 404 354)" fill="#595959" stroke="none"><tspan dx="0 " x="0" y="7">d</tspan><tspan dx="0 " x="4.25" y="7">e</tspan><tspan dx="0 " x="8.5" y="7">r</tspan><tspan dx="0 " x="11.25" y="7">i</tspan><tspan dx="0 " x="13" y="7">v</tspan><tspan dx="0 " x="17" y="7">e</tspan><tspan dx="0 " x="21.25" y="7">S</tspan><tspan dx="0 " x="25" y="7">e</tspan><tspan dx="0 " x="29" y="7">m</tspan><tspan dx="0 " x="35.5" y="7">a</tspan><tspan dx="0 " x="39.5" y="7">n</tspan><tspan dx="0 0 " x="43.5" y="7">ti</tspan><tspan dx="0 " x="48" y="7">c</tspan><tspan dx="0 " x="51.5" y="7">I</tspan><tspan dx="0 " x="53.5" y="7">n</tspan><tspan dx="0 " x="57.5" y="7">t</tspan><tspan dx="0 " x="60.25" y="7">e</tspan><tspan dx="0 " x="64.25" y="7">r</tspan><tspan dx="0 " x="67" y="7">p</tspan><tspan dx="0 " x="71" y="7">r</tspan><tspan dx="0 " x="73.75" y="7">e</tspan><tspan dx="0 " x="77.75" y="7">t</tspan><tspan dx="0 " x="80.5" y="7">a</tspan><tspan dx="0 0 " x="84.5" y="7">ti</tspan><tspan dx="0 " x="89" y="7">o</tspan><tspan dx="0 " x="93" y="7">n</tspan><tspan dx="0 " x="97" y="7">(</tspan><tspan dx="0 " x="99.5" y="7">)</tspan></text><g transform="matrix(1 0 0 -1 374 269)"><rect fill="#FFFFFF" stroke="none" x="0" width="104" y="-9" height="9" /></g><text transform="matrix(1 0 0 1 374 269)" fill="#595959" stroke="none"><tspan dx="0 " x="0" y="7">d</tspan><tspan dx="0 " x="4.25" y="7">e</tspan><tspan dx="0 " x="8.5" y="7">l</tspan><tspan dx="0 " x="10.25" y="7">i</tspan><tspan dx="0 " x="12" y="7">v</tspan><tspan dx="0 " x="16" y="7">e</tspan><tspan dx="0 " x="20.25" y="7">r</tspan><tspan dx="0 " x="23" y="7">S</tspan><tspan dx="0 " x="27" y="7">e</tspan><tspan dx="0 " x="31" y="7">m</tspan><tspan dx="0 " x="37.5" y="7">a</tspan><tspan dx="0 " x="41.5" y="7">n</tspan><tspan dx="0 0 " x="45.5" y="7">ti</tspan><tspan dx="0 " x="50" y="7">c</tspan><tspan dx="0 " x="53.5" y="7">I</tspan><tspan dx="0 " x="55.5" y="7">n</tspan><tspan dx="0 " x="59.5" y="7">t</tspan><tspan dx="0 " x="62.25" y="7">e</tspan><tspan dx="0 " x="66.25" y="7">r</tspan><tspan dx="0 " x="69" y="7">p</tspan><tspan dx="0 " x="73" y="7">r</tspan><tspan dx="0 " x="75.75" y="7">e</tspan><tspan dx="0 " x="79.75" y="7">t</tspan><tspan dx="0 " x="82.5" y="7">a</tspan><tspan dx="0 0 " x="86.5" y="7">ti</tspan><tspan dx="0 " x="91" y="7">o</tspan><tspan dx="0 " x="95" y="7">n</tspan><tspan dx="0 " x="99" y="7">(</tspan><tspan dx="0 " x="101.5" y="7">)</tspan></text><g transform="matrix(1 0 0 -1 404 404)"><rect fill="#FFFFFF" stroke="none" x="0" width="68" y="-9" height="9" /></g><text transform="matrix(1 0 0 1 404 404)" fill="#595959" stroke="none"><tspan dx="0 " x="0" y="7">processDialogInput()</tspan></text><g transform="matrix(1 0 0 -1 118 606)"><rect fill="#FFFFFF" stroke="none" x="0" width="38" y="-9" height="9" /></g><text transform="matrix(1 0 0 1 118 606)" fill="#595959" stroke="none"><tspan dx="0 " x="0" y="7">playAudio()</tspan></text><g transform="matrix(1 0 0 -1 247 571)"><rect fill="#FFFFFF" stroke="none" x="0" width="59" y="-9" height="9" /></g><text transform="matrix(1 0 0 1 247 571)" fill="#595959" stroke="none"><tspan dx="0 " x="0" y="7">deliverResponse()</tspan></text><g transform="matrix(1 0 0 -1 253 149)"><rect fill="#FFFFFF" stroke="none" x="0" width="47" y="-9" height="9" /></g><text transform="matrix(1 0 0 1 253 149)" fill="#595959" stroke="none"><tspan dx="0 " x="0" y="7">processInput()</tspan></text><g transform="matrix(1 0 0 -1 385 507)"><rect fill="#FFFFFF" stroke="none" x="0" width="83" y="-9" height="9" /></g><text transform="matrix(1 0 0 1 385 507)" fill="#595959" stroke="none"><tspan dx="0 " x="0" y="7">deliverServiceCallResult()</tspan></text></g></g></g></g></svg>