<?xml version="1.0" encoding="utf-8"?><svg version="1.1" preserveAspectRatio="xMidYMid" xml:space="preserve" width="423.90723pt" height="506.83841000000006pt" viewBox="43.91547 28.578490000000002 423.90723 506.83841000000006" xmlns="http://www.w3.org/2000/svg" xmlns:xlink="http://www.w3.org/1999/xlink"><g transform="matrix(1 0 0 -1 0 790)"><g stroke="#000000" fill="none" fill-rule="evenodd" stroke-width="1" stroke-linecap="round" stroke-linejoin="round" stroke-miterlimit="3" letter-spacing="normal" font-weight="normal" font-style="normal" baseline-shift="0"><g transform="matrix(0.5 0 0 0.5 0 790.549988)"><g transform="matrix(1.483299 0 0 -1.485139 0 0)" font-family="CalibriUnicode" font-size="7"><path fill="#D0D0D0" stroke="none" d="M73 56.5C73 54.01 75.01 52 77.5 52C79.99 52 82 54.01 82 56.5C82 58.99 79.99 61 77.5 61C75.01 61 73 58.99 73 56.5" /><path stroke="none" fill="#FEF2DD" d="M71 54.5C71 52.01 73.01 50 75.5 50C77.99 50 80 52.01 80 54.5C80 56.99 77.99 59 75.5 59C73.01 59 71 56.99 71 54.5" /><path stroke="#9A8484" d="M71 54.5C71 52.01 73.01 50 75.5 50C77.99 50 80 52.01 80 54.5C80 56.99 77.99 59 75.5 59C73.01 59 71 56.99 71 54.5M76 60V70M71 65H81M71 80L76 70m5 10L76 70" /><text transform="matrix(1 0 0 1 70 85)" fill="#595959" stroke="none"><tspan dx="0 " x="0" y="7">User</tspan></text><path stroke="#9A8484" stroke-dasharray="7,4" d="M76 94L76 711" /><rect stroke="none" fill="#FEF2DD" x="71" y="135" width="9" height="480" /><rect stroke="#9A8484" x="71" y="135" width="9" height="481" /><rect fill="#D0D0D0" stroke="none" x="189" y="53" width="90" height="50" /><rect stroke="none" fill="#F9EAEA" x="186" y="50" width="89" height="49" /><rect stroke="#9A8484" x="186" y="50" width="89" height="50" /><rect stroke="#9A8484" x="186" y="50" width="89" height="49" /><text transform="matrix(1 0 0 1 223 53)" fill="#595959" stroke="none"><tspan dx="0 " x="0" y="7">Client</tspan></text><path stroke="#9A8484" stroke-dasharray="7,4" d="M231 100L231 711" /><rect stroke="none" fill="#F9EAEA" x="226" y="135" width="9" height="480" /><rect stroke="#9A8484" x="226" y="135" width="9" height="481" /><rect fill="#D0D0D0" stroke="none" x="320" y="53" width="114" height="50" /><rect stroke="none" fill="#F9EAEA" x="317" y="50" width="113" height="49" /><rect stroke="#9A8484" x="317" y="50" width="113" height="50" /><rect stroke="#9A8484" x="317" y="50" width="113" height="49" /><text transform="matrix(1 0 0 1 365 53)" fill="#595959" stroke="none"><tspan dx="0 " x="0" y="7">Dialog</tspan></text><path stroke="#9A8484" stroke-dasharray="7,4" d="M374 100L374 711" /><rect stroke="none" fill="#F9EAEA" x="369" y="160" width="9" height="455" /><rect stroke="#9A8484" x="369" y="160" width="9" height="456" /><rect stroke="none" fill="#F9EAEA" x="374" y="364" width="9" height="10" /><rect stroke="#9A8484" x="374" y="364" width="9" height="11" /><rect stroke="none" fill="#F9EAEA" x="374" y="414" width="9" height="10" /><rect stroke="#9A8484" x="374" y="414" width="9" height="11" /><rect stroke="none" fill="#F9EAEA" x="374" y="597" width="9" height="10" /><rect stroke="#9A8484" x="374" y="597" width="9" height="11" /><rect fill="#D0D0D0" stroke="none" x="455" y="53" width="90" height="50" /><rect stroke="none" fill="#F9EAEA" x="452" y="50" width="89" height="49" /><rect stroke="#9A8484" x="452" y="50" width="89" height="50" /><rect stroke="#9A8484" x="452" y="50" width="89" height="49" /><text transform="matrix(1 0 0 1 456 53)" fill="#595959" stroke="none"><tspan dx="0 " x="0" y="7">External Data / Services / IPA</tspan></text><text transform="matrix(1 0 0 1 484 62)" fill="#595959" stroke="none"><tspan dx="0 " x="0" y="7">Providers</tspan></text><path stroke="#9A8484" stroke-dasharray="7,4" d="M497 100L497 711" /><rect stroke="none" fill="#F9EAEA" x="492" y="245" width="9" height="9" /><rect stroke="#9A8484" x="492" y="245" width="9" height="10" /><rect stroke="none" fill="#F9EAEA" x="492" y="483" width="9" height="9" /><rect stroke="#9A8484" x="492" y="483" width="9" height="10" /><path stroke="#A3A3A3" stroke-width="2" d="M307 548H605m0 0V449" /><path stroke="#9A8484" d="M304 446V547m0 0H604m0 0V446m0 0H304" /><path stroke="#9A8484" fill="#F1FAED" d="M304 446v16h52l13 -14v-2H304" /><path stroke="#9A8484" d="M304 446v16h52l13 -14v-2H304 Z" /><text transform="matrix(1 0 0 1 309 449)" fill="#595959" font-weight="bold" stroke="none"><tspan dx="0 " x="0" y="7">opt service call</tspan></text><path stroke="#A3A3A3" stroke-width="2" d="M304 315H608m0 0V198" /><path stroke="#9A8484" d="M301 195V314m0 0H607m0 0V195m0 0H301" /><path stroke="#9A8484" fill="#F1FAED" d="M301 195v16h58l13 -14v-2H301" /><path stroke="#9A8484" d="M301 195v16h58l13 -14v-2H301 Z" /><text transform="matrix(1 0 0 1 306 198)" fill="#595959" font-weight="bold" stroke="none"><tspan dx="0 " x="0" y="7">opt external IPAs</tspan></text><path stroke="#A3A3A3" stroke-width="2" d="M251 385H620m0 0V191" /><path stroke="#9A8484" d="M248 188V384m0 0H619m0 0V188m0 0H248" /><path stroke="#9A8484" fill="#F1FAED" d="M248 188v16h18l13 -14v-2H248" /><path stroke="#9A8484" d="M248 188v16h18l13 -14v-2H248 Z" /><text transform="matrix(1 0 0 1 253 191)" fill="#595959" font-weight="bold" stroke="none"><tspan dx="0 " x="0" y="7">par </tspan></text><path stroke="#9A8484" stroke-dasharray="3,4" d="M248 322L615 322" /><text transform="matrix(1 0 0 1 253 207)" fill="#595959" stroke="none"><tspan dx="0 " x="0" y="7">[remote]</tspan></text><text transform="matrix(1 0 0 1 253 327)" fill="#595959" stroke="none"><tspan dx="0 " x="0" y="7">[local]</tspan></text><path stroke="#69738C" d="M81 135H226" /><path stroke="#69738C" fill="#69738C" d="M214 131v4v4l12 -4l-12 -4" /><path stroke="#69738C" d="M236 160H369" /><path stroke="#69738C" fill="#69738C" d="M357 156v4v4l12 -4l-12 -4" /><path stroke="#69738C" d="M379 245H492m0 0l-12 -4m12 4l-12 4" /><path stroke="#69738C" d="M379 349h40m0 0v15m0 0H384" /><path stroke="#69738C" fill="#69738C" d="M396 360v4v4l-12 -4l12 -4" /><path stroke="#69738C" d="M379 399h40m0 0v15m0 0H384" /><path stroke="#69738C" fill="#69738C" d="M396 410v4v4l-12 -4l12 -4" /><path stroke="#69738C" d="M379 483H492" /><path stroke="#69738C" fill="#69738C" d="M480 479v4v4l12 -4l-12 -4" /><path stroke="#69738C" d="M379 582h40m0 0v15m0 0H384" /><path stroke="#69738C" fill="#69738C" d="M396 593v4v4l-12 -4l12 -4" /><g transform="matrix(1 0 0 -1 426 588)"><rect fill="#FFFFFF" stroke="none" x="0" width="116" y="-9" height="9" /></g><text transform="matrix(1 0 0 1 426 588)" fill="#595959" stroke="none"><tspan dx="0 " x="0" y="7">generateClientResponse(): ClientResponse</tspan></text><g transform="matrix(1 0 0 -1 128 119)"><rect fill="#FFFFFF" stroke="none" x="0" width="56" y="-9" height="9" /></g><text transform="matrix(1 0 0 1 128 119)" fill="#595959" stroke="none"><tspan dx="0 " x="0" y="7">speak(Audio): Audio</tspan></text><g transform="matrix(1 0 0 -1 426 405)"><rect fill="#FFFFFF" stroke="none" x="0" width="121" y="-9" height="9" /></g><text transform="matrix(1 0 0 1 426 405)" fill="#595959" stroke="none"><tspan dx="0 " x="0" y="7">p</tspan><tspan dx="0 " x="3.5" y="7">r</tspan><tspan dx="0 " x="5.75" y="7">o</tspan><tspan dx="0 " x="9.25" y="7">c</tspan><tspan dx="0 " x="12" y="7">e</tspan><tspan dx="0 " x="15.25" y="7">s</tspan><tspan dx="0 " x="18" y="7">s</tspan><tspan dx="0 " x="20.75" y="7">D</tspan><tspan dx="0 " x="25" y="7">i</tspan><tspan dx="0 " x="26.75" y="7">a</tspan><tspan dx="0 " x="29.75" y="7">l</tspan><tspan dx="0 " x="31.5" y="7">o</tspan><tspan dx="0 " x="35" y="7">g</tspan><tspan dx="0 " x="38" y="7">I</tspan><tspan dx="0 " x="39.75" y="7">n</tspan><tspan dx="0 " x="43.25" y="7">p</tspan><tspan dx="0 " x="46.75" y="7">u</tspan><tspan dx="0 " x="50.25" y="7">t</tspan><tspan dx="0 " x="52.5" y="7">(</tspan><tspan dx="0 " x="54.75" y="7">S</tspan><tspan dx="0 " x="57.75" y="7">e</tspan><tspan dx="0 " x="61" y="7">m</tspan><tspan dx="0 " x="66.25" y="7">a</tspan><tspan dx="0 " x="69.25" y="7">n</tspan><tspan dx="0 0 " x="72.75" y="7">ti</tspan><tspan dx="0 " x="76.75" y="7">c</tspan><tspan dx="0 " x="79.5" y="7">I</tspan><tspan dx="0 " x="81.25" y="7">n</tspan><tspan dx="0 " x="84.75" y="7">t</tspan><tspan dx="0 " x="87" y="7">e</tspan><tspan dx="0 " x="90.5" y="7">r</tspan><tspan dx="0 " x="92.75" y="7">p</tspan><tspan dx="0 " x="96.5" y="7">r</tspan><tspan dx="0 " x="98.75" y="7">e</tspan><tspan dx="0 " x="102.25" y="7">t</tspan><tspan dx="0 " x="104.5" y="7">a</tspan><tspan dx="0 0 " x="107.75" y="7">ti</tspan><tspan dx="0 " x="111.75" y="7">o</tspan><tspan dx="0 " x="115.5" y="7">n</tspan><tspan dx="0 " x="119.25" y="7">,</tspan></text><g transform="matrix(1 0 0 -1 454 414)"><rect fill="#FFFFFF" stroke="none" x="0" width="66" y="-9" height="9" /></g><text transform="matrix(1 0 0 1 454 414)" fill="#595959" stroke="none"><tspan dx="0 " x="0" y="7">ExternalClientResponse)</tspan></text><g transform="matrix(1 0 0 -1 424 355)"><rect fill="#FFFFFF" stroke="none" x="0" width="85" y="-9" height="9" /></g><text transform="matrix(1 0 0 1 424 355)" fill="#595959" stroke="none"><tspan dx="0 " x="0" y="7">d</tspan><tspan dx="0 " x="3.5" y="7">e</tspan><tspan dx="0 " x="6.75" y="7">r</tspan><tspan dx="0 " x="9" y="7">i</tspan><tspan dx="0 " x="10.75" y="7">v</tspan><tspan dx="0 " x="13.75" y="7">e</tspan><tspan dx="0 " x="17" y="7">S</tspan><tspan dx="0 " x="20" y="7">e</tspan><tspan dx="0 " x="23.25" y="7">m</tspan><tspan dx="0 " x="28.5" y="7">a</tspan><tspan dx="0 " x="31.5" y="7">n</tspan><tspan dx="0 0 " x="35" y="7">ti</tspan><tspan dx="0 " x="39" y="7">c</tspan><tspan dx="0 " x="41.75" y="7">I</tspan><tspan dx="0 " x="43.5" y="7">n</tspan><tspan dx="0 " x="47" y="7">t</tspan><tspan dx="0 " x="49.25" y="7">e</tspan><tspan dx="0 " x="52.5" y="7">r</tspan><tspan dx="0 " x="54.75" y="7">p</tspan><tspan dx="0 " x="58.25" y="7">r</tspan><tspan dx="0 " x="60.5" y="7">e</tspan><tspan dx="0 " x="63.75" y="7">t</tspan><tspan dx="0 " x="66" y="7">a</tspan><tspan dx="0 0 " x="69" y="7">ti</tspan><tspan dx="0 " x="73" y="7">o</tspan><tspan dx="0 " x="76.75" y="7">n</tspan><tspan dx="0 " x="80.5" y="7">(</tspan><tspan dx="0 " x="82.75" y="7">)</tspan></text><g transform="matrix(1 0 0 -1 369 227)"><rect fill="#FFFFFF" stroke="none" x="0" width="144" y="-9" height="9" /></g><text transform="matrix(1 0 0 1 369 227)" fill="#595959" stroke="none"><tspan dx="0 " x="0" y="7">processInput(ClientRequest): ExternalClientResponse</tspan></text><g transform="matrix(1 0 0 -1 278 145)"><rect fill="#FFFFFF" stroke="none" x="0" width="122" y="-9" height="9" /></g><text transform="matrix(1 0 0 1 278 145)" fill="#595959" stroke="none"><tspan dx="0 " x="0" y="7">processInput(ClientRequest): ClientResponse</tspan></text><g transform="matrix(1 0 0 -1 418 465)"><rect fill="#FFFFFF" stroke="none" x="0" width="123" y="-9" height="9" /></g><text transform="matrix(1 0 0 1 418 465)" fill="#595959" stroke="none"><tspan dx="0 " x="0" y="7">callService(ServieParameters): ServiceResult</tspan></text></g></g></g></g></svg>