<?xml version="1.0" encoding="utf-8"?><svg version="1.1" preserveAspectRatio="xMidYMid" xml:space="preserve" width="252.31519pt" height="285.38987pt" viewBox="21.75821 13.35163 252.31519 285.38987" xmlns="http://www.w3.org/2000/svg" xmlns:xlink="http://www.w3.org/1999/xlink"><g transform="matrix(1 0 0 -1 0 790)"><g stroke="#000000" fill="none" fill-rule="evenodd" stroke-width="1" stroke-linecap="round" stroke-linejoin="round" stroke-miterlimit="3" letter-spacing="normal" font-weight="normal" font-style="normal" baseline-shift="0"><g transform="matrix(0.6 0 0 0.6 0 790.549988)"><g transform="matrix(0.729368 0 0 -0.730054 0 0)" font-family="CalibriUnicode" font-size="8"><path fill="#D0D0D0" stroke="none" d="M73 56.5C73 54.01 75.01 52 77.5 52C79.99 52 82 54.01 82 56.5C82 58.99 79.99 61 77.5 61C75.01 61 73 58.99 73 56.5" /><path stroke="none" fill="#FEF2DD" d="M71 54.5C71 52.01 73.01 50 75.5 50C77.99 50 80 52.01 80 54.5C80 56.99 77.99 59 75.5 59C73.01 59 71 56.99 71 54.5" /><path stroke="#9A8484" d="M71 54.5C71 52.01 73.01 50 75.5 50C77.99 50 80 52.01 80 54.5C80 56.99 77.99 59 75.5 59C73.01 59 71 56.99 71 54.5M76 60V70M71 65H81M71 80L76 70m5 10L76 70" /><text transform="matrix(1 0 0 1 68 85)" fill="#595959" stroke="none"><tspan dx="0 " x="0" y="8">User</tspan></text><path stroke="#9A8484" stroke-dasharray="7,4" d="M76 95L76 663" /><rect stroke="none" fill="#FEF2DD" x="71" y="135" width="9" height="453" /><rect stroke="#9A8484" x="71" y="135" width="9" height="454" /><rect fill="#D0D0D0" stroke="none" x="154" y="53" width="90" height="50" /><rect stroke="none" fill="#F9EAEA" x="151" y="50" width="89" height="49" /><rect stroke="#9A8484" x="151" y="50" width="89" height="50" /><rect stroke="#9A8484" x="151" y="50" width="89" height="49" /><text transform="matrix(1 0 0 1 187 53)" fill="#595959" stroke="none"><tspan dx="0 " x="0" y="8">Client</tspan></text><path stroke="#9A8484" stroke-dasharray="7,4" d="M196 100L196 665" /><rect stroke="none" fill="#F9EAEA" x="191" y="135" width="9" height="453" /><rect stroke="#9A8484" x="191" y="135" width="9" height="454" /><rect fill="#D0D0D0" stroke="none" x="301" y="53" width="114" height="50" /><rect stroke="none" fill="#F9EAEA" x="298" y="50" width="113" height="49" /><rect stroke="#9A8484" x="298" y="50" width="113" height="50" /><rect stroke="#9A8484" x="298" y="50" width="113" height="49" /><text transform="matrix(1 0 0 1 344 53)" fill="#595959" stroke="none"><tspan dx="0 " x="0" y="8">Dialog</tspan></text><path stroke="#9A8484" stroke-dasharray="7,4" d="M355 100L355 665" /><rect stroke="none" fill="#F9EAEA" x="350" y="160" width="9" height="393" /><rect stroke="#9A8484" x="350" y="160" width="9" height="394" /><rect stroke="none" fill="#F9EAEA" x="355" y="336" width="9" height="10" /><rect stroke="#9A8484" x="355" y="336" width="9" height="11" /><rect fill="#D0D0D0" stroke="none" x="460" y="53" width="90" height="50" /><rect stroke="none" fill="#F9EAEA" x="457" y="50" width="89" height="49" /><rect stroke="#9A8484" x="457" y="50" width="89" height="50" /><rect stroke="#9A8484" x="457" y="50" width="89" height="49" /><text transform="matrix(1 0 0 1 460 53)" fill="#595959" stroke="none"><tspan dx="0 " x="0" y="8">External Data / Services /</tspan></text><text transform="matrix(1 0 0 1 480 63)" fill="#595959" stroke="none"><tspan dx="0 " x="0" y="8">IPA Providers</tspan></text><path stroke="#9A8484" stroke-dasharray="7,4" d="M502 100L502 665" /><rect stroke="none" fill="#F9EAEA" x="497" y="202" width="9" height="49" /><rect stroke="#9A8484" x="497" y="202" width="9" height="50" /><rect stroke="none" fill="#F9EAEA" x="497" y="408" width="9" height="49" /><rect stroke="#9A8484" x="497" y="408" width="9" height="50" /><path stroke="#A3A3A3" stroke-width="2" d="M309 470H608m0 0V369" /><path stroke="#9A8484" d="M306 366V469m0 0H607m0 0V366m0 0H306" /><path stroke="#9A8484" fill="#F1FAED" d="M306 366v17h56l13 -14v-3H306" /><path stroke="#9A8484" d="M306 366v17h56l13 -14v-3H306 Z" /><text transform="matrix(1 0 0 1 311 369)" fill="#595959" font-weight="bold" stroke="none"><tspan dx="0 " x="0" y="8">opt service call</tspan></text><path stroke="#A3A3A3" stroke-width="2" d="M309 287H608m0 0V177" /><path stroke="#9A8484" d="M306 174V286m0 0H607m0 0V174m0 0H306" /><path stroke="#9A8484" fill="#F1FAED" d="M306 174v17h64l13 -14v-3H306" /><path stroke="#9A8484" d="M306 174v17h64l13 -14v-3H306 Z" /><text transform="matrix(1 0 0 1 311 177)" fill="#595959" font-weight="bold" stroke="none"><tspan dx="0 " x="0" y="8">opt external IPAs</tspan></text><path stroke="#69738C" d="M81 135H191" /><path stroke="#69738C" fill="#69738C" d="M179 131v4v4l12 -4l-12 -4" /><path stroke="#69738C" d="M201 160H350" /><path stroke="#69738C" fill="#69738C" d="M338 156v4v4l12 -4l-12 -4" /><path stroke="#69738C" d="M360 202H497m0 0l-12 -4m12 4l-12 4" /><path stroke="#69738C" stroke-dasharray="7,4" d="M497 237L360 237" /><path stroke="#69738C" d="M360 237l12 -4m-12 4l12 4" /><path stroke="#69738C" d="M360 321h40m0 0v15m0 0H365" /><path stroke="#69738C" fill="#69738C" d="M377 332v4v4l-12 -4l12 -4" /><path stroke="#69738C" d="M360 408H497" /><path stroke="#69738C" fill="#69738C" d="M485 404v4v4l12 -4l-12 -4" /><path stroke="#69738C" stroke-dasharray="7,4" d="M497 443L360 443" /><path stroke="#69738C" d="M360 443l12 -4m-12 4l12 4" /><path stroke="#69738C" stroke-dasharray="7,4" d="M350 539L201 539" /><path stroke="#69738C" d="M201 539l12 -4m-12 4l12 4" /><path stroke="#69738C" stroke-dasharray="7,4" d="M191 574L85 574" /><path stroke="#69738C" d="M81 574l12 -4m-12 4l12 4" /><g transform="matrix(1 0 0 -1 125 124)"><rect fill="#FFFFFF" stroke="none" x="0" width="25" y="-11" height="11" /></g><text transform="matrix(1 0 0 1 125 124)" fill="#595959" stroke="none"><tspan dx="0 " x="0" y="8">speak()</tspan></text><g transform="matrix(1 0 0 -1 376 226)"><rect fill="#FFFFFF" stroke="none" x="0" width="104" y="-11" height="11" /></g><text transform="matrix(1 0 0 1 376 226)" fill="#595959" stroke="none"><tspan dx="0 " x="0" y="8">d</tspan><tspan dx="0 " x="4.25" y="8">e</tspan><tspan dx="0 " x="8.5" y="8">l</tspan><tspan dx="0 " x="10.25" y="8">i</tspan><tspan dx="0 " x="12" y="8">v</tspan><tspan dx="0 " x="16" y="8">e</tspan><tspan dx="0 " x="20.25" y="8">r</tspan><tspan dx="0 " x="23" y="8">S</tspan><tspan dx="0 " x="27" y="8">e</tspan><tspan dx="0 " x="31.25" y="8">m</tspan><tspan dx="0 " x="38" y="8">a</tspan><tspan dx="0 " x="41.75" y="8">n</tspan><tspan dx="0 0 " x="45.75" y="8">ti</tspan><tspan dx="0 " x="50.25" y="8">c</tspan><tspan dx="0 " x="53.75" y="8">I</tspan><tspan dx="0 " x="55.75" y="8">n</tspan><tspan dx="0 " x="59.75" y="8">t</tspan><tspan dx="0 " x="62.5" y="8">e</tspan><tspan dx="0 " x="66.5" y="8">r</tspan><tspan dx="0 " x="69.25" y="8">p</tspan><tspan dx="0 " x="73.25" y="8">r</tspan><tspan dx="0 " x="76" y="8">e</tspan><tspan dx="0 " x="80" y="8">t</tspan><tspan dx="0 " x="82.75" y="8">a</tspan><tspan dx="0 0 " x="86.5" y="8">ti</tspan><tspan dx="0 " x="91" y="8">o</tspan><tspan dx="0 " x="95" y="8">n</tspan><tspan dx="0 " x="99" y="8">(</tspan><tspan dx="0 " x="101.5" y="8">)</tspan></text><g transform="matrix(1 0 0 -1 118 563)"><rect fill="#FFFFFF" stroke="none" x="0" width="38" y="-11" height="11" /></g><text transform="matrix(1 0 0 1 118 563)" fill="#595959" stroke="none"><tspan dx="0 " x="0" y="8">playAudio()</tspan></text><g transform="matrix(1 0 0 -1 253 149)"><rect fill="#FFFFFF" stroke="none" x="0" width="47" y="-11" height="11" /></g><text transform="matrix(1 0 0 1 253 149)" fill="#595959" stroke="none"><tspan dx="0 " x="0" y="8">processInput()</tspan></text><g transform="matrix(1 0 0 -1 247 528)"><rect fill="#FFFFFF" stroke="none" x="0" width="59" y="-11" height="11" /></g><text transform="matrix(1 0 0 1 247 528)" fill="#595959" stroke="none"><tspan dx="0 " x="0" y="8">deliverResponse()</tspan></text><g transform="matrix(1 0 0 -1 409 397)"><rect fill="#FFFFFF" stroke="none" x="0" width="40" y="-11" height="11" /></g><text transform="matrix(1 0 0 1 409 397)" fill="#595959" stroke="none"><tspan dx="0 " x="0" y="8">callService()</tspan></text><g transform="matrix(1 0 0 -1 406 191)"><rect fill="#FFFFFF" stroke="none" x="0" width="47" y="-11" height="11" /></g><text transform="matrix(1 0 0 1 406 191)" fill="#595959" stroke="none"><tspan dx="0 " x="0" y="8">processInput()</tspan></text><g transform="matrix(1 0 0 -1 404 326)"><rect fill="#FFFFFF" stroke="none" x="0" width="68" y="-11" height="11" /></g><text transform="matrix(1 0 0 1 404 326)" fill="#595959" stroke="none"><tspan dx="0 " x="0" y="8">processDialogInput()</tspan></text><g transform="matrix(1 0 0 -1 387 432)"><rect fill="#FFFFFF" stroke="none" x="0" width="83" y="-11" height="11" /></g><text transform="matrix(1 0 0 1 387 432)" fill="#595959" stroke="none"><tspan dx="0 " x="0" y="8">deliverServiceCallResult()</tspan></text></g></g></g></g></svg>