<?xml version="1.0" encoding="utf-8"?><svg version="1.1" preserveAspectRatio="xMidYMid" xml:space="preserve" width="250.12708999999998pt" height="158.36057pt" viewBox="21.75821 13.35163 250.12708999999998 158.36057" xmlns="http://www.w3.org/2000/svg" xmlns:xlink="http://www.w3.org/1999/xlink"><g transform="matrix(1 0 0 -1 0 790)"><g stroke="#000000" fill="none" fill-rule="evenodd" stroke-width="1" stroke-linecap="round" stroke-linejoin="round" stroke-miterlimit="3" letter-spacing="normal" font-weight="normal" font-style="normal" baseline-shift="0"><g transform="matrix(0.6 0 0 0.6 0 790.549988)"><g transform="matrix(0.729368 0 0 -0.730054 0 0)" font-family="CalibriUnicode" font-size="8"><path fill="#D0D0D0" stroke="none" d="M73 56.5C73 54.01 75.01 52 77.5 52C79.99 52 82 54.01 82 56.5C82 58.99 79.99 61 77.5 61C75.01 61 73 58.99 73 56.5" /><path stroke="none" fill="#FEF2DD" d="M71 54.5C71 52.01 73.01 50 75.5 50C77.99 50 80 52.01 80 54.5C80 56.99 77.99 59 75.5 59C73.01 59 71 56.99 71 54.5" /><path stroke="#9A8484" d="M71 54.5C71 52.01 73.01 50 75.5 50C77.99 50 80 52.01 80 54.5C80 56.99 77.99 59 75.5 59C73.01 59 71 56.99 71 54.5M76 60V70M71 65H81M71 80L76 70m5 10L76 70" /><text transform="matrix(1 0 0 1 68 85)" fill="#595959" stroke="none"><tspan dx="0 " x="0" y="8">User</tspan></text><path stroke="#9A8484" stroke-dasharray="7,4" d="M76 95L76 375" /><rect stroke="none" fill="#FEF2DD" x="71" y="135" width="9" height="58" /><rect stroke="#9A8484" x="71" y="135" width="9" height="59" /><rect stroke="none" fill="#FEF2DD" x="71" y="345" width="9" height="9" /><rect stroke="#9A8484" x="71" y="345" width="9" height="10" /><rect fill="#D0D0D0" stroke="none" x="154" y="53" width="90" height="50" /><rect stroke="none" fill="#F9EAEA" x="151" y="50" width="89" height="49" /><rect stroke="#9A8484" x="151" y="50" width="89" height="50" /><rect stroke="#9A8484" x="151" y="50" width="89" height="49" /><text transform="matrix(1 0 0 1 187 53)" fill="#595959" stroke="none"><tspan dx="0 " x="0" y="8">Client</tspan></text><path stroke="#9A8484" stroke-dasharray="7,4" d="M196 100L196 371" /><rect stroke="none" fill="#F9EAEA" x="191" y="135" width="9" height="58" /><rect stroke="#9A8484" x="191" y="135" width="9" height="59" /><rect stroke="none" fill="#F9EAEA" x="191" y="310" width="9" height="49" /><rect stroke="#9A8484" x="191" y="310" width="9" height="50" /><rect fill="#D0D0D0" stroke="none" x="301" y="53" width="90" height="50" /><rect stroke="none" fill="#F9EAEA" x="298" y="50" width="89" height="49" /><rect stroke="#9A8484" x="298" y="50" width="89" height="50" /><rect stroke="#9A8484" x="298" y="50" width="89" height="49" /><text transform="matrix(1 0 0 1 332 53)" fill="#595959" stroke="none"><tspan dx="0 " x="0" y="8">Dialog</tspan></text><path stroke="#9A8484" stroke-dasharray="7,4" d="M343 100L343 371" /><rect stroke="none" fill="#F9EAEA" x="338" y="160" width="9" height="33" /><rect stroke="#9A8484" x="338" y="160" width="9" height="34" /><rect stroke="none" fill="#F9EAEA" x="338" y="214" width="9" height="145" /><rect stroke="#9A8484" x="338" y="214" width="9" height="146" /><rect fill="#D0D0D0" stroke="none" x="460" y="53" width="90" height="50" /><rect stroke="none" fill="#F9EAEA" x="457" y="50" width="89" height="49" /><rect stroke="#9A8484" x="457" y="50" width="89" height="50" /><rect stroke="#9A8484" x="457" y="50" width="89" height="49" /><text transform="matrix(1 0 0 1 483 53)" fill="#595959" stroke="none"><tspan dx="0 " x="0" y="8">APIs / Data</tspan></text><path stroke="#9A8484" stroke-dasharray="7,4" d="M502 100L502 371" /><rect stroke="none" fill="#F9EAEA" x="497" y="179" width="9" height="180" /><rect stroke="#9A8484" x="497" y="179" width="9" height="181" /><rect stroke="none" fill="#F9EAEA" x="502" y="275" width="9" height="11" /><rect stroke="#9A8484" x="502" y="275" width="9" height="12" /><path stroke="#A3A3A3" stroke-width="2" d="M305 295H603m0 0V242" /><path stroke="#9A8484" d="M302 239v55m0 0H602m0 0V239m0 0H302" /><path stroke="#9A8484" fill="#F1FAED" d="M302 239v17h20l13 -14v-3H302" /><path stroke="#9A8484" d="M302 239v17h20l13 -14v-3H302 Z" /><text transform="matrix(1 0 0 1 307 242)" fill="#595959" font-weight="bold" stroke="none"><tspan dx="0 " x="0" y="8">opt </tspan></text><path stroke="#69738C" d="M81 135H191" /><path stroke="#69738C" fill="#69738C" d="M179 131v4v4l12 -4l-12 -4" /><path stroke="#69738C" d="M201 160H338" /><path stroke="#69738C" fill="#69738C" d="M326 156v4v4l12 -4l-12 -4" /><path stroke="#69738C" d="M348 179H497m0 0l-12 -4m12 4l-12 4" /><path stroke="#69738C" d="M497 214H348" /><path stroke="#69738C" fill="#69738C" d="M360 210v4v4l-12 -4l12 -4" /><path stroke="#69738C" d="M348 275H502" /><path stroke="#69738C" fill="#69738C" d="M490 271v4v4l12 -4l-12 -4" /><path stroke="#69738C" d="M338 310H201" /><path stroke="#69738C" fill="#69738C" d="M213 306v4v4l-12 -4l12 -4" /><path stroke="#69738C" d="M191 345H81" /><path stroke="#69738C" fill="#69738C" d="M93 341v4v4L81 345l12 -4" /><g transform="matrix(1 0 0 -1 406 264)"><rect fill="#FFFFFF" stroke="none" x="0" width="40" y="-11" height="11" /></g><text transform="matrix(1 0 0 1 406 264)" fill="#595959" stroke="none"><tspan dx="0 " x="0" y="8">callService()</tspan></text><g transform="matrix(1 0 0 -1 389 203)"><rect fill="#FFFFFF" stroke="none" x="0" width="67" y="-11" height="11" /></g><text transform="matrix(1 0 0 1 389 203)" fill="#595959" stroke="none"><tspan dx="0 " x="0" y="8">s</tspan><tspan dx="0 " x="3" y="8">e</tspan><tspan dx="0 " x="7.25" y="8">n</tspan><tspan dx="0 " x="11.5" y="8">d</tspan><tspan dx="0 " x="15.75" y="8">I</tspan><tspan dx="0 " x="17.75" y="8">n</tspan><tspan dx="0 " x="22" y="8">t</tspan><tspan dx="0 " x="24.75" y="8">e</tspan><tspan dx="0 " x="29" y="8">r</tspan><tspan dx="0 " x="31.75" y="8">p</tspan><tspan dx="0 " x="36" y="8">r</tspan><tspan dx="0 " x="38.75" y="8">e</tspan><tspan dx="0 " x="43" y="8">t</tspan><tspan dx="0 " x="45.75" y="8">a</tspan><tspan dx="0 0 " x="49.5" y="8">ti</tspan><tspan dx="0 " x="54" y="8">o</tspan><tspan dx="0 " x="58" y="8">n</tspan><tspan dx="0 " x="62" y="8">(</tspan><tspan dx="0 " x="64.5" y="8">)</tspan></text><g transform="matrix(1 0 0 -1 241 299)"><rect fill="#FFFFFF" stroke="none" x="0" width="59" y="-11" height="11" /></g><text transform="matrix(1 0 0 1 241 299)" fill="#595959" stroke="none"><tspan dx="0 " x="0" y="8">deliverResponse()</tspan></text><g transform="matrix(1 0 0 -1 247 149)"><rect fill="#FFFFFF" stroke="none" x="0" width="47" y="-11" height="11" /></g><text transform="matrix(1 0 0 1 247 149)" fill="#595959" stroke="none"><tspan dx="0 " x="0" y="8">processInput()</tspan></text><g transform="matrix(1 0 0 -1 400 168)"><rect fill="#FFFFFF" stroke="none" x="0" width="47" y="-11" height="11" /></g><text transform="matrix(1 0 0 1 400 168)" fill="#595959" stroke="none"><tspan dx="0 " x="0" y="8">processInput()</tspan></text><g transform="matrix(1 0 0 -1 118 334)"><rect fill="#FFFFFF" stroke="none" x="0" width="38" y="-11" height="11" /></g><text transform="matrix(1 0 0 1 118 334)" fill="#595959" stroke="none"><tspan dx="0 " x="0" y="8">playAudio()</tspan></text><g transform="matrix(1 0 0 -1 125 124)"><rect fill="#FFFFFF" stroke="none" x="0" width="25" y="-11" height="11" /></g><text transform="matrix(1 0 0 1 125 124)" fill="#595959" stroke="none"><tspan dx="0 " x="0" y="8">speak()</tspan></text></g></g></g></g></svg>